<svg xmlns="http://www.w3.org/2000/svg" width="2400" height="1130" viewBox="0 0 2400 1130"><defs><style>.cls-1{isolation:isolate;}.cls-2{fill:#f799d1;}.cls-3{fill:#760046;}.cls-4{mix-blend-mode:multiply;opacity:0.3;}.cls-5{fill:#ef3930;}</style></defs><g class="cls-1"><g id="Layer_1" data-name="Layer 1"><path class="cls-2" d="M1579.33,57.82c0-18.22,10.41-56.45-36.52-56.45-41.57,0-31.16,38.23-31.16,56.45,0,.66,0,1.22.09,1.81h67.47C1579.25,59,1579.33,58.48,1579.33,57.82Z"/><path class="cls-3" d="M1918.39,1068.19A104.25,104.25,0,1,0,1814.13,964,104.36,104.36,0,0,0,1918.39,1068.19Zm0-180.55a76.3,76.3,0,1,1-76.3,76.31A76.38,76.38,0,0,1,1918.39,887.64Z"/><path class="cls-3" d="M476.34,1068.19A104.25,104.25,0,1,0,372.09,964,104.36,104.36,0,0,0,476.34,1068.19Zm0-180.55A76.3,76.3,0,1,1,400,964,76.38,76.38,0,0,1,476.34,887.64Z"/><path class="cls-3" d="M2375.93,812.32a18.15,18.15,0,0,0-17.35,12.91V794.56c.09-.11.17-.23.26-.35.39-.52.78-1,1.16-1.59.64-1,1.27-2,1.89-3,.27-.46.55-.9.82-1.37q1.14-2,2.2-4.23c.29-.61.56-1.25.84-1.87.47-1.06.94-2.12,1.38-3.23.29-.71.56-1.44.83-2.16.42-1.12.82-2.26,1.21-3.43.25-.73.49-1.46.73-2.22.42-1.35.81-2.75,1.19-4.17.16-.59.34-1.17.49-1.77.51-2,1-4.09,1.41-6.22.11-.52.19-1.07.3-1.6.31-1.65.6-3.32.86-5,.12-.79.23-1.6.34-2.4.2-1.51.39-3,.55-4.57.09-.85.18-1.7.25-2.57.15-1.62.26-3.26.36-4.92,0-.77.1-1.52.13-2.29.11-2.44.18-4.89.18-7.38s-.07-4.94-.18-7.37c0-.78-.09-1.54-.13-2.3-.1-1.66-.21-3.3-.35-4.92-.08-.86-.17-1.72-.26-2.58-.16-1.53-.35-3-.55-4.54-.11-.81-.22-1.63-.34-2.44-.26-1.67-.55-3.31-.85-4.94-.11-.55-.2-1.13-.31-1.68q-.64-3.16-1.4-6.18c-.17-.64-.35-1.25-.52-1.87-.37-1.38-.75-2.74-1.16-4.07-.24-.77-.5-1.52-.75-2.28-.38-1.14-.77-2.26-1.19-3.36-.27-.74-.56-1.49-.85-2.21-.43-1.09-.89-2.13-1.35-3.17-.29-.64-.57-1.3-.87-1.92q-1-2.16-2.15-4.15c-.29-.5-.59-1-.88-1.47-.61-1-1.23-2-1.87-3-.38-.55-.77-1.06-1.15-1.58-.54-.72-1.07-1.43-1.63-2.09-.19-.23-.36-.5-.56-.72-.14-3.34-.28-6.68-.45-10-.06-1.42-.14-2.85-.21-4.28q-.23-4.33-.47-8.67c-.09-1.62-.19-3.23-.28-4.84q-.27-4.4-.57-8.76c-.09-1.42-.18-2.84-.28-4.26-.3-4.22-.61-8.44-1-12.63-.06-.77-.13-1.52-.19-2.29-.29-3.5-.6-7-.93-10.47-.13-1.43-.27-2.85-.41-4.27q-.43-4.32-.88-8.59l-.48-4.35c-.35-3.12-.72-6.21-1.1-9.29-.13-1-.25-2.11-.39-3.16q-.78-6.1-1.65-12.08c-.13-.88-.27-1.74-.4-2.62-.47-3.11-1-6.2-1.46-9.25-.21-1.28-.43-2.54-.65-3.8-.47-2.73-1-5.42-1.46-8.09l-.54-2.91h18.85a12.15,12.15,0,0,0,12.16-12.16V278.08a13.23,13.23,0,0,0-12.78-12.63h-38.07V220a48.37,48.37,0,0,0-48.32-48.32H2227.4c11.37,0,17.87-16.77,11.1-28.59-.84-1.46-1.7-2.9-2.56-4.33h-.08c-30.2-49.85-76.41-79.15-125.49-79.15H339.52c-57.64,0-112.54,28.74-153.9,79.15h-.08c-1.61,2-3.18,4-4.74,6q-1.37,1.77-2.72,3.57-3.2,4.28-6.27,8.75c-.76,1.1-1.52,2.22-2.27,3.34-2.45,3.67-4.86,7.4-7.18,11.26-2,9.31-3.84,18.81-5.71,28.38-.51,2.6-1,5.22-1.51,7.83q-2.41,12.57-4.73,25.38c-.26,1.4-.52,2.78-.77,4.19-1.75,9.75-3.45,19.64-5.12,29.6q-.66,4-1.33,8-2,12.45-4,25.09c-.34,2.13-.67,4.23-1,6.37q-2.35,15.3-4.6,30.84c-.35,2.44-.69,4.89-1,7.34q-1.84,13-3.61,26.1-.49,3.64-1,7.3-2.11,16-4.12,32.09c-.23,1.87-.45,3.76-.68,5.64q-1.71,14-3.33,28c-.17,1.49-.36,3-.53,4.46v.09C105.77,566.89,96.89,690,92.69,804.24H67.56c-28.6,0-51.78,15.93-51.78,35.6V873.1A13.67,13.67,0,0,0,17,899.67c5.13,16,25.79,27.89,50.53,27.89H89.92c-.06,8.15-.09,16.24-.09,24.21v37.3H313.55a166.56,166.56,0,0,1-1.9-25.13c0-2.77.07-5.51.21-8.24.18-3.75.54-7.45,1-11.13.07-.63.15-1.26.23-1.88.39-3.07.9-6.1,1.46-9.11.11-.6.18-1.21.29-1.8,0,.06,0,.11,0,.17,14.9-75.63,81.49-132.7,161.49-132.7A164.73,164.73,0,0,1,637.87,931.78c0,.13,0,.25.07.37,1,5.09,1.76,10.24,2.28,15.48,0,.14,0,.28,0,.42.24,2.53.45,5.07.57,7.63q.21,4.11.21,8.26a165.26,165.26,0,0,1-1.91,25.13h1114a164.73,164.73,0,0,0,162.79,139.56l1.17,0A164.72,164.72,0,0,1,1755.6,989.07a166.56,166.56,0,0,1-1.9-25.13c0-2.77.07-5.51.21-8.24.18-3.75.53-7.45,1-11.13.07-.63.15-1.26.23-1.88.39-3.07.9-6.1,1.46-9.11.11-.6.17-1.21.29-1.8,0,.06,0,.11,0,.17,14.9-75.63,81.49-132.7,161.49-132.7a164.73,164.73,0,0,1,161.53,132.53l.06.37c1,5.09,1.77,10.24,2.29,15.48l0,.42c.24,2.53.44,5.07.57,7.63q.21,4.11.21,8.26a165.26,165.26,0,0,1-1.91,25.13h62.22c.55.28,1.1.53,1.65.79,1.06.48,2.13.93,3.22,1.35.65.24,1.29.49,1.94.71,1.11.37,2.24.69,3.38,1,.67.17,1.32.36,2,.51,1.24.27,2.5.47,3.77.65.59.09,1.18.21,1.79.27a51.21,51.21,0,0,0,5.71.33h133.93a93.34,93.34,0,0,0,93.35-93.36v-70.8A18.18,18.18,0,0,0,2375.93,812.32ZM861.4,361.51a21.75,21.75,0,0,1-21.75,21.76H562.58a21.76,21.76,0,0,1-21.76-21.76V165.84a21.75,21.75,0,0,1,21.76-21.75H839.65a21.75,21.75,0,0,1,21.75,21.75Zm416.48,0a21.75,21.75,0,0,1-21.75,21.76H979.05a21.75,21.75,0,0,1-21.75-21.76V165.84a21.75,21.75,0,0,1,21.75-21.75h277.08a21.75,21.75,0,0,1,21.75,21.75Zm406.07,0a21.76,21.76,0,0,1-21.76,21.76H1385.12a21.76,21.76,0,0,1-21.76-21.76V165.84a21.75,21.75,0,0,1,21.76-21.75h277.07A21.76,21.76,0,0,1,1684,165.84Zm123.56,351.64a99.61,99.61,0,1,1,99.6-99.61A99.61,99.61,0,0,1,1807.51,713.15Zm427.86-322.91-436.72-6.46c-19-.28-34.43-12.44-34.43-26.86V162c0-10,12.46-17.69,27.84-17.43l353.35,6c15.27.25,30.85,8.42,34.87,18.42l78.62,195.4C2264.71,378.79,2254.23,390.52,2235.37,390.24Z"/><path class="cls-3" d="M2233.21,353.84l-7.77-20.19-36.61-95.15-10.38-27L2164.77,176a16.22,16.22,0,0,0-1.63-3c-.18-.27-.36-.52-.56-.78a21.06,21.06,0,0,0-2.06-2.43c-.14-.13-.25-.28-.39-.41a29.13,29.13,0,0,0-3-2.52c-.29-.22-.6-.42-.91-.63q-1.33-.92-2.82-1.74l-.95-.54q-1.86-1-3.87-1.77c-.38-.15-.78-.28-1.17-.42-.6-.22-1.18-.46-1.79-.65l.07.09a44.15,44.15,0,0,0-12.71-2.21l-51.8-.87-36.86-.62-117.91-2-37.2-.62-52.22-.88-28.87-.49a38.84,38.84,0,0,0-7.2.62l-.08-.05c-.5.08-1,.23-1.44.33s-1.21.26-1.8.42c-.9.25-1.74.55-2.58.86-.44.17-.9.3-1.33.48a24.85,24.85,0,0,0-3.33,1.73c-.34.21-.62.45-.95.68a18.54,18.54,0,0,0-1.94,1.51c-.33.29-.61.6-.91.91a16.09,16.09,0,0,0-1.37,1.64c-.24.33-.46.66-.67,1a11.43,11.43,0,0,0-.9,1.95c-.12.32-.27.62-.36.95a10.77,10.77,0,0,0-.43,3.11l1.27,71,.52,28.75,1.4,77.79a18.53,18.53,0,0,0,1.94,7.62l-.14,0c.12.25.31.49.44.74.29.57.62,1.12,1,1.67a20.81,20.81,0,0,0,1.55,2.15c.4.49.78,1,1.22,1.47a29.42,29.42,0,0,0,2.58,2.39c.32.26.58.55.91.8a33.5,33.5,0,0,0,4.11,2.63c.51.27,1,.5,1.58.76,1.06.51,2.15,1,3.29,1.41.61.22,1.22.43,1.85.62a36.86,36.86,0,0,0,3.69.93c.59.12,1.15.26,1.75.36a41.36,41.36,0,0,0,5.73.53l111.5,1.66,45.11.67L2147.64,376l44.94.67,18.9.28a35.68,35.68,0,0,0,5.38-.35c.47-.07.92-.14,1.38-.23a28.07,28.07,0,0,0,3.87-1c.28-.1.59-.16.86-.26a22,22,0,0,0,3.83-1.86c.34-.2.63-.43.94-.65a16.9,16.9,0,0,0,2.28-1.88c.28-.27.58-.54.84-.83a15,15,0,0,0,2-2.91c.16-.3.25-.63.38-.94a13.41,13.41,0,0,0,.66-1.62l-.11-.07A16.36,16.36,0,0,0,2233.21,353.84Z"/><path class="cls-3" d="M1669.22,170a21.06,21.06,0,0,0-.88-2.86c-.07-.16-.11-.33-.18-.49a20.13,20.13,0,0,0-1.61-3c-.16-.25-.34-.49-.52-.73a20.67,20.67,0,0,0-1.69-2.05c-.19-.21-.37-.42-.58-.62a19.17,19.17,0,0,0-2.51-2.07c-.25-.18-.53-.33-.79-.49s-.79-.53-1.21-.76a.35.35,0,0,0,0,.11,19.66,19.66,0,0,0-9.33-2.43H1397.36a19.59,19.59,0,0,0-5.6.9.46.46,0,0,0-.07-.07c-.38.12-.74.3-1.11.44s-.95.33-1.41.54a19.74,19.74,0,0,0-2,1.1c-.34.21-.71.38-1,.61a19.88,19.88,0,0,0-2.61,2.15c-.26.26-.49.56-.74.84a19.51,19.51,0,0,0-1.53,1.85c-.26.36-.48.73-.71,1.11a18.17,18.17,0,0,0-1.08,2c-.19.4-.37.8-.53,1.21a22.7,22.7,0,0,0-.73,2.34c-.09.38-.21.75-.28,1.13a19.56,19.56,0,0,0-.37,3.69V352.86a19.63,19.63,0,0,0,1.17,6.48l-.09,0c.07.21.19.41.27.62.18.48.38.94.6,1.4.3.62.62,1.21,1,1.79.26.41.49.83.77,1.22a20.53,20.53,0,0,0,1.63,2c.2.21.36.45.57.66a19.55,19.55,0,0,0,2.59,2.13c.32.23.66.41,1,.62a20.73,20.73,0,0,0,2.08,1.13c.38.18.77.34,1.17.49a20.49,20.49,0,0,0,2.34.73c.37.09.73.2,1.11.27a20,20,0,0,0,3.65.37H1650a20,20,0,0,0,3.57-.36c.32-.06.62-.13.94-.21a19.77,19.77,0,0,0,2.74-.85l.62-.22a20.27,20.27,0,0,0,2.93-1.6c.27-.17.51-.36.77-.55a21.12,21.12,0,0,0,1.94-1.6c.25-.24.51-.46.74-.71a19.25,19.25,0,0,0,2-2.47c.18-.26.32-.53.49-.8.28-.45.58-.9.83-1.38l0-.05a19.66,19.66,0,0,0,2.27-9V174.49a20,20,0,0,0-.36-3.57C1669.36,170.61,1669.29,170.31,1669.22,170Z"/><path class="cls-3" d="M1263.16,170a19.77,19.77,0,0,0-.89-2.86c-.06-.16-.11-.33-.18-.49a19.18,19.18,0,0,0-1.6-3c-.17-.25-.35-.49-.52-.73a20.67,20.67,0,0,0-1.69-2.05c-.2-.21-.38-.42-.58-.62a19.86,19.86,0,0,0-2.51-2.07c-.26-.18-.53-.33-.79-.49-.41-.26-.79-.53-1.22-.76a.61.61,0,0,1,0,.11,19.6,19.6,0,0,0-9.33-2.43H991.29a19.52,19.52,0,0,0-5.59.9l-.07-.07c-.39.12-.74.3-1.12.44s-1,.33-1.41.54a18.6,18.6,0,0,0-2,1.1c-.35.21-.71.38-1,.61a19.88,19.88,0,0,0-2.61,2.15c-.27.26-.49.56-.75.84a18,18,0,0,0-1.52,1.85c-.26.36-.48.73-.72,1.11a22.33,22.33,0,0,0-1.08,2c-.18.4-.36.8-.52,1.21a18.67,18.67,0,0,0-.73,2.34c-.1.38-.21.75-.29,1.13a20.43,20.43,0,0,0-.37,3.69V352.86a19.89,19.89,0,0,0,1.17,6.48l-.09,0c.08.21.19.41.27.62.19.48.39.94.61,1.4a19.25,19.25,0,0,0,1,1.79c.25.41.49.83.77,1.22a20.43,20.43,0,0,0,1.62,2c.2.21.37.45.58.66a19.46,19.46,0,0,0,2.58,2.13c.32.23.67.41,1,.62a21.89,21.89,0,0,0,2.08,1.13c.39.18.77.34,1.17.49a20.49,20.49,0,0,0,2.34.73c.38.09.74.2,1.11.27a20,20,0,0,0,3.65.37h252.59a19.91,19.91,0,0,0,3.57-.36c.32-.06.63-.13.94-.21a19.35,19.35,0,0,0,2.74-.85l.62-.22a19.86,19.86,0,0,0,2.94-1.6c.26-.17.51-.36.76-.55a19.86,19.86,0,0,0,1.94-1.6c.25-.24.51-.46.75-.71a20.12,20.12,0,0,0,2-2.47c.18-.26.32-.53.48-.8.29-.45.59-.9.84-1.38l-.06-.05a19.53,19.53,0,0,0,2.27-9V174.49a20,20,0,0,0-.36-3.57C1263.3,170.61,1263.23,170.31,1263.16,170Z"/><path class="cls-3" d="M846.68,170a21.06,21.06,0,0,0-.88-2.86c-.07-.16-.11-.33-.18-.49a20.13,20.13,0,0,0-1.61-3c-.16-.25-.34-.49-.52-.73a20.67,20.67,0,0,0-1.69-2.05c-.19-.21-.38-.42-.58-.62a19.86,19.86,0,0,0-2.51-2.07c-.25-.18-.53-.33-.79-.49s-.79-.53-1.21-.76a.35.35,0,0,0,0,.11,19.66,19.66,0,0,0-9.33-2.43H574.82a19.59,19.59,0,0,0-5.6.9l-.07-.07c-.38.12-.74.3-1.11.44s-.95.33-1.41.54a19.74,19.74,0,0,0-2,1.1c-.34.21-.71.38-1,.61a19.88,19.88,0,0,0-2.61,2.15c-.27.26-.49.56-.74.84a19.51,19.51,0,0,0-1.53,1.85c-.26.36-.48.73-.71,1.11a18.17,18.17,0,0,0-1.08,2c-.19.4-.37.8-.53,1.21a18.67,18.67,0,0,0-.73,2.34c-.09.38-.21.75-.28,1.13a19.56,19.56,0,0,0-.37,3.69V352.86a19.63,19.63,0,0,0,1.17,6.48l-.09,0c.07.21.19.41.27.62.18.48.38.94.6,1.4.3.62.62,1.21,1,1.79.26.41.49.83.77,1.22a20.53,20.53,0,0,0,1.63,2c.2.21.36.45.57.66a18.93,18.93,0,0,0,2.59,2.13c.32.23.66.41,1,.62a20.73,20.73,0,0,0,2.08,1.13c.38.18.77.34,1.17.49a20.49,20.49,0,0,0,2.34.73c.37.09.73.2,1.11.27a19.9,19.9,0,0,0,3.65.37H827.41a20,20,0,0,0,3.57-.36c.32-.06.62-.13.94-.21a19.77,19.77,0,0,0,2.74-.85l.62-.22a20.27,20.27,0,0,0,2.93-1.6c.26-.17.51-.36.77-.55a21.12,21.12,0,0,0,1.94-1.6c.25-.24.5-.46.74-.71a20.12,20.12,0,0,0,2-2.47c.18-.26.32-.53.49-.8.28-.45.58-.9.83-1.38l0-.05a19.66,19.66,0,0,0,2.27-9V174.49a20,20,0,0,0-.36-3.57C846.82,170.61,846.75,170.31,846.68,170Z"/><polygon class="cls-3" points="1826.87 547.84 1788.14 547.84 1788.14 594.18 1741.8 594.18 1741.8 632.9 1788.14 632.9 1788.14 679.25 1826.87 679.25 1826.87 632.9 1873.22 632.9 1873.22 594.18 1826.87 594.18 1826.87 547.84"/><path d="M395.65,1043.2a112.95,112.95,0,0,0,161.37,0,164.89,164.89,0,0,0,80.85-111.42A164.73,164.73,0,0,0,476.34,799.25c-80,0-146.59,57.07-161.49,132.7A164.91,164.91,0,0,0,395.65,1043.2Zm80.69-183.51A104.25,104.25,0,1,1,372.09,964,104.37,104.37,0,0,1,476.34,859.69Z"/><path class="cls-3" d="M640.82,955.68c-.12-2.56-.33-5.1-.57-7.63,0-.14,0-.28,0-.42-.52-5.24-1.29-10.39-2.28-15.48,0-.12-.05-.24-.07-.37A164.89,164.89,0,0,1,557,1043.2a112.95,112.95,0,0,1-161.37,0A164.91,164.91,0,0,1,314.85,932c0-.06,0-.11,0-.17-.11.59-.18,1.2-.29,1.8-.56,3-1.07,6-1.46,9.11-.08.62-.16,1.25-.23,1.88-.43,3.68-.79,7.38-1,11.13-.14,2.73-.21,5.47-.21,8.24a166.56,166.56,0,0,0,1.9,25.13A164.7,164.7,0,0,0,641,963.94Q641,959.78,640.82,955.68Z"/><path class="cls-4" d="M640.82,955.68c-.12-2.56-.33-5.1-.57-7.63,0-.14,0-.28,0-.42-.52-5.24-1.29-10.39-2.28-15.48,0-.12-.05-.24-.07-.37A164.89,164.89,0,0,1,557,1043.2a112.95,112.95,0,0,1-161.37,0A164.91,164.91,0,0,1,314.85,932c0-.06,0-.11,0-.17-.11.59-.18,1.2-.29,1.8-.56,3-1.07,6-1.46,9.11-.08.62-.16,1.25-.23,1.88-.43,3.68-.79,7.38-1,11.13-.14,2.73-.21,5.47-.21,8.24a166.56,166.56,0,0,0,1.9,25.13A164.7,164.7,0,0,0,641,963.94Q641,959.78,640.82,955.68Z"/><path d="M476.34,1040.24A76.3,76.3,0,1,0,400,964,76.38,76.38,0,0,0,476.34,1040.24Z"/><path d="M1837.7,1043.2a112.95,112.95,0,0,0,161.37,0,164.92,164.92,0,0,0,80.85-111.42,164.73,164.73,0,0,0-161.53-132.53c-80,0-146.59,57.07-161.49,132.7A164.91,164.91,0,0,0,1837.7,1043.2Zm80.69-183.51A104.25,104.25,0,1,1,1814.13,964,104.37,104.37,0,0,1,1918.39,859.69Z"/><path class="cls-4" d="M2078.47,990.23c-.58,3.66-1.27,7.29-2.1,10.87-.13.56-.28,1.11-.41,1.67-.9,3.72-1.9,7.4-3,11l-.12.37c-1.15,3.59-2.45,7.12-3.83,10.6-.2.5-.39,1-.59,1.5-1.37,3.36-2.87,6.65-4.45,9.89-.31.62-.61,1.24-.92,1.85q-2.4,4.77-5.1,9.37l-1,1.67c-1.88,3.11-3.84,6.17-5.91,9.14-.24.34-.5.67-.74,1q-3.16,4.47-6.62,8.72l-.45.57c-2.35,2.86-4.82,5.61-7.35,8.3-.39.42-.78.85-1.18,1.26q-3.71,3.86-7.66,7.46l-1.47,1.33q-4,3.57-8.21,6.88l-1.37,1c-2.94,2.25-5.94,4.43-9,6.48l-.59.38q-4.62,3-9.46,5.77l-1,.58c-3.21,1.78-6.49,3.44-9.83,5l-1.69.8q-4.92,2.25-10,4.18l-1.83.67q-5.18,1.91-10.5,3.47l-1.45.39c-3.76,1.06-7.56,2-11.42,2.81a164.72,164.72,0,0,1-32,3.31l1.3,0a164.72,164.72,0,0,0,162.78-139.56h-2.47C2078.64,989.46,2078.54,989.84,2078.47,990.23Z"/><path class="cls-3" d="M2082.87,955.68c-.13-2.56-.33-5.1-.57-7.63l0-.42c-.52-5.24-1.29-10.39-2.29-15.48l-.06-.37a164.92,164.92,0,0,1-80.85,111.42,112.95,112.95,0,0,1-161.37,0A164.91,164.91,0,0,1,1756.9,932c0-.06,0-.11,0-.17-.12.59-.18,1.2-.29,1.8-.56,3-1.07,6-1.46,9.11-.08.62-.16,1.25-.23,1.88-.44,3.68-.79,7.38-1,11.13-.14,2.73-.21,5.47-.21,8.24a166.56,166.56,0,0,0,1.9,25.13,162.5,162.5,0,0,0,193.51,136.22c3.86-.79,7.66-1.75,11.42-2.81l1.45-.39q5.32-1.56,10.5-3.47l1.83-.67q5.09-1.93,10-4.18l1.69-.8c3.34-1.57,6.62-3.23,9.83-5l1-.58q4.83-2.73,9.46-5.77l.59-.38c3.1-2,6.1-4.23,9-6.48l1.37-1q4.21-3.32,8.21-6.88l1.47-1.33q3.94-3.6,7.66-7.46c.4-.41.79-.84,1.18-1.26,2.53-2.69,5-5.44,7.35-8.3l.45-.57q3.45-4.25,6.62-8.72c.24-.34.5-.67.74-1,2.07-3,4-6,5.91-9.14l1-1.67q2.7-4.59,5.1-9.37c.31-.61.61-1.23.92-1.85,1.58-3.24,3.08-6.53,4.45-9.89.2-.49.39-1,.59-1.5,1.38-3.48,2.68-7,3.83-10.6l.12-.37c1.14-3.62,2.14-7.3,3-11,.13-.56.28-1.11.41-1.67.83-3.58,1.52-7.21,2.1-10.87.07-.39.17-.77.23-1.16h2.47a165.26,165.26,0,0,0,1.91-25.13Q2083.08,959.78,2082.87,955.68Z"/><path class="cls-4" d="M2082.87,955.68c-.13-2.56-.33-5.1-.57-7.63l0-.42c-.52-5.24-1.29-10.39-2.29-15.48l-.06-.37a164.92,164.92,0,0,1-80.85,111.42,112.95,112.95,0,0,1-161.37,0A164.91,164.91,0,0,1,1756.9,932c0-.06,0-.11,0-.17-.12.59-.18,1.2-.29,1.8-.56,3-1.07,6-1.46,9.11-.08.62-.16,1.25-.23,1.88-.44,3.68-.79,7.38-1,11.13-.14,2.73-.21,5.47-.21,8.24a166.56,166.56,0,0,0,1.9,25.13,162.5,162.5,0,0,0,193.51,136.22c3.86-.79,7.66-1.75,11.42-2.81l1.45-.39q5.32-1.56,10.5-3.47l1.83-.67q5.09-1.93,10-4.18l1.69-.8c3.34-1.57,6.62-3.23,9.83-5l1-.58q4.83-2.73,9.46-5.77l.59-.38c3.1-2,6.1-4.23,9-6.48l1.37-1q4.21-3.32,8.21-6.88l1.47-1.33q3.94-3.6,7.66-7.46c.4-.41.79-.84,1.18-1.26,2.53-2.69,5-5.44,7.35-8.3l.45-.57q3.45-4.25,6.62-8.72c.24-.34.5-.67.74-1,2.07-3,4-6,5.91-9.14l1-1.67q2.7-4.59,5.1-9.37c.31-.61.61-1.23.92-1.85,1.58-3.24,3.08-6.53,4.45-9.89.2-.49.39-1,.59-1.5,1.38-3.48,2.68-7,3.83-10.6l.12-.37c1.14-3.62,2.14-7.3,3-11,.13-.56.28-1.11.41-1.67.83-3.58,1.52-7.21,2.1-10.87.07-.39.17-.77.23-1.16h2.47a165.26,165.26,0,0,0,1.91-25.13Q2083.08,959.78,2082.87,955.68Z"/><path d="M1918.39,1040.24a76.3,76.3,0,1,0-76.3-76.29A76.38,76.38,0,0,0,1918.39,1040.24Z"/><path class="cls-5" d="M1807.51,513.94a99.61,99.61,0,1,0,99.6,99.6A99.61,99.61,0,0,0,1807.51,513.94Zm65.72,119h-46.36v46.35h-38.73V632.9H1741.8V594.18h46.34V547.84h38.73v46.34h46.36Z"/><path class="cls-2" d="M839.65,144.09H562.58a21.75,21.75,0,0,0-21.76,21.75V361.51a21.76,21.76,0,0,0,21.76,21.76H839.65a21.75,21.75,0,0,0,21.75-21.76V165.84A21.75,21.75,0,0,0,839.65,144.09Zm7.59,70.77v138a19.66,19.66,0,0,1-2.27,9l0,.05c-.25.48-.55.93-.83,1.38-.17.27-.31.54-.49.8a20.12,20.12,0,0,1-2,2.47c-.24.25-.49.47-.74.71a21.12,21.12,0,0,1-1.94,1.6c-.26.19-.51.38-.77.55a20.27,20.27,0,0,1-2.93,1.6l-.62.22a19.77,19.77,0,0,1-2.74.85c-.32.08-.62.15-.94.21a20,20,0,0,1-3.57.36H574.82a19.9,19.9,0,0,1-3.65-.37c-.38-.07-.74-.18-1.11-.27a20.49,20.49,0,0,1-2.34-.73c-.4-.15-.79-.31-1.17-.49a20.73,20.73,0,0,1-2.08-1.13c-.34-.21-.68-.39-1-.62a18.93,18.93,0,0,1-2.59-2.13c-.21-.21-.37-.45-.57-.66a20.53,20.53,0,0,1-1.63-2c-.28-.39-.51-.81-.77-1.22-.35-.58-.67-1.17-1-1.79-.22-.46-.42-.92-.6-1.4-.08-.21-.2-.41-.27-.62l.09,0a19.63,19.63,0,0,1-1.17-6.48V174.49a19.56,19.56,0,0,1,.37-3.69c.07-.38.19-.75.28-1.13a18.67,18.67,0,0,1,.73-2.34c.16-.41.34-.81.53-1.21a18.17,18.17,0,0,1,1.08-2c.23-.38.45-.75.71-1.11a19.51,19.51,0,0,1,1.53-1.85c.25-.28.47-.58.74-.84a19.88,19.88,0,0,1,2.61-2.15c.33-.23.7-.4,1-.61a19.74,19.74,0,0,1,2-1.1c.46-.21.93-.37,1.41-.54s.73-.32,1.11-.44l.07.07a19.59,19.59,0,0,1,5.6-.9H827.41a19.66,19.66,0,0,1,9.33,2.43.35.35,0,0,1,0-.11c.42.23.81.5,1.21.76s.54.31.79.49a19.86,19.86,0,0,1,2.51,2.07c.2.2.39.41.58.62a20.67,20.67,0,0,1,1.69,2.05c.18.24.36.48.52.73a20.13,20.13,0,0,1,1.61,3c.07.16.11.33.18.49a21.06,21.06,0,0,1,.88,2.86c.07.3.14.6.2.91a20,20,0,0,1,.36,3.57Z"/><path class="cls-2" d="M1256.13,144.09H979.05a21.75,21.75,0,0,0-21.75,21.75V361.51a21.75,21.75,0,0,0,21.75,21.76h277.08a21.75,21.75,0,0,0,21.75-21.76V165.84A21.75,21.75,0,0,0,1256.13,144.09Zm7.58,70.77v138a19.53,19.53,0,0,1-2.27,9l.06.05c-.25.48-.55.93-.84,1.38-.16.27-.3.54-.48.8a20.12,20.12,0,0,1-2,2.47c-.24.25-.5.47-.75.71a19.86,19.86,0,0,1-1.94,1.6c-.25.19-.5.38-.76.55a19.86,19.86,0,0,1-2.94,1.6l-.62.22a19.35,19.35,0,0,1-2.74.85c-.31.08-.62.15-.94.21a19.91,19.91,0,0,1-3.57.36H991.29a20,20,0,0,1-3.65-.37c-.37-.07-.73-.18-1.11-.27a20.49,20.49,0,0,1-2.34-.73c-.4-.15-.78-.31-1.17-.49a21.89,21.89,0,0,1-2.08-1.13c-.33-.21-.68-.39-1-.62a19.46,19.46,0,0,1-2.58-2.13c-.21-.21-.38-.45-.58-.66a20.43,20.43,0,0,1-1.62-2c-.28-.39-.52-.81-.77-1.22a19.25,19.25,0,0,1-1-1.79c-.22-.46-.42-.92-.61-1.4-.08-.21-.19-.41-.27-.62l.09,0a19.89,19.89,0,0,1-1.17-6.48V174.49a20.43,20.43,0,0,1,.37-3.69c.08-.38.19-.75.29-1.13a18.67,18.67,0,0,1,.73-2.34c.16-.41.34-.81.52-1.21a22.33,22.33,0,0,1,1.08-2c.24-.38.46-.75.72-1.11a18,18,0,0,1,1.52-1.85c.26-.28.48-.58.75-.84a19.88,19.88,0,0,1,2.61-2.15c.33-.23.69-.4,1-.61a18.6,18.6,0,0,1,2-1.1c.46-.21.94-.37,1.41-.54s.73-.32,1.12-.44l.07.07a19.52,19.52,0,0,1,5.59-.9h252.59a19.6,19.6,0,0,1,9.33,2.43.61.61,0,0,0,0-.11c.43.23.81.5,1.22.76.26.16.53.31.79.49a19.86,19.86,0,0,1,2.51,2.07c.2.2.38.41.58.62A20.67,20.67,0,0,1,1260,163c.17.24.35.48.52.73a19.18,19.18,0,0,1,1.6,3c.07.16.12.33.18.49a19.77,19.77,0,0,1,.89,2.86c.07.3.14.6.19.91a20,20,0,0,1,.36,3.57Z"/><path class="cls-2" d="M1662.19,144.09H1385.12a21.75,21.75,0,0,0-21.76,21.75V361.51a21.76,21.76,0,0,0,21.76,21.76h277.07A21.76,21.76,0,0,0,1684,361.51V165.84A21.76,21.76,0,0,0,1662.19,144.09Zm7.59,70.77v138a19.66,19.66,0,0,1-2.27,9l0,.05c-.25.48-.55.93-.83,1.38-.17.27-.31.54-.49.8a19.25,19.25,0,0,1-2,2.47c-.23.25-.49.47-.74.71a21.12,21.12,0,0,1-1.94,1.6c-.26.19-.5.38-.77.55a20.27,20.27,0,0,1-2.93,1.6l-.62.22a19.77,19.77,0,0,1-2.74.85c-.32.08-.62.15-.94.21a20,20,0,0,1-3.57.36H1397.36a20,20,0,0,1-3.65-.37c-.38-.07-.74-.18-1.11-.27a20.49,20.49,0,0,1-2.34-.73c-.4-.15-.79-.31-1.17-.49a20.73,20.73,0,0,1-2.08-1.13c-.34-.21-.68-.39-1-.62a19.55,19.55,0,0,1-2.59-2.13c-.21-.21-.37-.45-.57-.66a20.53,20.53,0,0,1-1.63-2c-.28-.39-.51-.81-.77-1.22-.35-.58-.67-1.17-1-1.79-.22-.46-.42-.92-.6-1.4-.08-.21-.2-.41-.27-.62l.09,0a19.63,19.63,0,0,1-1.17-6.48V174.49a19.56,19.56,0,0,1,.37-3.69c.07-.38.19-.75.28-1.13a22.7,22.7,0,0,1,.73-2.34c.16-.41.34-.81.53-1.21a18.17,18.17,0,0,1,1.08-2c.23-.38.45-.75.71-1.11a19.51,19.51,0,0,1,1.53-1.85c.25-.28.48-.58.74-.84a19.88,19.88,0,0,1,2.61-2.15c.33-.23.7-.4,1-.61a19.74,19.74,0,0,1,2-1.1c.46-.21.93-.37,1.41-.54s.73-.32,1.11-.44a.46.46,0,0,1,.07.07,19.59,19.59,0,0,1,5.6-.9H1650a19.66,19.66,0,0,1,9.33,2.43.35.35,0,0,1,0-.11c.42.23.81.5,1.21.76s.54.31.79.49a19.17,19.17,0,0,1,2.51,2.07c.21.2.39.41.58.62A20.67,20.67,0,0,1,1666,163c.18.24.36.48.52.73a20.13,20.13,0,0,1,1.61,3c.07.16.11.33.18.49a21.06,21.06,0,0,1,.88,2.86c.07.3.14.6.2.91a20,20,0,0,1,.36,3.57Z"/><path class="cls-2" d="M2180.28,169c-4-10-19.6-18.17-34.87-18.42l-353.35-6c-15.38-.26-27.84,7.46-27.84,17.43V356.92c0,14.42,15.41,26.58,34.43,26.86l436.72,6.46c18.86.28,29.34-11.45,23.53-25.89Zm53.64,195.55a13.41,13.41,0,0,1-.66,1.62c-.13.31-.22.64-.38.94a15,15,0,0,1-2,2.91c-.26.29-.56.56-.84.83a16.9,16.9,0,0,1-2.28,1.88c-.31.22-.6.45-.94.65a22,22,0,0,1-3.83,1.86c-.27.1-.58.16-.86.26a28.07,28.07,0,0,1-3.87,1c-.46.09-.91.16-1.38.23a35.68,35.68,0,0,1-5.38.35l-18.9-.28-44.94-.67-173.57-2.59-45.11-.67-111.5-1.66a41.36,41.36,0,0,1-5.73-.53c-.6-.1-1.16-.24-1.75-.36a36.86,36.86,0,0,1-3.69-.93c-.63-.19-1.24-.4-1.85-.62-1.14-.42-2.23-.9-3.29-1.41-.53-.26-1.07-.49-1.58-.76a33.5,33.5,0,0,1-4.11-2.63c-.33-.25-.59-.54-.91-.8a29.42,29.42,0,0,1-2.58-2.39c-.44-.48-.82-1-1.22-1.47a20.81,20.81,0,0,1-1.55-2.15c-.35-.55-.68-1.1-1-1.67-.13-.25-.32-.49-.44-.74l.14,0a18.53,18.53,0,0,1-1.94-7.62l-1.4-77.79-.52-28.75-1.27-71a10.77,10.77,0,0,1,.43-3.11c.09-.33.24-.63.36-.95a11.43,11.43,0,0,1,.9-1.95c.21-.35.43-.68.67-1a16.09,16.09,0,0,1,1.37-1.64c.3-.31.58-.62.91-.91a18.54,18.54,0,0,1,1.94-1.51c.33-.23.61-.47.95-.68a24.85,24.85,0,0,1,3.33-1.73c.43-.18.89-.31,1.33-.48.84-.31,1.68-.61,2.58-.86.59-.16,1.2-.29,1.8-.42s.94-.25,1.44-.33l.08.05a38.84,38.84,0,0,1,7.2-.62l28.87.49,52.22.88,37.2.62,117.91,2,36.86.62,51.8.87a44.15,44.15,0,0,1,12.71,2.21l-.07-.09c.61.19,1.19.43,1.79.65.39.14.79.27,1.17.42q2,.81,3.87,1.77l.95.54q1.49.83,2.82,1.74c.31.21.62.41.91.63a29.13,29.13,0,0,1,3,2.52c.14.13.25.28.39.41a21.06,21.06,0,0,1,2.06,2.43c.2.26.38.51.56.78a16.22,16.22,0,0,1,1.63,3l13.68,35.57,10.38,27,36.61,95.15,7.77,20.19a16.36,16.36,0,0,1,.6,10.59Z"/></g></g></svg>