<svg id="Layer_1" data-name="Layer 1" xmlns="http://www.w3.org/2000/svg" width="215" height="550" viewBox="0 0 215 550"><defs><style>.cls-1{fill:#760046;}.cls-2{fill:#231f20;}.cls-3{fill:#ec008c;}</style></defs><path class="cls-1" d="M132.1,1.24A11,11,0,0,1,141,12V34.52a9.65,9.65,0,0,1-5.36,8.64v.23h0v-.23A9.65,9.65,0,0,0,141,34.52V12A11,11,0,0,0,132.1,1.24a5.35,5.35,0,0,0-.81-.14A10.88,10.88,0,0,0,130,1h0a10.88,10.88,0,0,1,1.31.07A5.35,5.35,0,0,1,132.1,1.24Z"/><path class="cls-1" d="M144.4,155.74A47.74,47.74,0,0,1,140.5,139l-4.58-95.6h0L140.5,139a47.74,47.74,0,0,0,3.9,16.75c17.68,40.5,74.82,186.35,67.87,362.73A31.5,31.5,0,0,1,180.84,549h0a31.5,31.5,0,0,0,31.43-30.5C219.22,342.09,162.08,196.24,144.4,155.74Z"/><path class="cls-1" d="M147.05,445.51H68a9.64,9.64,0,1,0,0,19.27h79.09a9.64,9.64,0,0,0,0-19.27Z"/><path class="cls-1" d="M136.88,159.1a55.67,55.67,0,0,1-4.59-19.71l-1.7-35.34H84.39l-1.68,35.34a55.35,55.35,0,0,1-4.59,19.71c-17.49,40.14-74,184.65-67.17,359a23.24,23.24,0,0,0,23.2,22.5H180.84a23.25,23.25,0,0,0,23.21-22.5C210.93,343.55,154.37,199.19,136.88,159.1Zm36.71,330.68a8.47,8.47,0,0,1-8.47,8.47H49.89a8.47,8.47,0,0,1-8.47-8.47V460.66c0-.79,0-1.59.07-2.38,4.25-67,20.63-128.34,28.84-147.62s37.17-20.42,37.17-20.42,28.92,1,37.18,20.42,24.59,80.62,28.84,147.62c0,.79.07,1.59.07,2.38Z"/><path class="cls-1" d="M107.53,304c-5.63.37-20.77,3.19-24.53,12-6.34,14.86-18.38,58.8-24.68,110.17h98.36c-6.29-51.37-18.33-95.31-24.67-110.17C128.15,307,112.47,304.34,107.53,304Z"/><path class="cls-2" d="M212.27,518.47c6.95-176.38-50.19-322.23-67.87-362.73A47.74,47.74,0,0,1,140.5,139l-4.58-95.6h-.29v-.23A9.65,9.65,0,0,0,141,34.52V12A11,11,0,0,0,132.1,1.24a5.35,5.35,0,0,0-.81-.14A10.88,10.88,0,0,0,130,1H85a11.25,11.25,0,0,0-1.16.05,8.76,8.76,0,0,0-1.3.24A10.86,10.86,0,0,0,74,12V34.52a9.72,9.72,0,0,0,5.35,8.63v.24h-.29L74.49,139a47,47,0,0,1-3.89,16.73C52.92,196.29-4.19,342.29,2.73,518.47A31.49,31.49,0,0,0,34.15,549H180.84A31.5,31.5,0,0,0,212.27,518.47Zm-31.43,22.17H34.15A23.24,23.24,0,0,1,11,518.14c-6.85-174.39,49.68-318.9,67.17-359a55.35,55.35,0,0,0,4.59-19.71l1.68-35.34h46.2l1.7,35.34a55.67,55.67,0,0,0,4.59,19.71c17.49,40.09,74.05,184.45,67.17,359A23.25,23.25,0,0,1,180.84,540.64Z"/><path class="cls-3" d="M144.68,310.66c-8.26-19.39-37.18-20.42-37.18-20.42s-28.91,1-37.17,20.42S45.74,391.28,41.49,458.28c-.05.79-.07,1.59-.07,2.38v29.12a8.47,8.47,0,0,0,8.47,8.47H165.12a8.47,8.47,0,0,0,8.47-8.47V460.66c0-.79,0-1.59-.07-2.38C169.27,391.28,152.89,329.94,144.68,310.66Zm2.37,154.12H68a9.64,9.64,0,1,1,0-19.27h79.09a9.64,9.64,0,0,1,0,19.27ZM58.32,426.23c6.3-51.37,18.34-95.31,24.68-110.17,3.76-8.84,18.9-11.66,24.53-12,4.94.31,20.62,3,24.48,12,6.34,14.86,18.38,58.8,24.67,110.17Z"/></svg>