<svg id="Layer_1" data-name="Layer 1" xmlns="http://www.w3.org/2000/svg" width="190" height="525" viewBox="0 0 190 525"><defs><style>.cls-1{fill:#760046;}.cls-2{fill:#231f20;}.cls-3{fill:#ec008c;}</style></defs><path class="cls-1" d="M174.8,274.32l-18.9-23.18-10.37-12.73a4.63,4.63,0,0,1-.46-.59,74.11,74.11,0,0,1-16.2-46.25V143.51h0V128.62h0v-16h0v-6.79h0V97.42h0V17.13c0-9.16-4-16.62-8.93-16.62h0c5,0,8.93,7.46,8.93,16.62V97.42h0v8.37h0v6.79h0v16h0v14.89h0v48.06a74.11,74.11,0,0,0,16.2,46.25,3.87,3.87,0,0,0,.46.59l10.37,12.73,18.9,23.18a57.29,57.29,0,0,1,12.89,36.19V494.2a30.31,30.31,0,0,1-30.32,30.29h0a30.3,30.3,0,0,0,30.32-30.29V310.51A57.29,57.29,0,0,0,174.8,274.32Z"/><rect class="cls-1" x="17.47" y="457.03" width="155.06" height="21.28"/><path class="cls-1" d="M82.18,366.64a40.92,40.92,0,0,0,25.64,0c7.74-2.66,13-7.64,13-13.37,0-8.52-11.54-15.42-25.78-15.42s-25.78,6.9-25.78,15.42C69.22,359,74.44,364,82.18,366.64Z"/><path class="cls-1" d="M93.31,279.66c7.51,0,13.48-8.79,14.5-20.54,13.37-1.24,25.34-4.16,34.72-8.19l-8.11-10a3.82,3.82,0,0,1-.36-.46,129.83,129.83,0,0,1-27.35,5.11c-2.28-8.36-7.35-14.08-13.4-14.08S82.17,237.29,79.9,245.7A133.12,133.12,0,0,1,55,241.41l-8.7,10.67c9.05,3.51,20.25,5.91,32.56,7C79.83,270.86,85.8,279.66,93.31,279.66Zm-7.93-33.57c1.77-5.65,5-9.2,7.93-9.2s6.15,3.53,7.93,9.15a31.62,31.62,0,0,1,1.43,9.56,35.27,35.27,0,0,1-.22,3.93c-1,8.88-5.26,14.79-9.14,14.79s-8.13-5.9-9.13-14.77a33.48,33.48,0,0,1-.22-4A31.61,31.61,0,0,1,85.38,246.09Z"/><path class="cls-1" d="M172.53,366.64h-25a24.81,24.81,0,0,0,4.06-13.37c0-19.89-24.86-35.47-56.59-35.47s-56.59,15.58-56.59,35.47a24.81,24.81,0,0,0,4.06,13.37h-25a2.06,2.06,0,0,0-2,2.06v76.19a2.05,2.05,0,0,0,2,2.06H172.53a2.06,2.06,0,0,0,2.06-2.06V368.7A2.06,2.06,0,0,0,172.53,366.64ZM95,325.82c26.33,0,48.57,12.57,48.57,27.45,0,4.82-2.36,9.39-6.41,13.37a28.41,28.41,0,0,1-2.28,2.06c-.87.71-1.8,1.4-2.78,2.06-9,6.05-22.4,10-37.1,10s-28.11-3.92-37.1-10c-1-.66-1.9-1.35-2.78-2.06a30.24,30.24,0,0,1-2.28-2.06c-4.05-4-6.41-8.55-6.41-13.37C46.43,338.39,68.68,325.82,95,325.82Zm75.47,117H19.53V370.76h26c9.59,10.81,27.91,18,49.43,18s39.85-7.18,49.43-18h26Z"/><path class="cls-1" d="M32.84,412.14a4.69,4.69,0,0,0,4.68,4.68h115a4.68,4.68,0,1,0,0-9.35h-115A4.69,4.69,0,0,0,32.84,412.14Z"/><path class="cls-2" d="M187.69,494.2V310.51a57.29,57.29,0,0,0-12.89-36.19l-18.9-23.18-10.37-12.73a3.87,3.87,0,0,1-.46-.59,74.11,74.11,0,0,1-16.2-46.25V143.51h0V128.62h0v-16h0v-6.79h0V97.42h0V17.13c0-9.16-4-16.62-8.93-16.62H70.06C65.14.51,61.13,8,61.13,17.13V168.24h0v23.33a74.22,74.22,0,0,1-16.66,46.84L44,239,32.9,252.61,15.2,274.32A57.41,57.41,0,0,0,2.31,310.51V494.2a30.3,30.3,0,0,0,30.32,30.29H157.37A30.31,30.31,0,0,0,187.69,494.2ZM55,241.41A133.12,133.12,0,0,0,79.9,245.7c2.27-8.41,7.35-14.16,13.41-14.16s11.12,5.72,13.4,14.08a129.83,129.83,0,0,0,27.35-5.11,3.82,3.82,0,0,0,.36.46l8.11,10c-9.38,4-21.35,6.95-34.72,8.19-1,11.75-7,20.54-14.5,20.54s-13.48-8.8-14.49-20.57c-12.31-1.1-23.51-3.5-32.56-7Zm117.57,236.9H17.47V457H172.53Zm2.06-33.42a2.06,2.06,0,0,1-2.06,2.06H17.47a2.05,2.05,0,0,1-2-2.06V368.7a2.06,2.06,0,0,1,2-2.06h25a24.81,24.81,0,0,1-4.06-13.37c0-19.89,24.86-35.47,56.59-35.47s56.59,15.58,56.59,35.47a24.81,24.81,0,0,1-4.06,13.37h25a2.06,2.06,0,0,1,2.06,2.06Z"/><path class="cls-3" d="M95,388.75c-21.52,0-39.84-7.18-49.43-18h-26v72.07H170.47V370.76h-26C134.85,381.57,116.52,388.75,95,388.75Zm62.16,23.39a4.69,4.69,0,0,1-4.68,4.68h-115a4.68,4.68,0,1,1,0-9.35h115A4.69,4.69,0,0,1,157.16,412.14Z"/><path class="cls-3" d="M55.12,368.7c.88.71,1.8,1.4,2.78,2.06,9,6.05,22.4,10,37.1,10s28.11-3.92,37.1-10c1-.66,1.91-1.35,2.78-2.06a28.41,28.41,0,0,0,2.28-2.06c4.05-4,6.41-8.55,6.41-13.37,0-14.88-22.24-27.45-48.57-27.45s-48.57,12.57-48.57,27.45c0,4.82,2.36,9.39,6.41,13.37A30.24,30.24,0,0,0,55.12,368.7ZM95,337.85c14.24,0,25.78,6.9,25.78,15.42,0,5.73-5.22,10.71-13,13.37a40.92,40.92,0,0,1-25.64,0c-7.74-2.66-13-7.64-13-13.37C69.22,344.75,80.76,337.85,95,337.85Z"/><path class="cls-3" d="M93.31,274.32c3.88,0,8.15-5.91,9.14-14.79a35.27,35.27,0,0,0,.22-3.93,31.62,31.62,0,0,0-1.43-9.56c-1.78-5.62-4.95-9.15-7.93-9.15s-6.16,3.55-7.93,9.2A31.61,31.61,0,0,0,84,255.6a33.48,33.48,0,0,0,.22,4C85.18,268.42,89.44,274.32,93.31,274.32Z"/></svg>