<svg id="Layer_1" data-name="Layer 1" xmlns="http://www.w3.org/2000/svg" width="165" height="585" viewBox="0 0 165 585"><defs><style>.cls-1{fill:#760046;}.cls-2{fill:#231f20;}.cls-3{fill:#ec008c;}</style></defs><path class="cls-1" d="M116.28,134.06c-.38-.87-.61-1.36-.75-1.64H49.45c-.13.28-.36.76-.74,1.64a92.64,92.64,0,0,0-6.46,24h80.49A93.36,93.36,0,0,0,116.28,134.06Z"/><path class="cls-1" d="M45.38,16.33C45.59,7.75,51.47,1,58.77,1h0c-7.29,0-13.17,6.72-13.38,15.3l-.9,34.15h0Z"/><path class="cls-1" d="M.42,552.42V316.33a45.33,45.33,0,0,1,14-32.67l21.39-20.41a20.41,20.41,0,0,0,3.15-3.88,19.62,19.62,0,0,0,2.4-5.92,20.37,20.37,0,0,0,.46-4.21v-41a88.33,88.33,0,0,1-8.46-34.62,95.47,95.47,0,0,1,.67-16.1,100.24,100.24,0,0,1,7.15-26.75c.27-.61.5-1.11.67-1.48l2.43-78.81h0l-2.43,78.81c-.17.37-.4.87-.66,1.48A99.76,99.76,0,0,0,34,157.52a94.4,94.4,0,0,0-.66,16.1,88.15,88.15,0,0,0,8.45,34.62v41a20.37,20.37,0,0,1-.46,4.21,19.62,19.62,0,0,1-2.4,5.92,20.41,20.41,0,0,1-3.15,3.88L14.38,283.66a45.37,45.37,0,0,0-14,32.67V552.42A31.58,31.58,0,0,0,32,584h0A31.58,31.58,0,0,1,.42,552.42Z"/><path class="cls-1" d="M50,206.36v42.88a29,29,0,0,1-.5,5h65.93a28.51,28.51,0,0,1-.5-5V206.36l.41-.86a80,80,0,0,0,8-32.07H41.58a80.17,80.17,0,0,0,8,32.07Z"/><path class="cls-1" d="M8.65,552.42A23.34,23.34,0,0,0,32,575.74H133.05a23.34,23.34,0,0,0,23.32-23.32V470.89H8.65Z"/><path class="cls-1" d="M123.5,269.18a26.06,26.06,0,0,1-4.38-5.46c-.44-.7-.77-1.47-1.14-2.21H47c-.37.73-.67,1.49-1.1,2.19a29.1,29.1,0,0,1-4.46,5.49l-21.4,20.43A37,37,0,0,0,8.65,316.33V463.67H156.37V316.33a37,37,0,0,0-11.46-26.72Zm-41,64.42c17.24,0,31.21,18.24,31.21,40.73s-14,40.73-31.21,40.73-31.21-18.24-31.21-40.73S65.26,333.6,82.5,333.6Zm65,105.53H127.26v8.66H37.73v-8.66H17.52l6.74-12-6.74-12H46.4v8.66h72.2v-8.66h28.88l-6.74,12Z"/><path class="cls-2" d="M150.58,283.66l-21.39-20.42a18.2,18.2,0,0,1-3.06-3.83,18.51,18.51,0,0,1-2.49-6,19.88,19.88,0,0,1-.45-4.15v-41a88.25,88.25,0,0,0,8.45-34.65,93.9,93.9,0,0,0-.66-16.06,99.53,99.53,0,0,0-7.16-26.75c-.26-.62-.49-1.11-.66-1.49l-2.41-78.81h-.23l-.89-34.16C119.38,7.73,113.5,1,106.25,1H58.77c-7.3,0-13.18,6.72-13.39,15.3l-.89,34.15h-.23l-2.43,78.81c-.17.37-.4.87-.67,1.48A100.24,100.24,0,0,0,34,157.52a95.47,95.47,0,0,0-.67,16.1,88.33,88.33,0,0,0,8.46,34.62v41a20.37,20.37,0,0,1-.46,4.21,19.62,19.62,0,0,1-2.4,5.92,20.41,20.41,0,0,1-3.15,3.88L14.4,283.66a45.33,45.33,0,0,0-14,32.67V552.42A31.58,31.58,0,0,0,32,584H133.05a31.58,31.58,0,0,0,31.55-31.55V316.33A45.24,45.24,0,0,0,150.58,283.66ZM48.71,134.06c.38-.88.61-1.36.74-1.64h66.08c.14.28.37.77.75,1.64a93.36,93.36,0,0,1,6.46,24H42.25A92.64,92.64,0,0,1,48.71,134.06Zm-7.13,39.37H123.4a80,80,0,0,1-8,32.07l-.41.86v42.88a28.51,28.51,0,0,0,.5,5H49.53a29,29,0,0,0,.5-5V206.36l-.42-.86A80.17,80.17,0,0,1,41.58,173.43Zm114.79,379a23.34,23.34,0,0,1-23.32,23.32H32A23.34,23.34,0,0,1,8.65,552.42V470.89H156.37Zm0-88.75H8.65V316.33a37,37,0,0,1,11.43-26.71l21.4-20.43a29.1,29.1,0,0,0,4.46-5.49c.43-.7.73-1.46,1.1-2.19H118c.37.74.7,1.51,1.14,2.21a26.06,26.06,0,0,0,4.38,5.46l21.41,20.43a37,37,0,0,1,11.46,26.72Z"/><polygon class="cls-3" points="118.6 415.06 118.6 423.72 46.4 423.72 46.4 415.06 17.52 415.06 24.26 427.09 17.52 439.13 37.73 439.13 37.73 447.79 127.26 447.79 127.26 439.13 147.48 439.13 140.74 427.09 147.48 415.06 118.6 415.06"/><ellipse class="cls-3" cx="82.5" cy="374.33" rx="31.21" ry="40.73"/></svg>