<svg id="Layer_1" data-name="Layer 1" xmlns="http://www.w3.org/2000/svg" width="190" height="590" viewBox="0 0 190 590"><defs><style>.cls-1{fill:#760046;}.cls-2{fill:#ec008c;}.cls-3{fill:#231f20;}</style></defs><path class="cls-1" d="M60.31,251.12c0-15.58,15.53-28.21,34.7-28.21s34.69,12.63,34.69,28.21a23.68,23.68,0,0,1-2.82,11.14H168V201.47a27.14,27.14,0,0,0-9.71-20.84l-26.35-22.17A33.35,33.35,0,0,1,120,132.89v-9.55H70v9.55a33.31,33.31,0,0,1-11.89,25.57L31.78,180.63a27.16,27.16,0,0,0-9.7,20.84v60.79H63.14A23.57,23.57,0,0,1,60.31,251.12Z"/><rect class="cls-2" x="39.06" y="295" width="111.9" height="30.2"/><rect class="cls-2" x="28.15" y="379.82" width="133.71" height="13.52"/><path class="cls-1" d="M175.59,541.69A14,14,0,0,1,168,529.28V411.36H22.08V529.28a14,14,0,0,1-7.67,12.41,11.06,11.06,0,0,0-6.05,9.81v13.41a16.06,16.06,0,0,0,16,16.05H165.64a16,16,0,0,0,16-16.05V551.5A10.89,10.89,0,0,0,175.59,541.69Z"/><path class="cls-3" d="M179.27,534.33a5.67,5.67,0,0,1-3.09-5.05V201.47a35.32,35.32,0,0,0-12.65-27.14l-26.34-22.17a25.12,25.12,0,0,1-9-19.27V12.62c0-6.51-4.34-11.8-9.68-11.8H71.46c-5.34,0-9.68,5.29-9.68,11.8V132.89a25.08,25.08,0,0,1-9,19.27L26.49,174.34a35.31,35.31,0,0,0-12.64,27.13V529.28a5.67,5.67,0,0,1-3.12,5.05A19.1,19.1,0,0,0,.13,551.5v13.41a24.28,24.28,0,0,0,24.25,24.27H165.64a24.27,24.27,0,0,0,24.23-24.27V551.5A19.06,19.06,0,0,0,179.27,534.33ZM22.08,201.47a27.16,27.16,0,0,1,9.7-20.84l26.33-22.17A33.31,33.31,0,0,0,70,132.89v-9.55h50v9.55a33.35,33.35,0,0,0,11.89,25.57l26.35,22.17A27.14,27.14,0,0,1,168,201.47v60.79H126.88a23.68,23.68,0,0,0,2.82-11.14c0-15.58-15.53-28.21-34.69-28.21s-34.7,12.63-34.7,28.21a23.57,23.57,0,0,0,2.83,11.14H22.08ZM151,295v30.2H39.06V295ZM72.32,252.89c0-9.7,10.18-17.58,22.69-17.58s22.69,7.88,22.69,17.58a14.74,14.74,0,0,1-3.57,9.37c-4,4.92-11.07,8.21-19.12,8.21s-15.1-3.29-19.12-8.21A14.74,14.74,0,0,1,72.32,252.89Zm89.54,126.93v13.52H28.15V379.82Zm19.78,185.09a16,16,0,0,1-16,16.05H24.38a16.06,16.06,0,0,1-16-16.05V551.5a11.06,11.06,0,0,1,6.05-9.81,14,14,0,0,0,7.67-12.41V411.36H168V529.28a14,14,0,0,0,7.64,12.41,10.89,10.89,0,0,1,6,9.81Z"/><path class="cls-2" d="M95,270.47c8,0,15.09-3.29,19.12-8.21a14.74,14.74,0,0,0,3.57-9.37c0-9.7-10.18-17.58-22.69-17.58s-22.69,7.88-22.69,17.58a14.74,14.74,0,0,0,3.57,9.37C79.91,267.18,87,270.47,95,270.47Z"/></svg>