<svg id="Layer_1" data-name="Layer 1" xmlns="http://www.w3.org/2000/svg" width="220" height="575" viewBox="0 0 220 575"><defs><style>.cls-1{fill:#760046;}.cls-2{fill:#ec008c;}.cls-3{fill:#231f20;}</style></defs><path class="cls-1" d="M.2,525.5v-286A52.48,52.48,0,0,1,18.85,199C33.93,186.54,52,180.78,64.37,178.14A18.88,18.88,0,0,0,79.05,160l.12-7.67h0L79.05,160a18.88,18.88,0,0,1-14.69,18.15C52,180.78,33.93,186.54,18.85,199A52.48,52.48,0,0,0,.2,239.52v286c0,27.1,21.64,49.06,48.36,49.06h0C21.84,574.56.2,552.6.2,525.5Z"/><path class="cls-1" d="M146.27,276.54h40.57a4.53,4.53,0,0,0,0-9.06H146.27a4.53,4.53,0,1,0,0,9.06Z"/><path class="cls-1" d="M80.78,65.83a7.06,7.06,0,0,1-7-7v-41a12.59,12.59,0,0,1,9-12.06L90,3.42c.25-.08.51-.13.75-.2h0c-.24.07-.5.12-.75.2L82.68,5.68a12.59,12.59,0,0,0-9,12.06V58.79a7.06,7.06,0,0,0,7,7l-1.48,86.49h0Z"/><path class="cls-1" d="M129.23,142.6V3.22h0v0c-1.25-.25-2.63-.48-4.12-.67V138.48H94.89V2.59c-1.49.19-2.87.42-4.11.67V142.6Z"/><path class="cls-1" d="M38.24,476.83H181.77V333.3H38.24ZM57.47,365H162.53v11H57.47Zm94.09,46.18v11H68.45v-11ZM82.74,401.06V387.94h54.52v13.12ZM52,448.13H168v6.56H52Z"/><path class="cls-1" d="M33.16,276.54h43.9a4.53,4.53,0,1,0,0-9.06H33.16a4.53,4.53,0,1,0,0,9.06Z"/><path class="cls-1" d="M191.19,316.65H28.81a7.23,7.23,0,0,0-7.22,7.22V486.25a7.23,7.23,0,0,0,7.22,7.23H191.19a7.24,7.24,0,0,0,7.23-7.23V323.87A7.24,7.24,0,0,0,191.19,316.65Zm2.72,169.6a2.72,2.72,0,0,1-2.72,2.72H28.81a2.71,2.71,0,0,1-2.71-2.72V323.87a2.71,2.71,0,0,1,2.71-2.71H191.19a2.72,2.72,0,0,1,2.72,2.71Z"/><path class="cls-1" d="M110,296.61A24.61,24.61,0,1,0,85.4,272,24.63,24.63,0,0,0,110,296.61Zm0-43.16A18.56,18.56,0,1,1,91.44,272,18.57,18.57,0,0,1,110,253.45Z"/><path class="cls-2" d="M110,290.57A18.56,18.56,0,1,0,91.44,272,18.58,18.58,0,0,0,110,290.57Z"/><path class="cls-3" d="M201.15,199c-15.08-12.48-33.18-18.24-45.51-20.88A18.88,18.88,0,0,1,141,160l-.12-7.67h-.12l-1.48-86.49a7.08,7.08,0,0,0,7-7v-41a12.59,12.59,0,0,0-9-12.06L130,3.42c-.25-.08-.5-.13-.75-.2V142.6H90.78V3.22h0c-.24.07-.5.12-.75.2L82.68,5.68a12.59,12.59,0,0,0-9,12.06V58.79a7.06,7.06,0,0,0,7,7L79.3,152.32h-.13L79.05,160a18.88,18.88,0,0,1-14.68,18.15C52,180.78,33.93,186.54,18.85,199A52.48,52.48,0,0,0,.2,239.52v286c0,27.1,21.64,49.06,48.36,49.06H171.44c26.72,0,48.36-22,48.36-49.06v-286A52.48,52.48,0,0,0,201.15,199Zm-54.88,68.46h40.57a4.53,4.53,0,0,1,0,9.06H146.27a4.53,4.53,0,1,1,0-9.06ZM110,247.4A24.61,24.61,0,1,1,85.4,272,24.64,24.64,0,0,1,110,247.4ZM33.16,267.48h43.9a4.53,4.53,0,1,1,0,9.06H33.16a4.53,4.53,0,1,1,0-9.06ZM198.42,486.25a7.24,7.24,0,0,1-7.23,7.23H28.81a7.23,7.23,0,0,1-7.22-7.23V323.87a7.23,7.23,0,0,1,7.22-7.22H191.19a7.24,7.24,0,0,1,7.23,7.22Z"/><path class="cls-2" d="M125.11,138.48V2.12a68.79,68.79,0,0,0-30.22,0V138.48Z"/><path class="cls-2" d="M191.19,321.16H28.81a2.71,2.71,0,0,0-2.71,2.71V486.25A2.71,2.71,0,0,0,28.81,489H191.19a2.72,2.72,0,0,0,2.72-2.72V323.87A2.72,2.72,0,0,0,191.19,321.16Zm-9.42,155.67H38.24V333.3H181.77Z"/><rect class="cls-2" x="57.47" y="365.04" width="105.06" height="10.97"/><rect class="cls-2" x="68.45" y="411.22" width="83.11" height="10.97"/><rect class="cls-2" x="82.74" y="387.94" width="54.53" height="13.13"/><rect class="cls-2" x="52.03" y="448.13" width="115.94" height="6.56"/></svg>