<svg id="Layer_1" data-name="Layer 1" xmlns="http://www.w3.org/2000/svg" width="160" height="580" viewBox="0 0 160 580"><defs><style>.cls-1{fill:#760046;}.cls-2{fill:#231f20;}.cls-3{fill:#ec008c;}</style></defs><path class="cls-1" d="M71,139.72a11.72,11.72,0,0,0,7.87,4.11,10.36,10.36,0,0,0,1.12.11,10.54,10.54,0,0,0,1.13-.11A11.72,11.72,0,0,0,89,139.72a12.27,12.27,0,0,0,1.34-1.95h14.38L90.35,126.4a11.72,11.72,0,0,0-20.67,0L55.34,137.77H69.69A12.21,12.21,0,0,0,71,139.72Z"/><path class="cls-1" d="M80,387.08c12.32,0,22.3-14,22.3-31.36s-10-31.36-22.3-31.36-22.3,14-22.3,31.36S67.7,387.08,80,387.08Z"/><rect class="cls-1" x="51.22" y="56.27"/><rect class="cls-1" x="15.42" y="433.46" width="129.18" height="19.25" rx="9.61"/><path class="cls-1" d="M17.48,526.25H142.55V472.7H17.48Zm12.13-32.68H130.42v11.81H29.61Z"/><path class="cls-1" d="M80,404.41c19.42,0,35.23-21.84,35.23-48.69S99.43,307,80,307s-35.22,21.84-35.22,48.69S60.59,404.41,80,404.41Zm0-93.27c17.16,0,31.11,20,31.11,44.58S97.17,400.3,80,400.3s-31.11-20-31.11-44.58S62.86,311.14,80,311.14Z"/><path class="cls-2" d="M154.65,319.11a386.18,386.18,0,0,0-16.31-68.34l-12.59-37.2L116,184.65c-.83-2.41-1.55-4.84-2.22-7.29-1-3.94-2.81-11.93-3.41-15.92a136.23,136.23,0,0,1-1.46-17.61c0-.84,0-1.71,0-2.55v-3.51h0l0-11.37V45h0V14.65a15.45,15.45,0,0,0-.11-1.92,16.39,16.39,0,0,0-.26-1.79,11.93,11.93,0,0,0-.26-1.17A13.49,13.49,0,0,0,107,6.68c-.18-.29-.34-.58-.52-.87a7.57,7.57,0,0,0-4-3.42A4.87,4.87,0,0,0,101,2.14H59.08a5,5,0,0,0-1.59.25,7.57,7.57,0,0,0-4,3.42,10.88,10.88,0,0,0-1,1.83l-.4,1a18.3,18.3,0,0,0-.88,4.37c0,.52-.06,1.06-.06,1.6V56.27h0v85c0,.84,0,1.71,0,2.55,0,.39-.06.78-.07,1.17-.09,3.25-.28,6.49-.59,9.7-.18,1.78-.42,3.59-.65,5.38s-.55,3.57-.87,5.35c-.47,2.65-2.12,9.3-2.75,11.92-.68,2.45-1.4,4.89-2.2,7.3l-9.79,28.92-12.59,37.2A384.17,384.17,0,0,0,1.44,373.67V550.51a27.32,27.32,0,0,0,27.29,27.35H131.3a27.3,27.3,0,0,0,27.26-27.35V373.67A384,384,0,0,0,154.65,319.11Zm-85-192.71a11.72,11.72,0,0,1,20.67,0l14.37,11.37H90.34A12.27,12.27,0,0,1,89,139.72a11.72,11.72,0,0,1-7.86,4.11,10.54,10.54,0,0,1-1.13.11,10.36,10.36,0,0,1-1.12-.11A11.72,11.72,0,0,1,71,139.72a12.21,12.21,0,0,1-1.33-1.95H55.34ZM80,307c19.42,0,35.23,21.84,35.23,48.69S99.43,404.41,80,404.41s-35.22-21.84-35.22-48.69S60.59,307,80,307Zm62.54,219.22H17.48V472.7H142.55Zm2-83.16a9.64,9.64,0,0,1-9.61,9.62H25a9.65,9.65,0,0,1-9.62-9.62v0A9.64,9.64,0,0,1,25,433.46H135a9.63,9.63,0,0,1,9.61,9.61Z"/><path class="cls-3" d="M80,400.3c17.16,0,31.11-20,31.11-44.58s-14-44.58-31.11-44.58-31.11,20-31.11,44.58S62.86,400.3,80,400.3Zm0-75.94c12.32,0,22.3,14,22.3,31.36s-10,31.36-22.3,31.36-22.3-14-22.3-31.36S67.7,324.36,80,324.36Z"/><rect class="cls-3" x="29.61" y="493.57" width="100.81" height="11.81"/></svg>