<svg id="Layer_1" data-name="Layer 1" xmlns="http://www.w3.org/2000/svg" width="300" height="440" viewBox="0 0 300 440"><defs><style>.cls-1{fill:#760046;}.cls-2{fill:#231f20;}.cls-3{fill:#ec008c;}</style></defs><path class="cls-1" d="M114.71,217.2l-32.26-40L106.31,226A69.93,69.93,0,0,1,114.71,217.2Z"/><path class="cls-1" d="M100.83,233.73l-47.11-31.6L94.65,245.6A85.84,85.84,0,0,1,100.83,233.73Z"/><path class="cls-1" d="M134.67,205.78,117.27,162l7.47,48.12A53.75,53.75,0,0,1,134.67,205.78Z"/><path class="cls-1" d="M92.26,251.91,33.64,234.47l55.07,31.1A96.62,96.62,0,0,1,92.26,251.91Z"/><path class="cls-1" d="M86.89,284.64a105.21,105.21,0,0,1,1-14.12l-63.87.8L86.9,284.88C86.9,284.8,86.89,284.72,86.89,284.64Z"/><path class="cls-1" d="M211.9,268.84l56.36-29.7L208.72,255A97.66,97.66,0,0,1,211.9,268.84Z"/><path class="cls-1" d="M155.42,203.6,150,157.66l-4.91,45.91a46.88,46.88,0,0,1,4.91-.33A48.68,48.68,0,0,1,155.42,203.6Z"/><path class="cls-1" d="M87.08,289.44,25.76,309.37l62.95-5.64A103.75,103.75,0,0,1,87.08,289.44Z"/><path class="cls-1" d="M206.64,249,249.48,206l-48.62,30.6A88.62,88.62,0,0,1,206.64,249Z"/><path class="cls-1" d="M221.75,180l-33.92,39.64a73,73,0,0,1,8.15,9.43Z"/><path class="cls-1" d="M187.57,163.37l-18.79,43.56a55.18,55.18,0,0,1,9.76,5.2Z"/><path class="cls-1" d="M92.47,397.76,119.68,356a65.14,65.14,0,0,1-9-7.75Z"/><path class="cls-1" d="M193.86,343l40.88,36L201.06,332.3A80.76,80.76,0,0,1,193.86,343Z"/><path class="cls-1" d="M177.32,357.89,203,400l-16.48-49.07A62.33,62.33,0,0,1,177.32,357.89Z"/><path class="cls-1" d="M204.58,325.33l54.27,24.24-49.56-37.28A93.23,93.23,0,0,1,204.58,325.33Z"/><path class="cls-1" d="M213.12,284.64c0,1.17-.1,2.3-.14,3.46l63.42-11.76-63.92-2.66A103.74,103.74,0,0,1,213.12,284.64Z"/><path class="cls-1" d="M210.67,306.85l62.5,7.44L212.8,292.71A100.93,100.93,0,0,1,210.67,306.85Z"/><path class="cls-1" d="M188.87,338.65a71,71,0,0,0,4.66-6.53c1.15-1.84,2.24-3.76,3.25-5.75.62-1.21,1.16-2.49,1.73-3.76A86.85,86.85,0,0,0,203.57,308c.16-.64.32-1.28.47-1.92a96.17,96.17,0,0,0,2.18-15.72c0-.33,0-.67,0-1,.07-1.57.18-3.12.18-4.71a98.57,98.57,0,0,0-.71-11.24c0-.41-.09-.82-.15-1.23a92,92,0,0,0-3.28-15.47c-.26-.87-.55-1.72-.84-2.56a83,83,0,0,0-6.22-14c-.87-1.55-1.77-3-2.73-4.5a66.83,66.83,0,0,0-9-11,57,57,0,0,0-6.29-5.43,49.6,49.6,0,0,0-11.09-6.16,44.83,44.83,0,0,0-9.91-2.67A41.21,41.21,0,0,0,137.14,212a47.8,47.8,0,0,0-11.29,5.25,54.81,54.81,0,0,0-7,5.15,64.59,64.59,0,0,0-9.34,10.29c-1.12,1.53-2.21,3.1-3.23,4.75A80.24,80.24,0,0,0,99.7,251c-.36.94-.71,1.89-1,2.86A92,92,0,0,0,94.83,269c-.07.47-.14.93-.21,1.41a98.44,98.44,0,0,0-1.05,14.2c0,.57.06,1.13.07,1.7,0,.32,0,.63,0,1a96.78,96.78,0,0,0,1.39,14.11c.1.58.22,1.15.33,1.73s.21,1.13.33,1.69c.32,1.48.67,2.95,1.06,4.4a88.48,88.48,0,0,0,3.46,10.58c.47,1.15,1,2.25,1.51,3.36a77.17,77.17,0,0,0,7.44,12.92c1.31,1.81,2.67,3.54,4.11,5.17a62.34,62.34,0,0,0,4.81,4.93,53.11,53.11,0,0,0,5.2,4.23,50.49,50.49,0,0,0,8.1,4.66A44.54,44.54,0,0,0,143,358.69a42.51,42.51,0,0,0,7,.64c1.18,0,2.34-.14,3.5-.24a43.83,43.83,0,0,0,11.73-2.6,48.71,48.71,0,0,0,8.63-4.26,56.46,56.46,0,0,0,10.33-8.31A66.08,66.08,0,0,0,188.87,338.65Zm-7.56-3.27a49.58,49.58,0,0,1-11.59,10.07A41.59,41.59,0,0,1,165,348a36.51,36.51,0,0,1-13.53,3.22c-.5,0-1,.11-1.5.11a34.33,34.33,0,0,1-4.77-.34,37.72,37.72,0,0,1-13.36-4.56,42.52,42.52,0,0,1-4.2-2.68,53,53,0,0,1-11.19-11.1c-.4-.53-.79-1.05-1.18-1.6-8.47-12-13.71-28.35-13.71-46.37,0-16.28,4.27-31.2,11.34-42.79.21-.33.43-.64.64-1a57.31,57.31,0,0,1,10.33-12.3c1.07-1,2.16-1.88,3.3-2.72a40.76,40.76,0,0,1,12.88-6.47c1.11-.32,2.25-.52,3.39-.74a31.71,31.71,0,0,1,13.74.15,36.09,36.09,0,0,1,5.73,1.67,42.62,42.62,0,0,1,12.63,7.67c1,.81,1.87,1.66,2.77,2.56a60.42,60.42,0,0,1,9.87,13.14l.3.55a83.53,83.53,0,0,1,9.91,40.24c0,19.25-6,36.58-15.52,48.76C182.38,334.06,181.86,334.74,181.31,335.38Z"/><path class="cls-1" d="M89.79,309,38.67,345.19l55.45-22.86A94.59,94.59,0,0,1,89.79,309Z"/><path class="cls-1" d="M128.52,409.78l12.68-44.64A50.65,50.65,0,0,1,131,362.25Z"/><path class="cls-1" d="M97.2,329.09,61.59,375.57l42.5-35.26A82.27,82.27,0,0,1,97.2,329.09Z"/><path class="cls-1" d="M155.17,365.69l11.34,44.84-1.12-47A50.45,50.45,0,0,1,155.17,365.69Z"/><path class="cls-2" d="M193.71,138a15.27,15.27,0,0,1-9-13.93V108h0V57.62h.89c4,0,7.13-3.55,7.13-7.91v-5a1.89,1.89,0,0,0-1.87-1.95,5.88,5.88,0,0,1-4.25-2,7.21,7.21,0,0,1-1.9-5V25.53A1.45,1.45,0,0,1,186.12,24c5.08,0,8.82-6.28,5.26-12.21a8.78,8.78,0,0,0-4.62-3.7l-9.6-3.32a82.34,82.34,0,0,0-54.3,0l-9.62,3.32a8.78,8.78,0,0,0-4.6,3.7c-3.58,5.93.19,12.21,5.24,12.21a1.44,1.44,0,0,1,1.36,1.51V35.87a7.25,7.25,0,0,1-1.89,5,5.9,5.9,0,0,1-4.25,2,1.9,1.9,0,0,0-1.88,1.95v5c0,4.36,3.21,7.91,7.14,7.91h.88v58.12h0v8.35A15.28,15.28,0,0,1,106.32,138C78.67,150.54-3.11,196.1,2.08,294.21c3.66,69.47,28.63,107.63,48.55,127.25a64.2,64.2,0,0,0,45.13,18.35H204.27a64.3,64.3,0,0,0,45.13-18.35c19.89-19.62,44.86-57.78,48.52-127.25C303.13,196.1,221.33,150.54,193.71,138Zm74.55,101.12-56.36,29.7A97.66,97.66,0,0,0,208.72,255ZM206.64,249a88.62,88.62,0,0,0-5.78-12.32L249.48,206Zm15.11-69L196,229.06a73,73,0,0,0-8.15-9.43Zm-34.18-16.62-9,48.76a55.18,55.18,0,0,0-9.76-5.2ZM150,157.66l5.42,45.94a48.68,48.68,0,0,0-5.42-.36,46.88,46.88,0,0,0-4.91.33Zm-15.33,48.12a53.75,53.75,0,0,0-9.93,4.31L117.27,162Zm-20,11.42a69.93,69.93,0,0,0-8.4,8.84L82.45,177.22Zm-13.88,16.53a85.84,85.84,0,0,0-6.18,11.87L53.72,202.13Zm-8.57,18.18a96.62,96.62,0,0,0-3.55,13.66l-55.07-31.1ZM87.9,270.52a105.21,105.21,0,0,0-1,14.12c0,.08,0,.16,0,.24L24,271.32Zm-.82,18.92a103.75,103.75,0,0,0,1.63,14.29l-62.95,5.64ZM38.67,345.19,89.79,309a94.59,94.59,0,0,0,4.33,13.31Zm58.53-16.1a82.27,82.27,0,0,0,6.89,11.22l-42.5,35.26Zm-4.73,68.67,18.25-49.53a65.14,65.14,0,0,0,9,7.75Zm36.05,12L131,362.25a50.65,50.65,0,0,0,10.17,2.89Zm26.65-44.09a50.45,50.45,0,0,0,10.22-2.21l1.12,47Zm10.06-9.2a43.83,43.83,0,0,1-11.73,2.6c-1.16.1-2.32.24-3.5.24a42.51,42.51,0,0,1-7-.64,44.54,44.54,0,0,1-11.62-3.62,50.49,50.49,0,0,1-8.1-4.66,53.11,53.11,0,0,1-5.2-4.23,62.34,62.34,0,0,1-4.81-4.93c-1.44-1.63-2.8-3.36-4.11-5.17a77.17,77.17,0,0,1-7.44-12.92c-.51-1.11-1-2.21-1.51-3.36a88.48,88.48,0,0,1-3.46-10.58c-.39-1.45-.74-2.92-1.06-4.4-.12-.56-.22-1.13-.33-1.69s-.23-1.15-.33-1.73a96.78,96.78,0,0,1-1.39-14.11c0-.32,0-.63,0-1,0-.57-.07-1.13-.07-1.7a98.44,98.44,0,0,1,1.05-14.2c.07-.48.14-.94.21-1.41a92,92,0,0,1,3.83-15.21c.33-1,.68-1.92,1-2.86a80.24,80.24,0,0,1,6.62-13.54c1-1.65,2.11-3.22,3.23-4.75a64.59,64.59,0,0,1,9.34-10.29,54.81,54.81,0,0,1,7-5.15A47.8,47.8,0,0,1,137.14,212a42.92,42.92,0,0,1,29,1.11,49.6,49.6,0,0,1,11.09,6.16,57,57,0,0,1,6.29,5.43,66.83,66.83,0,0,1,9,11c1,1.45,1.86,3,2.73,4.5a83,83,0,0,1,6.22,14c.29.84.58,1.69.84,2.56a92,92,0,0,1,3.28,15.47c.06.41.1.82.15,1.23a98.57,98.57,0,0,1,.71,11.24c0,1.59-.11,3.14-.18,4.71,0,.33,0,.67,0,1A96.17,96.17,0,0,1,204,306.07c-.15.64-.31,1.28-.47,1.92a86.85,86.85,0,0,1-5.06,14.62c-.57,1.27-1.11,2.55-1.73,3.76-1,2-2.1,3.91-3.25,5.75a71,71,0,0,1-4.66,6.53,66.08,66.08,0,0,1-4.68,5.27,56.46,56.46,0,0,1-10.33,8.31A48.71,48.71,0,0,1,165.23,356.49Zm12.09,1.4a62.33,62.33,0,0,0,9.21-7L203,400ZM193.86,343a80.76,80.76,0,0,0,7.2-10.74L234.74,379Zm10.72-17.71a93.23,93.23,0,0,0,4.71-13l49.56,37.28Zm6.09-18.48a100.93,100.93,0,0,0,2.13-14.14l60.37,21.58ZM213,288.1c0-1.16.14-2.29.14-3.46a103.74,103.74,0,0,0-.64-11l63.92,2.66Z"/><path class="cls-3" d="M188.51,244.4l-.3-.55a60.42,60.42,0,0,0-9.87-13.14c-.9-.9-1.82-1.75-2.77-2.56a42.62,42.62,0,0,0-12.63-7.67,36.09,36.09,0,0,0-5.73-1.67,31.71,31.71,0,0,0-13.74-.15c-1.14.22-2.28.42-3.39.74a40.76,40.76,0,0,0-12.88,6.47c-1.14.84-2.23,1.77-3.3,2.72a57.31,57.31,0,0,0-10.33,12.3c-.21.32-.43.63-.64,1-7.07,11.59-11.34,26.51-11.34,42.79,0,18,5.24,34.36,13.71,46.37.39.55.78,1.07,1.18,1.6a53,53,0,0,0,11.19,11.1,42.52,42.52,0,0,0,4.2,2.68A37.72,37.72,0,0,0,145.23,351a34.33,34.33,0,0,0,4.77.34c.51,0,1-.09,1.5-.11A36.51,36.51,0,0,0,165,348a41.59,41.59,0,0,0,4.69-2.51,49.58,49.58,0,0,0,11.59-10.07c.55-.64,1.07-1.32,1.59-2,9.52-12.18,15.52-29.51,15.52-48.76A83.53,83.53,0,0,0,188.51,244.4Z"/></svg>