<svg id="Layer_1" data-name="Layer 1" xmlns="http://www.w3.org/2000/svg" width="1135" height="730" viewBox="0 0 1135 730"><defs><style>.cls-1{fill:#333;}.cls-2{fill:#f2f2f2;}.cls-3{fill:#e6361e;}</style></defs><path class="cls-1" d="M161,217.87C50.66,245.13-24.95,415,11,542.61S180.81,739.69,320.87,726.06,477.41,624.42,477.41,624.42l-41.26,31,28.5-46.91C528.05,395.78,341,275.83,327.8,267.7l-8.43,29.11S448.54,400.07,447.3,506.67,408.88,645.49,379.13,667.8s-199.56,79.33-277.65-32.22S37,447.17,44.46,421.14s31-89.24,66.94-110.31,148-45.64,177.07-29.53l1.94.55,6.91-24.32-24.79,5-3.31-16-154.1,23.42Z"/><path d="M165.94,54.94V92.68l54.53-4.82v-46Z"/><polygon class="cls-2" points="280.88 85.93 302.27 85.24 337.94 117.68 363.01 87.86 363.01 22.02 220.47 41.86 220.47 87.86 265.24 86.43 280.88 85.93"/><polygon class="cls-3" points="327.8 267.7 331.56 254.66 334.5 244.51 294.48 234.15 265.1 226.54 269.21 246.5 272.52 262.49 297.31 257.53 290.4 281.85 232.87 484.36 265.1 484.36 319.37 296.81 327.8 267.7"/><polygon class="cls-3" points="276.74 96.06 302.27 117.47 300.94 137.34 297.62 187.21 334.5 198.6 335.99 189.73 337.94 117.68 302.27 85.24 280.88 85.93 276.74 96.06"/><polygon class="cls-3" points="297.44 189.69 294.48 234.15 334.5 244.51 335.12 222.01 335.75 198.69 334.5 198.6 297.44 189.69"/><path class="cls-3" d="M334.51,244.51l-2.94,10.15L581.18,392.82c2.42-7.47,5.36-13.63,8.66-17.54,3.89-4.59,13.31-8.58,24.8-11.93v0l-21.07-7.86-.22-.11C574.87,346.4,369.42,239,340.51,223.82l-.69-.36-.9-.47-.5-.26-.42-.22-.26-.14-.35-.18-.11-.06-.1,0,0,0-2-.05Z"/><path class="cls-3" d="M768.16,311l73.74,96.82,0,.15,43.77,13.22v0c.28-.61,5.42-12.36-10.7-19.81l-80-114.65-28.66-41.08-33.37-47.84-6.72-9.62-28.64-1.81L340.34,163.7l-4.35,26-.24,9,368.13,27.85,42,55.12Z"/><path class="cls-3" d="M363,22V87.86L400.2,79c-7.44-19.83,11.16-49.58,11.16-49.58Z"/><path d="M411.36,29.46S392.76,59.21,400.2,79,425,79,425,79l35.33-33.47L443.58,22Z"/><path class="cls-1" d="M581.18,392.82c-7.56,23.38-10,59.62-2.49,80,1.78,4.83,5.64,10.3,10.91,16l.61-.83,71,12.56,3.05-36-43.4-32.28L632,411.23l59.49,39.15-7.67,54.21,46.62,8.25a223.84,223.84,0,0,0,19.31-40c13.63-37.58-7.44-72.74-7.44-72.74l-39.14-34-17.87-15.54s-12.81,1.36-29.13,4l-15.54,2.75c-8.88,1.72-17.94,3.76-26,6.11-11.49,3.35-20.91,7.34-24.8,11.93C586.54,379.19,583.6,385.35,581.18,392.82Z"/><path d="M579.93,300.91l26.92,42.14,14,7.44,15.76-2.7,15.09-2.59,12.55-2.15c-2.49-44.62-1.26-56.39-1.26-56.39l-42.14,5.58Z"/><path class="cls-1" d="M590.21,488l-.61.83c11.38,12.4,29.31,26.08,47,37.38,7.32,4.68,14.6,9,21.35,12.55l3.24-38.2Z"/><path d="M620.83,600.87l-6.2,22.31,88,12.4L705.48,621c-11.23-13.36-21.94-26.65-31.43-38.94l-1.15-.28Z"/><polygon class="cls-3" points="631.99 411.23 620.83 432.3 664.23 464.58 661.17 500.58 683.8 504.59 691.48 450.38 631.99 411.23"/><path class="cls-2" d="M794,74.43l40.29-9.82,20.52-5S837.74,27,834,26.07L808,2.24H748.5l-31,23.83-96.68,26.7,28.51,16.16,47.38-4.81,44.34-4.51,19.75,12.17,12.48,7.69,18-4.38Z"/><path class="cls-1" d="M636.59,526.23h0c1.43,5,8.73,16.66,19.7,32l1.65-19.44C651.19,535.19,643.91,530.91,636.59,526.23Z"/><path class="cls-3" d="M636.59,347.79l4,9.45c5.33-1,10.59-1.95,15.54-2.75l-4.48-9.28h0Z"/><path class="cls-3" d="M656.29,558.22l-2,23.51h18.6l.15-1C666.86,572.66,661.21,565.08,656.29,558.22Z"/><path class="cls-3" d="M657.94,538.78l-1.65,19.44c4.92,6.86,10.57,14.44,16.76,22.48l4.64-32.8A157.06,157.06,0,0,1,657.94,538.78Z"/><path class="cls-3" d="M661.18,500.58l-3.24,38.2a157.06,157.06,0,0,0,19.75,9.12l6.12-43.31Z"/><path class="cls-1" d="M1058.39,667.79l29.73-32.21c29.75-32.23,93-145-18.59-287.57s-273.93-94.2-273.93-94.2l33.46-47.09c-.86.51-48.21,28.74-62.78,38.86l28.66,41.08s81.23-47.72,169.23,18S1121.59,442.44,1103,528.47,1029.87,679,976.57,688.87s-168.91-8.67-207.17-47.1-61.86-100.56-61.86-100.56c-7.59,6.52-15.23,10-22.25,8.84a44.23,44.23,0,0,1-7.6-2.15l-4.64,32.8,1,1.31L711.32,591l-5.84,30c21.89,26,45.79,52.27,66.57,71.64,54.54,50.82,226.83,23.55,260.3,13.64,33.2-9.84,93.25-89.24,94.19-90.48Z"/><path class="cls-1" d="M711.32,591,674.05,582c9.49,12.29,20.2,25.58,31.43,38.94Z"/><path class="cls-1" d="M683.81,504.59l-6.12,43.31a44.23,44.23,0,0,0,7.6,2.15c7,1.17,14.66-2.32,22.25-8.84,7.93-6.8,15.81-16.88,22.89-28.37Z"/><path class="cls-1" d="M745.86,281.66c-7.69,3.78-72.58,36.8-60.57,68.83L703.16,366c-5.36-29.37,55.49-51.77,65-55.08Z"/><polygon points="697.54 186.3 697.54 186.31 726.18 188.12 732.9 197.74 793.35 75.7 791.27 75.09 773.28 79.47 760.8 71.78 697.54 186.3"/><path class="cls-3" d="M703.16,366l39.14,34s21.07,35.16,7.44,72.74a223.84,223.84,0,0,1-19.31,40l211.43,37.43-8.67-43.6c-22.32,13.63-60.74,11.15-69.42,0s-14.87-53.3,0-63.22,52.06-11.15,52.06-11.15l15.5,18.08,5.57-18.08V400.07l-34-14.87-17.27,35.92v0l-43.77-13.22Zm56.5,84.35-5.33-29.24,93.33,21.07v30.6Z"/><polygon class="cls-2" points="754.33 421.14 759.65 450.38 847.65 472.81 847.65 442.21 754.33 421.14"/><polygon points="793.98 74.43 791.27 75.09 793.35 75.7 793.98 74.43"/><path class="cls-2" d="M863.77,443.45c-14.87,9.92-8.67,52.06,0,63.22s47.1,13.63,69.42,0,17.35-33.86,17.35-33.86l-19.21-22.43-15.5-18.08S878.65,433.54,863.77,443.45Z"/><polygon class="cls-3" points="340.34 163.7 337.13 142.45 300.95 137.34 297.17 193.77 330.06 207.26 348.81 179.78 340.34 163.7"/></svg>