<svg id="Layer_1" data-name="Layer 1" xmlns="http://www.w3.org/2000/svg" width="310" height="980" viewBox="0 0 310 980"><path d="M300.74,334.34C290.2,284,265.06,212.8,260,208.49c-7.28-6.14-30.54-9.5-30.54-9.5h0a40.81,40.81,0,0,0,.57-4.1c.09-1.08-8.86-4.46-18.65-11.22-3.27-8.37-7.63-9.48-7.63-9.48s0,0,0,.05a30.42,30.42,0,0,0-7.06-2.57,86.39,86.39,0,0,1-4-23c0-.69,0-1.38-.07-2.07l.26-.05v-6.68l4.84,5.09a88,88,0,0,0,13.62-4.4c-1.07,4-2.38,13.6,9.07,14.15,0,0-9.21-6.38,0-15.24,0,0,18.43-3.54,18.08-18.78a.85.85,0,0,1,.4.08,18.49,18.49,0,0,1-1.71,8.75C233,138.18,222.75,141,222.64,141l.22.83c.11,0,10.72-2.9,15-11.9a19.17,19.17,0,0,0,1.8-8.36c.75,1.12,1.46,3.72.87,9.78,0,0,18.43-4.26,15.59-22.69,0,0,3.79,5.32.3,13.47,0,0,14.59-17.36,15-22.33,0,0,6.38-6.38-20.56-19.85l-5.32-3.55.74.09c4.79,2.5,9.7,4.66,11.8,5.56.74.32,1.51.6,2.25.88,9.38,3.46,12.72,9.77,12.75,9.83l.77-.39c-.14-.27-3.53-6.67-13.15-10.22-.8-.29-1.56-.57-2.29-.89-1.84-.79-5.87-2.56-10.06-4.67,6.95.1,23.5-2.16,10.66-27.83,0,0,4.73,16.4-8.86,19.14,0,0-15.95-2.48-20.21-9.57,0,0,11.35-16.66-8.15-27.65,0,0-1.41-.94-3.55-2.41,10.9,4.21,14.06,9.23,14.09,9.29l.73-.45c-.13-.22-3.44-5.57-15.33-10,0,0-1.17-.48-3-1.32-5.8-4-13.61-9.67-17.37-13.23,0,0-28.6-26.29-42.54-.82.07-.15.11-.26.11-.26-8.58-6.63-16.62-6.66-23-4.5A27.61,27.61,0,0,0,115,23.79L108,43a59.69,59.69,0,0,1-3.33,5.2,18.16,18.16,0,0,1-13.17,7.41,26.11,26.11,0,0,0-12.6,4.37l.52.68a25.81,25.81,0,0,1,12.15-4.2,19,19,0,0,0,13.8-7.76c.39-.54.79-1.15,1.18-1.74l-.65,1.76a18.34,18.34,0,0,1-15.22,12c-10.64,1.11-16,6.85-16,6.85C59.08,81,74.68,97,74.68,97c.81-7.1,4.15-9.77,5.64-10.63-7.11,7.54-1.85,23.35-1.61,24.08l.82-.28c-.06-.17-5-15,.79-22.48-9.89,23.72,19.53,43.69,19.53,43.69a11.44,11.44,0,0,1,0-12c5.31,25.87,24.1,29.06,24.1,29.06-5.08-4.91-7.88-11.43-9.44-16.91a133.56,133.56,0,0,0,24.83,15.13l5.22-6.68v6.68c.63.17,1.26.33,1.9.48-.08,1.39-.15,2.8-.26,4.14,0,.06,0,.12,0,.18-.17,2-.36,4-.59,5.88v.07a73.1,73.1,0,0,1-2,10.64.65.65,0,0,1,0,.13,43.18,43.18,0,0,1-1.51,4.46,31.13,31.13,0,0,0-9.26,5.4c-19.69-.1-57.84,38.87-59,41.55-.74,1.73.85,3.3,4.09,5.69a82.57,82.57,0,0,0-2.27,13.88c-1.52,1.58-2.6,2.74-2.6,2.74s.53,5.07,1.89,13.15c-.46,36.39,4.8,86.17-6.79,113.88-17.7,42.35-15.91,107.77-15.85,118.1C29,580.57,3,684.85,4.66,688.26c2.94,5.88,24.07,20,38.75,17.61-2.1-6.91-2.78-16.69-2.39-28.61,18.69-2,46.8-3.06,76.19-3.28C136,770.7,156.53,876.27,156.53,876.27l-26.69,34.32c-7.79,7.16-18.66,11-25.1,16.18a14.48,14.48,0,0,0-3.95,5.79c-1,2.38.37,5.28,2.41,5.28h34.11a14.21,14.21,0,0,0,8-2.54l22-14.81-1.07,8h0L161.74,962s11.38,17.3,22.13,17.3c11,0,22.13-17.3,22.13-17.3l-13-68.45s5.9-87.28,12.14-177.94a224.89,224.89,0,0,0,37.36-4.74c32.54-4.45,42.86-22.38,42.86-22.38-.06-1.4-.16-2.89-.27-4.41.09-.19.19-.36.27-.55-.15-.59-.29-1.2-.44-1.81-2.9-35.5-16.27-100.29-29.09-156.9-7.92-40.74-17.15-81.82-28.2-115.3L226.08,381c41.7,1.4,77.48-.37,77.48-.37,1.19-2.38,1.76-6,1.83-10.52C305.68,360.83,303.84,348.33,300.74,334.34Z"/></svg>