<svg id="Layer_1" data-name="Layer 1" xmlns="http://www.w3.org/2000/svg" width="860" height="915" viewBox="0 0 860 915"><defs><style>.cls-1{fill:#50080d;}</style></defs><path class="cls-1" d="M853.27,641.58a.82.82,0,0,0-.74-.46l-1.55-.43,1.92-2.06a.84.84,0,0,0,.21-.62s0-.07,0-.11a.83.83,0,0,0-.57-1l-1.69-.47,1.92-2.06a.88.88,0,0,0,.21-.63l0-.09a.82.82,0,0,0-.58-1l-1.68-.47,1.94-2.08a.8.8,0,0,0,.2-.64.43.43,0,0,0,0-.07.84.84,0,0,0-.57-1l-1.7-.46,1.95-2.1a.8.8,0,0,0,.2-.66l0,0a.8.8,0,0,0-.56-1l-1.69-.47,2-2.1a.86.86,0,0,0,.21-.66v0a.83.83,0,0,0-.57-1l-1.69-.47,2-2.12a1.16,1.16,0,0,0-.38-1.66l-1.68-.47,2-2.14a.8.8,0,0,0,.19-.69.82.82,0,0,0-.57-1l-1.69-.47,2-2.15a1.17,1.17,0,0,0-.4-1.63l-1.69-.47,2-2.16a.81.81,0,0,0,.16-.8.8.8,0,0,0-.57-.83l-1.69-.46,2-2.18a1.12,1.12,0,0,0-.42-1.61l-1.69-.47,2-2.18a.84.84,0,0,0,.15-.88.81.81,0,0,0-.59-.72l-1.69-.47,2.05-2.21a.83.83,0,0,0,.14-.9.81.81,0,0,0-.59-.68l-1.69-.47,2.06-2.22a.78.78,0,0,0,.11-.94.77.77,0,0,0-.56-.62l-1.69-.47,2.07-2.23a1.09,1.09,0,0,0-.47-1.56l-1.69-.46,2.1-2.25a.8.8,0,0,0,0-1,.84.84,0,0,0-.53-.51l-1.69-.47,2.1-2.26a.8.8,0,0,0,0-1,.86.86,0,0,0-.54-.48l-1.67-.46,2.11-2.27a.82.82,0,0,0,0-1.13l0,0h0a.81.81,0,0,0-.47-.36l-1.69-.47,2.12-2.29a.81.81,0,0,0,.17-.81h0a.19.19,0,0,0,0-.08.8.8,0,0,0-.56-.59l-1.78-.49,2.14-2.29a.81.81,0,0,0,0-1.14l-.1-.07a.77.77,0,0,0-.39-.27l-1.7-.47,2.16-2.31a.83.83,0,0,0,0-1.15l-.16-.1a.75.75,0,0,0-.36-.23l-1.69-.46,2.17-2.33a.8.8,0,0,0,.21-.5,1,1,0,0,0,0-.84l-.34-.73,2.53.14a2.44,2.44,0,0,0,2.59-2.31L859,502.2a2.47,2.47,0,0,0-2.32-2.59l-6-.33,1.08-19.66a5.21,5.21,0,0,0-4.92-5.49l-9.67-.53,1.25-22.74a11.25,11.25,0,0,0-10.59-11.81l-2-.11A11.26,11.26,0,0,0,814,449.52l-6.17,112.59-1.64,30L115.9,554.24l0-.88L777.17,589.6a29.13,29.13,0,1,0,3.19-58.17L205,499.9a29.13,29.13,0,1,0,3.19-58.17l-64.57-3.54C146.06,393,150.09,319.47,154,247.5a18.8,18.8,0,0,0,8.07,2.36c12.4.68,23.17-11.1,24-26.25l4.63-84.54c1.07.06,7.12-4,7.23-5.93l0-.72c13.69-.73,29.3-3.35,32.08-5.73,8.82-7.57.23-63-3.51-74.66-1.31-4.07-7.8-7.65-15.24-9.71A21.62,21.62,0,0,0,228,22.5a3.89,3.89,0,0,0-7.77-.43,13.84,13.84,0,0,1-9.69,12.42h-.12l9.73-14.17s-24-9.16-24.13-6.71c-.08,1.45,1.47,11.39,2.73,19.16a13.79,13.79,0,0,1-6.08-12.2l.21-3.88-27.3-1.49c-.12-1.49-.27-2.9-.46-4.18-.94-6.57-2.63-10-5-10.11-3.49-.19-5.56,6.47-6.79,13.61l-7.72-.42-4-.22-2.69-.15-.84,0-6.23-.34L125,13l-10.37-.57C113.8,6.66,112,1.91,108.48,1.72c-2.94-.16-5.41,3-7.36,9.44-.05.15-.09.33-.14.49L77.71,10.37l-.21,3.88a13.82,13.82,0,0,1-8.13,11.83c-1.76-2.64-4.11-4.29-6.81-4.44a8.72,8.72,0,0,0-6.79,3.12,13.78,13.78,0,0,1-5.84-12,3.89,3.89,0,0,0-7.77-.43,21.57,21.57,0,0,0,9.76,19.23,28.8,28.8,0,0,0-1.32,6L36,36.75A9.79,9.79,0,0,0,25.71,46l-4.86,88.55c-.29,5.39,18.87,33.07,24.26,33.36l-1.19,21.55a2.28,2.28,0,0,0,2.14,2.38l5.2.28-1.52,27.69a27.47,27.47,0,0,0,36.08,27.62l-10.25,187L67.31,434a29.13,29.13,0,0,0-3.19,58.17,29.12,29.12,0,1,0-3.18,58.16l34.53,1.9,0,.88L31.8,549.63l1.64-30,3.19-58.16,2.95-53.69A12,12,0,0,0,28.3,395.23L24.48,395A12,12,0,0,0,11.9,406.29L4.13,548.12l-.84,15.33L1.84,589.86l-.75,13.69L1,605.19h.13a12,12,0,0,0,11.23,10.93l3.82.21a12,12,0,0,0,12.37-9.64l16.59.91,286,114.88L158.28,770.78l-36.88-2a12.41,12.41,0,0,0-24.76-1.36l-23.2-1.27a3.11,3.11,0,0,0-3.27,2.94l-.8,14.59a3.11,3.11,0,0,0,2.93,3.28l23.17,1.27-1.16,21.26-7.37,7.75a31.76,31.76,0,1,0,17.11,15.54L115,821.3a11.32,11.32,0,0,0,2.84-5.44,12.22,12.22,0,0,0,1.32-4.89l1.18-21.4,566.25,31L685.36,842a12.28,12.28,0,0,0,.78,5,11.29,11.29,0,0,0,2.23,5.72L698,865.31a31.68,31.68,0,1,0,28.4-14.55,31.83,31.83,0,0,0-9.7,1l-6.47-8.5L711.34,822l21.56,1.19a3.12,3.12,0,0,0,3.29-2.94l.8-14.59a3.12,3.12,0,0,0-3-3.28l-21.58-1.18a12.41,12.41,0,0,0-24.76-1.36l-44.48-2.44-166.83-67L773,647.51l30.12,1.65a11.24,11.24,0,0,0,10.58,10.89l2,.11a11.26,11.26,0,0,0,11.82-10.58l3.63-66.36,4.51.24a.37.37,0,0,0-.07.12.81.81,0,0,0,.52,1l1.67.55L836,586.86a.78.78,0,0,0-.24.57.76.76,0,0,0-.32.4.83.83,0,0,0,.53,1l1.67.55-1.76,1.71a.82.82,0,0,0-.24.59.76.76,0,0,0-.3.38.81.81,0,0,0,.51,1l1.67.55-1.76,1.73a.79.79,0,0,0-.25.58.75.75,0,0,0-.28.37.81.81,0,0,0,.51,1l1.67.55-1.79,1.75a.78.78,0,0,0-.24.57.75.75,0,0,0-.28.37.84.84,0,0,0,.54,1l1.65.54-1.79,1.75a.78.78,0,0,0-.24.57.75.75,0,0,0-.27.36.83.83,0,0,0,.52,1l1.67.55-1.81,1.77a.77.77,0,0,0-.24.56.87.87,0,0,0-.25.35.82.82,0,0,0,.52,1l1.67.54-1.82,1.78a.81.81,0,0,0-.25.57.88.88,0,0,0-.24.33.8.8,0,0,0,.53,1l1.67.55-1.84,1.8a.76.76,0,0,0-.24.56.69.69,0,0,0-.22.33.81.81,0,0,0,.51,1l1.66.55L835,621a.82.82,0,0,0-.23.56.78.78,0,0,0-.21.32.8.8,0,0,0,.52,1l1.66.55-1.87,1.83a.79.79,0,0,0-.23.55.76.76,0,0,0-.2.31.82.82,0,0,0,.53,1l1.66.54-1.88,1.84a.76.76,0,0,0-.23.54.89.89,0,0,0-.19.31.82.82,0,0,0,.52,1l1.67.54-1.89,1.86a.79.79,0,0,0-.24.54.82.82,0,0,0-.17.29.8.8,0,0,0,.51,1l1.67.55-1.9,1.86a.81.81,0,0,0-.24.54,1,1,0,0,0-.16.28.82.82,0,0,0,.52,1l2,.65-2,3a.8.8,0,0,0-.12.45.82.82,0,0,0,0,.38.81.81,0,0,0,1,.54l1.68-.51-.5,2.65a.81.81,0,0,0,.17.64l0,.08a.81.81,0,0,0,1.12.13l1.39-1.1.46,2.4a.79.79,0,0,0,1.41.69.77.77,0,0,0,.23-.4l.65-1.27,1.59,2.24a2.27,2.27,0,0,0,1.16.43.83.83,0,0,0,.68-.93l-.27-1.73,2.61.88a.7.7,0,0,0,.43,0,.8.8,0,0,0,.89-1.17l-.85-1.53,2.76-.07h.06a.81.81,0,0,0,.73-.31.82.82,0,0,0-.16-1.14l-1.41-1,2.5-1.22A.81.81,0,0,0,853.27,641.58ZM185,24a21.64,21.64,0,0,0,11.58,16.47c-5,.3-9,1.79-10.32,4.89-2.48,6-14.6,78.58-9.54,84.67.76.92,2.58,1.55,5.1,2l0,.23c-.1,1.92,4.71,6.58,5.78,6.64l-4.63,84.54c-.72,13-10,23.11-20.61,22.53a16.31,16.31,0,0,1-8-2.7C160.09,137,165.66,35.44,165.67,35.14c.21-4.39.28-8.45.22-12.15Zm-30.16,5.55c.14-2.66.33-5,.55-7.18l7.33.41c.06,3.4,0,7.36-.21,12,0,.32-5.5,100.48-11.28,206-4.57-4.56-7.33-11.65-6.9-19.47Zm5-24.81c.51.22,1.84,2.8,2.53,10.23l-5.89-.32C157.74,7.34,159.33,4.94,159.78,4.78ZM152.2,22.24c-.3,2.94-.47,5.52-.56,7.18L141.13,221.15c-.55,10.08,3.45,19.14,9.83,24.28-4,72.58-8.05,147-10.55,192.58l-18.08-1L145.08,21.85ZM108.32,5.6c.42.18,1.59,1.93,2.39,6.58L105,11.87C106.41,7.35,107.79,5.74,108.32,5.6Zm3,25.26L100.82,222.59a23.59,23.59,0,0,1-10.75,18.49c5.78-105.46,11.27-205.63,11.29-205.94a139.1,139.1,0,0,1,1.8-15.59l8.3.46C111.58,23,111.56,26.59,111.33,30.86Zm-35.4,214A23.65,23.65,0,0,1,53.63,220l1.52-27.68,5.22.28a2.27,2.27,0,0,0,2.39-2.13l1.18-21.54c5.39.29,27.31-22.72,27.61-28.12l5-90.94a9.79,9.79,0,0,0-9.24-10.31l-14.59-.8a28.52,28.52,0,0,0-.51-5.43A21.66,21.66,0,0,0,84.71,18.54l14.53.8A149.22,149.22,0,0,0,97.46,35c0,.3-5.58,101.87-11.41,208.14A23.43,23.43,0,0,1,75.93,244.88Zm13.88.84A27.49,27.49,0,0,0,104.7,222.8L115.21,31.07c.13-2.32.28-6.43.12-10.85l9.27.51L101.85,435.9l-22.4-1.23C82,388.83,85.93,316.4,89.81,245.72ZM31,565l774.41,42.45-1.45,26.4L29.51,591.37ZM628,639.56,405.26,701.79,190.62,615.58ZM82.42,609.65l70.92,3.89,232.93,93.55-36.12,10.09ZM404.56,714.44l34.56,13.88L403,738.41l-34.56-13.88Zm-55.11,15.39L384,743.71l-118,33-70.43-3.86Zm52.85,21.23,95.44,38.33-194.5-10.66ZM606,795.32,535,791.43,421.29,745.75l36.12-10.09ZM458.11,723l-34.56-13.88L665.31,641.6l70.42,3.86ZM847.53,556.81l0,0,1.92.53-2.1,2.26ZM849,551.1l.77,1.61-2.13,2.3.22-4Zm-10.68,32.51,1,0,0,0-.18.17Zm-2,50.82,2.71-2.65a.81.81,0,1,0-1.13-1.17l0,0-1.43-.47,2.37-2.32,0,0,.34-.33a.81.81,0,0,0,0-1.15.82.82,0,0,0-1.15,0l-.06,0-1.43-.46,2.35-2.3,0,0,.35-.34a.82.82,0,0,0,0-1.15.81.81,0,0,0-1.15,0l0,.06-1.44-.47,2.38-2.32h0l.38-.37a.83.83,0,0,0,0-1.16.82.82,0,0,0-1.15,0l-.07.08-1.44-.47,2.38-2.31,0,0,.38-.38a.83.83,0,0,0,0-1.15.81.81,0,0,0-1.15,0l-.08.09-1.44-.47,2.37-2.33h0l.4-.39a.82.82,0,0,0,0-1.15.8.8,0,0,0-1.14,0l-.1.09-1.44-.47,2.8-2.73a.81.81,0,1,0-1.14-1.16l-.11.11-1.43-.46,2.81-2.76a.83.83,0,0,0,0-1.15.82.82,0,0,0-1.15,0l-.12.12-1.43-.46,2.82-2.75a.83.83,0,0,0,0-1.16.81.81,0,0,0-1.15,0l-.14.13-1.43-.46,2.38-2.33h0l.45-.44a.81.81,0,0,0,0-1.16.83.83,0,0,0-1.15,0l-.15.16-1.42-.47,2.85-2.78a.82.82,0,0,0,0-1.15.8.8,0,0,0-1.14,0l-.17.17-1.43-.47,2.86-2.8a.81.81,0,0,0,0-1.13l.38,0a5.22,5.22,0,0,0,5.49-4.92l1-17.91a.83.83,0,0,0,.49.19l1.78.5L847.32,564a.83.83,0,0,0,0,1.15.81.81,0,0,0,.64.21l1.67.46-2.28,2.45a.82.82,0,0,0,.05,1.15.77.77,0,0,0,.62.21l1.68.47-2.27,2.44a.82.82,0,0,0,0,1.15.84.84,0,0,0,.64.2l1.66.46-2.27,2.45a.82.82,0,0,0,0,1.16.8.8,0,0,0,.69.19l1.64.46-2.3,2.46a.82.82,0,0,0,0,1.15.81.81,0,0,0,.71.19l1.63.45-2.31,2.48a.84.84,0,0,0,0,1.15.79.79,0,0,0,.76.18l1.61.44-2.25,2.42,0,0,0,0a.8.8,0,0,0,0,1.15.78.78,0,0,0,.77.17l1.6.44-2.24,2.4,0,.05-.06,0a.83.83,0,0,0,0,1.16.84.84,0,0,0,.83.16l1.54.43-2.34,2.52a.81.81,0,0,0,.05,1.15.79.79,0,0,0,.84.16l1.55.42-2.24,2.41s0,0,0,0l-.08.09a.81.81,0,0,0,0,1.15.8.8,0,0,0,.88.15l1.52.42-2.37,2.55A.81.81,0,0,0,849,608l1.51.42-2.25,2.43h0l-.12.12a.81.81,0,0,0,1,1.28l1.51.42-2.24,2.41,0,0-.12.13a.8.8,0,0,0,0,1.14.82.82,0,0,0,.95.12l1.51.42-2.42,2.59a.82.82,0,0,0,0,1.15.83.83,0,0,0,1,.1l1.5.41-2.43,2.6a.83.83,0,0,0,0,1.16.81.81,0,0,0,1,.08l1.49.41L848.4,628a.82.82,0,0,0,0,1.14.83.83,0,0,0,1,.08l1.49.41-2.45,2.63a.81.81,0,0,0,0,1.15.78.78,0,0,0,1,.06l1.49.41-2.26,2.43h0l-.18.2a.8.8,0,0,0,1.05,1.21l1.49.41-2.25,2.41,0,0-.2.21a.81.81,0,0,0,1.09,1.18l.49.14-2.08,1a.81.81,0,0,0-.38,1.09.79.79,0,0,0,1,.4l.18.14-2.28.05a.83.83,0,0,0-.81.84.82.82,0,0,0,.75.78l.34.61-2.75-.92a.82.82,0,0,0-1,.51c0,.05,0,.09,0,.13l-.66-.93a.84.84,0,0,0-1.15-.19.8.8,0,0,0-.31.76l-.32-1.67a.81.81,0,0,0-1.6.27l-.39.31.45-2.41a.85.85,0,0,0-.67-1,.81.81,0,0,0-.94.65l-.42.12,1.36-2a.78.78,0,0,0,.12-.34l0,0a.82.82,0,0,0-.52-1l-1.9-.61L838.9,636a.82.82,0,1,0-1.15-1.16l0,0Zm4.8,12.33,0,.08,0-.27A.82.82,0,0,0,841.1,646.76Z"/></svg>