<svg id="Layer_1" data-name="Layer 1" xmlns="http://www.w3.org/2000/svg" width="1520" height="1115" viewBox="0 0 1520 1115"><defs><style>.cls-1{fill:#9fff28;}.cls-2{fill:#333;}.cls-3{fill:#d1c6c6;}.cls-4{fill:#52b2ad;}.cls-5{fill:#fcd400;}</style></defs><path class="cls-1" d="M1460.37,458c74.46,35.85,57.91,51.51,57.91,51.51-62.06-17.44-260.63,0-260.63,0l-32.2,68.88-51.21,10.28s46.18-62.13,10.33-79.16L935.32,653.14l-5.87,3.38L892.22,529.66,718.46,583.44c-66.19-1.38-229.31,29.21-229.31,29.21a171.33,171.33,0,0,0,6.38-61.7L834.3,526.9l-71.75-120c75.8,47.35,153.72,95.15,157.24,95.15,6.91,0,358.55-54.08,358.55-54.08s-15-19.37-63.44-12.11l16.55-33.1,71.71-17.92L1424.51,440l37.23-5.51L1448,424.86l11-19.32,35.86,9.66,2.75,23.45Z"/><path d="M1379.12,713.08c1.31,1.31,88.57,88.81,81.61,135.12,0,0-21.79-54.17-51-74.46A218,218,0,0,0,1379.12,713.08Z"/><path class="cls-2" d="M1074.39,1060.09a272.81,272.81,0,0,1-51.9-42.14c-44.24-45.66-64.21-95.54-63.8-101.83h0c.2-.21.38-.41.55-.62,5.73-6.5,10.72-15.7,13-28.67l81.18-2.72c123.92,227.56,236,53.74,236,53.74C1401.07,733.75,1168,721.34,1168,721.34l26.21-78.6L1219,627.57c18.5,0,43.57,4.34,69.79,15.1,31.54,12.94,64.77,35.19,90.28,70.39,0,0,0,0,0,0a218,218,0,0,1,30.56,60.66c8.45,26,13.41,56.11,13.45,91,.19,181.84-174.69,260.18-297.86,219.26A239.77,239.77,0,0,1,1074.39,1060.09Z"/><path class="cls-3" d="M1332.12,584.81v30.34h-29V631.7l-13.79,9.65-.54,1.32c-26.22-10.76-51.29-15.1-69.79-15.1V597.22L1086.1,623.43l14.35-20,73.79-14.81,51.21-10.28,63.92-12.83,9.65,19.3Z"/><path class="cls-3" d="M1200.49,785l-105.67-25.94L1168,721.34s233.06,12.41,121.36,216.5l-22.07-51-.54-.85,11.58-40.52L1237,794Z"/><path d="M1267.3,886.82l22.07,51L1262,915.46a.7.7,0,0,0,0-.45c-1.06-3-1.8-6.06-.94-9.11l5.7-19.93Z"/><path class="cls-3" d="M1262,915.46l27.35,22.38s-112.07,173.82-236-53.74l49.86-1.68,84.09,38.88S1260.44,921.3,1262,915.46Z"/><polygon points="1236.96 793.95 1278.34 845.45 1266.76 885.97 1245.24 852.35 1165.76 803.05 1200.49 785.01 1236.96 793.95"/><path class="cls-4" d="M1245.24,852.35,1266.76,886l-5.7,19.93c-.86,3.05-.12,6.13.94,9.11a.7.7,0,0,1,0,.45l-3-2.44-20.68-8.28-60.68-24.81-74.43,2.49-49.86,1.68-81.18,2.72-91-62.06L842.58,811l16.54-16.56-26.2-51,104.2,12.08-2.94,4.19-35.07,49.92,105.63,11.9,90.19,10.17L973.86,753.94h0l38.34-34L975,695.14,804.75,704,718.46,583.44l173.76-53.78,37.23,126.86,165.37,102.55,70.93,44Zm-16.54,12.41V848.2h-11a7.39,7.39,0,0,0-7.36,6.9,96.94,96.94,0,0,1-1.25,9.66Z"/><path d="M1259,913l3,2.44c-1.58,5.84-74.69,5.84-74.69,5.84l-84.09-38.88,74.43-2.49,60.68,24.81Z"/><path d="M1214.9,435.89c48.43-7.26,63.44,12.11,63.44,12.11S926.7,502.08,919.79,502.08c-3.52,0-81.44-47.8-157.24-95.15-72.67-45.4-143.4-90.37-144.75-92.4-2-3,37.61-36.07,59.85-54.31,8.6-7.05,14.61-11.88,14.61-11.88s235.37,46.26,237.19,46.89c-1.38,0,85.5,151.69,85.5,151.69s125.64,5.51,185.55-8.27C1205.6,437.48,1210.39,436.57,1214.9,435.89Z"/><path d="M1228.7,848.2v16.56h-19.6a96.94,96.94,0,0,0,1.25-9.66,7.39,7.39,0,0,1,7.36-6.9Z"/><polygon class="cls-1" points="1219.04 597.22 1219.04 627.57 1194.22 642.74 1168.02 721.34 1094.82 759.07 929.45 656.52 935.32 653.14 1086.1 623.43 1219.04 597.22"/><polygon class="cls-3" points="1094.82 759.07 1200.49 785.01 1165.76 803.05 1094.82 759.07"/><path class="cls-4" d="M1184.57,509.46c35.85,17-10.33,79.16-10.33,79.16l-73.79,14.81-14.35,20L935.32,653.14Z"/><path d="M1146.39,1110.53c-69.61,22.09-132.17-86.44-123.9-92.58a272.81,272.81,0,0,0,51.9,42.14C1073.53,1063.16,1072,1081.66,1146.39,1110.53Z"/><polygon class="cls-3" points="1094.93 831.66 1004.74 821.49 934.18 759.67 937.12 755.48 968.06 759.07 973.85 753.93 973.86 753.94 1094.93 831.66"/><polygon class="cls-2" points="1012.19 719.96 973.85 753.93 968.06 759.07 937.12 755.48 832.92 743.4 804.75 704.03 974.96 695.14 1012.19 719.96"/><polygon class="cls-2" points="1004.74 821.49 899.11 809.59 934.18 759.67 1004.74 821.49"/><path class="cls-4" d="M881.18,824.76l91,62.06c-2.24,13-7.23,22.17-13,28.67-.32-.13-.51.09-.55.62h0A47.29,47.29,0,0,1,932.21,931L399.92,722.71c111.88-95.5-4.37-311.14-6.85-315.71l-.05-.07L344.5,449.67,335.1,458c-6.89-22.06-37.23-35.85-37.23-35.85l30.34-38.62c26.86-4.79-64.41-27.61-122.45-41.05-10.56-2.46-20-4.58-27.46-6.24-10.47-2.33-17-3.73-17-3.73,110.32-24.82,187.54,31.72,187.54,31.72,12.41-17.93-91-129.63-91-129.63,19.32-5.51,27.59-42.75,27.59-42.75H264.78c71.7-63.43,180.64-118.59,180.64-118.59,37.23-27.58,148.94-71.7,148.94-71.7S633,60.79,630.21,60.79s28.95,46.89,28.95,46.89L505.46,159.1l-31.08,5.12s-27.58-6.89-45.51,17.93,11,41.37,11,41.37,92.4,41.38,96.53,40,22.07-12.41,35.86-15.17,105.36,11.88,105.36,11.88c-22.24,18.24-61.83,51.33-59.85,54.31,1.35,2,72.08,47,144.75,92.4,0,0-107.52-8.28-144.83-2.76s-34.4,86.18-34.4,86.18l107.56,19.11-121.35,6.41-1.38-124.11L433,405.54s43.1,49.33,58,115.52a203.77,203.77,0,0,1,4.5,29.89,171.33,171.33,0,0,1-6.38,61.7c-9.48,31.92-29.67,64.4-66.13,94.9l409.9,35.85,26.2,51L842.58,811ZM593,336.59l30.34-6.89L430.25,306.26,384.75,338l22.75,46.89,210.22-16.56Zm-170-73s36.2-13.82,10-26.23-84.12,11-84.12,11Z"/><path class="cls-2" d="M762.55,406.93l71.75,120L495.53,551a203.77,203.77,0,0,0-4.5-29.89c-14.92-66.19-58-115.52-58-115.52l135.14-13.78,1.38,124.11,121.35-6.41L583.32,490.35s-2.9-80.66,34.4-86.18S762.55,406.93,762.55,406.93Z"/><path class="cls-1" d="M804.75,704l28.17,39.37L423,707.55c36.46-30.5,56.65-63,66.13-94.9,0,0,163.12-30.59,229.31-29.21ZM583.32,667.59c20.69-30.3,155.83-26.24,155.83-26.24s-114.46-40-162.72-37.92-80,76.54-80,76.54,23.45,20.68,31.73,26.2l38.61,6.89S562.64,697.9,583.32,667.59Z"/><path d="M739.15,641.35S604,637.29,583.32,667.59s-16.54,45.47-16.54,45.47l-38.61-6.89c-8.28-5.52-31.73-26.2-31.73-26.2s31.73-74.47,80-76.54S739.15,641.35,739.15,641.35Z"/><path d="M624.69,194.56l53,65.66s-91.57-14.64-105.36-11.88-31.71,13.8-35.86,15.17-96.53-40-96.53-40-29-16.55-11-41.37,45.51-17.93,45.51-17.93l31.08-5.12,86.14-14.19Zm5.52,41.37-31.72-52.4-29-20.18-33.1,20.18,60.69,51,20.6,13.79Z"/><polygon class="cls-3" points="598.49 183.53 630.21 235.93 617.72 248.34 597.12 234.55 536.43 183.53 569.53 163.35 598.49 183.53"/><polygon class="cls-2" points="623.31 329.7 592.97 336.59 617.72 368.31 407.5 384.87 384.75 337.98 430.25 306.26 623.31 329.7"/><path class="cls-5" d="M433,237.31c26.21,12.41-10,26.23-10,26.23l-74.13-15.2S406.81,224.9,433,237.31Z"/><path class="cls-2" d="M244.27,765a196.3,196.3,0,0,1-103.8-10C83.16,733.36,39.11,686.76,18.14,629.19-21.06,521.56,9.65,451,54.3,406.08c17-17.09,36-30.46,54-40.7,37.36-21.34,70.05-29.19,70.05-29.19,7.44,1.66,16.9,3.78,27.46,6.24-1.28,0,64.53,32.78,64.53,32.78L243.53,422.1s-231.12-31.72-156.65,193c0,0,33.09,102.06,165.49,77.23S370,521.91,375.78,512.31h0l32.41-37.81-23.44-24.82H344.5L393,406.93l.05.07c81.29,168.19-8.32,286.76-8.32,286.76-30.86,25.89-60.16,43.78-87.67,55.49A235.22,235.22,0,0,1,244.27,765Z"/><polygon class="cls-1" points="384.75 449.67 408.19 474.49 375.78 512.3 375.78 512.31 339.78 554.29 267.23 516.46 335.1 457.95 344.5 449.67 384.75 449.67"/><path d="M339.78,554.29l36-42c-5.78,9.6,8.93,155.26-123.41,180.07S86.88,615.15,86.88,615.15c-74.47-224.77,156.65-193,156.65-193l-9.45,16.56S96.54,427.61,97.91,560s162.72,126.86,200,67.57l63.43-62.06Z"/><path class="cls-1" d="M361.3,565.51l-63.43,62.06L275.8,603.08,242,565.51l-5.4-13.44L222,515.87l-5.13-25.3-3.26-16.08,20.45-35.83,9.45-16.56,26.76-46.89s-65.81-32.78-64.53-32.78c58,13.44,149.31,36.26,122.45,41.05L297.87,422.1l-66.19,80,23.44,24.82,12.11-10.44,72.55,37.83Z"/><path d="M297.87,751.11l63.43-4.27c-59.16,25.86-114.37,18.28-117,18.19a235.22,235.22,0,0,0,52.81-15.78Z"/><path d="M335.1,458l-67.87,58.51L255.12,526.9l-23.44-24.82,66.19-80S328.21,435.89,335.1,458Z"/><path class="cls-3" d="M275.8,603.08l22.07,24.49c-37.24,59.29-198.58,64.81-200-67.57S234.08,438.66,234.08,438.66l-20.45,35.83-26.08.7-8.28-15.87-42.74,41.55,17.92,8.59-11,17.44-19.3-11L129.64,571h19.3l12.41,32.4-15.17,6.21,56.54,31.71,4.13-19.3h30.34v19.3l38.61-23.44Z"/><path d="M275.8,603.08v14.83l-38.61,23.44v-19.3H206.85l-4.13,19.3-56.54-31.71,15.17-6.21L148.94,571h-19.3l-5.52-55.16,19.3,11,11-17.44-17.92-8.59,42.74-41.55,8.28,15.87,26.08-.7,3.26,16.08s-66.58,10.13-61.06,61.5S244.09,624.1,275.8,603.08Z"/><path class="cls-3" d="M242,565.51l33.84,37.57c-31.71,21-114.45.35-120-51s61.06-61.5,61.06-61.5l5.13,25.3L200,526.9l5.52,25.17L222,565.51l14.54-13.44Z"/><polygon points="222.02 515.87 236.56 552.07 222.02 565.51 205.48 552.07 199.96 526.9 222.02 515.87"/><path d="M144.58,324.69l-36.33,40.69c-18,10.24-37,23.61-53.95,40.7h0S107.28,335,144.58,324.69Z"/></svg>