<svg id="Layer_1" data-name="Layer 1" xmlns="http://www.w3.org/2000/svg" xmlns:xlink="http://www.w3.org/1999/xlink" width="1955" height="830" viewBox="0 0 1955 830"><defs><style>.cls-1{fill:#ffcd02;}.cls-2{fill:#2d2322;}.cls-3{fill:#d1c6c6;}.cls-4{fill:url(#linear-gradient);}.cls-5{fill:url(#linear-gradient-2);}.cls-6{fill:url(#linear-gradient-3);}.cls-7{fill:url(#linear-gradient-4);}.cls-8{fill:url(#linear-gradient-5);}.cls-9{fill:#404040;}.cls-10{fill:url(#linear-gradient-6);}.cls-11{fill:url(#linear-gradient-7);}.cls-12{fill:url(#linear-gradient-8);}.cls-13{fill:#e0d9d9;}.cls-14{fill:url(#linear-gradient-9);}.cls-15{fill:url(#linear-gradient-10);}.cls-16{fill:url(#linear-gradient-11);}.cls-17{fill:url(#linear-gradient-12);}.cls-18{fill:#333;}.cls-19{fill:#f4e72c;}.cls-20{fill:#fff2a2;}.cls-21{fill:#bfbfbf;}</style><linearGradient id="linear-gradient" x1="1780.65" y1="610.45" x2="1816.84" y2="610.45" gradientUnits="userSpaceOnUse"><stop offset="0"/><stop offset="0.96" stop-color="#2d2322"/></linearGradient><linearGradient id="linear-gradient-2" x1="1769.98" y1="677.87" x2="1804.14" y2="677.87" xlink:href="#linear-gradient"/><linearGradient id="linear-gradient-3" x1="1773.29" y1="532.71" x2="1803.51" y2="532.71" xlink:href="#linear-gradient"/><linearGradient id="linear-gradient-4" x1="1734.15" y1="650.99" x2="1763.26" y2="650.99" xlink:href="#linear-gradient"/><linearGradient id="linear-gradient-5" x1="1734.07" y1="531.44" x2="1760.17" y2="531.44" xlink:href="#linear-gradient"/><linearGradient id="linear-gradient-6" x1="1166.87" y1="621.24" x2="1239.61" y2="621.24" xlink:href="#linear-gradient"/><linearGradient id="linear-gradient-7" x1="1153.99" y1="509.25" x2="1222.66" y2="509.25" xlink:href="#linear-gradient"/><linearGradient id="linear-gradient-8" x1="1149.6" y1="699.29" x2="1211.97" y2="699.29" xlink:href="#linear-gradient"/><linearGradient id="linear-gradient-9" x1="1.11" y1="226.18" x2="1875.43" y2="226.18" gradientUnits="userSpaceOnUse"><stop offset="0.01" stop-color="#fbd50a"/><stop offset="0.14" stop-color="#f6d10a"/><stop offset="0.28" stop-color="#e9c70b"/><stop offset="0.44" stop-color="#d3b50c"/><stop offset="0.59" stop-color="#b49d0e"/><stop offset="0.76" stop-color="#8c7d11"/><stop offset="0.92" stop-color="#5b5713"/><stop offset="1" stop-color="#404115"/></linearGradient><linearGradient id="linear-gradient-10" x1="1081.11" y1="511.56" x2="1133.97" y2="511.56" xlink:href="#linear-gradient"/><linearGradient id="linear-gradient-11" x1="1077.55" y1="666.19" x2="1128.58" y2="666.19" xlink:href="#linear-gradient"/><linearGradient id="linear-gradient-12" x1="1.11" y1="223.29" x2="1875.43" y2="223.29" xlink:href="#linear-gradient-9"/></defs><path class="cls-1" d="M149.94,614.22l-36.23-69.94L28.87,526.54,13.45,544.28l4.62,89.45,13.11,28.54H81.31Zm-68,97.54-16-.14L17.3,666.89,1.11,549.67l33.16-73.26c2.27-16.4,4.89-30.64,7.74-43l57.81,4.44L185.42,387,85.17,352.25C126.12,314.92,319,271,401.5,253.54c23.16-4.9,37.64-7.71,37.64-7.71s268.33-30.07,542-25.42q8.13.14,16.27.31h0l110.09,5.14h0l26.1,1.21h.14c30.32,2.26,60.08,5.13,88.88,8.71,0,0,44-157.32,71.72-167.34,0,0-243.12-28.31-589.65,7.05l24.37-7.82C763.42,53.73,860.45,46.6,950.65,43c80.39-3.25,155.34-3.73,175.64-3.79l5.37,0q13.93-.91,27.47-1.5c218.49-9.47,357.49,45.09,473,129.52,120.3,87.91,229,227.5,229,227.5s3.08,94.08,10.8,133.41,0,105.65,0,105.65l-37,28.54C1848.86,643,1828,508.8,1828,508.8s15.42-104.88-58.61-92.19c-11.28,1.93-20.34,9.18-27.59,20.07C1701.48,497.27,1717,670.75,1717,670.75L1694.62,687,1585,691.25l-323,12.66a340.15,340.15,0,0,0,9.46-34.87l5.19-19.11s67.87-258.35-88.68-278.4c-40.09-5.13-68.34,13.9-88.19,45.07h0c-57.68,90.54-44.45,283.45-44.45,283.45l-16.19,20.05-140.35-1.22-512-4.47ZM667.41,633l117.22,54L942,677.69s21.59-38.56,23.91-44.73-38.12-92.54-38.12-92.54-181.67,3.09-200.18,13.88S667.41,633,667.41,633ZM1718.54,302.9c-2.33-4.85-3.86-7.72-3.86-7.72l-58.61-28.53,37.78-17.74-10-12.34A567.18,567.18,0,0,0,1592.77,160c-74-50.29-137.21-69.13-137.21-69.13s-6.2-1.33-13.56-2.82c-7.88-1.61-17.07-3.42-21.41-4-25.32-3.44-59-4.77-82.25,6.83-41.65,20.82-70.95,158.09-70.95,158.09h56.3l-25.45,33.16,9.25,15.43,26.22,5.4L1373,270.51V269h62.47l8.54-9.87.71.62c10.23-2.92,27.34-2.63,44.63-1.14,7.58.65,15.2,1.53,22.29,2.47l27.17,64.22s6.74,82.37,6.73,164.75c0,26.26-.69,52.52-2.5,76.11-103.78,13.63-233.1,30-233.1,30a371.33,371.33,0,0,1-13.29,66.14l395.62-27.77s14.59-202.82,40.84-229C1754.55,384.09,1728.79,324.28,1718.54,302.9Zm-189,50.34v-14.1h-54.75l5.78,17,16.45-1c1.55,4.17,5.83,13.58,12.47,11.76,8.48-2.32,13.11-13.26,13.11-13.26Zm-475,5.18-8.48-12.4L690.54,378.35s118,68,118.77,64.13,198.19-14,198.19-14ZM716.66,487.16l18.61-27.29L688.21,421l-33.14-27.39h-455s-23.7,14.69-46.27,29.23C133.29,436,113.71,449.12,113.71,451l13.79,35.48,11.65,30,13.67,35.17,15.73,40.49,8.39,21.59H630.39l13.15-19.28L673,551.22l23.89-35Z"/><path d="M1734.15,608.46c2.14,39.9,7.54,66.87,14.06,85.06,6.77,18.93,14.76,28.37,21.55,33,8.53,5.84,15.18,4.1,15.18,4.1,9.88-1.1,18.09-12.22,24.59-28,4.78-11.61,8.64-25.76,11.58-40.33,5.28-26.1,7.59-53.54,6.93-70.18-.34-8.5-1.23-19.25-2.78-31-2.22-16.65-5.77-35.22-11-51.92-7.78-24.87-19.27-45.61-35.57-49.76-11.62-3-20.54,7.3-27.28,22.31-10.24,22.83-15.43,56.66-17.33,71.69-.61,4.8-.89,7.68-.89,7.68C1733,578.64,1733.39,594.36,1734.15,608.46Zm62.64,142.86c-7,3.74-13.48,6.2-13.48,5.8a7.53,7.53,0,0,0-1.66-.13c-14.28-.48-116.81,0-146.24.09l-7.88,0a84.83,84.83,0,0,1-12-8.92l-23.17-32.39-.12.05a95.63,95.63,0,0,1-7.17-22.56l-.08-2,109.58-4.3,22.37-16.2s-15.51-173.48,24.85-234.07c72.66-18.13,86.2,72.12,86.2,72.12S1848.86,643,1835,662.27c0,0-17.74,67.09-22.36,76.34C1810.37,743.11,1803.38,747.79,1796.79,751.32Z"/><path class="cls-2" d="M1828,592.09c.66,16.64-1.65,44.08-6.93,70.18a94.28,94.28,0,0,0-5.94-12.29c4.2-14-.86-79-.86-79h0l11-9.8h0C1826.81,572.84,1827.7,583.59,1828,592.09Z"/><path d="M1769.43,416.61c74-12.69,58.61,92.19,58.61,92.19s-13.54-90.25-86.2-72.12C1749.09,425.79,1758.15,418.54,1769.43,416.61Z"/><path class="cls-3" d="M1815.17,650a94.28,94.28,0,0,1,5.94,12.29c-2.94,14.57-6.8,28.72-11.58,40.33l-5.39-10.13-30.85-58L1770,720.68l-.22,5.85c-6.79-4.64-14.78-14.08-21.55-33l15-57.47-5.4-16.81s-19-7.49-23.71-10.78c-.76-14.1-1.12-29.82-1-47.33,0,0,.28-2.88.89-7.68l26.1,27.66-8.76-99.34h0c6.74-15,15.66-25.27,27.28-22.31l-1.3,28.53-4.09,89.46,30.22-50.35,10.74-17.88c5.24,16.7,8.79,35.27,11,51.92h0l-11,9.8-33.65,30.15v13C1797.74,623.19,1809,639,1815.17,650Z"/><path class="cls-4" d="M1814.31,570.94s5.06,65,.86,79c-6.19-11-17.43-26.79-34.52-35.91v-13l33.65-30.15Z"/><path class="cls-2" d="M1814.25,509.21l-10.74,17.88-.92-.55C1798,508,1777.38,488,1777.38,488l1.3-28.53C1795,463.6,1806.47,484.34,1814.25,509.21Z"/><path class="cls-2" d="M1804.14,692.47l5.39,10.13c-6.5,15.81-14.71,26.93-24.59,28,0,0-6.65,1.74-15.18-4.1l.22-5.85c14.65,5.22,32.61-27.38,32.61-27.38Z"/><path class="cls-5" d="M1773.29,634.5l30.85,58-1.55.83s-18,32.6-32.61,27.38Z"/><path class="cls-6" d="M1803.51,527.09l-30.22,50.35,4.09-89.46s20.58,20,25.21,38.56Z"/><path class="cls-7" d="M1757.86,619.24l5.4,16.81-15,57.47c-6.52-18.19-11.92-45.16-14.06-85.06C1738.84,611.75,1757.86,619.24,1757.86,619.24Z"/><path class="cls-8" d="M1751.41,481.77l8.76,99.34-26.1-27.66c1.9-15,7.09-48.86,17.33-71.69Z"/><path class="cls-1" d="M1718.54,302.9c10.25,21.38,36,81.19,14.61,102.56-26.25,26.22-40.84,229-40.84,229l-395.62,27.77A371.33,371.33,0,0,0,1310,596.13s129.32-16.38,233.1-30c1.81-23.59,2.5-49.85,2.5-76.11,0-82.38-6.73-164.75-6.73-164.75L1511.68,261c4.39.59,8.59,1.19,12.44,1.78,13.18,2,22.44,3.83,22.44,3.83,80.2,23.91,109.51,0,109.51,0l58.61,28.53S1716.21,298.05,1718.54,302.9Zm0,54.75V343.77h-47.81l-5.4,18.94L1677,361.6h0s6.09,19.18,21.51,12.24,11.57-15.39,11.57-15.39Z"/><polygon points="1718.53 343.77 1718.53 357.65 1710.05 358.46 1676.97 361.6 1665.32 362.71 1670.72 343.77 1718.53 343.77"/><path d="M1710.05,358.46s3.85,8.44-11.57,15.39S1677,361.61,1677,361.61h0Z"/><path class="cls-9" d="M1683.83,236.57l10,12.34-37.78,17.74s-63.13-106.59-63.3-106.7A567.18,567.18,0,0,1,1683.83,236.57Z"/><path d="M1635.41,757.08l3.85,24.21-23.68-33.09a84.83,84.83,0,0,0,12,8.92Z"/><path d="M1592.41,715.81l23.17,32.39a96.15,96.15,0,0,1-23.29-32.34Z"/><polygon points="1497.07 355.15 1480.62 356.11 1474.84 339.14 1529.59 339.14 1529.59 353.24 1522.65 353.65 1497.07 355.15"/><path d="M1497.07,355.15l25.58-1.5s-4.63,10.94-13.11,13.26C1502.9,368.73,1498.62,359.32,1497.07,355.15Z"/><path class="cls-2" d="M1524.12,262.82c-3.85-.59-8-1.19-12.44-1.78,0,0-35.53-99.46-69.68-173,7.36,1.49,13.56,2.82,13.56,2.82S1517.18,236.67,1524.12,262.82Z"/><path class="cls-2" d="M1511.68,261c-7.09-.94-14.71-1.82-22.29-2.47l.1-1.1C1450.93,106.24,1420.59,84,1420.59,84c4.34.59,13.53,2.4,21.41,4C1476.15,161.58,1511.68,261,1511.68,261Z"/><path class="cls-9" d="M1489.49,257.47l-.1,1.1c-17.29-1.49-34.4-1.78-44.63,1.14l-.71-.62,26.16-30.23s-10.8-24.68-38.56-28.53-89.46-8.1-89.46-8.1-27,16.58-28.53,36.63l10,20h-56.3s29.3-137.27,70.95-158.09c23.2-11.6,56.93-10.27,82.25-6.83C1420.59,84,1450.93,106.24,1489.49,257.47Z"/><path d="M1373,269v1.55l-39.33,32.39-26.22-5.4-9.25-15.43,25.45-33.16-10-20c1.54-20.05,28.53-36.63,28.53-36.63s61.7,4.24,89.46,8.1,38.56,28.53,38.56,28.53l-26.16,30.23-8.54,9.87Z"/><path d="M1188,371.53c156.55,20.05,88.68,278.4,88.68,278.4L1271.45,669c22.48-103.94-9.46-187.23-9.46-187.23-3.08-33.16-58.61-83.29-95.63-87.14s-40.87,2.31-66.59,21.93C1119.62,385.43,1147.87,366.4,1188,371.53Z"/><path d="M1224.81,769.48a106.61,106.61,0,0,1-17.72,14.92c-13.24,8.81-23,10.51-23,10.51s-171.2,8.48-212.07,0a106,106,0,0,1-15.47-4.46c-17.56-6.58-32.43-17.54-42.7-30.92-9-11.73-14.47-25.32-15.1-39.42v-1.22l140.35,1.22,16.19-20.05s-13.23-192.91,44.45-283.45h0c25.72-19.62,29.58-25.79,66.59-21.93s92.55,54,95.63,87.14c0,0,31.94,83.29,9.46,187.23L1262,703.91C1251.68,735.24,1237.91,755.9,1224.81,769.48ZM1081.46,669.23c3.18,25.59,8.4,45.81,15.11,61.4,12.64,29.41,30.56,42.37,49.92,43.78,24.2,1.77,50.65-14.49,71.9-39.2a182.56,182.56,0,0,0,28-44.28c11-24.68,16.18-51.54,11.75-75.7a522.11,522.11,0,0,0-4.58-54.09c-2.82-20.83-7.35-44.86-14.64-66.74-13.26-39.85-35.63-72.59-73.32-66,0,0-20.87-1.48-42.31,17.24-16.25,14.16-32.83,39.91-40.92,86.67q-.66,3.85-1.25,7.9c-3,20.87-4.45,45.63-3.56,75q.57,18.75,2.44,40.08Q1080.64,662.53,1081.46,669.23Z"/><path class="cls-2" d="M1258.13,615.23c4.43,24.16-.76,51-11.75,75.7l-13.44-18.5h0c14.09-30.86,1.49-102.37,1.49-102.37l19.12-8.91A522.11,522.11,0,0,1,1258.13,615.23Z"/><path class="cls-9" d="M1294.38,68.46c-27.76,10-71.72,167.34-71.72,167.34-28.8-3.58-58.56-6.45-88.88-8.71h.19s-.07-29.11-74.89-39.23-77.91,32.53-77.91,32.53h0c-273.7-4.65-542,25.42-542,25.42q25.59-22.15,48.54-40.54C621.75,97.57,688.23,80.8,688.23,80.8l16.48-5.29h0C1051.26,40.15,1294.38,68.46,1294.38,68.46Z"/><path class="cls-3" d="M1166.87,603.11l35.74,27.54,30.33,41.77h0l13.44,18.5a182.56,182.56,0,0,1-28,44.28L1212,719.7l-26.33-63.6-31-14.63c.42,1.21,6.28,40.08,6.28,40.08l-11.37,72.93-3.11,19.93c-19.36-1.41-37.28-14.37-49.92-43.78l6.5-12.46h0l25.51-48.95V626.79c-51.18-17.69-51-11.54-51-11.54h0c-.89-29.37.52-54.13,3.56-75l47.47,37.19s5.39-57.07,5.39-64.78-10.69-67-10.69-67c21.44-18.72,42.31-17.24,42.31-17.24v88.07l-11.6,56.3L1198.75,535l23.91-24.18,16.25-16.44c7.29,21.88,11.82,45.91,14.64,66.74l-19.12,8.91c-25,11.64-65.49,30.6-66,31h0Zm-12.19,38.35s0,0,0,0Z"/><path class="cls-2" d="M1238.91,494.4l-16.25,16.44c-10.8-47.51-57.07-65.16-57.07-65.16V428.44C1203.28,421.81,1225.65,454.55,1238.91,494.4Z"/><path class="cls-10" d="M1168.45,601.07c.49-.42,41-19.38,66-31,0,0,12.6,71.51-1.49,102.37l-30.33-41.77-35.74-27.54,1.56-2Z"/><path d="M1224.81,769.48,1206,798.68l1.11-14.28A106.61,106.61,0,0,0,1224.81,769.48Z"/><path class="cls-11" d="M1222.66,510.84,1198.75,535,1154,572.81l11.6-56.3V445.68S1211.86,463.33,1222.66,510.84Z"/><path class="cls-2" d="M1212,719.7l6.42,15.51c-21.25,24.71-47.7,41-71.9,39.2l3.11-19.93c20.25,14.3,61.39-34.37,61.39-34.37Z"/><path class="cls-12" d="M1185.64,656.1,1212,719.7l-1,.41s-41.14,48.67-61.39,34.37L1161,681.55s-5.86-38.87-6.28-40.08Z"/><path class="cls-3" d="M1159.08,36.59l.05,1.06q-13.53.59-27.47,1.5l-5.37,0h0L1149.62.26Z"/><path class="cls-13" d="M1149.62.26l-23.33,38.9h0c-20.3.06-95.25.54-175.64,3.79L981.17,1.52Z"/><path d="M1134,227.1h-.33q-13-1-26.21-1.8c-.35-1.3-1.86-4.8-8.3-10.56-8.36-7.48-45.33-8.36-63.81-11s-27.73,15.85-27.73,15.85l0,1.4-10.11-.24h0q-8.13-.18-16.27-.31h0s3.09-42.65,77.91-32.53S1134,227.1,1134,227.1Z"/><path class="cls-14" d="M1133.64,227.08l-26.1-1.21h0a2.77,2.77,0,0,0-.11-.58Q1120.6,226.11,1133.64,227.08Z"/><path class="cls-15" d="M1134,512.66c0,7.71-5.39,64.78-5.39,64.78l-47.47-37.19q.59-4.05,1.25-7.9c8.09-46.76,24.67-72.51,40.92-86.67C1123.28,445.68,1134,505,1134,512.66Z"/><path class="cls-16" d="M1128.58,626.79v42.42l-25.51,48.95-21.61-48.93q-.82-6.71-1.47-13.9-1.9-21.36-2.44-40.08h0S1077.4,609.1,1128.58,626.79Z"/><path class="cls-17" d="M1107.54,225.86l-110.09-5.14,10.11.24c33.5.85,67,2.25,99.87,4.32A2.77,2.77,0,0,1,1107.54,225.86Z"/><path class="cls-18" d="M1099.13,214.72c6.44,5.76,7.95,9.26,8.3,10.56-32.92-2.07-66.37-3.47-99.87-4.32l0-1.4s9.24-18.49,27.73-15.85S1090.77,207.24,1099.13,214.72Z"/><path class="cls-2" d="M1103.07,718.16h0l-6.5,12.46c-6.71-15.59-11.93-35.81-15.11-61.4Z"/><path class="cls-19" d="M1046.06,346l8.48,12.4-47,70s-197.42,10.18-198.19,14-118.77-64.13-118.77-64.13Z"/><path d="M955.86,792.32,966,829.74l-53.5-69.11,1.41-1.1c10.27,13.38,25.14,24.34,42.7,30.92Z"/><path class="cls-20" d="M927.74,540.42s40.43,86.37,38.12,92.54S942,677.69,942,677.69L784.63,687,667.41,633s41.64-67.86,60.15-78.66S927.74,540.42,927.74,540.42Z"/><polygon points="735.27 459.87 716.66 487.16 715.61 486.44 547.88 486.44 244.03 486.44 127.5 486.44 113.71 450.96 735.27 459.87"/><path class="cls-19" d="M735.27,459.87,113.71,451c0-1.84,19.58-14.93,40.09-28.15H686.69l1.52-1.84Z"/><polygon class="cls-19" points="716.66 487.16 696.87 516.19 547.88 516.19 547.88 486.44 715.61 486.44 716.66 487.16"/><polygon points="696.87 516.19 672.98 551.22 547.88 551.22 547.88 516.19 696.87 516.19"/><path d="M688.21,421l-1.52,1.84H153.8c22.57-14.54,46.27-29.23,46.27-29.23h455Z"/><path class="cls-19" d="M547.88,561.13v-9.91H673L643.54,594.4l-475-2.31L152.82,551.6l1-.38h89.92a95.18,95.18,0,0,0,.31,9.91C244.8,562.78,547.88,560.25,547.88,561.13Z"/><polygon points="643.54 594.4 630.39 613.68 176.94 613.68 168.55 592.09 643.54 594.4"/><path class="cls-21" d="M547.88,551.22v9.91c0-.88-303.08,1.65-303.85,0a95.18,95.18,0,0,1-.31-9.91c-.07-8.89,0-22.4.06-34.79.1-15.92.25-30,.25-30H547.88v64.78Z"/><path d="M389.78,230.6s60.85-31.15,97.9-25.31q-22.95,18.45-48.54,40.54s-14.48,2.81-37.64,7.71Z"/><path d="M355.14,751.62a197.15,197.15,0,0,1-28.85,23.17c-74.25,48.58-154.44,22-202.18-13.21h0c-14.94-11-26.7-22.89-34.11-33.56-.08-.11-.15-.23-.24-.34L89,726.53a50.33,50.33,0,0,1-7.08-14.77l304.8,2.66A258.23,258.23,0,0,1,355.14,751.62Z"/><path d="M355.14,751.62l-28.79,46.54-.06-23.37A197.15,197.15,0,0,0,355.14,751.62Z"/><path class="cls-19" d="M127.5,486.44H244s-.15,14.07-.25,30H139.15Z"/><path d="M243.69,516.43h.09c-.08,12.39-.13,25.9-.06,34.79H153.8l-1,.38-13.67-35.17Z"/><path class="cls-19" d="M185.42,387l-85.6,50.89L42,433.41c17.48-76,43.16-81.16,43.16-81.16Z"/><polygon class="cls-20" points="113.71 544.28 149.94 614.22 81.31 662.27 31.18 662.27 18.07 633.73 13.45 544.28 28.87 526.54 113.71 544.28"/><path d="M124.11,761.58l3.39,22.27L90,728c7.41,10.67,19.17,22.54,34.11,33.56Z"/><path d="M89,726.53l.76,1.14Z"/><path d="M271.92,505.89a3.7,3.7,0,0,1,2.84-1,4.87,4.87,0,0,1,3.6,1.31,8.07,8.07,0,0,1,1.92,3.26,20.58,20.58,0,0,1,.54,5.49q0,2.37-.69,13-.31,4.6-.31,7.9a6.61,6.61,0,0,0,.23,2.53c.15.16.56.23,1.23.23a46.61,46.61,0,0,0,5.6-.61,49.66,49.66,0,0,1,5.52-.69,4.16,4.16,0,0,1,2.3.69,3.81,3.81,0,0,1,1.92,3.38,4.5,4.5,0,0,1-3.14,4.37,48,48,0,0,1-8.37,1.76,45,45,0,0,1-6.13.62q-4.46,0-6.68-2.92a6.3,6.3,0,0,1-1.27-2.91c-.12-1-.19-3.51-.19-7.6q0-7.9.62-14.65c.25-2.46.38-4.1.38-4.91a12.57,12.57,0,0,0-.61-3.69,8.25,8.25,0,0,1-.54-2.68A4.78,4.78,0,0,1,271.92,505.89Z"/><path d="M329.84,513.72a9.14,9.14,0,0,1,4.3-.92,18.85,18.85,0,0,1,8.36,2.07,38.44,38.44,0,0,1,7,4.56,27.43,27.43,0,0,1,5.29,5.26,14.32,14.32,0,0,1,2.3,8.36,14.75,14.75,0,0,1-2.45,8.6,29.46,29.46,0,0,1-5.84,5.44,54.3,54.3,0,0,1-8.2,5.22q-3.91,2-6,2c-.26,0-1-.06-2.07-.16q-7.51-.54-12.74-7.36c-2.2-2.87-3.3-5.55-3.3-8.06a29.48,29.48,0,0,1,1-6.67,31.28,31.28,0,0,1,2.76-8.06,33.92,33.92,0,0,1,4.61-5.91A22.8,22.8,0,0,1,329.84,513.72Zm9.59,9.74a8.42,8.42,0,0,0-3.91-1,5.24,5.24,0,0,0-4,1.62q-6.13,6.75-6.14,12.12a9.07,9.07,0,0,0,2.69,6.37,9.33,9.33,0,0,0,2.22,1.88,5.73,5.73,0,0,0,2.46.42q4.29,0,11.35-5.53a14.31,14.31,0,0,0,3.07-3,5,5,0,0,0,.85-2.87,7.86,7.86,0,0,0-.16-1.77c-.2-1.07-1.18-2.47-2.95-4.18A22.86,22.86,0,0,0,339.43,523.46Z"/><path d="M386.16,503.67a7.93,7.93,0,0,1,4.07-1.61,8.75,8.75,0,0,1,1.3.07,15.77,15.77,0,0,1,8.13,4.07A3.64,3.64,0,0,1,401,509a4.31,4.31,0,0,1-1.46,3.22,4.1,4.1,0,0,1-2.92,1.38,5.43,5.43,0,0,1-2.68-.84,5.08,5.08,0,0,0-2.61-.85,2.14,2.14,0,0,0-2.07,1.54,7,7,0,0,0-.54,2.22q0,1.47,2.61,4.84a39.28,39.28,0,0,1,4.95,7.9,22.61,22.61,0,0,1,1.65,7.67c0,.26,0,.59,0,1s0,.72,0,.92a13.26,13.26,0,0,1-1,5.45,14.54,14.54,0,0,1-3.5,4.37,13.18,13.18,0,0,1-6.75,2.84c-2.15.36-3.42.54-3.83.54a5,5,0,0,1-2.46-.69q-3.53-1.92-3.53-4.69a5.07,5.07,0,0,1,1.15-3,3.65,3.65,0,0,1,1.31-1.19,5.91,5.91,0,0,1,2.07-.26l.77,0c.35,0,.66,0,.92,0h1.22a7.63,7.63,0,0,0,2.46-.27,3.07,3.07,0,0,0,1.3-1.11,4.49,4.49,0,0,0,.92-2.91q0-4.85-6.29-12.74-3.52-4.46-3.53-8.29a15,15,0,0,1,.46-3.53A14.73,14.73,0,0,1,386.16,503.67Z"/><path d="M439.56,498.91a21.94,21.94,0,0,1,4.14-.61,4.49,4.49,0,0,1,3.3,1.22,3.89,3.89,0,0,1,1.3,2.92,4.57,4.57,0,0,1-.88,2.65A5.25,5.25,0,0,1,445,507a54.09,54.09,0,0,1-7.21,1.68l-5.52,1-.77,3.22a26.61,26.61,0,0,0-.69,4.76c0,1.13.33,1.69,1,1.69.25,0,1.79-.33,4.6-1a32.56,32.56,0,0,1,5.45-1,.81.81,0,0,1,.46.08,4.07,4.07,0,0,1,3.07,4.22,4.23,4.23,0,0,1-1.69,3.57q-1.69,1.26-6.75,2.57c-2.71.72-4.52,1.25-5.41,1.61s-1.34.77-1.34,1.23a1.67,1.67,0,0,0,.38.92c.36.56,1.36.84,3,.84,1.08,0,2,0,2.69-.08l1.38,0c.56,0,.95,0,1.15,0a7.72,7.72,0,0,1,2.42.27,5.2,5.2,0,0,1,3,4.49,4.33,4.33,0,0,1-1.08,2.83,3.24,3.24,0,0,1-1.84,1.19,29.49,29.49,0,0,1-4.37.66c-1.54.15-2.87.23-4,.23a10.76,10.76,0,0,1-8.29-3.23q-3.84-3.92-3.83-11.74a69,69,0,0,1,.92-10.2,36.53,36.53,0,0,0,.61-5.37,3.41,3.41,0,0,0-.61-2.07,4.51,4.51,0,0,1-.85-2.76,4.15,4.15,0,0,1,1-2.92c.77-.87,3.43-1.76,8-2.69Q433.73,500.14,439.56,498.91Z"/><path d="M472.2,510.53a10.47,10.47,0,0,1,4.11-2.41,13.14,13.14,0,0,1,3.3-.54,17.7,17.7,0,0,1,4.91.92,12.32,12.32,0,0,1,6.79,4.68,12.69,12.69,0,0,1,2.49,7.6,11.62,11.62,0,0,1-3.91,8.9c-1.08,1.07-1.61,1.71-1.61,1.91s1.08.9,3.26,1.92,4.56,2,7.17,3a14.9,14.9,0,0,1,5,2.92,4.93,4.93,0,0,1,1.76,3.53,4.61,4.61,0,0,1-1.53,3.3,3.48,3.48,0,0,1-2.38,1.23q-1.77,0-10.82-3.76-8.28-3.45-9-3.46c-.25,0-.38.29-.38.85a11.51,11.51,0,0,0,.31,2.3,14.12,14.12,0,0,1,.23,2.38,4.35,4.35,0,0,1-3.38,4.6,5.57,5.57,0,0,1-1.53.23c-1.69,0-3.06-1.17-4.11-3.53s-2.16-6.57-3.33-12.66a66.19,66.19,0,0,1-1.23-12.58q0-5.37,1-7.67A11.07,11.07,0,0,1,472.2,510.53Zm11.09,8.1a4.16,4.16,0,0,0-3.07-1.23c-.82,0-1.33.21-1.53.61a2.78,2.78,0,0,0-.16,1.16,27.4,27.4,0,0,0,.35,4c.23,1.54.44,2.31.65,2.31a5.72,5.72,0,0,0,2.07-1.15,9.42,9.42,0,0,0,2.15-1.92,3,3,0,0,0,.77-1.69A3.36,3.36,0,0,0,483.29,518.63Z"/><path d="M995.77,9.92c.48,0,1.34-.09,2.57-.25s2.55-.35,3.95-.57,2.26-.35,2.57-.37a32.83,32.83,0,0,1,3.53-.34h.43a2.62,2.62,0,0,1,2,.66,2.07,2.07,0,0,1,.25,2.84,2,2,0,0,1-1.25.73q-.18,0-1.68.15c-1,.07-2,.16-2.86.27a4.27,4.27,0,0,0-1.5.31c-.19.19-.18.53,0,1a32.75,32.75,0,0,1,.36,5.22,39.59,39.59,0,0,0,.78,8,2.64,2.64,0,0,1,.08.64,1.64,1.64,0,0,1-.57,1.09,2.12,2.12,0,0,1-3.24,0,2.6,2.6,0,0,1-.68-1,13.19,13.19,0,0,1-.33-2.05c-.13-1.19-.21-2.86-.24-5V19.58a22.42,22.42,0,0,0-.3-4.13L999.31,14l-2,0a9.46,9.46,0,0,1-1.82-.09,1.79,1.79,0,0,1-.89-.56,1.82,1.82,0,0,1-.7-1.33,2.14,2.14,0,0,1,.61-1.45A1.78,1.78,0,0,1,995.77,9.92Z"/><path d="M1042.64,22a36.57,36.57,0,0,0,.73,3.62,32.23,32.23,0,0,1,.73,3.67,1.87,1.87,0,0,1-2,2c-1.2,0-2-1-2.45-3a5.48,5.48,0,0,0-.65-2,2.51,2.51,0,0,0-1.64-.32l-.69,0-.86,0a8.6,8.6,0,0,0-3.18.4,5,5,0,0,0-1.18,2.35,7.84,7.84,0,0,1-1.27,2.45,2.14,2.14,0,0,1-1.5,1,2.25,2.25,0,0,1-1.43-.58,1.64,1.64,0,0,1-.71-1.23,8.76,8.76,0,0,1,.6-2.4,20.23,20.23,0,0,1,1.24-3,4.1,4.1,0,0,0,.56-1.59,2.91,2.91,0,0,1,.73-1.45,11.66,11.66,0,0,0,1.53-2.28,38.25,38.25,0,0,1,2.43-3.63,22.46,22.46,0,0,0,2.27-3.38,3.74,3.74,0,0,1,1-1.42,2.66,2.66,0,0,1,1.26-.3,2.62,2.62,0,0,1,1.52.38,3.73,3.73,0,0,1,1.17,1.89,28.59,28.59,0,0,1,1.1,4.35A29.88,29.88,0,0,1,1042.64,22Zm-4.52-1.82a4.79,4.79,0,0,0-.42-1.79h0c-.19,0-.65.47-1.37,1.42a5.08,5.08,0,0,0-1.08,1.77c0,.15.52.21,1.55.2l1.55,0Z"/><path d="M1069.59,14.49c1.26-1.19,2.16-2,2.71-2.42a2.44,2.44,0,0,1,1.39-.65,1.9,1.9,0,0,1,1.2.53,1.88,1.88,0,0,1,.74,1.53A2.5,2.5,0,0,1,1075,15c-.44.54-1.62,1.79-3.54,3.73-2.82,2.85-4.23,4.41-4.23,4.7a9.88,9.88,0,0,0,1.44,2.46q1.42,2.11,2.67,3.64a4.13,4.13,0,0,1,1.18,2.19,2,2,0,0,1-.53,1.26,1.84,1.84,0,0,1-1.57.74,2.36,2.36,0,0,1-1.45-.48,20.91,20.91,0,0,1-2.78-3.43,22.75,22.75,0,0,0-2.23-2.89c-.12,0-.31.22-.56.64a2.13,2.13,0,0,0-.39.92,1.56,1.56,0,0,1-.56,1.05,2.17,2.17,0,0,1-1.58.71,1.93,1.93,0,0,1-1.93-1.6.28.28,0,0,0,0-.11s0-.08,0-.11a6,6,0,0,1,.72-2.29,12.79,12.79,0,0,1,1.64-2.63,2.12,2.12,0,0,0,.52-1.12,17,17,0,0,0-1.77-4.12,10.07,10.07,0,0,1-1.38-3.3,2,2,0,0,1,.69-1.3,2,2,0,0,1,1.31-.7,2.06,2.06,0,0,1,1.55.77,12.34,12.34,0,0,1,1.69,2.65c.76,1.52,1.33,2.28,1.68,2.28q.26,0,.54-.51A39.81,39.81,0,0,1,1069.59,14.49Z"/><path d="M1092.82,15a4.12,4.12,0,0,1,1-.19,1.7,1.7,0,0,1,1.77,1.09,2.69,2.69,0,0,1,.2.94,16.46,16.46,0,0,1-.3,2.23,44,44,0,0,0-.61,6.1c-.08,1.72-.15,2.81-.23,3.26a2.26,2.26,0,0,1-.55,1.14,2.17,2.17,0,0,1-1.64.7,1.89,1.89,0,0,1-1.41-.52,1.52,1.52,0,0,1-.46-.86,12.35,12.35,0,0,1-.12-2q0-1.9.33-5.4a26.27,26.27,0,0,1,.67-4.4C1092,15.81,1092.41,15.1,1092.82,15Zm-1.15-8.3a1.84,1.84,0,0,1,1.5-.77,2.17,2.17,0,0,1,1.51.59,2,2,0,0,1,.68,1.51,2,2,0,0,1-.56,1.48,1.91,1.91,0,0,1-1.4.59,2.15,2.15,0,0,1-1.59-.66,1.93,1.93,0,0,1-.66-1.36A2.21,2.21,0,0,1,1091.67,6.7Z"/><path class="cls-1" d="M1816.84,280.52c-37.9,20.22-56.66,0-56.66,0s-41.65,22.38,0,22.38S1854.73,260.31,1816.84,280.52Z"/><path class="cls-1" d="M1951.86,548.13c-7.77,10-55.74,10.42-106.46-19l17.1,25.21s-15.91,26.8,7.19,25.48C1947.7,575.36,1959.63,538.11,1951.86,548.13Z"/><path class="cls-1" d="M1082.36,532.35c-28.33,19.5-32.23-.91-32.23-.91l-23-7.37s-11.66,45.12,7.77,48.74S1110.69,512.86,1082.36,532.35Z"/><path class="cls-1" d="M1294.38,130.92c-16.62-20.19-14.91,39.81-14.91,39.81,50.74-7.55,88.56-39.81,88.56-39.81S1311,151.12,1294.38,130.92Z"/><path d="M1348.13,488s-3.37,2.36-8.76,6C1346.78,490.6,1348.13,488,1348.13,488Z"/><path d="M1267.39,532.71c14.08-.81,54.13-26.74,72-38.74-10.37,4.7-32.62,10.86-79.66,13.29C1259.71,507.26,1249.05,533.76,1267.39,532.71Z"/><path d="M761.36,496.06s-3.37,2.36-8.77,6C760,498.69,761.36,496.06,761.36,496.06Z"/><path d="M680.62,540.79c14.08-.81,54.13-26.74,72-38.74-10.37,4.71-32.61,10.86-79.65,13.29C672.94,515.34,662.28,541.84,680.62,540.79Z"/><path d="M1454,253.47c14.08-.81,54.13-26.75,72-38.75-10.37,4.71-32.61,10.86-79.65,13.3C1446.28,228,1435.62,254.52,1454,253.47Z"/><path d="M1534.7,208.74s-3.37,2.35-8.77,6C1533.34,211.36,1534.7,208.74,1534.7,208.74Z"/><path d="M1195.34,181.08s-3.36,2.35-8.76,6C1194,183.7,1195.34,181.08,1195.34,181.08Z"/><path d="M1114.6,225.81c14.08-.81,54.14-26.75,72-38.75-10.37,4.71-32.61,10.86-79.65,13.3C1106.93,200.36,1096.26,226.86,1114.6,225.81Z"/><path class="cls-9" d="M1331.81,90.82s-3.37,2.36-8.77,6C1330.45,93.45,1331.81,90.82,1331.81,90.82Z"/><path class="cls-9" d="M1243.39,110.1s-10.66,26.5,7.67,25.45c14.09-.81,54.14-26.74,72-38.74C1312.67,101.51,1290.43,107.67,1243.39,110.1Z"/><path d="M1857.41,498.2c-11.68,1.6-35.33,0-35.33,0s-15.55,14.94,7.75,14.41S1883.36,488,1883.36,488,1869.08,496.61,1857.41,498.2Z"/></svg>