<svg id="Layer_1" data-name="Layer 1" xmlns="http://www.w3.org/2000/svg" width="420" height="655" viewBox="0 0 420 655"><defs><style>.cls-1{fill:none;}.cls-2{fill:#c7ae69;}.cls-3{fill:#95834f;}.cls-4{fill:#e7c290;}.cls-5{fill:#eccea6;}.cls-6{fill:#f1dabc;}.cls-7{fill:#b19b7d;}.cls-8{fill:#645735;}.cls-9{fill:#e8a27b;}.cls-10{fill:#faece5;}.cls-11{fill:#ace1ec;}.cls-12,.cls-15{fill:#fff;}.cls-13{fill:#ccc;}.cls-14{fill:#fdb829;}.cls-15,.cls-17{isolation:isolate;}.cls-15{opacity:0.4;}.cls-16{fill:#ffd955;}.cls-17{fill:#b3b3b3;opacity:0.3;}.cls-18{fill:#f5e7d3;}</style></defs><path class="cls-1" d="M83.27,511c0-1.83,1.83-3.59,5.08-5.11h0C85.1,507.36,83.23,509.11,83.27,511Z"/><path class="cls-1" d="M87.43,499.4c-1.73.39-3.39.8-5,1.25h0c1.56-.44,3.22-.86,5-1.25Z"/><path class="cls-1" d="M307,193.51c2.13-.75,4.3-1.39,6.49-2a1.5,1.5,0,0,0,.43-2.35l-9.83-10.83a1.57,1.57,0,0,0-.93-.49l-12.84-1.76C291.86,177.05,305.15,185.18,307,193.51Z"/><path class="cls-2" d="M108.08,242.22l1.77-.78a1.49,1.49,0,0,1,1.17,0l.92-33-11.78-14.21-1.33-17.09c-.63-1.2-1.22-2.37-1.78-3.52-2.37,6.49-5.81,11.06-7.88,11.4-3.21.53-4.87-3.19-5.54-5.29a4.83,4.83,0,0,1-.18-.84,3.76,3.76,0,0,1-3.67,1.64c-10.51-.87-14.45-19.27-14.45-19.27S75,175.75,75,166.55s-21-33.71-16.21-47.74,24.72-42,24.72-42,11.8-6.16,8.66-23.68,12-22.24,36.71-16.21l1.08.27c-2.15-7.92-4.47-18.16-4.59-25.79-21.27,5.43-32.08,15-32.08,15L88.77,53.84s-6.71,3.73-17.9,8.95C61.21,67.3,59.33,84,59,88.52c.2-4.61,0-21-14.24-4.84-16.42,18.65,0,41,0,41s-13.85-6-7.3,15.67a212.89,212.89,0,0,1,8,39.53l-9.8,8.21s-8.3,15.67,0,23.13,18.4,14.61,18.4,14.61,15.27,22.69-1.88,21.19-6,13.88,10.05,7.69-7.07,18.42-7.07,18.42-5.9,14.69,14.58,8.1,36.8-5.86,31.25-23.76c-1.7-5.49,1.64-4.92,7.07-1.52l-.93-12.24A1.52,1.52,0,0,1,108.08,242.22Z"/><path class="cls-3" d="M220.8,203.32a42.12,42.12,0,0,1-1.6,7.12c4.72,3.69,11.84,6.82,18.1-.4,8.09-9.34-5.93-18.19-12.74-21.74l-2.3,11.47Z"/><path class="cls-3" d="M242.94,165.7,247.78,198s22.57,21.77-4,21c-13.45-.41-21.74-2-26.24-4.51a13.61,13.61,0,0,1-2.74,3.52l-6.87,16.65L197.28,242l-10.52,5-10.36-3-.82,7.88,13.56,8.41a1.48,1.48,0,0,0,.51-.05L215.5,252,237.65,244a1.48,1.48,0,0,0,.64-.43l30.16-34a21,21,0,0,1,9.07-6l24.64-8.19c1.59-.66,3.19-1.29,4.82-1.87-1.83-8.33-15.12-16.46-16.68-17.39h0a1.58,1.58,0,0,1-.95-.5l-10.87-12.23a1.53,1.53,0,0,1-.38-.85c-10.32-6.28-20.67-12.73-29.89-18.55C242.53,156.2,242.94,165.7,242.94,165.7Z"/><polygon class="cls-4" points="374.41 142.89 368.25 140.53 379.62 145.46 374.41 142.89"/><path class="cls-4" d="M258.26,128.61a65.63,65.63,0,0,0-10,15.38c9.22,5.82,19.57,12.27,29.89,18.55a1.52,1.52,0,0,1,.15-.86l23.17-46.82-20.93-8-19.42-7.46C266.06,107.85,266.8,118.79,258.26,128.61Z"/><path class="cls-4" d="M281.51,334.58l.73-1.12-.63.78S281.57,334.37,281.51,334.58Z"/><path class="cls-4" d="M415.12,166.33l2.27,2.69a1.53,1.53,0,0,1,0,2l-31.21,37.26C404.65,187,418.65,170,418.65,170S417.28,168.44,415.12,166.33Z"/><path class="cls-4" d="M302.16,195.38l11.09-3.68c.09,0,.14-.1.22-.15-2.19.57-4.36,1.21-6.49,2C305.35,194.09,303.75,194.72,302.16,195.38Z"/><rect class="cls-5" x="34.23" y="537.87" height="0.85"/><path class="cls-5" d="M23.24,547.82a130.19,130.19,0,0,1,10.81-9l0-.92c-9.81,3.44-18.05,7.57-20.89,12.23a1.56,1.56,0,0,1-.74.61c1.61,11.83,3.26,22.74,4.85,31.33,0-.29,0-.57,0-.86Z"/><path class="cls-5" d="M18.24,587.27c1.52,7.38,3,12.21,4.18,13.08,2.15,1.55,8.17,1.39,15.48.43-2.87-.7-5.76-1.52-8.63-2.49A17.78,17.78,0,0,1,18.24,587.27Z"/><path class="cls-5" d="M4.6,446.07l4.61-12.56C7.58,437.83,5.94,442.27,4.6,446.07Z"/><path class="cls-4" d="M176.4,243.94l-33.54-9.8-14.39-5.71-16.53-20-.92,33a1.86,1.86,0,0,1,.31.1L146,264.68a1.51,1.51,0,0,1,.53.62L155.88,285a1.54,1.54,0,0,0,2.84-.15l7-19.89a1.66,1.66,0,0,1,.2-.4L174.33,253a1.54,1.54,0,0,1,2.06-.4l12,7.43a1.49,1.49,0,0,0,.77.21l-13.56-8.41Z"/><path class="cls-4" d="M107.49,636.87l.43,0a1.62,1.62,0,0,1-.44-.27Z"/><path class="cls-4" d="M248.66,654.69l1,.12.38-1.19A1.17,1.17,0,0,1,248.66,654.69Z"/><path d="M88.35,505.84a38.66,38.66,0,0,1,6.32-2.21,38.66,38.66,0,0,0-6.32,2.21Z"/><path d="M95,517.72a83.78,83.78,0,0,0,13.11,1.56A84.88,84.88,0,0,1,95,517.69Z"/><path d="M87.43,499.4h0c2.25-.51,4.59-1,7.1-1.39h0l1.77-.26-1.77.26h0C92,498.41,89.68,498.89,87.43,499.4Z"/><path d="M115,449.74c20.46-.54,38.14,2.48,45.95,7.24-7.81-4.76-25.49-7.78-45.95-7.25a153.92,153.92,0,0,0-26.84,2.9h0A154.89,154.89,0,0,1,115,449.74Z"/><path d="M85.73,482.26c-.25,0-.48.07-.73.1a9,9,0,0,1,.91-.09Z"/><path d="M417.39,169l-2.27-2.69L408.05,158a1.57,1.57,0,0,0-.57-.42l-27.86-12.09-11.37-4.93-33.84-14.69a1.51,1.51,0,0,1-.84-.91l-2-5.64a1.52,1.52,0,0,0-1.45-1h-7.49a1.54,1.54,0,0,1-1.54-1.54v-4.33a1.56,1.56,0,0,0-.33-1L318.9,109a1.54,1.54,0,0,0-2.38-.07l-1.89,2.16a1.54,1.54,0,0,1-1.65.45l-3.37-1.14a1.57,1.57,0,0,1-1-1l-.65-1.92a1.54,1.54,0,0,0-2.84-.18l-3.73,7.53-23.17,46.82a1.52,1.52,0,0,0-.15.86,1.53,1.53,0,0,0,.38.85l10.87,12.23a1.58,1.58,0,0,0,.95.5h0l12.84,1.76a1.57,1.57,0,0,1,.93.49l9.83,10.83,7.82,10.93,23.65,14.81,6.35,1.62s-18.55-3.11-30-14.94L313.9,189.2a1.5,1.5,0,0,1-.43,2.35c-.08,0-.13.12-.22.15l-11.09,3.68-24.64,8.19a21,21,0,0,0-9.07,6l-30.16,34a1.48,1.48,0,0,1-.64.43L215.5,252l-25.85,8.2-3.76,5.25-1.95,8.27.69-7.61,5-5.91a1.81,1.81,0,0,1-1.28-.16l-12-7.43a1.54,1.54,0,0,0-2.06.4l-8.42,11.56a1.66,1.66,0,0,0-.2.4l-7,19.89,4.43,94,7.2,49.55L200.4,556.54,248,654.67a5.71,5.71,0,0,1,.7,0,1.17,1.17,0,0,0,1.36-1.07h0l28.29-89.14c.09-.28-19-146.94-18.93-147.22,0,0,20.58-77,22.13-82.68.06-.21.09-.33.1-.34l.63-.78,27.17-33.55,76.76-91.63L417.38,171A1.53,1.53,0,0,0,417.39,169ZM315.06,111.78S305,152.21,294.25,164C294.25,164,305.73,144.42,315.06,111.78Zm-35.55,50.74s14.68-17.34,29.48-47.89C309,114.63,292.11,152.72,279.51,162.52Zm9.88,10.9S306.25,158.2,325,129.9C325,129.9,303.19,165.39,289.39,173.42Zm16.26,3.49s14.23-17.71,28.23-48.64C333.88,128.27,318,166.79,305.65,176.91ZM179.44,278.65l-9.38-9.1h-2.92l2.92-1.55,11.11,10.56,1,10.74Z"/><path d="M73.58,472.36c8.12,3.31,21.68,5.42,37.3,5.44C95.26,477.78,81.7,475.67,73.58,472.36Z"/><path d="M41.55,504l24.91-.64v0L41.55,504a8.22,8.22,0,0,0-7.8,6.54h0A8.21,8.21,0,0,1,41.55,504Z"/><polygon points="34.1 533.38 34.22 537.87 34.22 537.87 34.1 533.38"/><path d="M65.69,466.07a10.3,10.3,0,0,0-.14,1.84v0a9.66,9.66,0,0,1,.15-1.86Z"/><path d="M33.6,512h0c0,.13,0,.24,0,.37l.18,7.36-.18-7.35A2.43,2.43,0,0,1,33.6,512Z"/><path d="M87.23,452.84h0C74,455.68,65.4,460.17,65.53,465h0C65.41,460.18,74,455.7,87.23,452.84Z"/><path d="M50.16,520.05h0l.14,5.39a45.49,45.49,0,0,1,11.29-11.39l-5.89.15A5.7,5.7,0,0,0,50.16,520.05Z"/><polygon points="50.11 525.59 50.11 525.74 50.11 525.74 50.11 525.59"/><path d="M66.69,510.59l0-1.34h.48c1.34-2.66,5.28-5.16,11.08-7.24l.19,7.42h0L78.23,502c1.32-.48,2.76-.92,4.25-1.35h0c-1.5.42-2.94.87-4.26,1.34l-.29-11.51a8.19,8.19,0,0,1,2.37-5.8,8.18,8.18,0,0,0-2.39,5.8l.3,11.51c-5.8,2.08-9.75,4.58-11.09,7.24l-.48,0,0,2h0Z"/><path d="M50.47,528.33l-.1-.4v.45Z"/><path d="M144.65,480.75a6.13,6.13,0,0,0-.73.11,6.82,6.82,0,0,1,.92-.1Z"/><path d="M107.61,498.06l0-1.56-.08-2.91a8.2,8.2,0,0,1,8-8.4h0a8.2,8.2,0,0,0-8,8.4l.08,2.93c-.52,0-1,.08-1.55.13l1.57-.13Z"/><path d="M124.54,518.91c-2.5.24-5.12.39-7.81.46C119.43,519.3,122,519.15,124.54,518.91Z"/><path d="M137.05,496.82a97.21,97.21,0,0,1,16.49,3,43,43,0,0,1,5.74,2.06v0a42.67,42.67,0,0,0-5.75-2.06h0a97.19,97.19,0,0,0-16.49-3l-.2-7.84a8.19,8.19,0,0,1,2.37-5.8,8.16,8.16,0,0,0-2.39,5.8l.2,7.84c-4.09-.43-8.48-.69-13.07-.78h0C128.56,496.13,133,496.4,137.05,496.82Z"/><path d="M169.6,430.49,162,380.58l-3.26-95.74a1.54,1.54,0,0,1-2.84.15L146.5,265.3a1.51,1.51,0,0,0-.53-.62l-34.64-23.12a1.86,1.86,0,0,0-.31-.1,1.49,1.49,0,0,0-1.17,0l-1.77.78a1.52,1.52,0,0,0-.91,1.52L108.1,256l1.48,19.34a1.53,1.53,0,0,1-.61,1.35l-22.7,16.94a1.47,1.47,0,0,1-.39.21L31.65,313.88l-.09,0-5.47,1.63a1.6,1.6,0,0,0-.65.39l-3.22,3.23a1.54,1.54,0,0,0-.33.47c-9.6,20.94-6.81,80.95-6.12,93.33a11.21,11.21,0,0,1-.65,4.41L9.21,433.51,4.6,446.07l-3,8.24a12,12,0,0,0-.22,1.89l7,66.37A1.55,1.55,0,0,1,8,523.78l-4.64,5H4.78A1.55,1.55,0,0,1,6.19,531l-2.13,4.79a1.55,1.55,0,0,0,1,2.11l1.79.52a1.54,1.54,0,0,1,.29,2.84,1.55,1.55,0,0,0-.71,1.95l1.5,3.67a2,2,0,0,0,.21.37l2.47,3.15a1.49,1.49,0,0,0,1.8.43,1.56,1.56,0,0,0,.74-.61C16,545.51,24.21,541.38,34,537.94l-.11-4.53a123.61,123.61,0,0,0-25.75,7.74s13.29-6.77,25.71-9.24l-.26-10-1.36.17A147.53,147.53,0,0,0,6.86,536.31,148.87,148.87,0,0,1,27.61,522.7,142.52,142.52,0,0,0,4.79,528a144.19,144.19,0,0,1,27-7.3c.6-.28,1.2-.54,1.8-.8l-.2-7.74a142.72,142.72,0,0,0-22.07,9.41,148.69,148.69,0,0,1,22.18-10.88,8.19,8.19,0,0,1,7.87-7h.22L66.25,503l-.9-35.44a8.82,8.82,0,0,1,.14-1.85,4.26,4.26,0,0,1-.17-1.06c-.12-4.85,8.56-9.35,21.85-12.21-.64-4.44-1.46-11.8-2.22-14.06-.2-.42-.33-.65-.34-.66-.2.48-.31.76-.31.76S99,393.55,98.59,379.67c-.13-1.36-.25-2.19-.25-2.19a10.93,10.93,0,0,1,.25,2.19c.43,4.57,1.07,15.51-1.52,24.48-3,10.39-10.81,29.54-12.46,33.54a1.48,1.48,0,0,1,.34.66A33.74,33.74,0,0,1,88.2,452.2a156,156,0,0,1,26.62-2.86c25.45-.65,46.57,4.17,49.8,11a0,0,0,0,0,0,0,4.54,4.54,0,0,1,.62,2.09,4.1,4.1,0,0,1-.14,1.16l-.08.29h0c0-.1.05-.2.08-.29a9.21,9.21,0,0,1,.22,1.74l.66,26.11c4.21,1.69,11.07,5.64,13.74,14.1,2.77,8.78-6.7,20.76-12.68,27.21l1.45,56.57c0,.18,0,.36,0,.54a.8.8,0,0,0,0-.27L167,532.83h0l1.46,56.78a.83.83,0,0,0,0,.27,25.06,25.06,0,0,1,.12,5.61c-.4,5-22,12.16-49.53,12.86-5.63.14-11,0-16.08-.35l4,27.66a1.52,1.52,0,0,0,.51,1,1.84,1.84,0,0,0,.83.39L248,654.67l-48.15-96.54ZM139.78,296.22l-29.73-20.07,28.7,18.17L144.81,268Z"/><path d="M114.51,524.11h.09l2.26,0q4-.12,7.8-.39c-2.54.18-5.14.31-7.8.37Z"/><path d="M168.29,589a5,5,0,0,1,0,.55,24.79,24.79,0,0,1,.09,5.58c-.23,3-7.93,6.7-19.91,9.38,12-2.68,19.7-6.4,19.94-9.39a25.06,25.06,0,0,0-.11-5.61c0-.18,0-.36,0-.54L166.87,533h0Z"/><path d="M137.19,502.37h0a86.09,86.09,0,0,0-13.11-1.46A84.86,84.86,0,0,1,137.19,502.37Z"/><path d="M137.56,516.77h0c7.48-1.89,12.22-4.61,12.15-7.52h0C149.77,512.17,145,514.88,137.56,516.77Z"/><path d="M147.94,594.65c.23,0,.45-.07.68-.1-.28,0-.57.08-.86.09Z"/><path class="cls-5" d="M97.05,173.65c.56,1.15,1.15,2.32,1.78,3.52l-.57-7.4C97.9,171.12,97.5,172.42,97.05,173.65Z"/><path class="cls-5" d="M97.19,156l-.93-12c-.43,1.36-1.66,2.7-4.65,3.26-.59.11-1.12.27-1.66.41C92.25,148.75,95.18,152.44,97.19,156Z"/><path class="cls-5" d="M108.62,178.52l4.22-8L121.52,204l12.68-15.43-2.08-9.29,33.34-12,12,13.07,8.34-7.09,19,17.25c2.62-10.1,3.09-23.25,3.09-23.25s-10-10.3-12.11-22.28a13.13,13.13,0,0,1-6.14-3.21c-3-3.16,1.62-9.45,5.77-10.77a2.87,2.87,0,0,1,1.68-.1l.16,0a41.26,41.26,0,0,1,1.65-3.83c-.68-.51-1.29-1-1.8-1.32a2.81,2.81,0,0,1-1.24-2.15l-1.12-3a2.3,2.3,0,0,1,3.41-2.13l4.35,2.42a54.8,54.8,0,0,1,5.39-6.85l-8.5-33-8.86-17.74-18.21-12.6c-2.44-.66-4.83-1.28-7.12-1.84.46.4-1.12.14-5.55-1.17-7-2.06-33.44,9.33-33.44,9.33s-12,7-16.54,32c-2.7,15-7.42,23.23-10.76,27.38a15.94,15.94,0,0,0-3.51,10.67L96,140.35a5.51,5.51,0,0,1,.32,1Zm75.46-40.9c1.25-3.44,6.78-11.87,11-11.58,0,0-10.24,8.5-9.89,14.74s2.2,12.31,3.88,17.72c2,6.49,3,7.14-3.46,13s-10.9,5.81-10.9,5.81,13.33-9.07,13.13-12.72S182.73,141.38,184.08,137.62Zm-51.21-25c3.19-1,23.32-6.7,30.13-8.6a1.05,1.05,0,0,1,1.22,1.48L161.1,112a6.91,6.91,0,0,1-4.81,3.76l-9.13,1.92c4.67,1,9.63,2.39,12.31,4.13,2.9,1.89,4.92,6,6.23,9.74a6.41,6.41,0,0,1-5.18,8.5c-7.38,1-15.91-4.3-18.13-4.18-2.48.14-12.59,2.1-16.86-.58a6.4,6.4,0,0,1-.63-10.38l8.15-6.64c-5.28-2.42-14.42-7.23-15.69-12.15C117.36,106.09,129,113.92,132.87,112.64Z"/><path class="cls-6" d="M69.06,598.69s0,0,0-.07a.42.42,0,0,1,0-.12,2,2,0,0,1-.3-.85,21.56,21.56,0,0,1-.06-4.25,2.66,2.66,0,0,1,0-.28c-1.77-.15-3.31-.32-4.51-.5-9.58-1.44-6.54-13.83-6.54-13.83l-1.21-3.32-4.6.11-7.52.19a2.81,2.81,0,0,1-.41,0c-.14,0-.28,0-.43,0a8.21,8.21,0,0,1-7.47-4.43l0,0h0v0h0l0,0a8,8,0,0,1-1.08-3.85l-.73-28.56a130.19,130.19,0,0,0-10.81,9l-6,33.43c0,.29,0,.57,0,.86a18,18,0,0,0,12,16.18c2.87,1,5.76,1.79,8.63,2.49a135.78,135.78,0,0,0,40.25,3.05C73.1,602.24,69.85,600.43,69.06,598.69Z"/><path class="cls-6" d="M89,596.15c.23,0,.45-.07.68-.1a6.27,6.27,0,0,1-.86.09A1.09,1.09,0,0,0,89,596.15Z"/><path class="cls-6" d="M95.48,592.46a1.4,1.4,0,0,0,.1-.16h0A1.29,1.29,0,0,0,95.48,592.46Z"/><path class="cls-6" d="M54.69,564.11a49.25,49.25,0,0,1,2.8-8.05l-7-27.73-.09,0,.79,31a5.61,5.61,0,0,0,.53,2.21c.07.13.14.26.22.38A5.63,5.63,0,0,0,54.69,564.11Z"/><path class="cls-6" d="M50.18,528.48,51,558.94a6.3,6.3,0,0,0,.19,1.23,5.81,5.81,0,0,1-.19-1.25Z"/><polygon class="cls-6" points="34.24 538.72 34.24 538.72 34.95 566.4 34.24 538.72"/><path class="cls-6" d="M93.44,523l1.74.23h0C94.58,523.18,94,523.09,93.44,523Z"/><path class="cls-6" d="M108.27,524.09h0c2.07,0,4.19,0,6.33,0h-.09C112.4,524.13,110.31,524.13,108.27,524.09Z"/><path class="cls-5" d="M97.19,156c-2-3.59-4.94-7.28-7.24-8.35a17.94,17.94,0,0,0-8.66,4.93s6.34,20.3,2.16,26.31a4.83,4.83,0,0,0,.18.84c.67,2.1,2.33,5.82,5.54,5.29,2.07-.34,5.51-4.91,7.88-11.4.45-1.23.85-2.53,1.21-3.88Z"/><path class="cls-3" d="M128.84,36.88c-24.74-6-39.86-1.31-36.71,16.21s-8.66,23.68-8.66,23.68-19.9,28-24.72,42S75,157.35,75,166.55s-9.63-5.26-9.63-5.26,3.94,18.4,14.45,19.27a3.76,3.76,0,0,0,3.67-1.64c4.18-6-2.16-26.31-2.16-26.31A17.94,17.94,0,0,1,90,147.68c.54-.14,1.07-.3,1.66-.41,3-.56,4.22-1.9,4.65-3.26L96,140.35l-.56-13.29a15.94,15.94,0,0,1,3.51-10.67C102.26,112.24,107,104,109.68,89c4.5-25,16.54-32,16.54-32s26.44-11.39,33.44-9.33c4.43,1.31,6,1.57,5.55,1.17,2.29.56,4.68,1.18,7.12,1.84l-2.76-1.91L151,46.38s2.42-33.86,33.86-26.61,25.8,35.48,25.8,35.48,14.14,27.51,30.45,29.88c7.68,1.11,15.49,6.7,19.93,14.24l19.42,7.46V94c0-17.16-27.1-33-27.1-33s-8-6.58-5.25-18.53S238,24.69,238,24.69l-23.12-7.57S197.69,2.2,186.5.4s-17.16,8.52-17.16,8.52S141.74-1.53,129.8.71c-3.42.64-4.57,4.9-4.47,10.65.12,7.63,2.44,17.87,4.59,25.79Z"/><path class="cls-3" d="M96,140.35l.32,1A5.51,5.51,0,0,0,96,140.35Z"/><path class="cls-7" d="M220.8,203.32l1.46-3.55,2.3-11.47c-2-1.05-3.39-1.64-3.39-1.64A81.73,81.73,0,0,1,220.8,203.32Z"/><path class="cls-7" d="M142.86,234.14l33.54,9.8,10.36,3,10.52-5,10.62-7.38,6.87-16.65c-2.91,2.61-7.06,3.45-13,1-7.52-3.12-11.86-6.65-14.3-10a53.89,53.89,0,0,1-11.19,3.63c-.94,0-12.8-2.77-18.28-4.09a12.1,12.1,0,0,1-4.91-2.45l-12.09-10s3.13.65,9.56-.53c11.29-2.08,18.81-3.52,19-.64a5.91,5.91,0,0,1,4.89.15,95.61,95.61,0,0,1,10.21,6.52,12,12,0,0,1,1-6l8.06-7.26S187.31,202,197,202c3.71,0,6.18-5.12,7.82-11.42l-19-17.25-8.34,7.09-12-13.07-33.34,12,2.08,9.29L121.52,204l-8.68-33.54-4.22,8L96.29,141.3l-.32-1,.29,3.66.93,12,1.07,13.74.57,7.4,1.33,17.09,11.78,14.21,16.53,20Z"/><path class="cls-8" d="M199.4,81.05l8.5,33.05a54.8,54.8,0,0,0-5.39,6.85l7.28,4a11.42,11.42,0,0,0,3.54,1.25l10.89,1.92a138.25,138.25,0,0,1-13.28,4.49,6.37,6.37,0,0,1,1.53.89c2.66,2.11,7.87,6.57,9.1,10.15a19.33,19.33,0,0,1,.57,2.11c.88,4.22-2.8,3.86-7.06,3.2-2.67-.4-4.59-2.14-6.81-2.39s-7.76-.29-12.48-1.59c2.13,12,12.11,22.28,12.11,22.28s-.47,13.15-3.09,23.25C203.17,196.86,200.7,202,197,202c-9.68,0-3.23-13.71-3.23-13.71l-8.06,7.26a12,12,0,0,0-1,6c2.59,1.87,4.79,3.66,5.42,4.66.51.83-.7,1.79-2.58,2.72,2.44,3.36,6.78,6.89,14.3,10,5.89,2.44,10,1.6,13-1a13.61,13.61,0,0,0,2.74-3.52c4.5,2.46,12.79,4.1,26.24,4.51,26.6.81,4-21,4-21l-4.84-32.25s-.41-9.5,5.27-21.71a65.63,65.63,0,0,1,10-15.38c8.54-9.82,7.8-20.76,2.81-29.24-4.44-7.54-12.25-13.13-19.93-14.24-16.31-2.37-30.45-29.88-30.45-29.88s5.65-28.22-25.8-35.48S151,46.38,151,46.38l18.54,2.42,2.76,1.91,18.21,12.6Zm37.9,129c-6.26,7.22-13.38,4.09-18.1.4a42.12,42.12,0,0,0,1.6-7.12,81.73,81.73,0,0,0,.37-16.66s1.39.59,3.39,1.64C231.37,191.85,245.39,200.7,237.3,210Z"/><path class="cls-8" d="M198.91,127.15a41.26,41.26,0,0,0-1.65,3.83,72.21,72.21,0,0,0,9.37,1.09A45.41,45.41,0,0,1,198.91,127.15Z"/><path d="M174.68,177.29s4.44,0,10.9-5.81S191,165,189,158.5c-1.68-5.41-3.53-11.47-3.88-17.72S195.05,126,195.05,126c-4.19-.29-9.72,8.14-11,11.58-1.35,3.76,3.52,23.31,3.73,26.95S174.68,177.29,174.68,177.29Z"/><path class="cls-9" d="M190.1,206.2c-.63-1-2.83-2.79-5.42-4.66A95.61,95.61,0,0,0,174.47,195a5.91,5.91,0,0,0-4.89-.15c-.16-2.88-7.68-1.44-19,.64-6.43,1.18-9.56.53-9.56.53l12.09,10a12.1,12.1,0,0,0,4.91,2.45c5.48,1.32,17.34,4.14,18.28,4.09a53.89,53.89,0,0,0,11.19-3.63C189.4,208,190.61,207,190.1,206.2Z"/><path class="cls-10" d="M123.94,130.07a6,6,0,0,0,2.79,4.74c2.14,1.34,5.85,1.43,9.2,1.21-.8-.17-1.31-1-1.93-3.32-.35-1.31-1.25-5.23-1.54-6.74a6.54,6.54,0,0,1,2.5-6.87l-1-.42-7.86,6.42A6,6,0,0,0,123.94,130.07Z"/><path class="cls-10" d="M151.2,122.75c3.53,5.2,2.06,8,.72,12.93-.34,1.23-3.12,1.77-3.14,1.78,3.2,1.16,7.1,2.28,10.71,1.8a6,6,0,0,0,4.85-8c-1.23-3.5-3.12-7.34-5.84-9.11s-8.26-3.23-13-4.18l-.16,0A13.75,13.75,0,0,1,151.2,122.75Z"/><path class="cls-10" d="M148.7,137.43c-.87-.38-1.67-.68-2.43-.93C147,136.79,147.83,137.11,148.7,137.43Z"/><path class="cls-10" d="M140.84,135.52a16.11,16.11,0,0,0-3.29.37C138.8,135.78,139.93,135.64,140.84,135.52Z"/><path d="M215.08,149c4.26.66,7.94,1,7.06-3.2a19.33,19.33,0,0,0-.57-2.11c-1.23-3.58-6.44-8-9.1-10.15a6.37,6.37,0,0,0-1.53-.89,138.25,138.25,0,0,0,13.28-4.49l-10.89-1.92a11.42,11.42,0,0,1-3.54-1.25l-7.28-4-4.35-2.42a2.3,2.3,0,0,0-3.41,2.13l1.12,3a2.81,2.81,0,0,0,1.24,2.15c.51.35,1.12.81,1.8,1.32a45.41,45.41,0,0,0,7.72,4.92,72.21,72.21,0,0,1-9.37-1.09l-.16,0a2.87,2.87,0,0,0-1.68.1c-4.15,1.32-8.77,7.61-5.77,10.77a13.13,13.13,0,0,0,6.14,3.21c4.72,1.3,10.2,1.34,12.48,1.59S212.41,148.61,215.08,149Zm-24.36-7.51c-2.8-2.95,1.51-8.81,5.38-10.05a2.84,2.84,0,0,1,1.57-.09A32.84,32.84,0,0,0,202,132a5,5,0,0,1,3.35.29c.83.07,1.63.13,2.34.17a5.53,5.53,0,0,0,2.45.34,5.68,5.68,0,0,1,1.84,1c2.49,2,7.34,6.13,8.48,9.47a15,15,0,0,1,.54,2c.82,3.93-2.61,3.6-6.58,3-2.49-.38-4.28-2-6.35-2.23C204.86,145.62,194.73,145.72,190.72,141.5Z"/><path class="cls-10" d="M221,145.21a15,15,0,0,0-.54-2c-1.14-3.34-6-7.5-8.48-9.47a5.68,5.68,0,0,0-1.84-1,5.53,5.53,0,0,1-2.45-.34c-.71,0-1.51-.1-2.34-.17a6.91,6.91,0,0,1,3.5,5.86c-.17,1.61-1,7.21-2.48,7a17.57,17.57,0,0,1-10.55-1.18c-2-.88.78-5.11,1.63-8.18S202,132,202,132h0a32.84,32.84,0,0,1-4.34-.66,2.84,2.84,0,0,0-1.57.09c-3.87,1.24-8.18,7.1-5.38,10.05,4,4.22,14.14,4.12,17.36,4.47,2.07.23,3.86,1.85,6.35,2.23C218.4,148.81,221.83,149.14,221,145.21Z"/><path class="cls-11" d="M132.46,126c.29,1.51,1.19,5.43,1.54,6.74.62,2.35,1.13,3.15,1.93,3.32a4,4,0,0,0,1.62-.13,16.11,16.11,0,0,1,3.29-.37,17.34,17.34,0,0,1,5.43,1c.76.25,1.56.55,2.43.93l.08,0h0s2.8-.55,3.14-1.78c1.34-4.94,2.81-7.73-.72-12.93a13.75,13.75,0,0,0-5.88-4.71l-7.4,1.56a3.73,3.73,0,0,1-2.24-.21l-.72-.3A6.54,6.54,0,0,0,132.46,126Z"/><path class="cls-11" d="M197.46,135.76c-.85,3.07-3.66,7.3-1.63,8.18a17.57,17.57,0,0,0,10.55,1.18c1.52.26,2.31-5.34,2.48-7a6.91,6.91,0,0,0-3.5-5.86A5,5,0,0,0,202,132h0S198.3,132.69,197.46,135.76Z"/><path d="M133.05,118.24l-8.15,6.64a6.4,6.4,0,0,0,.63,10.38c4.27,2.68,14.38.72,16.86.58,2.22-.12,10.75,5.16,18.13,4.18a6.41,6.41,0,0,0,5.18-8.5c-1.31-3.74-3.33-7.85-6.23-9.74-2.68-1.74-7.64-3.13-12.31-4.13l9.13-1.92A6.91,6.91,0,0,0,161.1,112l3.12-6.45A1.05,1.05,0,0,0,163,104c-6.81,1.9-26.94,7.55-30.13,8.6-3.85,1.28-15.51-6.55-15.51-6.55C118.63,111,127.77,115.82,133.05,118.24Zm1.91.85.72.3a3.73,3.73,0,0,0,2.24.21l7.4-1.56.16,0c4.76.95,10.22,2.35,13,4.18s4.61,5.61,5.84,9.11a6,6,0,0,1-4.85,8c-3.61.48-7.51-.64-10.71-1.8h0l-.08,0c-.87-.32-1.69-.64-2.43-.93a17.34,17.34,0,0,0-5.43-1c-.91.12-2,.26-3.29.37a4,4,0,0,1-1.62.13c-3.35.22-7.06.13-9.2-1.21a6,6,0,0,1-.59-9.72l7.86-6.42Z"/><polygon class="cls-12" points="51.73 575.58 56.33 575.47 56.33 575.46 51.73 575.58"/><polygon class="cls-12" points="110.05 276.15 139.78 296.22 144.81 268 138.75 294.32 110.05 276.15"/><polygon class="cls-12" points="170.06 268 167.14 269.56 170.06 269.56 179.44 278.65 182.21 289.3 181.17 278.56 170.06 268"/><polygon class="cls-12" points="183.94 273.7 185.89 265.43 189.65 260.18 184.63 266.09 183.94 273.7"/><polygon class="cls-12" points="170.35 428.43 163.15 378.88 158.72 284.84 161.98 380.58 169.6 430.49 199.81 558.13 247.96 654.67 200.4 556.54 170.35 428.43"/><path class="cls-12" d="M351.72,216.56l-6.35-1.62-23.65-14.81L313.9,189.2l7.82,12.42C333.17,213.45,351.72,216.56,351.72,216.56Z"/><path class="cls-12" d="M333.88,128.27c-14,30.93-28.23,48.64-28.23,48.64C318,166.79,333.88,128.27,333.88,128.27Z"/><path class="cls-12" d="M289.39,173.42c13.8-8,35.61-43.52,35.61-43.52C306.25,158.2,289.39,173.42,289.39,173.42Z"/><path class="cls-12" d="M315.06,111.78C305.73,144.42,294.25,164,294.25,164,305,152.21,315.06,111.78,315.06,111.78Z"/><path class="cls-12" d="M85,438.35c.76,2.26,1.58,9.62,2.22,14.06l1-.21A33.74,33.74,0,0,0,85,438.35Z"/><path class="cls-12" d="M88.19,452.64h0l-1,.2h0Z"/><path class="cls-12" d="M279.51,162.52c12.6-9.8,29.48-47.89,29.48-47.89C294.19,145.18,279.51,162.52,279.51,162.52Z"/><path class="cls-12" d="M97.07,404.15c2.59-9,2-19.91,1.52-24.48.4,13.88-14.29,58.78-14.29,58.78s.11-.28.31-.76c0,0,.14.24.34.66a1.48,1.48,0,0,0-.34-.66C86.26,433.69,94.06,414.54,97.07,404.15Z"/><path class="cls-12" d="M98.59,379.67a10.93,10.93,0,0,0-.25-2.19S98.46,378.31,98.59,379.67Z"/><path class="cls-12" d="M33.47,510.64a148.69,148.69,0,0,0-22.18,10.88,142.72,142.72,0,0,1,22.07-9.41V512A7.79,7.79,0,0,1,33.47,510.64Z"/><path class="cls-12" d="M33.76,510.53h0a8.3,8.3,0,0,0-.16,1.5h0A8.3,8.3,0,0,1,33.76,510.53Z"/><path class="cls-12" d="M31.76,520.65a144.19,144.19,0,0,0-27,7.3,142.52,142.52,0,0,1,22.82-5.25A148.87,148.87,0,0,0,6.86,536.31a147.53,147.53,0,0,1,25.39-14.23l1.36-.17,0-2.06C33,520.11,32.36,520.37,31.76,520.65Z"/><path class="cls-12" d="M8.16,541.15a123.61,123.61,0,0,1,25.75-7.74l0-1.5C21.45,534.38,8.16,541.15,8.16,541.15Z"/><path class="cls-12" d="M165.8,491.39l.19.08-.66-26.11a9.21,9.21,0,0,0-.22-1.74c0,.09-.05.19-.08.29a9.28,9.28,0,0,1,.09,1.06Z"/><path class="cls-12" d="M168.48,589.62a.8.8,0,0,1,0,.27c0-.18,0-.36,0-.54l-1.45-56.57,0,.05Z"/><path class="cls-13" d="M164.91,463.23l.12.68.08-.29a4.1,4.1,0,0,0,.14-1.16,4.54,4.54,0,0,0-.62-2.09,4.35,4.35,0,0,1,.42,1.7A4.14,4.14,0,0,1,164.91,463.23Z"/><path class="cls-14" d="M119.08,608.35c27.55-.7,49.13-7.86,49.53-12.86a25.06,25.06,0,0,0-.12-5.61.83.83,0,0,1,0-.27L167,532.83l-.13.15,1.43,55.95c0,.18,0,.36,0,.54a25.06,25.06,0,0,1,.11,5.61c-.24,3-7.95,6.71-19.94,9.39A156.59,156.59,0,0,1,118.86,608c-25.65.66-46.63-4.51-49.8-9.26.79,1.74,4,3.55,9.09,5.14A113,113,0,0,0,103,608C108.05,608.36,113.45,608.49,119.08,608.35Z"/><path class="cls-12" d="M50.3,525.45l-.14-5.39h0a5.7,5.7,0,0,1,5.54-5.84l5.89-.15.57-.37-6.66.17A5.68,5.68,0,0,0,50,519.68h0l.15,5.9v.15C50.17,525.66,50.23,525.56,50.3,525.45Z"/><path class="cls-12" d="M50.38,528.38v-.45l-.22-.87,0,1.42L51,558.92a5.81,5.81,0,0,0,.19,1.25c.05.19.13.37.19.55a5.94,5.94,0,0,0,.34.78l0,0a5.61,5.61,0,0,1-.53-2.21Z"/><path class="cls-12" d="M35.87,571.3v0h0Z"/><path class="cls-12" d="M56.2,575.09,44,575.41a2.75,2.75,0,0,1-.41,0l-.43,0a8.23,8.23,0,0,1-7.28-4.07,8.21,8.21,0,0,0,7.47,4.43c.15,0,.29,0,.43,0a2.81,2.81,0,0,0,.41,0l7.52-.19,4.6-.12Z"/><path class="cls-6" d="M54.69,564.11a5.63,5.63,0,0,1-2.77-2.19,6.16,6.16,0,0,0,2.58,2.32l.14.06C54.66,564.23,54.67,564.17,54.69,564.11Z"/><path class="cls-15" d="M54.69,564.11a5.63,5.63,0,0,1-2.77-2.19,6.16,6.16,0,0,0,2.58,2.32l.14.06C54.66,564.23,54.67,564.17,54.69,564.11Z"/><path class="cls-12" d="M54.5,564.24l.14.08v0Z"/><path class="cls-15" d="M54.5,564.24l.14.08v0Z"/><path class="cls-6" d="M68.82,593.8c0-.22,0-.45-.06-.67h-.17a2.66,2.66,0,0,0,0,.28,21.56,21.56,0,0,0,.06,4.25,2,2,0,0,0,.3.85,1.36,1.36,0,0,1-.12-.45A22.35,22.35,0,0,1,68.82,593.8Z"/><path class="cls-15" d="M68.82,593.8c0-.22,0-.45-.06-.67h-.17a2.66,2.66,0,0,0,0,.28,21.56,21.56,0,0,0,.06,4.25,2,2,0,0,0,.3.85,1.36,1.36,0,0,1-.12-.45A22.35,22.35,0,0,1,68.82,593.8Z"/><path class="cls-5" d="M34.24,538.72l0-.85-.2.07,0,.92Z"/><path class="cls-15" d="M34.24,538.72l0-.85-.2.07,0,.92Z"/><path d="M115,449.73c20.46-.53,38.14,2.49,45.95,7.25a12.76,12.76,0,0,1,2.72,2.14,7.1,7.1,0,0,1,.92,1.22c-3.23-6.83-24.35-11.65-49.8-11A156,156,0,0,0,88.2,452.2c0,.14,0,.29,0,.43A153.92,153.92,0,0,1,115,449.73Z"/><path class="cls-15" d="M115,449.73c20.46-.53,38.14,2.49,45.95,7.25a12.76,12.76,0,0,1,2.72,2.14,7.1,7.1,0,0,1,.92,1.22c-3.23-6.83-24.35-11.65-49.8-11A156,156,0,0,0,88.2,452.2c0,.14,0,.29,0,.43A153.92,153.92,0,0,1,115,449.73Z"/><path d="M33.57,512.4c0-.13,0-.24,0-.37l-.23.08.2,7.74.19-.09Z"/><path class="cls-15" d="M33.57,512.4c0-.13,0-.24,0-.37l-.23.08.2,7.74.19-.09Z"/><path d="M34.1,533.38l-.19,0,.11,4.53.2-.07Z"/><path class="cls-15" d="M34.1,533.38l-.19,0,.11,4.53.2-.07Z"/><path d="M41.55,504l24.91-.64-.91-35.42h0v0a10.3,10.3,0,0,1,.14-1.84,4.17,4.17,0,0,1-.16-1.05h0c-.13-4.83,8.49-9.32,21.7-12.17,0-.14,0-.27-.06-.42-13.29,2.86-22,7.36-21.85,12.21a4.26,4.26,0,0,0,.17,1.06,8.82,8.82,0,0,0-.14,1.85l.9,35.44-24.69.63h-.22a8.19,8.19,0,0,0-7.87,7l.28-.11A8.22,8.22,0,0,1,41.55,504Z"/><path class="cls-15" d="M41.55,504l24.91-.64-.91-35.42h0v0a10.3,10.3,0,0,1,.14-1.84,4.17,4.17,0,0,1-.16-1.05h0c-.13-4.83,8.49-9.32,21.7-12.17,0-.14,0-.27-.06-.42-13.29,2.86-22,7.36-21.85,12.21a4.26,4.26,0,0,0,.17,1.06,8.82,8.82,0,0,0-.14,1.85l.9,35.44-24.69.63h-.22a8.19,8.19,0,0,0-7.87,7l.28-.11A8.22,8.22,0,0,1,41.55,504Z"/><path d="M33.81,521.89l-.2,0,.26,10,.19,0Z"/><path class="cls-15" d="M33.81,521.89l-.2,0,.26,10,.19,0Z"/><path class="cls-6" d="M35,567.82l0-1.41-.71-27.69-.19.14.73,28.56a8,8,0,0,0,1.08,3.85,8.23,8.23,0,0,1-.88-3.43Z"/><path class="cls-15" d="M35,567.82l0-1.41-.71-27.69-.19.14.73,28.56a8,8,0,0,0,1.08,3.85,8.23,8.23,0,0,1-.88-3.43Z"/><path class="cls-12" d="M88.19,452.63c0-.14,0-.29,0-.43l-1,.21c0,.15,0,.28.06.42Z"/><path class="cls-15" d="M88.19,452.63c0-.14,0-.29,0-.43l-1,.21c0,.15,0,.28.06.42Z"/><path class="cls-12" d="M33.75,510.53l-.28.11a7.79,7.79,0,0,0-.11,1.38v.09l.23-.08A8.3,8.3,0,0,1,33.75,510.53Z"/><path class="cls-15" d="M33.75,510.53l-.28.11a7.79,7.79,0,0,0-.11,1.38v.09l.23-.08A8.3,8.3,0,0,1,33.75,510.53Z"/><path class="cls-12" d="M33.75,519.76l-.19.09,0,2.06.2,0Z"/><path class="cls-15" d="M33.75,519.76l-.19.09,0,2.06.2,0Z"/><path class="cls-12" d="M34.06,531.88l-.19,0,0,1.5.19,0Z"/><path class="cls-15" d="M34.06,531.88l-.19,0,0,1.5.19,0Z"/><path class="cls-13" d="M161,457c-7.81-4.76-25.49-7.78-45.95-7.24a154.89,154.89,0,0,0-26.84,2.9l-1,.2C74,455.7,65.41,460.18,65.53,465h0a4.17,4.17,0,0,0,.16,1.05h0c.69,2.36,3.5,4.5,7.88,6.29,8.12,3.31,21.68,5.42,37.3,5.44,1.6,0,3.23,0,4.87-.06,25.8-.66,46.88-6.7,49.28-13.83h0l-.12-.68a4.14,4.14,0,0,0,.14-1.16,4.35,4.35,0,0,0-.42-1.7,0,0,0,0,1,0,0,7.1,7.1,0,0,0-.92-1.22A12.76,12.76,0,0,0,161,457Z"/><path class="cls-15" d="M161,457c-7.81-4.76-25.49-7.78-45.95-7.24a154.89,154.89,0,0,0-26.84,2.9l-1,.2C74,455.7,65.41,460.18,65.53,465h0a4.17,4.17,0,0,0,.16,1.05h0c.69,2.36,3.5,4.5,7.88,6.29,8.12,3.31,21.68,5.42,37.3,5.44,1.6,0,3.23,0,4.87-.06,25.8-.66,46.88-6.7,49.28-13.83h0l-.12-.68a4.14,4.14,0,0,0,.14-1.16,4.35,4.35,0,0,0-.42-1.7,0,0,0,0,1,0,0,7.1,7.1,0,0,0-.92-1.22A12.76,12.76,0,0,0,161,457Z"/><path class="cls-14" d="M66.66,509.25l0,1.34a5,5,0,0,1,.45-1.35Z"/><path class="cls-15" d="M66.66,509.25l0,1.34a5,5,0,0,1,.45-1.35Z"/><path class="cls-14" d="M168.38,595.09a24.79,24.79,0,0,0-.09-5.58,5,5,0,0,0,0-.55l-1.43-56c-2.49,2.67-4.34,4.34-4.34,4.34l2-23.49s-.16-.25-.43-.7c-2.09,1.93-5.55,3.72-10.07,5.28l1.74,68a8,8,0,0,1-.16,1.63c0,.19-.11.37-.16.56a8.2,8.2,0,0,1-.3,1,6.54,6.54,0,0,1-.3.59,7.52,7.52,0,0,1-.43.79c-.12.19-.28.36-.42.54s-.35.46-.55.67-.35.31-.52.46-.43.38-.66.55-.41.24-.62.36a5.2,5.2,0,0,1-1.44.65c-.27.09-.53.19-.81.26s-.5.07-.76.11-.45.09-.68.1h-.18l-.18,0c-.23,0-.45,0-.68-.07s-.52,0-.77-.07-.55-.14-.82-.21-.48-.13-.71-.21-.51-.24-.77-.37-.43-.21-.63-.33a8.31,8.31,0,0,1-.69-.52c-.18-.14-.37-.27-.54-.42s-.39-.43-.58-.65-.32-.33-.45-.51a7.68,7.68,0,0,1-.47-.78c-.11-.19-.24-.37-.34-.56a7.8,7.8,0,0,1-.34-1,4.93,4.93,0,0,1-.19-.54,7.82,7.82,0,0,1-.24-1.62l-1.66-64.57c-4.07.63-8.44,1.12-13,1.45l1.72,67.3a8.2,8.2,0,0,1-16.39.42l-1.73-67.34c-4.61-.1-9-.39-13.09-.82v0l1.55,60.88a9.14,9.14,0,0,1,3.59,3.22c1.38,2.43-.81,4-4.74,4.95a1.4,1.4,0,0,1-.1.16,5.43,5.43,0,0,1-.42.53c-.18.23-.35.47-.55.68s-.35.3-.52.45-.43.39-.67.56a6,6,0,0,1-.61.35,5.35,5.35,0,0,1-.74.41c-.23.1-.47.17-.7.25a7.58,7.58,0,0,1-.81.25,6.32,6.32,0,0,1-.76.11c-.23,0-.45.09-.68.1a1.09,1.09,0,0,1-.18,0l-.18,0c-.23,0-.46,0-.69-.06s-.51,0-.76-.07-.55-.14-.82-.21-.48-.13-.71-.22a7.76,7.76,0,0,1-.77-.37c-.21-.1-.43-.2-.63-.32s-.46-.34-.69-.52-.37-.27-.54-.43-.24-.25-.36-.38c-4.92.09-10-.12-13.93-.45,0,.22,0,.45.06.67a22.35,22.35,0,0,0,0,4.25,1.36,1.36,0,0,0,.12.45.42.42,0,0,0,0,.12s0,0,0,.07c3.17,4.75,24.15,9.92,49.8,9.26a156.59,156.59,0,0,0,29.61-3.48C160.45,601.79,168.15,598.06,168.38,595.09Z"/><path class="cls-15" d="M168.38,595.09a24.79,24.79,0,0,0-.09-5.58,5,5,0,0,0,0-.55l-1.43-56c-2.49,2.67-4.34,4.34-4.34,4.34l2-23.49s-.16-.25-.43-.7c-2.09,1.93-5.55,3.72-10.07,5.28l1.74,68a8,8,0,0,1-.16,1.63c0,.19-.11.37-.16.56a8.2,8.2,0,0,1-.3,1,6.54,6.54,0,0,1-.3.59,7.52,7.52,0,0,1-.43.79c-.12.19-.28.36-.42.54s-.35.46-.55.67-.35.31-.52.46-.43.38-.66.55-.41.24-.62.36a5.2,5.2,0,0,1-1.44.65c-.27.09-.53.19-.81.26s-.5.07-.76.11-.45.09-.68.1h-.18l-.18,0c-.23,0-.45,0-.68-.07s-.52,0-.77-.07-.55-.14-.82-.21-.48-.13-.71-.21-.51-.24-.77-.37-.43-.21-.63-.33a8.31,8.31,0,0,1-.69-.52c-.18-.14-.37-.27-.54-.42s-.39-.43-.58-.65-.32-.33-.45-.51a7.68,7.68,0,0,1-.47-.78c-.11-.19-.24-.37-.34-.56a7.8,7.8,0,0,1-.34-1,4.93,4.93,0,0,1-.19-.54,7.82,7.82,0,0,1-.24-1.62l-1.66-64.57c-4.07.63-8.44,1.12-13,1.45l1.72,67.3a8.2,8.2,0,0,1-16.39.42l-1.73-67.34c-4.61-.1-9-.39-13.09-.82v0l1.55,60.88a9.14,9.14,0,0,1,3.59,3.22c1.38,2.43-.81,4-4.74,4.95a1.4,1.4,0,0,1-.1.16,5.43,5.43,0,0,1-.42.53c-.18.23-.35.47-.55.68s-.35.3-.52.45-.43.39-.67.56a6,6,0,0,1-.61.35,5.35,5.35,0,0,1-.74.41c-.23.1-.47.17-.7.25a7.58,7.58,0,0,1-.81.25,6.32,6.32,0,0,1-.76.11c-.23,0-.45.09-.68.1a1.09,1.09,0,0,1-.18,0l-.18,0c-.23,0-.46,0-.69-.06s-.51,0-.76-.07-.55-.14-.82-.21-.48-.13-.71-.22a7.76,7.76,0,0,1-.77-.37c-.21-.1-.43-.2-.63-.32s-.46-.34-.69-.52-.37-.27-.54-.43-.24-.25-.36-.38c-4.92.09-10-.12-13.93-.45,0,.22,0,.45.06.67a22.35,22.35,0,0,0,0,4.25,1.36,1.36,0,0,0,.12.45.42.42,0,0,0,0,.12s0,0,0,.07c3.17,4.75,24.15,9.92,49.8,9.26a156.59,156.59,0,0,0,29.61-3.48C160.45,601.79,168.15,598.06,168.38,595.09Z"/><path class="cls-14" d="M79.11,547.62l.29.45v-.65Z"/><path class="cls-15" d="M79.11,547.62l.29.45v-.65Z"/><path class="cls-14" d="M69,569.17c-.12,0-.25.05-.37.08l1.12,9.24s4.69.21,10.42,1L79.8,563.4A44.54,44.54,0,0,1,69,569.17Z"/><path class="cls-15" d="M69,569.17c-.12,0-.25.05-.37.08l1.12,9.24s4.69.21,10.42,1L79.8,563.4A44.54,44.54,0,0,1,69,569.17Z"/><polygon class="cls-14" points="108.27 524.09 108.27 524.09 108.27 524.07 108.27 524.11 108.27 524.11 108.27 524.09"/><polygon class="cls-15" points="108.27 524.09 108.27 524.09 108.27 524.07 108.27 524.11 108.27 524.11 108.27 524.09"/><path class="cls-16" d="M94.53,498h0l.14,5.61a84.3,84.3,0,0,1,13-2.26l-.08-3.3,0-1.54-1.57.13c-3.37.28-6.62.65-9.7,1.1l-1.77.26Z"/><path class="cls-15" d="M94.53,498h0l.14,5.61a84.3,84.3,0,0,1,13-2.26l-.08-3.3,0-1.54-1.57.13c-3.37.28-6.62.65-9.7,1.1l-1.77.26Z"/><path class="cls-16" d="M124.08,500.89h0a86.09,86.09,0,0,1,13.11,1.46l-.14-5.54c-4.1-.42-8.49-.69-13.09-.78v0Z"/><path class="cls-15" d="M124.08,500.89h0a86.09,86.09,0,0,1,13.11,1.46l-.14-5.54c-4.1-.42-8.49-.69-13.09-.78v0Z"/><path class="cls-16" d="M137.56,516.78a85.6,85.6,0,0,1-13,2.14l.12,4.78v0c4.59-.33,9-.82,13-1.45h0Z"/><path class="cls-15" d="M137.56,516.78a85.6,85.6,0,0,1-13,2.14l.12,4.78v0c4.59-.33,9-.82,13-1.45h0Z"/><path class="cls-16" d="M108.24,522.94l-.09-3.66A83.78,83.78,0,0,1,95,517.72l.14,5.53h0v0c4.08.43,8.48.72,13.09.82v0Z"/><path class="cls-15" d="M108.24,522.94l-.09-3.66A83.78,83.78,0,0,1,95,517.72l.14,5.53h0v0c4.08.43,8.48.72,13.09.82v0Z"/><path class="cls-16" d="M154,518.42c4.52-1.56,8-3.35,10.07-5.28a45.53,45.53,0,0,1-4.8-11.26,43,43,0,0,0-5.74-2.06Z"/><path class="cls-15" d="M154,518.42c4.52-1.56,8-3.35,10.07-5.28a45.53,45.53,0,0,1-4.8-11.26,43,43,0,0,0-5.74-2.06Z"/><path class="cls-16" d="M67.14,509.24a5,5,0,0,0-.45,1.35l0,.65a23.08,23.08,0,0,1,10.48-1.93c.43,0,.83.07,1.22.11L78.22,502C72.42,504.08,68.48,506.58,67.14,509.24Z"/><path class="cls-15" d="M67.14,509.24a5,5,0,0,0-.45,1.35l0,.65a23.08,23.08,0,0,1,10.48-1.93c.43,0,.83.07,1.22.11L78.22,502C72.42,504.08,68.48,506.58,67.14,509.24Z"/><path class="cls-12" d="M95,517.68h0a84.88,84.88,0,0,0,13.11,1.59l-.46-17.92h0a84.3,84.3,0,0,0-13,2.26h0Z"/><path class="cls-15" d="M95,517.68h0a84.88,84.88,0,0,0,13.11,1.59l-.46-17.92h0a84.3,84.3,0,0,0-13,2.26h0Z"/><path class="cls-12" d="M137.19,502.37a84.86,84.86,0,0,0-13.11-1.47l.46,18h0a85.6,85.6,0,0,0,13-2.14h0Z"/><path class="cls-15" d="M137.19,502.37a84.86,84.86,0,0,0-13.11-1.47l.46,18h0a85.6,85.6,0,0,0,13-2.14h0Z"/><path class="cls-12" d="M115.75,477.74c-1.64,0-3.27.06-4.87.06-15.62,0-29.18-2.13-37.3-5.44-4.38-1.79-7.19-3.93-7.88-6.29a9.66,9.66,0,0,0-.15,1.86h0l.91,35.42v0L41.55,504a8.21,8.21,0,0,0-7.79,6.52,8.3,8.3,0,0,0-.16,1.5,2.43,2.43,0,0,0,0,.38l.18,7.35.06,2.13.25,10,0,1.5.12,4.49,0,.85L35,566.41l0,1.41v0a8.23,8.23,0,0,0,.88,3.43l0,0h0l0,0a8.23,8.23,0,0,0,7.28,4.07l.43,0a2.75,2.75,0,0,0,.41,0l12.18-.32-2.44-6.71s.27-1.67.88-4.06l-.14-.08a6.16,6.16,0,0,1-2.58-2.32c-.08-.12-.15-.25-.22-.38l0,0a5.94,5.94,0,0,1-.34-.78c-.06-.18-.14-.36-.19-.55a6.3,6.3,0,0,1-.19-1.23l-.78-30.46,0-1.42h0l-.26-1,.22-.33v-.15l-.15-5.9h0a5.68,5.68,0,0,1,5.54-5.82l6.66-.17a29.73,29.73,0,0,1,4.53-2.44l0-2,.48,0c1.34-2.66,5.29-5.16,11.09-7.24l-.3-11.51a8.18,8.18,0,0,1,2.39-5.8.27.27,0,0,0,.08-.07,8.71,8.71,0,0,1,1.1-.91l.29-.17a9.84,9.84,0,0,1,1.06-.58c.16-.07.33-.11.5-.18a10.17,10.17,0,0,1,1-.31c.23,0,.46-.06.69-.1s.48-.09.73-.1h.18l.19,0c.25,0,.48.05.72.07s.48,0,.7.06a8.14,8.14,0,0,1,1,.26c.17.05.35.09.51.15a8.31,8.31,0,0,1,1.08.53,2.8,2.8,0,0,1,.3.15,8,8,0,0,1,1.15.86l.08.06a8.19,8.19,0,0,1,2.69,5.67l.2,7.95,1.77-.26c3.08-.45,6.33-.82,9.7-1.1.52,0,1-.1,1.55-.13l-.08-2.93a8.2,8.2,0,0,1,8-8.4h0a8.19,8.19,0,0,1,8.4,8L124,496c4.59.09,9,.35,13.07.78l-.2-7.84a8.16,8.16,0,0,1,2.39-5.8l.08-.07a8,8,0,0,1,1.1-.92l.29-.17a9.84,9.84,0,0,1,1.06-.58c.16-.07.33-.11.5-.17a7,7,0,0,1,1-.31c.23,0,.46-.07.69-.1a6.13,6.13,0,0,1,.73-.11h.19l.18,0c.25,0,.48.05.73.07s.47,0,.69.06a8.14,8.14,0,0,1,1,.26c.17.05.35.09.51.15a8.44,8.44,0,0,1,1.09.53l.29.15a8,8,0,0,1,1.15.86.5.5,0,0,1,.08.07,8.15,8.15,0,0,1,2.69,5.67l.28,11.24a42.67,42.67,0,0,1,5.75,2.06l-.06-.26c-1.33-6,3.3-11.24,3.3-11.24a20.43,20.43,0,0,1,3.28,1L165.12,465a9.28,9.28,0,0,0-.09-1.06h0C162.63,471,141.55,477.08,115.75,477.74Z"/><path class="cls-15" d="M115.75,477.74c-1.64,0-3.27.06-4.87.06-15.62,0-29.18-2.13-37.3-5.44-4.38-1.79-7.19-3.93-7.88-6.29a9.66,9.66,0,0,0-.15,1.86h0l.91,35.42v0L41.55,504a8.21,8.21,0,0,0-7.79,6.52,8.3,8.3,0,0,0-.16,1.5,2.43,2.43,0,0,0,0,.38l.18,7.35.06,2.13.25,10,0,1.5.12,4.49,0,.85L35,566.41l0,1.41v0a8.23,8.23,0,0,0,.88,3.43l0,0h0l0,0a8.23,8.23,0,0,0,7.28,4.07l.43,0a2.75,2.75,0,0,0,.41,0l12.18-.32-2.44-6.71s.27-1.67.88-4.06l-.14-.08a6.16,6.16,0,0,1-2.58-2.32c-.08-.12-.15-.25-.22-.38l0,0a5.94,5.94,0,0,1-.34-.78c-.06-.18-.14-.36-.19-.55a6.3,6.3,0,0,1-.19-1.23l-.78-30.46,0-1.42h0l-.26-1,.22-.33v-.15l-.15-5.9h0a5.68,5.68,0,0,1,5.54-5.82l6.66-.17a29.73,29.73,0,0,1,4.53-2.44l0-2,.48,0c1.34-2.66,5.29-5.16,11.09-7.24l-.3-11.51a8.18,8.18,0,0,1,2.39-5.8.27.27,0,0,0,.08-.07,8.71,8.71,0,0,1,1.1-.91l.29-.17a9.84,9.84,0,0,1,1.06-.58c.16-.07.33-.11.5-.18a10.17,10.17,0,0,1,1-.31c.23,0,.46-.06.69-.1s.48-.09.73-.1h.18l.19,0c.25,0,.48.05.72.07s.48,0,.7.06a8.14,8.14,0,0,1,1,.26c.17.05.35.09.51.15a8.31,8.31,0,0,1,1.08.53,2.8,2.8,0,0,1,.3.15,8,8,0,0,1,1.15.86l.08.06a8.19,8.19,0,0,1,2.69,5.67l.2,7.95,1.77-.26c3.08-.45,6.33-.82,9.7-1.1.52,0,1-.1,1.55-.13l-.08-2.93a8.2,8.2,0,0,1,8-8.4h0a8.19,8.19,0,0,1,8.4,8L124,496c4.59.09,9,.35,13.07.78l-.2-7.84a8.16,8.16,0,0,1,2.39-5.8l.08-.07a8,8,0,0,1,1.1-.92l.29-.17a9.84,9.84,0,0,1,1.06-.58c.16-.07.33-.11.5-.17a7,7,0,0,1,1-.31c.23,0,.46-.07.69-.1a6.13,6.13,0,0,1,.73-.11h.19l.18,0c.25,0,.48.05.73.07s.47,0,.69.06a8.14,8.14,0,0,1,1,.26c.17.05.35.09.51.15a8.44,8.44,0,0,1,1.09.53l.29.15a8,8,0,0,1,1.15.86.5.5,0,0,1,.08.07,8.15,8.15,0,0,1,2.69,5.67l.28,11.24a42.67,42.67,0,0,1,5.75,2.06l-.06-.26c-1.33-6,3.3-11.24,3.3-11.24a20.43,20.43,0,0,1,3.28,1L165.12,465a9.28,9.28,0,0,0-.09-1.06h0C162.63,471,141.55,477.08,115.75,477.74Z"/><path class="cls-12" d="M137.05,496.82a97.19,97.19,0,0,1,16.49,3h0l-.28-11.24a8.15,8.15,0,0,0-2.69-5.67.5.5,0,0,0-.08-.07,8,8,0,0,0-1.15-.86l-.29-.15a8.44,8.44,0,0,0-1.09-.53c-.16-.06-.34-.1-.51-.15a8.14,8.14,0,0,0-1-.26c-.22,0-.46,0-.69-.06s-.48-.07-.73-.07l-.18,0a6.82,6.82,0,0,0-.92.1c-.23,0-.46.05-.69.1a7,7,0,0,0-1,.31c-.17.06-.34.1-.5.17a9.84,9.84,0,0,0-1.06.58l-.29.17a8,8,0,0,0-1.1.92l-.08.07a8.19,8.19,0,0,0-2.37,5.8Z"/><path class="cls-17" d="M137.05,496.82a97.19,97.19,0,0,1,16.49,3h0l-.28-11.24a8.15,8.15,0,0,0-2.69-5.67.5.5,0,0,0-.08-.07,8,8,0,0,0-1.15-.86l-.29-.15a8.44,8.44,0,0,0-1.09-.53c-.16-.06-.34-.1-.51-.15a8.14,8.14,0,0,0-1-.26c-.22,0-.46,0-.69-.06s-.48-.07-.73-.07l-.18,0a6.82,6.82,0,0,0-.92.1c-.23,0-.46.05-.69.1a7,7,0,0,0-1,.31c-.17.06-.34.1-.5.17a9.84,9.84,0,0,0-1.06.58l-.29.17a8,8,0,0,0-1.1.92l-.08.07a8.19,8.19,0,0,0-2.37,5.8Z"/><path class="cls-15" d="M137.05,496.82a97.19,97.19,0,0,1,16.49,3h0l-.28-11.24a8.15,8.15,0,0,0-2.69-5.67.5.5,0,0,0-.08-.07,8,8,0,0,0-1.15-.86l-.29-.15a8.44,8.44,0,0,0-1.09-.53c-.16-.06-.34-.1-.51-.15a8.14,8.14,0,0,0-1-.26c-.22,0-.46,0-.69-.06s-.48-.07-.73-.07l-.18,0a6.82,6.82,0,0,0-.92.1c-.23,0-.46.05-.69.1a7,7,0,0,0-1,.31c-.17.06-.34.1-.5.17a9.84,9.84,0,0,0-1.06.58l-.29.17a8,8,0,0,0-1.1.92l-.08.07a8.19,8.19,0,0,0-2.37,5.8Z"/><path class="cls-14" d="M137.7,522.27l1.66,64.57a7.82,7.82,0,0,0,.24,1.62,4.93,4.93,0,0,0,.19.54,7.8,7.8,0,0,0,.34,1c.1.19.23.37.34.56a7.68,7.68,0,0,0,.47.78c.13.18.3.34.45.51s.37.45.58.65.36.28.54.42a8.31,8.31,0,0,0,.69.52c.2.12.42.22.63.33s.5.26.77.37.47.14.71.21.54.16.82.21.51.05.77.07.45.07.68.07l.18,0c.29,0,.58-.06.86-.09s.52-.06.76-.11.54-.17.81-.26a5.2,5.2,0,0,0,1.44-.65c.21-.12.42-.23.62-.36s.44-.36.66-.55.36-.29.52-.46.37-.44.55-.67.3-.35.42-.54a7.52,7.52,0,0,0,.43-.79,6.54,6.54,0,0,0,.3-.59,8.2,8.2,0,0,0,.3-1c0-.19.13-.37.16-.56a8,8,0,0,0,.16-1.63l-1.74-68a96.89,96.89,0,0,1-16.31,3.84Z"/><path class="cls-17" d="M137.7,522.27l1.66,64.57a7.82,7.82,0,0,0,.24,1.62,4.93,4.93,0,0,0,.19.54,7.8,7.8,0,0,0,.34,1c.1.19.23.37.34.56a7.68,7.68,0,0,0,.47.78c.13.18.3.34.45.51s.37.45.58.65.36.28.54.42a8.31,8.31,0,0,0,.69.52c.2.12.42.22.63.33s.5.26.77.37.47.14.71.21.54.16.82.21.51.05.77.07.45.07.68.07l.18,0c.29,0,.58-.06.86-.09s.52-.06.76-.11.54-.17.81-.26a5.2,5.2,0,0,0,1.44-.65c.21-.12.42-.23.62-.36s.44-.36.66-.55.36-.29.52-.46.37-.44.55-.67.3-.35.42-.54a7.52,7.52,0,0,0,.43-.79,6.54,6.54,0,0,0,.3-.59,8.2,8.2,0,0,0,.3-1c0-.19.13-.37.16-.56a8,8,0,0,0,.16-1.63l-1.74-68a96.89,96.89,0,0,1-16.31,3.84Z"/><path class="cls-15" d="M137.7,522.27l1.66,64.57a7.82,7.82,0,0,0,.24,1.62,4.93,4.93,0,0,0,.19.54,7.8,7.8,0,0,0,.34,1c.1.19.23.37.34.56a7.68,7.68,0,0,0,.47.78c.13.18.3.34.45.51s.37.45.58.65.36.28.54.42a8.31,8.31,0,0,0,.69.52c.2.12.42.22.63.33s.5.26.77.37.47.14.71.21.54.16.82.21.51.05.77.07.45.07.68.07l.18,0c.29,0,.58-.06.86-.09s.52-.06.76-.11.54-.17.81-.26a5.2,5.2,0,0,0,1.44-.65c.21-.12.42-.23.62-.36s.44-.36.66-.55.36-.29.52-.46.37-.44.55-.67.3-.35.42-.54a7.52,7.52,0,0,0,.43-.79,6.54,6.54,0,0,0,.3-.59,8.2,8.2,0,0,0,.3-1c0-.19.13-.37.16-.56a8,8,0,0,0,.16-1.63l-1.74-68a96.89,96.89,0,0,1-16.31,3.84Z"/><path class="cls-16" d="M137.05,496.82l.14,5.54c7.57,1.51,12.44,4,12.52,6.89h0c.07,2.91-4.67,5.63-12.15,7.52l.14,5.48A96.89,96.89,0,0,0,154,518.42l-.47-18.6A97.21,97.21,0,0,0,137.05,496.82Z"/><path class="cls-17" d="M137.05,496.82l.14,5.54c7.57,1.51,12.44,4,12.52,6.89h0c.07,2.91-4.67,5.63-12.15,7.52l.14,5.48A96.89,96.89,0,0,0,154,518.42l-.47-18.6A97.21,97.21,0,0,0,137.05,496.82Z"/><path class="cls-15" d="M137.05,496.82l.14,5.54c7.57,1.51,12.44,4,12.52,6.89h0c.07,2.91-4.67,5.63-12.15,7.52l.14,5.48A96.89,96.89,0,0,0,154,518.42l-.47-18.6A97.21,97.21,0,0,0,137.05,496.82Z"/><path class="cls-12" d="M137.56,516.77c7.47-1.89,12.21-4.6,12.15-7.51h0c-.08-2.91-5-5.38-12.52-6.89h0Z"/><path class="cls-17" d="M137.56,516.77c7.47-1.89,12.21-4.6,12.15-7.51h0c-.08-2.91-5-5.38-12.52-6.89h0Z"/><path class="cls-15" d="M137.56,516.77c7.47-1.89,12.21-4.6,12.15-7.51h0c-.08-2.91-5-5.38-12.52-6.89h0Z"/><path class="cls-12" d="M107.49,493.59l.08,2.91c2.78-.21,5.65-.35,8.57-.43q4-.1,7.82,0h0l-.08-2.87a8.19,8.19,0,0,0-8.4-8h0A8.2,8.2,0,0,0,107.49,493.59Z"/><path class="cls-17" d="M107.49,493.59l.08,2.91c2.78-.21,5.65-.35,8.57-.43q4-.1,7.82,0h0l-.08-2.87a8.19,8.19,0,0,0-8.4-8h0A8.2,8.2,0,0,0,107.49,493.59Z"/><path class="cls-15" d="M107.49,493.59l.08,2.91c2.78-.21,5.65-.35,8.57-.43q4-.1,7.82,0h0l-.08-2.87a8.19,8.19,0,0,0-8.4-8h0A8.2,8.2,0,0,0,107.49,493.59Z"/><path class="cls-14" d="M116.86,524.09l-2.26,0c-2.14,0-4.26,0-6.33,0h0L110,591.44a8.2,8.2,0,0,0,16.39-.42l-1.72-67.3v0Q120.85,524,116.86,524.09Z"/><path class="cls-17" d="M116.86,524.09l-2.26,0c-2.14,0-4.26,0-6.33,0h0L110,591.44a8.2,8.2,0,0,0,16.39-.42l-1.72-67.3v0Q120.85,524,116.86,524.09Z"/><path class="cls-15" d="M116.86,524.09l-2.26,0c-2.14,0-4.26,0-6.33,0h0L110,591.44a8.2,8.2,0,0,0,16.39-.42l-1.72-67.3v0Q120.85,524,116.86,524.09Z"/><path class="cls-16" d="M116.25,500.83c2.71-.07,5.32,0,7.83.06l-.12-4.83v0q-3.83-.07-7.82,0c-2.92.08-5.79.22-8.57.43l0,1.56.08,3.3h0C110.42,501.09,113.29,500.91,116.25,500.83Z"/><path class="cls-17" d="M116.25,500.83c2.71-.07,5.32,0,7.83.06l-.12-4.83v0q-3.83-.07-7.82,0c-2.92.08-5.79.22-8.57.43l0,1.56.08,3.3h0C110.42,501.09,113.29,500.91,116.25,500.83Z"/><path class="cls-15" d="M116.25,500.83c2.71-.07,5.32,0,7.83.06l-.12-4.83v0q-3.83-.07-7.82,0c-2.92.08-5.79.22-8.57.43l0,1.56.08,3.3h0C110.42,501.09,113.29,500.91,116.25,500.83Z"/><path class="cls-16" d="M116.73,519.37c-3,.08-5.84,0-8.58-.09l.09,3.66,0,1.13v0h0c2,0,4.13,0,6.24,0l2.35,0c2.66-.06,5.26-.19,7.8-.37l-.12-4.78h0C122,519.15,119.43,519.3,116.73,519.37Z"/><path class="cls-17" d="M116.73,519.37c-3,.08-5.84,0-8.58-.09l.09,3.66,0,1.13v0h0c2,0,4.13,0,6.24,0l2.35,0c2.66-.06,5.26-.19,7.8-.37l-.12-4.78h0C122,519.15,119.43,519.3,116.73,519.37Z"/><path class="cls-15" d="M116.73,519.37c-3,.08-5.84,0-8.58-.09l.09,3.66,0,1.13v0h0c2,0,4.13,0,6.24,0l2.35,0c2.66-.06,5.26-.19,7.8-.37l-.12-4.78h0C122,519.15,119.43,519.3,116.73,519.37Z"/><path class="cls-12" d="M116.73,519.37c2.69-.07,5.31-.22,7.81-.46l-.46-18h0c-2.51-.1-5.12-.13-7.83-.06-3,.08-5.83.26-8.56.53l.46,17.92C110.89,519.41,113.77,519.45,116.73,519.37Z"/><path class="cls-17" d="M116.73,519.37c2.69-.07,5.31-.22,7.81-.46l-.46-18h0c-2.51-.1-5.12-.13-7.83-.06-3,.08-5.83.26-8.56.53l.46,17.92C110.89,519.41,113.77,519.45,116.73,519.37Z"/><path class="cls-15" d="M116.73,519.37c2.69-.07,5.31-.22,7.81-.46l-.46-18h0c-2.51-.1-5.12-.13-7.83-.06-3,.08-5.83.26-8.56.53l.46,17.92C110.89,519.41,113.77,519.45,116.73,519.37Z"/><path class="cls-12" d="M78.22,502c1.32-.47,2.76-.92,4.26-1.34s3.22-.86,5-1.25c2.25-.51,4.59-1,7.1-1.39h0l-.2-7.95a8.19,8.19,0,0,0-2.69-5.67l-.08-.06a8,8,0,0,0-1.15-.86,2.8,2.8,0,0,0-.3-.15,8.31,8.31,0,0,0-1.08-.53c-.16-.06-.34-.1-.51-.15a8.14,8.14,0,0,0-1-.26c-.22,0-.46,0-.7-.06s-.47-.07-.72-.07l-.19,0a9,9,0,0,0-.91.09c-.23,0-.46.05-.69.1a10.17,10.17,0,0,0-1,.31c-.17.07-.34.11-.5.18a9.84,9.84,0,0,0-1.06.58l-.29.17a8.71,8.71,0,0,0-1.1.91.27.27,0,0,1-.08.07,8.19,8.19,0,0,0-2.37,5.8Z"/><path class="cls-17" d="M78.22,502c1.32-.47,2.76-.92,4.26-1.34s3.22-.86,5-1.25c2.25-.51,4.59-1,7.1-1.39h0l-.2-7.95a8.19,8.19,0,0,0-2.69-5.67l-.08-.06a8,8,0,0,0-1.15-.86,2.8,2.8,0,0,0-.3-.15,8.31,8.31,0,0,0-1.08-.53c-.16-.06-.34-.1-.51-.15a8.14,8.14,0,0,0-1-.26c-.22,0-.46,0-.7-.06s-.47-.07-.72-.07l-.19,0a9,9,0,0,0-.91.09c-.23,0-.46.05-.69.1a10.17,10.17,0,0,0-1,.31c-.17.07-.34.11-.5.18a9.84,9.84,0,0,0-1.06.58l-.29.17a8.71,8.71,0,0,0-1.1.91.27.27,0,0,1-.08.07,8.19,8.19,0,0,0-2.37,5.8Z"/><path class="cls-15" d="M78.22,502c1.32-.47,2.76-.92,4.26-1.34s3.22-.86,5-1.25c2.25-.51,4.59-1,7.1-1.39h0l-.2-7.95a8.19,8.19,0,0,0-2.69-5.67l-.08-.06a8,8,0,0,0-1.15-.86,2.8,2.8,0,0,0-.3-.15,8.31,8.31,0,0,0-1.08-.53c-.16-.06-.34-.1-.51-.15a8.14,8.14,0,0,0-1-.26c-.22,0-.46,0-.7-.06s-.47-.07-.72-.07l-.19,0a9,9,0,0,0-.91.09c-.23,0-.46.05-.69.1a10.17,10.17,0,0,0-1,.31c-.17.07-.34.11-.5.18a9.84,9.84,0,0,0-1.06.58l-.29.17a8.71,8.71,0,0,0-1.1.91.27.27,0,0,1-.08.07,8.19,8.19,0,0,0-2.37,5.8Z"/><path class="cls-14" d="M82.69,593.58c.12.13.23.26.36.38s.36.29.54.43.45.36.69.52.42.22.63.32a7.76,7.76,0,0,0,.77.37c.23.09.47.15.71.22s.53.16.82.21.51.05.76.07.46.06.69.06l.18,0a20.68,20.68,0,0,0,1.62-.2,7.58,7.58,0,0,0,.81-.25c.23-.08.47-.15.7-.25a5.35,5.35,0,0,0,.74-.41,6,6,0,0,0,.61-.35c.24-.17.45-.37.67-.56s.36-.28.52-.45.37-.45.55-.68a5.43,5.43,0,0,0,.42-.53,1.29,1.29,0,0,1,.09-.16A64.12,64.12,0,0,1,82.69,593.58Z"/><path class="cls-17" d="M82.69,593.58c.12.13.23.26.36.38s.36.29.54.43.45.36.69.52.42.22.63.32a7.76,7.76,0,0,0,.77.37c.23.09.47.15.71.22s.53.16.82.21.51.05.76.07.46.06.69.06l.18,0a20.68,20.68,0,0,0,1.62-.2,7.58,7.58,0,0,0,.81-.25c.23-.08.47-.15.7-.25a5.35,5.35,0,0,0,.74-.41,6,6,0,0,0,.61-.35c.24-.17.45-.37.67-.56s.36-.28.52-.45.37-.45.55-.68a5.43,5.43,0,0,0,.42-.53,1.29,1.29,0,0,1,.09-.16A64.12,64.12,0,0,1,82.69,593.58Z"/><path class="cls-15" d="M82.69,593.58c.12.13.23.26.36.38s.36.29.54.43.45.36.69.52.42.22.63.32a7.76,7.76,0,0,0,.77.37c.23.09.47.15.71.22s.53.16.82.21.51.05.76.07.46.06.69.06l.18,0a20.68,20.68,0,0,0,1.62-.2,7.58,7.58,0,0,0,.81-.25c.23-.08.47-.15.7-.25a5.35,5.35,0,0,0,.74-.41,6,6,0,0,0,.61-.35c.24-.17.45-.37.67-.56s.36-.28.52-.45.37-.45.55-.68a5.43,5.43,0,0,0,.42-.53,1.29,1.29,0,0,1,.09-.16A64.12,64.12,0,0,1,82.69,593.58Z"/><path class="cls-14" d="M84.66,521.58a28.27,28.27,0,0,1-2.68,5S92.73,538,85.92,542.83l-6.53,4.59v.65h0c1.1,1.67,4.91,7.76,4.5,11-.13,1-1.78,2.61-4.1,4.29l.41,16.13c5.65.81,12.31,2.22,16.52,4.6l-1.55-60.88L93.44,523C90.3,522.63,87.36,522.15,84.66,521.58Z"/><path class="cls-17" d="M84.66,521.58a28.27,28.27,0,0,1-2.68,5S92.73,538,85.92,542.83l-6.53,4.59v.65h0c1.1,1.67,4.91,7.76,4.5,11-.13,1-1.78,2.61-4.1,4.29l.41,16.13c5.65.81,12.31,2.22,16.52,4.6l-1.55-60.88L93.44,523C90.3,522.63,87.36,522.15,84.66,521.58Z"/><path class="cls-15" d="M84.66,521.58a28.27,28.27,0,0,1-2.68,5S92.73,538,85.92,542.83l-6.53,4.59v.65h0c1.1,1.67,4.91,7.76,4.5,11-.13,1-1.78,2.61-4.1,4.29l.41,16.13c5.65.81,12.31,2.22,16.52,4.6l-1.55-60.88L93.44,523C90.3,522.63,87.36,522.15,84.66,521.58Z"/><path class="cls-16" d="M88.35,505.84a38.66,38.66,0,0,1,6.32-2.21h0L94.54,498h0c-2.51.41-4.85.88-7.1,1.39-1.73.39-3.39.81-5,1.25s-2.93.87-4.25,1.35l.19,7.42A11.15,11.15,0,0,1,83.28,511s0,0,0,0C83.23,509.11,85.1,507.36,88.35,505.84Z"/><path class="cls-17" d="M88.35,505.84a38.66,38.66,0,0,1,6.32-2.21h0L94.54,498h0c-2.51.41-4.85.88-7.1,1.39-1.73.39-3.39.81-5,1.25s-2.93.87-4.25,1.35l.19,7.42A11.15,11.15,0,0,1,83.28,511s0,0,0,0C83.23,509.11,85.1,507.36,88.35,505.84Z"/><path class="cls-15" d="M88.35,505.84a38.66,38.66,0,0,1,6.32-2.21h0L94.54,498h0c-2.51.41-4.85.88-7.1,1.39-1.73.39-3.39.81-5,1.25s-2.93.87-4.25,1.35l.19,7.42A11.15,11.15,0,0,1,83.28,511s0,0,0,0C83.23,509.11,85.1,507.36,88.35,505.84Z"/><path class="cls-16" d="M95.18,523.24h0L95,517.72v0h0a28,28,0,0,1-9.35-3.38c.6,2.29-.09,5-1,7.28,2.7.57,5.64,1,8.78,1.44C94,523.09,94.58,523.18,95.18,523.24Z"/><path class="cls-17" d="M95.18,523.24h0L95,517.72v0h0a28,28,0,0,1-9.35-3.38c.6,2.29-.09,5-1,7.28,2.7.57,5.64,1,8.78,1.44C94,523.09,94.58,523.18,95.18,523.24Z"/><path class="cls-15" d="M95.18,523.24h0L95,517.72v0h0a28,28,0,0,1-9.35-3.38c.6,2.29-.09,5-1,7.28,2.7.57,5.64,1,8.78,1.44C94,523.09,94.58,523.18,95.18,523.24Z"/><path class="cls-12" d="M94.68,503.62h0a38.66,38.66,0,0,0-6.32,2.21c-3.25,1.52-5.12,3.28-5.08,5.11,0,0,0,0,0,0a5.56,5.56,0,0,1,2.41,3.31A28,28,0,0,0,95,517.68Z"/><path class="cls-17" d="M94.68,503.62h0a38.66,38.66,0,0,0-6.32,2.21c-3.25,1.52-5.12,3.28-5.08,5.11,0,0,0,0,0,0a5.56,5.56,0,0,1,2.41,3.31A28,28,0,0,0,95,517.68Z"/><path class="cls-15" d="M94.68,503.62h0a38.66,38.66,0,0,0-6.32,2.21c-3.25,1.52-5.12,3.28-5.08,5.11,0,0,0,0,0,0a5.56,5.56,0,0,1,2.41,3.31A28,28,0,0,0,95,517.68Z"/><path class="cls-18" d="M82.69,593.58a64.12,64.12,0,0,0,12.88-1.28h0c3.93-1,6.12-2.52,4.74-4.95a9.14,9.14,0,0,0-3.59-3.22c-4.21-2.38-10.87-3.79-16.52-4.6s-10.42-1-10.42-1l-1.12-9.24c.12,0,.25,0,.37-.08A44.54,44.54,0,0,0,79.8,563.4c2.32-1.68,4-3.3,4.1-4.29.41-3.28-3.4-9.37-4.5-11h0l-.29-.45.28-.2,6.53-4.59C92.73,538,82,526.55,82,526.55a28.27,28.27,0,0,0,2.68-5c.94-2.29,1.63-5,1-7.28A5.56,5.56,0,0,0,83.28,511a11.15,11.15,0,0,0-4.86-1.57h0c-.39,0-.79-.09-1.22-.11a23.08,23.08,0,0,0-10.48,1.93h0a29.73,29.73,0,0,0-4.53,2.44l-.57.37A45.49,45.49,0,0,0,50.3,525.45c-.07.11-.13.21-.19.29h0l-.22.33.26,1h0l.22.87.1.4,7,27.73a49.25,49.25,0,0,0-2.8,8.05c0,.06,0,.12,0,.19v0c-.61,2.39-.88,4.06-.88,4.06l2.44,6.71.13.37h0l1.21,3.32s-3,12.39,6.54,13.83c1.2.18,2.74.35,4.51.5h.17C72.72,593.46,77.77,593.67,82.69,593.58Z"/><path class="cls-18" d="M162.52,490.36s-4.63,5.29-3.3,11.24l.06.26v0a45.53,45.53,0,0,0,4.8,11.26c.27.45.43.7.43.7l-2,23.49s1.85-1.67,4.34-4.34h0l.13-.15h0l0-.05c6-6.45,15.45-18.43,12.68-27.21-2.67-8.46-9.53-12.41-13.74-14.1l-.19-.08A20.43,20.43,0,0,0,162.52,490.36Z"/></svg>