<?xml version="1.0" encoding="utf-8"?>
<!-- Generator: Adobe Illustrator 25.4.1, SVG Export Plug-In . SVG Version: 6.00 Build 0)  -->
<svg version="1.1" id="Layer_1" xmlns="http://www.w3.org/2000/svg" xmlns:xlink="http://www.w3.org/1999/xlink" x="0px" y="0px"
	 viewBox="0 0 420 655" style="enable-background:new 0 0 420 655;" xml:space="preserve">
<style type="text/css">
	.st0{fill:none;}
	.st1{fill:#0071BC;}
	.st2{fill:#2E3192;}
	.st3{fill:#AD926C;}
	.st4{fill:#FFCC99;}
	.st5{fill:#C1272D;}
	.st6{fill:#FF0000;}
	.st7{fill:#EC008C;}
	.st8{fill:#FFFFFF;}
	.st9{fill:#29ABE2;}
</style>
<path class="st0" d="M114.6,277.5c7.9,5.7,86.3-56.4,86.3-96.9l15.9-25.2c-0.1-0.1-0.1-0.2-0.2-0.2l-15.9,25.3
	c0,40.5-78.4,102.6-86.3,96.9c-0.2-0.1-0.4-0.3-0.5-0.5C114.1,277.1,114.3,277.3,114.6,277.5z"/>
<path class="st0" d="M113.8,357.1C113.8,357.1,113.8,357,113.8,357.1c0-0.1,1.8,12.5,1.7,24.4C115.6,370.4,114,358.7,113.8,357.1z"
	/>
<path class="st0" d="M202.8,230.3c0.9-1.8,1.6-3.7,2.1-5.6c0.1-0.3,0.1-0.6,0.2-0.9c0.9-4.6-1.8-9-6.2-10.4
	c4.7,1.5,7.4,6.6,5.9,11.3C204.3,226.7,203.6,228.5,202.8,230.3c-0.7,1.2-1.8,1.9-3.3,1.9c-1-0.3-2-0.7-3-1.1l-4.1-3.1
	c-1-0.8-1.5-1.9-1.4-3.1c0,0,0,0,0,0c-0.1,1.3,0.4,2.5,1.4,3.2l4.1,3.1c1,0.4,2,0.7,3,1.1c2.5,0.9,5,1.6,6.5,2c0,0,0,0,0,0
	c-1.6-0.4-3.9-1.1-6.3-2C201,232.2,202.2,231.5,202.8,230.3z"/>
<path class="st0" d="M210.9,212l-6.1-2.4c0,0-0.1,0-0.1,0l5.9,2.3c0.2,0.1,0.4,0.2,0.3,0.4c0.9,0.7,1.7,1.3,2.6,1.8
	c1.8,1,4.1,2,5.9,1.3c-1.8,0.5-4-0.4-5.6-1.4c0,0,0,0,0-0.1c-0.8-0.5-1.6-1-2.3-1.6C211.3,212.2,211.1,212.1,210.9,212z"/>
<path class="st0" d="M235,434.8c-1.3,1.3-2.5,2.6-3.7,3.8C232.5,437.4,233.8,436.1,235,434.8z"/>
<path class="st0" d="M228.9,440.3c1.7-1.7,3.9-3.4,6.3-5.7l0,0C232.8,437,230.6,438.6,228.9,440.3z"/>
<path class="st0" d="M198.1,199.8c4.5-5.7,13.4-3.1,18-1.3c0.1,0,0.2,0,0.3,0C211.9,196.7,202.7,193.9,198.1,199.8
	c0-0.1-1.2,1.1-1.2,2.1C196.9,200.9,198.1,199.7,198.1,199.8z"/>
<path class="st0" d="M178.1,261.3c1.5-1.2,4.3-3.4,7.8-4.5C182.4,257.9,179.6,260,178.1,261.3z"/>
<path class="st0" d="M191,271.6c0.1,0,0.2,0.1,0.3,0.1h0.3c1.9,0,3.3-0.7,4.3-1.7c-1,1-2.4,1.6-4.2,1.6H191z"/>
<path class="st0" d="M114.5,396.3C114.5,396.3,114.5,396.3,114.5,396.3C114.5,396.3,114.5,396.3,114.5,396.3z"/>
<path class="st0" d="M191,371.1c0.4,0.3,0.7,0.6,1.1,0.9c2,1.6,5.4,4.8,6.4,7.8c-0.2,0.1-0.5,0.2-0.7,0.2c0,0,0.1,0.1,0.1,0.2
	c0.3-0.1,0.7-0.2,1-0.3c0,0,0.1,0,0.1,0C197.2,375.5,191,371.1,191,371.1z"/>
<path class="st0" d="M185.4,281.8c-4.7,0.7-9.5-2.3-11.4-4.3c-3.8-3.9-8.3-10.5-7.1-12.5c0,0,0,0,0,0c-0.1,0-0.1,0.1-0.1,0.1
	c-1.1,2,3.3,8.6,7.1,12.5c1.9,2,6.6,5,11.4,4.3c3.6-0.5,6.8-2.2,7.9-4.8C192.1,279.7,188.9,281.3,185.4,281.8z"/>
<path class="st0" d="M203.1,370.3c-1-1.1-2.6-2.4-5.3-5.6C200.4,367.9,202.1,369.2,203.1,370.3z"/>
<path class="st0" d="M218.8,199.6c0.1,0.1,0.2,0.1,0.2,0.1c-0.7-0.8-1.6-1.2-2.6-1.2c0.1,0,0.2,0.1,0.3,0.1
	C217.5,198.7,218.2,199,218.8,199.6z"/>
<path class="st0" d="M114.7,396c-0.1,0.2-0.1,0.3-0.1,0.3C114.6,396.3,114.6,396.2,114.7,396z"/>
<path class="st0" d="M107.3,427l-7.6,35.2c0,2.8,0.2,9.9,0.3,19l0,0l20.7-28.3c0,0,0.9,0,0.2-1.7c0,0,0,0,0,0l-9.7-21.4c0,0,0,0,0,0
	c0,0,0,0,0,0c-1-2.2-2-4.2-2.8-5.9c0,0,0,0,0,0.1C108,425.1,107.7,426.1,107.3,427z"/>
<path class="st0" d="M193.7,232.4c0.3,0.1,0.6,0.3,0.9,0.4c0,0,0,0,0,0C194.2,232.7,193.9,232.5,193.7,232.4z"/>
<path class="st0" d="M196.4,213.2c1.3-2.4,2.3-4.2,2.3-4.2s-0.4,0.5-1.1,1.4c-0.4,0.8-1,1.8-1.6,3L196.4,213.2z"/>
<path class="st0" d="M198.2,213.2c0,0-0.1,0-0.1,0c-0.2-0.1-0.3-0.1-0.5-0.1c0.1,0,0.3,0,0.4,0.1
	C198.1,213.2,198.1,213.2,198.2,213.2z"/>
<path class="st0" d="M114.5,396.2c0,0,0-0.1,0-0.2C114.4,396.1,114.4,396.2,114.5,396.2z"/>
<path class="st0" d="M92.5,546.6l158.5,1.2c0,0,0,0,0,0L92.5,546.6c-0.2,0-0.4-0.1-0.7-0.1c-2.8-0.5-4.8-3.1-4.4-5.9
	c-0.1,0.2-0.1,0.4-0.1,0.7C87.3,544.2,89.6,546.6,92.5,546.6z"/>
<path class="st0" d="M191.8,222.2c0.8-2.1,1.9-4.4,3-6.6C193.6,217.7,192.5,220.1,191.8,222.2z"/>
<path class="st0" d="M197.9,212.6L197.9,212.6c-0.3,0.2-0.5,0.4-0.7,0.6c0,0,0,0,0,0C197.4,212.9,197.7,212.7,197.9,212.6z"/>
<path class="st0" d="M214.1,226c-0.5,0.1-0.8,0.4-1.1,0.7c-0.7,0.8-0.6,2.1,0.2,2.8c0.5,0.4,1.2,0.6,1.8,0.5
	c2.3-0.4-1.3,2.2-3.5,2.7c2-0.2,6.3-3.2,3.9-2.8c-0.7,0.1-1.3-0.1-1.8-0.5c-0.4-0.3-0.6-0.7-0.7-1.1c-0.2-1.1,0.4-2.1,1.5-2.4
	c5.3-1.8,8.9-12.8,6.8-11.6C222.6,214.3,219.1,224.3,214.1,226z"/>
<path class="st0" d="M197.5,234.8c3.1,1.6,6.3,1.9,7.8,2c-0.1,0-0.1-0.1-0.2-0.1C203.7,236.6,200.5,236.3,197.5,234.8z"/>
<path class="st0" d="M209.7,240.6c-1,1.8-2.9,4-6.5,6.9c0,0-3.7,3.1-7.8,2.4c-0.1,0-0.1,0-0.1,0c4.2,1,8.1-2.3,8.1-2.3
	c3.6-2.9,5.5-5.1,6.5-6.9c2.5,15.2-1.4,27.7-7.1,37.2c5.9-9.5,9.8-22.1,7.3-37.4c1.1-1.9,1-3.3,0.4-4.2c-0.1,0-0.3,0-0.4,0.1
	C210.6,237.3,210.8,238.7,209.7,240.6z"/>
<path class="st0" d="M209.2,234.2c0,0.1,0,0.3,0,0.5c0.1,0.5,0.6,1,1.7,1.5c0.1,0,0,0.1,0,0.1c0.4,0,0.6-0.1,0.4-0.2
	c-1.1-0.5-1.6-1-1.7-1.5c0-0.1,0-0.3,0-0.5c0.1-0.6,0.8-1.1,1.2-1.3c-0.1,0-0.1,0-0.2,0C210.6,232.8,209.4,233.4,209.2,234.2z"/>
<path class="st0" d="M110.8,309.3l-4.9-36.9c-0.2-2-0.7-4.7-1.2-7.6c1.7-9.1,5.3-18.7,13-24.4c0.1-0.3,0.2-0.5,0.2-0.5
	c-8.1,5.7-11.8,15.5-13.4,24.7c-1.3,7.7-1.5,15.5-0.7,23.3c0,0-0.5,11.9-12.8-5.7c-5.1-7.1-8-15.5-8.4-24.3c-0.2-3.4,0.1-6.7,0.9-10
	c-6.6-1.8-9.2-24.7-9.2-24.7s0,0.1-0.1,0.2c0.2,2,2.9,22.8,9.2,24.5c-0.8,3.3-1.1,6.6-0.9,10l-2.9,5.2c-0.1,0.2-0.2,0.3-0.3,0.4
	c-1.4,1.3-11.2,11.8-4.2,36.4c0.8,2.4,1.1,5,0.9,7.5h14.1h0.3c5.9,3.9,19.1,22.9,36.3,48.7c4.9,7.4,4.1,12.9,3.6,18.1
	c-0.9,9-8.1,14.6-14.8,18.1c0,0,0,0,0,0.1c-0.3,1.8-0.6,3.1-0.8,3.6c0.2-0.5,0.5-1.8,0.8-3.6c6.7-3.5,14-9.2,14.9-18.2
	c0.5-5.3,1.3-10.7-3.6-18.1c-17.3-25.8-30.5-44.8-36.3-48.7c-0.4-0.3-0.9-0.6-1.4-0.7c-5.1-1.2,1.6-0.6,2.2-0.3
	c2.7,1.3,10.1-0.2,14.6,0.4c1,0.2,1.9,0.6,2.6,1.3c0.7,0.6,1.4,1.3,2.1,2c14,14.2,22.3,33.3,28.8,39.4c-6.5-6.2-14.8-25.2-28.7-39.3
	C110.8,309.9,110.8,309.6,110.8,309.3z"/>
<path class="st0" d="M198.7,522C198.7,522,198.7,522,198.7,522c1.1-1.2,6.5-8,9.1-13.8C204.8,514.5,198.7,522,198.7,522z"/>
<path class="st0" d="M169.5,213.7c0,0,3.8-6.9,3.3-11.8c0.4,4.9-3.3,11.7-3.3,11.7c-27.9-21.1-32.8-9.1-32.8-9.2c0,0,0.1,0,0.1,0
	C137.6,202.9,143.8,194.3,169.5,213.7z"/>
<path class="st0" d="M161,538.4c-7.4,0.1-15.2-5.2-22.1-12c7,6.9,14.8,12.2,22.2,12.1c20.6-0.3,24.8-6,24.8-6s-0.1,0-0.3,0.1
	C184.6,533.7,179.2,538.1,161,538.4z"/>
<path class="st0" d="M179.8,215C179.9,214.9,179.9,214.9,179.8,215l-8-1.1c0,0,0,0.1,0,0.1L179.8,215z"/>
<path class="st0" d="M173.7,204.3c0.1-3.2-1-3.2-1-3.2c0,0,0,0.1,0,0.1C172.8,201.2,173.8,201.4,173.7,204.3z"/>
<path class="st0" d="M185.7,444.3c-2.2,2.3-30.2,12.9-43-9.3C155.5,457.3,183.5,446.6,185.7,444.3z"/>
<path class="st0" d="M182.6,444.5c-14.7,4.4-39.8-9.5-39.9-9.5C142.7,435,167.9,449,182.6,444.5z"/>
<path class="st0" d="M205.1,516.8c1.6-3.1,2.6-6.9,3.2-9.9c0,0.1-0.1,0.2-0.1,0.3C207.6,510.1,206.6,513.8,205.1,516.8z"/>
<path class="st0" d="M208.3,506.8c0,0,0,0.1,0,0.1c0.7-1.5,0.9-3.1,0.8-4.7c0,0,0,0.3-0.1,0.8C209,504.3,208.8,505.5,208.3,506.8z"
	/>
<path class="st0" d="M117,497.2C117,497.2,117,497.2,117,497.2c1.8,2.3,3.6,4.4,5.3,6.4C120.6,501.6,118.8,499.5,117,497.2z"/>
<path class="st0" d="M179.9,185.5c0,0,0.8,2.7,0.8,5.2c0.1-2.5-0.8-5.3-0.8-5.3c-10.7-18.3-40.8-11.7-40.8-11.8c0.3,0,0.5,0,0.8,0.1
	C144.6,172.8,170.2,169,179.9,185.5z"/>
<path class="st1" d="M216.6,155.1c0.1,0.1,0.1,0.2,0.2,0.2l0.1-0.2c11.8,14.4,6.1,45.8-1,55.9c-0.7,1-1.3,2-1.8,3
	c-0.1,0-0.2-0.1-0.3-0.2c0,0,0,0,0,0.1c1.6,1,3.8,1.9,5.6,1.4c0.4-0.1,0.8-0.4,1.1-0.7c0.3-0.3,0.5-0.4,0.7-0.4
	c2.1-1.2-1.5,9.8-6.8,11.6c-1.1,0.3-1.7,1.3-1.5,2.4c0.1,0.4,0.3,0.8,0.7,1.1c0.5,0.4,1.1,0.6,1.8,0.5c2.4-0.4-1.9,2.6-3.9,2.8
	c-0.3,0.1-0.5,0.1-0.7,0.1c-0.4,0.2-1,0.7-1.2,1.3c0,0.2,0,0.4,0,0.5c0.1,0.5,0.6,1,1.7,1.5c0.2,0.1-0.1,0.2-0.4,0.2
	c-0.1,0-0.2,0-0.3,0.1c0.6,0.9,0.7,2.3-0.4,4.2c2.5,15.4-1.4,27.9-7.3,37.4c-2.9,4.8-6.2,8.8-9.5,12.1l0.3,0.9
	c0,0,10.1,13.4,19,16.4c8.9,3,7.1-11.3,5.3-8.3s-5.3-3-5.3-3l8.1-13c6.6-10.9,12.3-22.5,16.8-34.4c6.5-17.8-6.5-20.8-6.5-20.8
	s20.8-29.1,23.1-59.3c2.4-30.2-14.2-32-14.2-32l-13.1-4c-0.7,4.7-2.1,9.2-4.3,13.4l-4.6,7.2l-1.2,1.8L216.6,155.1z"/>
<path class="st2" d="M153.3,296.5c-0.8,3.3-0.9,6.7-0.2,10.1l6.2,17.2c4.6,1.6,8.1,0.3,10.5-0.5c4.7-1.6,0.8-1.9-0.2-2.2
	c-1.9-0.6-4.2-2.7-5.4-8.5c-1.1-5.2-1.9-10.4-2.4-15.7c-2.6-0.8-5.3-1.6-8.1-2.8C153.6,294.9,153.5,295.7,153.3,296.5z"/>
<path class="st3" d="M387.2,320.5c-0.6-3.5-37.7-14.3-39.7-14.7l-27.5-2.5c19.5-6.1,15.6-12.6,15.6-12.6l-38,0.8
	C261,304.1,265,306.3,265,324.4v83c-16.1-16.3-25.5-27.1-32.2-32.3c1.6,2.3,3.2,4.6,4.7,6.9c0.1,0.1,0.2,0.2,0.3,0.3
	c1.4,1.2,2.8,2.6,4,4.1c8.7,10.7,6.9,25.8,5.6,28.9c-0.9,2.1-1.7,4-2.6,5.7c-1.6,3.7-3.8,7.2-6.5,10.2c-1,1.2-2,2.3-3.1,3.4
	c-0.1,0.1-0.1,0.2-0.2,0.2c-1.2,1.3-2.5,2.6-3.7,3.8c0,0,0,0,0,0c0,0-0.1,0.1-0.1,0.1c0.9,0.9,1.8,1.9,2.8,2.8
	c27.5,27.5,59.2,40.9,76.7,39.4c1.4,0.2,2.8,0.4,4.2,0.3c2.1-0.1,4-1.2,5.1-2.9l0.9-1.4c2.2-2.1,3-5.1,2.1-8
	c4-33.3-23.5-125.2-23.5-125.2c62.7,4.2,87.4-12.7,86.4-15.2C383.8,323.4,387.6,322.7,387.2,320.5z"/>
<path class="st3" d="M235.1,434.6C235.2,434.6,235.2,434.6,235.1,434.6C235.2,434.6,235.2,434.6,235.1,434.6L235.1,434.6z"/>
<path class="st4" d="M251,547.8L251,547.8C251,547.8,251,547.8,251,547.8l-158.5-1.2c-2.9,0-5.2-2.4-5.2-5.3c0-0.3,0-0.4,0.1-0.7
	c0-0.1,0-0.1,0-0.2l8.8-53c0.1-0.8,0.4-1.5,0.9-2.2l2.9-4c-0.1-9.1-0.3-16.2-0.3-19l7.6-35.2c0.4-0.9,0.7-1.9,1.1-3c0,0,0,0,0-0.1
	c0,0,0,0,0,0c2.5-7.9,4.7-19.8,6.2-29.7c0,0,0,0,0,0c0-0.5,0.1-0.9,0.2-1.5c0.5-3.3,0.8-7.2,0.8-11.2c0-11.9-1.8-24.5-1.8-24.5
	c0,0,0,0.1,0,0.1c0-0.1,0-0.2,0-0.2c4.2,13.4,2.9,28.4,1.7,35.4c6.7-3.5,13.9-9.2,14.8-18.1c0.5-5.2,1.3-10.7-3.6-18.1
	c-17.2-25.8-30.4-44.8-36.3-48.7h-0.3H76v0c0,0,0,0,0,0c-1,7.2-8.9,6.7-16,4.5c-14.5,27.2,0.4,126.6,0.4,136.9l-25,97.8h56.4
	c1.1-0.1,6.5-1.5,7-2.4c19.4-0.3,45.6-1,70.3-1.1c6.2,1.7,18.3,4.7,37.5,4.7c57.7,0,140.6,0,167.5,0c8.2,0,5-11.2,7.7-22.1
	c0.9-3.5,2.6-24.2-14-27.2c-23-4.1-48-2.9-71.6,0.7c-3.4,1.7-6.9,3-10.6,3.9c-4.7,1.2-8.3,3.9-11.4,7.5
	c-7.9,9.3-11.7,24.5-18.7,34.9C254.6,547,252.8,547.8,251,547.8z"/>
<path class="st4" d="M221.3,460.9c-0.5,0.7-1.1,1.4-1.7,2C220.3,462.3,220.8,461.6,221.3,460.9z"/>
<path class="st4" d="M197.6,351.7c7.2,8.9,5.9,10.8,17.2,18.1c4.4,2.9,14.5,5.4,22.6,12.2c-1.4-2.3-3.1-4.7-4.7-7
	c-6.8-9.4-14.3-18.3-14.1-20.2c0.4-6.9-17.8-13.5-34-18.7c0.2,0.7,0.6,1.6,0.9,2.4C187.1,343.8,192.5,345.5,197.6,351.7z"/>
<path class="st4" d="M120.9,451.2c-3.9-9.1-7.1-16-9.7-21.4c0,0,0,0,0,0L120.9,451.2z"/>
<path class="st4" d="M209.9,240.7c-1,1.8-2.9,4-6.5,6.9c0,0-3.9,3.3-8.1,2.3c0,0,0,0,0.1,0c-0.1,0-0.2,0-0.3-0.1
	c0,0,12.4-5.7,12.4-10.4c0-1.1-0.8-1.8-2.2-2.6c-1.5-0.1-4.7-0.4-7.8-2c-1-0.5-2-1.2-2.9-2c-0.3-0.1-0.6-0.3-0.9-0.4
	c-2.1-1-3.6-2.1-3.9-3.8c-1.2-7.1,8.7-19.7,8.7-19.7s-0.3,0.6-0.9,1.5c0.7-0.9,1.1-1.4,1.1-1.4s-1,1.8-2.3,4.2l6.4-3.6
	c0.5-0.3,1.1-0.3,1.7-0.1l0.2,0.1c0,0,0.1,0,0.1,0l6.1,2.4c0.2,0.1,0.4,0.2,0.6,0.3c0.7,0.6,1.5,1.2,2.3,1.6
	c0.1,0.1,0.2,0.1,0.3,0.2c0.5-1,1.1-2,1.8-3c7.1-10.1,12.8-41.5,1-55.9l-0.1,0.2l-15.9,25.2c0,40.5-78.4,102.6-86.3,96.9
	c-0.3-0.2-0.5-0.4-0.7-0.7c-6.3-6.3,2.5-32.6,3.9-36.4c-7.7,5.7-11.4,15.4-13,24.4c0.5,2.9,1,5.6,1.2,7.6l4.9,36.9
	c0,0.3,0,0.6-0.1,0.9c13.9,14.1,22.2,33.1,28.7,39.3c0.9,0.9,1.8,1.5,2.7,1.8c52.9,17.3,38.8,26.8,55.5,28.9h0.2c0,0,0,0,0,0
	c0,0-0.1-0.1-0.1-0.2c-0.1,0-0.2,0-0.3,0.1c-1.5-2.7-4-6.9-6.9-9.2c0,0,0.6,0.4,1.5,1.1c-0.4-0.3-0.7-0.7-1.1-0.9
	c0,0,6.2,4.4,7.9,8.8c2.1-0.7,5.9-3,5.3-7.2c-0.2-1-0.5-1.7-1.1-2.4c-1-1.1-2.7-2.4-5.3-5.6c-1.3-1.6-2.8-3.5-4.7-6.2
	c-8.1-11.7-20.2-24.5-23.8-26.8c-0.7-0.4-0.7-0.6-0.4-0.7c-5.1-1.7-8.4-3-8.4-3.9l-1.2-3.2l0-0.1l-6.2-17.2
	c-0.7-3.4-0.6-6.8,0.2-10.1c0.2-0.8,0.3-1.6,0.4-2.4c2.9,1.1,5.5,2,8.1,2.8c0.1,0,0.3,0.1,0.4,0.1c5.1,1.6,10.5,2.6,15.8,2.9
	c1.9,0,8.5-3.4,15.3-9.8c0,0,0,0,0,0c3.3-3.3,6.6-7.4,9.5-12.1C208.5,268.4,212.4,255.9,209.9,240.7z M198.1,199.7
	c4.6-5.8,13.8-3,18.3-1.2c1,0,1.9,0.4,2.6,1.2c0,0-0.1,0-0.2-0.1c0.1,0.1,0.2,0.1,0.2,0.2c0,0-1-0.6-2.6-1.2
	c-5.4-0.6-16.1,4.9-18.3,4.4c-0.8-0.2-1.1-0.6-1.2-1.1C196.9,200.9,198.1,199.7,198.1,199.7z M185.3,281.9
	c-4.8,0.7-9.5-2.3-11.4-4.3c-3.8-3.9-8.2-10.5-7.1-12.5c0,0,0.1-0.1,0.1-0.1c0.4-0.6,5.3-1.4,6.8-1.6c0.3-0.1,0.6-0.2,0.9-0.3
	c1.1-0.4,2.2-0.9,3.2-1.5c0.1-0.1,0.2-0.2,0.3-0.3c1.5-1.3,4.3-3.5,7.8-4.5c2.3-0.7,4.8-0.9,7.5,0c2.8,0.9,4.4,3.8,5,5.4
	c0.3,0.7,0.3,1.4,0.2,2.2c-0.3,1.4-0.9,3.9-2.7,5.5c-1,1-2.4,1.7-4.3,1.7h-0.3c1,0.4,1.8,1.3,2.1,2.4c0.2,1.1,0.1,2.1-0.2,3
	C192.1,279.7,188.9,281.4,185.3,281.9z"/>
<path class="st4" d="M198.3,212.3c-0.2,0.1-0.3,0.2-0.5,0.3l0.1,0C198,212.5,198.2,212.4,198.3,212.3z"/>
<path class="st4" d="M216.4,198.6c0.1,0,0.2,0,0.3,0C216.6,198.6,216.5,198.5,216.4,198.6c-0.1-0.1-0.2-0.1-0.3-0.1
	C216.2,198.5,216.3,198.6,216.4,198.6z"/>
<path class="st4" d="M238.3,431.2c2.7-3,4.9-6.5,6.5-10.2C243.1,424.6,240.9,428.1,238.3,431.2z"/>
<path class="st4" d="M231.2,438.7c1.2-1.2,2.4-2.5,3.7-3.8c0.1-0.1,0.1-0.2,0.2-0.2c0,0,0,0-0.1,0c-2.4,2.3-4.6,4-6.3,5.7
	c-1.7,1.6-2.9,3.3-3.4,5.6c1.6-2.6,3.5-5,5.7-7.1C231.1,438.8,231.2,438.7,231.2,438.7C231.2,438.7,231.2,438.7,231.2,438.7z"/>
<path class="st5" d="M76,307.4c0.2-2.5-0.1-5.1-0.9-7.5c-7-24.6,2.8-35.1,4.2-36.4c0.1-0.1,0.2-0.2,0.3-0.4l2.9-5.2
	c-0.2-3.4,0.1-6.7,0.9-10c-6.3-1.7-8.9-22.5-9.2-24.5c-0.6,1.3-4.5,9.5-7.3,10.7c-1,0.5-1.9,0.2-2.5-1.7c-2.2-7.5-1.3-13.6-5.3-27.7
	c-3-10.7,11.1-39.1,22-61.5c3.4-7,6.6-13.5,8.8-18.6c1.9-4.4,6.3-8,12.4-11c-11.7-1.2-29-1.3-35.8,7.4
	c-10.6,13.7-26.4,23.8-26.4,40.5s2.6,44,2.6,44s-18.5,8.8-5.7,46.7c11.3,33.5,17.1,41.1,18.3,42.5c0.2,0.2,0.3,0.4,0.3,0.6
	c0.4,1.7,1.8,8.5-0.2,10.5c-0.6,0.7-5.7,1.5-4.9,1.9c2.9,1.6,6,3,9.2,4C67.1,314,75,314.5,76,307.4C76,307.4,76,307.4,76,307.4
	L76,307.4z"/>
<path class="st6" d="M74.2,223.4c0.1-0.1,0.1-0.2,0.1-0.2s2.6,22.9,9.2,24.7c-0.8,3.3-1.1,6.6-0.9,10c0.4,8.8,3.3,17.2,8.4,24.3
	c12.3,17.6,12.8,5.7,12.8,5.7c-0.8-7.8-0.6-15.6,0.7-23.3c1.6-9.2,5.3-19,13.4-24.7c0,0-0.1,0.2-0.2,0.5
	c-1.3,3.8-10.2,30.2-3.9,36.4c0.2,0.2,0.3,0.3,0.5,0.5c7.9,5.7,86.3-56.4,86.3-96.9l15.9-25.3l0.1-0.1l1.2-1.8l4.4-7.1
	c2.2-4.2,3.6-8.7,4.3-13.4c1.2-9.8-1.7-22-22.3-25.8c-28.7-5.2-78-4.6-101.6,6.7c-6.3,3-10.7,6.6-12.6,11
	c-2.2,5.1-5.3,11.6-8.8,18.6c-11,22.4-25.1,50.8-22,61.5c4,14.1,3.1,20.3,5.3,27.7c0.5,1.8,1.4,2.2,2.4,1.7
	C69.8,232.8,73.6,224.7,74.2,223.4z M139.1,173.6c0,0.1,30.1-6.5,40.8,11.8c0,0,0.8,2.8,0.8,5.3c0,1.1-0.2,2.2-0.8,2.9
	c-1.7,2.2-12.1-18.6-40.8-19.8c0,0,0.3-0.1,0.8-0.1C139.6,173.6,139.4,173.6,139.1,173.6z M176.3,199.7l-11.4-8.8
	C164.9,190.9,176.3,195.5,176.3,199.7z M136.7,204.4c0,0.1,4.9-11.9,32.8,9.2c0,0,3.7-6.8,3.3-11.7c0-0.2,0-0.5-0.1-0.7c0,0,0,0,0,0
	c0,0,0-0.1,0-0.1c0,0,1.1,0,1,3.2c0,1.4-0.3,3.5-1,6.6c-0.3,1.3-0.6,2.2-0.9,3l8.1,1c0,0,0,0-0.1,0.1l0.1,0c0,0-3.5,6.2-9.5,5.5
	c0,0-25.9-17.1-33.7-15.9c0,0,0-0.1,0.1-0.2C136.8,204.4,136.7,204.4,136.7,204.4z"/>
<path d="M213.5,214.1c-0.9-0.5-1.7-1.1-2.6-1.8c0.1-0.2-0.1-0.3-0.3-0.4l-5.9-2.3l-0.2-0.1c-0.6-0.2-1.2-0.2-1.7,0.1l-6.4,3.6
	l-0.4,0.2c0.6-1.2,1.2-2.2,1.6-3c0.5-1,0.9-1.5,0.9-1.5s-9.9,12.6-8.7,19.7c0.3,1.7,1.8,2.8,3.9,3.8c0.3,0.1,0.6,0.3,0.8,0.4
	c0,0,0,0,0,0c0.9,0.8,1.9,1.5,2.9,2c3.1,1.5,6.2,1.8,7.6,1.9c0.1,0,0.1,0.1,0.2,0.1c1.4,0.8,2.2,1.5,2.2,2.6
	c0,4.7-12.4,10.4-12.4,10.4c0.1,0,0.2,0,0.3,0.1c4.1,0.8,7.8-2.4,7.8-2.4c3.6-2.9,5.5-5.1,6.5-6.9c1.1-1.9,0.9-3.3,0.4-4.2
	c0.2,0,0.3,0,0.4-0.1c0.2,0,0.3,0,0.3-0.1c0.1,0,0.1,0,0-0.1c-1.1-0.5-1.6-1-1.7-1.5c0-0.2,0-0.4,0-0.5c0.2-0.8,1.4-1.4,1.4-1.4
	c0.1,0,0.1,0,0.2,0c0.2,0,0.5,0,0.7-0.1c2.1-0.5,5.8-3.2,3.5-2.7c-0.6,0.1-1.3-0.1-1.8-0.5c-0.8-0.7-0.9-2-0.2-2.8
	c0.3-0.3,0.6-0.6,1.1-0.7c5-1.7,8.5-11.7,7.1-11.7c-0.2,0-0.4,0.1-0.7,0.4c-0.3,0.3-0.7,0.5-1.1,0.7
	C217.6,216.1,215.3,215.1,213.5,214.1z M211.8,221.2c-1.1,3.3-4,12-5.3,12.8c-0.1,0.1-0.2,0.2-0.3,0.3c0,0-0.1,0-0.2,0c0,0,0,0,0,0
	c-1.5-0.4-4-1.1-6.5-2c-1-0.4-2-0.7-3-1.1l-4.1-3.1c-1-0.7-1.5-1.9-1.4-3.2c0,0,0,0,0,0c0,0,0-0.1,0-0.1c0.2-0.8,0.4-1.7,0.8-2.6
	c0.7-2.1,1.8-4.5,3-6.6c0.3-0.6,0.6-1.1,0.9-1.7c0.4-0.4,0.9-0.6,1.5-0.7c0,0,0.1,0,0.1,0c0.2-0.2,0.4-0.4,0.6-0.6
	c0.1-0.1,0.3-0.2,0.5-0.3c0.5-0.3,1-0.5,1.5-0.5c2.7,0.1,5.4,0.7,8,1.6c0.8,0.2,1.4,0.8,1.9,1.6l1.9,3.8
	C212,219.6,212.1,220.4,211.8,221.2z"/>
<path d="M164.9,190.9l11.4,8.8C176.3,195.5,164.9,190.9,164.9,190.9z"/>
<path d="M170.4,220.5c6,0.7,9.5-5.5,9.5-5.5l-0.1,0l-8-1c0,0,0-0.1,0-0.1c0.3-0.8,0.6-1.8,0.9-3c0.7-3.1,1-5.2,1-6.6
	c0-2.9-0.9-3.1-1-3.1c0,0,0,0,0,0c0,0.2,0.1,0.5,0.1,0.7c0.5,4.9-3.3,11.8-3.3,11.8c-25.7-19.4-31.9-10.8-32.7-9.3
	c-0.1,0.1-0.1,0.2-0.1,0.2C144.5,203.4,170.4,220.5,170.4,220.5z"/>
<path d="M179.9,193.6c0.5-0.7,0.7-1.8,0.8-2.9c0-2.4-0.8-5.2-0.8-5.2c-9.7-16.5-35.3-12.7-40-11.8c-0.5,0.1-0.8,0.1-0.8,0.1
	C167.8,175,178.2,195.8,179.9,193.6z"/>
<path d="M198.1,203c2.2,0.5,12.9-5,18.3-4.4c-0.1,0-0.2-0.1-0.3-0.1c-4.6-1.8-13.5-4.4-18,1.3c0-0.1-1.2,1.1-1.2,2.1
	C197,202.4,197.3,202.8,198.1,203z"/>
<path d="M216.4,198.6c1.6,0.6,2.6,1.2,2.6,1.2c-0.1-0.1-0.2-0.1-0.2-0.2c-0.6-0.6-1.3-0.9-2.1-1
	C216.6,198.6,216.5,198.6,216.4,198.6z"/>
<path class="st7" d="M174,277.5c1.9,2,6.7,5,11.4,4.3c3.5-0.5,6.7-2.1,7.8-4.7c0.4-0.9,0.5-1.9,0.2-3c-0.3-1.1-1.1-2-2.1-2.4
	c-0.1,0-0.2-0.1-0.3-0.1h0.7c1.9,0,3.2-0.7,4.2-1.6c1.7-1.6,2.4-4,2.7-5.5c0.1-0.8,0.1-1.5-0.2-2.2c-0.6-1.6-2.2-4.5-5-5.4
	c-2.6-0.9-5.2-0.7-7.5,0c-3.5,1-6.3,3.2-7.8,4.5c-0.1,0.1-0.2,0.2-0.3,0.3c-1,0.6-2.1,1.1-3.2,1.5c-0.3,0.1-0.6,0.2-0.9,0.3
	c-1.5,0.2-6.4,1-6.8,1.6c0,0,0,0,0,0C165.7,267,170.2,273.6,174,277.5z"/>
<path class="st8" d="M209.7,215c-0.5-0.8-1.1-1.4-1.9-1.6c-2.6-0.9-5.3-1.5-8-1.6c-0.5,0.1-1.1,0.2-1.5,0.5
	c-0.1,0.1-0.3,0.2-0.4,0.3c-0.2,0.2-0.5,0.4-0.7,0.6c0.1,0,0.3-0.1,0.4,0c0.2,0,0.3,0,0.5,0.1c0,0,0.1,0,0.1,0
	c0.2,0,0.5,0.1,0.7,0.2c0,0,0,0,0,0c4.4,1.3,7.1,5.8,6.2,10.4c-0.1,0.3-0.1,0.6-0.2,0.9c-0.5,1.9-1.2,3.8-2.1,5.6
	c-0.6,1.2-1.8,1.9-3.1,2c2.4,0.9,4.7,1.6,6.3,2c0.1,0,0.1,0,0.2,0c0.1-0.1,0.2-0.2,0.3-0.3c1.3-0.8,4.2-9.5,5.3-12.8
	c0.3-0.8,0.2-1.6-0.2-2.4L209.7,215z"/>
<path class="st9" d="M196.5,231.1c1,0.4,2,0.8,3,1.1c1.5,0,2.6-0.7,3.2-1.9c0.9-1.8,1.6-3.6,2.1-5.6c1.5-4.7-1.2-9.8-5.9-11.3
	c0,0,0,0,0,0c-0.2-0.1-0.5-0.1-0.7-0.2c-0.1,0-0.1,0-0.2,0c-0.1,0-0.3-0.1-0.4-0.1c-0.1,0-0.3,0-0.4,0c0,0,0,0,0,0c0,0-0.1,0-0.1,0
	c-0.6,0.1-1.1,0.3-1.5,0.7c-0.3,0.5-0.6,1.1-0.9,1.7c-1.1,2.2-2.2,4.5-3,6.6c-0.3,0.9-0.6,1.8-0.8,2.6c0,0,0,0.1,0,0.1
	c-0.1,1.2,0.4,2.3,1.4,3.1L196.5,231.1z"/>
<path d="M192.1,372c-0.9-0.7-1.5-1.1-1.5-1.1c2.9,2.3,5.4,6.5,6.9,9.2c0.1,0,0.2,0,0.3-0.1c0.3-0.1,0.5-0.1,0.7-0.2
	C197.5,376.8,194.1,373.7,192.1,372z"/>
<path d="M185.7,444.3c0.5-0.5-0.4-0.6-3.1,0.2c-14.7,4.5-39.9-9.5-39.9-9.5C155.5,457.2,183.5,446.6,185.7,444.3z"/>
<path d="M185.6,532.6c-3,1.2-29.6,9.7-63.3-29c-1.7-2-3.5-4.1-5.2-6.3c0.7,1.3,10,17.4,21.9,29.1c6.9,6.8,14.7,12.1,22.1,12
	C179.2,538.1,184.6,533.7,185.6,532.6z"/>
<path d="M209,503c-0.1,0.8-0.3,2.2-0.7,3.8C208.8,505.5,209,504.3,209,503z"/>
<path d="M207.8,508.2c-2.5,5.8-8,12.6-9,13.8c2.7,0,4.8-2.2,6.3-5.2c1.5-3,2.5-6.7,3.1-9.6C208.1,507.5,207.9,507.8,207.8,508.2z"/>
<path d="M115.5,392.3c1.2-7,2.5-22.1-1.7-35.4c0,0,0,0.1,0,0.2c0.2,1.6,1.8,13.3,1.7,24.4c0,4-0.2,7.9-0.8,11.2
	c-0.1,0.6-0.2,1-0.2,1.5c0,0,0,0,0,0c0,0,0,0,0,0c-0.1,0.9-0.2,1.5-0.2,1.8c0,0.1,0,0.2,0,0.2c0,0,0,0,0,0.1c0,0,0,0,0.1,0
	c0,0,0.1-0.1,0.1-0.3C114.9,395.5,115.2,394.2,115.5,392.3C115.5,392.4,115.5,392.4,115.5,392.3z"/>
<path class="st7" d="M235.1,434.6C235.2,434.6,235.2,434.6,235.1,434.6c1.2-1.1,2.2-2.2,3.2-3.4c2.6-3.1,4.8-6.6,6.5-10.2
	c0.9-1.7,1.7-3.6,2.6-5.7c1.3-3.1,3.1-18.2-5.6-28.9c-1.2-1.5-2.6-2.9-4-4.1c-0.1-0.1-0.2-0.2-0.3-0.3c0,0-0.1,0-0.1-0.1
	c-8.1-6.7-18.2-9.3-22.6-12.2c-11.3-7.3-10-9.2-17.2-18.1c-5.1-6.2-10.5-7.9-12.1-13.2c-0.3-0.9-0.7-1.7-0.9-2.4c0,0,0,0,0-0.1
	l-0.2-0.4c-0.9-0.4-1.9-0.7-2.8-1c-4.3-2.1-5.4-2.9-7-2.9c-0.5,0-4.7-0.9-5.7-0.7c0,0,0,0,0,0c-0.2,0.1-0.2,0.3,0.4,0.7
	c3.6,2.3,15.7,15.1,23.8,26.8c1.8,2.6,3.4,4.6,4.7,6.2c2.7,3.2,4.4,4.5,5.3,5.6c0.6,0.7,1,1.3,1.1,2.4c0.6,4.1-3.2,6.4-5.3,7.2
	c0,0-0.1,0-0.1,0c-0.3,0.1-0.7,0.2-1,0.3c0,0,0,0,0,0h-0.2c-16.7-2.1-2.6-11.6-55.5-28.9c-0.9-0.3-1.8-0.9-2.7-1.8
	c-6.5-6.1-14.8-25.3-28.8-39.4c-0.7-0.7-1.4-1.4-2.1-2c-0.7-0.7-1.6-1.1-2.6-1.3c-4.5-0.6-11.9,0.9-14.6-0.4
	c-0.6-0.3-7.3-0.9-2.2,0.3c0.5,0.1,1,0.4,1.4,0.7c5.8,3.9,19,22.9,36.3,48.7c4.9,7.4,4.1,12.8,3.6,18.1c-0.9,9-8.2,14.7-14.9,18.2
	c-0.3,1.8-0.6,3.1-0.8,3.6c-0.1,0.2-0.1,0.3-0.1,0.3c0,0,0,0-0.1,0c0,0,0,0,0-0.1c0,0,0-0.1,0-0.2c0-0.3,0-0.9,0.2-1.8c0,0,0,0,0,0
	c-1.5,9.9-3.7,21.8-6.2,29.7c0,0,0,0,0,0c0.8,1.7,1.8,3.7,2.8,5.9c0,0,0,0,0,0c2.6,5.4,5.8,12.3,9.7,21.4c0,0,0,0,0,0
	c0.7,1.7-0.2,1.7-0.2,1.7L100,481.2l0,0l-2.9,4c-0.5,0.7-0.8,1.4-0.9,2.2l-8.8,53c0,0.1,0,0.1,0,0.2c-0.4,2.8,1.6,5.4,4.4,5.9
	c0.3,0,0.5,0.1,0.8,0.1l158.4,1.2l0.2,0c1.8,0,3.4-0.8,4.4-2.3c7-10.5,10.8-25.6,18.7-34.9c3.1-3.7,6.8-6.4,11.5-7.7
	c3.7-0.9,7.2-2.2,10.6-3.9c0.5-0.3,0.5-0.5-0.2-0.4c-22.6,3.9-55,10.7-66.1,15.5c-1.2,0.5-3.7-1.5-6.7-4c-4.7-3.9-10.5-9-14.3-7.9
	c0.1,1.6-0.1,3.2-0.8,4.7c-0.6,3-1.6,6.8-3.2,9.9c-1.5,3-3.6,5.2-6.3,5.2c0,0,0,0-0.1,0c0,0,6.1-7.5,9.1-13.8c0.2-0.3,0.3-0.7,0.4-1
	c0-0.1,0.1-0.2,0.1-0.3c0,0,0-0.1,0-0.1c0.4-1.6,0.6-3,0.7-3.8c0.1-0.5,0.1-0.8,0.1-0.8s0.4-1.1,0.9-3c2-6.5,6.4-22.1,5.9-32.4
	c0.1,0,2.2-2.3,3.8-4.1c0.6-0.6,1.2-1.3,1.7-2l0.1-0.1l0.1-0.1l0.3-0.5c3.5-6.1,1.4-4.9,3.5-13.9c0-0.1,0-0.1,0-0.2
	c0.5-2.3,1.7-4,3.4-5.6C230.6,438.6,232.8,437,235.1,434.6z M182.6,444.5c2.8-0.8,3.6-0.7,3.1-0.2c-2.2,2.3-30.3,13-43-9.3
	C142.8,435,167.9,448.9,182.6,444.5z M161.1,538.5c-7.4,0.1-15.3-5.2-22.2-12.1c-11.8-11.7-21.1-27.8-21.9-29.1c0-0.1,0-0.1,0-0.1
	c1.8,2.3,3.6,4.4,5.3,6.4c33.7,38.7,60.3,30.2,63.3,29c0.2-0.1,0.3-0.1,0.3-0.1S181.7,538.2,161.1,538.5z"/>
</svg>
