<svg id="Layer_1" data-name="Layer 1" xmlns="http://www.w3.org/2000/svg" width="610" height="810" viewBox="0 0 610 810"><defs><style>.cls-1{fill:#111;}.cls-2{fill:#fff;}.cls-3{fill:#2b2b2b;}</style></defs><path class="cls-1" d="M441.67,416.78v-.3c-48.36-21.08-77.16-90.08-77.16-90.08-24.89,34.54-64.22,86.77-76.6,90.08-18.6,4.95-157.49-34.72-157.49-34.72L167.62,339c23.56-13,80.6-14.27,80.6-14.27,6.2-22.32,45.89-44.64,45.89-44.64l11.16-49.59,15.61-21.2-27.26,8.42-29.27,9.05-.88-.59c17.08-28,59.71-94.36,83.12-99.23,9.68-2,15.58-2.72,19.09-2.75l-7.1,18.25,32.25,7.44,76.88,9.92S589.23,328.43,594.19,396.64s39.69,71.91-21.08,142.6c-48.15,56-178.39,11.56-230.36-9.3,16.27,28,34.54,73,48.08,144.46L428,717.8l11.16,28.53L340,802.12l-60.75,6.2-8.68-26,62-29.75s13.64-3.72,7.44-39.69S227.14,524.36,227.14,524.36s-12.4-31,0-53.33,60.77-54.55,60.77-54.55Z"/><path class="cls-2" d="M365.68,124.18c-3.51,0-9.41.73-19.09,2.75-23.41,4.87-66,71.19-83.12,99.23-4.65,7.58-7.41,12.37-7.41,12.37a235.67,235.67,0,0,1-27.43-26h0c.87-1.12,57.14-74.62,50.6-99.24C272.62,88.49,249.86,91,249.86,91l-62.92,49.87c-12.17-44.23-.3-78.31,30.69-108.15,33.47-32.24,122.76-31,122.76-31V16.58c51.19,32.18,33.5,98.19,30.23,108.87C370.35,124.78,369.2,124.14,365.68,124.18Z"/><path d="M320.88,209.28l-15.61,21.2-11.16,49.59s-39.69,22.32-45.89,44.64c0,0-57,1.24-80.6,14.27H135.37s90.53-32.87,91.77-45.27,28.52-32.54,28.52-32.54l38.45-41.86-.49-1.61Z"/><path d="M279.23,113.29c6.54,24.62-49.73,98.12-50.6,99.24-14-15.39-29.82-36.63-38.28-60.79q-1.95-5.56-3.41-10.9L249.86,91S272.62,88.49,279.23,113.29Z"/><polygon class="cls-3" points="167.63 338.98 130.41 381.76 62.22 369.36 72.14 356.96 27.5 356.96 1.45 342.07 36.8 308.59 135.38 338.98 167.63 338.98"/></svg>