<svg id="Layer_1" data-name="Layer 1" xmlns="http://www.w3.org/2000/svg" width="295" height="865" viewBox="0 0 295 865"><defs><style>.cls-1{fill:none;}.cls-2{fill:#e7c290;}.cls-3{fill:#645836;}.cls-4{fill:#1a1a1a;}.cls-5{fill:#eccea7;}.cls-6{fill:#fff;}.cls-7{fill:#f1dabc;}.cls-8{fill:#aedce8;}.cls-9{fill:#b29c7e;}.cls-10{fill:#e9a27b;}.cls-11{fill:#c8ae69;}.cls-12{fill:#96844f;}.cls-13{fill:#666;}.cls-14{fill:#e6e6e6;}</style></defs><path class="cls-1" d="M78.35,155l3.06-10.83,7.22,5.54-7.19-5.54.26-.92h0l0,.08-.26.94-3.07,10.83h0c5.3,5.5,12,11.58,17.28,13.21C90.37,166.57,83.62,160.48,78.35,155Z"/><polygon class="cls-1" points="107.63 164.94 102.13 157.48 88.63 149.69 102.09 157.51 107.63 164.94"/><path class="cls-1" d="M100,150.59c5.84,2.43,10.78,4.4,10.78,4.4Z"/><path class="cls-1" d="M116.2,142.48c-.2.24,1,.46,1,.53C117.34,143,116,142.73,116.2,142.48Z"/><path class="cls-1" d="M103.54,169.76c2.87,2,4.68,6.25,5.77,9.93v-.24C108.19,175.8,106.38,171.69,103.54,169.76Z"/><polygon class="cls-1" points="91.56 129.69 91.53 129.58 87.58 134.07 87.63 134.17 91.56 129.69"/><path class="cls-1" d="M118.27,142c3-.56,5.63-1.27,7.48-1.68C123.9,140.72,121.31,141.43,118.27,142Z"/><path class="cls-1" d="M117.28,147l-.75-3.94h0l.76,3.95a7,7,0,0,0,2.75.91c.55.06,1.2.15,1.88.25l-1.87-.27A6.87,6.87,0,0,1,117.28,147Z"/><path class="cls-1" d="M138.08,116h0c.07-.25.32-.46,1.09-.29a1.63,1.63,0,0,1,.81.47h0a1.59,1.59,0,0,0-.83-.48C138.41,115.53,138.09,115.74,138.08,116Z"/><path class="cls-1" d="M142,127.33c-.05.1-.15.2-.15.3-1.34,2.07-3.33,2.27-4.13,2.81a27.88,27.88,0,0,1-4.87,1.8l.31,0a27.87,27.87,0,0,0,4.59-1.72c.8-.54,2.78-.74,4.12-2.81.07-.1.16-.2.16-.3.57-1.41.74-5.26,0-6.45C142.73,122.17,142.56,125.94,142,127.33Z"/><path class="cls-1" d="M141.5,112.89a2.49,2.49,0,0,1-2.13.22s0,0,0,0a2.54,2.54,0,0,0,2.12-.22c.42-.3.59-.43.56-.48A3.44,3.44,0,0,1,141.5,112.89Z"/><polygon class="cls-1" points="134.9 134.88 129.57 128.64 129.51 128.65 134.85 134.91 134.9 134.88"/><path class="cls-1" d="M137.48,112.56a3,3,0,0,1,.42-.06h0a9.17,9.17,0,0,1-1.26-.79h0a9,9,0,0,0,1.22.78Z"/><path class="cls-1" d="M131.29,85v.06a18.09,18.09,0,0,0-1-11A18.27,18.27,0,0,1,131.29,85Z"/><path class="cls-1" d="M138.3,118.9c-1.86-1.55-3.81-5.82-3.5-19l0-.22C134.45,113.09,136.42,117.38,138.3,118.9Z"/><path class="cls-1" d="M140.2,100s-3.58-.35-3.63.5-.25,2.67-.25,2.67h0a26.42,26.42,0,0,0,.25-2.63c.05-.81,3.58-.5,3.58-.5v.07l-.57,2.09a4.49,4.49,0,0,1-1.25,1.49h0c-.51,1.63-.65,4.06.23,8.55a10.1,10.1,0,0,1-1.92-.65v0a10,10,0,0,0,1.93.65c-.88-4.52-.73-6.94-.21-8.57a4.4,4.4,0,0,0,1.26-1.49l.57-2.13a2.59,2.59,0,0,0,.17-.38h0a3.45,3.45,0,0,1-.14.34Z"/><path class="cls-1" d="M35.38,350.94l.08.13a31.89,31.89,0,0,0,5.09,5.36l.65.52A32.17,32.17,0,0,1,35.38,350.94Z"/><path class="cls-1" d="M78,131.8h0a2.19,2.19,0,0,1-.26,1.15l-1.51-2,0,.08,1.49,2,0,0A2.26,2.26,0,0,0,78,131.8Z"/><path class="cls-1" d="M46,324.5c-1.29,3.46-4.85,7.62-4.85,7.62s-6.78,9.46-6.64,15.75c-.12-6.29,6.64-15.72,6.64-15.72S44.72,328,46,324.5Z"/><path class="cls-1" d="M73.23,312.25l1-1.42a.75.75,0,0,1,.57-.31.76.76,0,0,0-.6.26l-1,1.42a.77.77,0,0,1-1.16.06s.06.1.11.13A.76.76,0,0,0,73.23,312.25Z"/><path class="cls-1" d="M129.43,149.46a5.73,5.73,0,0,1-.69-.09,6.7,6.7,0,0,0,.68.1c1.61-.35,3.14.63,5.09-.49C132.58,150.09,131.07,149.11,129.43,149.46Z"/><path class="cls-1" d="M107.44,188.47l.06,0-.64-2.15h2.42a52.65,52.65,0,0,1-1.53-5.21c-.81-3.15-1.55-6.37-1.55-6.37,0,.16,0,.33.06.49.24,1,.82,3.47,1.44,5.88-.11-.29-.21-.6-.31-.9.09.28.17.55.28.83a50.54,50.54,0,0,0,1.58,5.22h-2.44l.64,2.19-2.64-.74h0l-12.94-3.6,12.92,3.6Z"/><path class="cls-1" d="M116.12,182v0l-5.37-7.78-.07-.06Z"/><path class="cls-1" d="M35.38,350.94a6,6,0,0,1-.49-2.63,6.1,6.1,0,0,0,.44,2.54Z"/><path class="cls-1" d="M109.7,187c.1.06,0-.2-.12-.69h0A2.47,2.47,0,0,1,109.7,187Z"/><path class="cls-1" d="M85.23,182.34c-2.19-.54-14.73-16-14.73-16S83,181.8,85.23,182.34Z"/><path class="cls-1" d="M112.36,119.23c-2.1-.32-4.15-.68-5.66-.87-5-.63-3.76-5.77-3.76-5.77l.45-.13,5.9-1.93a25.07,25.07,0,0,1,5.2-.62,24.91,24.91,0,0,0-5.32.62l-6.27,2.06s-1.26,5.14,3.76,5.77c1.52.19,3.58.55,5.69.88a24.92,24.92,0,0,0,6.22,1,25.27,25.27,0,0,1-6.21-1Z"/><path class="cls-1" d="M131.88,140.56l1.65.9,1.44-.35-1.44.33-1.65-.91c-1.65-.89-13.19,3.32-13.19,3.32h0C119.33,143.64,130.28,139.69,131.88,140.56Z"/><path class="cls-1" d="M115.86,111c-.45-.49-1.88-.52-3.64-.31,1.72-.19,3.12-.16,3.57.34a8.72,8.72,0,0,0,5.32,2.16v0a12.79,12.79,0,0,0,1.38.09l0,0c-.43,0-.87,0-1.3-.09A8.82,8.82,0,0,1,115.86,111Z"/><path class="cls-1" d="M123,97.43a11.9,11.9,0,0,0-3.67-.25c-3.87.46-14.83-.14-18.82-.38l-.2.1a.52.52,0,0,1,.14-.06c4,.23,15.06.84,18.82.37a12.58,12.58,0,0,1,3.67.25c1.24-.5,4.83,2.39,4.83,3.79,0,.07-.13,1.32-.13,1.32a.57.57,0,0,1-.14.48.53.53,0,0,0,.19-.53,10.39,10.39,0,0,1,.19-1.33C127.86,99.81,124.28,96.92,123,97.43Z"/><path class="cls-1" d="M116.46,113.24c3.13,0,4.35.49,4.8,1v0c-.46-.48-1.68-1-4.79-1Z"/><path class="cls-1" d="M46.22,323.81a6.38,6.38,0,0,1-.22.66c0-.12.09-.24.13-.36Z"/><path class="cls-1" d="M120.82,105.53l.06-.32s-1.67,3.36-1,5.72l.12,0C119.41,109.05,120.43,106.43,120.82,105.53Z"/><path class="cls-1" d="M66.67,368.62H66.6a.21.21,0,0,1,0,.06.76.76,0,0,1-1.06.21l-1.61-1.12c-1.06.31-1.63,3.28-2.87,3.28a.74.74,0,0,1-.45.34h-.06l.05.05a.68.68,0,0,0,.44-.32c1.31,0,1.81-3.05,2.91-3.29L65.54,369l.07,0a.77.77,0,0,0,1-.32c.75-.18,1-1.05,1.1-1.64C67.63,367.65,67.35,368.45,66.67,368.62Z"/><polygon class="cls-1" points="161.11 380.96 156.32 372.74 156.07 352.28 156.32 372.76 161.11 380.96"/><path class="cls-1" d="M74.2,367.07v0h0Z"/><path class="cls-1" d="M65.85,368.54a.32.32,0,0,1-.18-.1,3.57,3.57,0,0,0-1.41-.69c.73.09,1.24.87,2,.9A1.46,1.46,0,0,1,65.85,368.54Z"/><path class="cls-1" d="M74,367.58a1.05,1.05,0,0,1-1.5.58l-.4-.24-.19-.1-.26-.15-.48-.29-.68-.4-.86-.5-.2-.12-.4-.23h-.1l-1.06.3v.07l1-.3H69l.4.24.2.11.87.5.68.41.47.28.27.15L72,368l.4.23c.7.42,1.2-.11,1.49-.57h0a2.88,2.88,0,0,0,.28-.59v0A2.79,2.79,0,0,1,74,367.58Z"/><path class="cls-1" d="M66.74,309.94c.87-.47,1.6-.93,2.16-1.15A20.23,20.23,0,0,0,66.74,309.94Z"/><path class="cls-1" d="M73.69,366.59A7.68,7.68,0,0,0,73.9,365l0-.13A8.1,8.1,0,0,1,73.69,366.59Z"/><path class="cls-1" d="M66,310.31h0a4.31,4.31,0,0,1-2,.6,4.31,4.31,0,0,0,2-.6l3.87-.81v0L66,310.3Z"/><path class="cls-1" d="M55.12,697.54C62.93,702.4,72.84,709,76.65,710.2,72.87,709,62.93,702.4,55.12,697.54Z"/><path class="cls-1" d="M34.19,660s6.65,26,12.62,28.62,24.56,15.93,27.89,15.93c-3.31,0-21.9-13.34-27.89-16S34.19,660,34.19,660Z"/><path class="cls-1" d="M231,860.49v.06s5.78-8.61,5.4-14.84C236.77,851.73,231.39,860,231,860.49Z"/><path class="cls-1" d="M69.19,111.14c-.17,5.59,5.22,12.64,7.65,17.33l0-.07C74.45,123.74,69.08,116.75,69.19,111.14Z"/><path class="cls-1" d="M22.63,186.35c19.66-1.66,37.68,16.47,50.05,35.79h0C60.32,202.8,42.3,184.64,22.63,186.35Z"/><path class="cls-1" d="M25.56,640.77c-4-2.66-9.3-27.89-9.3-27.89,7.73-15.49,33-11.55,34.46-11.31h0s-26.57-4.65-34.54,11.29c0,0,5.32,25.24,9.3,27.9.62.41,1.23.77,1.83,1.12l.27.13C26.92,641.63,26.24,641.23,25.56,640.77Z"/><path class="cls-1" d="M34.13,666.65c2.19,7.48,6.32,20.06,10.59,24.58C40.51,686.73,36.34,674.14,34.13,666.65Z"/><path class="cls-1" d="M167.92,387.08l-2.73.88h0Z"/><path class="cls-1" d="M110.54,184.22c.24,1.25.34,2.06.35,2.12h0s-.1-.88-.35-2.13l.1-.18h0Z"/><path class="cls-1" d="M84.34,316.79l-.68-1.15.68,1.17a.74.74,0,0,1-.74.12l-1-.39a.77.77,0,0,0-.56,0,6,6,0,0,0-1.36.86c-1.71,1.34-4.53,4.5-7,11.78-3.38,9.68-.7,29.14.26,35.69l0,.13h0l0-.13h0v0h0c-1-6.55-3.63-26-.26-35.68,2.55-7.28,5.33-10.44,7-11.78h.11a6.15,6.15,0,0,1,1.2-.74.77.77,0,0,1,.56,0l1,.39a.74.74,0,0,0,.74-.12l.22.39h.07Z"/><polygon class="cls-1" points="79.84 314.17 82.59 314.27 82.59 314.27 79.84 314.17"/><polygon class="cls-1" points="125.39 218.42 125.38 218.39 121.67 211.52 125.39 218.48 137.2 244 143.6 267.54 137.2 243.94 125.39 218.42"/><path class="cls-1" d="M84.43,314.34l-1.84-.07h0l1.81.06Z"/><path class="cls-1" d="M87.91,75.46c-.07-.6-.11-1.16-.13-1.69a17.31,17.31,0,0,0,.13,1.81,17.09,17.09,0,0,1,0,4.57A17.15,17.15,0,0,0,87.91,75.46Z"/><path class="cls-1" d="M104.1,57.35v0a78.44,78.44,0,0,0,1.09,13.69h0A78.8,78.8,0,0,1,104.1,57.35Z"/><polygon class="cls-1" points="146.92 272.59 137.81 242.15 125.49 218.38 116.7 199.56 110.84 183.68 110.84 183.68 110.82 183.72 116.67 199.56 125.39 218.42 137.71 242.17 146.82 272.63 160.38 306.04 157.29 319.69 157.28 319.69 155.14 319.75 154.48 319.78 155.19 319.75 157.33 319.69 157.39 319.65 160.48 306 146.92 272.59"/><path class="cls-1" d="M68,260.81v0s7.28,9.48,10.55,16.44a8.86,8.86,0,0,1,.5,1.36,9.3,9.3,0,0,0-.52-1.45C75.35,270.46,68.43,261.36,68,260.81Z"/><path class="cls-1" d="M79.78,314.17a2,2,0,0,1-1,.2,2,2,0,0,0,1-.2,3.65,3.65,0,0,1,1.38-.24A3.55,3.55,0,0,0,79.78,314.17Z"/><path class="cls-1" d="M74.47,246.52l-5.28,14.25,0,0,5.28-14.2c1.66-11.44.35-18.41-.74-21.83C74.84,228.22,76.12,235.17,74.47,246.52Z"/><path class="cls-1" d="M79.73,311.32a.38.38,0,0,1,0,.15.73.73,0,0,0-.09.38.72.72,0,0,1,.09-.27.68.68,0,0,0,.09-.37l0,.09c0,.09,0,.13,0,.13Z"/><path class="cls-1" d="M81,293.36c-.14,3.7-.39,7.39-.62,10.47.24-3.07.48-6.73.62-10.4l0-.07a100.77,100.77,0,0,0-.11-12,23.51,23.51,0,0,0-2.66-8.42,23.43,23.43,0,0,1,2.64,8.37A99.52,99.52,0,0,1,81,293.36Z"/><path class="cls-1" d="M75.23,312.27l-.12,0a3.34,3.34,0,0,0-.68.45c-1.23.95-3,2.85-3.52,2.87.49.14,2.31-1.89,3.59-2.88l.71-.46L78,311.8h0Z"/><path class="cls-1" d="M78,311.79l1.71-.32a2.1,2.1,0,0,0,0-.31v-.35a.75.75,0,0,0-.52-.43.75.75,0,0,1,.43.44v.63l-1.7.31a8.49,8.49,0,0,0-2,.27,7.78,7.78,0,0,1,2-.24Z"/><path class="cls-1" d="M73.3,223.11l-.51-.8h0Z"/><path class="cls-1" d="M100,150.59c-7.19-3-15.71-6.72-18-8.35l.75-2.68-1.49-2a2.27,2.27,0,0,0,.8-.74c2-2.93-.74-11.82-.74-11.82a10.19,10.19,0,0,1,2-1.61v0h0a10.29,10.29,0,0,0-2,1.64s2.75,8.89.74,11.82a2.3,2.3,0,0,1-.81.74,2.09,2.09,0,0,1-1,.27c-4.78.36-6.81-6.77-7.07-7.79l0,0s2,8.31,7.1,7.92a2.22,2.22,0,0,0,1-.27l1.5,2-.73,2.61c2.13,1.49,9.34,4.69,16,7.5Z"/><path class="cls-1" d="M55.65,329.94l.08-.09c.49-.81,3.43-5.59,5.33-6.12l0-.06C59,324.17,55.65,329.94,55.65,329.94Z"/><polygon class="cls-1" points="171.03 397.95 170.97 397.85 170.96 397.86 170.9 397.89 171.38 398.57 171.03 397.95"/><path class="cls-1" d="M77.59,314.65s-2.53,3.25-4.94,3.57C75.08,317.9,77.58,314.65,77.59,314.65Z"/><path class="cls-1" d="M73.33,318.67c1-.64,4.25-2.94,4.25-4C77.57,315.7,74.37,318,73.33,318.67Z"/><polygon class="cls-1" points="61.66 329.61 61.84 329.34 61.52 329.74 61.66 329.61"/><path class="cls-1" d="M64.43,325.33c1.47-1.66,4.18-4.17,4.18-4.17S65.9,323.65,64.43,325.33Z"/><path class="cls-1" d="M46.46,322.55a1,1,0,0,0,0-.18,4.18,4.18,0,0,1-.06.68,3.74,3.74,0,0,0,.06-.65A.76.76,0,0,1,46.46,322.55Z"/><path class="cls-1" d="M58.1,309.5H42.24l0,0h16Z"/><path class="cls-1" d="M46.22,323.8a1,1,0,0,0,0-.14c.05-.18.08-.35.11-.52A6.15,6.15,0,0,1,46.22,323.8Z"/><polygon class="cls-1" points="193.58 576.41 193.69 576.46 86.19 459.09 193.58 576.41"/><path class="cls-1" d="M113.49,411.81l-.14.22c-13.51,30.2-22.49,25.34-22.49,25.34S99.92,442.29,113.49,411.81Z"/><path class="cls-1" d="M57,314.14c-1,0-9.3,5.71-10.38,7.77a2.56,2.56,0,0,0-.05.27c.45-1.84,9.4-8,10.49-8s2.57-6.44,3.38-6.79h0v0C59.58,307.53,58,314.14,57,314.14Z"/><path class="cls-1" d="M58.21,309.5v0h0v0Z"/><path class="cls-1" d="M60,306.05c-.3,0-.84.81-1.82,3.45h0C59.19,307,59.73,306.14,60,306.05Z"/><path class="cls-1" d="M63,321.93a10.1,10.1,0,0,0-1.84,1.74h0A10.22,10.22,0,0,1,63,321.93Z"/><path class="cls-1" d="M57.36,320.18c-.13,0-3.77,3.09-3.77,3.09s-4.38,8.78-4.38,10c0,.61-1.51,2.87-3,5,1.51-2.06,3-4.31,3-4.95,0-1.25,4.38-10,4.38-10s3.53-3.09,3.77-3.09,4-3.92,4-5.53l-.07.13C61.11,316.48,57.48,320.18,57.36,320.18Z"/><path class="cls-1" d="M61.41,323.67c2,.05,5.21-8.16,5.21-8.16S63.43,323.67,61.41,323.67Z"/><polygon class="cls-1" points="82.18 453.08 87.15 458.58 193.69 576.46 193.87 576.54 87.2 458.58 82.18 453.08"/><polygon class="cls-1" points="87.93 405.72 88.14 404 81.1 453.58 86.19 459.09 81.13 453.57 87.93 405.72"/><path class="cls-1" d="M61.52,329.74l-.22.22c-2,2.5-4.58,5.48-4.58,5.48s-.14,1.45-.12,3c0-1.53.12-2.94.12-2.94S59.51,332.25,61.52,329.74Z"/><path class="cls-1" d="M57.77,342.26c2.89,1.31,6.39,18.61,6.39,18.61S60.66,343.51,57.77,342.26Z"/><path class="cls-1" d="M43.84,352.41c-2.59-1-1.26-10.67-1.26-10.67l5-7.38-5,7.37s-1.28,9.67,1.25,10.67S49,357,49,357l-.42-.63C47.72,355.31,45.75,353.13,43.84,352.41Z"/><path class="cls-1" d="M171,558.72l-5.08-4.06Z"/><path class="cls-1" d="M56,335.16v0s-1.15,5.88,1.36,7a.77.77,0,0,1-.12-.13C55,340.84,55.9,335.63,56,335.16Z"/><path class="cls-1" d="M73,318.84c-.22,0-4.4,2.32-4.4,2.32S72.8,318.84,73,318.84Z"/><path class="cls-1" d="M143.08,408.91c5.66-.08,18.17-6,27.82-11C161.23,402.92,148.74,408.83,143.08,408.91Z"/><path class="cls-1" d="M88.45,184.12c4.57,1.12,12.79,3,17.44,4.1l1.76.79-.11-.4,1.76.4-.46-.12-1.35-.31.11.4-1.75-.79h0c-4.64-1.06-12.85-3-17.42-4.1L67,195.53h0Z"/><path class="cls-1" d="M57.32,363.77a.77.77,0,0,1,0,.15s.57-8.31-5.49-10.26V339.55l0,.11v14C57.43,355.46,57.37,362.69,57.32,363.77Z"/><path d="M178.55,382.33c1.07-.06,2.37,2,3.41,4.18l-.93-2.18L172,371.57l.18,14c3-1.15,5.17-2.16,5.71-2.85A.92.92,0,0,1,178.55,382.33Z"/><path class="cls-2" d="M171.08,267.34l-.41-.87v.12C170.79,266.85,170.94,267.08,171.08,267.34Z"/><path class="cls-2" d="M254.69,446.79l-2.34-14-19.14-22.9-33.67-63.48a65.56,65.56,0,0,0-11.94,1.25,66.84,66.84,0,0,1-7.26,1.39h-.09a33.45,33.45,0,0,0-7.78,10.73l-.62,1.54.12,10.19L181,384.28l32.4,45.61-3.76,15.26,10.53,14,8.88-1.05,10.58,23.59,19.28-9.27-3.21-19.29-7.43.51v-6Z"/><path d="M180.25,349.06c-2.78.41-5.82.8-8.49,1.13h0l.14,11.14h0l.62-1.54A33.45,33.45,0,0,1,180.25,349.06Z"/><path class="cls-3" d="M114.88,167.26a8,8,0,0,0,1.26-1.4c1.81,1.77,5.44,3.39,11.52,4.71,10.49,2.28,5.73-8.27,4.33-11.06l-3.35,1.57-2,.29a87.72,87.72,0,0,1-9.54,1.4l-2.51.38-.89.22,0,.53.22,3Z"/><path class="cls-3" d="M116.81,55.87a2.89,2.89,0,0,1,0,.29,3.41,3.41,0,0,1-.1.46,5.21,5.21,0,0,1-.51,1.34l.92.73c1.22,1,2.24,1.87,2.89,2.45l.77.68s2.39-4.09,5.9-1.88a14.41,14.41,0,0,1,3.4,3.48,15.54,15.54,0,0,0-9-12.06,10.92,10.92,0,0,0-7.76-1.12,4.93,4.93,0,0,1,3.49,4.38c0,.11,0,.23,0,.34s0,.07,0,.1A5.48,5.48,0,0,1,116.81,55.87Z"/><path class="cls-3" d="M141.6,102.65a9.92,9.92,0,0,0-1.25-3,2.59,2.59,0,0,1-.17.38l-.57,2.13a4.4,4.4,0,0,1-1.26,1.49c-.52,1.63-.67,4,.21,8.57h0c2.13.48,3.6,0,3.5.19,0,0-.14.18-.56.48a2.54,2.54,0,0,1-2.12.22,10.75,10.75,0,0,1,.63,2.69v.35l0,0h0l0,0a1.79,1.79,0,0,1,.39.59,1.6,1.6,0,0,1-.26,1.72h-.07a11.37,11.37,0,0,1,2.9,1.83l.39-.42a16.86,16.86,0,0,0,4.24-16.67,17.62,17.62,0,0,0-1.67-4.13,8.45,8.45,0,0,1,0,2l-.56,4.13h0v0Z"/><path d="M233.64,839.48c-.79-.25-1.64-.54-2.54-.87C232,838.94,232.85,839.23,233.64,839.48Z"/><path d="M170.92,780.78l25.79-158.13L140.36,628c-8.41,25.45-22.63,81-10.79,138.71l-6,41.35,54.34,6Z"/><path class="cls-4" d="M240.45,842.42a5.36,5.36,0,0,0-.75-.68,7.37,7.37,0,0,0-2.26-1.17c-.3-.1-.61-.18-.94-.26-10.06-2.34-39-16.45-52.09-23l-.12-.06-1.35-.67-2.59-1.3h0l-1.34-.68-.62-.31-.38-.2-.13-.06-54.34-6s-.42.56-1.06,1.59l-.39.66c-.25.4-.51.86-.8,1.38l-.18.3c-.28.52-.6,1.1-.91,1.72a66,66,0,0,0-3.43,7.81,52.81,52.81,0,0,0-3.32,17.8h0V855.4h24.28l14-7.06,10,7.06A75.46,75.46,0,0,0,180,862.7c.9.23,1.82.44,2.76.64l1.42.28c.95.17,1.92.32,2.9.45s2,.21,3,.27,2,.12,3,.12h43.36l.14-.24.4-.68c.08-.15.18-.31.27-.49.3-.53.65-1.19,1-2l.39-.79c.4-.83.81-1.74,1.25-2.71a37.79,37.79,0,0,0,1.47-4.1c.1-.37.19-.72.29-1.07s.19-.84.26-1.25a17.8,17.8,0,0,0,.35-2.9,9.52,9.52,0,0,0-.61-3.88A6.2,6.2,0,0,0,240.45,842.42ZM231,860.55v-.06l0,0H190.64c-15,0-29.1-7.82-29.1-7.82l-9.38-6.07-13.07,6.07H116.5V838.82c0-14.76,9.39-26.91,9.39-26.91l50.6,5.21s42.34,20,54.55,22.59c3.82.82,5.25,3.16,5.4,6C236.82,851.94,231,860.55,231,860.55Z"/><path d="M231,839.71c-12.21-2.6-54.55-22.59-54.55-22.59l-50.6-5.21s-9.39,12.15-9.39,26.91v13.89h22.59l13.07-6.07,9.38,6.07s14.08,7.82,29.1,7.82H231l0,0c.35-.53,5.73-8.76,5.4-14.78C236.29,842.87,234.86,840.53,231,839.71Z"/><path class="cls-5" d="M137.28,131.81l-4.41.48.28-.08-.31,0a27.88,27.88,0,0,0,4.87-1.8c.8-.54,2.79-.74,4.13-2.81,0-.1.1-.2.15-.3.57-1.39.74-5.16,0-6.4a.8.8,0,0,0-.15-.2,3.21,3.21,0,0,0-1.57-.89,4.67,4.67,0,0,1-2-.94c-1.88-1.52-3.85-5.81-3.53-19.19l0,.22v-.17a85.37,85.37,0,0,0,1.82,11.8,10.1,10.1,0,0,0,1.92.65c-.88-4.49-.74-6.92-.23-8.55a1.47,1.47,0,0,1-.6.23,1.25,1.25,0,0,1-1.39-.72v0h0s.2-1.82.25-2.67,3.63-.5,3.63-.5V100a3.45,3.45,0,0,0,.14-.34,5.25,5.25,0,0,0-2.6-2.3c-3.93-1.28-6.44-12.3-6.44-12.3h0V85a18.27,18.27,0,0,0-1-10.9,13.61,13.61,0,0,0-5-5.7c-10.25-6.79-12.39,9-12.39,9l-9.82,3S97.87,83,95.36,94.92c-1.55,7.07-3.72,10.84-5.31,12.76a7.86,7.86,0,0,0-1.78,5v6.14l.06,1.65c-.22.67-.79,1.28-2.16,1.63l-.78.25a9.71,9.71,0,0,0-2.12,1v0l0,0,4.26,10.72,4-4.49,0,.11,0-.05,4.56,17.47,10.31-7.86-.65-4.7,23.68-5.91h.07l5.33,6.24,5.5-3.16.09-.05c.25-.94.49-1.79.75-2.5l0,0Zm-14.79-18.55a12.79,12.79,0,0,1-1.38-.09c0,.29.1.64.17,1.06l0,0v0h0a.76.76,0,0,1,.14.9l.5,3.23a.67.67,0,0,1,0,.2,1,1,0,0,1-.07.38c-.21.56-.92,1.33-3.27,1.33a24.92,24.92,0,0,1-6.22-1c-2.11-.33-4.17-.69-5.69-.88-5-.63-3.76-5.77-3.76-5.77l6.27-2.06a24.91,24.91,0,0,1,5.32-.62,12.42,12.42,0,0,1,5.39,1c-.67-2.36,1-5.72,1-5.72l-.06.32c.09-.21.15-.32.15-.32a11.32,11.32,0,0,0,.58,6.8,4.46,4.46,0,0,1,1.1,1.23h-.19Zm5.23-10.74a.53.53,0,0,1-.19.53c-.76.83-4.66-2-4.88-2.11l-22.36-2.85c-2.74.61-.53-.86,0-1.19l.2-.1c4,.24,14.95.84,18.82.38a11.9,11.9,0,0,1,3.67.25c1.25-.51,4.83,2.38,4.88,3.76A10.39,10.39,0,0,0,127.72,102.52Z"/><path class="cls-5" d="M133,139.86a18.35,18.35,0,0,1-4.56.22,6.29,6.29,0,0,0-2.71.24c-1.85.41-4.44,1.12-7.48,1.68l-1.45.25c-.38.08-.56.15-.62.23-.16.25,1.14.48,1,.53a2,2,0,0,1-.62,0l.75,3.94a6.87,6.87,0,0,0,2.75.9l1.87.27.74.12c2.33.39,4.89.91,6.1,1.12a5.73,5.73,0,0,0,.69.09c1.64-.35,3.15.63,5.08-.48l.07,0a4.81,4.81,0,0,0,.41-.27c.12-.09.25-.2.37-.31a.67.67,0,0,0,.14-.11,10,10,0,0,0,1.08-1.18h0a.64.64,0,0,1,.08.14c.23-.81.44-1.61.65-2.4-.52.79-1.09,1.53-1.47,2a2.74,2.74,0,0,1-1,.82L132,148.89s-.56,1.26-13.34-5h0s11.54-4.21,13.19-3.32l1.65.91,1.44-.33.95-.24h0l.1,0,2.06,1.07c.15-.63.29-1.23.43-1.85l-.07,0A9.78,9.78,0,0,0,133,139.86Z"/><path class="cls-5" d="M76.65,710.2c-3.81-1.22-13.72-7.8-21.53-12.66a84.41,84.41,0,0,0-8.54-4.89,5.91,5.91,0,0,1-1.86-1.42c-4.27-4.52-8.4-17.1-10.59-24.58-.88-3-1.45-5.17-1.58-5.67v.07s7.39,28.87,14.05,31.8S74,710.6,77.66,710.6s7.39-17,7.39-17v-.07c-.37,1.52-3.89,16.88-7.4,16.88h0A3.75,3.75,0,0,1,76.65,710.2Z"/><path class="cls-5" d="M27.58,642l-.27-.13.88.5a40.53,40.53,0,0,1-5.35-3,5.72,5.72,0,0,1-1.47-1.78,5.86,5.86,0,0,0,1.59,2,42.15,42.15,0,0,0,7.26,3.8q-.91-.42-1.95-1Z"/><path class="cls-5" d="M271.49,579.73c0,.23,0,.45.05.68,0-.26,0-.53-.05-.79Z"/><path class="cls-5" d="M244,618,94.7,632s-16.31,2.22-27.35,12.55C65.06,646.71,64.47,650,65,654c-.44-3.84.16-7.08,2.41-9.16,11.09-10.37,27.36-12.55,27.36-12.55l45.68-4.31,56.35-5.29,47.36-4.46s28.75-21.57,27.42-37.77C272.55,596.56,244,618,244,618Z"/><path class="cls-5" d="M52.93,167.44h-.12l-.23.15,1-.1Z"/><path class="cls-5" d="M78,131.8a8.18,8.18,0,0,0-1.15-3.4l0,.07,0,0c-.32,1.28-.56,2.19-.62,2.43l1.51,2A2.19,2.19,0,0,0,78,131.8Z"/><path class="cls-5" d="M60.56,371.45l-.05-.05h-.06l11.09,15.41v-.06l-11-15.29Z"/><path class="cls-5" d="M137.48,112.56l.39-.06a9,9,0,0,1-1.22-.78c.08.34.17.68.27,1a2.46,2.46,0,0,1,.48-.16Z"/><path class="cls-5" d="M102.1,157.51,88.63,149.7l-7.22-5.54L78.35,155c5.27,5.49,12,11.58,17.24,13.3a7.57,7.57,0,0,0,3.32.36,6.1,6.1,0,0,1,4.63,1.11c2.84,1.93,4.65,6,5.78,9.69l.14-6.22s4.53-2.36,4.53-3.56l-.06-1.25v-1.57l.06,0v0l-.22-3,0-.53-6.1,1.57Z"/><path class="cls-5" d="M117.14,162.77a87.72,87.72,0,0,0,9.54-1.4Z"/><path class="cls-5" d="M65.31,457c.2,1.15.44,2.3.72,3.43-.25-1-.46-2.07-.66-3.12C65.36,457.16,65.33,457.05,65.31,457Z"/><path class="cls-5" d="M64.85,453.93c0,.21.07.41.1.61,0-.17,0-.34-.08-.5A.43.43,0,0,0,64.85,453.93Z"/><path class="cls-5" d="M65.15,455.88c0,.33.09.66.14,1a1.76,1.76,0,0,1,0-.31C65.21,456.32,65.18,456.1,65.15,455.88Z"/><path class="cls-5" d="M157.7,548.09l2.8,2.25,5.39,4.32,5.08,4.06c1.27,1,2.49,2,3.69,2.93l3.21,2.56,2.09,1.65,3.8,3,3.28,2.58,2.41,1.9,2.49,1.95,1.06.83h0l.23.1.19.09c-6.46-5-117.14-91.68-124.64-107.69-.29-.65-.57-1.3-.83-2,.27.7.55,1.4.84,2.09,3,6.73,24.92,26.35,49.53,47,11.14,9.36,22.83,18.94,33.6,27.65Z"/><path d="M137.71,394.4a175.81,175.81,0,0,0,26.61-6.16c-4.62-6.9-9.78-15.05-9.78-16.81,0-1.34-.08-9.54-.08-18.9-17.16,2.7-53.34,8.33-80.53,12.34h0l.3,2.12s0,0,0,.06v0a2.88,2.88,0,0,1-.28.59h0c-.29.46-.79,1-1.49.57L72,368l-.19-.11-.27-.15-.47-.28-.68-.41-.87-.5-.2-.11-.4-.24h-.1l-1,.3c0,.1,0,.3-.08.56-.09.59-.35,1.46-1.1,1.64a.77.77,0,0,1-1,.32l-.07,0-1.63-1.13c-1.1.24-1.6,3.31-2.91,3.29a.68.68,0,0,1-.44.32h0l11,15.29,0,.06v0S124.72,396,137.71,394.4Z"/><path d="M74.19,367.05v0Z"/><path d="M73.9,365c0-.06,0-.1,0-.13h0Z"/><path d="M171,397.85l.06.1.35.62-.48-.68c-9.65,5-22.16,10.94-27.82,11a6.63,6.63,0,0,1-1-.07l-2.22-.33-1.55-.22-3.84-.56-4.7-.67-5.39-.77-1.43-.21-6-.85L109,404.12l-3.2-.46-1.61-.22-4.78-.68-3.13-.44-6-.85L79.72,400l-2.19-.31-3.7-.52L72.37,399l-2.77-.38,1.15-6.81-6,34.64a117.48,117.48,0,0,0,0,27,4,4,0,0,0,.06.5.43.43,0,0,1,0,.11c0,.16,0,.33.08.5.06.44.13.89.2,1.34,0,.22.06.44.1.67a1.76,1.76,0,0,0,0,.31s0,.06,0,.09,0,.21.06.31c.2,1.05.41,2.09.66,3.12a.15.15,0,0,0,0,.07c.11.46.23.92.35,1.38A46.45,46.45,0,0,0,68,466.68c.26.66.54,1.31.83,2,7.5,16,118.18,102.65,124.64,107.69l-.19-.09-.23-.1h0l-1.06-.83-2.49-1.95-2.41-1.9-3.28-2.58-3.8-3-2.09-1.65-3.21-2.56c-1.2-.94-2.42-1.92-3.69-2.93l-5.08-4.06-5.39-4.32-2.8-2.25-5.77-4.66c-10.77-8.71-22.46-18.29-33.6-27.65,3.63,16.31,8.79,38.68,13.92,58.05C148,570.36,161,570.06,170.81,571a126,126,0,0,0-38.45,2.88,191.81,191.81,0,0,0-39.82,13.8L51,595.77,67.3,644.58C78.39,634.22,94.65,632,94.65,632L244,618s29.47-22.11,27.37-38.36v-.1c-1.58-11.58-51-91.71-79.42-137-11.16-17.77-19.05-30.11-19.52-30.88l0,0c.49.77,8.37,13.14,19.52,30.88l-1.65-36.33-6.54-15.37s-4.94,2.88-11.49,6.34v0l-.07,0Zm-57.52,14c0,.07-.07.14-.1.22l.14-.22c-13.57,30.48-22.63,25.56-22.63,25.56C97.63,437.27,113.43,411.81,113.45,411.81Zm80.42,164.73-.18-.08.07.07-.07-.07-.11-.05L86.19,459.09l-5.09-5.51,7-49.58-.21,1.72.25-1.73-6,49.09,5,5.5Z"/><path class="cls-4" d="M12.53,608.32v.19c.43,2,4.88,22.53,8.84,29.1a5.72,5.72,0,0,0,1.47,1.78,40.53,40.53,0,0,0,5.35,3l-.88-.5c-.6-.35-1.21-.71-1.83-1.12-4-2.66-9.3-27.9-9.3-27.9,8-15.94,34.54-11.29,34.54-11.29h.07L65.4,645.47c-10,9.3,15.94,43.83,15.94,43.83s-3.08,14.12-6.26,15.2l-.07,0a1.1,1.1,0,0,1-.31,0c-3.33,0-21.91-13.27-27.89-15.93S34.19,660,34.19,660l-.67-15.27s-.66-.22-1.71-.66l.72,16.76v.08l0,.05c.13.5.7,2.68,1.58,5.67,2.21,7.49,6.38,20.08,10.59,24.58a5.91,5.91,0,0,0,1.86,1.42,84.41,84.41,0,0,1,8.54,4.89C62.93,702.4,72.87,709,76.65,710.2a3.75,3.75,0,0,0,1,.2h0c3.51,0,7-15.36,7.36-16.88v-.14S66.81,669.12,64.92,654c-.5-3.93.09-7.24,2.38-9.37L51,595.77S21.4,590.59,12.53,608.32Z"/><path d="M34.19,660s6.64,25.89,12.62,28.55,24.58,16,27.89,16a1.1,1.1,0,0,0,.31,0l.07,0c3.18-1.08,6.26-15.2,6.26-15.2s-25.9-34.53-15.94-43.83L50.79,601.58h-.07c-1.46-.24-26.73-4.18-34.46,11.31,0,0,5.32,25.23,9.3,27.89.68.46,1.36.86,2,1.23l.69.39q1,.57,1.95,1l1,.46.59.25h0c1.05.44,1.71.66,1.71.66Z"/><path d="M83.6,317l-1-.39a.77.77,0,0,0-.56,0,6.15,6.15,0,0,0-1.2.74c1.25-.07,2.49-.09,3.74-.08l-.22-.39A.74.74,0,0,1,83.6,317Z"/><path d="M156.12,352.27h-.05l.25,20.46,4.79,8.22,4.08,7,2.73-.88c1.18-.39,2.29-.78,3.31-1.15l.9-.34-.17-14-.13-10.23-.13-11.14c-4.14.49-7.38.83-7.38.83Z"/><path class="cls-6" d="M164.32,388.24l.87-.28h0l-4.08-7-4.79-8.2-.25-20.48-1.56.24h0c0,9.36.08,17.56.08,18.9C154.54,373.19,159.7,381.34,164.32,388.24Z"/><polygon class="cls-6" points="125.39 218.42 116.67 199.56 110.82 183.72 110.68 183.98 110.65 184.03 110.65 184.03 114.92 199.03 121.67 211.52 125.38 218.39 125.39 218.42"/><polygon class="cls-6" points="157.29 319.69 160.38 306.04 146.82 272.63 137.71 242.17 125.39 218.42 137.2 243.94 143.6 267.54 158.91 306.04 155.14 319.75 157.28 319.69 157.29 319.69"/><path class="cls-6" d="M139.34,113.1a7,7,0,0,1-1.44-.6,3,3,0,0,0-.42.06h-.08a2.46,2.46,0,0,0-.48.16h0a20.85,20.85,0,0,0,1.16,3.24c0-.24.33-.45,1.07-.29a1.59,1.59,0,0,1,.83.48l0,0v-.35a10.75,10.75,0,0,0-.63-2.69s0,0,0,0Z"/><path class="cls-7" d="M16.13,334.36c.59,5.24,1.1,9.94,1.56,13.93-.24-2.13-.6-5.4-.92-8.25a1.49,1.49,0,0,1,0-.21C16.43,337,16.17,334.66,16.13,334.36Z"/><path class="cls-7" d="M180.25,349.06h.09a66.84,66.84,0,0,0,7.26-1.39,65.56,65.56,0,0,1,11.94-1.25h0c5.82-.26,11.29-.26,11.29-.26l12.41-36.49-10.92-1.76-2.61-.43L188,319.05V319h0l-1.1-19.43L180,304.21l-8.79,6-3.67,2.4-.2.13-10,6.94-.06,0-2.14.06-.71,0-48.37,1.47a62.63,62.63,0,0,0-21.48-3.94h-.07c-1.25,0-2.49,0-3.74.08h-.11c-1.71,1.34-4.49,4.5-7,11.78-3.37,9.67-.7,29.13.26,35.68h0c27.19-4,63.37-9.64,80.53-12.34h0l1.56-.24h.05l8.2-1.25s3.24-.34,7.38-.83h.06C174.43,349.86,177.47,349.47,180.25,349.06Z"/><path class="cls-6" d="M115.79,111c-.45-.5-1.85-.53-3.57-.34a71.52,71.52,0,0,0-9.21,2l.38-.13-.45.13s-1.26,5.14,3.76,5.77c1.51.19,3.56.55,5.66.87,0,0-2-6,4.09-6h0c3.11,0,4.33.48,4.79,1l0,0c-.07-.42-.13-.77-.17-1.06v0A8.72,8.72,0,0,1,115.79,111Z"/><path d="M121.55,112a11.32,11.32,0,0,1-.58-6.8s-.06.11-.15.32c-.39.9-1.41,3.52-.82,5.45l-.12,0a12.42,12.42,0,0,0-5.39-1,25.07,25.07,0,0,0-5.2.62l-5.9,1.93-.38.13a71.52,71.52,0,0,1,9.21-2c1.76-.21,3.19-.18,3.64.31a8.82,8.82,0,0,0,5.3,2.19c.43,0,.87.07,1.3.09h.19A4.46,4.46,0,0,0,121.55,112Z"/><path class="cls-8" d="M116.45,113.24c-6.12,0-4.11,6-4.09,6h0a25.27,25.27,0,0,0,6.21,1c2.35,0,3.06-.77,3.27-1.33a1,1,0,0,0,.07-.38.67.67,0,0,0,0-.2l-.5-3.23a.76.76,0,0,0-.14-.9h0c-.45-.49-1.67-1-4.8-1Z"/><path class="cls-8" d="M138.08,116h0a4.76,4.76,0,0,0,2,2.51h.07a1.6,1.6,0,0,0,.26-1.72,1.79,1.79,0,0,0-.39-.59l0,0a1.63,1.63,0,0,0-.81-.47C138.4,115.53,138.15,115.74,138.08,116Z"/><path d="M127.8,101.25c0-1.4-3.59-4.29-4.83-3.79a12.58,12.58,0,0,0-3.67-.25c-3.76.47-14.77-.14-18.82-.37a.52.52,0,0,0-.14.06c-.58.33-2.79,1.8,0,1.19l22.36,2.85c.22.16,4.12,2.94,4.88,2.11a.57.57,0,0,0,.14-.48S127.8,101.32,127.8,101.25Z"/><path d="M139.58,102.16l.57-2.09V100s-3.53-.31-3.58.5a26.42,26.42,0,0,1-.25,2.63v0a1.25,1.25,0,0,0,1.39.72,1.47,1.47,0,0,0,.6-.23h0A4.49,4.49,0,0,0,139.58,102.16Z"/><path d="M138.09,116h0a20.85,20.85,0,0,1-1.16-3.24h0c-.1-.33-.19-.67-.27-1h0a9.17,9.17,0,0,0,1.26.79h0a7,7,0,0,0,1.44.6h0a2.49,2.49,0,0,0,2.13-.22,3.44,3.44,0,0,0,.56-.44c.1-.21-1.37.29-3.5-.19h0a10,10,0,0,1-1.93-.65v0a85.37,85.37,0,0,1-1.82-11.8v.17c-.31,13.15,1.64,17.42,3.5,19a4.67,4.67,0,0,0,2,.94,3.21,3.21,0,0,1,1.57.89.8.8,0,0,1,.15.2c.72,1.19.55,5,0,6.45,0,.1-.09.2-.16.3-1.34,2.07-3.32,2.27-4.12,2.81a27.87,27.87,0,0,1-4.59,1.72l-.28.08,4.41-.48,3.93-2.62,0,0,1.36-.91c1-1.25,1.69-6.71.51-7.82l-.13-.1a11.37,11.37,0,0,0-2.9-1.83A4.76,4.76,0,0,1,138.09,116Z"/><path class="cls-9" d="M134.9,134.88l-.05,0-5.34-6.26h0l-23.68,5.91.65,4.7-10.31,7.86L91.6,129.64l0,.05-3.93,4.48,0-.1-4.26-10.72,0,0a10.19,10.19,0,0,0-2,1.61s2.75,8.89.74,11.82a2.27,2.27,0,0,1-.8.74l1.49,2L82,142.24c2.32,1.63,10.84,5.35,18,8.35l10.78,4.4s-4.94-2-10.78-4.4L98,149.75l2,.84c-7.09-2.88-15.5-6.31-18.25-7.35l-.26.92,7.19,5.54,13.5,7.78,5.5,7.46,6.1-1.57.89-.22,2.51-.38,9.54-1.4,1.9-.29,3.36-1.57.41-.2,5.26-11.12c-1.63,1-.29.2-.94-1a.64.64,0,0,0-.08-.14h0a10,10,0,0,1-1.08,1.18.67.67,0,0,1-.14.11c-.12.11-.25.22-.37.31a4.81,4.81,0,0,1-.41.27l-.07,0c-1.95,1.12-3.48.14-5.09.49a6.7,6.7,0,0,1-.68-.1c-1.21-.21-3.77-.73-6.1-1.12l-.74-.12c-.68-.1-1.33-.19-1.88-.25a7,7,0,0,1-2.75-.91l-.76-3.95h0a2,2,0,0,0,.62,0c0-.07-1.15-.29-1-.53.06-.08.24-.15.62-.23l1.45-.25c3-.57,5.63-1.28,7.48-1.68a6.29,6.29,0,0,1,2.71-.24,18.35,18.35,0,0,0,4.56-.22,9.78,9.78,0,0,1,5.44.2l.07,0a6.2,6.2,0,0,1,.89.37l1.84-9.23-.77.45-.09.05Zm-35,15.71L110.7,155S105.76,153,99.92,150.59Z"/><path d="M100,150.59l-2-.84c-6.68-2.81-13.89-6-16-7.5l0,.08-.26.9h0C84.45,144.28,92.86,147.71,100,150.59Z"/><path d="M110.7,155l-10.78-4.4C105.76,153,110.7,155,110.7,155Z"/><path class="cls-10" d="M135,141.11l-1.44.35-1.65-.9c-1.6-.87-12.55,3.08-13.16,3.3h0c12.78,6.28,13.34,5,13.34,5l2.82-1.25a2.74,2.74,0,0,0,1-.82c.38-.5,1-1.24,1.47-2h0c.82-1.26,1.54-2.38,1.26-2.51l-.62-.33-2-1.06h0Z"/><path class="cls-11" d="M53.62,167.48l1.31-.13,13.33-1.25c1.26-1,1.73-2.66,1.26-5.24-.53-2.87,1.68-2.07,5,.44l.74-5.93a.73.73,0,0,1,.79-.58h1.34a1.58,1.58,0,0,1,.8.19.94.94,0,0,1,.1.1h0l3.07-10.83.26-.94,0-.08.26-.9,0-.08.73-2.61-1.5-2a2.22,2.22,0,0,1-1,.27c-5.14.39-7.1-7.92-7.1-7.92l0,0a1.32,1.32,0,0,1,0-.13s3.53,4.46,4.59,3.1l-1.49-2,0-.08c.06-.24.3-1.15.62-2.43l0,0c-2.43-4.69-7.82-11.74-7.65-17.33a7.26,7.26,0,0,1,.43-2.37c2.69-7.37,13.59-21.35,13.59-21.35s3.91-1.59,4.73-7.27a17.09,17.09,0,0,0,0-4.57,17.31,17.31,0,0,1-.13-1.81c-.23-8.38,7-8.59,17-3l.42.24a78.44,78.44,0,0,1-1.09-13.69v-.1c.14-3,.76-5.14,2.22-4.92,2.65.36,6.68,3.14,9.81,5.58l0,0a5.21,5.21,0,0,0,.51-1.34,3.41,3.41,0,0,0,.1-.46,2.89,2.89,0,0,0,0-.29,5.48,5.48,0,0,0,0-.81s0-.07,0-.1a5.31,5.31,0,0,0-2.63-4.2,5.53,5.53,0,0,0-.93-.42,4.55,4.55,0,0,0-1.64-.18c-11.46.85-21.33.52-21.33.52l-2.44-3.77c-.84-1.25-4.4-1.4-3.61-.1,3.39,5.58-5.51,6-10.67,6.38-7.12.55-12.55,11-13.29,13.1.65-2.15,1.95-1.83-9.63,3.49-13.27,6.06-4.58,19.31-4.58,19.31s-8.78-5-6.77,6.19a76.37,76.37,0,0,1,1,20l-7.63,2.27s-7.44,6-2.61,10.92S41,138.36,41,138.36s7.91,13.21-3.64,9.7-5.67,5.56,6,5.27-6.92,7.53-6.92,7.53-5.68,6,9.14,6.28c2.54,0,4.93.17,7.21.29h.12Z"/><path class="cls-12" d="M126.64,59.94c-3.51-2.21-5.9,1.88-5.9,1.88l-.77-.68c-.65-.58-1.67-1.46-2.89-2.45l-.92-.73,0,0c-3.13-2.44-7.16-5.22-9.81-5.58-1.46-.22-2.08,1.92-2.22,4.92v.08a78.8,78.8,0,0,0,1.11,13.72h0l-.42-.24c-10-5.64-17.22-5.43-17,3,0,.53.06,1.09.13,1.69a17.15,17.15,0,0,1,0,4.69c-.82,5.68-4.73,7.27-4.73,7.27s-10.9,14-13.59,21.35a7.26,7.26,0,0,0-.43,2.37c-.11,5.61,5.26,12.6,7.67,17.26A8.18,8.18,0,0,1,78,131.8h0a2.26,2.26,0,0,1-.26,1.17l0,0c-1.06,1.36-4.59-3.1-4.59-3.1a1.32,1.32,0,0,0,0,.13c.26,1,2.29,8.15,7.07,7.79a2.09,2.09,0,0,0,1-.27,2.3,2.3,0,0,0,.81-.74c2-2.93-.74-11.82-.74-11.82a10.29,10.29,0,0,1,2-1.64h0a9.71,9.71,0,0,1,2.12-1l.78-.25c1.37-.35,1.94-1,2.16-1.63l-.06-1.65V112.7a7.86,7.86,0,0,1,1.78-5c1.59-1.92,3.76-5.69,5.31-12.76,2.51-11.94,7.78-14.45,7.78-14.45l9.82-3s2.14-15.8,12.39-9a13.61,13.61,0,0,1,5,5.7,18.09,18.09,0,0,1,1,11h0s2.51,11,6.44,12.3a5.25,5.25,0,0,1,2.6,2.3h0a9.92,9.92,0,0,1,1.25,3l3.77,2.63v0l.56-4.1a8.36,8.36,0,0,0,0-2c-.4-5-4.38-10-4.38-10a10,10,0,0,1-.34-7,8.24,8.24,0,0,0-1.59-7.34L134,70.06a54.25,54.25,0,0,0-4-6.64A14.41,14.41,0,0,0,126.64,59.94Z"/><polygon points="105.85 188.19 107.6 188.98 107.49 188.58 107.48 188.57 105.85 188.19"/><path d="M57.88,368s-.14-1-1.11-.23a.75.75,0,0,1,1,.13Z"/><path d="M79.73,311.16a2.1,2.1,0,0,1,0,.31.38.38,0,0,0,0-.15Z"/><path d="M60.51,371.4h.06a.74.74,0,0,0,.45-.34.67.67,0,0,1-.24,0c-1.06-.26-2.25-2.07-2.69-2.8L58,368l1.77,3a.71.71,0,0,0,.73.36Z"/><path d="M66.56,368.69a.21.21,0,0,0,0-.06,1.32,1.32,0,0,1-.34,0c-.76,0-1.27-.81-2-.9a1,1,0,0,0-.33,0h0l1.61,1.12A.76.76,0,0,0,66.56,368.69Z"/><path d="M35.38,350.94l-.05-.09s0,.09.05.13l.08.09Z"/><path d="M58.1,309.5l.1,0v0Z"/><path d="M73.9,365h0l0-.13Z"/><path d="M58.6,367.58c1.4,1.7.76,3.44,2.14,2.44a8.7,8.7,0,0,0,2.06-2.09s.25-.17.59-.36c.57-.32,1.21-.83,1.7-.43s.41,2.3,1.55.75,1-1.94,1.47-1.94a6.21,6.21,0,0,1,1.72.18c.14.1,2.45,2.33,3.26,1.65a2.2,2.2,0,0,0,.6-1.19,8.1,8.1,0,0,0,.19-1.72c-1-6.55-3.64-26-.26-35.69,2.51-7.28,5.33-10.44,7-11.78a6,6,0,0,1,1.36-.86.77.77,0,0,1,.56,0l1,.39a.74.74,0,0,0,.74-.12l-.68-1.17L83,314.5a2.56,2.56,0,0,0-.4-.22h0l-2.75-.1a2,2,0,0,1-1,.2,1.16,1.16,0,0,1-1.07-1.14A9.88,9.88,0,0,1,78,311.8l-2.76.49-.71.46c-1.28,1-3.1,3-3.59,2.88a.16.16,0,0,1-.14-.05,23.41,23.41,0,0,1-.79-6.12h0v0l-3.87.81a4.31,4.31,0,0,1-2,.6,3.37,3.37,0,0,1-.71,0l2.67-.57h0l.45-.21.29-.15a20.23,20.23,0,0,1,2.16-1.15c.68-.27,1.08-.19,1.08.67l2,.76-.61,4.48,3-1.95h0a3.34,3.34,0,0,1,.68-.45l.12,0-.08,0c.21-.08.42-.14.63-.2h0L76,312a8.49,8.49,0,0,1,2-.27l1.7-.31v-.63a.75.75,0,0,0-.43-.44.75.75,0,0,1,.52.43h0c.14-2.06.58-9,.62-16,0-5.74-.21-11.65-1.1-15.36,0-.21-.1-.41-.16-.61a.83.83,0,0,0,0-.15,8.86,8.86,0,0,0-.5-1.36c-3.27-7-10.55-16.44-10.55-16.44v0l0-.05s6.1-13.92,5.84-16.63-1.1-21.31-1.13-22c-12.37-19.32-30.39-37.45-50.05-35.79,19.67-1.71,37.69,16.45,50.05,35.79v0l.11.2.51.8-.5-.79a15.08,15.08,0,0,1,1,2.45c1.09,3.42,2.4,10.39.74,21.83l-5.28,14.2a51.48,51.48,0,0,1,9,12.1,23.51,23.51,0,0,1,2.66,8.42,100.77,100.77,0,0,1,.11,12l0,.07c-.14,3.67-.38,7.33-.62,10.4-.26,3.31-.5,5.91-.59,7,0,.21,0,.36-.05.46l0-.09a.68.68,0,0,1-.09.37.72.72,0,0,0-.09.27.73.73,0,0,1,.09-.38l-1,1.72,1,1a3.55,3.55,0,0,1,1.44-.24,3.49,3.49,0,0,1,1.44.34h-.07l1.84.07h.2v3h0a62.63,62.63,0,0,1,21.48,3.94l48.37-1.47.66,0L158.91,306l-15.31-38.5L137.2,244l-11.81-25.53-3.72-7L114.92,199l-4.27-15-.1.18c.25,1.25.35,2.13.35,2.13h0c0-.06-.11-.87-.35-2.12l.11-.19,0-.05.14-.26,0,0h0l5.86,15.87,8.79,18.83,12.32,23.77,9.11,30.44L160.48,306l-3.09,13.65,10-6.94.2-.13,3.7-2.5h0l8.72-5.93-1.37-2.51c.47-17.44-4.48-28.86-7.53-34.26-.14-.25-.29-.49-.41-.71l.08,6.78-.09-6.85v-.15l-.09-6.12-.75-20.43v-.11l-23.38-44.72-24.77-11.51v0c-.11-1.26-1.12-13.13-1.79-13.74a37.92,37.92,0,0,0-5-2.51l-.88-.4-.06,0v1.57l.06,1.25c0,1.2-4.53,3.56-4.53,3.56l-.14,6.22v.24c-1.09-3.68-2.9-7.92-5.77-9.93a6.1,6.1,0,0,0-4.63-1.11,7.57,7.57,0,0,1-3.32-.36c-5.23-1.63-12-7.71-17.28-13.21a.94.94,0,0,0-.1-.1,1.58,1.58,0,0,0-.8-.19H76.07a.73.73,0,0,0-.79.58l-.74,5.93c-3.34-2.51-5.55-3.31-5-.44.47,2.58,0,4.22-1.26,5.24l-13.33,1.25-1.31.13-1,.1-.33,0L32.63,178.75s-4.63,3.08-10.17,7.6H22.3l-8.78,2.85a.8.8,0,0,0-.53.73v2.75a.75.75,0,0,1-.35.64l-8.42,5.51a.74.74,0,0,0-.35.62l-.26,10.81v.1c-.19,1.12-3.61,22.95.27,35.29a124.46,124.46,0,0,1,4.85,20.94v.22A100.51,100.51,0,0,0,7.61,283.7c0,11,8.23,49.24,8.52,50.55a.09.09,0,0,1,0,.07c0,.33.3,2.69.62,5.51a1.49,1.49,0,0,0,0,.21c.32,2.85.68,6.11.92,8.21.49,4.43-.27,11.36,1.74,15.73s8.25,5.71,15.15,6.15c6.67.41,12.55-1.36,17.38-2.11a.76.76,0,0,1,.76.39l.54.94.13.14a7.31,7.31,0,0,1-.73-3.44c.18-1.89-3.32-3.1-3.32-3.1a83.61,83.61,0,0,1-8.14-6l-.65-.52.65.56c-2.63-2-4.94-4.2-5.82-6a5.72,5.72,0,0,1-.88-3.11c-.14-6.29,6.64-15.75,6.64-15.75S44.7,328,46,324.5v0a6.38,6.38,0,0,0,.22-.66l-.09.3c0-.09.07-.18.09-.26-.94,3.29-4.31,10.49-5.48,10.63s-5.79,8.41-5.85,13.83a6,6,0,0,0,.49,2.63,32.17,32.17,0,0,0,5.82,6,64.74,64.74,0,0,0,10.62,6.69c1.85.74,1.92,4.71,1.88,6a.78.78,0,0,0,.68-.11l2.39-1.8a1.44,1.44,0,0,1,.2-.47C57.2,366.86,57.68,366.48,58.6,367.58Zm13.91-55.09a.78.78,0,0,0,.7-.29l1-1.42a.76.76,0,0,1,.6-.26.75.75,0,0,0-.57.31l-1,1.42a.76.76,0,0,1-1.07.14s-.07-.09-.11-.13A.78.78,0,0,0,72.51,312.49Zm38.18-138.37s5.66,4.83,5.91,8.78-.63,4.92-.63,4.92l.15-5.8-5.43-7.87.07.06Zm-22.29,10h0c-1.74-.43-3-.74-3.22-.84C83.9,182.76,74.82,172,74.82,172l-4.32-5.63s12.54,15.48,14.73,16c.18,0,.48.11.88.22l1.47.39,4.29,1.18,12.94,3.6h0l2.64.74-.64-2.19h2.44a50.54,50.54,0,0,1-1.58-5.22c-.11-.28-.19-.55-.28-.83a24.5,24.5,0,0,1-1.24-5.47l.11.49c0-.16-.05-.33-.06-.49,0,0,.74,3.22,1.55,6.37.72,2.14,1.47,4.18,1.81,5.22h0c.16.49.22.75.12.69s-.06,0-.14-.11a3.06,3.06,0,0,1-.27-.58h-2.43l.64,2.15,1.74.49-.4-.09.46.12-1.76-.4.11.4-1.76-.79c-4.65-1.06-12.87-3-17.44-4.1L67,195.54h0Zm-31.06,158-.12-.07a.77.77,0,0,0,.12.13c-2.51-1.08-1.36-7-1.36-7v-.06l5.52-5.44.32-.4-.18.26-.14.14-.22.28.22-.22c-2,2.51-4.8,5.76-4.8,5.76s-.13,1.41-.12,2.94S56.77,341.64,57.34,342.08Zm.43.18c2.89,1.25,6.39,18.61,6.39,18.61S59.45,343.51,57.77,342.26Zm14.88-24c2.41-.32,4.94-3.57,4.94-3.57h0c0,1.08-3.21,3.38-4.25,4a1.7,1.7,0,0,1-.32.17c-.21,0-4.4,2.32-4.4,2.32s-2.71,2.51-4.18,4.17l-.9,1.38a9.85,9.85,0,0,1-1.69,2.63l-.18.27-.14.13.32-.4,1.69-2.63a3.75,3.75,0,0,1,.9-1.38l1.79-2.69S70.23,318.55,72.65,318.22Zm-6-2.71s-3.19,8.21-5.21,8.16h0a1,1,0,0,0-.3.05l0-.05h0l0,.06,0,0c-2.17,2.38-5.46,6.27-5.46,6.27l.08-.13-.08.09s3.39-5.77,5.46-6.27A10.1,10.1,0,0,1,63,321.93C63.45,321.89,66.62,315.51,66.62,315.51Zm-3.33-4.63-2.87-3.54C61.2,307.34,63.29,310.88,63.29,310.88ZM42.2,309.53l0,0h0c4.43-2.85,15.48-.14,16,0,1-2.64,1.52-3.42,1.82-3.45s.39,1.28.39,1.27l0,0v0h0c-.81.35-2.32,6.79-3.38,6.79s-10,6.17-10.49,8a2.56,2.56,0,0,1,.05-.27,1,1,0,0,0-.11.24c.42-3.56,10.83-10,10.83-10,.34-1,.64-1.86.91-2.58h-16Zm4,14.27a6.15,6.15,0,0,0,.15-.66.29.29,0,0,0,0-.09,4.18,4.18,0,0,0,.06-.68,1,1,0,0,1,0,.18,4.82,4.82,0,0,1-.24,1.29,1.49,1.49,0,0,0,0-.18A1,1,0,0,1,46.22,323.8ZM44.1,351.09c1.26.18,5,6,5,6l-.5-.64L49,357s-2.75-3.64-5.29-4.63-1.25-10.67-1.25-10.67l5-7.37,3.91-9.15s3.52-5.39,5.61-5.83,4.31-4.73,4.31-4.73,0,.09,0,.14l.07-.13c0,1.61-3.77,5.53-4,5.53s-3.77,3.09-3.77,3.09-4.38,8.79-4.38,10c0,.64-1.54,2.89-3,4.95s-2.9,3.9-2.9,3.9S42.85,350.92,44.1,351.09Zm8.68,4.48c-4-2.35-1-16-1-16v.11l0-.11v14.11c6.06,1.95,5.49,10.26,5.49,10.26a.77.77,0,0,0,0-.15v.15S56.72,357.92,52.78,355.57Z"/><path class="cls-6" d="M84.63,317.31v-3h-.2l-1.81-.06h0a2.56,2.56,0,0,1,.4.22l.67,1.14.68,1.15Z"/><path class="cls-6" d="M52.66,366a7.31,7.31,0,0,0,.73,3.44l.3.61v-.41c.05-1.26,0-5.16-1.87-6A64.3,64.3,0,0,1,41.2,357a83.13,83.13,0,0,0,8.14,5.95S52.84,364.16,52.66,366Z"/><path class="cls-6" d="M82.66,314.27a3.49,3.49,0,0,0-1.44-.34,3.65,3.65,0,0,0-1.38.24l2.75.1Z"/><path class="cls-6" d="M76,312l-.19.05h0c-.21.06-.42.12-.63.2l.08,0,2.74-.48A7.78,7.78,0,0,0,76,312Z"/><path class="cls-6" d="M78.73,313.19l1-1.72-1.71.32h0a9.88,9.88,0,0,0-.22,1.43,1.16,1.16,0,0,0,1.07,1.14,2,2,0,0,0,1-.2Z"/><path class="cls-6" d="M74.44,312.75l-3,1.95.61-4.48-2-.76a23.41,23.41,0,0,0,.79,6.12.16.16,0,0,0,.14.05c.56,0,2.29-1.92,3.52-2.87Z"/><path class="cls-6" d="M35.46,351.07l-.08-.09c.88,1.81,3.19,4,5.82,6l-.65-.56A31.89,31.89,0,0,1,35.46,351.07Z"/><path class="cls-6" d="M34.89,348.31c.06-5.42,4.66-13.71,5.85-13.83s4.54-7.34,5.48-10.63c0,.08-.06.17-.09.26s-.08.24-.13.36v0c-1.27,3.47-4.85,7.65-4.85,7.65s-6.76,9.43-6.64,15.72a5.72,5.72,0,0,0,.88,3.11s0-.09-.05-.13A6.1,6.1,0,0,1,34.89,348.31Z"/><path class="cls-6" d="M46.46,322.55a.76.76,0,0,0,0-.15,3.74,3.74,0,0,1-.06.65.29.29,0,0,1,0,.09c0,.17-.06.34-.11.52a1.49,1.49,0,0,1,0,.18A4.82,4.82,0,0,0,46.46,322.55Z"/><path class="cls-6" d="M68.9,308.79c-.56.22-1.29.68-2.16,1.15l-.29.15-.45.21h0l3.91-.83h0C70,308.6,69.58,308.52,68.9,308.79Z"/><path class="cls-6" d="M66,310.31l-2.67.57a3.37,3.37,0,0,0,.71,0,4.31,4.31,0,0,0,2-.6Z"/><path class="cls-6" d="M58.21,309.5h0c-.53-.14-11.58-2.85-16,0h16Z"/><path class="cls-6" d="M58.23,309.5v0c-.27.72-.57,1.56-.91,2.58,0,0-10.41,6.48-10.83,10a1,1,0,0,1,.11-.24c1.08-2.06,9.36-7.77,10.38-7.77s2.61-6.61,3.41-6.8l0,0s.06-1.42-.39-1.27S59.19,307,58.23,309.5Z"/><path class="cls-6" d="M63.29,310.88s-2.09-3.54-2.87-3.54Z"/><path class="cls-6" d="M46.21,338.27c1.49-2.09,3-4.35,3-5,0-1.26,4.38-10,4.38-10s3.64-3.09,3.77-3.09,3.75-3.7,4-5.39c0-.05,0-.1,0-.14s-2.21,4.29-4.31,4.73-5.61,5.83-5.61,5.83l-3.91,9.15-5,7.38s-1.33,9.69,1.26,10.67c1.91.72,3.88,2.9,4.78,4l.5.64s-3.76-5.77-5-6-.79-8.92-.79-8.92S44.75,340.3,46.21,338.27Z"/><path class="cls-6" d="M66.22,322.64l-1.79,2.69c1.47-1.68,4.18-4.17,4.18-4.17s4.18-2.32,4.4-2.32a1.7,1.7,0,0,0,.32-.17c1-.65,4.24-3,4.25-4h0s-2.51,3.25-4.94,3.57S66.22,322.64,66.22,322.64Z"/><polygon class="cls-6" points="61.84 329.28 61.52 329.68 61.66 329.54 61.84 329.28"/><path class="cls-6" d="M61.3,330l.22-.28L56,335.12v0c-.09.47-1,5.68,1.23,6.85l.12.07c-.57-.44-.73-2.09-.74-3.64s.12-3,.12-3S59.31,332.46,61.3,330Z"/><path class="cls-6" d="M57.77,342.26c1.68,1.25,6.39,18.61,6.39,18.61S60.66,343.57,57.77,342.26Z"/><path class="cls-6" d="M64.43,325.33a3.75,3.75,0,0,0-.9,1.38Z"/><path class="cls-6" d="M63.53,326.71l-1.69,2.63A9.85,9.85,0,0,0,63.53,326.71Z"/><path class="cls-6" d="M63,321.93a10.22,10.22,0,0,0-1.8,1.74l0,.05a1,1,0,0,1,.3-.05h0c2,0,5.21-8.16,5.21-8.16S63.45,321.89,63,321.93Z"/><path class="cls-6" d="M55.73,329.85l-.08.13s3.29-3.89,5.46-6.27l0,0C59.16,324.26,56.22,329,55.73,329.85Z"/><path class="cls-6" d="M57.32,363.77c0-1.08.11-8.31-5.5-10.11V339.55s-3,13.67,1,16,4.54,8.35,4.54,8.35Z"/><path class="cls-6" d="M60.78,371a.67.67,0,0,0,.24,0c1.24,0,1.81-3,2.87-3.28h0a1,1,0,0,1,.33,0,3.57,3.57,0,0,1,1.41.69.32.32,0,0,0,.18.1,1.46,1.46,0,0,0,.41.11,1.32,1.32,0,0,0,.34,0h.07c.68-.17,1-1,1.07-1.56.05-.26.07-.46.08-.56v-.07l1.06-.3H69l.4.23.2.12.86.5.68.4.48.29.26.15.19.1.4.24a1.05,1.05,0,0,0,1.5-.58,2.79,2.79,0,0,0,.24-.53h0s0,0,0-.06l-.3-2.12v0s0,.07,0,.13h0a7.68,7.68,0,0,1-.21,1.59,2.2,2.2,0,0,1-.6,1.19c-.81.68-3.12-1.55-3.26-1.65a6.21,6.21,0,0,0-1.72-.18c-.48,0-.33.4-1.47,1.94s-1.06-.35-1.55-.75-1.13.11-1.7.43c-.34.19-.59.36-.59.36A8.7,8.7,0,0,1,60.74,370c-1.38,1-.74-.74-2.14-2.44-.92-1.1-1.4-.72-1.63-.32a1.59,1.59,0,0,0-.18.43c1-.74,1.12.23,1.12.23a3.12,3.12,0,0,0,.18.3C58.53,369,59.72,370.76,60.78,371Z"/><path class="cls-6" d="M79.73,311.32v.11s0,0,0-.13,0-.25.05-.46c.09-1.1.33-3.7.59-7,.23-3.08.48-6.77.62-10.47a99.52,99.52,0,0,0-.1-12.09,23.43,23.43,0,0,0-2.64-8.37,51.48,51.48,0,0,0-9-12.1l0,0,5.28-14.25c1.65-11.35.37-18.3-.71-21.75a15.08,15.08,0,0,0-1-2.45h0l-.11-.2v0h0c0,.68.87,19.33,1.13,22S68,260.76,68,260.76l0,.05c.42.55,7.34,9.65,10.52,16.39a9.3,9.3,0,0,1,.52,1.45.83.83,0,0,1,0,.15c.06.2.11.4.16.61.89,3.71,1.13,9.62,1.1,15.36,0,7.08-.48,14-.62,16h0v.51Z"/><path class="cls-6" d="M116.12,182l-.15,5.8s.88-1,.63-4.92-5.91-8.78-5.91-8.78l.07.09,5.37,7.78Z"/><path class="cls-6" d="M106.26,175.25l-.11-.49a24.5,24.5,0,0,0,1.24,5.47c.1.3.2.61.31.9C107.08,178.72,106.5,176.27,106.26,175.25Z"/><path class="cls-6" d="M109.29,186.35a3.06,3.06,0,0,0,.27.58c.08.13.13.15.14.11a2.47,2.47,0,0,0-.14-.69c-.34-1-1.09-3.08-1.81-5.22a52.65,52.65,0,0,0,1.53,5.21Z"/><path class="cls-6" d="M105.85,188.19l1.63.38h0l1.35.31.4.09-1.74-.49-.06,0-2.65-.74-12.92-3.6L87.58,183l-1.47-.39c-.4-.11-.7-.18-.88-.22-2.25-.54-14.73-16-14.73-16L74.82,172s9.08,10.81,10.35,11.29c.26.1,1.48.41,3.22.84h0c4.57,1.12,12.78,3,17.42,4.1Z"/><path class="cls-13" d="M178.77,105c10.75-4.9,32-8,42.67-21.09S213,.63,205.59.54,190,45.56,196.81,70s-17.45,13.28-33.72,30-9.42,34.47-9.42,34.47C165.62,129.89,168,109.9,178.77,105Z"/><polygon class="cls-14" points="254.69 446.79 248.3 447.61 248.3 453.57 255.73 453.06 271.55 451.95 271.55 444.65 254.69 446.79"/><polygon class="cls-4" points="271.55 444.65 271.55 451.95 276.06 451.64 276.06 444.07 271.55 444.07 271.55 444.65"/><path class="cls-13" d="M292.79,411.28c-.59-8.13-7.76-8.45-9.94-5.84s5.78,11.2,4.65,14.56-11.08,5.4-13.69,17.37l2.25-.73c2.26-.71,5.22-9.06,10.92-10.75S293.39,419.41,292.79,411.28Z"/><path d="M188,319l21.73-11.57,2.61.42,4.73-25.61a1,1,0,0,0-.79-1.16,1.28,1.28,0,0,0-.39,0L187,287.16a1,1,0,0,0-.78,1l.64,11.3v.07L188,319Z"/><path class="cls-4" d="M165.19,388l-.87.28a175.81,175.81,0,0,1-26.61,6.16c-13,1.56-66.12-7.62-66.12-7.62v0l-.83,4.95-1.15,6.81,2.77.38,1.46.21,3.7.52,2.19.31,10.55,1.48,6,.85,3.13.44,4.78.68,1.61.22,3.2.46,7.89,1.11,6,.85,1.43.21,5.39.77,4.7.67,3.84.56,1.55.22,2.22.33a6.63,6.63,0,0,0,1,.07c5.66-.08,18.15-6,27.82-11l.06,0h0l1.26-.66.07,0c6.53-3.45,11.44-6.31,11.44-6.31s-.79-2.18-1.83-4.31-2.3-4.24-3.36-4.2a.92.92,0,0,0-.69.41c-.54.69-2.66,1.7-5.71,2.85l-.92.34c-1,.37-2.13.76-3.31,1.15Z"/><polygon class="cls-4" points="82.18 453.08 88.18 403.99 87.93 405.72 81.13 453.57 86.19 459.09 193.69 576.46 193.76 576.53 193.69 576.46 87.15 458.58 82.18 453.08"/><path class="cls-4" d="M113.35,412c0-.08.07-.15.1-.22s-15.82,25.46-22.59,25.56C90.86,437.37,99.84,442.23,113.35,412Z"/></svg>