<?xml version="1.0" encoding="utf-8"?>
<!-- Generator: Adobe Illustrator 25.4.1, SVG Export Plug-In . SVG Version: 6.00 Build 0)  -->
<svg version="1.1" id="Layer_1" xmlns="http://www.w3.org/2000/svg" xmlns:xlink="http://www.w3.org/1999/xlink" x="0px" y="0px"
	 viewBox="0 0 935 830" style="enable-background:new 0 0 935 830;" xml:space="preserve">
<style type="text/css">
	.st0{fill:none;}
	.st1{fill:#9FFF28;}
	.st2{fill:#333333;}
	.st3{fill:#D1C6C6;}
	.st4{fill:#52B2AD;}
	.st5{fill:#FCD400;}
	.st6{fill:#0071BC;}
	.st7{fill:#2E3192;}
	.st8{fill:#AD926C;}
	.st9{fill:#FFCC99;}
	.st10{fill:#C1272D;}
	.st11{fill:#FF0000;}
	.st12{fill:#EC008C;}
	.st13{fill:#FFFFFF;}
	.st14{fill:#29ABE2;}
	.st15{fill:#111111;}
	.st16{fill:#2B2B2B;}
	.st17{fill:#280406;}
	.st18{fill:#B10069;}
</style>
<path class="st0" d="M794.5,130.4c0.7,0.8,1.4,1.6,2.2,2.3l0,0c-0.1,0-0.1-0.1-0.1-0.1C795.9,132,795.2,131.3,794.5,130.4
	c-0.9-2.1-3.9-7.4-9.4-8.3C790.5,123.1,793.5,128.4,794.5,130.4z"/>
<path class="st0" d="M783.9,69.8h0.3c-0.8-0.3-1.7-0.3-2.4,0.1h0.2C782.6,69.7,783.3,69.6,783.9,69.8z"/>
<path class="st0" d="M442.6,546.2L442.6,546.2H442H442.6z"/>
<path class="st0" d="M802.5,251.8c0-0.1,0-0.2,0.1-0.3c0.3-1.4,0.7-2.8,1.2-4.2c-0.5,1.5-0.9,3-1.2,4.4
	C802.5,251.7,802.5,251.8,802.5,251.8z"/>
<path class="st0" d="M801.6,254.5c0,0.5,0.1,0.4,0.3-0.2s0.2-1,0.3-1.5c0,0,0,0.1,0,0.1C801.9,254.3,801.7,254.8,801.6,254.5z"/>
<path class="st0" d="M797.9,76.5c0.3,0.6,0.4,1.3,0.2,2C798.5,77.8,798,76.4,797.9,76.5c-1.7-6-9.7-6.7-13.8-6.7l0.2,0.1
	C788.5,69.9,796.2,70.7,797.9,76.5z"/>
<path class="st0" d="M813.9,95.6l-6.6-1.7c0,0,0,0.1,0,0.1L813.9,95.6C813.9,95.6,813.9,95.6,813.9,95.6z"/>
<path class="st0" d="M489.5,326.3l92.2-6.3v-0.2c-36.2-12.8-60.7-61.5-60.7-61.5c-13.7,22.1-34.1,53.9-45.6,65.3L489.5,326.3z"/>
<path class="st0" d="M802,251.4c0-0.1,0-0.1,0-0.2c0-0.1,0-0.2,0.1-0.3c-4.1-4.8-7.9-11.4-5.8-18.6c0.2-0.7,0.4-1.4,0.6-2.1
	c-0.3,0.8-0.5,1.6-0.8,2.5C794.1,240,798,246.6,802,251.4z"/>
<path class="st0" d="M694.5,311.4c0,0.3-0.1,0.5-0.1,0.8l0.1,0.4c0-0.1,0-0.3,0.1-0.4S694.5,311.7,694.5,311.4z"/>
<path class="st0" d="M428.4,511.6h1.9l51.5,72l-51.5-72H428.4z"/>
<path class="st0" d="M704.3,338l-0.2-0.2c0,0,0.7,2.6,5.9,6.3h0.1C705.8,341,704.6,338.7,704.3,338z"/>
<path class="st0" d="M702.7,514.4c2-2.8,14-20,14-33.4C716.6,494.5,704.5,511.8,702.7,514.4L702.7,514.4z"/>
<path class="st0" d="M817.2,85.5C817.1,85.4,817.1,85.4,817.2,85.5c0-0.1-0.8-0.4-1.8,2.1C816.3,85.3,817.1,85.4,817.2,85.5z"/>
<path class="st0" d="M793.8,281.8c-3.7,3.4-8.3,7.7-14.2,13.6c-1.1,1.1-0.4,1.4-0.4,1.4l7.3,28.4l1,4c0.1,0.3,0.1,0.6,0.1,0.9
	c0-0.4,0-0.9-0.1-1.3l-1-4c2.9-7,5.3-12.5,6.2-14.7l5.1-29.7c0-0.8,0-1.6,0.1-2.6c0,0.1,0,0.2,0,0.3
	C796.7,279.2,795.3,280.4,793.8,281.8z"/>
<polygon class="st0" points="655.1,616.6 697.3,642.8 744.8,672.2 697.3,642.8 "/>
<path class="st0" d="M649.8,535.5l-21.5,4.2v0.1l21.8-4.3l79.4-15.7v-0.4l-78.6,15.8l8.4-11.8l-0.9,0.2L649.8,535.5z"/>
<path class="st0" d="M814.5,224.1c-1.4,1.8-2.7,3.6-3.8,5.5c1.1-1.8,2.3-3.5,3.6-5.2L814.5,224.1z"/>
<path class="st0" d="M767.8,275.8c-0.1,0-23.8,2.9-33.8-5C744,278.8,767.8,275.8,767.8,275.8z"/>
<path class="st0" d="M731.6,269.6c1,2.5,19.4,19.4,36.2,6.2C751,289,732.6,272.1,731.6,269.6z"/>
<path class="st0" d="M797.4,133.2L797.4,133.2c1.5,0.9,4.5,2.7,4.5,3.2c0.3,1.9-5.2,5.6-9.4,7.5c-2.8,1.2-5.9,1.3-8.8,0.4
	c2.9,1,6.1,0.8,8.9-0.4c4.2-1.8,9.6-5.6,9.4-7.5C802,136,798.7,134,797.4,133.2z"/>
<path class="st0" d="M694.7,310.3c0.1-0.7,0.2-1.4,0.5-2.1c0.1-0.5,0.2-0.8,0.2-0.8c-0.6,1.2-0.9,2.5-0.8,3.9
	C694.6,311,694.7,310.7,694.7,310.3z"/>
<path class="st0" d="M776,104.3c-4.8,7.8-7.1,16.9-6.6,26c-0.5-9,1.8-18,6.6-25.7C776,104.5,776,104.4,776,104.3L776,104.3z"/>
<path class="st0" d="M777,101L777,101c-0.5,0.4-0.8,1-0.9,1.7C776.2,102,776.5,101.4,777,101z"/>
<path class="st0" d="M795.1,101.2c-0.8,1.4-2.7,1.7-4.9,1.8c-3.9,1.4-7.9,0.2-9.4-0.3c-1.4,0.2-2.4,0.5-2.7,1.3
	c-0.2,0.8-0.2,1.7,0.1,2.5c-0.2-0.7-0.2-1.5,0-2.2c0.3-0.8,1.4-1.2,2.7-1.3c3,1.1,6.3,1.2,9.4,0.3c2.3-0.1,4.1-0.4,5-1.8
	c2.4-3.9,0.8-12.3-0.1-16.1C796,89.2,797.5,97.4,795.1,101.2z"/>
<path class="st0" d="M778.9,111.7c-1.1-1.9-2-3.9-2.6-5.9c0.6,2.2,1.5,4.2,2.7,6.2c0,0,2,3.8,5.6,4.3l-0.3-0.3
	C780.8,115.3,778.9,111.7,778.9,111.7z"/>
<path class="st0" d="M778.2,100L778.2,100c-0.2,0.3-0.8,0.5-1.8,0.6c-0.1,0-0.1,0,0,0.1C777.4,100.5,778,100.3,778.2,100z"/>
<path class="st0" d="M742.2,216.5L742.2,216.5c7.7,2,8.5-0.8,16.1-3.2C750.6,215.6,749.8,218.5,742.2,216.5z"/>
<path class="st0" d="M783.4,82.2c-0.3,0.1-0.6,0.2-1,0.2C782.7,82.4,783,82.3,783.4,82.2L783.4,82.2z"/>
<path class="st0" d="M775.2,94.5c0.5,0.3,1,0.3,1.5,0.2c0.2-0.1,0.4-0.2,0.5-0.3c-0.2,0.1-0.3,0.2-0.5,0.2
	C776.2,94.8,775.7,94.7,775.2,94.5c-0.4-0.3-0.5-0.3-0.6-0.2C774.7,94.3,774.8,94.3,775.2,94.5z"/>
<path class="st0" d="M741.7,215.7c1.5-1.8,4.6-3.1,6.7-3.8c-2,0.7-5.3,2-7.1,3.9l0.1,0.1l0.6,0.5l0.3-0.2
	C742.1,216.1,741.9,215.9,741.7,215.7z"/>
<path class="st0" d="M775.7,81c0.7,1.5,2.4,1.8,4,1.8C778,82.8,776.4,82.4,775.7,81c-0.2-0.5-0.4-0.7-0.6-0.5
	C775.3,80.4,775.5,80.6,775.7,81z"/>
<path class="st0" d="M793.6,100.1l-4.1,1.1c-0.9,0-1.8,0-2.7-0.1c-1.1-0.4-1.8-1.3-1.9-2.5c-0.1-1.7-0.1-3.3,0.1-5
	c0.3-4.1,3.9-7.2,8-6.9c-3.9-0.4-7.3,2.3-8,6.1c0,0.3-0.1,0.5-0.1,0.8c-0.2,1.7-0.3,3.3-0.1,5c0.1,1.1,0.8,2,1.8,2.5
	c-2.1-0.1-4.2-0.3-5.5-0.4l0,0c1.3,0.2,3.4,0.4,5.7,0.5c0.9,0,1.8,0.1,2.7,0.1l4.1-1.1c1-0.2,1.8-1,2.1-2l0,0
	C795.3,99.1,794.5,99.8,793.6,100.1z"/>
<path class="st0" d="M801.9,60.7l-4.5-24.5l-0.3,0.2l4.5,24.5c-12.6,31.4,28.8,103.8,36.7,101.8c0.6-0.2,1.1-0.4,1.6-0.8
	c-0.4,0.3-0.9,0.5-1.3,0.6C830.8,164.4,789.4,92,801.9,60.7z"/>
<path class="st0" d="M871.7,149.3c-0.4,2.8-1.2,5.5-2.4,8c-3,6.6-7.9,12.3-14,16.2c-15,9.8-11.7,0.4-11.7,0.4
	c3-5.8,5.3-11.9,6.7-18.2c1.6-7.6,1.8-16.4-2.7-23.3c0,0,0,0.2,0,0.6c4.2,6.8,4,15.4,2.5,22.9c-1.3,2.1-2.5,4-3.3,5.5l-15.2,27
	c-0.1,0.2-0.2,0.5-0.2,0.7c-17.4,7.6-31.1,22.5-37.2,22.1c-2-0.1-3.8-0.2-5.6-0.3c1.8,0.1,3.7,0.2,5.7,0.3
	c6.1,0.4,19.8-14.6,37.2-22.1c0.8-0.3,1.5-0.6,2.2-0.9c0.8-0.3,1.6-0.4,2.4-0.2c3.7,0.9,8.9,4.4,11.4,4.2c0.6,0,5.9,1.6,1.6,0.9
	c-0.1,0-0.3,0-0.4,0l10.3,4.1c0.6-1.9,1.6-3.7,2.9-5.2c13-16.9,8.7-28,8-29.5c-0.1-0.1-0.1-0.3-0.1-0.4l-0.6-4.9
	C870.6,154.8,871.4,152.1,871.7,149.3c5.5,0.6,14-14.6,14.8-16.1V133C886.5,133,877.4,150,871.7,149.3z"/>
<polygon class="st0" points="481.8,583.7 496.4,582.9 496.4,582.9 481.8,583.6 "/>
<path class="st0" d="M851.1,74.3l0.6,0.2c0,0.1-21.3-14.4-35.2-3.5c-0.9,1.2-1.6,2.5-2.2,3.8c0.6-1.3,1.3-2.6,2.2-3.8
	C829.1,61.3,847.7,72.2,851.1,74.3z"/>
<path class="st0" d="M781.1,82.7L781.1,82.7c-0.3,0-0.7,0.1-1,0.1C780.4,82.8,780.7,82.7,781.1,82.7z"/>
<path class="st0" d="M403.9,320.3l-0.5-0.1c-13.5,11.1-34.5,28.9-33.4,30.5c0,0.1,0.1,0.1,0.2,0.2
	C370.4,348.3,390.8,331.1,403.9,320.3z"/>
<path class="st0" d="M795.9,95.8c0-2,0-4-0.2-6C795.8,91.8,795.9,93.8,795.9,95.8z"/>
<path class="st0" d="M781.4,82.7L781.4,82.7z"/>
<path class="st0" d="M794.5,87.1L794.5,87.1c0-0.1,0-0.1-0.1-0.2v-0.1L794.5,87.1z"/>
<path class="st0" d="M815.8,96.1c25.9-7.1,28,1.5,28.2,2.9h0.1c0,0.1-0.1-10.7-28.2-3.1c0,0-0.7-6.4,1.1-10.1
	C815,89.6,815.8,96.1,815.8,96.1z"/>
<path class="st0" d="M794.2,87c-0.1-0.1-0.3-0.1-0.4-0.1h-0.1h0.2C794,86.9,794.1,87,794.2,87z"/>
<path class="st0" d="M724.1,674.1c0.1-2.2,2-4,4.2-4l0,0C726.1,670.1,724.2,671.9,724.1,674.1c-0.2,1.9-0.4,3.7-0.7,5.6l0,0
	C723.7,677.9,723.9,676,724.1,674.1z"/>
<path class="st0" d="M771.1,723.3L771.1,723.3l-16.3-13.4L771.1,723.3c0,0-28.1,43.6-68.1,37.3C743.1,766.9,771.2,723.3,771.1,723.3
	c57.7-105.5-38.8-125.2-65.8-128.6C732.4,598.1,828.9,617.8,771.1,723.3z"/>
<polygon class="st0" points="568.5,579.1 567.1,579.2 567.1,579.2 568.5,579.1 "/>
<path class="st0" d="M265.5,311.3c-0.5,5.1-11.6,9.4-11.6,9.4l-44.2-9.1l0,0l44.2,9.1C253.9,320.7,265,316.4,265.5,311.3z"/>
<path class="st0" d="M509.6,608.4L509.6,608.4l14.7,1.7l0,0L509.6,608.4z"/>
<path class="st0" d="M754.8,709.9L754.8,709.9c-1.1,3.5-44.6,3.5-44.6,3.5l-50.2-23.2l0,0l50.2,23.2
	C710.2,713.4,753.8,713.4,754.8,709.9z"/>
<path class="st0" d="M741,200.5c-2.8,1.2-5.7,2-8.6,2.5c-4.3,0.8-13-0.3-21.5,2.5l0,0c8.4-2.7,17-1.6,21.3-2.4
	C735.2,202.6,738.2,201.7,741,200.5z"/>
<polygon class="st0" points="538.1,646.7 538.1,646.7 601.2,653.8 655,659.9 655,659.9 601.2,653.8 "/>
<path class="st0" d="M109.8,428.6c10.2-2.6,20.7-3.7,31.2-3.2l0.1-0.1C130.5,424.7,120,425.9,109.8,428.6z"/>
<path class="st0" d="M369.9,404.6c12.7-1.9,39.2-1.1,59.5,0c0-0.1-0.1-0.3-0.1-0.4c-20.3-1-46.6-1.8-59.3,0
	c-12.3,1.8-17.2,17.2-19.2,30.7C352.7,421.6,357.7,406.4,369.9,404.6z"/>
<polygon class="st0" points="355.3,364.3 365.1,376.7 355.4,364.3 373.5,360.2 258.2,346.2 373.5,360.2 "/>
<path class="st0" d="M349.6,561.9c7.5-11,40-14.4,64.5-15.4C389.6,547.5,357,551,349.6,561.9z"/>
<path class="st0" d="M297.7,569.3c0,0,10.7-25,28.1-38C308.4,544.3,297.7,569.3,297.7,569.3s14,12.3,18.9,15.7l23,4.1l0,0l-23-4.1
	C311.7,581.6,297.7,569.3,297.7,569.3z"/>
<path class="st0" d="M655,616.5l63.1,15.5l4.3,1.1l-4.3-1.1L655,616.5l0.2-0.1l-26-16.2c0,0.1,0,0.1,0,0.2L655,616.5z"/>
<path class="st0" d="M439.6,545.2c-13.5-4.6-68.9-22.7-94.1-21.6c-2.2,0.1-4.4,0.4-6.5,1c2.1-0.6,4.3-0.9,6.5-1
	C370.7,522.5,426,540.6,439.6,545.2z"/>
<path class="st0" d="M349.6,561.9c-2.8,4-5.2,8.3-7.1,12.8C344.4,570.2,346.8,565.9,349.6,561.9z"/>
<polygon class="st0" points="504.2,647.2 504.6,647.3 514.2,637.6 514,637.2 "/>
<path class="st0" d="M293.3,529.1L293.3,529.1c3.5-11.9,4.8-24.4,3.8-36.8H297c0.9,12.3-0.4,24.6-3.8,36.4
	c-5.7,19.1-17.7,38.5-39.5,56.7l0.6,0C275.8,567.3,287.7,548,293.3,529.1z"/>
<polygon class="st0" points="370.1,383.2 244.6,393.1 231,365.1 231,365.1 244.6,393.1 370.1,383.2 "/>
<path class="st0" d="M753.2,193.4c3.6-1.6,6.6-2,9-3.4C759.8,191.2,756.7,191.7,753.2,193.4z"/>
<path class="st0" d="M341.1,471.3l72.4-3.8l-1.7-0.3l-70.7,3.8l-0.8-74.1l-80.7,8.2l0.3,0.4l80.3-8.2L341.1,471.3z"/>
<polygon class="st0" points="153.6,477.9 156.5,475.4 153.6,477.9 139.6,463.1 139.6,463.1 "/>
<polygon class="st0" points="143.1,546.1 162.4,534.6 143.1,546.1 "/>
<path class="st0" d="M106.2,559.7c15.4,3.7,31.6,2.8,46.6-2.5C137.8,562.3,121.7,563.2,106.2,559.7z"/>
<path class="st0" d="M93.6,492.9c1.7,15.3,15.1,26.1,30.6,31.4c-15.1-5.3-28.2-16.1-29.9-31.4c-2.4-22.4,18.2-31.7,29.4-35
	C112.4,461.2,91.2,470.4,93.6,492.9z"/>
<rect x="87.4" y="459" class="st0" width="0" height="12"/>
<polygon class="st0" points="112.9,447.1 107.9,437.7 107.9,437.7 112.9,447.1 "/>
<path class="st0" d="M128.7,446.7l2,9.5h0.1l-1.9-9.6l1.1-2.1L128.7,446.7L128.7,446.7z"/>
<path class="st0" d="M695.6,304.9c0.5-5.7,1.9-19.1,5.5-27c-0.1,0-1-2.5-1.7-4.4c-0.3-0.7-0.5-1.4-0.7-2.1v-0.1l0-0.1l-0.1-0.5
	c-0.8-5.8,0.4-4.2,1.6-11.9c0-0.3,0.1-0.5,0.1-0.8c-0.4-2.3-1.1-4.6-2.1-6.8c-1,0.4-1.9,0.9-3,1.3c-6,2.6-12.2,4.7-18.5,6.5
	c7.7,14.6,13.2,28,14.7,38.4c0.5,3.3,1,6.4,1.7,9.2c0.8,0,1.6,0.3,2.3,0.8C695.4,307.5,695.4,306.5,695.6,304.9z"/>
<polygon class="st0" points="341.3,260.9 341.3,260.8 323.5,271.7 323.5,271.7 "/>
<path class="st0" d="M152,576.7c-79,14.8-98.8-46.1-98.8-46.1c-6.2-18.8-8.9-34.5-8.8-47.8c-0.1,13.3,2.6,29.2,8.8,48.1
	c0,0,19.8,60.9,98.8,46.1s70.2-101.8,73.7-107.5l19.3-22.6l-14-14.8l0,0l14,14.8l-19.4,22.6l0,0l-0.1,0.2
	C222.6,478.7,229.2,562.2,152,576.7z"/>
<polygon class="st0" points="217,501 204.3,494.3 204.3,494.3 217,501 179.6,537.6 179.6,537.6 "/>
<rect x="87.4" y="525.4" transform="matrix(0.928 -0.3727 0.3727 0.928 -189.1352 72.2763)" class="st0" width="9.9" height="0"/>
<path class="st0" d="M199.9,433.1c-5.2-10.3-18.4-17-20.6-18l-0.1,0.2C179.3,415.4,194,422.1,199.9,433.1z"/>
<polygon class="st0" points="133.8,501 133.9,501 130.6,498.3 "/>
<polygon class="st0" points="142.5,492.9 145.8,501 142.6,492.9 136.8,478.5 142.5,492.9 "/>
<path class="st0" d="M166.1,523.6l-0.2-0.2c-3.2,2-6.8,3.4-10.6,4C159.2,526.8,162.8,525.5,166.1,523.6z"/>
<polygon class="st0" points="744.8,672.2 757.6,692.3 757.6,692.3 "/>
<path class="st0" d="M754,705.6c0,1.4,0.3,2.8,0.8,4.1l0,0C754.3,708.4,754,707,754,705.6z"/>
<polygon class="st0" points="101.2,534.6 122.1,546.1 124.6,534.6 122.1,546.1 "/>
<path class="st1" d="M736.2,448.6c0,0,0.5-2.5,1.1-6.8C683.6,455.1,615.7,454,612.7,454h-0.1c0.8,0.4,18.4,8.6,17.6,56.4
	c0,0.8,0,1.5,0,2.3l78.4-45.2c6,2.9,8.2,7.9,8.1,13.5c0,13.4-12,30.6-14,33.4l0.3-0.1l30.2-6.2l19-40.6c0,0,118.6-10.4,155.6,0
	c0,0,9.9-9.4-34.6-30.8l22.2-11.5l-1.6-14l-21.4-5.8l-6.6,11.5l8.2,5.8l-22.2,3.2L812,407.9c-3.3,2.6-6.5,5.4-9.6,8.4
	C778.4,439.3,748.1,448,736.2,448.6z"/>
<path class="st1" d="M550.5,463.1c-0.5,0-3.8-1.8-9.1-4.8c6.5,16.9,12,34.1,16.5,51.6l24,24.3c-2.5-22.3-6.1-51.5-10-74
	C559.3,461.9,551.2,463.1,550.5,463.1z"/>
<path d="M843,625.3c17.4,12.1,30.5,44.5,30.5,44.5c4.2-27.7-47.9-79.9-48.7-80.7C832.7,600.1,838.8,612.3,843,625.3z"/>
<path class="st2" d="M699,594L699,594h0.3c0.7,0,1.9,0.2,3.5,0.3l0.7,0.1l1.5,0.2h0.4c27,3.4,123.5,23.1,65.8,128.6
	c0,0-28.2,43.6-68.1,37.3c-21.7-3.4-46.8-21.6-72.8-69.3l0,0l-48.4,1.6c-1.4,7.7-4.3,13.2-7.8,17.1c-0.1,0.1-0.2,0.2-0.3,0.4
	c-0.2,3.8,11.7,33.5,38.1,60.8c1.2,1.2,2.3,2.4,3.5,3.6c2.4,2.3,4.8,4.6,7.4,6.8c6.3,5.5,13,10.4,20.1,14.8
	c9.5,5.9,19.7,10.7,30.3,14.3C746.7,835,851.1,788.2,851,679.6c0-20.8-3-38.8-8-54.3c-4.2-13-10.3-25.2-18.2-36.2
	c-13.7-18.7-32.4-33.3-53.9-42c-15.5-6.4-30.3-9-41.3-9l-14.8,9.1L699,594z"/>
<path class="st3" d="M702.7,514.4L702.7,514.4l-0.2,0.3l-43.2,8.7l-8.4,11.8l78.6-15.8v18.2c11.1,0,26.1,2.6,41.8,9l0.3-0.8l8.3-5.8
	v-9.9h16.5V512h-19.6l-5.7-11.6l-37.8,7.7h-0.1l-30.2,6.2L702.7,514.4z"/>
<path class="st3" d="M718.1,632l4.3,1.1l17.4,4.3l24.7,30.8l-6.9,24.2l0.3,0.5l13.2,30.5l0,0l0,0c57.7-105.5-38.8-125.2-65.8-128.6
	H705l-1.5-0.2l-0.7-0.1c-1.7-0.2-2.9-0.3-3.5-0.3H699l-43.7,22.5l-0.2-0.1l-0.2,0.1L718.1,632z"/>
<polygon class="st3" points="757.6,692.3 757.6,692.3 757.6,692.3 "/>
<path d="M771.1,723.2L771.1,723.2L758,692.8l-0.3-0.5l0,0l-3.4,11.9c-0.1,0.4-0.2,0.9-0.2,1.4c0,1.4,0.3,2.7,0.8,4l0,0
	c0,0.1,0,0.2,0,0.2l0,0L771.1,723.2z"/>
<path class="st3" d="M771.1,723.3l-16.3-13.4l0,0l0,0c-1,3.5-44.6,3.5-44.6,3.5L660,690.2l0,0l-29.8,1c26,47.8,51.2,65.9,72.8,69.3
	C743,766.9,771.1,723.3,771.1,723.3z"/>
<polygon points="757.6,692.3 764.5,668.1 739.8,637.3 722.4,633.1 718.1,632 697.3,642.8 744.8,672.2 757.6,692.3 "/>
<path class="st4" d="M754.8,709.9L754.8,709.9L754.8,709.9L754.8,709.9L754.8,709.9z"/>
<path class="st4" d="M569.1,577.9l-2,1.3l1.4-0.1C568.7,578.7,568.9,578.3,569.1,577.9z"/>
<path class="st4" d="M588.2,617l9.2,5.9v-16.6C594.9,610.3,591.8,614,588.2,617z"/>
<path class="st4" d="M481.8,583.6l14.7-0.8l23.2-13.2c0,0,9.7-3.4,3.4-29.2c-2.2-9.1-14.2-27.9-28.8-48.6l-64,19.8L481.8,583.6z"/>
<path class="st4" d="M630.2,691.2l29.8-1h0.1H660l44.4-1.5l36.2,14.8l12.3,4.9l1.8,1.5c0-0.1,0-0.2,0-0.2c-0.5-1.3-0.8-2.7-0.8-4.1
	c0-0.5,0.1-0.9,0.2-1.4l3.4-11.9l0,0l-12.8-20.1l-47.5-29.4l-42.2-26.2l-0.1-0.1l-25.9-16c-0.1,5.8-0.5,13.5-1.5,23.7
	c-0.1,3.1-0.2,5.1-0.2,5.1l-21.1-0.7l48.7,31.2l0,0l0,0l-53.8-6.1l-63.1-7.1l0,0l0,0l12.1-17.3c-6.5-0.5-12.9-1.2-14.8-1.8
	c-6.8-2.2-9.8-3.6-10.8-9c-0.4-1.4-0.5-2.9-0.4-4.4c0-0.2,0-0.5,0-0.7c0-0.3,0-0.6,0.1-0.9c0-0.7-0.1-1.3-0.1-2.1c0-0.1,0-0.2,0-0.3
	l-14.8-1.7l-25.8,4.5l-3-7.4l-226.8-19.8l0.4-0.3l-0.6,0c21.8-18.2,33.8-37.6,39.5-56.7c3.5-11.8,4.8-24.2,3.9-36.4h-0.1
	c-0.5-6-1.3-12-2.7-17.9c-8.9-39.5-34.6-69-34.6-69h0.4l-0.3-0.4l80.7-8.2l0.8,74.1l70.7-3.7l-62.5-11.1c-0.1-7.1,0.3-14.1,1.3-21.1
	c2-13.5,7-28.9,19.2-30.7c12.7-1.9,39-1.1,59.3,0c-2-5.7-3.2-11.6-3.6-17.6c-29.6-18.6-53.3-33.8-55.5-35.7c-0.1,0-0.1-0.1-0.2-0.2
	c-1.1-1.7,19.9-19.4,33.4-30.5c-14.6-2.6-28.4-5.3-37.8-7.2c-10.5-1.2-19.6-2-22.6-1.4c-8.2,1.6-18.9,8.2-21.4,9.1
	S264,296.8,264,296.8c-3.5-2.1-6.3-5-8.4-8.5c-2.4-4.2-3.2-9.9,1.6-16.5c10.7-14.8,27.2-10.7,27.2-10.7l18.6-3.1l91.8-30.7
	c0,0-19-28-17.3-28S356,163.9,356,163.9s-66.7,26.4-88.9,42.8c0,0-65.1,32.9-107.9,70.8h12.3c0,0-4.9,22.2-16.5,25.5
	c0,0,61.7,66.7,54.3,77.4c0,0-46.1-33.8-112-18.9c0,0,3.9,0.8,10.2,2.2c4.4,1,10.1,2.3,16.4,3.7c29.9,6.9,74.5,18,76,22.8
	c0.6,0.9-0.1,1.6-2.7,2.1l-18,22.9c2.2,1.1,15.3,7.7,20.6,18c0.5,1,1,2.1,1.4,3.2l5.6-4.9l29-25.5l0,0c1.5,2.7,70.9,131.5,4.1,188.5
	l317.8,124.4c6.1-1.1,11.6-4.3,15.8-8.9c0-0.3,0.1-0.5,0.3-0.4c3.4-3.8,6.3-9.2,7.7-16.9l0.2,0.2l0,0L630.2,691.2L630.2,691.2z
	 M724.1,674.1c0.1-2.2,2-4,4.2-4h6.3v9.6h-11.3C723.7,677.9,723.9,676,724.1,674.1L724.1,674.1z M209.6,311.6L209.6,311.6
	c0,0,34.6-14,50.2-6.6c4.4,2.1,5.9,4.2,5.7,6.3c-0.5,5.2-11.6,9.4-11.6,9.4L209.6,311.6z M231,365.1L231,365.1l27.2-18.9l115.3,14
	l-18.1,4.1l9.7,12.5l5.1,6.5l0,0l-125.5,9.9L231,365.1z M504.6,647.3l-0.4-0.2l9.8-9.9l0.2,0.4L504.6,647.3z"/>
<path d="M754.8,709.9L754.8,709.9l-1.8-1.5l-12.3-4.9l-36.2-14.8l-44.4,1.5h0.1l50.2,23.2C710.2,713.3,753.7,713.4,754.8,709.9z"/>
<path d="M469.9,327.7l19.6-1.4l-14.1-2.8C473.1,325.7,471.3,327.2,469.9,327.7z"/>
<path d="M612.7,454L612.7,454z"/>
<path d="M428.5,370.4c7.9-16.9,41.4-42.8,41.4-42.8c-6.9,2.4-37.7-2.3-65.9-7.4c-13.1,10.8-33.5,28-33.8,30.6
	c2.2,1.9,26,17.1,55.5,35.7C425.3,381.1,426.3,375.5,428.5,370.4z"/>
<path d="M571.9,460.1c-2.8-16-5.7-28.6-8.5-32.8c-1-1.5-0.2-3.9,2.2-6.8c-16.9-3.4-33.6-7.8-50.1-13.1c8.1,11.9,17,28.3,25.8,50.9
	c5.3,3.1,8.5,4.8,9.1,4.8C551.2,463.1,559.3,461.9,571.9,460.1z"/>
<path d="M724.1,674.1c-0.1,1.9-0.4,3.7-0.7,5.6h11.3v-9.6h-6.3C726.1,670.2,724.2,671.9,724.1,674.1z"/>
<path class="st1" d="M650.1,535.5l-21.8,4.3c-1.9,15.1-4.8,23.8-6.7,28.3c-0.3,0.6-0.5,1.3-0.6,1.9c0.2,1.1,0.6,2.2,1.2,3.2
	c2.1,3.2,3.8,6.7,5,10.4l0,0c0,0,2,2.3,1.9,16.7l26,16.2l0.2,0.1L699,594l0,0l15.6-46.9l14.8-9.1l0,0v-18.1L650.1,535.5z"/>
<polygon class="st3" points="718.1,632 655,616.5 655.1,616.6 697.3,642.8 "/>
<path class="st4" d="M649.8,535.5l8.6-12l0.9-0.2l43.2-8.7l0.2-0.3c1.9-2.6,14-20,14-33.4c0-5.7-2.1-10.7-8.1-13.5l-78.4,45.2
	c-0.2,9.1-0.8,18.1-1.9,27.1L649.8,535.5z"/>
<path d="M615.3,774.7c-1.2-1.2-2.4-2.4-3.5-3.6c-4.9,3.7,32.4,68.5,74,55.3c-44.4-17.2-43.5-28.3-43-30.1
	c-7.1-4.4-13.8-9.4-20.1-14.8C620.2,779.2,617.7,777,615.3,774.7z"/>
<path class="st3" d="M597.4,625.3L597.4,625.3v-2.4l-9.2-5.9c-2.1,1.8-4.3,3.4-6.7,4.8c-1.7,1.3-3.6,2.3-5.5,3.1
	c-1.6,0.8-3.2,1.6-5,2.4l30.2,26.4l53.8,6l0,0l-48.7-31.3l-8.9-0.3C597.3,628.3,597.4,627.1,597.4,625.3z"/>
<polygon class="st2" points="485.6,589 496.4,582.9 481.8,583.7 "/>
<path class="st2" d="M527,605.4l-17.4,3l14.7,1.7C524.4,608.5,525.3,607,527,605.4z"/>
<path class="st2" d="M568.5,579.1l-1.4,0.1l-29.6,19.5c8.6-4.4,19.8-9.2,28.2-15.5C566.8,582,567.7,580.6,568.5,579.1z"/>
<path class="st2" d="M571,627.3c-1.5,0.7-3,1.3-4.6,1.9c-1.9,0.8-9.1,0.6-16.1,0.1l-12.1,17.3l0,0l63,7.1L571,627.3z"/>
<path class="st2" d="M484.9,478.9c-25.3-34.6-53.7-69.7-53.7-69.7c-0.7-1.5-1.3-3-1.9-4.6c-20.3-1-46.8-1.9-59.5,0
	c-12.1,1.8-17.2,17-19.2,30.4c-1,7-1.5,14-1.3,21.1l62.5,11.1l1.7,0.3l-72.5,3.8l-0.8-74.1l-80.3,8.2h-0.4c0,0,25.7,29.5,34.6,69
	c1.3,5.9,2.2,11.8,2.7,17.9h0.3L484.9,478.9z"/>
<path class="st1" d="M485.6,589l-3.8-5.4l0,0l-51.5-72h-1.9h1.9l64-19.8c-3-4.3-6.1-8.6-9.3-12.9l-187.8,13.4
	c1,12.4-0.3,24.9-3.8,36.8l0,0c-5.6,18.9-17.6,38.2-39.1,56.3l-0.4,0.3l226.8,19.8l-4.6-11.1L485.6,589z M442.6,546.2H442h-0.7h-1.5
	h-2h-7.9c-1.7,0-3.5,0-5.5,0.1h-2.1l-2.4,0.1l-3,0.1l-2.1,0.1h-0.7c-24.5,1-57,4.4-64.5,15.4c-2.8,4-5.2,8.3-7.1,12.8
	c-4,9.6-2.7,14.4-2.7,14.4l0,0l-23-4.1c-4.9-3.3-18.9-15.7-18.9-15.7s10.7-25,28.1-38c0.1-0.1,0.2-0.2,0.4-0.3l0.7-0.5l0.7-0.5
	l0.4-0.3l0.9-0.6l0.3-0.2c0.3-0.2,0.6-0.4,0.9-0.5l0.3-0.2l0.6-0.3l0.5-0.3l0.8-0.4l0.4-0.2c0.3-0.2,0.6-0.3,0.9-0.5l0.3-0.1
	l0.6-0.3l0.6-0.2l0.4-0.2l0.8-0.3l0.3-0.1c0.7-0.3,1.5-0.5,2.2-0.7h0.1c2.1-0.6,4.3-0.9,6.5-1c25.2-1.1,80.6,17,94.1,21.6l1,0.4
	l0.7,0.2l1.2,0.4L442.6,546.2z"/>
<path d="M441.4,545.8l-0.7-0.2l-1-0.4c-13.5-4.6-68.9-22.7-94.1-21.6c-2.2,0.1-4.4,0.4-6.5,1h-0.1c-0.8,0.2-1.5,0.5-2.2,0.7
	l-0.3,0.1l-0.8,0.3l-0.4,0.2l-0.6,0.2l-0.6,0.3l-0.3,0.1c-0.3,0.2-0.6,0.3-0.9,0.5l-0.4,0.2l-0.8,0.4l-0.5,0.3l-0.6,0.3l-0.3,0.2
	c-0.3,0.2-0.6,0.3-0.9,0.5l-0.3,0.2l-0.9,0.6l-0.4,0.3l-0.7,0.5l-0.7,0.5c-0.1,0.1-0.3,0.2-0.4,0.3c-17.5,13-28.1,38-28.1,38
	s14,12.3,19,15.7l23,4.1l0,0c0,0-1.3-4.8,2.7-14.4c1.9-4.5,4.3-8.8,7.1-12.8c7.5-11,40-14.4,64.5-15.4h0.7l2.1-0.1l3-0.1l2.4-0.1
	h2.1c1.9,0,3.8-0.1,5.5-0.1h7.9h2h1.5h0.7h0.6l0,0L441.4,545.8z"/>
<path d="M264,296.8c0,0,55.2,24.7,57.6,23.9s13.2-7.4,21.4-9.1c3-0.6,12.2,0.2,22.6,1.4c-7.4-1.5-12-2.5-12-2.5l0,0l-50-5.5l6.6-9.5
	l-32.5,2.3l-19.8-9.5L282,262l41.6,9.7l17.8-10.9l0,0l17.3,12l2.5,4.1c-1.8,0.9-3.3,1.5-4.3,2l22-1.6l-0.5,0.6h0.3
	c16.5-10.7,57.9-14.5,57.9-14.5c3.4-16.5,31.1-34.8,31.1-34.8l5.6-36.6l10.3-16.2l-0.8,0.3l-18.6,7.2l0.4,1.1L438.8,217
	c0,0-18.8,16-19.1,25c-0.2,6.3-30.8,21.8-49.8,30.9l-15.3-23.1l-51.4,8.5l-18.6,3.1c0,0-16.4-4.1-27.2,10.7c-4.7,6.5-4,12-1.8,16.1
	C257.6,291.7,260.5,294.6,264,296.8z"/>
<path class="st3" d="M355.4,279.1l1.5-0.1c1-0.5,2.5-1.1,4.3-2l-2.5-4.1l-17.3-12l0,0l-17.8,10.9L355.4,279.1z"/>
<polygon class="st2" points="370.1,383.2 370.1,383.2 365.1,376.7 355.3,364.3 373.5,360.2 258.2,346.2 231,365.1 231,365.1 
	244.6,393.1 "/>
<path class="st5" d="M265.5,311.3c0.2-2-1.2-4.2-5.7-6.3c-15.6-7.4-50.2,6.6-50.2,6.6l0,0l44.2,9.1
	C253.8,320.6,265,316.4,265.5,311.3z"/>
<path class="st2" d="M231,432.1l14,14.8l-19.4,22.6c-3.4,5.7,5.4,92.7-73.6,107.5s-98.8-46.1-98.8-46.1c-6.3-18.9-8.9-34.8-8.8-48.1
	c0.3-80.7,100.5-67.7,102.3-67.5l0,0l15.8-27.8c-2.8-1.4-39.1-19.5-38.3-19.5c-6.3-1.5-12-2.7-16.4-3.7c-14.6,4-28.7,9.8-41.8,17.4
	c-11.8,6.6-22.6,14.8-32.2,24.3c-26.7,26.8-45,68.9-21.6,133.2c12.5,34.4,38.8,62.2,73,75.1c19.7,7.6,41.2,9.6,62,6l1.1-0.2
	l-1.1-0.1c10.8-1.9,21.4-5.1,31.5-9.4l0.1,0.3c16.4-7,33.8-17.7,52.2-33.1c0,0,53.5-70.8,5-171.2l0,0l-29,25.5L231,432.1L231,432.1z
	"/>
<path d="M44.3,482.8c0,13.2,2.6,29,8.8,47.8c0,0,19.8,60.9,98.8,46.1c77.3-14.5,70.6-98,73.5-107c0-0.2,0.1-0.3,0.2-0.5l-21.5,25.1
	l0.1,0.1L217,501l-37.4,36.6l0.3,0.3c-5.5,8.5-15.3,15.2-27.1,19.3c-15,5.3-31.2,6.1-46.6,2.5c-25.5-6-47.4-24.9-47.8-62
	c-0.5-46.1,27.8-63,51.4-69.1c10.2-2.7,20.7-3.8,31.2-3.4l0,0l5.6-9.9C144.8,415.1,44.6,402.1,44.3,482.8z"/>
<path class="st1" d="M156.5,475.4l-2.9,2.5l-14-14.8l0,0l39.5-47.8l0,0l0.1-0.2l18-22.9c2.5-0.5,3.3-1.2,2.7-2.1
	c-3.4-4.9-46.6-15.6-75.8-22.4c-0.8,0,38.5,19.6,38.5,19.6l-0.1,0.2l-15.8,27.8l0,0l-5.7,9.9l0,0l-0.1,0.1h0.2L130,444.5l-1.2,2.1
	l1.9,9.6l0,0l3.1,15.1l0,0l2.9,7.2l5.8,14.4l3.2,8l20.3,22.5l0,0l0.2,0.2l0.4-0.2l0,0l13.1,14.2L217,501l-12.7-6.6l0,0l-0.1-0.1
	l21.5-25.1c-0.1,0.2-0.2,0.3-0.2,0.5l0.1-0.2l0,0l19.4-22.7l-14-14.8h-24l-5.6,4.9L161,471.8l-0.2-0.1l0,0L156.5,475.4z"/>
<path d="M147.2,620.1l1.1,0.1c6.1,0.6,36.4,3.2,68.8-11l-37.9,2.5l-0.3-0.8l-0.1-0.3C168.6,615,158,618.2,147.2,620.1z"/>
<path d="M179.1,415.3L179.1,415.3l-39.5,47.8l0,0l14,14.8l2.9-2.5l4.3-3.7l0,0l40.5-34.9c0-0.1-0.1-0.3-0.1-0.4
	c-0.4-1.1-0.8-2.2-1.4-3.2C194,422.1,179.3,415.4,179.1,415.3z"/>
<path class="st3" d="M109.8,428.6c-23.6,6.1-51.9,23-51.4,69.1c0.4,37.1,22.3,56,47.8,62c15.5,3.5,31.6,2.6,46.6-2.5
	c11.8-4.1,21.7-10.7,27.1-19.3l-0.3-0.3l0,0l-13.1-14.2v8.8l0,0l-4.2,2.5l-19.3,11.5l0,0v-11.5h-18.4l-2.5,11.5l-20.9-11.5
	l-13.4-7.4l0,0l9.2-3.7l-7.4-18.9l-0.2-0.5H77.7l-3.3-32.9l11.7,6.5l6.7-10.4l-10.9-5.1l0,0l26-24.7l0,0l0,0l5,9.5l15.8-0.4l0,0
	l1.3-2.2l11.1-19.1H141C130.5,424.9,120,426,109.8,428.6z"/>
<path d="M124.2,524.3c-15.4-5.3-28.9-16.1-30.6-31.4c-2.5-22.5,18.8-31.7,30.2-35c2.3-0.7,4.6-1.2,6.9-1.7l-2-9.5l0,0l-15.8,0.4l0,0
	l-5-9.4l0,0l-26,24.7l0,0l10.9,5.1l0,0l-6.6,10.4l-11.7-6.5l3.3,32.9h11.7l0.2,0.5l7.4,18.9l0,0l-9.2,3.7l0,0l13.4,7.4l20.9,11.5
	l2.5-11.5h18.4v11.5l19.3-11.5l4.2-2.5l0,0v-8.8l0,0l-0.4,0.2c-3.3,1.9-6.9,3.3-10.7,3.8C146.2,529.2,134.7,528.1,124.2,524.3z"/>
<path class="st3" d="M123.8,457.9c-11.2,3.4-31.9,12.6-29.5,35c1.7,15.3,14.8,26,29.8,31.4c10.5,3.8,22,4.9,31.2,3.1
	c3.8-0.6,7.3-2,10.6-4l0,0L145.8,501l-3.2-8l-8.7,8l0,0l-3.3-2.7l-6.6-5.4l-3.3-15l13.2-6.6l0,0l-3.1-15.1h-0.1
	C128.4,456.7,126.1,457.2,123.8,457.9z"/>
<polygon points="120.7,477.9 124,492.9 130.6,498.3 133.9,501 133.9,501 142.5,492.9 142.5,492.9 136.8,478.5 133.9,471.3 
	133.9,471.3 "/>
<path d="M87.6,357.2c-22.3,6.1-53.9,48.6-53.9,48.6c9.6-9.5,20.4-17.7,32.2-24.3L87.6,357.2z"/>
<path class="st6" d="M776,104.3c-0.1-0.6-0.1-1.1,0-1.7c0.1-0.7,0.5-1.2,1-1.6c-0.4-0.2-0.7-0.4-0.5-0.4l0,0c0,0,0-0.1,0-0.1
	c1-0.1,1.5-0.3,1.8-0.6l0.1-0.3c0.1-0.7-0.7-1.5-0.7-1.5c-1.1-0.2-3.4-3.3-3.1-3.7c0-0.2,0.2-0.2,0.6,0.1c0.5,0.3,1,0.3,1.5,0.2
	c0.2,0,0.4-0.1,0.5-0.2l0,0l0,0c0.5-0.4,0.6-1.1,0.5-1.8c-0.1-0.4-0.3-0.7-0.6-0.9c-3.2-2.8-3-11.1-2-11.3c0.2-0.1,0.4,0,0.6,0.5
	c0.7,1.5,2.3,1.9,3.9,1.9h0.3c0.3,0,0.7,0,1-0.1c-0.1-1-0.2-1.9-0.5-2.8c-2.4-10,3-36.1,16.6-43.6v0.1l0.3-0.2v-0.1l-0.6-3.3
	l-1.1-5.4c-0.4-3.9-0.1-7.9,0.8-11.7l-11.4-1c0,0-13.4-3.8-20.9,20.4s-0.5,53.1-0.5,53.1s-11-1.7-11.5,14.1
	c-0.2,10.7,0.6,21.3,2.3,31.8l2.2,12.6c0,0-4.6,3.6-5,0.7s-6.3,7.6,1.5,8.1s19.8-6.8,19.8-6.8l0.4-0.5c-2.4-5.6-3.8-11.6-4.1-17.7
	C768.9,121.2,771.2,112.1,776,104.3z"/>
<path class="st7" d="M802.5,165.4c0.1-0.7,0.2-1.3,0.4-2c-2.6,0-4.9-0.2-7.2-0.4c-2,3.9-4.2,7.7-6.7,11.3c-2.7,4.1-5.2,5-6.8,4.9
	c-0.9-0.1-4-1.1-0.8,1.6c1.7,1.4,4,3.5,8,3.7l10-11.3C801.1,170.9,802.1,168.2,802.5,165.4z"/>
<path class="st8" d="M695.2,252.6c1-0.4,2-0.9,3-1.3l-0.1-0.2c-0.1-0.2-0.2-0.5-0.3-0.7c-0.5-1.1-1.1-2.2-1.7-3.5s-0.9-2.4-1.3-3.6
	c-1-3.2-1.7-6.6-1.9-9.9c-0.2-1.6-0.2-3.3-0.2-5.2c0-2.8,3.3-15.1,13.3-20.7c1.4-0.8,2.9-1.4,4.4-1.9l0.5-0.1l0,0l-0.2,0.1
	c1.8-1.3,3.8-2.7,5.8-4c-6.8,2-17.4,7.4-34.7,14.9l25.8-64.2c5.6-14,9.4-14.5-15-35.6l-29.2-12.4c0,0-5,3.8,8.2,14.6l-22.1-6.6
	c-1.7-0.3-33.7-3.5-35.3-1c-1,1.6,1.7,3.3-1.4,6.7c-1.5,1.6,12.3,22.4,62.2,38.6c0,0-17.8,22.3-33.6,46c13,18.6,25.9,38.5,35.4,56.5
	C683.1,257.3,689.2,255.2,695.2,252.6z"/>
<path class="st9" d="M859,197.7c0-0.1,0.1-0.2,0.1-0.4l-10.3-4.1c-0.3,0-0.6,0.1-0.9,0.1c-5.7,1.2-21.8,11.9-43.3,26.5
	c-3.7,2.4-6.4,6.1-7.6,10.4c-0.2,0.7-0.4,1.4-0.6,2.1c-2.1,7.2,1.7,13.9,5.8,18.6c1.7-7.5,4.6-14.7,8.5-21.3
	c1.2-1.9,2.4-3.8,3.8-5.5l-0.2,0.4l0.2-0.2c0,0-7.2,12.5-10.7,23c-0.5,1.5-0.9,2.9-1.2,4.2c0,0.1,0,0.2-0.1,0.3
	c-0.1,0.3-0.1,0.7-0.2,1c-0.1,0.5-0.2,1-0.3,1.5c0.1-0.3,0.2-0.6,0.3-1.2c-1.9,8-3.9,17.8-4.4,24.7c0,0.9-0.1,1.8-0.1,2.6l-5.1,29.7
	c-0.9,2.2-3.3,7.7-6.2,14.7l1,4c0.1,0.4,0.1,0.8,0.1,1.3c0,0.3,0,0.7-0.1,1c4.7,3.7,8.8,8.2,12.1,13.2c5.3,7.5,10.2,17.5,9.1,28.4
	c0,0,2.9,11.1,7.2,19.3l11.5-80.3c3.2-8,45.4-79.9,42.9-105.7C863.8,205.6,857.6,203.5,859,197.7z"/>
<path class="st9" d="M710.9,205.5c8.5-2.8,17.1-1.6,21.5-2.5c3-0.5,5.8-1.3,8.6-2.5l0,0l0.3-0.1c3-1.4,4.9-3.2,9.8-6
	c0.7-0.4,1.4-0.7,2.1-1c3.5-1.6,6.6-2.1,9-3.4c0.9-0.5,1.7-1.2,2.4-2c0.5-0.6,1.1-1.2,1.5-1.7l0.1-0.1c-14.1-1-30.4-1.5-32.2,3.9
	c-0.4,1.5-9,6.1-17.2,11.3l-0.2,0.2c-2,1.3-4,2.6-5.8,4L710.9,205.5z"/>
<path class="st9" d="M784.2,69.8h-0.3H784.2l0.2,0.1L784.2,69.8z"/>
<path class="st9" d="M779.3,187.7c-3.5,0.7-16.9,6.8-26.8,13.4s-11.6,5.1-13,7.6c-1.7,3,0.5,5.9,1.9,7.2c1.8-1.9,5-3.2,7.1-3.9
	c1.3-0.4,2.2-0.7,2.2-0.7c-3,0.9-6.2,3.4-8.2,5l-0.1-0.1l-0.3,0.2h0.1h0.1c7.7,2,8.5-0.8,16-3.1c5.3-1.6,13.8-3,30.3-2.3
	c1.8,0.1,3.6,0.2,5.6,0.3c6.1,0.4,19.8-14.5,37.2-22.1c0-0.3,0.1-0.5,0.2-0.7l15.2-27c0.8-1.5,2-3.4,3.3-5.5
	c1.5-7.5,1.7-16-2.5-22.9c-0.2,3.8-1.5,24.7-7.5,28.8c-0.5,0.4-1,0.7-1.6,0.8c-7.9,2-49.3-70.5-36.7-101.8l-4.5-24.5v-0.1
	c-13.6,7.5-18.9,33.6-16.6,43.6c0.2,0.9,0.4,1.9,0.5,2.8l0,0h0.2h0.1c0.4,0,0.7-0.1,1.1-0.2s0.6-0.2,1-0.2h0.1l0.4-0.1
	c0-0.2,0.2-0.2,0.4-0.2h5.5c0.5,0,1,0.2,1.3,0.6l2.7,3.4c0.1,0.1,0.2,0.2,0.2,0.3c0.1,0.1,0.1,0.2,0.2,0.2l1,1.2
	c-0.3-2.4-0.5-4.3-0.5-4.3s0.2,0.8,0.5,2.1c0.9,3.7,2.5,12.2,0.1,16.1c-0.8,1.4-2.7,1.7-5,1.8c-3.1,1-6.4,0.9-9.4-0.3
	c-1.3,0.1-2.4,0.5-2.7,1.3c-0.2,0.7-0.2,1.5,0,2.2c1.2,4,6.3,9.4,6.3,9.4h-0.2l0.3,0.3c-3.6-0.5-5.6-4.3-5.6-4.3
	c-1.2-1.9-2-4-2.7-6.2c-0.1-0.4-0.2-0.8-0.2-1.2c-4.7,7.7-7,16.6-6.6,25.7c0.3,6.1,1.7,12.1,4.1,17.7l0,0c3.3,7.1,7.3,11.8,8.8,12.3
	c4.3,1.4,8.7,2.3,13.1,2.7h0.3c2.2,0.2,4.6,0.4,7.2,0.4c-0.2,0.7-0.3,1.3-0.4,2c-0.4,2.8-1.4,5.5-3,7.9l-10,11.3l-0.1,0.2l-1.9,2.1
	c-0.3,0.7-3.3,0.7-7.7,0.4C780,187.4,779.9,187.6,779.3,187.7z M784.1,69.9c-0.8,0-1.6,0-2.4,0.1l0.2-0.1h-0.2
	C782.5,69.5,783.4,69.5,784.1,69.9c4-0.1,12,0.6,13.8,6.5c0,0,0.6,1.3,0.2,2.1c-0.2,0.3-0.5,0.6-1.2,0.5
	C795.1,78.7,788.5,71.1,784.1,69.9z M792.6,144c-2.8,1.2-6,1.3-8.9,0.4c-0.5-0.2-0.9-0.4-1.3-0.6c-3.4-2-5.8-5.4-3.8-8.4
	c0.6-0.9,1.6-1.3,2.6-1.2l-0.5-0.2c-3.9-1.6-3.5-5.7-3.1-7.6c0.1-0.6,0.4-1.2,0.8-1.6c1-1,3.1-2.8,5.5-2.6c0.4,0,0.8,0.1,1.2,0.2
	c5.5,0.9,8.5,6.3,9.5,8.4c0.6,0.8,1.3,1.5,2,2.1c0,0.1,0.1,0.1,0.1,0.1l0.7,0.5c1.3,0.7,4.5,2.7,4.6,3.2
	C802.2,138.4,796.8,142.1,792.6,144z"/>
<path class="st9" d="M794.3,86.9L794.3,86.9c-0.1-0.1-0.2-0.3-0.3-0.5l-0.1-0.1C794.1,86.5,794.2,86.7,794.3,86.9z"/>
<path class="st9" d="M697.8,250.5c0.1,0.2,0.2,0.5,0.3,0.7l0.1,0.2c0.9,2.2,1.6,4.5,2.1,6.8C700.5,255.5,699.3,253.3,697.8,250.5z"
	/>
<path class="st10" d="M924.2,56.3c-2.6-8.8-16-14.1-25.4-16.8c3.8,4.2,6.1,8.4,6.2,12.4c0.1,4.6,0.6,10.6,1,17.1
	c1.5,20.7,3.6,47.1-2.1,54.4c-7.5,9.7-8.7,14.7-12.7,19.8c-1,1.3-1.8,1.3-2.4,0.6c-1.8-1.9-2.2-9.4-2.3-10.6
	c-0.8,1.5-9.3,16.8-14.7,16.1c-0.4,2.8-1.2,5.5-2.4,8l0.6,4.9c0,0.1,0,0.3,0.1,0.4c0.7,1.4,5,12.6-8,29.5c-1.3,1.5-2.3,3.3-2.9,5.2
	c0,0.1-0.1,0.2-0.1,0.4c-1.4,5.8,4.8,7.9,11.2,8.4h0.1c2.8,0.2,5.6,0.1,8.4-0.2c0.8-0.1-3-2.3-3.2-3c-0.9-2.2,2.3-7,3.1-8.2
	c0.1-0.2,0.2-0.3,0.4-0.4c1.4-0.7,8.2-4.8,27.4-27.2c21.7-25.4,10.1-37.9,10.1-37.9s10.5-20.3,15.7-33.3S928.2,70.2,924.2,56.3z"/>
<path class="st11" d="M797.5,36.2l4.5,24.5c-12.6,31.3,28.8,103.8,36.7,101.8c0.5-0.1,0.9-0.3,1.3-0.6c6.1-4.2,7.4-25.1,7.5-28.8
	c0-0.4,0-0.6,0-0.6c4.5,6.9,4.3,15.7,2.7,23.3c-1.4,6.4-3.6,12.5-6.7,18.3c0,0-3.3,9.4,11.7-0.4c6.1-3.9,11-9.6,14-16.2
	c1.2-2.5,2-5.2,2.4-8c5.7,0.6,14.8-16.3,14.8-16.3v0.2c0.1,1.2,0.5,8.7,2.3,10.6c0.6,0.6,1.4,0.6,2.4-0.6c4-5.1,5.2-10.1,12.7-19.8
	c5.7-7.3,3.6-33.7,2.1-54.4c-0.5-6.5-0.9-12.5-1-17.1c-0.1-4-2.4-8.2-6.3-12.4C883.8,23.3,845.8,7.5,822,2.7
	c-17.2-3.5-23.2,5.1-25.3,13c-0.9,3.8-1.2,7.8-0.8,11.7l1,5.3l0.6,3.3L797.5,36.2z M814.3,74.8c0.6-1.4,1.3-2.7,2.2-3.8
	c14-10.8,35.2,3.6,35.2,3.5l-0.6-0.2l0.5,0.3c-22.6-8-37.1,4.9-37.7,2.7C813.8,76.5,813.9,75.6,814.3,74.8z M826.4,79.9l-11.5,3.3
	C816.1,79.9,826.4,79.9,826.4,79.9z M807.3,93.8l6.6,1.7c0-0.9,0.1-1.7,0.3-2.6c0.2-1.9,0.6-3.7,1.3-5.4c0.9-2.5,1.8-2.1,1.8-2.1
	c0,0,0,0,0,0.1l0,0c-0.1,0.2-0.2,0.3-0.3,0.5c-1.8,3.7-1.1,10.1-1.1,10.1c28.1-7.7,28.2,3.1,28.2,3.1h-0.1c0,0.1,0,0.2,0,0.2
	c-5.7-3.3-31,1.8-31,1.8c-4.9-1.3-5.7-7.2-5.7-7.2h0C807.3,93.9,807.3,93.9,807.3,93.8z"/>
<path d="M779.7,82.8c-1.7,0-3.3-0.3-4-1.8c-0.2-0.4-0.4-0.5-0.5-0.5c-1,0.2-1.3,8.5,2,11.3c0.3,0.2,0.5,0.5,0.6,0.9
	c0.2,0.6,0,1.3-0.5,1.8l0,0l0,0c-0.2,0.1-0.3,0.3-0.5,0.3c-0.5,0.2-1.1,0.1-1.5-0.2c-0.3-0.2-0.5-0.2-0.6-0.2
	c-0.3,0.4,2,3.5,3.1,3.7c0,0,0.8,0.8,0.7,1.5l-0.1,0.3v0.1c-0.2,0.4-0.8,0.6-1.8,0.6l0,0c-0.2,0,0.1,0.1,0.5,0.4l0,0
	c-0.5,0.4-0.9,1-1,1.7c-0.1,0.6-0.1,1.1,0,1.7l0,0c0,0.1,0,0.2,0,0.3c0.1,0.4,0.1,0.8,0.2,1.2c0.6,2.1,1.5,4.1,2.6,5.9
	c0,0,1.9,3.6,5.3,4.2h0.2c0,0-5.1-5.4-6.3-9.4c-0.3-0.8-0.3-1.7-0.1-2.5c0.3-0.8,1.3-1.2,2.7-1.3c1.5,0.5,5.5,1.7,9.4,0.3
	c2.3-0.1,4.1-0.4,4.9-1.8c2.3-3.8,0.8-12-0.1-15.8c-0.3-1.3-0.5-2.1-0.5-2.1s0.3,1.8,0.5,4.3l-1-1.2c0.1,0.2,0.2,0.4,0.3,0.6
	c0,0.1,0.1,0.1,0.1,0.2l0.1,0.1c0.4,0.2,0.8,0.6,1,1c0,0.5,0.1,1,0.1,1.6c0.2,2,0.3,4,0.2,6c0,0.8-0.1,1.5-0.2,2.2c0,0,0,0,0,0.1
	l0,0c-0.3,1-1.1,1.8-2.1,2l-4.1,1.1c-0.9,0-1.8-0.1-2.7-0.1c-2.2-0.1-4.4-0.3-5.7-0.5l0,0h-0.1l-0.1-0.3c-0.8-1-0.3-8.7-0.1-11.6
	c0-0.7,0.4-1.4,0.9-1.8l2.7-2.3c0.6-0.5,1.3-0.7,2-0.7c2.3,0.1,4.5,0.5,6.7,1.2c0.3,0.2,0.6,0.4,0.8,0.6l-2.8-3.2
	c-0.3-0.4-0.8-0.6-1.3-0.6h-5.5c-0.2,0-0.4,0-0.4,0.2l-0.4,0.1c-0.3,0.1-0.7,0.2-1,0.3s-0.7,0.2-1.1,0.2h-0.1h-0.2
	c-0.3,0-0.7,0.1-1,0.1L779.7,82.8z"/>
<path d="M794.1,86.4c-0.1-0.1-0.1-0.2-0.2-0.2L794.1,86.4L794.1,86.4z"/>
<path d="M826.4,79.9c0,0-10.2,0-11.5,3.3L826.4,79.9z"/>
<path d="M813,101.1c0,0,25.4-5.2,31-1.8c0,0,0-0.1,0-0.2c-0.2-1.4-2.3-10-28.2-2.9c0,0-0.8-6.6,1.1-10.2c0.1-0.2,0.2-0.3,0.3-0.5
	l0,0c-0.1,0-0.9-0.2-1.7,2.1c-0.6,1.8-1.1,3.6-1.3,5.5c-0.1,0.9-0.2,1.7-0.3,2.6c0,0,0,0.1,0,0.1l-6.5-1.7h0
	C807.3,94,808.1,99.8,813,101.1z"/>
<path d="M851.7,74.7l-0.5-0.3c-3.4-2.1-22.1-13-34.7-3.3c-0.9,1.2-1.6,2.4-2.2,3.8c-0.4,0.8-0.5,1.7-0.3,2.5
	C814.6,79.6,829.1,66.7,851.7,74.7z"/>
<path d="M798.2,78.5c0.2-0.7,0.1-1.4-0.2-2c-1.7-5.8-9.4-6.6-13.5-6.6h-0.3c4.4,1.2,11,8.8,12.8,9.1C797.7,79.1,798,78.8,798.2,78.5
	z"/>
<path d="M782,69.9l-0.2,0.1c0.8-0.1,1.6-0.1,2.4-0.1l-0.2-0.1C783.3,69.6,782.6,69.7,782,69.9z"/>
<path class="st12" d="M792.5,143.9c4.2-1.8,9.7-5.6,9.4-7.5c0-0.5-3-2.3-4.4-3.1l-0.1-0.1l-0.7-0.5l0,0c-0.8-0.7-1.6-1.5-2.2-2.3
	c-1-2-4-7.3-9.4-8.3c-0.4-0.1-0.8-0.1-1.2-0.2c-2.5-0.2-4.6,1.6-5.5,2.6c-0.4,0.5-0.7,1-0.8,1.6c-0.4,1.9-0.7,6.1,3.1,7.6l0.5,0.2
	c-1-0.1-2,0.3-2.6,1.2c-2,3.1,0.4,6.4,3.8,8.4c0.4,0.2,0.9,0.5,1.3,0.6C786.6,145.3,789.7,145.1,792.5,143.9z"/>
<path class="st13" d="M786.2,84c-0.7-0.1-1.4,0.2-2,0.7l-2.6,2.3c-0.5,0.4-0.9,1.1-0.9,1.8c-0.2,2.9-0.6,10.5,0.1,11.6l0.1,0.3h0.1
	c1.4,0.2,3.4,0.4,5.5,0.4c-1-0.5-1.7-1.4-1.8-2.5c-0.1-1.7-0.1-3.3,0.1-5c0-0.3,0.1-0.5,0.1-0.8c0.7-3.8,4.1-6.5,8-6.1l0,0
	c0.2,0,0.4,0,0.6,0.1h0.1c0.1,0,0.3,0,0.4,0.1c0.1,0,0.2,0.1,0.3,0.2l-0.1-0.3c-0.1-0.2-0.2-0.4-0.3-0.6l-0.1-0.2
	c-0.1-0.1-0.1-0.2-0.2-0.3c-0.2-0.2-0.5-0.4-0.8-0.6C790.7,84.5,788.5,84.1,786.2,84z"/>
<path class="st14" d="M794.2,87c-0.1,0-0.2-0.1-0.3-0.1h-0.2c-0.2,0-0.4-0.1-0.6-0.1l0,0c-4.1-0.3-7.7,2.8-8,6.9
	c-0.2,1.7-0.3,3.3-0.1,5c0.1,1.1,0.8,2.1,1.9,2.5c0.9,0.1,1.8,0.1,2.7,0.1l4.1-1.1c1-0.3,1.7-1,2-2c0,0,0,0,0-0.1
	c0.1-0.7,0.2-1.5,0.2-2.2c0-2-0.1-4-0.2-6c0-0.5-0.1-1.1-0.1-1.6c-0.2-0.4-0.6-0.8-1-1l-0.1-0.1l0,0C794.3,87.2,794.3,87.1,794.2,87
	z"/>
<path d="M742.3,216.2l0.1,0.1c2-1.6,5.2-4.1,8.2-5c0,0-0.9,0.2-2.2,0.7c-2.1,0.7-5.1,2-6.7,3.8C741.9,215.9,742.1,216,742.3,216.2z"
	/>
<path class="st12" d="M694.5,311.4c0,0.2,0,0.5,0,0.8c0-0.3,0.1-0.6,0.2-0.9s0-0.6,0-0.9C694.7,310.7,694.6,311,694.5,311.4z"/>
<path class="st12" d="M695.4,307.5c-0.7-0.5-1.4-0.7-2.3-0.8c0.4,1.9,0.8,3.7,1.3,5.5c0-0.3,0.1-0.5,0.1-0.8
	C694.5,310.1,694.8,308.7,695.4,307.5z"/>
<path class="st12" d="M764.6,187.9c-0.7,0.8-1.5,1.5-2.4,2c-2.4,1.4-5.4,1.9-9,3.4c-0.7,0.3-1.4,0.6-2.1,1c-4.9,2.8-6.8,4.5-9.8,6
	l-0.3,0.1l0,0c-2.8,1.2-5.8,2.1-8.9,2.6c-4.3,0.8-12.9-0.3-21.3,2.4l-0.5,0.1c-1.5,0.5-3,1.2-4.4,1.9c-10.1,5.6-13.4,17.9-13.3,20.7
	c0,1.9,0.1,3.6,0.2,5.2c0.2,3.4,0.8,6.7,1.9,9.9c0.4,1.2,0.8,2.4,1.3,3.6s1.2,2.4,1.7,3.5c1.5,2.9,2.7,5.1,2.4,7.7
	c0,0.3-0.1,0.5-0.1,0.8c-1.2,7.6-2.4,6-1.6,11.9l0.1,0.5l0,0.1v0.1c0.2,0.7,0.4,1.4,0.7,2.1c0.7,1.9,1.6,4.3,1.7,4.4
	c-3.6,7.8-5,21.3-5.5,27c-0.2,1.6-0.2,2.6-0.2,2.6s-0.1,0.3-0.2,0.8c0.1-0.3,0.2-0.6,0.4-0.9c-0.3,1.3-0.6,2.6-0.8,3.9
	c0,0.9,0,1.7,0.1,2.6c3.6,13.6,8.2,22.8,10.1,32l3.3-1.1l1.8-0.6c-5.2-3.7-5.9-6.3-5.9-6.3l0.2,0.2c0-0.1-0.1-0.2-0.1-0.2
	c0,0,3,3,9.2,5.2c28.4-9.2,55.1-14.4,74.1-11.9c0.1-0.3,0.1-0.7,0.1-1c0-0.3-0.1-0.6-0.1-0.9l-1-4l-7.3-28.4c0,0-0.7-0.3,0.4-1.4
	c5.8-5.8,10.5-10.2,14.2-13.6c1.5-1.4,2.9-2.6,4-3.7c0-0.1,0-0.2,0-0.3c0.5-6.9,2.5-16.6,4.4-24.7c-0.1,0.5-0.2,0.9-0.3,1.2
	c-0.2,0.6-0.3,0.6-0.3,0.2c0-1,0.2-2.1,0.4-3.1c-4.1-4.8-7.9-11.5-5.8-18.7c0.2-0.8,0.5-1.6,0.8-2.5c1.2-4.3,3.9-8,7.7-10.4
	c21.4-14.6,37.6-25.3,43.3-26.5c0.3-0.1,0.6-0.1,0.9-0.1c0.1,0,0.3,0,0.4,0c4.3,0.6-1.1-1-1.6-0.9c-2.5,0.2-7.8-3.3-11.4-4.2
	c-0.8-0.2-1.7-0.1-2.4,0.2c-0.7,0.2-1.5,0.6-2.2,0.9c-17.5,7.6-31.2,22.5-37.2,22.1c-2-0.1-3.9-0.2-5.7-0.3
	c-16.5-0.7-25.1,0.7-30.3,2.3c-7.5,2.3-8.3,5.2-16,3.2h-0.1H742h-0.1l-0.6-0.5l-0.1-0.1c-1.4-1.2-3.6-4.2-1.9-7.2
	c1.4-2.5,3.1-1,13-7.6s23.3-12.7,26.8-13.4c0.7-0.1,0.7-0.2,0.5-0.4l0,0c-0.7-0.5-4.2-1.1-4.6-1.2c-1.2-0.5-2.3-0.2-6.3,0.1
	c-0.8-0.1-1.7-0.1-2.5-0.1l-0.2,0.2l-0.1,0.1C765.7,186.7,765.1,187.3,764.6,187.9z M767.8,275.8c-16.8,13.3-35.2-3.7-36.2-6.2
	c-0.2-0.6,0.5-0.4,2.4,1.1C744,278.7,767.7,275.8,767.8,275.8z"/>
<path d="M734,270.8c-1.9-1.5-2.6-1.7-2.4-1.1c1,2.5,19.4,19.3,36.2,6.2C767.8,275.8,744,278.8,734,270.8z"/>
<path d="M710.1,344.1l3.3-1.1c-6.3-2.2-9.2-5.2-9.2-5.2c0,0.1,0,0.2,0.1,0.2C704.6,338.7,705.8,341,710.1,344.1z"/>
<path d="M694.7,311.3c0.2-1.3,0.5-2.6,0.8-3.9c-0.1,0.3-0.3,0.6-0.4,0.9c-0.3,0.7-0.4,1.4-0.5,2.1
	C694.7,310.6,694.7,311,694.7,311.3z"/>
<path d="M694.6,312.2c0,0.1,0,0.3-0.1,0.4c0.1,0.4,0.2,0.9,0.3,1.3c-0.1-0.9-0.1-1.7-0.1-2.6C694.7,311.6,694.6,311.9,694.6,312.2z"
	/>
<path d="M802,251.4c-0.3,1-0.4,2-0.4,3.1c0,0.3,0.3-0.2,0.6-1.6c0,0,0-0.1,0-0.1c0.1-0.3,0.2-0.7,0.2-1c0,0,0-0.1,0-0.1
	c0.3-1.4,0.7-2.9,1.2-4.4c3.5-10.5,10.7-23,10.7-23l-0.2,0.2c-1.3,1.6-2.5,3.4-3.6,5.2c-3.9,6.6-6.8,13.8-8.4,21.4
	c0,0.1,0,0.2-0.1,0.3C802.1,251.3,802.1,251.4,802,251.4z"/>
<path class="st15" d="M473.2,192.1l-5.6,36.6c0,0-27.7,18.3-31.1,34.8c0,0-41.4,3.8-57.9,14.5h-0.3L354,310.5h-0.3l0,0
	c0,0,4.6,1,12,2.5c9.4,1.9,23.2,4.6,37.8,7.2l0.5,0.1c28.2,5,59.1,9.7,65.9,7.4c0,0-33.5,25.9-41.4,42.8c-2.2,5.1-3.2,10.6-2.9,16.2
	c0.3,6,1.6,11.9,3.6,17.6c0,0.1,0.1,0.3,0.1,0.4c0.5,1.6,1.2,3.1,1.9,4.6c0,0,28.4,35.1,53.7,69.7c3.2,4.3,6.3,8.7,9.3,12.9
	c14.6,20.6,26.5,39.5,28.8,48.6c6.4,25.8-3.4,29.2-3.4,29.2l-23.2,13.2l0,0l-10.9,6.1l-9.6,5.5l4.6,11.1l3,7.4l25.8-4.5h0.1l17.4-3
	c2.4-2.2,6.1-4.4,10.6-6.7l29.6-19.5l0,0l2-1.3c0-0.1,0-0.1,0.1-0.2c2.9-6.4,7.4-11.3,10.6-16.5c0.7-3.6,0.4-5.8,1.6-10l2,0.7
	c0.2-1.4,0.2-2.7,0-4.1c-0.4-4.1-1-8.8-1.5-13.8l-24-24.3c-4.5-17.5-10.1-34.7-16.5-51.6c-8.8-22.6-17.8-39-25.8-50.9
	c16.4,5.3,33.1,9.7,50.1,13.1c13.8-16.9,79-53.7,139.3-74.6c-1.9-9.2-6.5-18.4-10.1-32c-0.1-0.4-0.2-0.9-0.3-1.3l-0.1-0.4
	c-0.4-1.7-0.9-3.6-1.3-5.5c-0.6-2.9-1.2-6-1.7-9.2c-1.5-10.4-7-23.8-14.7-38.4c-9.5-18-22.4-37.9-35.4-56.5
	c-26.7-38.1-54-70.8-54-70.8l-56.3-3.2l-23.8-3.8l4.1-13.4c-2.6,0.2-6.8,1-13.5,3c-16.7,4.7-44.2,55-55.3,76.3l0.5,0.3l20.8-8.1
	l19.4-7.5l-0.5,0.8l0.8-0.3L473.2,192.1z M520.9,258.2c0,0,24.5,48.7,60.7,61.5v0.2l-92.2,6.3l-19.6,1.4c1.4-0.5,3.3-1.9,5.5-4.1
	C486.8,312.1,507.2,280.4,520.9,258.2z"/>
<path class="st13" d="M497.8,114.4c6.8-1.9,11-2.8,13.5-3h0.2c2.5-0.2,3.4,0.2,3.7,0.7c1.8-7.9,11.3-56.8-27.6-77.6l-0.8-10.8
	c0,0-65,3.7-87.6,28.9c-21,23.3-27.9,48.7-16.7,80.2l43.2-39.5c0,0,0.5-0.1,1.2-0.1c3.8-0.3,16.3-0.1,21.4,14.8
	c6,17.6-31.1,73.9-31.7,74.7l-0.1-0.1l-0.1,0.1c6.6,6.4,13.7,12.2,21.3,17.5c0,0,1.8-3.6,4.8-9.4c0,0,0-0.1,0-0.1
	C453.5,169.4,481,119.1,497.8,114.4z"/>
<path d="M448.2,107.9c-5.1-15-17.7-15.1-21.4-14.8c-0.7,0.1-1.1,0.1-1.1,0.1l-43.2,39.5c0.9,2.5,1.9,5.1,3,7.8
	c7.4,17.1,19.9,31.7,30.9,42.1l0.1,0.1C417.1,181.8,454.3,125.5,448.2,107.9z"/>
<polygon class="st16" points="378.4,278 378.9,277.4 356.8,279 355.4,279.1 323.5,271.7 323.5,271.7 282,262 257.9,288.2 
	277.7,297.8 310.2,295.5 303.6,305 353.6,310.5 354,310.5 "/>
<path class="st17" d="M705,345.9c-60.4,20.9-125.5,57.7-139.3,74.6c-2.4,3-3.2,5.3-2.2,6.8c2.8,4.2,5.7,16.8,8.5,32.8
	c3.9,22.5,7.5,51.8,10,74c0.6,5,1.1,9.6,1.5,13.8c0.2,1.4,0.2,2.7,0,4.1l38.2,13.2c-0.7,1.5-0.9,3.3-0.6,4.9
	c0.1-0.7,0.3-1.3,0.6-1.9c2-4.5,4.8-13.2,6.7-28.3v-0.1c1.1-9,1.7-18,1.9-27.1c0-0.8,0-1.5,0-2.3c0.8-47.8-16.8-56-17.6-56.4h0.1
	c3,0,70.9,1.2,124.6-12.1c3.6-23.6,12.5-100.5-23.2-98.1l-6,1L705,345.9z"/>
<path class="st17" d="M568.5,579.1c-0.8,1.5-1.7,2.8-2.8,4.1c4.7-3.5,8.6-7.4,10.6-12c1.5-3.2,2.7-6.5,3.4-10
	c-3.2,5.1-7.7,10-10.6,16.5c0,0.1-0.1,0.1-0.1,0.2C568.9,578.3,568.7,578.7,568.5,579.1L568.5,579.1z"/>
<path class="st17" d="M581.6,621.8c2.3-1.5,4.6-3.1,6.7-4.8c3.6-3,6.7-6.6,9.2-10.7v-3c-1.6,2.7-3.5,5.2-5.7,7.4l0,0
	C589,615,585.6,618.7,581.6,621.8z"/>
<path class="st17" d="M524.4,613c0-0.1,0-0.3,0-0.4c-0.1,0.3-0.1,0.6-0.1,0.9c0,0.2,0,0.5,0,0.7C524.3,613.8,524.3,613.4,524.4,613
	L524.4,613z"/>
<path class="st17" d="M597.4,625.3c0,1.8,0,3,0,3l8.9,0.3l21.1,0.7c0,0,0.1-2,0.2-5.1c-0.1,0.7-0.1,1.4-0.2,2.1L597.4,625.3z"/>
<path class="st17" d="M566.4,629.3c1.6-0.7,3.2-1.3,4.6-1.9c1.8-0.8,3.5-1.6,5-2.4c-3,1.3-6.4,1.7-9.7,1.3c0,0-11.3,0.3-20.5-0.2
	c-4.5-0.3-8.4-0.7-10.4-1.5c-0.6-0.2-1.2-0.4-1.9-0.6c-4-1.2-7.7-1.4-8.9-5.4c1,5.4,3.9,6.8,10.8,9c1.9,0.6,8.3,1.3,14.8,1.8
	C557.3,629.9,564.4,630,566.4,629.3z"/>
<path class="st17" d="M799.6,344.3c-3.3-5-7.4-9.5-12.1-13.2C792.1,335,796.1,339.4,799.6,344.3z"/>
<path class="st17" d="M713.5,343l-3.3,1.1H710l-1.8,0.6c2-0.5,4-0.9,6-1l73.3-12.6C768.5,328.6,741.8,333.8,713.5,343z"/>
<path class="st12" d="M799.6,344.3c-3.5-4.9-7.5-9.3-12.1-13.2l-73.3,12.6c35.7-2.4,26.7,74.5,23.2,98.1c-0.7,4.3-1.1,6.8-1.1,6.8
	c11.9-0.6,42.1-9.4,66.1-32.4c3.1-3,6.3-5.8,9.6-8.4c14.5-11.3,14.4-3.6,8.6-9.1c-1.9-2-3.5-4.3-4.7-6.8c-4.3-8.2-7.2-19.3-7.2-19.3
	C809.8,361.9,804.9,351.8,799.6,344.3z"/>
<path class="st12" d="M714.2,343.7c-2,0.1-4,0.5-6,1L714.2,343.7z"/>
<path class="st18" d="M621.6,565.2L583.4,552l-2-0.7c-1.2,4.2-0.9,6.4-1.6,10c-0.7,3.5-1.9,6.8-3.4,10c-2.1,4.6-5.9,8.5-10.6,12
	c-8.4,6.2-19.6,11-28.2,15.5c-4.4,2.3-8.2,4.5-10.6,6.7c-1.6,1.5-2.6,3.1-2.7,4.7l0,0c0,0.1,0,0.2,0,0.3c0,0.8,0,1.4,0.1,2.1
	c0,0.2,0,0.3,0,0.4c0.4,0,53,7.3,59,3.3s8.3-5.6,8.3-5.6c2.2-2.3,4.1-4.7,5.7-7.4c0,0,33.6-1.4,29.8-19.7c-1.2-3.7-2.9-7.1-5-10.4
	C620.6,570.8,620.4,567.8,621.6,565.2L621.6,565.2z"/>
<path d="M533.6,624c0.6,0.2,1.2,0.4,1.9,0.6c2,0.8,6,1.2,10.4,1.5c9.2,0.5,20.5,0.2,20.5,0.2c3.3,0.4,6.6,0,9.7-1.3
	c2-0.8,3.8-1.9,5.5-3.1c4-3.1,7.5-6.8,10.1-11.1l0,0c0,0-2.3,1.6-8.3,5.6s-58.6-3.3-59-3.3l0,0c0,0.4,0,0.8-0.1,1.2
	c-0.1,1.5,0,3,0.4,4.4C525.9,622.6,529.6,622.8,533.6,624z"/>
<path d="M597.4,603.3v22l0,0l30,1c0.1-0.7,0.2-1.4,0.2-2.1c1-10.2,1.4-18,1.5-23.7c0-0.1,0-0.1,0-0.2c0.1-14.4-1.9-16.7-1.9-16.7
	l0,0C631,601.9,597.4,603.3,597.4,603.3z"/>
</svg>
