<?xml version="1.0" encoding="utf-8"?>
<!-- Generator: Adobe Illustrator 25.4.1, SVG Export Plug-In . SVG Version: 6.00 Build 0)  -->
<svg version="1.1" id="Layer_1" xmlns="http://www.w3.org/2000/svg" xmlns:xlink="http://www.w3.org/1999/xlink" x="0px" y="0px"
	 viewBox="0 0 525 795" style="enable-background:new 0 0 525 795;" xml:space="preserve">
<style type="text/css">
	.st0{fill:none;}
	.st1{fill:#FFCC99;}
	.st2{fill:#FF00FF;}
	.st3{fill:#EC008C;}
	.st4{fill:#AD926C;}
	.st5{fill:#FF0000;}
	.st6{fill:#0071BC;}
	.st7{fill:#C1272D;}
	.st8{fill:#2E3192;}
	.st9{fill:#1D1D1B;}
</style>
<path class="st0" d="M416.5,215.4L416.5,215.4c5.9,1.9,12.1,2.9,18.3,2.9C428.6,218.2,422.4,217.2,416.5,215.4z"/>
<path class="st0" d="M379.1,153.2c0,13.2,27.4,30.8,27.4,30.8h0.2c0,0-27.4-17.5-27.4-30.8c0-5.9,2-25.7,4.1-45.6l-0.1-0.1
	C381,127.5,379.1,147.2,379.1,153.2z"/>
<path class="st0" d="M396.8,298.6c-8.5-6.5-29.9-20.2-37.2-21.4c-0.7-0.2-1.4-0.2-2,0.2c-1.5,1.4-2.5,2-2.9,1.9h-0.2
	c-3-0.7-5.1-0.7-6.8,0c-4.8,2-5.8,10.7-16.8,31.3c-0.4,0.9-1.2,1.5-2.2,1.7h-1c-1.4-0.1-2.6-1.2-2.9-2.5l-1.7-8.3
	c0,0-4.4-48.4-3.6-35.4v0.3c0,5.8-7.6,18.2-17.2,26.5c0,0.2-0.2,0.2-0.3,0.3c-2.4,1.9-4.9,3.6-7.5,5.1l-1,0.5h-0.2
	c-0.4,0.1-0.9,0.2-1.3,0.2c0.6,0,1.1-0.1,1.6-0.2h0.2l1-0.5c2.7-1.4,5.2-3.1,7.5-5.1l0.1,0.2l0.1-0.1c9.5-8.3,17.2-20.7,17.2-26.5
	c0.9,8.5,3.4,35,3.4,35l1.7,8.3c0.2,0.9,0.9,1.7,1.7,2.2c0.4,0.2,0.9,0.3,1.4,0.3h1c1-0.2,1.8-0.8,2.2-1.7
	c10.9-20.4,11.9-29.2,16.8-31.3c1.7-0.7,3.7-0.7,6.8,0h0.2c0.3,0.2,1.4-0.5,2.9-1.9h0.5c0.5,0,1-0.1,1.5-0.3
	c7.3,1.2,28.7,15,37.2,21.4c-1,19.5-2.4,41.1-3.2,45c-0.8,4.7-2,9.2-3.8,13.6v0.2c-7.7,20.4-20.2,29.7-25.5,33
	c4.8-2.8,18-12,25.8-33l0.1-0.1c1.7-4.5,3-9.2,3.9-13.9c0.7-3.7,2-25.1,3.2-44.6c-0.1-0.1-0.2-0.2-0.3-0.2
	C397,298.8,397,298.6,396.8,298.6z M358.4,277.6h-0.5c0.3-0.3,1-0.3,2-0.2C359.4,277.5,358.9,277.6,358.4,277.6z"/>
<path class="st0" d="M263.9,112.2c-1.8-0.6-3.1-2.3-3.1-4.2c-0.1,2,1.2,3.9,3.1,4.6c0.4,0.2,0.7,0.6,0.7,1
	C264.7,113,264.4,112.5,263.9,112.2z"/>
<path class="st0" d="M433.2,259.7c6.4-21.1-7.1-17.2-17.2-12.1v7.6c5.6,1.2,10.5,2,8.5,4.1c-2.5,2.5-5.4,5.3-8.2,7.6l-0.5,0.5
	l0.5-0.5c1.2,0.3,2.4,0.8,3.4,1.5c0.7,0.6,1.2,1.3,1.4,2.2l0.1,0.2l10.3,2.7C431,270.2,431.3,265.8,433.2,259.7z"/>
<path class="st0" d="M441.8,281.5L441.8,281.5c5.9,0.2,12.2-2.5,12.2-2.5h-0.2C450,280.5,446,281.4,441.8,281.5z"/>
<path class="st0" d="M277.4,194.3c-12.1,3.2-2.2,15.6,5.9,24.5C275.3,209.9,265.3,197.5,277.4,194.3z"/>
<path class="st0" d="M427.7,360.8c0-0.1-0.1-0.2-0.2-0.2h0c-2,9.9-10.5,55.4-7,78.8v0.2l34.8-0.3
	C455.4,439.3,427.7,367.1,427.7,360.8z"/>
<path class="st0" d="M427.9,358.8l-0.3,1.7v0.2l0.3-1.7V358.8z"/>
<path class="st0" d="M415.5,267.2v0.2c-0.5,14.5-1.7,27-4.9,30.4c-2.1,2.2-7,5.1-9.2,5.2c2,0.2,7.4-2.9,9.6-5.2
	c3.4-3.4,4.6-16,4.9-30.4c0.2-4.1,0.2-8.1,0.2-12.2C416,259.2,415.8,263.5,415.5,267.2z"/>
<path class="st0" d="M289.4,256.8l-0.1,0.1c0,0.1,0,0.2-0.1,0.3C289.2,257,289.3,256.9,289.4,256.8z"/>
<path class="st0" d="M284.8,220.1l-0.2,0.2c3.4,3.7,6.1,6.4,6.5,7.4C291.6,227.2,288.6,224.1,284.8,220.1z"/>
<path class="st0" d="M286.9,237.8c0,0.1,0,0.1,0,0.2c-0.2,4.3,4.1,9.8,3.7,15.3C291.5,247.7,287,242.1,286.9,237.8z"/>
<path class="st0" d="M371.8,344c0.2,0.7,0.5,1.5,0.8,2.2c0.2,0.5,0.5,1,0.8,1.5c-0.3-0.5-0.6-1-0.8-1.5
	C372.2,345.5,372,344.7,371.8,344z"/>
<path class="st0" d="M288.6,152.9c-20.2-11.9-20.7-28.6-20.7-28.6l-0.2,0.2v-0.2c-3.7-0.2-4.8-1.6-4.8-3.4c-0.1,2,0.9,3.6,4.8,3.8
	v0.2l0.2-0.2c0,0,0.5,16.7,20.7,28.5c9.7,5.8,13.2,16.6,14.4,26.5c0.1,0.6,0.1,1.1,0,1.7c0-0.7,0-1.3,0-2
	C301.8,169.5,298.3,158.6,288.6,152.9z"/>
<path class="st0" d="M328.7,359.5L328.7,359.5c1.1-1.3,4-4.9,6.3-8.6C332.6,354.8,329.5,358.5,328.7,359.5z"/>
<path class="st0" d="M336.8,329.6c-0.2-0.9-0.3-1.4-0.3-1.4s1.3,13.5-1,18.8C337.5,343,337.1,333.5,336.8,329.6z"/>
<path class="st0" d="M385.8,358.3L385.8,358.3c0,0-0.7-0.4-1.8-1.2C385.1,357.8,385.8,358.3,385.8,358.3z"/>
<path class="st0" d="M333.8,349.9c-2.2,3.6-4.4,8-5.1,9.6l0,0C329.2,358.3,331.5,353.8,333.8,349.9z"/>
<path class="st0" d="M262.4,422.1c-1-0.4-1.9-1.1-2.5-2C260.4,421.1,261.3,421.8,262.4,422.1z"/>
<path class="st0" d="M250.4,398.4c0.5,1.5,1.5,4.4,2.7,7.6C251.9,402.6,250.9,399.9,250.4,398.4z"/>
<path class="st0" d="M375.8,456.5c-0.1-0.6-0.2-0.9-0.2-0.9v0.2c0,0,2.4,48.8,23.4,70.7c13.2,13.7,20.9,33.5,24.8,46.5
	c-0.3-1-0.6-2.1-0.9-3.2c-4.2-12.9-11.6-30.6-23.8-43.1C379.5,506.1,376.1,462,375.8,456.5z"/>
<path class="st0" d="M396.1,516.3l0.2,0.2c-0.1-0.1-0.2-0.2-0.4-0.4c-0.5-0.5-0.9-1-1.3-1.5C395.1,515.2,395.6,515.8,396.1,516.3z"
	/>
<polygon class="st0" points="307.8,511.5 307.8,511.5 315.4,513 "/>
<path class="st0" d="M313.2,513.9l-4.4-2l-0.6-0.2l0.6,0.2l-1.4-0.2l5.6,2.2c0,0-20.9,24.8-21.6,44.8l-0.7,20c0-0.4,0.1-0.7,0.2-1.1
	l0.7-18.9C292.3,538.7,313.2,513.9,313.2,513.9z"/>
<path class="st0" d="M234.4,431.6c3.6-1.1,7.1-2.1,10.7-3l3.5-0.9l-3.5,0.9C241.5,429.5,238,430.5,234.4,431.6z"/>
<path class="st0" d="M425.4,578.1c-0.2-0.7-0.3-1.3-0.6-2C425,576.8,425.2,577.5,425.4,578.1z"/>
<path class="st0" d="M273.5,422.1L273.5,422.1h-0.1H273.5z"/>
<path class="st1" d="M453.9,278.9h0.2c-1.2-0.2-3.2-0.7-5.4-1.2c0.4,0.3,0.8,0.5,1.2,0.7c1,0.4,2,0.7,3.1,0.6
	C453.2,279,453.6,279,453.9,278.9L453.9,278.9z"/>
<path class="st1" d="M441.8,281.5c-0.1,0-0.1,0-0.2,0c-2,0-4-0.5-5.8-1.4c-0.5-0.2-0.9-0.5-1.4-0.9c-0.8-0.7-1.4-1.5-1.9-2.4
	c-0.3-0.5-0.5-1-0.7-1.5c-0.2-0.7-0.3-1.2-0.5-1.9l0,0l-10.3-2.7c5.2,15,6.7,88,6.7,88v0.2l-0.3,1.7c0.1,0,0.2,0.1,0.2,0.2v0
	c0,6.3,27.7,78.5,27.7,78.5l-34.8,0.3c0.9,6,2.5,10.5,5.4,12.6c2,1.7,4.2,3.6,6.6,5.6c2.5,2.4,5.3,4.9,8.2,7.8
	c5.4,5.4,11,11.7,16.8,18.7l59.6,5.8l-45-195.4c0.2,0-5.4-13.2-18.2-15.8C454.1,279,447.8,281.7,441.8,281.5L441.8,281.5z"/>
<polygon class="st2" points="328.7,359.5 328.7,359.5 328.7,359.5 "/>
<path class="st3" d="M457.6,484.3c-5.8-7-11.4-13.3-16.8-18.7c-2.9-2.9-5.6-5.4-8.2-7.8c-2.4-2-4.6-3.9-6.6-5.6
	c-2.9-2-4.6-6.5-5.4-12.6v-0.2c-3.6-23.5,4.9-69,7-78.8v-0.2l0.3-1.7l0,0c0,0-1.5-73-6.7-88l-0.1-0.2c-0.2-0.9-0.7-1.7-1.4-2.2
	c-1-0.7-2.2-1.2-3.4-1.5l-0.5,0.5c-0.3,14.5-1.5,27-4.9,30.4c-2.2,2.3-7.6,5.4-9.6,5.2c-0.8,0-1.3-0.3-1-1.3c-0.8-1-1.8-1.9-2.9-2.6
	c-1.2,19.5-2.5,40.9-3.2,44.6c-0.9,4.7-2.2,9.4-3.9,13.9l-0.1,0.1c-7.8,21-21,30.2-25.8,33c-1,0.6-1.8,1.1-2.2,1.3
	c-0.1,0.1-0.2,0.2-0.3,0.2l-12.6-8.7C341,377.7,334,370,328.9,361l0.2-0.2l-0.5-0.9l0.3-0.3v-0.1l-0.1,0.1c-0.1,0-0.1,0-0.1,0.1
	l0,0.1l0,0l-1-1.7v-0.2l-0.2,0.2c-0.9-1.9-1.9-3.9-2.5-5.8l-22.6-58.6c0-0.1,0.1-0.2,0.3-0.3l-0.1-0.2c-2.3,2-4.8,3.7-7.5,5.1
	l-1,0.5h-0.2c-0.5,0.1-1.1,0.2-1.6,0.2c-1.5,0.1-2.9-0.3-4.1-1.2c-0.8-0.5-1.4-1.2-1.9-2c-0.3-0.6-0.5-1.3-0.7-2v-1.5
	c0-0.3,0.2-0.5,0.2-0.9c0-0.3,0-0.6,0.2-0.9c0.1,0,0.2-0.1,0.2-0.2v0c0.2-0.2,0.2-0.5,0.3-0.7c0.2-0.3,0.3-0.5,0.5-0.9
	c8-10.4,0.5-29.4,1-29.9c0.5-0.4,0.9-0.8,1.2-1.4c-0.2,0-0.2,0.2-0.3,0.3v-0.7c0,0.1-0.1,0.2-0.2,0.2h0c-1.3,0.8-2.8,1.5-4.2,2
	c-7.6,2.7-7.5-7.8-6.1-8.8h0.1c0.1-0.1,0.2-0.2,0.3-0.3c0.3-0.3,0.5-0.3,0.9,0.2c0.5,0.7,1,1,1.5,0.9c1.2-0.5,2.5-2.2,3.4-3.2
	c0.1-0.2,0.2-0.4,0.3-0.5l-1-1.5l-16.8,7.5l0.2,0.5l18.1,69.1c7.8,18.5,46.2,110.6,47.9,124.9c0,0.4,0,0.8,0.2,1.2
	c1,8.9-1.2,17.9-6,25.5H327l-0.1,0.2l-32.7,4.7c2.4,4,4.6,8.2,6.4,12.5c2.9,6.3,5.3,12.7,7.1,19.4c0,0-23.8-8.4-85,57.4
	c-0.3,0.3-59.5,83.2-59.8,83.6c-56.8,65.9,277.8,90.9,277.8,90.9s57.9-70.8,73.2-123.3c2.3-7.3,3.6-14.8,3.7-22.4
	C517.6,570.8,487,519.8,457.6,484.3z M316.7,513.3c-0.2,0.3-0.7,1.1-1.6,2.3s-1.9,2.9-3.2,4.9c-0.6,1-1.3,2.1-2.1,3.2
	c-1.5,2.3-3.1,4.8-4.7,7.5l-1.3,2c-1,1.6-1.8,3.4-2.5,5.1c-0.6,1.5-1.2,3.1-1.8,4.9s-1.2,3.6-1.7,5.4c-4,13.8-6.9,30.1-6.9,30.1l0,0
	v-1.2c-0.1,0.4-0.1,0.7-0.2,1.1l0.7-20c0.7-20,21.6-44.8,21.6-44.8l-5.6-2.2l1.4,0.2l-0.6-0.2l-0.4-0.1l0,0l7.6,1.4l1.4,0.3
	L316.7,513.3z M424.8,576.1c0.2,0.7,0.4,1.3,0.6,2C425.2,577.5,425,576.8,424.8,576.1L424.8,576.1z M423,569.8
	c0.3,1.1,0.6,2.2,0.9,3.2c-4-13-11.6-32.8-24.8-46.5c-21.1-21.9-23.5-70.7-23.5-70.7v-0.2c0,0,0.1,0.3,0.2,0.9c0-0.4,0-0.6,0-0.6
	c0.2,0.3,1.9,7.8,4.4,17.5c2.7,10.4,6.5,23.5,10.2,32.5c1.1,3,2.6,5.9,4.3,8.7c0.4,0.5,0.8,1,1.3,1.5c0.1,0.1,0.2,0.2,0.4,0.4
	c0.7,0.6,1.3,1.2,2,1.9s1.2,1.3,1.8,1.9v0.1c12.3,14,20.5,40.2,24.7,55.1c0.2,1,0.5,2,0.7,2.9C424.9,575.8,424,572.9,423,569.8z"/>
<path class="st2" d="M340.1,349.9c-0.2,0.6-0.5,1.1-0.7,1.5C339.6,351,339.9,350.5,340.1,349.9z"/>
<path class="st1" d="M289.3,256.8l-0.7,0.3v0.7c0.2-0.2,0.2-0.3,0.3-0.3c0.1-0.1,0.2-0.2,0.2-0.4
	C289.2,257.1,289.2,256.9,289.3,256.8z"/>
<path class="st1" d="M390,357.8v-0.2c1.7-4.4,3-8.9,3.8-13.6c0.9-3.9,2.2-25.5,3.2-45c-8.5-6.5-29.9-20.2-37.2-21.4
	c-0.5,0.2-1,0.3-1.5,0.3h-0.5c-1.5,1.4-2.5,2-2.9,1.9h-0.2c-3-0.7-5.1-0.7-6.8,0c-4.9,2-6,10.9-16.8,31.3c-0.4,0.9-1.2,1.5-2.2,1.7
	h-1c-0.5,0-0.9-0.1-1.4-0.3c-0.8-0.5-1.5-1.3-1.7-2.2l-1.7-8.3c0,0-2.5-26.5-3.4-35c0,5.8-7.6,18.2-17.2,26.5l-0.1,0.1
	c-0.1,0.1-0.3,0.1-0.3,0.3l22.6,58.6c0.7,1.9,1.7,3.9,2.5,5.8l0.2-0.2v0.2l1,1.7c0-0.1,0.1-0.2,0.2-0.3l0,0c0.8-1.6,2.9-6,5.1-9.6
	c0.5-0.8,0.9-1.5,1.3-2.2c0.1-0.2,0.3-0.5,0.4-0.7c2.3-5.4,1-18.8,1-18.8s0.1,0.5,0.3,1.4c-0.1-1.1-0.1-1.7-0.1-1.7
	s3.1,12.6,1.2,17.8c-0.7,1.9-1.6,3.6-2.8,5.3c-2.3,3.6-5.2,7.3-6.3,8.6l-0.3,0.3l0.5,0.9l-0.2,0.2c5.1,9,12.1,16.7,20.6,22.6
	l12.6,8.6c0.1,0,0.3-0.1,0.3-0.2c0.4-0.2,1.2-0.7,2.2-1.3C369.8,387.4,382.3,378.2,390,357.8z M339.3,351.5c0.2-0.5,0.5-1,0.7-1.5
	C339.9,350.5,339.6,351,339.3,351.5L339.3,351.5z M373.3,347.7c-0.3-0.5-0.6-1-0.8-1.5c-0.3-0.7-0.5-1.4-0.8-2.2
	c-0.4-1.3-0.7-2.6-0.9-3.9c-0.6-3.5-1-7-1.2-10.5c0,0,2.4,7.8,3.4,13.2c0.5,1.7,1.3,3.3,2.4,4.7c3.7,5.1,10.3,10.8,10.3,10.8l0,0
	c0,0-0.7-0.4-1.8-1.2l-0.9-0.6c-0.9-0.6-2-1.5-3.2-2.4c-0.8-0.6-1.5-1.2-2.3-1.9c-1.1-0.9-2.1-2-3.1-3
	C374.1,348.7,373.7,348.2,373.3,347.7L373.3,347.7z"/>
<path class="st1" d="M328.5,359.8l0-0.1C328.5,359.7,328.5,359.8,328.5,359.8z"/>
<path class="st1" d="M327.1,474.7c4.7-7.5,6.8-16.5,5.9-25.3c0-0.3,0-0.7-0.2-1c-1.7-14.1-40.3-106.4-47.9-124.9l-18.2-69.1
	l-55.9-3.4l1.4,49.6l38.1,97l3.6,7l7,13.9l1.9,3.6h11.2c-0.3,0-0.7,0.1-1,0.2h0.7h-0.1h0l-0.3,0.1l-1,0.2l-0.9,0.2l-1.8,0.4
	l-3.5,0.7c-2.2,0.5-4.8,1-7.7,1.6s-6.1,1.5-9.4,2.4l-3.5,0.9c-3.6,0.9-7.1,1.9-10.7,3c-7.1,2.1-14.1,4.5-21.1,7.1
	c-3.5,1.3-6.9,2.7-10.4,4.1c0.7-0.3,1.5-0.9,2.4-1.2c-0.7,0.3-1.5,0.7-2.2,1l-1.2,0.5l-1.5,0.7l-0.2,0.2l-2.2,1l-0.3,0.2l-0.2,0.2
	l-0.5,0.2l-90.9,24L76.6,471c0,0-7.7-9.9-32.6-12.7S43.1,469,43.1,469c8.2,1.5,16.1,4.5,23.3,8.7l-27.9,17.9l-8.7,0.9
	c0,0-22.6-22.4-22.6-10.4S21,506.6,21,506.6l50,19.9l39.8-22.9l182.1-23.8l7.5,12.6c-1.9-4.4-4.1-8.6-6.5-12.7h0.1h0.2l32.8-4.8
	L327.1,474.7z"/>
<path d="M262.4,422.1l-1.9-3.6l-7-13.9l-3.2-6.3c0.5,1.5,1.5,4.2,2.7,7.6c0.8,2.4,1.8,4.8,2.9,7.2c1.1,2.3,2.4,4.6,3.9,6.8l0,0v0.2
	C260.4,421.1,261.3,421.8,262.4,422.1z"/>
<path class="st1" d="M262.4,422.1c-1.1-0.3-2-1-2.5-2l-1.2,2.4c1.2-0.2,2.4-0.3,3.6-0.3L262.4,422.1z"/>
<path d="M213.3,438.7c7-2.7,14-5,21.1-7.1c3.6-1.1,7.1-2.1,10.7-3l3.5-0.9c3.4-0.8,6.5-1.6,9.4-2.4c2.9-0.8,5.5-1.2,7.7-1.6l3.5-0.7
	l1.8-0.4l0.9-0.2l1-0.2l0.3-0.1h0h0.1h-11.2c-1.2,0-2.4,0.1-3.6,0.3h-0.2c-4.2,0.7-8.2,1.7-12.2,3.1c-13.8,4.2-30.8,11.5-40.9,16.1
	c-0.9,0.3-1.7,0.9-2.4,1.2C206.4,441.4,209.8,440.1,213.3,438.7z"/>
<path class="st4" d="M259.9,419.9c-1.4-2.2-2.7-4.4-3.9-6.8c-1.1-2.3-2.1-4.7-2.9-7.2c-1.2-3.2-2.2-6.1-2.7-7.6
	c-0.1-0.3-0.2-0.7-0.3-1c-22.4-4.4-46.2-7.8-37.4,0.3c4.4,4,9.3,7.4,14.6,10c-6.6,0.2-13.6,0.7-20.4,1.5c-28,3.6-26.2,15-26.2,15
	l40.1-1l21.6-0.5l-33.7,11.9l-0.2,0.2l-9.2,3.3c0,0-1.7,3.9-3.1,7.6l0.5-0.2l0.5-0.2l0.3-0.2l2.2-1l0.2-0.2l1.5-0.7l1.2-0.5
	c9.5-4.4,28.4-12.6,43.3-17.3c4.1-1.4,8.3-2.4,12.6-3.1l1.2-2.2V419.9L259.9,419.9z"/>
<path class="st5" d="M304.2,55.2c0.3,0,0.6,0,0.9,0.2c0.9,0.4,1.6,1.2,1.9,2.2c0.3,1,2.8,2.3,6.8,3.7c0.6-3.5,3.7-6,7.3-5.9h0.2
	c8.2,0,21.8,0.5,36.7,1.2c1-1.2,2.1-2.3,3.4-3.2c-23.4-2.7-50.2-1.7-68.7,1.7c-21.1,3.9-24,16.3-22.8,26.2l6.1-1.9
	c-7.5-7.1-6-9.5-0.5-9.5c3.5,0.1,7,0.6,10.5,1.5L286,71C293,62.1,300.3,55.3,304.2,55.2z"/>
<path class="st5" d="M388.8,58.7c-7.6-2.4-15.4-4.1-23.3-5.1c0.7,1.1,1.2,2.2,1.5,3.4C374.4,57.5,381.7,58,388.8,58.7z"/>
<path class="st6" d="M284.2,259.4c1.5-0.5,2.9-1.2,4.2-2c0.1,0,0.2-0.1,0.2-0.2v0l0.7-0.3l0.1-0.1c0.1-0.1,0.1-0.3,0.2-0.4
	c0.1,0,0.2-0.1,0.2-0.2v0c0.3-0.6,0.5-1.3,0.7-2c0.1-0.3,0.1-0.5,0.1-0.8c0.4-5.6-3.9-11-3.7-15.3c0-0.1,0-0.1,0-0.2s0-0.1,0-0.1
	s0-0.1,0-0.1s0,0,0-0.1c0-0.4,0.1-0.7,0.1-1c1-4.9,2.7-7.5,4.1-8.7l0,0c-0.4-1-3.1-3.8-6.5-7.4l0.2-0.2l-0.2-0.2
	c8.3-8.6,18-28.3,18.4-38.6c0-0.6,0-1.1,0-1.7c-1.2-9.9-4.8-20.7-14.4-26.5c-20.2-11.9-20.7-28.6-20.7-28.6l-0.2,0.2v-0.2
	c-3.9-0.2-4.9-1.8-4.8-3.8c-0.1-2.4,1.6-5.4,1.8-7.2c0-0.4-0.3-0.8-0.7-1c-1.9-0.7-3.2-2.5-3.1-4.6c-0.4-8.3,15.6-25,25-36.8
	c-3.4-0.8-6.9-1.3-10.5-1.5c-5.3,0-6.6,2.4,0.9,9.5l-6.1,1.9l-13.4,4.1c0,0-17,1.9-14.4,32.6s23.6,60.5,23.6,60.5
	s-13.2,3.1-6.6,21.1c4.6,12.2,10.3,23.9,17.2,35l7.3,11.7l1,1.5c-0.2,0-0.3,0.3-0.7,0.7c-0.9,0.9-2.2,2.7-3.6,3.2
	c-0.5,0.3-1.2,0.2-1.6-0.4c-0.1-0.1-0.1-0.2-0.1-0.3c-0.3-0.3-0.5-0.4-0.6-0.4H278C276.7,251.6,276.5,262.1,284.2,259.4z
	 M283.3,218.8c-8.1-8.8-18-21.2-5.9-24.5l-6.8-49.1c8.7,5.8,19,14.4,20.4,23.3c2.4,15.5-1.2,38.4-1.2,38.4L283.3,218.8z"/>
<path class="st7" d="M424.5,259.2c2-2-2.9-2.9-8.5-4.1c0,4.1,0,8.2-0.2,12.2l0.5-0.5C419.1,264.5,422,261.8,424.5,259.2z"/>
<path class="st7" d="M357.9,277.6h0.5c0.5,0,1,0,1.5-0.2C358.9,277.2,358.2,277.2,357.9,277.6z"/>
<path class="st8" d="M291,168.5c-1.4-8.8-11.7-17.5-20.4-23.3l6.8,49.1c-12.1,3.2-2,15.6,5.9,24.5l6.5-11.9
	C289.8,206.9,293.3,183.9,291,168.5z"/>
<path class="st8" d="M263.9,112.2c0.5,0.2,0.8,0.8,0.7,1.4c-0.1,1.8-1.8,4.8-1.8,7.2c0,1.8,1.1,3.3,4.8,3.4v0.2l0.2-0.2
	c0,0,0.5,16.7,20.7,28.5c9.7,5.8,13.2,16.6,14.4,26.5c0.1,0.7,0.1,1.3,0,2c-0.4,10.3-10.1,30-18.4,38.6l0.2,0.2
	c3.8,4,6.7,7.1,6.3,7.6l0,0c-1.4,1.2-3.1,3.7-4.1,8.7c0,0.3-0.1,0.6-0.1,1c0,0,0,0,0,0.1s0,0.1,0,0.1s0,0.1,0,0.1
	c0.1,4.4,4.6,9.9,3.7,15.5c0,0.3-0.1,0.5-0.1,0.8c-0.2,0.7-0.4,1.4-0.7,2c0,0.1-0.1,0.2-0.2,0.2h0c-0.1,0.1-0.1,0.3-0.2,0.4
	c-0.1,0.1-0.1,0.3-0.2,0.4c-0.1,0.1-0.1,0.2-0.2,0.4c-0.3,0.5-0.7,1-1.2,1.4c-0.5,0.5,7,19.5-1,29.9c-0.2,0.3-0.3,0.5-0.5,0.9
	c-0.2,0.2-0.2,0.5-0.3,0.7c0,0.1-0.1,0.2-0.2,0.2h0c-0.1,0.3-0.2,0.6-0.2,0.9c0,0.3-0.2,0.5-0.2,0.9v1.5c0.2,0.7,0.4,1.4,0.7,2
	c0.4,0.8,1.1,1.5,1.9,2c1.2,0.9,2.6,1.4,4.1,1.3c0.4,0,0.9-0.1,1.3-0.2h0.2l1-0.5c2.6-1.5,5.1-3.2,7.5-5.1c0.2-0.2,0.3-0.2,0.3-0.3
	c9.5-8.3,17.2-20.7,17.2-26.5V266c-0.9-13.1,3.6,35.4,3.6,35.4l1.7,8.3c0.3,1.4,1.5,2.4,2.9,2.5h1c1-0.2,1.8-0.8,2.2-1.7
	c11-20.6,12.1-29.2,16.8-31.3c1.7-0.7,3.7-0.7,6.8,0h0.2c0.3,0.2,1.4-0.5,2.9-1.9c0.6-0.3,1.3-0.4,2-0.2c7.3,1.2,28.7,15,37.2,21.4
	c0.2,0,0.2,0.2,0.3,0.2c0.1,0.1,0.2,0.2,0.3,0.2c1.1,0.7,2.1,1.6,2.9,2.6c-0.3,1,0.1,1.4,1,1.3c2.2-0.1,7.2-3,9.2-5.2
	c3.2-3.4,4.4-16,4.9-30.4v-0.2c0.3-3.7,0.5-8,0.5-12.1v-7.6l-0.2,0.1c-0.2-15.5-0.3-29.1,0.5-32.3h0.2l0,0c5.9,1.9,12.1,2.9,18.3,3
	c6.5,0,10.3-1.2,6.9-2.8c-15.1-7.1-38.4-32.4-35-50.8c5.4-30.9-12.6-41.3-18.2-51.8c-0.3-1-2.3-2.8-5.1-5.3
	c-2,19.8-4.1,39.6-4.1,45.6c0,13.2,27.4,30.8,27.4,30.8h-9.2c-13.1,0-24.2-9.7-26-22.6c-3.2-22.1-4.6-44.3-4.2-66.6
	c-17.3-13.1-41-29.1-53.5-33.5c0,0,0,0,0-0.1c-4-1.3-6.5-2.7-6.8-3.7c-0.2-1-0.9-1.8-1.9-2.2c-0.3-0.1-0.6-0.2-0.9-0.2
	c-3.9,0.2-11.2,7-18.2,15.8l-0.2,0.3l0,0c-9.2,11.7-25.2,28.4-24.8,36.7C260.9,109.9,262.1,111.6,263.9,112.2z"/>
<path d="M307.8,511.5L307.8,511.5l0.4,0.1l0.6,0.2l4.4,2c0,0-20.9,24.8-21.6,44.8l-0.6,18.9v1.2l0,0c0,0,2.9-16.3,6.9-30.1
	c0.5-1.9,1.1-3.7,1.7-5.4s1.2-3.4,1.8-4.9c0.7-1.8,1.5-3.5,2.5-5.1l1.3-2c1.7-2.7,3.3-5.2,4.7-7.5c0.7-1.1,1.4-2.2,2.1-3.2
	c1.3-2,2.4-3.7,3.2-4.9s1.4-2,1.6-2.3l0.1-0.1l-1.4-0.3L307.8,511.5z"/>
<path d="M400.2,520.3L400.2,520.3c-0.6-0.7-1.2-1.4-1.8-2s-1.3-1.3-2-1.9l-0.2-0.2c-0.6-0.5-1.1-1.1-1.5-1.7
	c-1.7-2.7-3.2-5.7-4.3-8.7c-3.7-9-7.5-22.1-10.2-32.5c-2.5-9.7-4.2-17.2-4.4-17.5c0,0,0,0.2,0,0.6c0.3,5.5,3.7,49.6,23.4,70.1
	c12.1,12.5,19.5,30.2,23.8,43.1c1,3.2,1.9,6.1,2.6,8.5c-0.2-0.8-0.5-1.9-0.7-2.9C420.7,560.5,412.5,534.4,400.2,520.3z"/>
<path class="st9" d="M377.7,352.3c0.8,0.6,1.5,1.3,2.3,1.9c1.1,0.9,2.2,1.7,3.2,2.4l0.9,0.6c1.1,0.7,1.8,1.2,1.8,1.2l0,0
	c0,0-6.6-5.6-10.3-10.8c-1.1-1.4-2-3-2.5-4.7c-1-5.4-3.4-13.2-3.4-13.2c0.2,3.5,0.6,7,1.2,10.5c0.2,1.3,0.5,2.6,0.9,3.9
	c0.2,0.7,0.5,1.5,0.8,2.2c0.2,0.5,0.5,1,0.8,1.5c0.4,0.5,0.8,1,1.2,1.5C375.5,350.3,376.6,351.3,377.7,352.3z"/>
<path class="st9" d="M337.9,345.7c1.9-5.3-1.2-17.8-1.2-17.8s0.1,0.7,0.1,1.7c0.3,3.9,0.7,13.4-1.3,17.5c-0.1,0.2-0.2,0.5-0.4,0.7
	c-0.4,0.7-0.9,1.4-1.3,2.2c-2.3,3.9-4.6,8.4-5.1,9.6l0,0c-0.1,0.1-0.1,0.2-0.2,0.3c0,0,0-0.1,0-0.1c0,0,0.1-0.1,0.1-0.1l0.1-0.1
	c0.8-1,3.9-4.8,6.3-8.6C336.2,349.3,337.1,347.5,337.9,345.7z"/>
<path class="st7" d="M357.9,56.5c-15-0.7-28.5-1.2-36.7-1.2H321c-3.6-0.1-6.7,2.4-7.3,5.9c0,0,0,0,0,0.1
	c12.6,4.4,36.2,20.4,53.5,33.5c-0.4,22.3,1.1,44.5,4.2,66.6c1.8,12.9,12.9,22.6,26,22.6h9c0,0-27.4-17.5-27.4-30.8
	c0-5.9,1.9-25.7,4.1-45.7l0.1,0.1c2.8,2.5,4.8,4.3,5.1,5.3c5.6,10.5,23.6,20.9,18.2,51.8c-3.4,18.4,19.9,43.7,35,50.8
	c3.4,1.6-0.4,2.9-6.9,2.8c-6.2-0.1-12.4-1.1-18.3-2.9h-0.2c-0.9,3.2-0.7,16.8-0.5,32.3l0.2-0.1c10-5.1,23.6-9,17.2,12.2
	c-1.9,6.1-2.2,10.5-1.7,13.7l0,0c0.2,0.7,0.3,1.2,0.5,1.9c0.2,0.5,0.4,1,0.7,1.5c0.5,0.9,1.1,1.7,1.9,2.4c0.4,0.3,0.9,0.6,1.4,0.9
	c1.8,0.9,3.8,1.4,5.8,1.4c0.1,0,0.1,0,0.2,0c4.1-0.1,8.2-1,12-2.5l0,0c-0.3,0-0.7,0.1-1,0.1c-1.1,0.1-2.2-0.1-3.2-0.6
	c-0.5-0.2-0.9-0.4-1.4-0.7c-5.9-5.3,5.4-25.8,9.5-32.4c0.9-1.4,11.2-13.8,11.2-15.3c-0.3-8.1-11-24.1-9.9-43.5
	c1.4-22.9-12.6-13.4-12.6-13.4c2.9-5.1,5.3-9,7-11.4c5.1-7.1,4.4-16.8-1.7-23.1c4.1-11,7.3-21.7,7.3-28c0-17-16.1-27.4-27-41.3
	c-4.1-5.1-22.4-8.3-43.7-10.5c-7.1-0.8-14.5-1.3-21.6-1.8c-0.3-1.2-0.8-2.4-1.5-3.4c-0.9-1.2-2.6-1.5-3.9-0.5c0,0,0,0,0,0
	c-0.1,0-0.1,0.1-0.2,0.2C360,54.2,358.9,55.3,357.9,56.5z"/>
</svg>
