<?xml version="1.0" encoding="utf-8"?>
<!-- Generator: Adobe Illustrator 26.0.1, SVG Export Plug-In . SVG Version: 6.00 Build 0)  -->
<svg version="1.1" id="Layer_1" xmlns="http://www.w3.org/2000/svg" xmlns:xlink="http://www.w3.org/1999/xlink" x="0px" y="0px"
	 viewBox="0 0 315 700" style="enable-background:new 0 0 315 700;" xml:space="preserve">
<path d="M296.3,620.3c0.3-118.7-1.3-490-30.4-558.7C231.1-20.4,57.2,8.4,57.2,8.4l-51.9,23c0,0-34.6,436.7,73.3,580.9
	c-1.4,5.5-3.4,10.9-6,16c-7.3,13.7-9,45.7-9,45.7l9.3,26.2h62.2l28.5-5.7v-42.8l-22.1-37.2V113.3l86.9,503.8
	c-1.2,3.8-2.7,7.6-4.5,11.1c-7.3,13.7-8.9,45.7-8.9,45.7l9.4,26.2h62.2l28.5-5.7v-42.8L296.3,620.3z"/>
</svg>
