<?xml version="1.0" encoding="utf-8"?>
<!-- Generator: Adobe Illustrator 26.0.1, SVG Export Plug-In . SVG Version: 6.00 Build 0)  -->
<svg version="1.1" id="Layer_1" xmlns="http://www.w3.org/2000/svg" xmlns:xlink="http://www.w3.org/1999/xlink" x="0px" y="0px"
	 viewBox="0 0 525 795" style="enable-background:new 0 0 525 795;" xml:space="preserve">
<style type="text/css">
	.st0{fill:none;}
	.st1{fill:#ECCEA6;}
	.st2{fill:#FFFFFF;}
	.st3{fill:#C7AE69;}
	.st4{fill:#95834F;}
</style>
<path class="st0" d="M370.8,292c-1.4,2.4-2.1,4.6-1.9,6.4C369.7,296.3,370.3,294.2,370.8,292z"/>
<path class="st0" d="M384.7,288.2c2.3-7.4-4.9-3.4-13.8,3.5c-0.4,2.7-1,5.5-1.7,8.1c1.5,3.7,7.9,5.6,21.9,4.2
	C384.9,301.3,381.9,297.2,384.7,288.2z"/>
<path class="st1" d="M464.6,312.8c1.7,0.9,3.5,1.7,5.5,2.5C468.4,314.4,466.5,313.6,464.6,312.8z"/>
<path class="st1" d="M202.1,479.6l-3.9,1.1l7.3,16.5c0.2-1.1,0.3-1.7,0.3-1.7C204.6,490,203.4,484.6,202.1,479.6z"/>
<polygon class="st1" points="2.2,272 42.4,410.5 42.4,410.5 "/>
<path class="st1" d="M77.2,530.1h121.5l-12.5-35.7v-15.2h-22.3l-1.8-11.6l-47.2,18.9l1.6-1.9c0,0-4.4-44.3-8.6-85.9L48.7,432
	L77.2,530.1z"/>
<path d="M519.9,473.7c0,0,0.3-43-7.5-66.9c0,0,3.5-54.9-3.4-67.9c0,0-3.6-10-38.8-23.7l0,0c-2-0.8-3.8-1.6-5.5-2.5
	c-9.3-4.6-15.9-10-37.1-10.7c1.2,1.5,1.9,3.3,1.9,5.2c0,3.6-2.4,7.7-14.8,3.7c-9.4-3-17.8-4.4-23.5-7c-14.1,1.4-20.4-0.5-21.9-4.2
	c-0.4,1.4-0.8,2.7-1.3,3.9c-2.5,6.6-24,11.7-24,11.7c-0.6,0.5-1.4,1-2.2,1.2c1.1,4.2,2.7,8.4,4.8,12.3c1.2,2.4-20.5,5.2-20.3,2.5
	l-9.6-13.3c-14.7-0.7-29.6-2.7-29.6-2.7l-6.4-1.5c-2.7,1.7-4.9,3.1-6.5,4.1c-12.8,8.6-53.1-15.8-37.3-15c2.5,0.2,5-0.4,7.2-1.6
	l-7.6-10.3c-4.7-0.7-9.3-1.7-13.9-3c-7-2.2,1.5-8.4,1.7-11l-31.8,5.7c0,0-28.6-29.2-190.2-10.8l40.2,138.5l0,0l-4.1,3.9l2.5,3.3
	l-1.8,5.5h4v8.8h5.5l59.2-33.3l8.6-4l-4.2-2.5l0.5-5.5l-4.3,1l0.8-5.8l-2.5-1.4l-1.6-24.7c0,0-46.1-37.8-45.8-45.2l45.8,45.2
	c0,0,24.8,12.5,29.5,13.2c3.3,0.5,13.8,4.7,20,7.3c2.1,0.8,3.4,2.9,3.4,5.1c-0.2,5.1,3.8,18.2,28.8,50.7
	c6.1,15.5,11.1,31.4,15.2,47.6c1.3,5.1,2.6,10.4,3.8,15.9c0,0-0.1,0.6-0.3,1.7c-1.3,8.7-1.2,17.5,0.3,26.1l-13,157.6
	c-72.4-13.3,23.8,96,42.7,96l100.5-7.4c12.2,0.4,80.5,11.2,90.2,3.8c19.8-15.1,47-44.4,51.4-62.8l42.3-180.3
	C519.9,530.1,526.5,497.6,519.9,473.7z M457.3,420.5c-2.5,20.7-6.6,52.7-9.7,68.8c-1.1,7.9-1.9,13-1.9,13l-0.7,27.2
	c0,0-4.3-24.1,0-30.6c0.7-1.1,1.6-4.6,2.6-9.6C450.1,471.9,454.5,440.7,457.3,420.5c1.4-11.4,2.3-19.3,2.3-19.3
	C459.6,402.1,458.7,409.8,457.3,420.5L457.3,420.5z"/>
<path d="M251.1,282.3c0,0-2.1-7.2-16.5-3.5c-5.2,1.3-5.2,3.5-3.1,5.6c3.6,3.9,13.9,7.9,13.9,7.9s-3.9-0.4-8.8-1.2
	c2.5,3.3,5.6,7.1,8.1,9.9C252,295.8,251.1,282.3,251.1,282.3z"/>
<path d="M315.4,316.6l-12-16.4c-7.8,4.6-15.4,9.2-21.2,12.9c2.7,0.5,4.4,0.8,4.4,0.8C292.2,315.8,304.2,316.4,315.4,316.6z"/>
<path d="M368.9,298.5c-0.2-1.9,0.5-4.1,1.9-6.4c0-0.1,0-0.1,0-0.2c-4.5,3.5-9.3,7.7-13.7,11.6c-4,3.6-18.3-1.9-15.6,12.1
	c5.5-1.7,18-5.8,22.6-9.6C366.3,303.9,367.9,301.3,368.9,298.5z"/>
<path class="st2" d="M105.1,355.7l-45.8-45.2C59,317.9,105.1,355.7,105.1,355.7z"/>
<path class="st2" d="M370.8,291.9c0,0.1,0,0.1,0,0.2c-0.5,2.2-1.1,4.3-1.9,6.4c-0.9,2.8-2.6,5.4-4.7,7.4c-4.6,3.8-17.1,8-22.6,9.6
	c0.1,0.4,0.2,0.8,0.3,1.2c0.8-0.3,1.5-0.7,2.2-1.2c0,0,21.4-5.1,24-11.7c0.5-1.2,0.9-2.6,1.3-3.9c0.7-2.7,1.3-5.4,1.7-8.1
	L370.8,291.9z"/>
<path class="st2" d="M236.6,291.1h-0.2l7.6,10.3c0.2-0.1,0.4-0.3,0.6-0.4C242.2,298.3,239.1,294.4,236.6,291.1z"/>
<path class="st2" d="M286.6,313.8c0,0-1.7-0.3-4.4-0.8l-1.6,1l6.4,1.5c0,0,14.9,2,29.6,2.7l-1.2-1.7
	C304.2,316.4,292.2,315.8,286.6,313.8z"/>
<path class="st2" d="M457.3,420.5c1.4-10.7,2.4-18.4,2.3-19.4C459.5,401.1,458.6,409.1,457.3,420.5z"/>
<path class="st2" d="M444.9,529.5l0.7-27.2c0,0,0.8-5.1,1.9-13c-1,5-1.9,8.5-2.6,9.6C440.6,505.4,444.9,529.5,444.9,529.5z"/>
<path class="st2" d="M457.3,420.5c-2.7,20.3-7.2,51.4-9.7,68.8C450.7,473.2,454.8,441.1,457.3,420.5z"/>
<path class="st3" d="M370.5,210.2l-29.7,67.9c0,0-19.2,11.2-37.3,22l12,16.4l1.2,1.7l9.6,13.3c-0.2,2.7,21.5-0.1,20.3-2.5
	c-2-3.9-3.6-8-4.8-12.2c-0.1-0.4-0.2-0.8-0.3-1.2c-2.7-14,11.5-8.5,15.6-12.1c4.4-3.9,9.2-8.1,13.7-11.6l0.1-0.1
	c8.9-6.9,16-10.9,13.8-3.5c-2.8,9,0.2,13.1,6.5,15.8c5.7,2.5,14.2,3.9,23.5,7c12.4,4,14.7-0.1,14.8-3.7c0-1.9-0.7-3.7-1.9-5.2
	c-0.1-0.2-0.2-0.3-0.4-0.5c-4.7-5.2-18.2-21-5.3-16c15.4,5.9,26.1-8.8,9.6-7.4c-13.8,1.2-5.8-13.8-2.8-18.8c0.6-1,1.4-1.8,2.3-2.5
	c2.9-2.1,10.1-7.5,16.3-13.1s2.8-15.7,1-20.1c-0.5-1.3-1.4-2.4-2.5-3.3l-4.3-3.6c-2.3-1.9-3.5-4.9-3.1-7.9
	c1.5-11.2,3.9-22.3,7.2-33.1c2.7-8.9,1.8-13-0.1-14.6c-2.6-2.4-3.5-6.1-2.2-9.4c3-7.9,4.7-19.7-4.7-30.3
	c-13.7-15.6-13.9,0.2-13.7,4.6c-0.3-4.3-2.1-20.4-11.4-24.7c-5.8-2.7-10.3-5-13.2-6.5c-2.5-1.3-4.2-3.7-4.6-6.4l-3-18.6
	c-0.4-2.4-1.7-4.5-3.7-5.8c-8.5-5.6-17.9-9.7-27.7-12.1c-0.2,13.7-7.9,36.3-7.9,36.3L370.5,210.2z"/>
<path class="st4" d="M222.5,288.1c4.6,1.3,9.2,2.3,13.9,3h0.2c5,0.8,8.8,1.2,8.8,1.2s-10.2-4-13.9-7.9c-2.1-2.2-2-4.3,3.1-5.6
	c14.3-3.7,16.5,3.5,16.5,3.5s0.9,13.4-6.5,18.7c-0.2,0.1-0.4,0.3-0.6,0.4c-2.2,1.3-4.7,1.8-7.2,1.6c-15.8-0.7,24.5,23.6,37.3,15
	c1.6-1.1,3.8-2.5,6.5-4.1l1.6-1c5.9-3.6,13.5-8.2,21.2-12.9c18.2-10.9,37.3-22,37.3-22l29.7-67.9l-17-121.9c0,0,7.6-22.6,7.9-36.3
	c0.1-5.5-1-9.6-4.3-10.2c-11.5-2.2-38,7.9-38,7.9s-5.7-9.9-16.5-8.2s-27.2,16-27.2,16l-22.2,7.3c0,0-12.4,5.6-9.8,17s-5,17.8-5,17.8
	s-26,15.2-26,31.6v36.5c0,0-14.6-5.7-7.2,8.6s-2.1,33.7-2.1,33.7s-23.2,13.4-14.4,23.6c5.2,6.1,11.9,10.7,19.3,13.6l-3.6,7.6
	c0,0,5.5,4,9.4,0.6c-2.6,7-5.8,16.2-5.8,16.2s2.9,5,12.9,4.3c2.4-0.2,3.2,0.3,3.1,1.1C224,279.6,215.5,285.9,222.5,288.1z"/>
</svg>
