<?xml version="1.0" encoding="utf-8"?>
<!-- Generator: Adobe Illustrator 25.4.1, SVG Export Plug-In . SVG Version: 6.00 Build 0)  -->
<svg version="1.1" id="Layer_1" xmlns="http://www.w3.org/2000/svg" xmlns:xlink="http://www.w3.org/1999/xlink" x="0px" y="0px"
	 viewBox="0 0 410 630" style="enable-background:new 0 0 410 630;" xml:space="preserve">
<style type="text/css">
	.st0{fill:none;}
	.st1{fill:#0071BC;}
	.st2{fill:#2E3192;}
	.st3{fill:#AD926C;}
	.st4{fill:#FFCC99;}
	.st5{fill:#C1272D;}
	.st6{fill:#FF0000;}
	.st7{fill:#EC008C;}
	.st8{fill:#FFFFFF;}
	.st9{fill:#29ABE2;}
	.st10{fill:#280406;}
	.st11{fill:#B10069;}
</style>
<path class="st0" d="M347.8,148.5c-0.4,2.8-1.2,5.5-2.4,8c-3,6.6-7.9,12.3-14,16.2c-15,9.8-11.7,0.4-11.7,0.4
	c3-5.8,5.3-11.9,6.7-18.2c1.6-7.6,1.8-16.4-2.7-23.3c0,0,0,0.2,0,0.6c4.2,6.8,4,15.4,2.5,22.9c-1.3,2.1-2.5,4-3.3,5.5l-15.2,27
	c-0.1,0.2-0.2,0.5-0.2,0.7c-17.4,7.6-31.1,22.5-37.2,22.1c-2-0.1-3.8-0.2-5.6-0.3c1.8,0.1,3.7,0.2,5.7,0.3
	c6.1,0.4,19.8-14.6,37.2-22.1c0.8-0.3,1.5-0.6,2.2-0.9c0.8-0.3,1.6-0.4,2.4-0.2c3.7,0.9,9,4.4,11.5,4.2c0.6,0,5.9,1.6,1.6,0.9
	c-0.1,0-0.2,0-0.4,0l10.3,4.1c0.6-1.9,1.6-3.6,2.9-5.2c13.1-16.9,8.7-28,8-29.5c-0.1-0.1-0.1-0.3-0.1-0.4l-0.6-4.9
	c1.2-2.5,2-5.2,2.4-8c5.4,0.6,13.9-14.6,14.7-16.1c0-0.1,0-0.2,0-0.2S353.5,149.1,347.8,148.5z"/>
<path class="st0" d="M257.1,81.8L257.1,81.8c-0.3,0-0.6,0.1-1,0.1C256.5,81.9,256.8,81.9,257.1,81.8z"/>
<path class="st0" d="M278,59.8l-4.5-24.5l-0.3,0.2l4.5,24.5c-12.6,31.3,28.8,103.8,36.7,101.8c0.6-0.2,1.1-0.4,1.6-0.8
	c-0.4,0.3-0.9,0.5-1.3,0.6C306.9,163.6,265.4,91.2,278,59.8z"/>
<path class="st0" d="M257.4,81.8L257.4,81.8z"/>
<path class="st0" d="M270.5,86.3L270.5,86.3c0-0.1,0-0.1-0.1-0.2l0-0.1C270.4,86.1,270.5,86.2,270.5,86.3z"/>
<path class="st0" d="M269.9,281c-3.7,3.4-8.3,7.7-14.2,13.6c-1.1,1.1-0.4,1.4-0.4,1.4l7.2,28.4l1,4c0.1,0.3,0.1,0.6,0.1,0.9
	c0-0.4,0-0.9-0.1-1.3l-1-4c2.9-7,5.3-12.5,6.2-14.7l5-29.7c0-0.8,0-1.6,0.1-2.6v0.3C272.7,278.3,271.3,279.6,269.9,281z"/>
<path class="st0" d="M271.9,95c0.1-2,0-4-0.2-6C271.9,91,272,93,271.9,95z"/>
<path class="st0" d="M327.2,73.5l0.6,0.2c0,0.1-21.3-14.4-35.2-3.5c-0.9,1.2-1.6,2.5-2.2,3.8c0.6-1.3,1.3-2.6,2.2-3.8
	C305.1,60.5,323.8,71.4,327.2,73.5z"/>
<path class="st0" d="M290,94.7l-6.6-1.7c0,0,0,0.1,0,0.1L290,94.7L290,94.7z"/>
<path class="st0" d="M270.6,129.6c0.7,0.8,1.4,1.6,2.2,2.3l0,0c0,0-0.1-0.1-0.1-0.1C272,131.1,271.3,130.4,270.6,129.6
	c-0.9-2.1-4-7.4-9.4-8.3C266.5,122.3,269.6,127.6,270.6,129.6z"/>
<path class="st0" d="M260,69h0.3c-0.8-0.3-1.6-0.3-2.4,0.1h0.2C258.7,68.9,259.4,68.8,260,69z"/>
<path class="st0" d="M274,75.7c0.3,0.6,0.4,1.3,0.2,2C274.6,76.9,274,75.6,274,75.7c-1.7-6-9.7-6.7-13.8-6.7l0.2,0.1
	C264.6,69.1,272.3,69.9,274,75.7z"/>
<path class="st0" d="M180.4,337.2l-0.2-0.2c0,0,0.7,2.6,5.9,6.3h0.1C181.9,340.2,180.6,337.9,180.4,337.2z"/>
<path class="st0" d="M293.2,84.6L293.2,84.6c0-0.1-0.8-0.4-1.7,2.1C292.4,84.4,293.1,84.6,293.2,84.6z"/>
<path class="st0" d="M291.8,95.3c25.9-7.1,28,1.5,28.2,2.9h0.1c0,0.1-0.1-10.7-28.2-3.1c0,0-0.7-6.4,1.1-10.1
	C291,88.8,291.8,95.3,291.8,95.3z"/>
<path class="st0" d="M254.3,99.1L254.3,99.1c-0.2,0.3-0.8,0.5-1.8,0.6c-0.1,0-0.1,0,0,0.1C253.5,99.7,254.1,99.5,254.3,99.1z"/>
<path class="st0" d="M218.2,215.6L218.2,215.6c7.7,2,8.5-0.8,16.1-3.2C226.7,214.8,225.9,217.6,218.2,215.6z"/>
<path class="st0" d="M278.6,251c0-0.1,0.1-0.2,0.1-0.3c0.3-1.4,0.7-2.8,1.2-4.2c-0.5,1.5-0.9,3-1.2,4.4L278.6,251z"/>
<path class="st0" d="M251.7,80.1c0.7,1.5,2.4,1.8,4,1.8C254.1,81.9,252.5,81.5,251.7,80.1c-0.2-0.5-0.4-0.7-0.5-0.5
	C251.4,79.6,251.6,79.7,251.7,80.1z"/>
<path class="st0" d="M269.6,99.3l-4.1,1.1c-0.9,0-1.8,0-2.7-0.1c-1.1-0.4-1.8-1.3-1.8-2.5c-0.2-1.7-0.1-3.3,0.1-5
	c0.3-4.1,3.9-7.2,8-6.9c-3.9-0.4-7.3,2.3-8,6.1c0,0.3-0.1,0.5-0.1,0.8c-0.2,1.7-0.2,3.3-0.1,5c0.1,1.1,0.8,2,1.8,2.5
	c-2.1-0.1-4.2-0.3-5.5-0.4l0,0c1.3,0.2,3.4,0.4,5.6,0.5c0.9,0,1.8,0.1,2.7,0.1L269.6,99.3c0.9-0.2,1.7-1,2-2l0,0
	C271.3,98.2,270.6,99,269.6,99.3z"/>
<path class="st0" d="M217.8,214.9c1.5-1.8,4.6-3,6.7-3.8c-2,0.7-5.4,2-7.1,3.9l0.1,0.1l0.6,0.5l0.3-0.2
	C218.2,215.2,218,215.1,217.8,214.9z"/>
<path class="st0" d="M278.1,250.6c0-0.1,0-0.1,0-0.2c0-0.1,0-0.2,0.1-0.3c-4.1-4.8-7.9-11.4-5.8-18.6c0.2-0.7,0.4-1.4,0.6-2.1
	c-0.3,0.8-0.5,1.6-0.7,2.5C270.2,239.1,274,245.8,278.1,250.6z"/>
<path class="st0" d="M277.7,253.6c0,0.5,0.1,0.4,0.3-0.2l0.4-1.5c0,0,0,0.1,0,0.1C277.9,253.5,277.7,253.9,277.7,253.6z"/>
<path class="st0" d="M259.4,81.4c-0.3,0.1-0.6,0.2-1,0.2C258.8,81.6,259.1,81.5,259.4,81.4L259.4,81.4z"/>
<path class="st0" d="M271.2,100.4c-0.8,1.4-2.7,1.7-4.9,1.8c-3.9,1.4-7.9,0.2-9.4-0.3c-1.4,0.2-2.4,0.5-2.7,1.3
	c-0.3,0.8-0.2,1.7,0.1,2.5c-0.2-0.7-0.2-1.5,0-2.2c0.3-0.8,1.4-1.2,2.7-1.3c3,1.1,6.3,1.2,9.4,0.3c2.3-0.1,4.1-0.4,4.9-1.8
	c2.4-3.9,0.8-12.3-0.1-16.1C272,88.4,273.5,96.6,271.2,100.4z"/>
<path class="st0" d="M273.5,132.4l0.1,0.1c1.4,0.8,4.4,2.6,4.4,3.1c0.3,1.9-5.2,5.6-9.4,7.5c-2.8,1.2-5.9,1.3-8.8,0.4
	c2.9,1,6.1,0.8,8.9-0.4c4.1-1.8,9.6-5.6,9.4-7.5C278,135.1,274.8,133.1,273.5,132.4z"/>
<path class="st0" d="M255,110.9c-1.1-1.9-2-3.9-2.6-5.9c0.6,2.2,1.5,4.2,2.7,6.2c0,0,2,3.8,5.6,4.3l-0.3-0.3
	C256.9,114.5,255,110.9,255,110.9z"/>
<path class="st0" d="M270.2,86.1c-0.1-0.1-0.3-0.1-0.4-0.1h-0.1h0.2C270,86.1,270.1,86.1,270.2,86.1z"/>
<path class="st0" d="M252.1,103.5c-4.8,7.8-7.1,16.9-6.6,26c-0.4-9,1.9-18,6.6-25.7C252.1,103.8,252.1,103.7,252.1,103.5
	L252.1,103.5z"/>
<path class="st0" d="M253.1,100.2L253.1,100.2c-0.5,0.4-0.9,1-0.9,1.7C252.2,101.2,252.6,100.6,253.1,100.2z"/>
<path class="st0" d="M251.2,93.7c0.5,0.3,1,0.3,1.6,0.2c0.2-0.1,0.4-0.2,0.6-0.3c-0.2,0.1-0.3,0.2-0.5,0.2
	C252.3,93.9,251.7,93.9,251.2,93.7c-0.4-0.3-0.5-0.3-0.6-0.2C250.7,93.4,250.9,93.5,251.2,93.7z"/>
<path class="st0" d="M207.7,268.8c0.9,2.5,19.4,19.4,36.2,6.2C227.1,288.1,208.7,271.3,207.7,268.8z"/>
<path class="st0" d="M243.9,274.9c-0.1,0-23.8,2.9-33.8-5C220,278,243.9,274.9,243.9,274.9z"/>
<path class="st0" d="M170.6,311.3c0-0.3,0-0.5,0-0.8c-0.9,4.9-1.6,13.1,2.7,14.7c0,0,0-0.1-0.1-0.3
	C169.5,323.2,169.8,316.2,170.6,311.3z"/>
<path class="st0" d="M238.3,189.1c-2.4,1.3-5.5,1.8-9,3.4C232.8,191,235.9,190.5,238.3,189.1z"/>
<path class="st0" d="M187,204.6L187,204.6c8.4-2.7,17-1.6,21.3-2.4c3.1-0.5,6-1.4,8.9-2.6c-2.8,1.2-5.7,2-8.6,2.5
	C204.1,203,195.4,201.8,187,204.6z"/>
<path class="st0" d="M290.6,223.3c-1.4,1.8-2.7,3.6-3.9,5.5c1.1-1.8,2.3-3.5,3.6-5.2L290.6,223.3z"/>
<path class="st0" d="M170.8,309.5c0.1-0.7,0.2-1.4,0.4-2.1c0.1-0.5,0.2-0.8,0.2-0.8c-0.6,1.2-0.9,2.5-0.8,3.9
	C170.7,310.2,170.7,309.8,170.8,309.5z"/>
<path class="st1" d="M252.1,103.5c-0.1-0.6-0.1-1.1,0-1.7c0.1-0.7,0.4-1.3,0.9-1.7c-0.4-0.2-0.7-0.4-0.5-0.4l0,0c0,0,0-0.1,0-0.1
	c1,0,1.6-0.3,1.8-0.6c0.1-0.1,0.1-0.2,0.1-0.3c0-0.6-0.3-1.1-0.6-1.5c-1.1-0.2-3.4-3.3-3.1-3.7c0-0.2,0.2-0.2,0.6,0.1
	c0.5,0.3,1,0.3,1.6,0.2c0.2,0,0.4-0.1,0.5-0.2l0,0l0,0c0.5-0.4,0.6-1.1,0.4-1.8c-0.1-0.4-0.3-0.7-0.6-0.9c-3.3-2.8-3-11.1-2-11.3
	c0.2-0.1,0.4,0,0.6,0.5c0.7,1.5,2.3,1.9,3.9,1.9h0.4c0.3,0,0.7-0.1,1-0.1c-0.1-1-0.2-1.9-0.5-2.8c-2.4-10,3-36.1,16.6-43.6v0.1
	l0.3-0.2v-0.1l-0.6-3.3l-1.1-5.4c-0.4-3.9-0.1-7.9,0.8-11.7l-11.4-1c0,0-13.3-3.8-20.8,20.4s-0.5,53.1-0.5,53.1s-11-1.7-11.5,14.1
	c-0.2,10.7,0.6,21.3,2.3,31.9l2.2,12.6c0,0-4.6,3.6-5,0.7s-6.3,7.6,1.5,8.1s19.8-6.8,19.8-6.8l0.4-0.5c-2.4-5.6-3.8-11.6-4.1-17.7
	C245,120.3,247.3,111.3,252.1,103.5z"/>
<path class="st2" d="M278.6,164.5c0.1-0.7,0.2-1.3,0.4-2c-2.6,0-4.9-0.2-7.1-0.4c-2,3.9-4.2,7.7-6.7,11.3c-2.7,4.1-5.2,5-6.8,4.9
	c-0.9-0.1-4-1.1-0.8,1.6c1.6,1.4,3.9,3.5,8,3.7l10-11.3C277.2,170,278.2,167.3,278.6,164.5z"/>
<path class="st3" d="M173.9,249.6c-0.5-1.1-1.1-2.2-1.7-3.5s-0.9-2.4-1.4-3.6c-1-3.2-1.7-6.6-1.9-9.9c-0.2-1.6-0.2-3.3-0.2-5.2
	c-0.1-2.8,3.2-15.1,13.3-20.7c1.4-0.8,2.9-1.4,4.4-1.9l0.4-0.1l0,0l-0.2,0.1c1.8-1.3,3.8-2.7,5.8-4c-6.8,2-17.4,7.4-34.7,14.9
	l25.8-64.2c5.6-14,9.4-14.5-15-35.6l-29.2-12.4c0,0-5,3.8,8.2,14.6l-22.1-6.6c-1.7-0.3-33.8-3.5-35.3-0.9c-1,1.6,1.7,3.3-1.4,6.7
	c-1.6,1.6,12.3,22.4,62.2,38.6c0,0-49.8,62.6-57.1,89.6c-1.6,1.9-1.9,4.6-0.9,6.8l0.3,1.4c0.3,1.7,1.5,3.1,3,3.8
	c1.1,0.5,2.2,0.8,3.3,1.1c13.1,6.6,41.8,6.1,71.6-6.7c1-0.4,2-0.9,3-1.3l-0.1-0.2C174.1,250.1,174,249.9,173.9,249.6z"/>
<path class="st4" d="M124.6,328.9c-1.4-0.5-2.4-1.7-2.7-3.1c-3-14.3,1.5-33.8-10.2-42.4c-2.6-1.8-4.9-4-7-6.3
	c-0.1-0.2-0.2-0.3-0.2-0.4c-17-10-35.9-18.6-54.8-22.5c-13.8-2.8-18.9,13.7-19.3,16.7c-1.3,9.3-4.7,20.9,1.6,23.5
	c20.8,8.4,81.3,31.5,125.6,50.4c4.2,1.8,7.9,3.3,11.2,4.6l4-1.5L124.6,328.9z"/>
<path class="st4" d="M335.1,196.9c0-0.1,0.1-0.2,0.1-0.4l-10.3-4.1c-0.3,0-0.6,0.1-0.9,0.1c-5.7,1.2-21.9,11.9-43.3,26.5
	c-3.8,2.4-6.5,6.1-7.7,10.4c-0.2,0.7-0.4,1.4-0.6,2.1c-2.1,7.2,1.7,13.9,5.8,18.6c1.7-7.5,4.6-14.7,8.5-21.3
	c1.2-1.9,2.4-3.8,3.9-5.5l-0.2,0.4l0.1-0.2c0,0-7.2,12.5-10.7,23c-0.5,1.5-0.9,2.9-1.2,4.2c0,0.1,0,0.2-0.1,0.3
	c-0.1,0.3-0.1,0.7-0.2,1l-0.4,1.5c0.1-0.3,0.2-0.6,0.3-1.2c-1.9,8-3.9,17.8-4.4,24.7c0,0.9-0.1,1.8-0.1,2.6l-5,29.7
	c-0.9,2.2-3.3,7.7-6.2,14.7l1,4c0.1,0.4,0.1,0.8,0.1,1.3c0,0.3,0,0.7-0.1,1c4.7,3.7,8.8,8.2,12.1,13.2c5.4,7.5,10.2,17.5,9.1,28.4
	c0,0,2.9,11.1,7.2,19.3l11.5-80.3c3.2-8,45.4-79.9,42.9-105.7C339.9,204.7,333.7,202.6,335.1,196.9z"/>
<path class="st4" d="M158.1,308.1c-3.1,0.9-5.6,1.6-6.4,1C152.4,310,155.1,309.2,158.1,308.1z"/>
<path class="st4" d="M187,204.6c8.5-2.8,17.1-1.6,21.5-2.5c3-0.5,5.8-1.3,8.6-2.5l0,0l0.3-0.1c3-1.4,4.9-3.2,9.8-6
	c0.7-0.4,1.4-0.7,2.1-1c3.5-1.6,6.6-2.1,9-3.4c0.9-0.5,1.7-1.2,2.4-2c0.5-0.6,1.1-1.2,1.5-1.7l0.1-0.1c-14.1-1-30.4-1.5-32.2,3.9
	c-0.4,1.5-9,6.1-17.2,11.3l-0.2,0.2c-2,1.3-4,2.6-5.8,4L187,204.6z"/>
<path class="st4" d="M260.2,69H260C260.1,69,260.2,69,260.2,69l0.3,0.1L260.2,69z"/>
<path class="st4" d="M255.3,186.8c-3.5,0.7-16.9,6.8-26.8,13.4s-11.6,5.1-13,7.6c-1.7,3,0.4,5.9,1.9,7.2c1.8-1.9,5.1-3.2,7.1-3.9
	c1.3-0.4,2.2-0.7,2.2-0.7c-3,0.9-6.2,3.4-8.2,5l-0.1-0.1l-0.3,0.2l0,0h0.1c7.7,2,8.5-0.8,16-3.1c5.3-1.6,13.8-3,30.3-2.3
	c1.8,0.1,3.6,0.2,5.6,0.3c6,0.4,19.8-14.5,37.2-22.1c0-0.2,0.1-0.5,0.2-0.7l15.2-27c0.8-1.5,2-3.4,3.3-5.5
	c1.5-7.5,1.7-16.1-2.5-22.9c-0.2,3.8-1.5,24.7-7.5,28.8c-0.5,0.4-1,0.7-1.6,0.8c-7.9,2-49.3-70.5-36.7-101.8l-4.5-24.5v-0.1
	C259.6,42.9,254.3,69,256.7,79c0.2,0.9,0.4,1.9,0.5,2.8l0,0h0.2h0.1c0.4,0,0.7-0.1,1.1-0.2s0.6-0.2,1-0.2h0l0.4-0.1
	c0-0.2,0.2-0.2,0.4-0.2h5.5c0.5,0,1,0.2,1.3,0.6l2.7,3.3c0.1,0.1,0.2,0.2,0.2,0.3c0.1,0.1,0.1,0.2,0.2,0.2l1,1.2
	c-0.3-2.4-0.5-4.3-0.5-4.3s0.2,0.8,0.5,2.1c0.9,3.7,2.5,12.2,0.1,16.1c-0.8,1.4-2.7,1.7-4.9,1.8c-3.1,1-6.4,0.9-9.4-0.3
	c-1.3,0.1-2.4,0.5-2.7,1.3c-0.2,0.7-0.2,1.5,0,2.2c1.2,4,6.3,9.4,6.3,9.4h-0.2l0.3,0.3c-3.6-0.5-5.6-4.3-5.6-4.3
	c-1.2-1.9-2.1-4-2.7-6.2c-0.1-0.4-0.2-0.8-0.2-1.2c-4.7,7.7-7,16.6-6.6,25.7c0.3,6.1,1.7,12.1,4.1,17.7l0,0
	c3.3,7.1,7.3,11.8,8.8,12.3c4.3,1.4,8.7,2.3,13.1,2.7h0.3c2.2,0.2,4.6,0.4,7.1,0.4c-0.2,0.7-0.3,1.3-0.4,2c-0.4,2.8-1.4,5.5-3,7.9
	l-10,11.3l-0.1,0.2l-1.9,2.1c-0.3,0.7-3.2,0.7-7.7,0.4C256,186.6,256,186.8,255.3,186.8z M260.2,69.1c-0.8,0-1.6,0-2.4,0.1
	c0.1,0,0.2-0.1,0.2-0.1h-0.2C258.6,68.7,259.5,68.6,260.2,69.1c4-0.1,12,0.6,13.8,6.5c0,0,0.6,1.3,0.2,2.1c-0.2,0.3-0.5,0.6-1.2,0.5
	C271.1,77.8,264.6,70.3,260.2,69.1z M268.7,143.1c-2.8,1.2-6,1.3-8.9,0.4c-0.5-0.2-0.9-0.4-1.4-0.6c-3.4-2-5.8-5.4-3.8-8.4
	c0.6-0.9,1.6-1.3,2.6-1.2l-0.5-0.2c-3.9-1.6-3.5-5.7-3.1-7.6c0.1-0.6,0.4-1.2,0.8-1.6c1-1,3.1-2.8,5.6-2.6c0.4,0,0.8,0.1,1.2,0.2
	c5.5,0.9,8.5,6.3,9.5,8.4c0.6,0.8,1.3,1.5,2,2.1c0,0.1,0.1,0.1,0.1,0.1l0.7,0.5c1.3,0.7,4.5,2.7,4.6,3.2
	C278.3,137.5,272.8,141.3,268.7,143.1z"/>
<path class="st4" d="M270.4,86L270.4,86c0-0.1-0.1-0.3-0.2-0.5l-0.1-0.1C270.2,85.6,270.3,85.8,270.4,86z"/>
<path class="st4" d="M173.9,249.6c0.1,0.2,0.2,0.5,0.3,0.7l0.1,0.2c1,2.2,1.7,4.5,2.1,6.8C176.6,254.7,175.4,252.5,173.9,249.6z"/>
<path class="st5" d="M400.3,55.5c-2.6-8.8-16-14.1-25.4-16.8c3.8,4.2,6.1,8.4,6.2,12.4c0.1,4.6,0.6,10.7,1,17.1
	c1.5,20.7,3.6,47.1-2.1,54.4c-7.5,9.7-8.7,14.7-12.7,19.8c-1,1.3-1.8,1.3-2.4,0.6c-1.8-1.9-2.2-9.4-2.3-10.6
	c-0.8,1.5-9.3,16.8-14.7,16.1c-0.4,2.8-1.2,5.5-2.4,8l0.6,4.9c0,0.1,0.1,0.3,0.1,0.4c0.7,1.4,5,12.6-8,29.5
	c-1.3,1.5-2.3,3.3-2.9,5.2c0,0.1-0.1,0.2-0.1,0.4c-1.4,5.8,4.8,7.9,11.1,8.4h0c2.8,0.2,5.6,0.1,8.4-0.2c0.7-0.1-3-2.3-3.2-3
	c-0.9-2.2,2.3-7,3.1-8.2c0.1-0.2,0.2-0.3,0.4-0.4c1.4-0.7,8.2-4.8,27.4-27.2c21.7-25.4,10.1-37.9,10.1-37.9S402.9,108,408.1,95
	S404.2,69.4,400.3,55.5z"/>
<path class="st6" d="M273.5,35.3l4.5,24.5c-12.6,31.3,28.8,103.8,36.7,101.8c0.5-0.1,0.9-0.3,1.3-0.6c6.1-4.2,7.4-25.1,7.5-28.8
	c0-0.4,0-0.6,0-0.6c4.5,6.9,4.3,15.7,2.7,23.3c-1.4,6.4-3.6,12.5-6.7,18.2c0,0-3.3,9.4,11.7-0.4c6.1-3.9,11-9.6,14-16.2
	c1.2-2.5,2-5.2,2.4-8c5.7,0.6,14.8-16.3,14.8-16.3s0,0.1,0,0.2c0.1,1.2,0.5,8.7,2.3,10.6c0.6,0.6,1.4,0.6,2.4-0.6
	c4-5.1,5.2-10.1,12.7-19.8c5.7-7.3,3.6-33.7,2.1-54.4c-0.5-6.5-0.9-12.5-1-17.1c-0.1-4-2.4-8.2-6.3-12.4
	C359.9,22.5,321.9,6.7,298,1.8c-17.1-3.5-23.2,5.1-25.3,13.1c-0.9,3.8-1.2,7.8-0.8,11.7l1,5.3l0.6,3.3L273.5,35.3z M290.3,74
	c0.6-1.4,1.3-2.7,2.2-3.8c14-10.8,35.2,3.6,35.2,3.5l-0.6-0.2l0.5,0.3c-22.6-8-37.1,4.9-37.7,2.7C289.9,75.7,290,74.8,290.3,74z
	 M302.5,79.1l-11.6,3.3C292.2,79.1,302.5,79.1,302.5,79.1L302.5,79.1z M283.4,93l6.6,1.7c0-0.9,0.1-1.7,0.3-2.6
	c0.2-1.9,0.7-3.7,1.3-5.4c0.9-2.5,1.8-2.1,1.8-2.1l0,0.1l0,0c-0.1,0.2-0.2,0.3-0.3,0.5c-1.8,3.7-1.1,10.1-1.1,10.1
	c28.1-7.7,28.2,3.1,28.2,3.1h-0.1c0,0.1,0,0.1,0,0.2c-5.7-3.3-31,1.8-31,1.8c-4.9-1.3-5.6-7.2-5.6-7.2l0,0
	C283.4,93.1,283.4,93,283.4,93z"/>
<path d="M255.8,81.9c-1.7,0-3.3-0.3-4-1.8c-0.2-0.4-0.4-0.5-0.5-0.5c-1,0.2-1.3,8.5,2,11.3c0.3,0.2,0.5,0.5,0.6,0.9
	c0.2,0.6,0,1.3-0.4,1.8l0,0l0,0c-0.2,0.1-0.3,0.3-0.6,0.3c-0.5,0.2-1.1,0.1-1.6-0.2c-0.3-0.2-0.5-0.2-0.6-0.2
	c-0.3,0.4,2,3.5,3.1,3.7c0.4,0.4,0.6,1,0.6,1.5c0,0.1-0.1,0.2-0.1,0.3v0.1c-0.2,0.4-0.8,0.6-1.8,0.6l0,0c-0.2,0,0.1,0.1,0.5,0.4l0,0
	c-0.5,0.4-0.9,1-1,1.7c-0.1,0.6-0.1,1.1,0,1.7l0,0c0,0.1,0,0.2,0.1,0.3c0.1,0.4,0.1,0.8,0.2,1.2c0.6,2.1,1.5,4.1,2.6,5.9
	c0,0,1.9,3.6,5.4,4.2h0.2c0,0-5.1-5.4-6.3-9.4c-0.3-0.8-0.3-1.7-0.1-2.5c0.3-0.8,1.3-1.2,2.7-1.3c1.5,0.5,5.5,1.7,9.4,0.3
	c2.3-0.1,4.1-0.4,4.9-1.8c2.4-3.8,0.8-12-0.1-15.8c-0.3-1.3-0.5-2.1-0.5-2.1s0.3,1.8,0.5,4.3l-1-1.2c0.1,0.2,0.2,0.4,0.3,0.6
	c0,0.1,0.1,0.1,0.1,0.2h0.1c0.4,0.2,0.7,0.6,0.9,1c0,0.5,0.1,1,0.1,1.6c0.2,2,0.3,4,0.2,6c0,0.8-0.1,1.5-0.2,2.2v0.1l0,0
	c-0.3,1-1.1,1.7-2.1,2l-4.1,1.1c-0.9,0-1.8-0.1-2.7-0.1c-2.2-0.1-4.4-0.3-5.6-0.5l0,0h-0.1l-0.1-0.3c-0.8-1-0.3-8.7-0.1-11.6
	c0-0.7,0.4-1.4,0.9-1.8l2.6-2.3c0.6-0.5,1.3-0.7,2-0.7c2.3,0.2,4.5,0.7,6.6,1.5c0.3,0.2,0.6,0.4,0.8,0.6l-2.8-3.4
	c-0.3-0.4-0.8-0.6-1.3-0.6h-5.5c-0.2,0-0.4,0-0.4,0.2l-0.4,0.1c-0.3,0.1-0.7,0.2-1,0.3s-0.7,0.2-1.1,0.2h-0.1h-0.2
	c-0.3,0-0.6,0.1-1,0.1L255.8,81.9z"/>
<path d="M270.1,85.5c-0.1-0.1-0.1-0.2-0.2-0.2L270.1,85.5L270.1,85.5z"/>
<path d="M302.5,79.1c0,0-10.2,0-11.6,3.3L302.5,79.1z"/>
<path d="M289,100.3c0,0,25.4-5.2,31-1.8c0-0.1,0-0.1,0-0.2c-0.2-1.4-2.3-10-28.2-2.9c0,0-0.8-6.6,1.1-10.2c0.1-0.2,0.2-0.3,0.3-0.5
	l0,0c-0.1,0-0.9-0.2-1.7,2.1c-0.6,1.8-1,3.6-1.3,5.4c-0.1,0.9-0.2,1.7-0.3,2.6v0.1l-6.5-1.7l0,0C283.4,93.1,284.1,99,289,100.3z"/>
<path d="M327.7,73.8l-0.5-0.3c-3.4-2.1-22-13-34.7-3.3c-0.9,1.2-1.6,2.4-2.2,3.8c-0.4,0.8-0.5,1.7-0.3,2.5
	C290.6,78.7,305.1,65.9,327.7,73.8z"/>
<path d="M274.2,77.6c0.2-0.7,0.1-1.4-0.2-2c-1.7-5.8-9.4-6.6-13.5-6.6h-0.3c4.4,1.2,10.9,8.8,12.8,9.1
	C273.7,78.2,274.1,78,274.2,77.6z"/>
<path d="M258,69.1c-0.1,0-0.2,0.1-0.2,0.1c0.8-0.1,1.6-0.1,2.4-0.1c-0.1,0-0.1,0-0.2,0C259.4,68.8,258.7,68.8,258,69.1z"/>
<path class="st7" d="M268.6,143.1c4.1-1.8,9.7-5.6,9.4-7.5c0-0.5-3-2.3-4.4-3.1l-0.1-0.1l-0.7-0.5l0,0c-0.8-0.7-1.6-1.5-2.2-2.3
	c-1-2-4-7.3-9.4-8.3c-0.4-0.1-0.8-0.1-1.2-0.2c-2.5-0.2-4.6,1.6-5.6,2.6c-0.4,0.5-0.7,1-0.8,1.6c-0.4,1.9-0.7,6.1,3.1,7.6l0.5,0.2
	c-1-0.1-2,0.3-2.6,1.2c-2,3.1,0.4,6.4,3.8,8.4c0.4,0.2,0.9,0.5,1.4,0.6C262.7,144.4,265.8,144.3,268.6,143.1z"/>
<path class="st8" d="M262.3,83.2c-0.7-0.1-1.4,0.2-2,0.7l-2.6,2.3c-0.5,0.4-0.9,1.1-0.9,1.8c-0.2,2.9-0.6,10.5,0.1,11.6l0.1,0.3h0.1
	c1.4,0.2,3.4,0.4,5.5,0.4c-1-0.5-1.7-1.4-1.8-2.5c-0.1-1.7-0.1-3.3,0.1-5c0-0.3,0.1-0.5,0.1-0.8c0.7-3.8,4.1-6.5,8-6.1l0,0
	c0.2,0,0.4,0,0.6,0.1h0.1c0.1,0,0.3,0,0.4,0.1c0.1,0,0.2,0.1,0.3,0.2c0-0.1-0.1-0.2-0.1-0.3c-0.1-0.2-0.2-0.4-0.3-0.6l-0.1-0.2
	c-0.1-0.1-0.1-0.2-0.2-0.3c-0.2-0.2-0.5-0.5-0.8-0.6C266.8,83.7,264.5,83.2,262.3,83.2z"/>
<path class="st9" d="M270.2,86.1c-0.1,0-0.2-0.1-0.3-0.1h-0.2c-0.2,0-0.4-0.1-0.6-0.1l0,0c-4.1-0.3-7.7,2.8-8,6.9
	c-0.2,1.7-0.3,3.3-0.1,5c0.1,1.1,0.8,2.1,1.9,2.5c0.9,0.1,1.8,0.1,2.7,0.1l4.1-1.1c1-0.3,1.7-1,2-2v-0.1c0.1-0.7,0.2-1.5,0.2-2.2
	c0-2-0.1-4-0.2-6c0-0.5-0.1-1.1-0.1-1.6c-0.2-0.4-0.5-0.8-0.9-1h-0.1l0,0C270.5,86.3,270.4,86.2,270.2,86.1z"/>
<path d="M218.4,215.3l0.1,0.1c2-1.6,5.2-4.1,8.2-5c0,0-0.9,0.2-2.2,0.7c-2.1,0.7-5.1,2-6.7,3.8C218,215,218.1,215.2,218.4,215.3z"/>
<path class="st7" d="M170.6,310.6c0,0.2,0,0.5,0,0.8c0-0.3,0.1-0.6,0.2-0.9c0-0.3,0-0.6,0-0.9C170.7,309.8,170.7,310.2,170.6,310.6z
	"/>
<path class="st7" d="M111.8,283.4c11.7,8.6,7.2,28.1,10.2,42.4c0.3,1.4,1.3,2.6,2.7,3.1l48.3,19c3.8-1.4,7.6-2.7,11.4-4l0,0l1.8-0.6
	c-5.2-3.7-5.9-6.3-5.9-6.3l0.2,0.2c0-0.1-0.1-0.2-0.1-0.2c0,0,2.9,3,9.2,5.2c28.4-9.2,55.1-14.4,74.1-11.9c0.1-0.3,0.1-0.7,0.1-1
	c0-0.3-0.1-0.6-0.1-0.9l-1-4l-7.2-28.4c0,0-0.7-0.3,0.4-1.4c5.9-5.8,10.5-10.2,14.2-13.6c1.5-1.4,2.9-2.6,4-3.7v-0.3
	c0.5-6.9,2.5-16.6,4.4-24.7c-0.1,0.5-0.2,0.9-0.3,1.2c-0.2,0.6-0.3,0.6-0.3,0.2c0-1,0.2-2.1,0.4-3.1c-4.1-4.8-7.9-11.5-5.8-18.7
	c0.2-0.8,0.5-1.6,0.7-2.5c1.2-4.3,3.9-8.1,7.7-10.5c21.4-14.6,37.6-25.3,43.3-26.5c0.3-0.1,0.6-0.1,0.9-0.1c0.1,0,0.2,0,0.4,0
	c4.3,0.6-1-1-1.6-0.9c-2.5,0.2-7.8-3.3-11.5-4.2c-0.8-0.2-1.7-0.1-2.4,0.2c-0.7,0.2-1.5,0.6-2.2,0.9c-17.4,7.6-31.2,22.5-37.2,22.1
	c-2-0.1-3.9-0.2-5.7-0.3c-16.5-0.7-25.1,0.7-30.3,2.3c-7.5,2.3-8.3,5.2-16,3.2h-0.1h-0.1l0,0l-0.6-0.5l-0.1-0.1
	c-1.4-1.2-3.6-4.2-1.9-7.2c1.4-2.5,3.1-1,13-7.6s23.3-12.7,26.8-13.4c0.7-0.1,0.7-0.2,0.5-0.4l0,0c-0.7-0.5-4.2-1.1-4.6-1.2
	c-1.2-0.5-2.3-0.2-6.3,0.1c-0.8-0.1-1.7-0.1-2.5-0.1l-0.2,0.2l-0.1,0.1c-0.4,0.5-1,1.1-1.5,1.7c-0.7,0.8-1.5,1.5-2.4,2
	c-2.4,1.4-5.4,1.9-9,3.4c-0.7,0.3-1.4,0.6-2.1,1c-4.9,2.8-6.8,4.5-9.8,6l-0.3,0.1l0,0c-2.8,1.2-5.8,2.1-8.9,2.6
	c-4.3,0.8-12.9-0.3-21.3,2.4l-0.4,0.1c-1.5,0.5-3,1.2-4.4,1.9c-10.1,5.6-13.4,17.9-13.3,20.7c0,1.9,0.1,3.6,0.2,5.2
	c0.2,3.4,0.8,6.7,1.9,9.9c0.4,1.2,0.8,2.4,1.4,3.6s1.1,2.4,1.7,3.5c1.5,2.9,2.6,5.1,2.4,7.7c0,0.3-0.1,0.5-0.1,0.8
	c-1.2,7.6-2.4,6-1.6,11.9l0.1,0.5l0.1,0.1v0.1c0.2,0.7,0.4,1.4,0.7,2.1c0.7,1.9,1.6,4.3,1.7,4.4c-3.6,7.8-5,21.3-5.5,27
	c-0.2,1.6-0.2,2.6-0.2,2.6s-0.1,0.3-0.2,0.8c0.1-0.3,0.2-0.6,0.4-0.9c-0.4,1.3-0.6,2.6-0.8,3.9c-0.1,5.9,2.7,14.7,2.7,14.7l-0.3-0.1
	c0.1,0.2,0.1,0.3,0.1,0.3c-4.3-1.6-3.6-9.8-2.7-14.7c-0.1-1.4,0.2-2.7,0.8-3.9c-2.6-2-8.7,0.1-13.6,1.7c-3.1,1-5.7,1.8-6.4,1
	c-7.1-7.2-30.1-22.5-46.4-32.6c-0.3-0.2-0.4-0.2-0.4-0.1s0,0.2,0.2,0.4C106.8,279.5,109.2,281.6,111.8,283.4z M210,269.9
	c10,8,33.8,5,33.8,5c-16.8,13.3-35.2-3.7-36.2-6.2C207.4,268.2,208.1,268.4,210,269.9z"/>
<path d="M243.9,274.9c0,0-23.9,3-33.8-5c-1.9-1.5-2.6-1.7-2.4-1.1C208.7,271.3,227.1,288.1,243.9,274.9z"/>
<path d="M186.2,343.2l3.3-1.1c-6.3-2.2-9.2-5.2-9.2-5.2c0,0.1,0,0.2,0.1,0.2C180.6,337.9,181.9,340.2,186.2,343.2z"/>
<path d="M170.8,310.4c0.2-1.3,0.5-2.6,0.8-3.9c-0.1,0.3-0.3,0.6-0.4,0.9c-0.2,0.7-0.4,1.4-0.4,2.1
	C170.8,309.8,170.8,310.1,170.8,310.4z"/>
<path d="M173.3,325l0.3,0.1c0,0-2.9-8.8-2.7-14.7c-0.1,0.3-0.1,0.6-0.2,0.9C169.8,316.2,169.5,323.2,173.3,325z"/>
<path d="M278.1,250.6c-0.3,1-0.4,2-0.4,3.1c0,0.3,0.3-0.2,0.6-1.6c0,0,0-0.1,0-0.1c0.1-0.3,0.2-0.7,0.2-1v-0.1
	c0.3-1.4,0.7-2.9,1.2-4.4c3.5-10.5,10.7-23,10.7-23l-0.1,0.2c-1.3,1.6-2.5,3.4-3.6,5.2c-3.9,6.6-6.8,13.8-8.5,21.3
	c0,0.1-0.1,0.2-0.1,0.3C278.1,250.5,278.1,250.5,278.1,250.6z"/>
<path class="st10" d="M73.5,624.4c0,1.8,0,3,0,3l30,1c0,0,0.1-2,0.2-5.1c-0.1,0.7-0.1,1.4-0.2,2.1L73.5,624.4z"/>
<path class="st10" d="M0.4,612.1v-0.4c-0.1,0.3-0.1,0.6-0.1,0.9c0,0.2,0,0.5,0,0.7C0.4,612.9,0.4,612.5,0.4,612.1z"/>
<path class="st10" d="M52.5,570.4c1.5-3.2,2.7-6.5,3.4-10c-3.2,5.2-7.7,10-10.6,16.5c-0.9,2-2.1,3.8-3.5,5.5
	C46.5,578.9,50.4,575,52.5,570.4z"/>
<path class="st10" d="M190.3,342.9l-5.9,1l0,0c-3.8,1.3-7.6,2.6-11.4,4l-4,1.5c-67.3,25.4-136,67.3-129.5,77.1
	c7.5,11.3,16.2,85,20,120.6c0.2,1.4,0.2,2.7,0,4.1l38.2,13.2c-0.7,1.5-0.9,3.3-0.6,4.9c0.1-0.7,0.3-1.3,0.6-1.9
	c3-6.9,8.1-23.5,8.7-57.8c0.8-48.9-17.6-56.4-17.6-56.4s69.8,1.5,124.7-12.1C217,417.4,225.9,340.5,190.3,342.9z"/>
<path class="st10" d="M189.5,342.2l-3.3,1.1h-0.1l-1.8,0.6c1.9-0.5,3.9-0.9,5.9-1l73.3-12.6C244.6,327.7,217.9,333,189.5,342.2z"/>
<path class="st10" d="M42.5,625.4c0,0-11.3,0.3-20.5-0.2c-4.4-0.2-8.4-0.7-10.4-1.5c-0.6-0.2-1.3-0.4-1.9-0.6
	c-4-1.2-7.7-1.4-8.9-5.4c1,5.4,4,6.8,10.8,9c3.8,1.2,27.2,3.1,30.9,1.7c3.3-1.3,6.5-2.7,9.7-4.3C49.1,625.4,45.7,625.8,42.5,625.4z"
	/>
<path class="st10" d="M67.8,609.9L67.8,609.9c-2.7,4.3-6.1,8.1-10.1,11.1c8.4-5.3,12.9-10.7,15.8-15.5v-3
	C71.8,605.1,69.9,607.6,67.8,609.9z"/>
<path class="st10" d="M275.6,343.5c-3.3-5-7.4-9.5-12.1-13.2C268.1,334.2,272.2,338.6,275.6,343.5z"/>
<path class="st7" d="M275.6,343.5c-3.5-4.9-7.5-9.3-12.1-13.2l-73.3,12.6c35.7-2.4,26.7,74.5,23.2,98.1c-0.6,4.3-1.1,6.8-1.1,6.8
	c11.9-0.6,42.1-9.4,66.1-32.4s25-11,18.2-17.5c-1.9-2-3.5-4.3-4.7-6.8c-4.3-8.3-7.2-19.3-7.2-19.3C285.9,361,281,351,275.6,343.5z"
	/>
<path class="st7" d="M184.3,343.9L184.3,343.9l5.9-1C188.2,343,186.3,343.4,184.3,343.9z"/>
<polygon class="st7" points="184.3,343.9 184.3,343.9 184.3,343.9 "/>
<path class="st11" d="M97.6,564.3l-38.2-13.2l-2-0.7c-1.2,4.2-0.9,6.4-1.6,10c-0.7,3.5-1.9,6.8-3.4,10c-2.1,4.6-5.9,8.5-10.6,12
	c-15.9,11.7-41.6,18.4-41.5,27.2c0,0.8,0,1.4,0.1,2.1v0.4c0.4,0,53,7.3,59,3.3s8.3-5.6,8.3-5.6c2.2-2.3,4.1-4.7,5.7-7.4
	c0,0,33.6-1.4,29.8-19.7c-1.2-3.7-2.9-7.1-5-10.4C96.7,570,96.4,566.9,97.6,564.3L97.6,564.3z"/>
<path d="M67.8,609.9L67.8,609.9c0,0-2.3,1.6-8.3,5.6s-58.6-3.3-59-3.3l0,0c0,0.4-0.1,0.8-0.1,1.2c-0.1,1.5,0,3,0.4,4.4
	c1.2,4,4.9,4.3,8.9,5.4c0.6,0.2,1.2,0.4,1.9,0.6c2,0.8,6,1.2,10.4,1.5c9.2,0.5,20.5,0.2,20.5,0.2c3.3,0.4,6.6,0,9.7-1.3
	c1.9-0.8,3.8-1.9,5.5-3.1C61.7,617.9,65.1,614.2,67.8,609.9z"/>
<path d="M73.4,602.4v22l0,0l30,1c0.1-0.7,0.1-1.4,0.2-2.1c3.6-36.1-0.4-40.6-0.4-40.6l0,0C107.1,601,73.4,602.4,73.4,602.4z"/>
</svg>
