<svg id="Layer_1" data-name="Layer 1" xmlns="http://www.w3.org/2000/svg" xmlns:xlink="http://www.w3.org/1999/xlink" width="1920" height="1080" viewBox="0 0 1920 1080"><defs><style>.cls-1,.cls-22,.cls-23,.cls-26{isolation:isolate;}.cls-2{fill:#28042b;}.cls-3{fill:#421153;}.cls-4{fill:#760046;}.cls-5{fill:#63197d;}.cls-6{fill:#e6c18e;}.cls-7{fill:#645736;}.cls-8{fill:#1a1a1a;}.cls-9{fill:#ebcda6;}.cls-10,.cls-26{fill:#fff;}.cls-11{fill:#f0d9bb;}.cls-12{fill:#addbe7;}.cls-13{fill:#b19a7d;}.cls-14{fill:#e8a17b;}.cls-15{fill:#c6ad69;}.cls-16{fill:#94824f;}.cls-17{fill:#666;}.cls-18{fill:#e6e6e6;}.cls-19{fill:#ec008c;}.cls-20{fill:#a30059;}.cls-21{fill:#e22084;}.cls-22{fill:none;stroke:#2aa9e0;stroke-linecap:round;stroke-linejoin:round;stroke-width:0;}.cls-22,.cls-23,.cls-26{opacity:0.8;}.cls-23,.cls-24{fill:#2aa9e0;}.cls-25{fill:#54c1e7;}</style></defs><image class="cls-1" width="8866" height="3614" transform="translate(223.19 -225.21) scale(0.13)" xlink:href="titlescreen1.png"/><path class="cls-2" d="M1498.3,669.18c0,.07,0,.07,0,0H541L234.11,842l-4.43,27.19,7.17,34.36s47,23.94,60.49,27.06c.34.08.67.17,1,.27a7.92,7.92,0,0,1,2.34,1.2,7.56,7.56,0,0,1,.78.71,6.37,6.37,0,0,1,1.29,2,9.86,9.86,0,0,1,.63,4v.06a19.75,19.75,0,0,1-.35,3c-.09.43-.18.86-.29,1.29s-.19.74-.29,1.11a41.52,41.52,0,0,1-1.51,4.24c-.42,1-.85,1.94-1.26,2.79l-.4.82c-.4.79-.77,1.47-1.07,2l-.28.5c-.17.3-.31.54-.41.7l-.15.25H252.58c-1,0-2.08,0-3.11-.11s-2.05-.17-3.06-.3-2-.28-3-.46l-1.47-.28q-1.45-.3-2.85-.66a77.45,77.45,0,0,1-18.79-7.56L209.9,939l-14.49,7.29H170.34V929.61a54.52,54.52,0,0,1,3.43-18.37,68,68,0,0,1,3.54-8.06c.33-.64.64-1.23.95-1.78l.17-.31c.3-.53.58-1,.83-1.43l.41-.66c.66-1.07,1.08-1.66,1.08-1.66h0l4-27.51-80.64,45.43-.66,22.48h0l-.93,32h0a1.15,1.15,0,0,1,0,.26h0l-.18,6.2c.21,2.33-6.89,6.48-16.32,9.4-10,3.08-18.62,3.62-18.87,1.05h0l-1.65-6.28h0v0h0a1,1,0,0,1-.07-.29h0l-8.85-33.77h0a1.18,1.18,0,0,1-.09-.37l-.9-3.4L-.53,974.23v122.94H1035.35l493.59-428Z"/><path class="cls-2" d="M2004.63,6.53h-71.18V65.86l8.53.22V669.17h-96.37l-160.17,428h319.19Z"/><path class="cls-3" d="M354.79,155.35a4.3,4.3,0,0,1,1.24-2.41,4.44,4.44,0,0,1,1.72-1.28,14.77,14.77,0,0,1,3.38-.24H365l.14-2.21v-.48a23.23,23.23,0,0,0-1-5.79,32.12,32.12,0,0,1-1.24-8.82v-1.24a13.77,13.77,0,0,1,.27-3.27,14.06,14.06,0,0,0-.29,3.24v1.24a32.12,32.12,0,0,0,1.24,8.82,22.78,22.78,0,0,1,1,5.79v.49l-.14,2.2h-3.86a14.64,14.64,0,0,0-3.37.24,4.48,4.48,0,0,0-1.73,1.28,4.37,4.37,0,0,0-1.24,2.41,6.62,6.62,0,0,0,.48,1.86,3.06,3.06,0,0,0,.35.64,2.59,2.59,0,0,1-.33-.61A6.08,6.08,0,0,1,354.79,155.35Z"/><path class="cls-3" d="M463.12,123.09a4.45,4.45,0,0,0-3.5-1.39,7,7,0,0,0-3.45,1,7,7,0,0,1,3.44-1A4.46,4.46,0,0,1,463.12,123.09Z"/><path class="cls-3" d="M378.92,128.05a6.25,6.25,0,0,0-.48-1.79A6.25,6.25,0,0,1,378.92,128.05Z"/><path class="cls-3" d="M371.38,122.76a10.07,10.07,0,0,1,4.38,1,4.89,4.89,0,0,1,2.68,2.53,4.9,4.9,0,0,0-2.67-2.55,10.16,10.16,0,0,0-4.37-1,6.81,6.81,0,0,0-4.2,1.17,7.56,7.56,0,0,0-.87.72,9.68,9.68,0,0,1,.85-.71A7,7,0,0,1,371.38,122.76Z"/><path class="cls-3" d="M353.45,97.18a28.42,28.42,0,0,0-4.06,3.69A28.42,28.42,0,0,1,353.45,97.18Z"/><path class="cls-3" d="M470,125.09a14.88,14.88,0,0,1,3.34,2.89,20,20,0,0,1,3,4c.19.41.35.84.5,1.26-.15-.42-.31-.85-.49-1.26a20.34,20.34,0,0,0-3-4,15.11,15.11,0,0,0-3.34-2.89,7.1,7.1,0,0,0-3.42-.69c-.14,0-.27,0-.41,0,.14,0,.27,0,.41,0A7,7,0,0,1,470,125.09Z"/><path class="cls-3" d="M356.07,158.37l-.13-.15Z"/><path class="cls-3" d="M464.31,123.9c.13.06.26.14.4.2C464.57,124,464.44,124,464.31,123.9Z"/><path class="cls-3" d="M465.19,124.23c.14,0,.28.09.42.11C465.47,124.32,465.33,124.26,465.19,124.23Z"/><path class="cls-3" d="M364.81,92.07c.93-.19,1.87-.34,2.84-.44C366.68,91.73,365.74,91.88,364.81,92.07Z"/><path class="cls-3" d="M171,237.1l0-.44h0Z"/><path class="cls-3" d="M48.25,914.42h0a.85.85,0,0,1,0-.22c-.37-4,13.48-8.4,29.58-9.67,14.79-1.17,26.18.75,26.49,4.19a1.34,1.34,0,0,1,0,.2h0l-.18,6.35,80.64-45.43L187,854.66c-12.22-59.58,2.45-116.91,11.14-143.22L151,715.87s-16.79,2.29-28.24,13c-2.32,2.16-2.95,5.5-2.48,9.46C122.25,754,141,779,141,779l0,.13.06.08s-3.82,17.56-7.63,17.56-25.2-15.27-32.07-18.32-14.5-32.83-14.5-32.83v-.13l0-.09-.75-17.31-.6-.25a43.43,43.43,0,0,1-8.55-4.36c-4.58-3-10.69-32.07-10.69-32.07l0,0,0-.19c9.16-18.32,39.7-13,39.7-13l42.75-8.39a198.06,198.06,0,0,1,41.1-14.25c-5.29-20-10.63-43.12-14.37-59.92-25.4-21.36-48-41.59-51.14-48.53a55.88,55.88,0,0,1-4.12-15.83,121.75,121.75,0,0,1,0-27.9l6.92-40.86-11.45-15.93a.76.76,0,0,1-.82-.35L113,443.13a.77.77,0,0,0-1.15-.23l-2.46,1.85a.77.77,0,0,1-.7.12c0,.26,0,.42,0,.42s-.13-.25-.3-.63a.51.51,0,0,1-.14-.15l-.55-1a.78.78,0,0,0-.8-.39c-5,.77-11,2.6-17.93,2.17-7.14-.45-13.57-1.83-15.65-6.34S72,427.32,71.5,422.75c-.46-4.12-1-9-1.6-14.38,0,0,0-.05,0-.08-.3-1.36-8.8-40.82-8.8-52.18a106.18,106.18,0,0,1,1.15-17.45.54.54,0,0,0,0-.22,126.12,126.12,0,0,0-5-21.65c-4-12.73-.47-35.28-.28-36.44a.38.38,0,0,1,0-.1l.26-11.15a.79.79,0,0,1,.36-.64l8.68-5.56a.79.79,0,0,0,.36-.66V259.4a.79.79,0,0,1,.55-.75l9.08-2.94c5.79-4.74,10.66-8,10.66-8l20.35-11.31.61-.39c-2.37-.14-4.91-.27-7.57-.31-15.3-.26-9.43-6.42-9.43-6.42s19.2-8,7.14-7.75-18.13-9-6.21-5.43,3.76-10,3.76-10-6.26-5.22-11.26-10.25S87,184.58,87,184.58l7.88-2.35a78.83,78.83,0,0,0-1.08-20.61c-2.08-11.63,7-6.39,7-6.39s-9-13.67,4.77-20c12-5.5,10.63-5.82,10-3.61.75-2.12,6.37-13,13.72-13.52,5.31-.43,14.5-.84,11-6.59-.82-1.35,2.86-1.2,3.72.11l2.52,3.84s10.14.33,22-.54a4.59,4.59,0,0,1,1.7.18,11.31,11.31,0,0,1,8,1.16,16,16,0,0,1,9.25,12.44,57.35,57.35,0,0,1,4.24,6.83l5.77,5a8.49,8.49,0,0,1,1.65,7.58,10.33,10.33,0,0,0,.35,7.18s4.1,5.09,4.51,10.28a18.27,18.27,0,0,1,1.72,4.26A17.37,17.37,0,0,1,201.3,187c-.15.15-.28.31-.42.46l.06,0c1.23,1.14.49,6.73-.51,8.07l-1.43.95c-.28.77-.54,1.67-.81,2.68l.89-.52-1.91,9.51a6.25,6.25,0,0,0-1-.39c-.15.64-.31,1.3-.46,2l.64.34c.22.11-.52,1.32-1.36,2.55q-.33,1.26-.69,2.52c.67,1.23-.71,2.09,1,1l-5.42,11.48-.44.21c1.46,2.87,6.37,13.77-4.46,11.41-6.28-1.36-10-3-11.9-4.86a7.91,7.91,0,0,1-1.24,1.45,38.65,38.65,0,0,1,5.15,2.57c.7.64,1.74,12.9,1.85,14.19l25.58,11.89,24.12,46.22v.12h0l.79,21.09.08,6.32c.14.29.29.59.43.89,3.19,5.56,8.29,17.36,7.81,35.37l1.41,2.63,7.09-4.8-.66-11.67a1,1,0,0,1,.81-1.06l29.79-6.29a1,1,0,0,1,1.22,1.19L272.43,381l11.28,1.83-12.82,37.65s-5.68,0-11.69.28L294,486.38,313.74,510l2.41,14.46,17.42-2.23v-.59h4.65v7.82l-4.65.32-16.34,1.14,3.32,19.91-20,9.68-10.92-24.36-9.17,1.09-10.87-14.44,4-15.75L240.13,460l1,2.24c1.08,2.21,1.89,4.44,1.89,4.45h0l6.76,15.9,1.7,37.51c29.3,46.7,80.36,129.41,82,141.37v.09a.5.5,0,0,1,0,.12c2.29,16.8-28.24,39.7-28.24,39.7L256.3,706,234.11,842,541,669.18V195.25H359a30.8,30.8,0,0,1-30.76-30.77v-55A30.8,30.8,0,0,1,359,78.68h52.29L402.43-2.76H-.53v977l56.15-31.64ZM350,496.82c1.16-3.47-7.06-12.34-4.81-15s9.65-2.37,10.27,6-.11,13.34-6,15.09-8.95,10.35-11.27,11.1l-2.33.75C338.59,502.38,348.87,500.3,350,496.82ZM281.89,149.87c-11.1,13.55-33,16.71-44.1,21.77s-13.58,25.71-25.91,30.43c0,0-7.07-18.27,9.72-35.58s41.88-5.81,34.81-31,1.42-71.76,9.06-71.67S293,136.33,281.89,149.87Z"/><path class="cls-3" d="M418.54,123.55a9.41,9.41,0,0,0-8.45.69,9.23,9.23,0,0,0-2.06,1.61,9.09,9.09,0,0,1,2.05-1.59,9.39,9.39,0,0,1,8.44-.69,9.9,9.9,0,0,0,3.93.9,4.33,4.33,0,0,0,2.83-.87,4.32,4.32,0,0,1-2.81.85A9.86,9.86,0,0,1,418.54,123.55Z"/><path class="cls-3" d="M416.82,150.79a32.44,32.44,0,0,1-5.21-.27,14.8,14.8,0,0,1-3.69-1.38,24.28,24.28,0,0,1-9.65-8.69,8.52,8.52,0,0,1-1.24-2.37,13.89,13.89,0,0,1-.27-3.28c0-.18,0-.52,0-1s0-.92,0-1.24a32.55,32.55,0,0,1,.38-5.31,16.56,16.56,0,0,1,1.6-3.93,16,16,0,0,1,5.1-6,30.23,30.23,0,0,1,9-3.48,5.87,5.87,0,0,1,1.72-.2,20.14,20.14,0,0,1,8.07,1.86,9.2,9.2,0,0,1,3.73,2.57,9.21,9.21,0,0,0-3.73-2.59,20.31,20.31,0,0,0-8.07-1.86,6.63,6.63,0,0,0-1.72.2,30.42,30.42,0,0,0-9,3.49,15.75,15.75,0,0,0-5.11,6,16.25,16.25,0,0,0-1.61,3.93,32.47,32.47,0,0,0-.38,5.31c0,.32,0,.74,0,1.24s0,.85,0,1a13.77,13.77,0,0,0,.27,3.27,8.19,8.19,0,0,0,1.24,2.38,24.12,24.12,0,0,0,9.65,8.68,14.35,14.35,0,0,0,3.68,1.38,32.44,32.44,0,0,0,5.21.28,33.89,33.89,0,0,0,4.93-.21,3.94,3.94,0,0,0,2.1-1.17h0a4,4,0,0,1-2.1,1.17A35.15,35.15,0,0,1,416.82,150.79Z"/><path class="cls-3" d="M463.12,123.09a4.49,4.49,0,0,0,.74.58A4.49,4.49,0,0,1,463.12,123.09Z"/><path class="cls-3" d="M495.71,153.82q0-2.83.76-9.51,1-8.34,1.17-12.89a27.61,27.61,0,0,1,.41-4.89c.19-.69,1-1.61,2.48-2.76a16.91,16.91,0,0,1,4.14-2.48,10.77,10.77,0,0,1,3.38-.54,15.79,15.79,0,0,1,7.06,1.76,13.2,13.2,0,0,1,2.95,1.85,14,14,0,0,0-3-1.87,16,16,0,0,0-7.06-1.75,10.48,10.48,0,0,0-3.38.53,17.27,17.27,0,0,0-4.14,2.49c-1.47,1.15-2.3,2.07-2.48,2.75a27.84,27.84,0,0,0-.41,4.89q-.14,4.56-1.17,12.89-.76,6.69-.76,9.51,0,4,1.6,5.59a3.85,3.85,0,0,0,.56.51,4.1,4.1,0,0,1-.53-.49Q495.72,157.82,495.71,153.82Z"/><path class="cls-3" d="M506.26,137.49a8.5,8.5,0,0,0,2.31-1,29.56,29.56,0,0,0,3.13-1.93,5.27,5.27,0,0,0,1.2-1.23,5.23,5.23,0,0,1-1.2,1.21,29.56,29.56,0,0,1-3.13,1.93,8.42,8.42,0,0,1-2.31,1c-.23,0-.34-.32-.35-.95h0C505.91,137.17,506,137.49,506.26,137.49Z"/><polygon class="cls-3" points="413.42 78.68 540.95 78.68 540.95 -2.76 404.57 -2.76 413.42 78.68"/><path class="cls-3" d="M516,153.47c.66.53,1.3,1.09,1.92,1.66s1.26,1.13,1.83,1.57c-.57-.44-1.16-1-1.8-1.55S516.64,154,516,153.47Z"/><path class="cls-3" d="M517,143.5l.28.16c-.1-.06-.2-.13-.3-.18l-1.7-.81h0Z"/><path class="cls-3" d="M473.17,153c-1.56,1.22-4.33,2.33-8.33,3.34a24.54,24.54,0,0,1-5,.89c-1.46,0-3.46-.66-6-2a17,17,0,0,1-6.48-5.88,14.49,14.49,0,0,1-2.26-7.84,16.62,16.62,0,0,1,1.86-7.44c.32-.59.65-1.18,1-1.76-.35.59-.69,1.18-1,1.79a16.49,16.49,0,0,0-1.86,7.44,14.43,14.43,0,0,0,2.27,7.82,16.9,16.9,0,0,0,6.48,5.88,14.17,14.17,0,0,0,6,2,23.9,23.9,0,0,0,5-.9q6-1.51,8.33-3.34c1.56-1.22,2.87-3.29,3.94-6.23a15.91,15.91,0,0,0,.55-1.78,15,15,0,0,1-.55,1.76A13.6,13.6,0,0,1,473.17,153Z"/><path class="cls-3" d="M469,137a6.82,6.82,0,0,1,.44,2,11,11,0,0,1,.07,1.52c0,2.62-.48,4.52-1.45,5.72-.32.42-1.79,1-4.41,1.6l-4,1-1.93-1.11a7.45,7.45,0,0,1-4.07-5.79,6,6,0,0,1-.07-1h0a6.24,6.24,0,0,0,.07,1,7.48,7.48,0,0,0,4.07,5.79l1.93,1.1,4-1q3.93-1,4.41-1.6,1.46-1.78,1.44-5.7a11,11,0,0,0-.06-1.52A7,7,0,0,0,469,137Z"/><path class="cls-3" d="M367.65,91.63a28.12,28.12,0,0,1,2.92-.15h0A28.12,28.12,0,0,0,367.65,91.63Z"/><path class="cls-3" d="M342.09,117.29l0-.29Z"/><path class="cls-3" d="M347.31,103.45c.38-.52.77-1,1.18-1.54C348.08,102.41,347.69,102.93,347.31,103.45Z"/><path class="cls-3" d="M344.2,109a29.28,29.28,0,0,1,2.19-4.15A29.28,29.28,0,0,0,344.2,109Z"/><path class="cls-3" d="M353.45,97.18c.74-.55,1.5-1.07,2.29-1.55C355,96.11,354.19,96.63,353.45,97.18Z"/><path class="cls-3" d="M342.49,114.59c.13-.68.29-1.36.47-2C342.78,113.23,342.62,113.91,342.49,114.59Z"/><path class="cls-3" d="M359.44,93.74a27,27,0,0,1,4-1.35A27,27,0,0,0,359.44,93.74Z"/><path class="cls-3" d="M343.54,110.72c.2-.59.42-1.18.66-1.75C344,109.54,343.74,110.13,343.54,110.72Z"/><path class="cls-4" d="M549.29,150.79a19,19,0,0,1-2.28-5.37,27.77,27.77,0,0,1-.87-3.37,28.17,28.17,0,0,0,.85,3.37,19,19,0,0,0,2.28,5.37,8.27,8.27,0,0,0,7.16,3.93h0A8.25,8.25,0,0,1,549.29,150.79Z"/><path class="cls-4" d="M568.29,113.37a4.41,4.41,0,0,1-2.07,3.74,13,13,0,0,1-3.58.69c-2.58.36-4.41.64-5.52.82l-2.76.53.14,4.34.07,4.28h0l-.07-4.28-.13-4.34,2.75-.53c1.11-.18,2.94-.46,5.52-.82a12.71,12.71,0,0,0,3.58-.69,4.41,4.41,0,0,0,2.07-3.74,3.49,3.49,0,0,0-1.52-3,7.14,7.14,0,0,0-3.74-.68h0a7.07,7.07,0,0,1,3.73.68A3.49,3.49,0,0,1,568.29,113.37Z"/><path class="cls-4" d="M628.64,125.23c.51.06,1.56.06,3.12.06C630.19,125.29,629.19,125.27,628.64,125.23Z"/><path class="cls-4" d="M631.71,156.2a21,21,0,0,1-.62-4.24q-.29-3.71-.28-7.85c0-1.47,0-2.53.07-3.17l.21-6.34-2.07-.14q-5.1-.28-6.89-1.21a3.25,3.25,0,0,1-1.8-3.14,4.48,4.48,0,0,1,1.52-3.78q1.51-1.17,4.95-1.17h0q-3.45,0-5,1.17a4.48,4.48,0,0,0-1.51,3.78,3.22,3.22,0,0,0,1.79,3.14c1.19.62,3.49,1,6.89,1.21l2.07.14-.21,6.34c0,.64-.07,1.7-.07,3.17,0,2.74.1,5.36.28,7.85a21.69,21.69,0,0,0,.62,4.24,6.24,6.24,0,0,0,1.51,2.18,4.65,4.65,0,0,0,3.18,1.65h0a4.69,4.69,0,0,1-3.17-1.65A6.11,6.11,0,0,1,631.71,156.2Z"/><path class="cls-4" d="M631.91,125.29h0Z"/><path class="cls-4" d="M673.27,112.21c0,.49-.06,2.2-.07,5.1,0-2.89.07-4.6.07-5.1Z"/><path class="cls-4" d="M569.05,129.63a5,5,0,0,1-1.35,3,6.05,6.05,0,0,1-3,2.14,48.18,48.18,0,0,1-5.2,1,46.55,46.55,0,0,1-5.27.66c-.23,0-.35.44-.35,1.31a16.81,16.81,0,0,0,1.24,6.41,5.78,5.78,0,0,0,1,1.82,1.81,1.81,0,0,0,1.35.45h0a1.83,1.83,0,0,1-1.34-.45,5.78,5.78,0,0,1-1-1.82,16.81,16.81,0,0,1-1.24-6.41c0-.87.12-1.31.35-1.31a46.55,46.55,0,0,0,5.27-.66,48.83,48.83,0,0,0,5.21-1,6.07,6.07,0,0,0,3-2.14,5,5,0,0,0,1.35-3,3.1,3.1,0,0,0-1.35-2.55,4.79,4.79,0,0,0-3-1h0a4.83,4.83,0,0,1,3,1A3.13,3.13,0,0,1,569.05,129.63Z"/><path class="cls-4" d="M693.7,124c.08-.35.22-2.08.42-5.2C693.89,122,693.75,123.68,693.7,124Z"/><path class="cls-4" d="M641.43,125l-.58,0-.9,0,.91,0Z"/><path class="cls-4" d="M650.7,124.4h0Z"/><path class="cls-4" d="M651.6,124.48h0Z"/><path class="cls-4" d="M652.34,132.62a40.4,40.4,0,0,1-5.92.65A37.75,37.75,0,0,0,652.34,132.62Z"/><path class="cls-4" d="M570.71,141.62h0a1.34,1.34,0,0,1,.2,0Z"/><polygon class="cls-4" points="540.95 78.68 1140.03 78.68 1161.35 -63.01 540.95 -63.01 540.95 -2.76 540.95 78.68"/><path class="cls-4" d="M1214.43,91.63c1,.1,1.91.25,2.84.44C1216.34,91.88,1215.4,91.73,1214.43,91.63Z"/><polygon class="cls-4" points="1844.45 669.17 1845.61 669.18 1933.45 669.18 1933.45 669.17 1910.82 669.17 1844.45 669.17"/><path class="cls-4" d="M1498.3,669.18h0Z"/><path class="cls-4" d="M1142.19,78.68h80.15a30.79,30.79,0,0,1,30.76,30.77v55a30.79,30.79,0,0,1-30.76,30.77H541V669.18H1498.3c-.15-6.76-44.32-577.53,0-591.12,39.52-12.12,161.23-14.5,262.28-14.2,77.25-.24,148.86,1.39,172.89,2V-63H1163.52Z"/><path class="cls-4" d="M1218.66,92.39a25.38,25.38,0,0,1,2.69.84A25.38,25.38,0,0,0,1218.66,92.39Z"/><path class="cls-4" d="M558.69,127.63h0Z"/><path class="cls-4" d="M558.84,127.62a9.75,9.75,0,0,0,3.3-.75A10,10,0,0,1,558.84,127.62Z"/><path class="cls-4" d="M1226.34,95.63c.79.48,1.55,1,2.29,1.55C1227.89,96.63,1227.13,96.11,1226.34,95.63Z"/><path class="cls-4" d="M1232.69,100.87c-.62-.68-1.27-1.33-1.94-1.94C1231.42,99.54,1232.07,100.19,1232.69,100.87Z"/><path class="cls-4" d="M1204.47,121.27a17.08,17.08,0,0,0-4.14,2.49c-1.47,1.15-2.3,2.07-2.48,2.75a26.43,26.43,0,0,0-.42,4.89q-.14,4.56-1.17,12.89c-.5,4.46-.76,7.63-.76,9.51q0,4,1.61,5.59a3.7,3.7,0,0,0,1.9,1.14,3.68,3.68,0,0,1-1.88-1.14c-1.06-1.06-1.6-2.92-1.6-5.58q0-2.84.76-9.51,1-8.34,1.17-12.89a26.22,26.22,0,0,1,.42-4.89c.18-.69,1-1.61,2.48-2.76a16.67,16.67,0,0,1,4.13-2.48,10.77,10.77,0,0,1,3.38-.54,15.76,15.76,0,0,1,7.06,1.76,13.3,13.3,0,0,1,5.35,4.45,9.71,9.71,0,0,1,1.38,5.58,9.58,9.58,0,0,1-1,4.52,13.53,13.53,0,0,1-3.37,3.82l-2.21,1.79,1.73.83a36,36,0,0,1,6.26,5q4.22,3.88,4.48,5a3.84,3.84,0,0,1,.14.89,4.9,4.9,0,0,1-.29,1.65,4.94,4.94,0,0,0,.32-1.66,3.84,3.84,0,0,0-.14-.89c-.18-.73-1.68-2.4-4.48-5a35.61,35.61,0,0,0-6.27-5l-1.72-.83,2.2-1.79a13.56,13.56,0,0,0,3.38-3.82,11.58,11.58,0,0,0-.42-10.1,13.27,13.27,0,0,0-5.34-4.45,15.75,15.75,0,0,0-7.12-1.76A10.46,10.46,0,0,0,1204.47,121.27Z"/><path class="cls-4" d="M1009.52,127.7c2.34-.18,3.81-.51,4.41-1a4,4,0,0,1,2.35-.69,4.79,4.79,0,0,1,3,1,3.11,3.11,0,0,1,1.25,1.79,3.16,3.16,0,0,0-1.25-1.81,4.81,4.81,0,0,0-3-1,3.86,3.86,0,0,0-2.35.69c-.59.43-2.06.78-4.4,1l-3.38.07v0Z"/><path class="cls-4" d="M1007.69,146a1.8,1.8,0,0,0,1.34.45,18.14,18.14,0,0,0,5.49-1.17A12.59,12.59,0,0,0,1019,143a4.59,4.59,0,0,1,3.24-1.38,3.76,3.76,0,0,1,3,1.4,4.08,4.08,0,0,1,1,1.81,4.05,4.05,0,0,0-1-1.84,3.74,3.74,0,0,0-3-1.38A4.55,4.55,0,0,0,1019,143a12.85,12.85,0,0,1-4.52,2.27,17.72,17.72,0,0,1-5.48,1.17,1.82,1.82,0,0,1-1.34-.44,5.83,5.83,0,0,1-1-1.83,13.89,13.89,0,0,1-.54-1.53c.15.52.34,1,.54,1.55A5.78,5.78,0,0,0,1007.69,146Z"/><path class="cls-4" d="M1204.56,147.93a.78.78,0,0,1,.1-.15A.78.78,0,0,0,1204.56,147.93Z"/><path class="cls-4" d="M964.12,133.56h0l6-.28a32.9,32.9,0,0,0,6.72-.79h0a34.2,34.2,0,0,1-6.72.8Z"/><path class="cls-4" d="M698.9,108.68h0a1.38,1.38,0,0,0,.2,0A1.38,1.38,0,0,1,698.9,108.68Z"/><path class="cls-4" d="M997.33,139.37v-1.52q0-5.29.45-14.27a96,96,0,0,1,.72-9.85c.64-1.66,2.18-2.48,4.61-2.48a45.22,45.22,0,0,0,5.18-.76,31.38,31.38,0,0,1,6.33-.76,7.17,7.17,0,0,1,3.74.69,3.49,3.49,0,0,1,1.43,2.08,3.54,3.54,0,0,0-1.43-2.1,7.17,7.17,0,0,0-3.74-.68,30.76,30.76,0,0,0-6.34.75,43,43,0,0,1-5.17.76q-3.66,0-4.62,2.49-.27.89-.72,9.85t-.45,14.27v1.51a28.57,28.57,0,0,0,1.24,6.07c0,.12.07.22.1.34,0-.11-.06-.21-.09-.33A27.88,27.88,0,0,1,997.33,139.37Z"/><path class="cls-4" d="M952.94,125.25c.35,0,.86,0,1.54,0C953.81,125.28,953.3,125.27,952.94,125.25Z"/><path class="cls-4" d="M908,149.26a20.69,20.69,0,0,0-3.92-1.7,22.9,22.9,0,0,1,3.91,1.7,38.16,38.16,0,0,1,8.34,5.87,22,22,0,0,0,3.42,2.7,22,22,0,0,1-3.4-2.69A38.61,38.61,0,0,0,908,149.26Z"/><path class="cls-4" d="M1209.4,149.26a19.22,19.22,0,0,0-3.94-1.7,22.7,22.7,0,0,1,3.92,1.7,38.1,38.1,0,0,1,8.33,5.87c2.26,2.1,4.06,3.27,5.39,3.53-1.33-.26-3.12-1.44-5.36-3.52A38.31,38.31,0,0,0,1209.4,149.26Z"/><path class="cls-4" d="M1053.78,142.19l0,.07A.49.49,0,0,1,1053.78,142.19Z"/><path class="cls-4" d="M910.14,134.51a30.75,30.75,0,0,1-3.14,1.93,8.55,8.55,0,0,1-2.31,1c-.23,0-.34-.32-.34-.95h0c0,.64.11,1,.34,1a8.5,8.5,0,0,0,2.31-1,30.75,30.75,0,0,0,3.14-1.93h0a5.71,5.71,0,0,0,1.2-1.23A5.67,5.67,0,0,1,910.14,134.51Z"/><path class="cls-4" d="M957.29,158.38a6.11,6.11,0,0,1-1.51-2.18,21,21,0,0,1-.62-4.24q-.28-3.71-.28-7.85c0-1.47,0-2.53.07-3.17l.21-6.34-2.07-.14q-5.1-.28-6.89-1.21a3.25,3.25,0,0,1-1.8-3.14,4.48,4.48,0,0,1,1.52-3.78,4.6,4.6,0,0,1,1.4-.71,4.66,4.66,0,0,0-1.41.71,4.5,4.5,0,0,0-1.52,3.79,3.26,3.26,0,0,0,1.79,3.14q1.79.93,6.9,1.2l2.06.14-.2,6.34c-.05.65-.07,1.71-.07,3.17q0,4.13.27,7.86a22.48,22.48,0,0,0,.62,4.24,6,6,0,0,0,1.52,2.17,4.59,4.59,0,0,0,3.17,1.65,4.52,4.52,0,0,0,.82-.13,4.31,4.31,0,0,1-.8.13A4.65,4.65,0,0,1,957.29,158.38Z"/><path class="cls-4" d="M1074.45,152.16h0a12.9,12.9,0,0,0,3.17-4.81c.55-1.27,1-2.57,1.48-3.88-.44,1.32-.94,2.62-1.5,3.89A13,13,0,0,1,1074.45,152.16Z"/><path class="cls-4" d="M1112.57,139.2a.87.87,0,0,1-.9-.59,16.54,16.54,0,0,1-.41-2.72q-.4-5.17-.83-9.37-.48-6.13-.48-6.89a4.72,4.72,0,0,1,.17-1.45,1.08,1.08,0,0,1,.41-.61h0a1.07,1.07,0,0,0-.42.62,4.72,4.72,0,0,0-.17,1.45c0,.48.16,2.8.48,6.89.27,2.81.55,5.93.83,9.38a14.9,14.9,0,0,0,.41,2.72.85.85,0,0,0,.9.58,6,6,0,0,0,3.5-1.31A5.87,5.87,0,0,1,1112.57,139.2Z"/><path class="cls-4" d="M1110.39,147.91l-.45,0a18.78,18.78,0,0,1-4.07-.72,3.22,3.22,0,0,1-1.52-1.61q-.54-1.17-1.55-11.68t-1-15.4v-.62a9.2,9.2,0,0,1,1.45-5.17,9.39,9.39,0,0,1,4.69-2.83,28.26,28.26,0,0,1,8.33-1.1h0a28.33,28.33,0,0,0-8.34,1.1,9.4,9.4,0,0,0-4.68,2.83,9,9,0,0,0-1.45,5.17v.64q0,4.89,1,15.4t1.55,11.68a3.2,3.2,0,0,0,1.51,1.61,18.78,18.78,0,0,0,4.07.72,2.28,2.28,0,0,1,.45,0,4.71,4.71,0,0,0,.53,0,15.64,15.64,0,0,0,8.23-2.42,15.6,15.6,0,0,1-8.19,2.4Z"/><path class="cls-4" d="M1055.66,128.7a18.68,18.68,0,0,1,2.86,4q6.69,11.58,10.68,11.58a.23.23,0,0,0,.16-.07.22.22,0,0,1-.14.06q-4,0-10.68-11.58a19,19,0,0,0-2.86-4,4,4,0,0,0-2.73-.86,4.86,4.86,0,0,0-3.19,1.27,4.9,4.9,0,0,1,3.17-1.26A4.14,4.14,0,0,1,1055.66,128.7Z"/><path class="cls-4" d="M1160.94,127.7c2.34-.18,3.81-.51,4.41-1a4,4,0,0,1,2.34-.69,4.8,4.8,0,0,1,3,1,2.88,2.88,0,0,1,.55.49,3,3,0,0,0-.56-.51,4.83,4.83,0,0,0-3-1,3.85,3.85,0,0,0-2.34.69c-.59.43-2.06.78-4.41,1l-3.36.07v0Z"/><path class="cls-4" d="M1160.46,146.45a18.14,18.14,0,0,0,5.48-1.17,12.59,12.59,0,0,0,4.51-2.28,4.59,4.59,0,0,1,3.24-1.38,3.74,3.74,0,0,1,3,1.4,4.1,4.1,0,0,1,.8,1.15,4,4,0,0,0-.81-1.18,3.75,3.75,0,0,0-3-1.38,4.57,4.57,0,0,0-3.25,1.38,12.59,12.59,0,0,1-4.51,2.27,17.72,17.72,0,0,1-5.48,1.17,1.8,1.8,0,0,1-1.33-.44h0A1.81,1.81,0,0,0,1160.46,146.45Z"/><path class="cls-4" d="M1170.41,111a3.65,3.65,0,0,0-.65-.59l-.07,0,.09,0A3.1,3.1,0,0,1,1170.41,111Z"/><path class="cls-4" d="M1053.79,142.16l0,0h0S1053.81,142.14,1053.79,142.16Z"/><path class="cls-4" d="M1082.18,120.66a5.24,5.24,0,0,0-4.68.14h0a5.31,5.31,0,0,1,4.68-.14,3.2,3.2,0,0,1,1.79,3.12,19.41,19.41,0,0,1-.44,3,19.85,19.85,0,0,0,.47-3.06A3.2,3.2,0,0,0,1082.18,120.66Z"/><path class="cls-4" d="M1052.24,152.07a4.72,4.72,0,0,1-1,2,4.2,4.2,0,0,1-.63.56,4,4,0,0,0,.65-.57,4.82,4.82,0,0,0,1-2,32.25,32.25,0,0,0,.69-4.58c.08-.69.16-1.3.23-1.86-.08.56-.16,1.18-.25,1.88A32.25,32.25,0,0,1,1052.24,152.07Z"/><path class="cls-4" d="M1150,145.43a28.5,28.5,0,0,1-1.25-6.06v-1.52q0-5.29.45-14.27a94.21,94.21,0,0,1,.73-9.85c.64-1.66,2.18-2.48,4.61-2.48a42.66,42.66,0,0,0,5.17-.76,31.48,31.48,0,0,1,6.34-.76,12.92,12.92,0,0,1,2.62.24,11.64,11.64,0,0,0-2.63-.25,30.68,30.68,0,0,0-6.34.75,43.24,43.24,0,0,1-5.17.76q-3.66,0-4.62,2.49a97.25,97.25,0,0,0-.73,9.85q-.44,9-.44,14.27v1.51a28.57,28.57,0,0,0,1.24,6.07,19,19,0,0,0,2.27,5.37c.19.28.39.53.59.78-.19-.24-.39-.49-.57-.76A18.45,18.45,0,0,1,1150,145.43Z"/><path class="cls-4" d="M903,148.19a1,1,0,0,1,.5-.59A.91.91,0,0,0,903,148.19Z"/><path class="cls-4" d="M1168.93,110l.33.12Z"/><path class="cls-4" d="M1211.52,134.51a28.58,28.58,0,0,1-3.13,1.93,8.7,8.7,0,0,1-2.31,1c-.23,0-.34-.32-.34-.95h0c0,.64.11,1,.34,1a8.64,8.64,0,0,0,2.31-1,28.58,28.58,0,0,0,3.13-1.93,5.55,5.55,0,0,0,1.21-1.23A5.51,5.51,0,0,1,1211.52,134.51Z"/><path class="cls-4" d="M726,111.25a42.66,42.66,0,0,0,5.17-.76,31.48,31.48,0,0,1,6.34-.76,12.26,12.26,0,0,1,2.75.27,11,11,0,0,0-2.74-.28,30.68,30.68,0,0,0-6.34.75,43,43,0,0,1-5.17.76q-3.66,0-4.62,2.49h0C722.07,112.07,723.61,111.25,726,111.25Z"/><path class="cls-4" d="M748.18,143a3.76,3.76,0,0,0-3-1.38A4.61,4.61,0,0,0,742,143a12.69,12.69,0,0,1-4.51,2.27,17.78,17.78,0,0,1-5.48,1.17,1.84,1.84,0,0,1-1.35-.44,6.39,6.39,0,0,1-1-1.83,17.13,17.13,0,0,1-1.24-6.41,3.86,3.86,0,0,1,.09-1,3.93,3.93,0,0,0-.09,1,16.81,16.81,0,0,0,1.24,6.41,5.78,5.78,0,0,0,1,1.82,1.79,1.79,0,0,0,1.34.45,18,18,0,0,0,5.48-1.17A12.48,12.48,0,0,0,742,143a4.63,4.63,0,0,1,3.24-1.38,3.74,3.74,0,0,1,3,1.4,4.09,4.09,0,0,1,1.17,2.55,5.62,5.62,0,0,1-.1.7c0-.24.08-.49.11-.73A4.14,4.14,0,0,0,748.18,143Z"/><path class="cls-4" d="M729,123.49l.07,4.28,3.38-.07c2.34-.18,3.81-.51,4.41-1a4,4,0,0,1,2.34-.69,4.82,4.82,0,0,1,3,1,3.09,3.09,0,0,1,1.34,2.55,3.56,3.56,0,0,1-.33,1.43,3.48,3.48,0,0,0,.34-1.45,3.1,3.1,0,0,0-1.35-2.55,4.78,4.78,0,0,0-3-1,3.81,3.81,0,0,0-2.34.69c-.6.43-2.07.78-4.42,1l-3.38.07-.07-4.27-.13-4.33h0Z"/><path class="cls-4" d="M815.7,119.84a9.07,9.07,0,0,1,1.6,5.24,10.74,10.74,0,0,1-1.17,4.81,10.67,10.67,0,0,0-1.1,2.76.53.53,0,0,0,.12.29.53.53,0,0,1-.1-.29,9.88,9.88,0,0,1,1.1-2.75,10.74,10.74,0,0,0,1.17-4.81,9.07,9.07,0,0,0-1.6-5.24,13.22,13.22,0,0,0-3.93-3.59A12.79,12.79,0,0,0,809,115h0a11.84,11.84,0,0,1,2.78,1.27A13.06,13.06,0,0,1,815.7,119.84Z"/><path class="cls-4" d="M742.81,113.38a4.16,4.16,0,0,1-.26,1.52,4.44,4.44,0,0,0,.27-1.53,3.49,3.49,0,0,0-1.52-3c-.06,0-.14-.06-.2-.1l.19.12A3.47,3.47,0,0,1,742.81,113.38Z"/><path class="cls-4" d="M740.33,110a3.48,3.48,0,0,1,.6.21A3.8,3.8,0,0,0,740.33,110Z"/><path class="cls-4" d="M894.14,153.81c0-1.89.26-5.06.76-9.51q1-8.34,1.17-12.89a27.61,27.61,0,0,1,.41-4.89c.19-.69,1-1.61,2.49-2.76a16.67,16.67,0,0,1,4.13-2.48,10.77,10.77,0,0,1,3.38-.54,15.83,15.83,0,0,1,5.37,1,15.71,15.71,0,0,0-5.39-1,10.46,10.46,0,0,0-3.37.53,17.08,17.08,0,0,0-4.14,2.49c-1.47,1.15-2.3,2.06-2.48,2.75a26.82,26.82,0,0,0-.41,4.89q-.15,4.56-1.18,12.89-.75,6.69-.75,9.51,0,4,1.6,5.59a3.67,3.67,0,0,0,1.88,1.13,3.68,3.68,0,0,1-1.86-1.13Q894.15,157.8,894.14,153.81Z"/><path class="cls-4" d="M681.13,125h0q.06-2.26.33-6.85t.34-6.86h0q-.06,2.28-.34,6.85C681.29,121.21,681.17,123.5,681.13,125Z"/><path class="cls-4" d="M689.52,132.79a35.69,35.69,0,0,0-5.93.41c-1.51.28-2.27.92-2.27,1.93a6.36,6.36,0,0,0,1,2.9,6.43,6.43,0,0,1,.9,3.17c0,.28,0,.87-.14,1.79q-.76,5-3.44,6a5.87,5.87,0,0,1-1.8.35,3,3,0,0,1-2.52-1.48,3,3,0,0,0,2.54,1.51,5.75,5.75,0,0,0,1.79-.35q2.68-1,3.45-6c.09-.92.13-1.51.13-1.79a6.31,6.31,0,0,0-.89-3.16,6.29,6.29,0,0,1-1-2.9c0-1,.76-1.66,2.28-1.93a34.58,34.58,0,0,1,5.93-.42h3.77v0Z"/><path class="cls-4" d="M702.73,112.37c0,.1-.09,1.15-.27,3.17s-.35,8.3-.53,18.54c-.1,7-.19,11.11-.28,12.44a3.76,3.76,0,0,1-1,2.67,3.48,3.48,0,0,1-2.34.9,3.79,3.79,0,0,1-3.43-2.33,3.79,3.79,0,0,0,3.45,2.36,3.49,3.49,0,0,0,2.34-.9,3.76,3.76,0,0,0,1-2.67q.14-2,.27-12.44.25-15.36.54-18.54c.18-2,.27-3.07.27-3.16a4,4,0,0,0-.12-.71A3,3,0,0,1,702.73,112.37Z"/><path class="cls-4" d="M1211.51,91.48a28.12,28.12,0,0,1,2.92.15,28.12,28.12,0,0,0-2.92-.15h0Z"/><path class="cls-4" d="M858.78,128.6l-.09,0,.1,0Z"/><path class="cls-4" d="M807.93,122.93a6.93,6.93,0,0,0-3.66-1c-.73,0-1.19.12-1.37.35s-.35,1.91-.35,5v0c0,.39,0,.75,0,1.09,0-.34,0-.7,0-1.09,0-3.12.16-4.8.35-5s.64-.35,1.37-.35a6.93,6.93,0,0,1,3.66,1,2.6,2.6,0,0,1,1.51,2.19h0A2.57,2.57,0,0,0,807.93,122.93Z"/><path class="cls-4" d="M868,149.9c-1-2.21-1.7-3.42-2.06-3.66h0c.37.26,1,1.47,2,3.64a9.15,9.15,0,0,0,2.59,3.68A9.29,9.29,0,0,1,868,149.9Z"/><path class="cls-4" d="M856.94,139h0c-1,0-1.52-.37-1.52-1a19.62,19.62,0,0,1,1.24-4.41c.23-.59.47-1.24.72-1.93s.45-1.25.59-1.69a7.35,7.35,0,0,1,.27-.79.77.77,0,0,1,.07-.16.77.77,0,0,0-.07.16,7.41,7.41,0,0,0-.28.79c-.13.44-.32,1-.58,1.69s-.5,1.34-.73,1.93a19.49,19.49,0,0,0-1.24,4.41C855.42,138.69,855.93,139,856.94,139Z"/><path class="cls-4" d="M840.11,155.48q0-1.38,3.1-9,2.89-7.31,4.76-12.68c.78-2.44,1.52-4.51,2.24-6.24s1.39-3.5,2-5.34a17.63,17.63,0,0,1,3.45-6.2A4.73,4.73,0,0,1,859,114.4a3.64,3.64,0,0,1,2,.62,3.61,3.61,0,0,0-2-.63,4.76,4.76,0,0,0-3.31,1.65,17.73,17.73,0,0,0-3.45,6.2q-1,2.76-2,5.35c-.72,1.72-1.46,3.8-2.24,6.23q-1.86,5.38-4.76,12.68-3.11,7.59-3.1,9a3.36,3.36,0,0,0,1.24,2.41,3,3,0,0,0,.57.49,3.51,3.51,0,0,1-.55-.47A3.38,3.38,0,0,1,840.11,155.48Z"/><path class="cls-4" d="M820.49,138.16c-1.37-2.11-2.58-3.44-3.65-4l-.23-.13.21.12a11.93,11.93,0,0,1,3.65,4,17.12,17.12,0,0,1,1.44,2.91,9.31,9.31,0,0,1,.34,2.83q-.09,6.75-3.74,10.58t-11.37,5.13a15.69,15.69,0,0,1-2.56.2,8.45,8.45,0,0,1-1.58-.15,8,8,0,0,0,1.62.16,16.75,16.75,0,0,0,2.55-.2q7.71-1.32,11.37-5.14t3.74-10.6a9.28,9.28,0,0,0-.34-2.82A16.71,16.71,0,0,0,820.49,138.16Z"/><path class="cls-4" d="M803.79,151.28a44,44,0,0,1-.48-6l-.28-5.45,1.52.35a30.33,30.33,0,0,0,4.76.27,8.32,8.32,0,0,1,3.56.61,8.05,8.05,0,0,0-3.61-.63,31.59,31.59,0,0,1-4.76-.27l-1.51-.35.27,5.45a45.71,45.71,0,0,0,.48,6,.83.83,0,0,0,.23.3A.68.68,0,0,1,803.79,151.28Z"/><polygon class="cls-5" points="1844.45 669.17 1529.44 669.17 1528.96 669.17 1528.94 669.18 1035.35 1097.17 987.26 1138.87 1536.76 1494.45 1685.44 1097.17 1845.61 669.18 1844.45 669.17"/><path d="M231.27,487.35l0,.85c.48.76,8.63,13.55,20.14,31.89l-1.7-37.51L243,466.68s-5.1,3-11.87,6.55Z"/><path d="M231,461.3c3.15-1.19,5.34-2.24,5.9-2.94,1.18-1.48,2.91,1.17,4.23,3.87l-1-2.24-9.36-13.17Z"/><path class="cls-6" d="M229.85,339.22c-.14-.3-.29-.6-.43-.89v.15Z"/><path class="cls-6" d="M239.36,423.54c-3.47,3.4-6.49,7.19-8.07,11.11l-.65,1.61.13,10.56L240.13,460l33.45,47.08-4,15.75,10.87,14.44,9.17-1.09,10.92,24.36,20-9.68-3.32-19.91-7.68.53v-6.15l6.6-.84L313.74,510,294,486.38,259.2,420.79c-4.82.22-9.85.61-12.35,1.32A66.12,66.12,0,0,1,239.36,423.54Z"/><path d="M230,383.38l9.09-6.16-1.41-2.63c.48-18-4.62-29.81-7.81-35.37l-.43-.74Z"/><path d="M231.29,434.65c1.58-3.92,4.6-7.71,8.07-11.11-2.9.44-6.08.85-8.87,1.18l.15,11.54Z"/><path class="cls-7" d="M184,229.83a89,89,0,0,1-9.85,1.46l-2.56.38-.93.23.19,3.61v0l1,.43a7.91,7.91,0,0,0,1.24-1.45c1.87,1.84,5.62,3.5,11.9,4.86,10.83,2.36,5.92-8.54,4.46-11.41L186,229.54Z"/><path class="cls-7" d="M173.83,119.64a5.2,5.2,0,0,1-.71,3.42c2.71,2.12,4.77,4,4.77,4s2.46-4.21,6.08-1.93a14.49,14.49,0,0,1,3.46,3.58,16,16,0,0,0-9.25-12.44,11.31,11.31,0,0,0-8-1.16A5.13,5.13,0,0,1,173.83,119.64Z"/><path class="cls-7" d="M170.93,236.66l0-.48,0,.48Z"/><path class="cls-7" d="M203.91,167.65l-.59,4.27-3.89-2.72a10.36,10.36,0,0,0-1.31-3.06c-.05.15-.11.29-.17.43l-.59,2.15a4.41,4.41,0,0,1-1.33,1.54c-.53,1.68-.69,4.19.23,8.88,2.87.61,4.58-.44,3,.65a2.6,2.6,0,0,1-2.22.22,11.71,11.71,0,0,1,.65,2.83l.06.35a1.91,1.91,0,0,1,.39.62,1.6,1.6,0,0,1-.27,1.77,11.37,11.37,0,0,1,3,1.91c.14-.15.27-.31.42-.46a17.37,17.37,0,0,0,4.37-17.19,18.27,18.27,0,0,0-1.72-4.26A9.56,9.56,0,0,1,203.91,167.65Z"/><path d="M198.14,711.44c-8.69,26.31-23.36,83.64-11.14,143.22l-2.22,15.17-4,27.51h0l56.1,6.25s47,23.94,60.49,27.06c.34.08.67.17,1,.27-.3-.1-.63-.19-1-.27-13.53-3.12-60.49-27.06-60.49-27.06l-7.17-34.36L234.11,842,256.3,706Z"/><path d="M173.77,911.24a54.52,54.52,0,0,0-3.43,18.37v16.66h0V929.61A54.52,54.52,0,0,1,173.77,911.24Z"/><path d="M252.61,658.09c-5.46-4.27-43.78-34.3-77.21-62.4,3.74,16.8,9.08,39.92,14.37,59.92C226.87,647.45,248.68,656.27,252.61,658.09Z"/><path class="cls-8" d="M236.85,903.59l-56.1-6.25s-.42.59-1.08,1.66l-.41.66c-.25.43-.53.9-.83,1.43l-.17.31c-.31.55-.62,1.14-.95,1.78a68,68,0,0,0-3.54,8.06,54.52,54.52,0,0,0-3.43,18.37v16.66h25.07L209.9,939l10.41,7.29a77.45,77.45,0,0,0,18.79,7.56q1.4.36,2.85.66l1.47.28c1,.18,2,.34,3,.46s2,.23,3.06.3,2.07.11,3.11.11h44.76l.15-.25c.1-.16.24-.4.41-.7l.28-.5c.3-.55.67-1.23,1.07-2l.4-.82c.41-.85.84-1.79,1.26-2.79a41.52,41.52,0,0,0,1.51-4.24c.1-.37.2-.74.29-1.11s.2-.86.29-1.29a19.75,19.75,0,0,0,.35-3v-.06a9.86,9.86,0,0,0-.63-4,6.37,6.37,0,0,0-1.29-2,7.56,7.56,0,0,0-.78-.71,7.92,7.92,0,0,0-2.34-1.2c-.3-.1-.63-.19-1-.27C283.81,927.53,236.85,903.59,236.85,903.59Zm54.89,48H250.07c-15.5,0-30-8.06-30-8.06l-9.69-6.28-13.49,6.28H173.51V929.18c0-15.24,9.69-27.78,9.69-27.78l52.23,5.37s43.71,20.61,56.31,23.3S291.74,951.58,291.74,951.58Z"/><path d="M291.74,930.07c-12.6-2.69-56.31-23.3-56.31-23.3L183.2,901.4s-9.69,12.54-9.69,27.78v14.34h23.34l13.49-6.28,9.69,6.28s14.54,8.06,30,8.06h41.67S304.34,932.76,291.74,930.07Z"/><polygon class="cls-9" points="228.55 310.91 228.55 310.9 228.55 310.92 228.55 310.91"/><path class="cls-9" d="M190.38,199.76a27.65,27.65,0,0,0,5-1.85c.83-.56,2.87-.75,4.26-2.9.06-.1.1-.2.15-.3.64-1.56.8-6-.13-6.87a3.37,3.37,0,0,0-1.62-.93c-2.07-.46-6.16-1.58-5.7-20.67a88.45,88.45,0,0,0,1.89,12.22,9.28,9.28,0,0,0,2,.68c-.92-4.69-.76-7.2-.23-8.88a1.43,1.43,0,0,1-.62.24,1.33,1.33,0,0,1-1.44-.74s.21-1.87.26-2.76,3.74-.51,3.74-.51l0,.08c.06-.14.12-.28.17-.43a5.48,5.48,0,0,0-2.73-2.38c-4-1.31-6.65-12.69-6.65-12.69s2.89-11.23-6.13-17.2c-10.58-7-12.79,9.3-12.79,9.3l-10.15,3.15s-5.39,2.59-8,14.91c-1.55,7.3-3.84,11.18-5.49,13.17a8.23,8.23,0,0,0-1.84,5.19l0,6.34.07,1.71c-.22.69-.81,1.32-2.23,1.69-.29.08-.54.16-.8.25a9.82,9.82,0,0,0-2.21,1l4.44,11.17,4.11-4.68,4.71,18L163.16,207l-.67-4.87,24.44-6.1,5.54,6.48,5.72-3.29c.27-1,.53-1.91.81-2.68l-4.06,2.72Zm-12-18.59a.8.8,0,0,1,.15.94h0c.15,1,.33,2.13.51,3.33a.72.72,0,0,1,0,.21,1,1,0,0,1-.08.39c-.34.93-2,2.39-9.77.31-2.18-.34-4.31-.71-5.88-.91-5.15-.64-3.85-5.95-3.85-5.95l6.52-2.14c5.61-1.2,9-.51,11.06.48-.72-2.45,1-6,1-6a11.6,11.6,0,0,0,.59,7,4.78,4.78,0,0,1,1.07,1.27,14.31,14.31,0,0,1-1.55-.11C178.28,180.34,178.35,180.72,178.42,181.17Zm6.67-12.07c.11,2.12-5-1.51-5.2-1.69h0l-23-2.92c-3.18.74.09-1.26.2-1.25,4.12.25,15.42.86,19.36.39a12.17,12.17,0,0,1,3.78.26c1.29-.53,5,2.46,5,3.85C185.23,167.77,185.09,169.06,185.09,169.1Z"/><path class="cls-9" d="M190.57,207.63a18.68,18.68,0,0,1-4.71.24c-1.24-.48-5.91,1.24-12,2.24-2.16.43,1.85.88-.31.79l.78,4.08a6.85,6.85,0,0,0,2.83.92c3.24.39,9.17,1.69,9.7,1.66,2.27-.49,4.28,1.48,7.41-2.49a.61.61,0,0,1,.07.14q.36-1.26.69-2.52c-.55.8-1.14,1.6-1.54,2.12a2.75,2.75,0,0,1-1,.84l-2.9,1.35s-.57,1.19-13.77-5.22c0,0,11.91-4.34,13.61-3.42l1.71.93,2.53-.6,2.12,1.11c.15-.66.31-1.32.46-2A10.27,10.27,0,0,0,190.57,207.63Z"/><path class="cls-9" d="M133.4,796.58c-3.82,0-25.19-15.26-32.07-18.32-6.66-3-14-31-14.48-32.74v.13s7.63,29.77,14.5,32.83,28.25,18.32,32.07,18.32,7.63-17.56,7.63-17.56l-.06-.08C140.65,780.73,137,796.58,133.4,796.58Z"/><path class="cls-9" d="M76.9,723.3c-4.37-2.92-10.13-29.5-10.64-31.88l0,0s6.11,29,10.69,32.07a43.43,43.43,0,0,0,8.55,4.36c-.87-.38-1.92-.88-3-1.49A44.29,44.29,0,0,1,76.9,723.3Z"/><path class="cls-9" d="M305.2,701.37s30.53-22.9,28.24-39.7a.5.5,0,0,0,0-.12c2.17,16.79-28.25,39.61-28.25,39.61L151,715.66s-16.8,2.29-28.25,13c-2.35,2.2-3,5.62-2.45,9.67-.47-4,.16-7.3,2.48-9.46,11.45-10.69,28.24-13,28.24-13l47.16-4.43L256.3,706Z"/><path class="cls-9" d="M107.89,236l-.61.39,2.78-.27Z"/><path class="cls-9" d="M132.59,195.8c-.4,1.57-.66,2.61-.66,2.61l1.58,2.11a2.29,2.29,0,0,0,.27-1.21A8.49,8.49,0,0,0,132.59,195.8Z"/><path class="cls-9" d="M115.7,446.63h-.06l11.45,15.93,0-.09Z"/><polygon class="cls-9" points="231.28 488.2 231.29 488.2 231.27 487.35 231.28 488.2"/><path class="cls-9" d="M194.29,178.58c.09.36.19.71.28,1.06a2.86,2.86,0,0,1,1-.25A11.4,11.4,0,0,1,194.29,178.58Z"/><path class="cls-9" d="M164.35,233.49l-5.71-7.68-13.94-8-7.45-5.7-3.15,11.18h0c6.74,7,15.79,15,21.36,14.1,5.87-.91,9.1,5.86,10.74,11.4l.16-6.67s4.74-2.44,4.67-3.66c0-.42,0-.89-.07-1.33l0-.44,0-.48V236l0-.46-.19-3.61Z"/><path class="cls-9" d="M174.17,231.29a89,89,0,0,0,9.85-1.46Z"/><path class="cls-9" d="M253.26,658.4s-121-94.35-129-111.37h0a46.64,46.64,0,0,1-2.83-8.53c-.25-1.08-.48-2.18-.68-3.28,0-.25-.08-.49-.13-.74-.14-.84-.27-1.69-.39-2.54,0-.21-.06-.41-.09-.62a55.88,55.88,0,0,0,4.12,15.83c3.16,6.94,25.74,27.17,51.14,48.53,33.43,28.1,71.75,58.13,77.21,62.4Z"/><path d="M151,715.66l154.21-14.5s30.42-22.82,28.25-39.61v-.09c-1.63-12-52.69-94.67-82-141.37-11.51-18.34-19.66-31.13-20.14-31.89h0v-.85l-.17-14.12-1.38.72.43.73-.49-.69c-10.64,5.55-24.59,12.11-29.78,11.31-8.84-1.36-74.77-10.62-74.77-10.62l2-12.15S182,472,195.41,470.39c7.39-.88,18.55-3.62,27.45-6.36-4.75-7.13-10.09-15.53-10.08-17.35,0-1.34,0-9.86-.08-19.51-17.7,2.77-55.1,8.6-83.18,12.74.2,1.33.33,2.15.33,2.27a.94.94,0,0,1-.29.6c-.3.49-.82,1-1.54.6l-.42-.24-.19-.11-.27-.16-.5-.29-.7-.41-.89-.52-.21-.13-.42-.25,0,0-.09-.05-1.09.31s0,2-1.19,2.27a.79.79,0,0,1-1.15.28l-1.69-1.16c-1.12.24-1.64,3.4-3,3.39a.75.75,0,0,1-.48.34l11.41,15.85,0,.09-6.92,40.86a121.75,121.75,0,0,0,0,27.9c0,.21.07.41.09.62.12.85.25,1.7.39,2.54,0,.25.09.49.13.74.2,1.1.43,2.2.68,3.28a46.64,46.64,0,0,0,2.83,8.53h0c8,17,129,111.37,129,111.37l-111-121.22L137,531.47l7.27-51.18L138.08,531l5.12,5.67L253.26,658.4l-.65-.31c-3.93-1.82-25.74-10.64-62.84-2.48a198.06,198.06,0,0,0-41.1,14.25l-42.75,8.39,16.79,50.39C134.16,718,151,715.66,151,715.66ZM147,514.75c7-.06,23.3-26.39,23.3-26.39C156.36,519.8,147,514.75,147,514.75Z"/><path class="cls-8" d="M122.71,728.64l-16.79-50.39s-30.54-5.34-39.7,13l0,.19c.51,2.38,6.27,29,10.64,31.88a44.29,44.29,0,0,0,5.53,3.08c-.9-.49-1.85-1-2.8-1.68C75.52,722,70,695.91,70,695.91c8.23-16.46,35.65-11.66,35.65-11.66l15.08,45.25c-10.28,9.6,16.46,45.24,16.46,45.24s-3.43,15.77-6.86,15.77-22.62-13.71-28.79-16.45-13-29.48-13-29.48l-.68-15.77s-.69-.23-1.78-.69l.75,17.31,0,.09c.44,1.69,7.82,29.78,14.48,32.74,6.88,3.06,28.25,18.32,32.07,18.32,3.63,0,7.25-15.85,7.6-17.42l0-.13S122.25,754,120.26,738.31C119.75,734.26,120.36,730.84,122.71,728.64Z"/><path d="M88.54,744.58s6.86,26.74,13,29.48,25.36,16.45,28.79,16.45,6.86-15.77,6.86-15.77-26.74-35.64-16.46-45.24l-15.08-45.25S78.26,679.45,70,695.91c0,0,5.49,26.05,9.6,28.79,1,.63,1.9,1.19,2.8,1.68,1.13.61,2.18,1.11,3,1.49l.6.25c1.09.46,1.78.69,1.78.69Z"/><path d="M173.5,258.34l-3.93-8.93-1.95,3.42,6.06,16.42,9,19.48,12.72,24.53,9.4,31.44,14,34.47-3.19,14.1L226,386.06l4-2.68-.56-44.9v-.15l-.08-6.32-.79-21.09h0v-.12l-24.12-46.22-25.58-11.89v.11Z"/><path d="M76.61,255.62c31.46-2.72,58.86,43.8,66.73,67.79,4.34,13.25-.9,30.17-6.47,42.68-.31,7.93-1.08,15.86-1.3,18.08a.76.76,0,0,1-.07.62.79.79,0,0,0,.94,1.13l.9-.3a.79.79,0,0,1,.74.12l2.23,1.78a.71.71,0,0,1,.19.23h.11v3.08l-.31-.54a.76.76,0,0,1-.76.13l-1-.41a.8.8,0,0,0-.59,0,6.76,6.76,0,0,0-1.4.88,65,65,0,0,1,26.22,4l50.67-1.53,3.88-14.17-15.8-39.74-6.61-24.35-12.18-26.35v0l-10.81-20-4.42-15.57-.14.24c.25,1.35.36,2.21.36,2.21s-.49,0-1.37,0c.21.66.27.93,0,.59a4.05,4.05,0,0,1-.29-.59h0c-.66,0-1.52,0-2.52,0l.67,2.24,1.85.52-1.83-.42.13.42-1.84-.82c-4.78-1.1-13.26-3.08-18-4.23l-22.17,11.78L86.93,247.72s-4.87,3.25-10.66,8l.15-.05Z"/><path d="M223.77,463.75c2.69-.84,5.14-1.68,7.18-2.45l-.18-14.48-.13-10.56-.15-11.54c-4.3.52-7.67.86-7.67.86l-8.46,1.33.26,21.14Z"/><path d="M127.4,385a.78.78,0,0,0,1.41.56l1.05-1.45a.79.79,0,0,1,.61-.33l4.32-.17a.79.79,0,0,1,.76.52c.15-2.13.61-9.2.64-16.56a138.93,138.93,0,0,1-8.49,15.77.73.73,0,0,0-.12.32l0,.41Z"/><path d="M156.79,255a79.88,79.88,0,0,1-8.71-1.66l13.36,3.72Z"/><path d="M118.66,442.77a.83.83,0,0,0-.61.37S118.31,443,118.66,442.77Z"/><path class="cls-10" d="M230.15,474.68l-.43-.73-.06,0Z"/><path class="cls-10" d="M214.62,448.05l-.26-21.14-1.66.26c0,9.65.08,18.17.08,19.51,0,1.82,5.33,10.22,10.08,17.35l.91-.28Z"/><polygon class="cls-10" points="167.62 252.83 167.45 253.14 171.88 268.71 182.68 288.7 182.69 288.73 173.69 269.25 167.62 252.83"/><polygon class="cls-10" points="215.61 393.27 218.8 379.17 204.81 344.7 195.41 313.26 182.69 288.73 194.87 315.08 201.48 339.43 217.28 379.17 213.4 393.34 215.61 393.27 215.61 393.27"/><path class="cls-10" d="M194.57,179.64a21.19,21.19,0,0,0,1.21,3.37c.07-.26.32-.49,1.11-.33a1.7,1.7,0,0,1,.89.51l-.06-.35a11.71,11.71,0,0,0-.65-2.83,6.86,6.86,0,0,1-1.5-.62A2.86,2.86,0,0,0,194.57,179.64Z"/><path class="cls-11" d="M69.9,408.37h0c.6,5.4,1.14,10.26,1.6,14.38h0C71,418.34,70,409,69.9,408.37Z"/><path class="cls-11" d="M226,386.06l-10.41,7.21h0l-2.21.07-50.67,1.53a65,65,0,0,0-26.22-4c-1.76,1.39-4.63,4.65-7.26,12.17-3.49,10-.73,30.08.27,36.84,28.08-4.14,65.48-10,83.18-12.74l1.66-.26,8.46-1.33s3.37-.34,7.67-.86c2.79-.33,6-.74,8.87-1.18a66.12,66.12,0,0,0,7.49-1.43c2.5-.71,7.53-1.1,12.35-1.32,6-.28,11.69-.28,11.69-.28l12.82-37.65L272.43,381l-2.7-.44-22.43,12-1.14-20.13-7.09,4.8L230,383.38Z"/><path class="cls-10" d="M159.51,179.49s-1.3,5.31,3.85,5.95c1.57.2,3.7.57,5.88.91h0s-2.12-6.19,4.22-6.19c3.26,0,4.51.51,5,1-.07-.45-.14-.83-.18-1.12-1.62-.2-4.11-.74-5.47-2.25S159.51,179.49,159.51,179.49Z"/><path class="cls-10" d="M178.57,182.11l.51,3.33C178.9,184.24,178.72,183.08,178.57,182.11Z"/><path d="M178.72,178.89a11.6,11.6,0,0,1-.59-7s-1.76,3.51-1,6c-2-1-5.45-1.68-11.06-.48l-6.52,2.14s11.79-3.32,13.26-1.69,3.85,2,5.47,2.25a14.31,14.31,0,0,0,1.55.11A4.78,4.78,0,0,0,178.72,178.89Z"/><path class="cls-12" d="M169.23,186.35h0c7.77,2.08,9.43.62,9.77-.31a1,1,0,0,0,.08-.39.72.72,0,0,0,0-.21l-.51-3.33h0a.8.8,0,0,0-.15-.94c-.46-.5-1.71-1-5-1C167.11,180.16,169.23,186.35,169.23,186.35Z"/><path class="cls-12" d="M195.78,183a5,5,0,0,0,2.06,2.54l.06,0a1.6,1.6,0,0,0,.27-1.77,1.91,1.91,0,0,0-.39-.62,1.7,1.7,0,0,0-.89-.51C196.1,182.52,195.85,182.75,195.78,183Z"/><path d="M180.18,163.88a12.17,12.17,0,0,0-3.78-.26c-3.94.47-15.24-.14-19.36-.39-.11,0-3.38,2-.2,1.25l23,2.92h0c.25.18,5.31,3.81,5.2,1.69,0,0,.14-1.33.14-1.37C185.17,166.34,181.47,163.35,180.18,163.88Z"/><path d="M194.23,167c0,.89-.26,2.76-.26,2.76a1.33,1.33,0,0,0,1.44.74,1.43,1.43,0,0,0,.62-.24,4.41,4.41,0,0,0,1.33-1.54l.59-2.15,0-.08S194.28,166.11,194.23,167Z"/><path d="M197.84,185.55a5,5,0,0,1-2.06-2.54,21.19,21.19,0,0,1-1.21-3.37c-.09-.35-.19-.7-.28-1.06a11.4,11.4,0,0,0,1.28.81,6.86,6.86,0,0,0,1.5.62,2.6,2.6,0,0,0,2.22-.22c1.55-1.09-.16,0-3-.65a9.28,9.28,0,0,1-2-.68,88.45,88.45,0,0,1-1.89-12.22c-.46,19.09,3.63,20.21,5.7,20.67a3.37,3.37,0,0,1,1.62.93c.93.91.77,5.31.13,6.87,0,.1-.09.2-.15.3-1.39,2.15-3.43,2.34-4.26,2.9a27.65,27.65,0,0,1-5,1.85l4.56-.48,4.06-2.72,1.43-.95c1-1.34,1.74-6.93.51-8.07l-.06,0a11.37,11.37,0,0,0-3-1.91Z"/><path class="cls-13" d="M186.93,196.05l-24.44,6.1.67,4.87-10.71,8.11-4.71-18-4.11,4.68-4.44-11.17a10.43,10.43,0,0,0-2.08,1.68s2.84,9.18.76,12.21a2.33,2.33,0,0,1-.83.76l1.55,2.07-.78,2.77c2.39,1.69,11.2,5.52,18.61,8.62l11.13,4.54s-5.11-2-11.13-4.54c-7.35-3-16.12-6.55-18.9-7.61l-.27,1,7.45,5.7,13.94,8,5.71,7.68,6.33-1.59.93-.23,2.56-.38,9.85-1.46,2-.29,3.46-1.62.44-.21,5.42-11.48c-1.68,1.07-.3.21-1-1a.61.61,0,0,0-.07-.14c-3.13,4-5.14,2-7.41,2.49-.53,0-6.46-1.27-9.7-1.66a6.85,6.85,0,0,1-2.83-.92l-.78-4.08c2.16.09-1.85-.36.31-.79,6.1-1,10.77-2.72,12-2.24a18.68,18.68,0,0,0,4.71-.24,10.27,10.27,0,0,1,5.63.21,6.25,6.25,0,0,1,1,.39l1.91-9.51-.89.52-5.72,3.29Z"/><path d="M137.81,210.09l-.29,1c2.78,1.06,11.55,4.61,18.9,7.61C149,215.61,140.2,211.78,137.81,210.09Z"/><path d="M156.42,218.71c6,2.51,11.13,4.54,11.13,4.54Z"/><path class="cls-14" d="M191.09,209.29l-1.71-.93c-1.7-.92-13.61,3.42-13.61,3.42,13.2,6.41,13.77,5.22,13.77,5.22l2.9-1.35a2.75,2.75,0,0,0,1-.84c.4-.52,1-1.32,1.54-2.12.84-1.23,1.58-2.44,1.36-2.55l-.64-.34-2.12-1.11Z"/><path class="cls-15" d="M123.82,234.8c1.3-1.06,1.8-2.74,1.3-5.4-.55-3,1.73-2.13,5.17.45l.76-6.12a.82.82,0,0,1,.83-.6l1.39-.07a1.58,1.58,0,0,1,.82.2h0l3.15-11.18.27-1,.29-1,.78-2.77L137,205.25a2.26,2.26,0,0,1-1,.28c-5.31.41-7.33-8.17-7.33-8.17s3.73,4.72,4.78,3.16l-1.58-2.11s.26-1,.66-2.61c-2.86-5.51-9.73-14.19-7.48-20.26,2.83-7.6,14-22.08,14-22.08s6.12-2.5,4.86-12.34c-1.31-10.35,6.41-11,17.4-4.8l.45.25a82.47,82.47,0,0,1-1.14-14.19c.14-3.1.78-5.3,2.3-5.08,2.72.38,6.88,3.23,10.11,5.76a5.2,5.2,0,0,0,.71-3.42,5.13,5.13,0,0,0-3.66-4.52,4.59,4.59,0,0,0-1.7-.18c-11.83.87-22,.54-22,.54L144,111.64c-.86-1.31-4.54-1.46-3.72-.11,3.49,5.75-5.7,6.16-11,6.59-7.35.56-13,11.4-13.72,13.52.68-2.21,2-1.89-10,3.61-13.75,6.31-4.77,20-4.77,20s-9.08-5.24-7,6.39a78.83,78.83,0,0,1,1.08,20.61L87,184.58s-7.68,6.23-2.69,11.26,11.26,10.25,11.26,10.25,8.16,13.63-3.76,10S86,221.85,98,221.54s-7.14,7.75-7.14,7.75-5.87,6.16,9.43,6.42c2.66,0,5.2.17,7.57.31l2.17.12Z"/><path class="cls-16" d="M184,125.14c-3.62-2.28-6.08,1.93-6.08,1.93s-2.06-1.89-4.77-4c-3.23-2.53-7.39-5.38-10.11-5.76-1.52-.22-2.16,2-2.3,5.08a82.47,82.47,0,0,0,1.14,14.19l-.45-.25c-11-6.19-18.71-5.55-17.4,4.8,1.26,9.84-4.86,12.34-4.86,12.34s-11.2,14.48-14,22.08c-2.25,6.07,4.62,14.75,7.48,20.26a8.49,8.49,0,0,1,1.19,3.51,2.29,2.29,0,0,1-.27,1.21c-1,1.56-4.78-3.16-4.78-3.16s2,8.58,7.33,8.17a2.26,2.26,0,0,0,1-.28,2.33,2.33,0,0,0,.83-.76c2.08-3-.76-12.21-.76-12.21a10.43,10.43,0,0,1,2.08-1.68,9.82,9.82,0,0,1,2.21-1c.26-.09.51-.17.8-.25,1.42-.37,2-1,2.23-1.69l-.07-1.71,0-6.34a8.23,8.23,0,0,1,1.84-5.19c1.65-2,3.94-5.87,5.49-13.17,2.63-12.32,8-14.91,8-14.91l10.15-3.15s2.21-16.31,12.79-9.3c9,6,6.13,17.2,6.13,17.2s2.62,11.38,6.65,12.69a5.48,5.48,0,0,1,2.73,2.38,10.36,10.36,0,0,1,1.31,3.06l3.89,2.72.59-4.27a9.56,9.56,0,0,0,0-2.07c-.41-5.19-4.51-10.28-4.51-10.28a10.33,10.33,0,0,1-.35-7.18,8.49,8.49,0,0,0-1.65-7.58l-5.77-5a57.35,57.35,0,0,0-4.24-6.83A14.49,14.49,0,0,0,184,125.14Z"/><path d="M164.33,258.34l-.13-.42-1.71-.4Z"/><path d="M144.51,253.29c-1.81-.44-3.07-.77-3.34-.87-1.3-.5-10.67-11.66-10.67-11.66L126,235s12.9,16,15.21,16.52c.73.17,3.46.91,6.85,1.85a79.88,79.88,0,0,0,8.71,1.66l4.65,2.06,2.74.77-.67-2.24c1,0,1.86,0,2.52,0h0a51.87,51.87,0,0,1-1.62-5.39c-.88-2.62-1.69-5.36-1.62-6.59,0,0,.76,3.33,1.62,6.59.73,2.2,1.51,4.31,1.86,5.39.88,0,1.37,0,1.37,0s-.11-.86-.36-2.21l.14-.24.17-.31,1.95-3.42,3.93,8.93,5.35-5.55v-.11c-.11-1.29-1.15-13.55-1.85-14.19a38.65,38.65,0,0,0-5.15-2.57l-1-.43v0l0,.46v.21l0,.48,0,.44c0,.44.05.91.07,1.33.07,1.22-4.67,3.66-4.67,3.66l-.16,6.67c-1.64-5.54-4.87-12.31-10.74-11.4-5.57.87-14.62-7.1-21.36-14.1a1.58,1.58,0,0,0-.82-.2l-1.39.07a.82.82,0,0,0-.83.6l-.76,6.12c-3.44-2.58-5.72-3.42-5.17-.45.5,2.66,0,4.34-1.3,5.4l-13.76,1.34-2.78.27L86.93,247.72l35.41,17.35Zm29.11-1.22c.25,4.07-.65,5.07-.65,5.07l.15-6-5.6-8.12S173.36,248,173.62,252.07Z"/><path d="M111.85,442.9a.77.77,0,0,1,1.15.23S112.85,442.14,111.85,442.9Z"/><path d="M135.57,384.17c0,.4-.07.62-.07.62A.76.76,0,0,0,135.57,384.17Z"/><path d="M140.31,387.52l-2.23-1.78a.79.79,0,0,0-.74-.12l-.9.3a.79.79,0,0,1-.94-1.13l-1,1.77,1.1,1a3.56,3.56,0,0,1,2.89.11l2,.07A.71.71,0,0,0,140.31,387.52Z"/><path d="M116.18,446.29c-1.36,0-3.18-3.16-3.18-3.16l1.82,3.16a.76.76,0,0,0,.82.35h.06A.75.75,0,0,0,116.18,446.29Z"/><path d="M125.94,442.17l-.89-.52Z"/><path d="M129.85,442.18a3.42,3.42,0,0,1-.29.6A.94.94,0,0,0,129.85,442.18Z"/><path d="M119.17,442.9l1.69,1.16a.79.79,0,0,0,1.15-.28C120.86,444.06,120.29,442.65,119.17,442.9Z"/><path d="M113.71,442.78c1.45,1.75.79,3.56,2.22,2.51a8.84,8.84,0,0,0,2.12-2.15.83.83,0,0,1,.61-.37c.58-.32,1.42-.71,1.74-.45.52.42.44,2.38,1.62.78s1-2,1.51-2a6.72,6.72,0,0,1,1.78.19c.14.1,2.52,2.41,3.37,1.71s.84-3.08.84-3.08l.33,2.27c0-.12-.13-.94-.33-2.27-1-6.76-3.76-26.86-.27-36.84,2.63-7.52,5.5-10.78,7.26-12.17a6.76,6.76,0,0,1,1.4-.88.8.8,0,0,1,.59,0l1,.41a.76.76,0,0,0,.76-.13l-1.37-2.4a4,4,0,0,0-.43-.21l-2.89-.11c-1.7.73-2.11-.57-2.11-1a10.33,10.33,0,0,1,.24-1.49l-2.91.51-.74.48c-1.42,1.1-3.45,3.4-3.79,2.92s-.81-4.61-.81-6.31l-4.11.88a4.64,4.64,0,0,1-2.8.59l-3-3.65c-.81,0-2.43,7-3.57,7s-10.31,6.37-10.83,8.27c.45-3.71,11.19-10.39,11.19-10.39.36-1.07.67-1.95,1-2.7H96.85c4.65-3,16.51,0,16.51,0,2.43-6.42,2.26-2.22,2.26-2.22.8,0,3,3.65,3,3.65l2.8-.59.47-.23c2.1-1.13,3.64-2.35,3.64-.65l2.12.78,0,.18a.73.73,0,0,1,.12-.32,138.93,138.93,0,0,0,8.49-15.77c0-7.31-.35-14.89-1.88-18.14-3.39-7.17-10.89-17-10.89-17s6.3-14.36,6-17.16-1.17-22.74-1.17-22.74,4.46,7.32,1.86,25.2l-5.46,14.68s11.14,10.61,12.09,21.16a105.72,105.72,0,0,1,.11,12.48c5.57-12.51,10.81-29.43,6.47-42.68-7.87-24-35.27-70.51-66.73-67.79l-.19,0-.15.05-9.08,2.94a.79.79,0,0,0-.55.75v2.84a.79.79,0,0,1-.36.66l-8.68,5.56a.79.79,0,0,0-.36.64L57,280.25a.38.38,0,0,0,0,.1c-.19,1.16-3.72,23.71.28,36.44a126.12,126.12,0,0,1,5,21.65.54.54,0,0,1,0,.22,106.18,106.18,0,0,0-1.15,17.45c0,11.36,8.5,50.82,8.8,52.18,0,0,0,0,0,.08h0c.08.67,1.11,10,1.6,14.38h0c.51,4.57-.27,11.72,1.8,16.23s8.51,5.89,15.65,6.34c6.89.43,12.9-1.4,17.93-2.17a.78.78,0,0,1,.8.39l.55,1a.51.51,0,0,0,.14.15,7.47,7.47,0,0,1-.76-3.55c.19-2-3.43-3.2-3.43-3.2a88.93,88.93,0,0,1-8.39-6.13c-2.73-2.1-5.11-4.34-6-6.21-3.89-5.72,6-19.44,6-19.44s5.48-6.4,5.48-10.06c.33,1.54-4.44,12.3-5.9,12.46s-7.88,12.18-5.53,17a33.89,33.89,0,0,0,6,6.21,67.56,67.56,0,0,0,10.95,6.9c1.91.76,2,4.86,2,6.19a.77.77,0,0,0,.7-.12l2.46-1.85S112.25,441,113.71,442.78Zm-.82-26.22c3,1.36,6.59,19.22,6.59,19.22S114.62,417.82,112.89,416.56Zm15.36-24.8c2.48-.35,5.09-3.7,5.09-3.7,0,1.26-4.52,4.32-4.73,4.32s-4.54,2.41-4.54,2.41-2.8,2.56-4.3,4.3l-.94,1.42h0a10.15,10.15,0,0,1-1.74,2.64l-.19.28-.15.15c-2.07,2.62-5,5.94-5,5.94s-.54,6,.66,6.85c-2.62-1.11-1.42-7.19-1.42-7.19l5.72-5.6.34-.43,1.74-2.65a3.6,3.6,0,0,1,.94-1.42l1.83-2.78S125.77,392.1,128.25,391.76Zm-10,3.81c.52,0,3.79-6.61,3.79-6.61s-3.29,8.47-5.39,8.42a1.71,1.71,0,0,0-.3.05c-2.24,2.45-5.63,6.46-5.63,6.46s3.49-5.95,5.63-6.46A11.07,11.07,0,0,1,118.23,395.57Zm-19.55,30.1c1.37.19,5.23,6.14,5.23,6.14s-2.84-3.75-5.46-4.77-1.25-11-1.25-11l5.12-7.62,4.09-9.43s3.63-5.57,5.79-6,4.43-4.89,4.43-4.89c0,1.66-3.93,5.72-4.12,5.72s-4,3.18-4,3.18-4.51,9.13-4.51,10.37-6.18,9.13-6.18,9.13S97.32,425.49,98.68,425.67Zm9,4.64c-4.07-2.43-1-16.54-1-16.54v14.57c6.25,2,5.68,10.58,5.68,10.58S111.8,432.73,107.73,430.31Z"/><path d="M135.55,384.14a.79.79,0,0,0-.76-.52l-4.32.17a.79.79,0,0,0-.61.33l-1.05,1.45a.78.78,0,0,1-1.41-.56l.13-.93-.55,4,3.11-2a4.75,4.75,0,0,1,.74-.48,8.56,8.56,0,0,1,2.92-.56v.05l1.76-.32S135.52,384.55,135.55,384.14Z"/><path class="cls-10" d="M140.61,389.68v-1.93h-.11l-2-.07a4,4,0,0,1,.43.21l1.37,2.4.31.54Z"/><path class="cls-10" d="M106.74,438.68a67.56,67.56,0,0,1-10.95-6.9,88.93,88.93,0,0,0,8.39,6.13s3.62,1.24,3.43,3.2a7.47,7.47,0,0,0,.76,3.55c.17.38.3.63.3.63s0-.16,0-.42C108.72,443.54,108.65,439.44,106.74,438.68Z"/><path class="cls-10" d="M130.83,385.62a4.75,4.75,0,0,0-.74.48Z"/><path class="cls-10" d="M135.61,387.57l2.89.11A3.56,3.56,0,0,0,135.61,387.57Z"/><path class="cls-10" d="M130.83,385.62l2.91-.51v-.05A8.56,8.56,0,0,0,130.83,385.62Z"/><path class="cls-10" d="M135.5,384.79l-1.76.32a10.33,10.33,0,0,0-.24,1.49c0,.4.41,1.7,2.11,1l-1.1-1Z"/><path class="cls-10" d="M127.53,384.08l0-.41,0-.18-2.12-.78c0,1.7.4,5.75.81,6.31s2.37-1.82,3.79-2.92l-3.11,2Z"/><path class="cls-10" d="M89.77,425.57c.91,1.87,3.29,4.11,6,6.21A33.89,33.89,0,0,1,89.77,425.57Z"/><path class="cls-10" d="M95.3,408.53c1.46-.16,6.23-10.92,5.9-12.46,0,3.66-5.48,10.06-5.48,10.06s-9.84,13.72-6,19.44C87.42,420.71,93.84,408.69,95.3,408.53Z"/><path class="cls-10" d="M121.85,383.36l-.47.23,4.11-.88C125.49,381,124,382.23,121.85,383.36Z"/><path class="cls-10" d="M121.38,383.59l-2.8.59A4.64,4.64,0,0,0,121.38,383.59Z"/><path class="cls-10" d="M96.85,382.75h16.51S101.5,379.74,96.85,382.75Z"/><path class="cls-10" d="M113.36,382.75c-.28.75-.59,1.63-1,2.7,0,0-10.74,6.68-11.19,10.39.52-1.9,9.75-8.27,10.83-8.27s2.76-7,3.57-7C115.62,380.53,115.79,376.33,113.36,382.75Z"/><path class="cls-10" d="M115.62,380.53l3,3.65S116.42,380.53,115.62,380.53Z"/><path class="cls-10" d="M104.05,407.33c0-1.24,4.51-10.37,4.51-10.37s3.76-3.18,4-3.18,4.11-4.06,4.12-5.72c0,0-2.27,4.44-4.43,4.89s-5.79,6-5.79,6l-4.09,9.43L97.2,416s-1.36,10,1.25,11,5.46,4.77,5.46,4.77-3.86-5.95-5.23-6.14-.81-9.21-.81-9.21S104.05,408.57,104.05,407.33Z"/><path class="cls-10" d="M119.77,399.09c1.5-1.74,4.3-4.3,4.3-4.3s4.32-2.41,4.54-2.41,4.71-3.06,4.73-4.32c0,0-2.61,3.35-5.09,3.7s-6.65,4.55-6.65,4.55Z"/><path class="cls-10" d="M116.9,403.44l.19-.28-.34.43Z"/><path class="cls-10" d="M112.45,416.38c-1.2-.9-.66-6.85-.66-6.85s2.89-3.32,5-5.94l-5.72,5.6S109.83,415.27,112.45,416.38Z"/><path class="cls-10" d="M112.89,416.56c1.73,1.26,6.59,19.22,6.59,19.22S115.86,417.92,112.89,416.56Z"/><path class="cls-10" d="M119.77,399.09a3.6,3.6,0,0,0-.94,1.42Z"/><path class="cls-10" d="M118.83,400.52h0l-1.74,2.65A10.15,10.15,0,0,0,118.83,400.52Z"/><path class="cls-10" d="M116.63,397.38c2.1.05,5.39-8.42,5.39-8.42s-3.27,6.58-3.79,6.61a11.07,11.07,0,0,0-1.9,1.86A1.71,1.71,0,0,1,116.63,397.38Z"/><path class="cls-10" d="M110.7,403.89s3.39-4,5.63-6.46C114.19,397.94,110.7,403.89,110.7,403.89Z"/><path class="cls-10" d="M106.74,428.34V413.77s-3.08,14.11,1,16.54,4.69,8.61,4.69,8.61S113,430.35,106.74,428.34Z"/><path class="cls-10" d="M116.18,446.29c1.35,0,1.87-3.15,3-3.39s1.69,1.16,2.84.88,1.19-2.27,1.19-2.27l1.09-.31.09.05,0,0,.42.25.21.13.89.52.7.41.5.29.27.16.19.11.42.24c.72.43,1.24-.11,1.54-.6a3.42,3.42,0,0,0,.29-.6l-.33-2.27s0,2.38-.84,3.08-3.23-1.61-3.37-1.71a6.72,6.72,0,0,0-1.78-.19c-.49,0-.33.42-1.51,2s-1.1-.36-1.62-.78c-.32-.26-1.16.13-1.74.45-.35.2-.61.37-.61.37a8.84,8.84,0,0,1-2.12,2.15c-1.43,1-.77-.76-2.22-2.51s-1.86.12-1.86.12c1-.76,1.15.23,1.15.23S114.82,446.29,116.18,446.29Z"/><path class="cls-10" d="M135.5,384.79s0-.22.07-.62c.22-2.22,1-10.15,1.3-18.08a105.72,105.72,0,0,0-.11-12.48c-.95-10.55-12.09-21.16-12.09-21.16l5.46-14.68c2.6-17.88-1.86-25.2-1.86-25.2s.9,19.95,1.17,22.74-6,17.16-6,17.16,7.5,9.8,10.89,17c1.53,3.25,1.92,10.83,1.88,18.14s-.49,14.43-.64,16.56C135.52,384.55,135.5,384.79,135.5,384.79Z"/><path class="cls-10" d="M173,257.14s.9-1,.65-5.07-6.1-9-6.1-9l5.6,8.12Z"/><path class="cls-10" d="M164.44,250.24c-.86-3.26-1.62-6.59-1.62-6.59C162.75,244.88,163.56,247.62,164.44,250.24Z"/><path class="cls-10" d="M166.06,255.63a4.05,4.05,0,0,0,.29.59c.22.34.16.07,0-.59-.35-1.08-1.13-3.19-1.86-5.39A51.87,51.87,0,0,0,166.06,255.63Z"/><path class="cls-10" d="M148.08,253.33c-3.39-.94-6.12-1.68-6.85-1.85C138.92,250.93,126,235,126,235l4.48,5.8s9.37,11.16,10.67,11.66c.27.1,1.53.43,3.34.87,4.72,1.15,13.2,3.13,18,4.23l1.71.4,1.83.42-1.85-.52-2.74-.77Z"/><path class="cls-17" d="M265.47,63.82c-7.64-.09-16.13,46.47-9.06,71.67s-18,13.7-34.81,31-9.72,35.58-9.72,35.58c12.33-4.72,14.82-25.36,25.91-30.43s33-8.22,44.1-21.77S273.11,63.92,265.47,63.82Z"/><polygon class="cls-18" points="309.55 531.47 317.23 530.94 333.57 529.8 333.57 522.25 316.15 524.48 309.55 525.32 309.55 531.47"/><polygon class="cls-8" points="338.22 529.48 338.22 521.66 333.57 521.66 333.57 522.25 333.57 529.8 338.22 529.48"/><path class="cls-17" d="M349.49,502.9c5.89-1.75,6.61-6.7,6-15.09s-8-8.71-10.27-6,6,11.56,4.81,15-11.44,5.56-14.14,17.93l2.33-.75C340.54,513.25,343.6,504.64,349.49,502.9Z"/><path d="M269.73,380.59l2.7.44,4.89-26.44a1,1,0,0,0-1.22-1.19l-29.79,6.29a1,1,0,0,0-.81,1.06l.66,11.67,1.14,20.13Z"/><path class="cls-8" d="M236.85,458.36c-.56.7-2.75,1.75-5.9,2.94-2,.77-4.49,1.61-7.18,2.45l-.91.28c-8.9,2.74-20.06,5.48-27.45,6.36-13.42,1.61-68.27-7.86-68.27-7.86l-2,12.15s65.93,9.26,74.77,10.62c5.19.8,19.14-5.76,29.78-11.31l.06,0,1.38-.72c6.77-3.58,11.87-6.55,11.87-6.55h0s-.81-2.24-1.89-4.45C239.76,459.53,238,456.88,236.85,458.36Z"/><polygon class="cls-8" points="138.08 530.97 144.27 480.29 137 531.47 142.22 537.18 253.26 658.4 143.21 536.64 138.08 530.97"/><path class="cls-8" d="M147,514.75s9.32,5,23.3-26.39C170.34,488.36,154,514.69,147,514.75Z"/><path class="cls-19" d="M1529.44,78.05c35.53-10.89,137.47-13.92,231.12-14.2-101-.3-222.76,2.08-262.28,14.2-44.3,13.59-.13,584.36,0,591.12h31.14S1457.89,100,1529.44,78.05Z"/><path class="cls-19" d="M1498.28,669.17h0c0,.07,0,.07,0,0h0Z"/><path class="cls-20" d="M1760.56,63.85c-93.65.28-195.59,3.31-231.12,14.2-71.55,22,0,591.12,0,591.12H1942V66.08l-8.53-.22C1909.42,65.24,1837.81,63.61,1760.56,63.85Z"/><path class="cls-10" d="M858,130c-.14.44-.33,1-.59,1.69s-.49,1.34-.72,1.93a19.62,19.62,0,0,0-1.24,4.41c0,.6.51,1,1.52,1h.39q5.31-.21,5.3-1.86a17,17,0,0,0-1.51-4.69c-1.11-2.57-1.88-3.85-2.34-3.86l-.1,0a.7.7,0,0,0-.37.44.77.77,0,0,0-.07.16A7.35,7.35,0,0,0,858,130Z"/><path class="cls-10" d="M804.55,140.18l-1.52-.35.28,5.45a44,44,0,0,0,.48,6,.68.68,0,0,0,.18.27,2.23,2.23,0,0,0,1.38.32,12.62,12.62,0,0,0,4.37-.93,7.6,7.6,0,0,0,3.42-2.1,7.31,7.31,0,0,0,1.17-3.65l0,0a6.78,6.78,0,0,0,.09-1.47,3.16,3.16,0,0,0-.9-2.21,2.78,2.78,0,0,0-.66-.47,8.32,8.32,0,0,0-3.56-.61A30.33,30.33,0,0,1,804.55,140.18Z"/><path class="cls-10" d="M506.26,137.47a8.42,8.42,0,0,0,2.31-1,29.56,29.56,0,0,0,3.13-1.93,5.23,5.23,0,0,0,1.2-1.21,1.94,1.94,0,0,0,.39-1.1,2,2,0,0,0-1.1-1.72,4.61,4.61,0,0,0-2.83-.83c-.83,0-1.24.21-1.24.53a4.79,4.79,0,0,1-1,1.93,6.88,6.88,0,0,0-1.17,4.41C505.92,137.15,506,137.47,506.26,137.47Z"/><path class="cls-10" d="M457.74,147.69l1.93,1.11,4-1c2.62-.64,4.09-1.18,4.41-1.6,1-1.2,1.45-3.1,1.45-5.72a11,11,0,0,0-.07-1.52,6.82,6.82,0,0,0-.44-2,6.37,6.37,0,0,0-.58-1.17,64.15,64.15,0,0,0-5.31-5.2,3.1,3.1,0,0,0-1.72-1c-.5,0-1.34.68-2.51,2a33.13,33.13,0,0,0-3.48,4.92q-1.8,3-1.8,4.34a6,6,0,0,0,.07,1A7.45,7.45,0,0,0,457.74,147.69Z"/><path class="cls-10" d="M904.69,137.47a8.55,8.55,0,0,0,2.31-1,30.75,30.75,0,0,0,3.14-1.93,5.67,5.67,0,0,0,1.2-1.21,2,2,0,0,0,.38-1.1,2,2,0,0,0-1.1-1.72,4.61,4.61,0,0,0-2.83-.83c-.82,0-1.24.21-1.24.53a4.72,4.72,0,0,1-1,1.93,6.77,6.77,0,0,0-1.17,4.41C904.35,137.15,904.46,137.47,904.69,137.47Z"/><path class="cls-10" d="M807.93,123a6.93,6.93,0,0,0-3.66-1c-.73,0-1.19.12-1.37.35s-.35,1.91-.35,5c0,.39,0,.75,0,1.09,0,2.37.13,3.61.33,3.71a.28.28,0,0,0,.21.07,5.41,5.41,0,0,0,2.62-1.41,11.32,11.32,0,0,0,2.62-2.73,6,6,0,0,0,1.1-3A2.6,2.6,0,0,0,807.93,123Z"/><path class="cls-10" d="M1110,119.63q0,.75.48,6.89.42,4.2.83,9.37a16.54,16.54,0,0,0,.41,2.72.87.87,0,0,0,.9.59,5.87,5.87,0,0,0,3.49-1.3,13.34,13.34,0,0,0,2.15-2,19.86,19.86,0,0,0,4.14-8h0a9.52,9.52,0,0,0,.41-2.19,11.83,11.83,0,0,0-1.45-3.86,18.7,18.7,0,0,0-2.55-4.27c-.59-.6-1.86-.9-3.79-.9a9.89,9.89,0,0,0-3.58.54,5,5,0,0,0-.86.34,1.08,1.08,0,0,0-.41.61A4.72,4.72,0,0,0,1110,119.63Z"/><path class="cls-10" d="M541,91.48H370.57a28.12,28.12,0,0,0-2.92.15c-1,.1-1.91.25-2.84.44-.47.09-.93.2-1.39.32a27,27,0,0,0-4,1.35,28.6,28.6,0,0,0-3.7,1.89c-.79.48-1.55,1-2.29,1.55a28.42,28.42,0,0,0-4.06,3.69c-.31.34-.61.68-.9,1s-.8,1-1.18,1.54-.62.9-.92,1.37A29.28,29.28,0,0,0,344.2,109c-.24.57-.46,1.16-.66,1.75s-.4,1.22-.58,1.85-.34,1.34-.47,2-.28,1.59-.37,2.41l0,.29c-.09.93-.14,1.87-.14,2.82v34.61a28.81,28.81,0,0,0,.58,5.77c.1.46.21.93.32,1.38.24.92.52,1.81.84,2.69a28.43,28.43,0,0,0,2.41,5c.48.78,1,1.55,1.54,2.28a28.61,28.61,0,0,0,22.93,11.51h840.94a28.66,28.66,0,0,0,28.62-28.63V120.11a28.5,28.5,0,0,0-7.44-19.24c-.62-.68-1.27-1.33-1.94-1.94s-1.39-1.2-2.12-1.75-1.5-1.07-2.29-1.55a28.66,28.66,0,0,0-5-2.4,25.38,25.38,0,0,0-2.69-.84c-.46-.12-.92-.23-1.39-.32-.93-.19-1.87-.34-2.84-.44a28.12,28.12,0,0,0-2.92-.15ZM377.62,130.4a4.7,4.7,0,0,1-3.65,1.31,5,5,0,0,0-2,.21,1.3,1.3,0,0,0-.54,1v1a25.59,25.59,0,0,0,1.31,7.1,27,27,0,0,1,1.18,7.93,13.6,13.6,0,0,1-1.18,6.27,9.26,9.26,0,0,1-8.75,5.37,16.52,16.52,0,0,1-1.86-.07q-4.43-.47-6.09-2.07l-.13-.15a3.14,3.14,0,0,1-.34-.4,3.06,3.06,0,0,1-.35-.64,6.62,6.62,0,0,1-.48-1.86,4.37,4.37,0,0,1,1.24-2.41,4.48,4.48,0,0,1,1.73-1.28,14.64,14.64,0,0,1,3.37-.24H365l.14-2.2v-.49a22.78,22.78,0,0,0-1-5.79,32.12,32.12,0,0,1-1.24-8.82v-1.24a14.06,14.06,0,0,1,.29-3.24,10.12,10.12,0,0,1,1.09-2.36,10.66,10.66,0,0,1,2.05-2.61,7.56,7.56,0,0,1,.87-.72,6.81,6.81,0,0,1,4.2-1.17,10.16,10.16,0,0,1,4.37,1,4.9,4.9,0,0,1,2.67,2.55,6.25,6.25,0,0,1,.48,1.79A3.86,3.86,0,0,1,377.62,130.4Zm48.3-7.47a3.4,3.4,0,0,1-.64.67,4.33,4.33,0,0,1-2.83.87,9.9,9.9,0,0,1-3.93-.9,9.39,9.39,0,0,0-8.44.69,8.57,8.57,0,0,0-3.53,3.72,10.22,10.22,0,0,0-.83,4.75,7.68,7.68,0,0,0,.41,3.07,14.92,14.92,0,0,0,2.41,2.73,12.22,12.22,0,0,0,8.55,3.65c.51,0,1.31-.05,2.41-.14a16.29,16.29,0,0,1,2.21-.14,3.41,3.41,0,0,1,2.48,1,4.06,4.06,0,0,1,1.17,3,4.71,4.71,0,0,1-1.51,3.52h0a3.94,3.94,0,0,1-2.1,1.17,33.89,33.89,0,0,1-4.93.21,32.44,32.44,0,0,1-5.21-.28,14.35,14.35,0,0,1-3.68-1.38,24.12,24.12,0,0,1-9.65-8.68,8.19,8.19,0,0,1-1.24-2.38,13.77,13.77,0,0,1-.27-3.27c0-.18,0-.54,0-1s0-.92,0-1.24a32.47,32.47,0,0,1,.38-5.31,16.25,16.25,0,0,1,1.61-3.93,15.75,15.75,0,0,1,5.11-6,30.42,30.42,0,0,1,9-3.49,6.63,6.63,0,0,1,1.72-.2,20.31,20.31,0,0,1,8.07,1.86,9.21,9.21,0,0,1,3.73,2.59,3.14,3.14,0,0,1,.7,1.89A5,5,0,0,1,425.92,122.93Zm51.19,23.87c-1.07,2.94-2.38,5-3.94,6.23s-4.33,2.33-8.33,3.34a23.9,23.9,0,0,1-5,.9,14.17,14.17,0,0,1-6-2,16.9,16.9,0,0,1-6.48-5.88,14.43,14.43,0,0,1-2.27-7.82,16.49,16.49,0,0,1,1.86-7.44c.32-.61.66-1.2,1-1.79a40.64,40.64,0,0,1,3.55-5q3.09-3.87,4.69-4.69a7,7,0,0,1,3.45-1,4.45,4.45,0,0,1,3.5,1.39,4.49,4.49,0,0,0,.74.58c.15.09.3.15.45.23s.26.14.4.2.32.08.48.13.28.09.42.11a4.89,4.89,0,0,0,.54,0c.14,0,.27,0,.41,0a7.1,7.1,0,0,1,3.42.69,15.11,15.11,0,0,1,3.34,2.89,20.34,20.34,0,0,1,3,4c.18.41.34.84.49,1.26a15.65,15.65,0,0,1,.79,3.31,36.46,36.46,0,0,1,.54,5.1,15.66,15.66,0,0,1-.48,3.41A15.91,15.91,0,0,1,477.11,146.8Zm50.25,9.8a3.58,3.58,0,0,1-1.44,1.52,4.58,4.58,0,0,1-2.07.62q-1.56,0-4.13-2c-.57-.44-1.18-1-1.83-1.57s-1.26-1.13-1.92-1.66a37.94,37.94,0,0,0-6.38-4.19,16.65,16.65,0,0,0-4.14-1.72q-.76,0-.93,1a28.58,28.58,0,0,0-.18,3.93v1a21.68,21.68,0,0,1-.2,3.86,4.27,4.27,0,0,1-1.24,1.93,4.2,4.2,0,0,1-3,1.45,3.71,3.71,0,0,1-2.09-.75,3.85,3.85,0,0,1-.56-.51q-1.6-1.6-1.6-5.59,0-2.82.76-9.51,1-8.34,1.17-12.89a27.84,27.84,0,0,1,.41-4.89c.18-.68,1-1.6,2.48-2.75a17.27,17.27,0,0,1,4.14-2.49,10.48,10.48,0,0,1,3.38-.53,16,16,0,0,1,7.06,1.75,14,14,0,0,1,3,1.87,13.41,13.41,0,0,1,2.39,2.6,11.58,11.58,0,0,1,.42,10.1,13.56,13.56,0,0,1-3.38,3.82l-2.2,1.79,1.7.81c.1.05.2.12.3.18a36.48,36.48,0,0,1,6,4.83c2.8,2.59,4.3,4.26,4.48,5a3.84,3.84,0,0,1,.14.9A4.59,4.59,0,0,1,527.36,156.6Zm46.74-8.29a5.45,5.45,0,0,1-2.86,2.79,43.23,43.23,0,0,1-7.48,2.45,32.23,32.23,0,0,1-7.31,1.17h0a8.27,8.27,0,0,1-7.16-3.93,19,19,0,0,1-2.28-5.37,28.17,28.17,0,0,1-.85-3.37,27,27,0,0,1-.41-2.7v-1.51q0-5.31.45-14.27a93.9,93.9,0,0,1,.73-9.85q1-2.49,4.61-2.49a42.66,42.66,0,0,0,5.17-.76,30.84,30.84,0,0,1,6.34-.75h0a7.14,7.14,0,0,1,3.74.68,3.49,3.49,0,0,1,1.52,3,4.41,4.41,0,0,1-2.07,3.74,12.71,12.71,0,0,1-3.58.69c-2.58.36-4.41.64-5.52.82l-2.75.53.13,4.34.07,4.28,3.37-.07.74-.07h.15a10,10,0,0,0,3.3-.75,1.18,1.18,0,0,0,.22-.14,4,4,0,0,1,2.34-.69h0a4.79,4.79,0,0,1,3,1,3.1,3.1,0,0,1,1.35,2.55,5,5,0,0,1-1.35,3,6.07,6.07,0,0,1-3,2.14,48.83,48.83,0,0,1-5.21,1,46.55,46.55,0,0,1-5.27.66c-.23,0-.35.44-.35,1.31a16.81,16.81,0,0,0,1.24,6.41,5.78,5.78,0,0,0,1,1.82,1.83,1.83,0,0,0,1.34.45,18.08,18.08,0,0,0,5.48-1.17,12.59,12.59,0,0,0,4.51-2.28,4.59,4.59,0,0,1,3.24-1.38h0l.2,0a3.75,3.75,0,0,1,2.78,1.36,4.11,4.11,0,0,1,1.17,2.55A8.28,8.28,0,0,1,574.1,148.31Zm81-17.92a3.18,3.18,0,0,1-2.24,2.1,4.29,4.29,0,0,1-.49.13,37.75,37.75,0,0,1-5.92.65l-.31,0-6.07.27-.27,6.55c0,.92-.07,2.25-.07,4a76.39,76.39,0,0,0,.89,11.3,6.75,6.75,0,0,1,.14,1.1c0,.65-.48,1.38-1.44,2.21a4.6,4.6,0,0,1-2.9,1.31h0a4.65,4.65,0,0,1-3.18-1.65,6.24,6.24,0,0,1-1.51-2.18,21.69,21.69,0,0,1-.62-4.24c-.18-2.49-.28-5.11-.28-7.85,0-1.47,0-2.53.07-3.17l.21-6.34-2.07-.14c-3.4-.18-5.7-.59-6.89-1.21a3.22,3.22,0,0,1-1.79-3.14,4.48,4.48,0,0,1,1.51-3.78q1.51-1.17,5-1.17h0a15.22,15.22,0,0,1,1.79.07h0c.55,0,1.55.06,3.12.06h.15c3,0,5.67-.08,8-.22l.9,0,.58,0,9.16-.58h.33a3.16,3.16,0,0,1,.68.08h.07a5.4,5.4,0,0,1,2.37,1.43,4,4,0,0,1,1.45,2.62A5.92,5.92,0,0,1,655.07,130.39Zm47.41-14.82q-.29,3.18-.54,18.54-.13,10.48-.27,12.44a3.76,3.76,0,0,1-1,2.67,3.49,3.49,0,0,1-2.34.9,3.79,3.79,0,0,1-3.45-2.36q-1.6-3-1.6-9.87v-5.08h-3.77a34.58,34.58,0,0,0-5.93.42c-1.52.27-2.28.92-2.28,1.93a6.29,6.29,0,0,0,1,2.9,6.31,6.31,0,0,1,.89,3.16c0,.28,0,.87-.13,1.79q-.76,5-3.45,6a5.75,5.75,0,0,1-1.79.35,3,3,0,0,1-2.54-1.51q-1.29-1.93-1.68-6.37-.42-3.33-.42-23.09c0-.38,0-.73,0-1.08,0-2.9,0-4.61.07-5.1h0a3.79,3.79,0,0,1,1.38-2.21,3.59,3.59,0,0,1,2.83-1.38,4.24,4.24,0,0,1,3,1.38l1.3,1.31h0q-.06,2.28-.34,6.86t-.33,6.85l6.19-.42q6.23-.41,6.34-.48a.3.3,0,0,0,0-.09c0-.35.19-2.08.42-5.2,0-.4.06-.81.09-1.26q.27-4.74.48-5.75a3.35,3.35,0,0,1,1.31-1.9,4.47,4.47,0,0,1,2.89-1.24h0a1.38,1.38,0,0,0,.2,0,3.81,3.81,0,0,1,2.46,1.25,3.42,3.42,0,0,1,1.07,1.74,4,4,0,0,1,.12.71C702.75,112.5,702.66,113.55,702.48,115.57Zm46.1,32.76a5.45,5.45,0,0,1-2.86,2.79,44.13,44.13,0,0,1-7.48,2.45,32.23,32.23,0,0,1-7.3,1.17,8.29,8.29,0,0,1-7.17-3.93,19,19,0,0,1-2.28-5.38,28.48,28.48,0,0,1-1.24-6.06v-1.52q0-5.29.45-14.27a94.21,94.21,0,0,1,.73-9.85h0q1-2.49,4.62-2.49a43,43,0,0,0,5.17-.76,30.68,30.68,0,0,1,6.34-.75,11,11,0,0,1,2.74.28h0a3.8,3.8,0,0,1,.6.21l.17.08c.06,0,.14.06.2.1a3.49,3.49,0,0,1,1.52,3,4.44,4.44,0,0,1-.27,1.53,5.11,5.11,0,0,1-.22.48,4.17,4.17,0,0,1-1.6,1.73,13,13,0,0,1-3.59.69c-2.57.36-4.41.64-5.51.82l-2.75.53.13,4.33.07,4.27,3.38-.07c2.35-.18,3.82-.53,4.42-1a3.81,3.81,0,0,1,2.34-.69,4.78,4.78,0,0,1,3,1,3.1,3.1,0,0,1,1.35,2.55,3.48,3.48,0,0,1-.34,1.45,6.9,6.9,0,0,1-1,1.6,6,6,0,0,1-3,2.14,45.87,45.87,0,0,1-5.2,1,46.55,46.55,0,0,1-5.27.66c-.12,0-.2.11-.26.32a3.86,3.86,0,0,0-.09,1,17.13,17.13,0,0,0,1.24,6.41,6.39,6.39,0,0,0,1,1.83,1.84,1.84,0,0,0,1.35.44,17.78,17.78,0,0,0,5.48-1.17A12.69,12.69,0,0,0,742,143a4.61,4.61,0,0,1,3.24-1.38,3.76,3.76,0,0,1,3,1.38,4.14,4.14,0,0,1,1.17,2.55c0,.24-.06.49-.11.73A8.39,8.39,0,0,1,748.58,148.33Zm70,6.15q-3.66,3.83-11.37,5.14a16.75,16.75,0,0,1-2.55.2,8,8,0,0,1-1.62-.16,10.47,10.47,0,0,1-4.68-2.39l-2-1.73-.35-6.13q-1.31-20.47-1.31-25.92a20.21,20.21,0,0,1,.07-2.2,8.92,8.92,0,0,1,1.6-3.74,6.7,6.7,0,0,1,3-2.41,12.27,12.27,0,0,1,4.49-.54h1.31A18.86,18.86,0,0,1,809,115h0a12.79,12.79,0,0,1,2.79,1.27,13.22,13.22,0,0,1,3.93,3.59,9.07,9.07,0,0,1,1.6,5.24,10.74,10.74,0,0,1-1.17,4.81,9.88,9.88,0,0,0-1.1,2.75.53.53,0,0,0,.1.29,5.65,5.65,0,0,0,1.46,1.1l.23.13c1.07.55,2.28,1.88,3.65,4a16.71,16.71,0,0,1,1.45,2.9,9.28,9.28,0,0,1,.34,2.82Q822.21,150.66,818.54,154.48Zm55.64-.84a4.34,4.34,0,0,1-1.86.53,2.82,2.82,0,0,1-1.71-.61,9.15,9.15,0,0,1-2.59-3.68c-1-2.17-1.67-3.38-2-3.64a2,2,0,0,0-.69-.06,16.37,16.37,0,0,0-3,.34q-2.08.42-6.9.9l-3.85.34-1.73,4.2q-2.85,7.11-5.88,7.11a3.82,3.82,0,0,1-2.07-.71,3,3,0,0,1-.57-.49,3.36,3.36,0,0,1-1.24-2.41q0-1.36,3.1-9,2.89-7.31,4.76-12.68c.78-2.43,1.52-4.51,2.24-6.23s1.39-3.51,2-5.35a17.73,17.73,0,0,1,3.45-6.2,4.76,4.76,0,0,1,3.31-1.65,3.61,3.61,0,0,1,2,.63q2.89,1.86,5.48,9.31A14.39,14.39,0,0,0,868,127.7a75.29,75.29,0,0,1,2.62,7.1,68.19,68.19,0,0,0,4,9.88,12.29,12.29,0,0,1,1.79,5.51A3.66,3.66,0,0,1,874.18,153.64Zm51.62,3a3.52,3.52,0,0,1-1.45,1.51,4.46,4.46,0,0,1-2.07.62,5,5,0,0,1-2.52-.89,22,22,0,0,1-3.42-2.7,38.16,38.16,0,0,0-8.34-5.87,22.9,22.9,0,0,0-3.91-1.7l-.21,0a.9.9,0,0,0-.34.06,1,1,0,0,0-.5.59,1.93,1.93,0,0,0-.09.31,27.21,27.21,0,0,0-.17,3.93v1a22.49,22.49,0,0,1-.21,3.85,5.19,5.19,0,0,1-4.2,3.38,3.87,3.87,0,0,1-.76-.11,3.67,3.67,0,0,1-1.88-1.13q-1.61-1.6-1.6-5.59,0-2.82.75-9.51,1-8.34,1.18-12.89a26.82,26.82,0,0,1,.41-4.89c.18-.69,1-1.6,2.48-2.75a17.08,17.08,0,0,1,4.14-2.49,10.46,10.46,0,0,1,3.37-.53,15.71,15.71,0,0,1,5.39,1,17,17,0,0,1,1.69.75,13.3,13.3,0,0,1,5.35,4.45,9.71,9.71,0,0,1,1.38,5.58,9.58,9.58,0,0,1-1,4.52,13.53,13.53,0,0,1-3.37,3.82l-2.21,1.79,1.72.83a35.61,35.61,0,0,1,6.27,5q4.21,3.88,4.48,5a3.37,3.37,0,0,1,.14.89A4.59,4.59,0,0,1,925.8,156.59Zm53.34-26.2a3.18,3.18,0,0,1-2.24,2.1h0a32.9,32.9,0,0,1-6.72.79l-6,.28-.28,6.54c0,.92-.07,2.25-.07,4a73.79,73.79,0,0,0,.9,11.3,10,10,0,0,1,.14,1.1c0,.65-.49,1.38-1.45,2.21a3.88,3.88,0,0,1-6.08-.34,6,6,0,0,1-1.52-2.17,22.48,22.48,0,0,1-.62-4.24q-.27-3.74-.27-7.86c0-1.46,0-2.52.07-3.17l.2-6.34-2.06-.14q-5.12-.27-6.9-1.2a3.26,3.26,0,0,1-1.79-3.14,4.5,4.5,0,0,1,1.52-3.79,4.66,4.66,0,0,1,1.41-.71,11.55,11.55,0,0,1,3.57-.46,15.39,15.39,0,0,1,1.79.07l.26,0c.36,0,.87,0,1.54,0h1.36q5.16,0,9.09-.27,8.48-.55,9.85-.62H975a4.65,4.65,0,0,1,3.12,1.51,4,4,0,0,1,1.44,2.62A5.64,5.64,0,0,1,979.14,130.39Zm46.51,17.94a5.45,5.45,0,0,1-2.86,2.79,44.13,44.13,0,0,1-7.48,2.45,32.23,32.23,0,0,1-7.3,1.17,8.27,8.27,0,0,1-7.17-3.93,18.18,18.18,0,0,1-2.18-5.05c0-.12-.06-.22-.1-.34a28.57,28.57,0,0,1-1.24-6.07v-1.51q0-5.31.45-14.27t.72-9.85q1-2.49,4.62-2.49a43,43,0,0,0,5.17-.76,30.76,30.76,0,0,1,6.34-.75,7.17,7.17,0,0,1,3.74.68,3.54,3.54,0,0,1,1.43,2.1,4.31,4.31,0,0,1,.09.88,4.35,4.35,0,0,1-2.09,3.73,12.89,12.89,0,0,1-3.58.69c-2.58.36-4.42.64-5.52.82l-2.75.53.13,4.34.07,4.26,3.38-.07c2.34-.18,3.81-.53,4.4-1a3.86,3.86,0,0,1,2.35-.69,4.81,4.81,0,0,1,3,1,3.1,3.1,0,0,1,1.34,2.57,5,5,0,0,1-1.34,3,6.07,6.07,0,0,1-3,2.14,48.83,48.83,0,0,1-5.21,1,46.55,46.55,0,0,1-5.27.66c-.23,0-.35.44-.35,1.31a17.05,17.05,0,0,0,.7,4.86,13.89,13.89,0,0,0,.54,1.53,5.83,5.83,0,0,0,1,1.83,1.82,1.82,0,0,0,1.34.44,17.72,17.72,0,0,0,5.48-1.17A12.85,12.85,0,0,0,1019,143a4.55,4.55,0,0,1,3.24-1.38,3.74,3.74,0,0,1,3,1.38,4.05,4.05,0,0,1,1,1.84,3.7,3.7,0,0,1,.13.74A8.35,8.35,0,0,1,1025.65,148.33ZM1083,128.75q-.4,1.45-2.61,10.2a46.51,46.51,0,0,1-1.26,4.52c-.44,1.31-.93,2.61-1.48,3.88a12.9,12.9,0,0,1-3.17,4.81h0a5.85,5.85,0,0,1-3.86,1.1,15.84,15.84,0,0,1-9.72-3.37,20.12,20.12,0,0,1-4.27-4.69,22.76,22.76,0,0,0-2.76-3.1l0,0s0,0,0,0a.49.49,0,0,0,0,.07,30.69,30.69,0,0,0-.57,3.35c-.07.56-.15,1.17-.23,1.86a32.25,32.25,0,0,1-.69,4.58,4.82,4.82,0,0,1-1,2,4,4,0,0,1-.65.57,4.07,4.07,0,0,1-2.4.75,4.27,4.27,0,0,1-2.83-1,3.77,3.77,0,0,1-1.17-3.09c0-.19,0-.52,0-1s0-.82,0-1.1a71.65,71.65,0,0,1,1-9.58,24.81,24.81,0,0,1,1.72-6.69,12.33,12.33,0,0,1,2.82-3.84,4.86,4.86,0,0,1,3.19-1.27,4,4,0,0,1,2.73.86,19,19,0,0,1,2.86,4q6.68,11.58,10.68,11.58a.22.22,0,0,0,.14-.06q1.19-.92,4.47-14.54c.82-3.26,1.43-5.39,1.82-6.41a5.64,5.64,0,0,1,1.83-2.48h0a5.24,5.24,0,0,1,4.68-.14,3.2,3.2,0,0,1,1.8,3.1,19.85,19.85,0,0,1-.47,3.06A18.36,18.36,0,0,1,1083,128.75Zm45.34,6.45a25,25,0,0,1-6.58,8.47,22.06,22.06,0,0,1-2.63,1.88,15.64,15.64,0,0,1-8.23,2.42,4.71,4.71,0,0,1-.53,0,2.28,2.28,0,0,0-.45,0,18.78,18.78,0,0,1-4.07-.72,3.2,3.2,0,0,1-1.51-1.61q-.54-1.17-1.55-11.68t-1-15.4v-.64a9,9,0,0,1,1.45-5.17,9.4,9.4,0,0,1,4.68-2.83,28.33,28.33,0,0,1,8.34-1.1h0a17.71,17.71,0,0,1,4.7.48,7.71,7.71,0,0,1,3.3,2.11,16.39,16.39,0,0,1,3,4q2.63,5.17,3.23,6.63a9.86,9.86,0,0,1,.54,3.41A22,22,0,0,1,1128.32,135.2Zm48.75,13.13a5.47,5.47,0,0,1-2.87,2.79,43.82,43.82,0,0,1-7.48,2.45,32.23,32.23,0,0,1-7.3,1.17,8.12,8.12,0,0,1-6.6-3.17c-.2-.25-.4-.5-.59-.78a19,19,0,0,1-2.27-5.37,28.57,28.57,0,0,1-1.24-6.07v-1.51q0-5.31.44-14.27a97.25,97.25,0,0,1,.73-9.85q1-2.49,4.62-2.49a43.24,43.24,0,0,0,5.17-.76,30.68,30.68,0,0,1,6.34-.75,11.64,11.64,0,0,1,2.63.25l.28.07.33.12a1.91,1.91,0,0,1,.43.21l.07,0a3.65,3.65,0,0,1,.65.59,3.47,3.47,0,0,1,.88,2.39,4.08,4.08,0,0,1-.48,2,4.17,4.17,0,0,1-1.6,1.73,13,13,0,0,1-3.58.69c-2.58.36-4.42.64-5.52.82l-2.75.53.14,4.34.06,4.26,3.36-.07c2.35-.18,3.82-.53,4.41-1a3.85,3.85,0,0,1,2.34-.69,4.83,4.83,0,0,1,3,1,3,3,0,0,1,.56.51,3.16,3.16,0,0,1,.8,2.06,5.12,5.12,0,0,1-1.35,3,6,6,0,0,1-3,2.14,45.87,45.87,0,0,1-5.2,1,46.55,46.55,0,0,1-5.27.66c-.23,0-.35.44-.35,1.31a16.64,16.64,0,0,0,1.25,6.41,5.52,5.52,0,0,0,1,1.81,1.8,1.8,0,0,0,1.33.44,17.72,17.72,0,0,0,5.48-1.17,12.59,12.59,0,0,0,4.51-2.27,4.57,4.57,0,0,1,3.25-1.38,3.75,3.75,0,0,1,3,1.38,4,4,0,0,1,.81,1.18,4.21,4.21,0,0,1,.37,1.4A8.33,8.33,0,0,1,1177.07,148.33ZM1215,122.5a13.27,13.27,0,0,1,5.34,4.45,11.58,11.58,0,0,1,.42,10.1,13.56,13.56,0,0,1-3.38,3.82l-2.2,1.79,1.72.83a35.61,35.61,0,0,1,6.27,5c2.8,2.59,4.3,4.26,4.48,5a3.84,3.84,0,0,1,.14.89,4.94,4.94,0,0,1-.32,1.66,4,4,0,0,1-.25.56,3.47,3.47,0,0,1-1.45,1.51,4.42,4.42,0,0,1-2.06.62,2.91,2.91,0,0,1-.57-.06c-1.33-.26-3.13-1.43-5.39-3.53a38.1,38.1,0,0,0-8.33-5.87,22.7,22.7,0,0,0-3.92-1.7l-.19,0a.82.82,0,0,0-.61.24.78.78,0,0,0-.1.15,1.42,1.42,0,0,0-.22.57,27.22,27.22,0,0,0-.18,3.93v1a22.48,22.48,0,0,1-.2,3.85,5.19,5.19,0,0,1-4.21,3.38,3.66,3.66,0,0,1-.74-.1,3.7,3.7,0,0,1-1.9-1.14q-1.6-1.6-1.61-5.59c0-1.88.26-5.05.76-9.51q1-8.34,1.17-12.89a26.43,26.43,0,0,1,.42-4.89c.18-.68,1-1.6,2.48-2.75a17.08,17.08,0,0,1,4.14-2.49,10.46,10.46,0,0,1,3.37-.53A15.75,15.75,0,0,1,1215,122.5Z"/><path class="cls-10" d="M1206.08,137.47a8.7,8.7,0,0,0,2.31-1,28.58,28.58,0,0,0,3.13-1.93,5.51,5.51,0,0,0,1.21-1.21,2,2,0,0,0,.38-1.1,2,2,0,0,0-1.1-1.72,4.61,4.61,0,0,0-2.83-.83c-.82,0-1.24.21-1.24.53a4.72,4.72,0,0,1-1,1.93,6.77,6.77,0,0,0-1.17,4.41C1205.74,137.15,1205.85,137.47,1206.08,137.47Z"/><path d="M411.28,78.68H359a30.8,30.8,0,0,0-30.76,30.77v55A30.8,30.8,0,0,0,359,195.25h863.35a30.79,30.79,0,0,0,30.76-30.77v-55a30.79,30.79,0,0,0-30.76-30.77h-80.15L1163.52-63,1178-159.06l-2.14-.32L1161.35-63,1140,78.68H413.42L404.58-2.76l-16-146.89-2.14.23L402.43-2.76ZM541,91.48h670.56a28.12,28.12,0,0,1,2.92.15c1,.1,1.91.25,2.84.44.47.09.93.2,1.39.32a25.38,25.38,0,0,1,2.69.84,28.66,28.66,0,0,1,5,2.4c.79.48,1.55,1,2.29,1.55s1.44,1.13,2.12,1.75,1.32,1.26,1.94,1.94a28.5,28.5,0,0,1,7.44,19.24v34.61a28.66,28.66,0,0,1-28.62,28.63H370.57a28.61,28.61,0,0,1-22.93-11.51c-.55-.73-1.06-1.5-1.54-2.28a28.43,28.43,0,0,1-2.41-5c-.32-.88-.6-1.77-.84-2.69-.11-.45-.22-.92-.32-1.38a28.81,28.81,0,0,1-.58-5.77V120.11c0-1,.05-1.89.14-2.82l0-.29c.09-.82.21-1.62.37-2.41s.29-1.36.47-2,.37-1.24.58-1.85.42-1.18.66-1.75a29.28,29.28,0,0,1,2.19-4.15c.3-.47.6-.92.92-1.37s.77-1,1.18-1.54.59-.7.9-1a28.42,28.42,0,0,1,4.06-3.69c.74-.55,1.5-1.07,2.29-1.55a28.6,28.6,0,0,1,3.7-1.89,27,27,0,0,1,4-1.35c.46-.12.92-.23,1.39-.32.93-.19,1.87-.34,2.84-.44a28.12,28.12,0,0,1,2.92-.15Z"/><path class="cls-21" d="M375.76,123.73a10.07,10.07,0,0,0-4.38-1,7,7,0,0,0-4.2,1.17,9.68,9.68,0,0,0-.85.71,10.66,10.66,0,0,0-2.05,2.61,10.12,10.12,0,0,0-1.09,2.36,13.77,13.77,0,0,0-.27,3.27v1.24a32.12,32.12,0,0,0,1.24,8.82,23.23,23.23,0,0,1,1,5.79v.48l-.14,2.21h-3.86a14.77,14.77,0,0,0-3.38.24,4.44,4.44,0,0,0-1.72,1.28,4.3,4.3,0,0,0-1.24,2.41,6.08,6.08,0,0,0,.48,1.86,2.59,2.59,0,0,0,.33.61,3.14,3.14,0,0,0,.34.4l.13.15q1.67,1.6,6.09,2.07a16.52,16.52,0,0,0,1.86.07,9.26,9.26,0,0,0,8.75-5.37,13.6,13.6,0,0,0,1.18-6.27,27,27,0,0,0-1.18-7.93,25.59,25.59,0,0,1-1.31-7.1v-1a1.3,1.3,0,0,1,.54-1,5,5,0,0,1,2-.21,4.7,4.7,0,0,0,3.65-1.31,3.86,3.86,0,0,0,1.3-2.35,6.25,6.25,0,0,0-.48-1.79A4.89,4.89,0,0,0,375.76,123.73Z"/><path class="cls-21" d="M422.73,115.51a20.14,20.14,0,0,0-8.07-1.86,5.87,5.87,0,0,0-1.72.2,30.23,30.23,0,0,0-9,3.48,16,16,0,0,0-5.1,6,16.56,16.56,0,0,0-1.6,3.93,32.55,32.55,0,0,0-.38,5.31c0,.32,0,.73,0,1.24s0,.85,0,1a13.89,13.89,0,0,0,.27,3.28,8.52,8.52,0,0,0,1.24,2.37,24.28,24.28,0,0,0,9.65,8.69,14.8,14.8,0,0,0,3.69,1.38,32.44,32.44,0,0,0,5.21.27,35.15,35.15,0,0,0,4.92-.2,4,4,0,0,0,2.1-1.17h0a4.71,4.71,0,0,0,1.51-3.52,4.06,4.06,0,0,0-1.17-3,3.41,3.41,0,0,0-2.48-1,16.29,16.29,0,0,0-2.21.14c-1.1.09-1.9.14-2.41.14a12.22,12.22,0,0,1-8.55-3.65,14.92,14.92,0,0,1-2.41-2.73,7.68,7.68,0,0,1-.41-3.07,10.22,10.22,0,0,1,.83-4.75,9,9,0,0,1,1.48-2.13,9.23,9.23,0,0,1,2.06-1.61,9.41,9.41,0,0,1,8.45-.69,9.86,9.86,0,0,0,3.93.9,4.32,4.32,0,0,0,2.81-.85,3.4,3.4,0,0,0,.64-.67,5,5,0,0,0,1.24-3,3.14,3.14,0,0,0-.7-1.89A9.2,9.2,0,0,0,422.73,115.51Z"/><path class="cls-21" d="M477.6,136.51a15.65,15.65,0,0,0-.79-3.31c-.15-.42-.31-.85-.5-1.26a20,20,0,0,0-3-4,14.88,14.88,0,0,0-3.34-2.89,7,7,0,0,0-3.41-.69c-.14,0-.27,0-.41,0a4.89,4.89,0,0,1-.54,0c-.14,0-.28-.08-.42-.11s-.33-.07-.48-.13-.27-.14-.4-.2-.3-.14-.45-.23a4.49,4.49,0,0,1-.74-.58,4.46,4.46,0,0,0-3.51-1.38,7,7,0,0,0-3.44,1q-1.6.82-4.69,4.69a40.64,40.64,0,0,0-3.55,5c-.35.58-.68,1.17-1,1.76a16.62,16.62,0,0,0-1.86,7.44,14.49,14.49,0,0,0,2.26,7.84,17,17,0,0,0,6.48,5.88c2.53,1.33,4.53,2,6,2a24.54,24.54,0,0,0,5-.89c4-1,6.77-2.12,8.33-3.34a13.6,13.6,0,0,0,3.94-6.24,15,15,0,0,0,.55-1.76,15.66,15.66,0,0,0,.48-3.41A36.46,36.46,0,0,0,477.6,136.51Zm-9.52,9.73q-.48.63-4.41,1.6l-4,1-1.93-1.1a7.48,7.48,0,0,1-4.07-5.79,6.24,6.24,0,0,1-.07-1h0q0-1.3,1.8-4.34a33.13,33.13,0,0,1,3.48-4.92c1.17-1.36,2-2,2.51-2a3.1,3.1,0,0,1,1.72,1,64.15,64.15,0,0,1,5.31,5.2A6.37,6.37,0,0,1,469,137a7,7,0,0,1,.46,2,11,11,0,0,1,.06,1.52Q469.54,144.46,468.08,146.24Z"/><path class="cls-21" d="M523.28,148.49a36.48,36.48,0,0,0-6-4.83l-.28-.16-1.72-.83h0l2.2-1.79a13.56,13.56,0,0,0,3.38-3.82,11.58,11.58,0,0,0-.42-10.1,13.41,13.41,0,0,0-2.39-2.6,13.2,13.2,0,0,0-2.95-1.85,15.79,15.79,0,0,0-7.06-1.76,10.77,10.77,0,0,0-3.38.54,16.91,16.91,0,0,0-4.14,2.48c-1.46,1.15-2.29,2.07-2.48,2.76a27.61,27.61,0,0,0-.41,4.89q-.13,4.54-1.17,12.89-.77,6.67-.76,9.51,0,4,1.61,5.59a4.1,4.1,0,0,0,.53.49,3.71,3.71,0,0,0,2.09.75,4.2,4.2,0,0,0,3-1.45,4.27,4.27,0,0,0,1.24-1.93,21.68,21.68,0,0,0,.2-3.86v-1a28.58,28.58,0,0,1,.18-3.93q.17-1,.93-1a16.65,16.65,0,0,1,4.14,1.72,37.94,37.94,0,0,1,6.38,4.19q1,.81,1.95,1.68c.64.59,1.23,1.11,1.8,1.55q2.56,2,4.13,2a4.58,4.58,0,0,0,2.07-.62,3.58,3.58,0,0,0,1.44-1.52,4.59,4.59,0,0,0,.54-2.2,3.84,3.84,0,0,0-.14-.9C527.58,152.75,526.08,151.08,523.28,148.49Zm-17.37-12a6.88,6.88,0,0,1,1.17-4.41,4.79,4.79,0,0,0,1-1.93c0-.32.41-.53,1.24-.53a4.61,4.61,0,0,1,2.83.83,2,2,0,0,1,1.1,1.72,1.94,1.94,0,0,1-.39,1.1,5.27,5.27,0,0,1-1.2,1.23,29.56,29.56,0,0,1-3.13,1.93,8.5,8.5,0,0,1-2.31,1c-.23,0-.35-.32-.35-1Z"/><path class="cls-21" d="M570.91,141.64a1.34,1.34,0,0,0-.2,0h0a4.59,4.59,0,0,0-3.24,1.38,12.59,12.59,0,0,1-4.51,2.28,18.08,18.08,0,0,1-5.48,1.17h0a1.81,1.81,0,0,1-1.35-.45,5.78,5.78,0,0,1-1-1.82,16.81,16.81,0,0,1-1.24-6.41c0-.87.12-1.31.35-1.31a46.55,46.55,0,0,0,5.27-.66,48.18,48.18,0,0,0,5.2-1,6.05,6.05,0,0,0,3-2.14,5,5,0,0,0,1.35-3,3.13,3.13,0,0,0-1.35-2.55,4.83,4.83,0,0,0-3-1h0a4,4,0,0,0-2.34.69,1.18,1.18,0,0,1-.22.14,9.75,9.75,0,0,1-3.3.75h-.15l-.74.07-3.37.07h0l-.07-4.28-.14-4.34,2.76-.53c1.11-.18,2.94-.46,5.52-.82a13,13,0,0,0,3.58-.69,4.41,4.41,0,0,0,2.07-3.74,3.49,3.49,0,0,0-1.52-3,7.07,7.07,0,0,0-3.73-.68h0a30.84,30.84,0,0,0-6.34.75,42.66,42.66,0,0,1-5.17.76q-3.64,0-4.61,2.49a93.9,93.9,0,0,0-.73,9.85q-.45,9-.45,14.27v1.51a27,27,0,0,0,.41,2.7,27.77,27.77,0,0,0,.87,3.37,19,19,0,0,0,2.28,5.37,8.25,8.25,0,0,0,7.15,3.93h0a32.23,32.23,0,0,0,7.31-1.17,43.23,43.23,0,0,0,7.48-2.45,5.45,5.45,0,0,0,2.86-2.79,8.28,8.28,0,0,0,.76-2.76,4.11,4.11,0,0,0-1.17-2.55A3.75,3.75,0,0,0,570.91,141.64Z"/><path class="cls-21" d="M651.67,124.49h-.07a3.16,3.16,0,0,0-.68-.08h-.33l-9.16.58-.57,0-.91,0c-2.37.14-5,.22-8,.22h-.15c-1.56,0-2.61,0-3.12-.06h0a15.22,15.22,0,0,0-1.79-.07h0q-3.43,0-4.95,1.17a4.48,4.48,0,0,0-1.52,3.78,3.25,3.25,0,0,0,1.8,3.14q1.79.93,6.89,1.21l2.07.14-.21,6.34c0,.64-.07,1.7-.07,3.17q0,4.14.28,7.85a21,21,0,0,0,.62,4.24,6.11,6.11,0,0,0,1.51,2.18,4.69,4.69,0,0,0,3.17,1.65h0a4.6,4.6,0,0,0,2.9-1.31c1-.83,1.44-1.56,1.44-2.21a6.75,6.75,0,0,0-.14-1.1,76.39,76.39,0,0,1-.89-11.3c0-1.75,0-3.08.07-4l.27-6.55,6.07-.27.31,0a40.4,40.4,0,0,0,5.92-.65,4.29,4.29,0,0,0,.49-.13,3.18,3.18,0,0,0,2.24-2.1,5.92,5.92,0,0,0,.42-1.85,4,4,0,0,0-1.45-2.62A5.4,5.4,0,0,0,651.67,124.49Z"/><path class="cls-21" d="M698.34,150.09a3.48,3.48,0,0,0,2.34-.9,3.76,3.76,0,0,0,1-2.67c.09-1.33.18-5.45.28-12.44q.27-15.36.53-18.54c.18-2,.27-3.07.27-3.17a3,3,0,0,0-.1-.67,3.42,3.42,0,0,0-1.07-1.74,3.81,3.81,0,0,0-2.46-1.25,1.38,1.38,0,0,1-.2,0h0a4.47,4.47,0,0,0-2.89,1.24,3.35,3.35,0,0,0-1.31,1.9q-.21,1-.48,5.75c0,.45-.06.86-.09,1.26-.2,3.12-.34,4.85-.42,5.2a.3.3,0,0,1,0,.09q-.12.07-6.34.48l-6.19.42h0c0-1.52.16-3.81.34-6.86s.3-5.33.34-6.85h0l-1.3-1.31a4.24,4.24,0,0,0-3-1.38,3.59,3.59,0,0,0-2.83,1.38,3.79,3.79,0,0,0-1.38,2.21h0c0,.5,0,2.21-.07,5.1,0,.35,0,.7,0,1.08q0,19.77.42,23.09.39,4.44,1.68,6.37a3,3,0,0,0,2.52,1.48,5.87,5.87,0,0,0,1.8-.35q2.67-1,3.44-6c.09-.92.14-1.51.14-1.79a6.43,6.43,0,0,0-.9-3.17,6.36,6.36,0,0,1-1-2.9c0-1,.76-1.65,2.27-1.93a35.69,35.69,0,0,1,5.93-.41h3.79v5.1q0,6.87,1.6,9.87A3.79,3.79,0,0,0,698.34,150.09Z"/><path class="cls-21" d="M748.17,143a3.74,3.74,0,0,0-3-1.4A4.63,4.63,0,0,0,742,143a12.48,12.48,0,0,1-4.52,2.28,18,18,0,0,1-5.48,1.17,1.79,1.79,0,0,1-1.34-.45,5.78,5.78,0,0,1-1-1.82,16.81,16.81,0,0,1-1.24-6.41,3.93,3.93,0,0,1,.09-1c.06-.21.14-.32.26-.32a46.55,46.55,0,0,0,5.27-.66,45.87,45.87,0,0,0,5.2-1,6,6,0,0,0,3-2.14,6.9,6.9,0,0,0,1-1.6,3.56,3.56,0,0,0,.33-1.43,3.09,3.09,0,0,0-1.34-2.55,4.82,4.82,0,0,0-3-1,4,4,0,0,0-2.34.69c-.6.46-2.07.79-4.41,1l-3.38.07-.07-4.28-.13-4.34h0l2.75-.53c1.1-.18,2.94-.46,5.51-.82a13,13,0,0,0,3.59-.69,4.17,4.17,0,0,0,1.6-1.73,5.11,5.11,0,0,0,.22-.48,4.16,4.16,0,0,0,.26-1.52,3.47,3.47,0,0,0-1.52-3l-.19-.12-.17-.08a3.48,3.48,0,0,0-.6-.21h0a12.26,12.26,0,0,0-2.75-.27,31.48,31.48,0,0,0-6.34.76,42.66,42.66,0,0,1-5.17.76c-2.43,0-4,.82-4.61,2.48h0a94.21,94.21,0,0,0-.73,9.85q-.45,9-.45,14.27v1.52a28.48,28.48,0,0,0,1.24,6.06,19,19,0,0,0,2.28,5.38,8.29,8.29,0,0,0,7.17,3.93,32.23,32.23,0,0,0,7.3-1.17,44.13,44.13,0,0,0,7.48-2.45,5.45,5.45,0,0,0,2.86-2.79,8.39,8.39,0,0,0,.66-2.06,5.62,5.62,0,0,0,.1-.7A4.09,4.09,0,0,0,748.17,143Z"/><path class="cls-21" d="M807.14,159.61q7.73-1.32,11.37-5.13t3.74-10.58a9.31,9.31,0,0,0-.34-2.83,17.12,17.12,0,0,0-1.44-2.91,11.93,11.93,0,0,0-3.65-4l-.21-.12a5.65,5.65,0,0,1-1.46-1.1.53.53,0,0,1-.12-.29,10.67,10.67,0,0,1,1.1-2.76,10.74,10.74,0,0,0,1.17-4.81,9.07,9.07,0,0,0-1.6-5.24,13.06,13.06,0,0,0-3.93-3.58A11.84,11.84,0,0,0,809,115h0a18.86,18.86,0,0,0-3.89-.38h-1.31a12.27,12.27,0,0,0-4.49.54,6.7,6.7,0,0,0-3,2.41,8.92,8.92,0,0,0-1.6,3.74,20.21,20.21,0,0,0-.07,2.2q0,5.45,1.31,25.92l.35,6.13,2,1.73a10.47,10.47,0,0,0,4.68,2.39,8.45,8.45,0,0,0,1.58.15A15.69,15.69,0,0,0,807.14,159.61Zm2.3-34.47a6,6,0,0,1-1.1,3,11.32,11.32,0,0,1-2.62,2.73,5.41,5.41,0,0,1-2.62,1.41.28.28,0,0,1-.21-.07c-.2-.1-.31-1.34-.33-3.71,0-.34,0-.7,0-1.09v0c0-3.12.12-4.8.35-5s.64-.35,1.37-.35a6.93,6.93,0,0,1,3.66,1,2.57,2.57,0,0,1,1.51,2.2Zm-5.7,26.11a45.71,45.71,0,0,1-.48-6l-.27-5.45,1.51.35a31.59,31.59,0,0,0,4.76.27,8.05,8.05,0,0,1,3.61.63,2.78,2.78,0,0,1,.66.47,3.16,3.16,0,0,1,.9,2.21,6.78,6.78,0,0,1-.09,1.47l0,0a7.31,7.31,0,0,1-1.17,3.65,7.6,7.6,0,0,1-3.42,2.1,12.62,12.62,0,0,1-4.37.93,2.23,2.23,0,0,1-1.38-.32A.83.83,0,0,1,803.74,151.25Z"/><path class="cls-21" d="M870.58,134.8a75.29,75.29,0,0,0-2.62-7.1,14.39,14.39,0,0,1-1.52-3.37q-2.58-7.45-5.48-9.31a3.64,3.64,0,0,0-2-.62,4.73,4.73,0,0,0-3.31,1.66,17.63,17.63,0,0,0-3.45,6.2q-1,2.76-2,5.34c-.72,1.73-1.46,3.8-2.24,6.24q-1.86,5.39-4.76,12.68-3.09,7.57-3.1,9a3.38,3.38,0,0,0,1.24,2.41,3.51,3.51,0,0,0,.55.47,3.82,3.82,0,0,0,2.07.71q3,0,5.88-7.11l1.73-4.2,3.85-.34q4.82-.48,6.9-.9a16.37,16.37,0,0,1,3-.34,2,2,0,0,1,.69.06h0c.36.24,1.07,1.45,2.06,3.66a9.29,9.29,0,0,0,2.57,3.66,2.82,2.82,0,0,0,1.71.61,4.34,4.34,0,0,0,1.86-.53,3.66,3.66,0,0,0,2.21-3.45,12.29,12.29,0,0,0-1.79-5.51A68.19,68.19,0,0,1,870.58,134.8Zm-13.92-1.17c.23-.59.47-1.24.73-1.93s.45-1.25.58-1.69a7.41,7.41,0,0,1,.28-.79.77.77,0,0,1,.07-.16.7.7,0,0,1,.37-.44l.09,0h0c.46,0,1.23,1.29,2.34,3.86a17,17,0,0,1,1.51,4.69q0,1.65-5.3,1.86h-.4c-1,0-1.52-.32-1.52-1A19.49,19.49,0,0,1,856.66,133.63Z"/><path class="cls-21" d="M921.71,148.49a35.61,35.61,0,0,0-6.27-5l-1.72-.83,2.21-1.79a13.53,13.53,0,0,0,3.37-3.82,9.58,9.58,0,0,0,1-4.52,9.71,9.71,0,0,0-1.38-5.58,13.3,13.3,0,0,0-5.35-4.45,17,17,0,0,0-1.69-.75,15.83,15.83,0,0,0-5.37-1,10.77,10.77,0,0,0-3.38.54,16.67,16.67,0,0,0-4.13,2.48c-1.48,1.15-2.3,2.07-2.49,2.76a27.61,27.61,0,0,0-.41,4.89q-.14,4.54-1.17,12.89c-.5,4.45-.76,7.62-.76,9.51q0,4,1.61,5.58a3.68,3.68,0,0,0,1.86,1.13,3.87,3.87,0,0,0,.76.11,5.19,5.19,0,0,0,4.2-3.38,22.49,22.49,0,0,0,.21-3.85v-1a27.21,27.21,0,0,1,.17-3.93,1.93,1.93,0,0,1,.09-.31.91.91,0,0,1,.5-.59.9.9,0,0,1,.34-.06l.21,0a20.69,20.69,0,0,1,3.92,1.7,38.61,38.61,0,0,1,8.35,5.88,22,22,0,0,0,3.4,2.69,5,5,0,0,0,2.52.89,4.46,4.46,0,0,0,2.07-.62,3.52,3.52,0,0,0,1.45-1.51,4.59,4.59,0,0,0,.53-2.21,3.37,3.37,0,0,0-.14-.89Q925.92,152.38,921.71,148.49Zm-11.57-14h0a30.75,30.75,0,0,1-3.14,1.93,8.5,8.5,0,0,1-2.31,1c-.23,0-.34-.32-.34-1h0a6.77,6.77,0,0,1,1.17-4.41,4.72,4.72,0,0,0,1-1.93c0-.32.42-.53,1.24-.53a4.61,4.61,0,0,1,2.83.83,2,2,0,0,1,1.1,1.72,2,2,0,0,1-.38,1.1A5.71,5.71,0,0,1,910.14,134.53Z"/><path class="cls-21" d="M975,124.4h-.21q-1.38.06-9.85.62-3.93.27-9.09.27h-1.36c-.68,0-1.19,0-1.54,0l-.26,0a15.39,15.39,0,0,0-1.79-.07,11.55,11.55,0,0,0-3.57.46,4.6,4.6,0,0,0-1.4.71,4.48,4.48,0,0,0-1.52,3.78,3.25,3.25,0,0,0,1.8,3.14q1.78.93,6.89,1.21l2.07.14-.21,6.34c-.05.64-.07,1.7-.07,3.17q0,4.14.28,7.85a21,21,0,0,0,.62,4.24,6.11,6.11,0,0,0,1.51,2.18,4.65,4.65,0,0,0,3.18,1.65,4.31,4.31,0,0,0,.8-.13,4.55,4.55,0,0,0,2.09-1.18c1-.83,1.45-1.56,1.45-2.21a10,10,0,0,0-.14-1.1,73.79,73.79,0,0,1-.9-11.3c0-1.75,0-3.08.07-4l.28-6.54h0l6.06-.27a34.2,34.2,0,0,0,6.72-.8h0a3.18,3.18,0,0,0,2.24-2.1,5.64,5.64,0,0,0,.41-1.86,4,4,0,0,0-1.44-2.62A4.65,4.65,0,0,0,975,124.4Z"/><path class="cls-21" d="M1025.24,143a3.76,3.76,0,0,0-3-1.4A4.59,4.59,0,0,0,1019,143a12.59,12.59,0,0,1-4.51,2.28,18.14,18.14,0,0,1-5.49,1.17,1.8,1.8,0,0,1-1.34-.45,5.78,5.78,0,0,1-1-1.82c-.2-.51-.39-1-.54-1.55a17.05,17.05,0,0,1-.7-4.86c0-.87.12-1.31.35-1.31a46.55,46.55,0,0,0,5.27-.66,48.83,48.83,0,0,0,5.21-1,6.07,6.07,0,0,0,3-2.14,5,5,0,0,0,1.34-3,3.16,3.16,0,0,0-.09-.76,3.11,3.11,0,0,0-1.25-1.79,4.79,4.79,0,0,0-3-1,4,4,0,0,0-2.35.69c-.6.46-2.07.79-4.41,1l-3.38.07v0l-.07-4.26-.13-4.34,2.75-.53c1.1-.18,2.94-.46,5.52-.82a12.89,12.89,0,0,0,3.58-.69,4.35,4.35,0,0,0,2.09-3.73,4.31,4.31,0,0,0-.09-.88,3.49,3.49,0,0,0-1.43-2.08,7.17,7.17,0,0,0-3.74-.69,31.38,31.38,0,0,0-6.33.76,45.22,45.22,0,0,1-5.18.76c-2.43,0-4,.82-4.61,2.48a96,96,0,0,0-.72,9.85q-.45,9-.45,14.27v1.52a27.88,27.88,0,0,0,1.24,6.06c0,.12.06.22.09.33a18.18,18.18,0,0,0,2.18,5.05,8.27,8.27,0,0,0,7.17,3.93,32.23,32.23,0,0,0,7.3-1.17,44.13,44.13,0,0,0,7.48-2.45,5.45,5.45,0,0,0,2.86-2.79,8.35,8.35,0,0,0,.76-2.76,3.7,3.7,0,0,0-.13-.74A4.08,4.08,0,0,0,1025.24,143Z"/><path class="cls-21" d="M1082.16,120.67a5.31,5.31,0,0,0-4.68.14h0a5.64,5.64,0,0,0-1.83,2.48c-.39,1-1,3.15-1.82,6.41q-3.28,13.63-4.47,14.54a.23.23,0,0,1-.16.07q-4,0-10.68-11.58a18.68,18.68,0,0,0-2.86-4,4.14,4.14,0,0,0-2.73-.86,4.9,4.9,0,0,0-3.17,1.26,12.33,12.33,0,0,0-2.82,3.84,24.81,24.81,0,0,0-1.72,6.69,71.65,71.65,0,0,0-1,9.58c0,.28,0,.64,0,1.1s0,.78,0,1a3.77,3.77,0,0,0,1.17,3.09,4.27,4.27,0,0,0,2.83,1,4.07,4.07,0,0,0,2.4-.75,4.2,4.2,0,0,0,.63-.56,4.72,4.72,0,0,0,1-2,32.25,32.25,0,0,0,.69-4.58c.09-.7.17-1.32.25-1.88a30.69,30.69,0,0,1,.57-3.35l0-.07s0,0,0,0,0,0,0,0h0a22.76,22.76,0,0,1,2.76,3.1,20.12,20.12,0,0,0,4.27,4.69,15.84,15.84,0,0,0,9.72,3.37,5.85,5.85,0,0,0,3.86-1.1h0a13,13,0,0,0,3.16-4.8c.56-1.27,1.06-2.57,1.5-3.89a46.51,46.51,0,0,0,1.26-4.52q2.2-8.74,2.61-10.2a18.36,18.36,0,0,0,.53-1.93,19.41,19.41,0,0,0,.44-3A3.2,3.2,0,0,0,1082.16,120.67Z"/><path class="cls-21" d="M1127.23,115.3a16.39,16.39,0,0,0-3-4,7.71,7.71,0,0,0-3.3-2.11,17.71,17.71,0,0,0-4.7-.48h0a28.26,28.26,0,0,0-8.33,1.1,9.39,9.39,0,0,0-4.69,2.83,9.2,9.2,0,0,0-1.45,5.17v.62q0,4.89,1,15.4t1.55,11.68a3.22,3.22,0,0,0,1.52,1.61,18.78,18.78,0,0,0,4.07.72l.45,0,.53,0a15.6,15.6,0,0,0,8.19-2.4,22.06,22.06,0,0,0,2.63-1.88,25,25,0,0,0,6.58-8.47,22,22,0,0,0,2.68-9.86,9.86,9.86,0,0,0-.54-3.41Q1129.86,120.48,1127.23,115.3Zm-15.57,23.33a14.9,14.9,0,0,1-.41-2.72c-.28-3.45-.56-6.57-.83-9.38-.32-4.09-.48-6.41-.48-6.89a4.72,4.72,0,0,1,.17-1.45,1.07,1.07,0,0,1,.42-.62h0a5,5,0,0,1,.86-.34,9.89,9.89,0,0,1,3.58-.54c1.93,0,3.2.3,3.79.9a18.7,18.7,0,0,1,2.55,4.27,11.83,11.83,0,0,1,1.45,3.86,9.52,9.52,0,0,1-.41,2.19h0a19.86,19.86,0,0,1-4.14,8,13.34,13.34,0,0,1-2.15,2,6,6,0,0,1-3.5,1.31A.85.85,0,0,1,1111.66,138.63Z"/><path class="cls-21" d="M1176.65,143a3.74,3.74,0,0,0-3-1.4,4.59,4.59,0,0,0-3.24,1.38,12.59,12.59,0,0,1-4.51,2.28,18.14,18.14,0,0,1-5.48,1.17,1.81,1.81,0,0,1-1.35-.45h0a5.52,5.52,0,0,1-1-1.81,16.64,16.64,0,0,1-1.25-6.41c0-.87.12-1.31.35-1.31a46.55,46.55,0,0,0,5.27-.66,45.87,45.87,0,0,0,5.2-1,6,6,0,0,0,3-2.14,5.12,5.12,0,0,0,1.35-3,3.16,3.16,0,0,0-.8-2.06,2.88,2.88,0,0,0-.55-.49,4.8,4.8,0,0,0-3-1,4,4,0,0,0-2.34.69c-.6.46-2.07.79-4.41,1l-3.38.07v0l-.06-4.26-.14-4.34,2.75-.53c1.1-.18,2.94-.46,5.52-.82a13,13,0,0,0,3.58-.69,4.17,4.17,0,0,0,1.6-1.73,4.08,4.08,0,0,0,.48-2,3.47,3.47,0,0,0-.88-2.39,3.1,3.1,0,0,0-.63-.57l-.09,0a1.91,1.91,0,0,0-.43-.21l-.33-.12-.28-.07a12.92,12.92,0,0,0-2.62-.24,31.48,31.48,0,0,0-6.34.76,42.66,42.66,0,0,1-5.17.76c-2.43,0-4,.82-4.61,2.48a94.21,94.21,0,0,0-.73,9.85q-.45,9-.45,14.27v1.52a28.5,28.5,0,0,0,1.25,6.06,18.45,18.45,0,0,0,2.27,5.38c.18.27.38.52.57.76a8.12,8.12,0,0,0,6.6,3.17,32.23,32.23,0,0,0,7.3-1.17,43.82,43.82,0,0,0,7.48-2.45,5.47,5.47,0,0,0,2.87-2.79,8.33,8.33,0,0,0,.75-2.76,4.21,4.21,0,0,0-.37-1.4A4.1,4.1,0,0,0,1176.65,143Z"/><path class="cls-21" d="M1227.58,153.49q-.27-1.11-4.48-5a36,36,0,0,0-6.26-5l-1.73-.83,2.21-1.79a13.53,13.53,0,0,0,3.37-3.82,9.58,9.58,0,0,0,1-4.52,9.71,9.71,0,0,0-1.38-5.58,13.3,13.3,0,0,0-5.35-4.45,15.76,15.76,0,0,0-7.06-1.76,10.77,10.77,0,0,0-3.38.54,16.67,16.67,0,0,0-4.13,2.48c-1.47,1.15-2.3,2.07-2.48,2.76a26.22,26.22,0,0,0-.42,4.89q-.14,4.54-1.17,12.89-.76,6.67-.76,9.51c0,2.66.54,4.52,1.6,5.58a3.63,3.63,0,0,0,2.62,1.24,5.19,5.19,0,0,0,4.21-3.38,22.48,22.48,0,0,0,.2-3.85v-1a27.22,27.22,0,0,1,.18-3.93,1.42,1.42,0,0,1,.22-.57.78.78,0,0,1,.1-.15.82.82,0,0,1,.61-.24l.19,0a19.22,19.22,0,0,1,3.94,1.7,38.31,38.31,0,0,1,8.34,5.88c2.24,2.08,4,3.26,5.36,3.52a2.91,2.91,0,0,0,.57.06,4.42,4.42,0,0,0,2.06-.62,3.47,3.47,0,0,0,1.45-1.51,4,4,0,0,0,.25-.56,4.9,4.9,0,0,0,.29-1.65A3.84,3.84,0,0,0,1227.58,153.49Zm-16.06-19a28.58,28.58,0,0,1-3.13,1.93,8.64,8.64,0,0,1-2.31,1c-.23,0-.34-.32-.34-1h0a6.77,6.77,0,0,1,1.17-4.41,4.72,4.72,0,0,0,1-1.93c0-.32.42-.53,1.24-.53a4.61,4.61,0,0,1,2.83.83,2,2,0,0,1,1.1,1.72,2,2,0,0,1-.38,1.1A5.55,5.55,0,0,1,1211.52,134.53Z"/><line class="cls-22" x1="65.46" y1="980.14" x2="65.46" y2="980.13"/><polygon class="cls-10" points="65.54 980.45 65.53 980.44 67.18 986.72 67.18 986.72 67.18 986.71 65.54 980.45"/><polygon class="cls-23" points="65.54 980.45 65.53 980.44 67.18 986.72 67.18 986.72 67.18 986.71 65.54 980.45"/><path class="cls-24" d="M86.05,985.67c9.43-2.92,16.53-7.07,16.32-9.4C102.58,978.6,95.47,982.75,86.05,985.67Z"/><path class="cls-24" d="M67.18,986.71h0c.25,2.57,8.92,2,18.87-1.05C76.1,988.75,67.42,989.29,67.18,986.71Z"/><path class="cls-25" d="M102.55,970.06a1.15,1.15,0,0,0,0-.26h0v.28Z"/><path class="cls-25" d="M65.46,980.13h0a1,1,0,0,0,.07.29h0Z"/><path class="cls-10" d="M104.31,908.91a1.34,1.34,0,0,0,0-.2c-.31-3.44-11.7-5.36-26.49-4.19-16.1,1.27-29.95,5.65-29.58,9.67a.85.85,0,0,0,0,.22h0l7.37,28.17.9,3.4a1.18,1.18,0,0,0,.09.37h0l8.85,33.77h0l-8.84-33.76c1.22,3,12.63,3.26,25.43.72,12-2.39,21-6.44,21.43-9.35l.66-22.48.18-6.35Z"/><path class="cls-10" d="M82.05,947.09c-12.8,2.54-24.21,2.26-25.43-.72l8.84,33.76.07.29v0l1.64,6.26c-.24-2.58,8.08-7.09,18.06-9.92,9.44-2.68,16.91-2.86,17.13-.52l.18-6.2v-.28l.93-32h0C103.08,940.65,94.05,944.7,82.05,947.09Z"/><path class="cls-26" d="M82.05,947.09c-12.8,2.54-24.21,2.26-25.43-.72l8.84,33.76.07.29v0l1.64,6.26c-.24-2.58,8.08-7.09,18.06-9.92,9.44-2.68,16.91-2.86,17.13-.52l.18-6.2v-.28l.93-32h0C103.08,940.65,94.05,944.7,82.05,947.09Z"/><path class="cls-10" d="M85.24,976.79c-10,2.83-18.3,7.34-18.06,9.92s8.92,2,18.87-1c9.42-2.92,16.53-7.07,16.32-9.4S94.68,974.11,85.24,976.79Z"/></svg>