<svg id="Layer_1" data-name="Layer 1" xmlns="http://www.w3.org/2000/svg" width="2000" height="895" viewBox="0 0 2000 895"><defs><style>.cls-1{fill:#8b5e3c;}.cls-2{fill:#a97c50;}.cls-3{fill:#ec008c;}.cls-4{fill:#f15a29;}</style></defs><path class="cls-1" d="M1239.38,632l-.84,1.29q-2.55,3.9,4.53,6.6a36.94,36.94,0,0,0,18,1.71,11.4,11.4,0,0,0,6.08-3.35l.27-.42q2.59-4-1.69-9.86a25.19,25.19,0,0,0-5-4.33q-9.48-.09-19,6.3A8,8,0,0,0,1239.38,632Z"/><path class="cls-1" d="M755.11,420.84l.27,0c2.36-.23,3.5-.63,3.44-1.19a7.93,7.93,0,0,0-1.29-2.33c-.89-1.27-1.49-1.89-1.8-1.87-.15,0-.26.13-.33.34,0,.05-.07.19-.14.42s-.16.53-.29.89-.25.71-.37,1a8.43,8.43,0,0,0-.57,2.31C754.07,420.74,754.43,420.88,755.11,420.84Z"/><path class="cls-1" d="M1309.05,658.56l-.85,1.3q-2.55,3.9,4.53,6.6a37,37,0,0,0,18,1.71,11.44,11.44,0,0,0,6.07-3.36l.28-.41q2.6-4-1.7-9.86a24.63,24.63,0,0,0-4.95-4.33q-9.48-.09-19,6.3A7.9,7.9,0,0,0,1309.05,658.56Z"/><path class="cls-1" d="M861.71,412.84a6.12,6.12,0,0,0,1.49-.63,22,22,0,0,0,2-1.13c.66-.47,1-.89.92-1.27s-.32-.63-.84-.83a3.88,3.88,0,0,0-1.94-.3c-.55,0-.81.15-.79.34s-.18.51-.58,1a2.77,2.77,0,0,0-.52,2.3C861.47,412.69,861.56,412.85,861.71,412.84Z"/><path class="cls-1" d="M1204.55,618.64l-.84,1.3q-2.55,3.88,4.52,6.59a37,37,0,0,0,18,1.71,11.4,11.4,0,0,0,6.08-3.35l.27-.42q2.6-4-1.69-9.86a24.77,24.77,0,0,0-4.95-4.32q-9.48-.09-19,6.29A8,8,0,0,0,1204.55,618.64Z"/><path class="cls-1" d="M676.78,426.14l.28,0c2.36-.23,3.5-.63,3.44-1.19a7.93,7.93,0,0,0-1.29-2.33c-.89-1.27-1.49-1.89-1.8-1.87-.15,0-.26.13-.33.34,0,.05-.07.19-.14.42s-.16.53-.29.89-.25.71-.37,1a8.43,8.43,0,0,0-.57,2.31C675.75,426,676.11,426.18,676.78,426.14Z"/><path class="cls-1" d="M1274.22,645.26l-.85,1.29q-2.55,3.9,4.53,6.6a37,37,0,0,0,18,1.71,11.41,11.41,0,0,0,6.07-3.36l.28-.41q2.58-4-1.7-9.86a25.19,25.19,0,0,0-5-4.33q-9.48-.09-19,6.3A7.77,7.77,0,0,0,1274.22,645.26Z"/><path class="cls-1" d="M1675.6,268.21l.32.1q4.2,1.13,4.71.14a8.55,8.55,0,0,0,.27-3.15c-.06-1.8-.28-2.75-.63-2.86a.71.71,0,0,0-.63.24l-.46.41c-.24.23-.56.52-1,.87l-1.17,1a13.42,13.42,0,0,0-2.33,2.34C1674.51,267.66,1674.81,268,1675.6,268.21Z"/><path class="cls-1" d="M334.38,264.12a7,7,0,0,0,5.3,2.05l1.86,0,2.58-1.75c1.68-1.15,2.56-1.89,2.64-2.23.24-1-.15-2.19-1.18-3.67a7.67,7.67,0,0,0-.65-.84,5.28,5.28,0,0,0-2-1.5q-1-.35-6-1.35a3.53,3.53,0,0,0-1.66,0c-.37.15-.72.79-1.06,1.91a17.49,17.49,0,0,0-.63,3.84,5.3,5.3,0,0,0,.38,3A3.44,3.44,0,0,0,334.38,264.12Z"/><path class="cls-1" d="M276.61,287.64a7,7,0,0,0,5.29,2.06l1.87,0,2.58-1.75c1.68-1.16,2.56-1.9,2.64-2.23.24-1-.15-2.19-1.18-3.68a7.67,7.67,0,0,0-.65-.84,5.49,5.49,0,0,0-2-1.5q-1-.33-6-1.35a3.36,3.36,0,0,0-1.66,0c-.37.15-.73.79-1.06,1.91a17.49,17.49,0,0,0-.63,3.84,5.34,5.34,0,0,0,.38,3A3.28,3.28,0,0,0,276.61,287.64Z"/><path class="cls-1" d="M82.11,894.91H1903.66V134.85H82.11ZM1791.57,307.84a13.83,13.83,0,0,1,.91-3.91l.46-.91q1.65-3.16,4.77-8.4a56.55,56.55,0,0,1,3.61-5.71c1-.84,2.47-1,4.37-.39,1.07.26,2.49.52,4.26.77a33.83,33.83,0,0,1,5.18,1,6.37,6.37,0,0,1,2.69,1.29,1.81,1.81,0,0,1,.27,2.13,2.8,2.8,0,0,1-1,1.08,4,4,0,0,1-1.77.65,13.52,13.52,0,0,1-3-.44c-2.12-.39-3.63-.66-4.55-.81l-2.32-.32-1.24,2.62-1.26,2.57,2.65.75a10.4,10.4,0,0,0,3.74.47,4.24,4.24,0,0,1,2,.15,3.94,3.94,0,0,1,2,1.32,1.62,1.62,0,0,1,.26,1.84,3.84,3.84,0,0,1-2,1.49,6.35,6.35,0,0,1-3,.57c-.64,0-2.1-.25-4.37-.64a43.42,43.42,0,0,1-4.31-.86c-.18-.05-.4.18-.67.7a8.58,8.58,0,0,0-1,4.12,2.79,2.79,0,0,0,.22,1.33,1.46,1.46,0,0,0,.9.58,19,19,0,0,0,4.64.6,13.59,13.59,0,0,0,4.22-.29,4.91,4.91,0,0,1,3-.05,2.81,2.81,0,0,1,1.88,1.52,2,2,0,0,1,.12,1.8,5.5,5.5,0,0,1-1.44,1.46,5.3,5.3,0,0,1-3.09,1,46.58,46.58,0,0,1-6.59-.31,33.37,33.37,0,0,1-6.06-1,5.92,5.92,0,0,1-4.37-4A9.31,9.31,0,0,1,1791.57,307.84Zm-24-17.8a13.31,13.31,0,0,0,1.68,2.65q.42.13,3-1.71a23.28,23.28,0,0,1,5.47-2.76,14.22,14.22,0,0,1,5-1.09,8.61,8.61,0,0,1,2.07.34,5.39,5.39,0,0,1,3.66,3.5q.76,2.22-1.82,10.1a40.19,40.19,0,0,1-2.11,5.5,4.08,4.08,0,0,1-2.34,2.24,4.46,4.46,0,0,1-2.72.08,2.78,2.78,0,0,1-1.76-1.39,2,2,0,0,1-.17-1.53,31.53,31.53,0,0,1,1.31-3.79c1.67-4.5,2.44-7.35,2.31-8.53,0-.33-.11-.51-.22-.54a1.82,1.82,0,0,0-.76.15,36.31,36.31,0,0,0-5.1,3.11,34.79,34.79,0,0,1-3.88,2.44,7.12,7.12,0,0,1-2.47.58,6.56,6.56,0,0,1-2.29,0,5.42,5.42,0,0,1-1.14-.68,11.92,11.92,0,0,1-2.42-2.78,8.83,8.83,0,0,0-1.43-1.91c-.18-.06-.46.29-.85,1a15.46,15.46,0,0,0-1.49,4.45,10.81,10.81,0,0,1-.52,2.08,2.67,2.67,0,0,1-1.22.92,4.5,4.5,0,0,1-3.27.43,2.51,2.51,0,0,1-1.3-.87,4,4,0,0,1-.91-3,18.36,18.36,0,0,1,1.9-5,34.41,34.41,0,0,1,2.15-3.77,11,11,0,0,1,2.34-2c2.32-1.68,4.23-2.28,5.74-1.83C1765.38,286.8,1766.56,288,1767.58,290Zm-73.8-10.12a70.53,70.53,0,0,1,4.24-6.14,47.86,47.86,0,0,0,3.78-5.85q2.17-4.19,4.56-4.47l.57,0,0-5c0-.28,0-.56,0-.83,1.06-12.53,25.45-12.35,26.73.17l.8,7.85,9.33-3.34c14.86-5.31,27.08,10.84,13.36,17.71-.3.15-.61.3-.93.44l-11.94,5.22-17.8,4.69.71.2.79.22.68.18a3.65,3.65,0,0,1,2.3,1.46,2.29,2.29,0,0,1,.17,2.19,2.63,2.63,0,0,1-1,1.07q-1.9,1.27-7-.26a13.93,13.93,0,0,1-5.23-2.79l-5,1.32-5.38-22.21q-1.72,2.81-4,5.89c-1.31,1.89-2,2.94-2.14,3.16q-.56,1.07-.18,1.56a4,4,0,0,0,1.92,1l.79.21.9.25.79.22c.31.07.54.14.68.18a3.58,3.58,0,0,1,2.29,1.46,2.26,2.26,0,0,1,.17,2.19,2.61,2.61,0,0,1-1,1.06c-1.27.85-3.59.77-7-.26-4.24-1.34-6.72-3.48-7.45-6.39A3.39,3.39,0,0,1,1693.78,279.92ZM1670.21,263q2-1.9,3.68-3.19c1.08-.86,2.16-1.76,3.23-2.71a15,15,0,0,1,4.61-2.88,5.11,5.11,0,0,1,3.09-.21q3.12.94,2.73,7.68a7.35,7.35,0,0,0,.14,2.38,33,33,0,0,1-.15,4.85,33.7,33.7,0,0,0,.07,6.83,6.22,6.22,0,0,1-.31,3.71,3.11,3.11,0,0,1-2.79,1.53,4.58,4.58,0,0,1-1.62-.11c-1.22-.37-1.89-1.55-2-3.56a6.54,6.54,0,0,0-.48-2.67,2.61,2.61,0,0,0-.52-.2,19.05,19.05,0,0,0-2.42-.5q-1.74-.24-5.65-1.09l-3.11-.71-2.65,2.1q-4.4,3.57-6.76,2.85a2.9,2.9,0,0,1-1.68-1.32,1.7,1.7,0,0,1-.22-1.73q.42-.82,5.19-4.61Q1667.09,265.77,1670.21,263Zm-36.94-8.29a7.29,7.29,0,0,1,.8-2c0-.11.17-.31.34-.61a7.82,7.82,0,0,0,.41-.73,19.72,19.72,0,0,1,1.94-3.07,12.65,12.65,0,0,1,2.48-2,15,15,0,0,1,5.82-2.35,32.34,32.34,0,0,1,8.12.06,6.06,6.06,0,0,1,1.4.28,18.08,18.08,0,0,1,5.72,3c1.89,1.46,2.58,2.7,2,3.72a3.68,3.68,0,0,1-1.88,1.47,4.25,4.25,0,0,1-3.16.09,8.7,8.7,0,0,1-2.79-1.46,8.74,8.74,0,0,0-2.42-1.22,10.82,10.82,0,0,0-4.37-.37,8.46,8.46,0,0,0-3.92,1.38,6.72,6.72,0,0,0-2.12,2.64,3.91,3.91,0,0,0-.62,1.93,7.54,7.54,0,0,0,1,2.19,9.41,9.41,0,0,0,5.53,4.2c.39.12,1,.29,1.92.49a18.05,18.05,0,0,1,1.76.44,2.6,2.6,0,0,1,1.62,1.21,2,2,0,0,1,0,2,3.65,3.65,0,0,1-2.27,1.74,4.24,4.24,0,0,1-2,.2,36,36,0,0,1-3.91-1,32.45,32.45,0,0,1-4-1.4,11.79,11.79,0,0,1-2.45-1.69,14.57,14.57,0,0,1-4.84-7.47A4.07,4.07,0,0,1,1633.27,254.72ZM1422.59,677.59l2-.32,1.41.54a2,2,0,0,1,.43,2.6l-1.57,2.39q-2.62,4-14,20.34-1.56,2.65-.57,3a41.36,41.36,0,0,1,6.51.32l.85.33c.25.1.49.64.71,1.62l-.71,1.08q-.83,1.26-12.16.22l-1.42-.54a2.59,2.59,0,0,1-.7-2.16q11.07-15.35,14.83-21.1Q1419.45,684,1422.59,677.59Zm-31.44-6.6.71-1.08c.14-.22.71-.36,1.7-.43l.56.21c4,2.07,6.21,3.18,6.65,3.35a16.25,16.25,0,0,1,6.22.76,3.23,3.23,0,0,1,2.41,2.81l-1.71,2.07q6.4,8.05,3,13.31l-.71,1.08q-4.28,6.55-20.78,4.76a31.33,31.33,0,0,1-8.63-1.94l-.56-.22q-8.61-3.28-6.79-9.08l1.69-2.6q3.51-5.37,17.95-9.63c.38.14.76-.08,1.14-.67Q1390.67,671.74,1391.15,671Zm-34.83-13.31.71-1.08c.14-.22.71-.36,1.7-.43l.56.21c4,2.07,6.2,3.18,6.65,3.35a16.45,16.45,0,0,1,6.22.76,3.24,3.24,0,0,1,2.41,2.81l-1.71,2.07q6.41,8.05,3,13.31l-.71,1.08q-4.28,6.56-20.78,4.77a31.62,31.62,0,0,1-8.63-1.95l-.56-.21q-8.61-3.3-6.79-9.09l1.69-2.6q3.51-5.37,18-9.63.57.21,1.14-.66Q1355.84,658.43,1356.32,657.68Zm-34.83-13.31.71-1.08c.14-.21.7-.36,1.69-.43l.57.21c4,2.07,6.2,3.19,6.65,3.36a16.28,16.28,0,0,1,6.22.75,3.22,3.22,0,0,1,2.4,2.81l-1.7,2.07q6.4,8.06,3,13.31l-.71,1.08q-4.27,6.56-20.78,4.77a31.62,31.62,0,0,1-8.63-2l-.56-.21q-8.61-3.3-6.8-9.09l1.7-2.59q3.51-5.39,18-9.64c.38.15.76-.08,1.14-.66Q1321,645.12,1321.49,644.37Zm-34.83-13.31.71-1.08c.14-.21.7-.36,1.69-.43l.57.22c4,2.06,6.2,3.18,6.65,3.35a16.3,16.3,0,0,1,6.22.75,3.23,3.23,0,0,1,2.4,2.81l-1.7,2.07q6.4,8.06,3,13.31l-.71,1.08q-4.28,6.55-20.78,4.77a31.62,31.62,0,0,1-8.63-1.95l-.57-.21q-8.6-3.29-6.79-9.09l1.7-2.59q3.51-5.39,17.95-9.64.57.23,1.14-.66Q1286.18,631.81,1286.66,631.06Zm-34.83-13.3.71-1.09c.14-.21.7-.36,1.69-.43l.57.22c4,2.06,6.2,3.18,6.64,3.35a16.33,16.33,0,0,1,6.23.75,3.24,3.24,0,0,1,2.4,2.81l-1.7,2.08q6.41,8,3,13.3l-.7,1.08q-4.28,6.55-20.78,4.77a32,32,0,0,1-8.63-1.94l-.57-.22q-8.6-3.29-6.79-9.08l1.7-2.6q3.51-5.38,18-9.64.56.23,1.14-.66Q1251.35,618.49,1251.83,617.76ZM1217,604.45l.7-1.08c.14-.22.71-.37,1.7-.44l.57.22c4,2.06,6.2,3.18,6.64,3.35a16.33,16.33,0,0,1,6.23.75,3.24,3.24,0,0,1,2.4,2.82l-1.71,2.07q6.42,8,3,13.3l-.7,1.08q-4.29,6.56-20.79,4.77a31.54,31.54,0,0,1-8.62-1.94l-.57-.22q-8.61-3.28-6.79-9.08l1.69-2.6q3.52-5.38,18-9.63c.37.14.75-.08,1.14-.67C1217.62,605.84,1216.67,604.94,1217,604.45Zm-34.83,18.07q11.08-15.35,14.84-21.1,1.24-1.89,4.39-8.34l2-.33,1.41.54a2.05,2.05,0,0,1,.43,2.6l-1.57,2.4q-2.62,4-14,20.34-1.56,2.64-.57,3a40.1,40.1,0,0,1,6.51.32l.85.32c.25.1.49.64.7,1.63l-.7,1.08q-.82,1.25-12.16.22l-1.42-.54A2.67,2.67,0,0,1,1182.17,622.52ZM880.58,399.31c.33-.88,1.31-1.37,2.94-1.48a34.25,34.25,0,0,0,3.41-.62,25.89,25.89,0,0,1,4.19-.67,5.84,5.84,0,0,1,2.53.18,1.8,1.8,0,0,1,1.19,1.45,1.7,1.7,0,0,1-.2,1,2.34,2.34,0,0,1-1,1,10.24,10.24,0,0,1-2.36.52c-1.69.3-2.91.53-3.63.67l-1.81.41.35,2.21.29,2.18,2.26-.18a7.91,7.91,0,0,0,2.89-.7,3.14,3.14,0,0,1,1.53-.45,4,4,0,0,1,2.06.39,1.62,1.62,0,0,1,1,1.24,2.22,2.22,0,0,1-.72,1.61,3.92,3.92,0,0,1-1.88,1.23q-.72.22-3.42.75c-1.8.34-3,.54-3.48.57-.16,0-.21.24-.16.69a7.29,7.29,0,0,0,1.21,3.22,3.16,3.16,0,0,0,.78.89,1.55,1.55,0,0,0,.92.17,15.41,15.41,0,0,0,3.6-.85,9.09,9.09,0,0,0,2.88-1.37,3.45,3.45,0,0,1,2.08-.85,3,3,0,0,1,2.07.57,2,2,0,0,1,.93,1.25,3.38,3.38,0,0,1-.34,1.45,3.18,3.18,0,0,1-1.75,1.55,34.31,34.31,0,0,1-4.85,1.59,27.65,27.65,0,0,1-4.82.93,6.39,6.39,0,0,1-5-1.68,9.41,9.41,0,0,1-1.84-2.65,12.27,12.27,0,0,1-1.19-3l-.09-.77q-.32-2.71-.54-7.32A36.58,36.58,0,0,1,880.58,399.31Zm-25,8.3c.09-.36.58-.87,1.5-1.52a11.63,11.63,0,0,1,2.62-1.46,8.65,8.65,0,0,1,2.22-.43,13.34,13.34,0,0,1,4.83.58,9.3,9.3,0,0,1,3.83,2,4.33,4.33,0,0,1,1.25,2.79,3.88,3.88,0,0,1-.37,2.35,7.3,7.3,0,0,1-2,2.11l-1.36,1,1.2.34a26.44,26.44,0,0,1,4.48,2.27c2,1.21,3.13,2,3.29,2.36a1.31,1.31,0,0,1,.15.45,1.81,1.81,0,0,1-.24,1.15,2,2,0,0,1-.88.84,3.39,3.39,0,0,1-1.34.41c-.92.07-2.31-.46-4.18-1.56a28.18,28.18,0,0,0-5.92-2.62,13.28,13.28,0,0,0-2.86-.69.55.55,0,0,0-.57.53,10.68,10.68,0,0,0,.12,2l.06.49a9.52,9.52,0,0,1,.09,2,2.1,2.1,0,0,1-.72,1.05,3.1,3.1,0,0,1-1.89.87,3,3,0,0,1-1.83-.51,3.6,3.6,0,0,1-1.39-2.79,37.65,37.65,0,0,1,0-4.9,60.94,60.94,0,0,0,0-6.64A11.15,11.15,0,0,1,855.58,407.61Zm-25.91-4.85c.33-.88,1.31-1.37,2.94-1.48.89-.11,2-.32,3.41-.62a25.94,25.94,0,0,1,4.2-.68,5.9,5.9,0,0,1,2.52.19,1.8,1.8,0,0,1,1.19,1.44,1.65,1.65,0,0,1-.2,1.05,2.41,2.41,0,0,1-1,.95,9.88,9.88,0,0,1-2.35.51c-1.7.31-2.91.53-3.64.68l-1.81.4.35,2.22.3,2.18,2.25-.19a8.13,8.13,0,0,0,2.89-.69,3.14,3.14,0,0,1,1.53-.46,4,4,0,0,1,2.06.39,1.64,1.64,0,0,1,1,1.25,2.16,2.16,0,0,1-.72,1.61,4.09,4.09,0,0,1-1.87,1.23c-.48.15-1.62.4-3.42.74s-3,.54-3.49.58c-.15,0-.2.24-.15.68A7,7,0,0,0,837,418a3,3,0,0,0,.77.89,1.51,1.51,0,0,0,.93.17,14.39,14.39,0,0,0,3.59-.85,9.13,9.13,0,0,0,2.88-1.36,3.46,3.46,0,0,1,2.09-.86,3,3,0,0,1,2.06.58,2,2,0,0,1,.93,1.25,3.37,3.37,0,0,1-.34,1.44,3.15,3.15,0,0,1-1.75,1.56,34.31,34.31,0,0,1-4.85,1.59,27.48,27.48,0,0,1-4.82.93,6.43,6.43,0,0,1-5-1.69,9.49,9.49,0,0,1-1.84-2.64,12.27,12.27,0,0,1-1.19-3.05l-.08-.78c-.21-1.8-.4-4.24-.55-7.31A38.53,38.53,0,0,1,829.67,402.76Zm-24.59-.26a2.63,2.63,0,0,1,1.81-.83,3.4,3.4,0,0,1,2.11.57l1,.61c.06.77.12,1.95.17,3.52s.12,2.75.18,3.52l4.12-.49c2.78-.31,4.19-.48,4.21-.53a24.89,24.89,0,0,0,0-3.38,22.62,22.62,0,0,1,0-3,1.66,1.66,0,0,1,.76-1,3.39,3.39,0,0,1,1.86-.77,3.11,3.11,0,0,1,1.87.55,1.76,1.76,0,0,1,.93,1.18c0,.05,0,.59,0,1.64s.25,4.25.73,9.5c.35,3.58.54,5.7.55,6.38a1.58,1.58,0,0,1-.49,1.4,2.63,2.63,0,0,1-1.51.56q-3.36.22-4.08-6l-.31-2.61-2.53.17a30.91,30.91,0,0,0-3.94.48c-1,.21-1.46.58-1.4,1.09a2.81,2.81,0,0,0,.81,1.44,2.86,2.86,0,0,1,.79,1.58,7.8,7.8,0,0,1,0,.92c-.14,1.74-.79,2.82-1.95,3.23a4.57,4.57,0,0,1-1.17.25c-1.57.11-2.66-1.17-3.28-3.82q-.46-1.68-1.64-11.79c-.21-1.84-.32-2.89-.32-3.18S804.52,403,805.08,402.5Zm-30.22,24.18a2.85,2.85,0,0,1,1.08-.73,11.75,11.75,0,0,1,2.24-.28l2.58-.17,0-1.14,0-.24a9.53,9.53,0,0,0-1-2.92,13,13,0,0,1-1.35-4.46l-.08-.63a5.13,5.13,0,0,1,0-1.69,4.3,4.3,0,0,1,.59-1.26,5.81,5.81,0,0,1,1.74-1.83,5.6,5.6,0,0,1,2.74-.79,8.62,8.62,0,0,1,3,.3,3.26,3.26,0,0,1,1.93,1.18,2.85,2.85,0,0,1,.43.9c0,.33-.21.75-.74,1.26a3.55,3.55,0,0,1-2.36.83,4.79,4.79,0,0,0-1.3.19.61.61,0,0,0-.29.52l0,.5a11,11,0,0,0,1.3,3.57,11.36,11.36,0,0,1,1.25,4,5.51,5.51,0,0,1-.41,3.26c-1.05,1.92-2.89,3-5.53,3.14-.56,0-1,.06-1.25.05q-4,0-4.8-1.34a2.72,2.72,0,0,1-.43-.93C774.14,427.66,774.37,427.23,774.86,426.68Zm-28.48-1.38q1.5-3.87,2.43-6.7a33.39,33.39,0,0,1,1.13-3.29c.37-.91.72-1.86,1-2.82a8.33,8.33,0,0,1,1.94-3.33,3.45,3.45,0,0,1,2.11-1c1.78-.12,3.64,1.46,5.56,4.74a7.11,7.11,0,0,0,1.22,1.66,33,33,0,0,1,2.17,3.51,34.24,34.24,0,0,0,3.25,4.86,5.65,5.65,0,0,1,1.53,2.74,1.79,1.79,0,0,1-1.27,1.86,3.77,3.77,0,0,1-1.21.37c-1,.07-2.09-.6-3.11-2a6.71,6.71,0,0,0-1.6-1.78,1.7,1.7,0,0,0-.47,0,13.37,13.37,0,0,0-2,.31c-.9.2-2.42.46-4.55.77l-2.56.35-.9,2.23q-1.47,3.75-3.5,3.89a3.08,3.08,0,0,1-1.82-.48,1.71,1.71,0,0,1-1-1.18C744.78,429.55,745.3,428,746.38,425.3Zm-39.92-5.93a3,3,0,0,1,2.2-1,3.19,3.19,0,0,1,2,.44,1.4,1.4,0,0,1,.71.69,10.14,10.14,0,0,1,.34,1.94l.28,2.43.16,1.34c.25,2.18.48,3.34.68,3.47a.2.2,0,0,0,.14,0q.78,0,4.58-4.53a4.09,4.09,0,0,1,1-.85,3.06,3.06,0,0,1,1.2-.26,4.12,4.12,0,0,1,3.82,1.77,6.24,6.24,0,0,0,2.2,1.93,4.86,4.86,0,0,0,2.6.58,3.16,3.16,0,0,0,2-.81,5,5,0,0,0,1.66-3.63,14.71,14.71,0,0,1,.32-2.11,5.5,5.5,0,0,0,0-1.74,5.71,5.71,0,0,0-.15-.85,4.6,4.6,0,0,1-.24-.94c-.05-.4.21-.85.77-1.37a3.08,3.08,0,0,1,1.85-.87,4.16,4.16,0,0,1,2.25.67,4.42,4.42,0,0,1,1.15.82,2.32,2.32,0,0,1,.33,1.07,17.14,17.14,0,0,1-.4,4,19.43,19.43,0,0,1-1.12,4.23l-.24.65a2.46,2.46,0,0,0-.14.47c0,.12,0,.18,0,.18s.05,0,.06.07c0,.33-.51,1.06-1.65,2.21-1.38,1.42-3.57,2.23-6.54,2.43a10.93,10.93,0,0,1-3.16-.16,7.71,7.71,0,0,1-2.53-1.2,4.51,4.51,0,0,0-2.16-1,1.56,1.56,0,0,0-.86.37,16.76,16.76,0,0,0-1.36,1.3,12.83,12.83,0,0,1-2.39,2,5,5,0,0,1-2.18.64,6.3,6.3,0,0,1-.83,0,6.07,6.07,0,0,1-2.56-.61,7.23,7.23,0,0,1-2.09-1.84l-1.25-1.52-.55-4.76c-.22-2.21-.33-3.6-.32-4.18A2.31,2.31,0,0,1,706.46,419.37Zm-38.4,11.23q1.5-3.87,2.43-6.7a33.39,33.39,0,0,1,1.13-3.29c.37-.91.72-1.85,1-2.82a8.33,8.33,0,0,1,1.94-3.33,3.45,3.45,0,0,1,2.11-1c1.78-.12,3.64,1.46,5.56,4.74a7.11,7.11,0,0,0,1.22,1.66,34.42,34.42,0,0,1,2.17,3.51,33.67,33.67,0,0,0,3.25,4.86,5.65,5.65,0,0,1,1.53,2.74,1.79,1.79,0,0,1-1.27,1.86,3.77,3.77,0,0,1-1.21.37c-1.05.07-2.09-.6-3.11-2a6.71,6.71,0,0,0-1.6-1.78,1.7,1.7,0,0,0-.47,0,13.37,13.37,0,0,0-2,.31c-.9.2-2.42.46-4.55.77l-2.56.35-.9,2.23q-1.47,3.75-3.5,3.89a3.08,3.08,0,0,1-1.82-.48,1.71,1.71,0,0,1-1-1.18C666.46,434.85,667,433.28,668.06,430.6Zm-35.15-3.27a6.18,6.18,0,0,1,.73-2.07q1.3-2.76,3.24-2.89a7.15,7.15,0,0,1,4.23,1.64,15.93,15.93,0,0,0,2.44,1.43c.25,0,.7-.7,1.35-2.05a12.87,12.87,0,0,1,2.61-3.48,8.9,8.9,0,0,1,3.09-2.16,6.19,6.19,0,0,1,1.64-.32,5.81,5.81,0,0,1,4.26,1.49q1.59,1.38,3.44,7.72a29.51,29.51,0,0,1,1.08,4.51,2.43,2.43,0,0,1-.62,2.24,3,3,0,0,1-1.91.81,3,3,0,0,1-1.91-.51,2,2,0,0,1-.84-1.05,23.67,23.67,0,0,1-.84-3.07q-1.38-5.52-2.36-6.73c-.18-.22-.32-.33-.41-.33a1.2,1.2,0,0,0-.47.32,20.23,20.23,0,0,0-2.19,3.63,20.19,20.19,0,0,1-1.62,2.81,4.49,4.49,0,0,1-1.5,1.1,4.63,4.63,0,0,1-1.65.6,4.49,4.49,0,0,1-1.13-.17,12.76,12.76,0,0,1-3-1.32,9.41,9.41,0,0,0-1.93-1c-.15,0-.19.33-.12,1a12.22,12.22,0,0,0,1,3.59,9.46,9.46,0,0,1,.61,1.62,1.49,1.49,0,0,1-.44,1,2.92,2.92,0,0,1-2.14,1.21,2.58,2.58,0,0,1-1.33-.26,4.35,4.35,0,0,1-2.08-1.92,14.06,14.06,0,0,1-1-4.09A22.38,22.38,0,0,1,632.91,427.33Zm-32.48,2.2a6.1,6.1,0,0,1,.73-2.07q1.3-2.76,3.24-2.89a7.2,7.2,0,0,1,4.23,1.63,15.58,15.58,0,0,0,2.44,1.44c.25,0,.7-.7,1.35-2.05a12.87,12.87,0,0,1,2.61-3.48,8.9,8.9,0,0,1,3.09-2.16,6.19,6.19,0,0,1,1.64-.32,5.84,5.84,0,0,1,4.26,1.48c1.06.93,2.21,3.5,3.44,7.73a29.51,29.51,0,0,1,1.08,4.51,2.43,2.43,0,0,1-.62,2.24,3,3,0,0,1-1.9.8,2.94,2.94,0,0,1-1.92-.51,2,2,0,0,1-.84-1,24.18,24.18,0,0,1-.84-3.07q-1.38-5.52-2.36-6.73c-.18-.22-.32-.33-.41-.33a1.09,1.09,0,0,0-.47.32,20.23,20.23,0,0,0-2.19,3.63,20.19,20.19,0,0,1-1.62,2.81,4.48,4.48,0,0,1-1.5,1.09,4.7,4.7,0,0,1-1.65.61,5,5,0,0,1-1.13-.17,13.64,13.64,0,0,1-3-1.32,9.41,9.41,0,0,0-1.93-1q-.23,0-.12,1a12,12,0,0,0,1,3.59,9.75,9.75,0,0,1,.61,1.63,1.49,1.49,0,0,1-.44,1,2.92,2.92,0,0,1-2.14,1.21,2.69,2.69,0,0,1-1.33-.26,4.35,4.35,0,0,1-2.08-1.92,14.06,14.06,0,0,1-1-4.09A22.38,22.38,0,0,1,600.43,429.53ZM575.36,420c.34-.88,1.31-1.37,2.94-1.48.89-.11,2-.32,3.41-.62a25.94,25.94,0,0,1,4.2-.68,6,6,0,0,1,2.53.19,1.81,1.81,0,0,1,1.18,1.44,1.65,1.65,0,0,1-.2,1.05,2.41,2.41,0,0,1-1,.95,9.88,9.88,0,0,1-2.35.51c-1.7.31-2.91.53-3.64.68l-1.81.4.35,2.22.3,2.18,2.25-.19a8.13,8.13,0,0,0,2.89-.69,3.18,3.18,0,0,1,1.53-.46,4,4,0,0,1,2.06.39,1.64,1.64,0,0,1,1.05,1.25,2.16,2.16,0,0,1-.72,1.61A4.09,4.09,0,0,1,588.5,430c-.48.15-1.62.4-3.42.74s-3,.54-3.49.58c-.15,0-.2.24-.15.68a7,7,0,0,0,1.21,3.22,3,3,0,0,0,.77.89,1.51,1.51,0,0,0,.93.17,14.39,14.39,0,0,0,3.59-.85,9,9,0,0,0,2.88-1.36,3.46,3.46,0,0,1,2.09-.86,3,3,0,0,1,2.06.58,2,2,0,0,1,.93,1.25,3.37,3.37,0,0,1-.34,1.44,3.15,3.15,0,0,1-1.75,1.56,34.31,34.31,0,0,1-4.85,1.59,27.57,27.57,0,0,1-4.81.93,6.44,6.44,0,0,1-5-1.69,9.49,9.49,0,0,1-1.84-2.64,12.17,12.17,0,0,1-1.18-3.05l-.09-.78c-.21-1.8-.4-4.24-.55-7.31A40.72,40.72,0,0,1,575.36,420ZM327,256.54a10.31,10.31,0,0,1,1.62-4.06,5.59,5.59,0,0,1,2.17-1.59,4.79,4.79,0,0,1,3.15-.28,5,5,0,0,0,3.07-.3,7.45,7.45,0,0,1,2.79-.63,15.74,15.74,0,0,1,3.62.63,19.39,19.39,0,0,1,3.78,1.34,12.12,12.12,0,0,1,2.75,2.21,23.5,23.5,0,0,1,2.42,2.72,8.12,8.12,0,0,1,1.27,3.24,6.74,6.74,0,0,1-.45,4.72q-1,1.74-4.86,4.41a21.24,21.24,0,0,1-3.37,2,15.26,15.26,0,0,1-5.23.67,17.76,17.76,0,0,1-7.12-1.38,11,11,0,0,1-4.76-3.75,8.7,8.7,0,0,1-1.56-4.78A19.85,19.85,0,0,1,327,256.54Zm-30.29,14.74a2.32,2.32,0,0,1,1.37-1.51,6.1,6.1,0,0,1,3.19,0,24.81,24.81,0,0,1,4.83,1.54c2,.82,3.15,1.17,3.42,1.06q.68-.27,2.86-7.38a3.74,3.74,0,0,1,1.78-2.53,4.43,4.43,0,0,1,2.19-.14,3.69,3.69,0,0,1,2.64,1.43,2.13,2.13,0,0,1,.39.95c.13.61-.29,2.31-1.25,5.07a21.91,21.91,0,0,0-1.23,4.35,14.31,14.31,0,0,0,3.75,0,18.2,18.2,0,0,1,4.72.19,3,3,0,0,1,1.67,1.17,2.74,2.74,0,0,1,.47,1.91,2,2,0,0,1-1.47,1.65c-1.19.49-3.4.73-6.62.74a44.22,44.22,0,0,0-5,.12c-.21.08-.42,1-.64,2.66-.29,2.23-1,3.57-2.16,4a5,5,0,0,1-2.85.06,2.75,2.75,0,0,1-1.84-1.05c-.62-.89-.68-2.55-.2-5l.57-2.48-2.34-1c-2.64-1.1-4.27-1.75-4.9-2a7,7,0,0,1-3.27-2A1.9,1.9,0,0,1,296.73,271.28Zm-27.48,8.79a10.37,10.37,0,0,1,1.62-4.07,5.47,5.47,0,0,1,2.17-1.58,4.79,4.79,0,0,1,3.15-.28,5,5,0,0,0,3.07-.3,7.49,7.49,0,0,1,2.79-.64,16.93,16.93,0,0,1,3.62.63,20.09,20.09,0,0,1,3.78,1.34,12.21,12.21,0,0,1,2.75,2.22,22.69,22.69,0,0,1,2.42,2.72,8.06,8.06,0,0,1,1.27,3.24,6.75,6.75,0,0,1-.45,4.72c-.68,1.16-2.29,2.63-4.86,4.41a21,21,0,0,1-3.37,2,15.21,15.21,0,0,1-5.23.68,17.94,17.94,0,0,1-7.12-1.39,11,11,0,0,1-4.76-3.74,8.7,8.7,0,0,1-1.56-4.78A19.75,19.75,0,0,1,269.25,280.07ZM239,294.81a2.32,2.32,0,0,1,1.37-1.51,5.94,5.94,0,0,1,3.18,0,26.1,26.1,0,0,1,4.84,1.54c2,.82,3.15,1.17,3.42,1.06.45-.18,1.4-2.63,2.86-7.37a3.71,3.71,0,0,1,1.78-2.53,4.32,4.32,0,0,1,2.19-.14,3.66,3.66,0,0,1,2.64,1.43,2.1,2.1,0,0,1,.39.94q.19.93-1.25,5.07a22.08,22.08,0,0,0-1.23,4.36,14.31,14.31,0,0,0,3.75,0,18.77,18.77,0,0,1,4.72.18,3,3,0,0,1,1.67,1.18,2.72,2.72,0,0,1,.47,1.91,2,2,0,0,1-1.47,1.65,20.45,20.45,0,0,1-6.62.74,39,39,0,0,0-5,.12c-.21.08-.42,1-.64,2.66q-.44,3.33-2.17,4a4.85,4.85,0,0,1-2.84.05,2.67,2.67,0,0,1-1.84-1.05c-.62-.88-.68-2.54-.2-5l.57-2.49-2.34-1c-2.64-1.09-4.27-1.75-4.9-2a7,7,0,0,1-3.27-2A1.88,1.88,0,0,1,239,294.81Z"/><path class="cls-1" d="M1343.88,671.87l-.85,1.3c-1.69,2.6-.19,4.8,4.53,6.6a37,37,0,0,0,18,1.71,11.51,11.51,0,0,0,6.08-3.36l.27-.42q2.59-4-1.69-9.85a24.61,24.61,0,0,0-5-4.33q-9.48-.09-19,6.3A7.76,7.76,0,0,0,1343.88,671.87Z"/><path class="cls-1" d="M1378.71,685.18l-.85,1.3q-2.53,3.9,4.53,6.6a37,37,0,0,0,18,1.71,11.47,11.47,0,0,0,6.08-3.36l.27-.42q2.6-4-1.69-9.86a24.77,24.77,0,0,0-5-4.32q-9.49-.09-19,6.3A7.76,7.76,0,0,0,1378.71,685.18Z"/><path class="cls-2" d="M1933.73.09H66.27C29.67.09,0,22.79,0,50.79V84.15c0,28,29.67,50.7,66.27,50.7H1933.73c36.6,0,66.27-22.7,66.27-50.7V50.79C2000,22.79,1970.33.09,1933.73.09Z"/><path d="M242.35,298.74c.63.21,2.26.87,4.9,2l2.34,1-.57,2.49c-.48,2.44-.42,4.1.2,5a2.67,2.67,0,0,0,1.84,1.05,4.85,4.85,0,0,0,2.84-.05q1.74-.71,2.17-4c.22-1.69.43-2.58.64-2.66a39,39,0,0,1,5-.12,20.45,20.45,0,0,0,6.62-.74,2,2,0,0,0,1.47-1.65,2.72,2.72,0,0,0-.47-1.91,3,3,0,0,0-1.67-1.18,18.77,18.77,0,0,0-4.72-.18,14.31,14.31,0,0,1-3.75,0,22.08,22.08,0,0,1,1.23-4.36q1.44-4.14,1.25-5.07a2.1,2.1,0,0,0-.39-.94,3.66,3.66,0,0,0-2.64-1.43,4.32,4.32,0,0,0-2.19.14,3.71,3.71,0,0,0-1.78,2.53c-1.46,4.74-2.41,7.19-2.86,7.37-.27.11-1.41-.24-3.42-1.06a26.1,26.1,0,0,0-4.84-1.54,5.94,5.94,0,0,0-3.18,0,2.32,2.32,0,0,0-1.37,1.51,1.88,1.88,0,0,0,.12,1.95A7,7,0,0,0,242.35,298.74Z"/><path d="M270.1,290.05a11,11,0,0,0,4.76,3.74,17.94,17.94,0,0,0,7.12,1.39,15.21,15.21,0,0,0,5.23-.68,21,21,0,0,0,3.37-2c2.57-1.78,4.18-3.25,4.86-4.41a6.75,6.75,0,0,0,.45-4.72,8.06,8.06,0,0,0-1.27-3.24,22.69,22.69,0,0,0-2.42-2.72,12.21,12.21,0,0,0-2.75-2.22,20.09,20.09,0,0,0-3.78-1.34,16.93,16.93,0,0,0-3.62-.63,7.49,7.49,0,0,0-2.79.64,5,5,0,0,1-3.07.3,4.79,4.79,0,0,0-3.15.28,5.47,5.47,0,0,0-2.17,1.58,10.37,10.37,0,0,0-1.62,4.07,19.75,19.75,0,0,0-.71,5.2A8.7,8.7,0,0,0,270.1,290.05Zm5.7-5.93a17.49,17.49,0,0,1,.63-3.84c.33-1.12.69-1.76,1.06-1.91a3.36,3.36,0,0,1,1.66,0q5,1,6,1.35a5.49,5.49,0,0,1,2,1.5,7.67,7.67,0,0,1,.65.84c1,1.49,1.42,2.71,1.18,3.68-.08.33-1,1.07-2.64,2.23l-2.58,1.75-1.87,0a7,7,0,0,1-5.29-2.06,3.28,3.28,0,0,1-.43-.52A5.34,5.34,0,0,1,275.8,284.12Z"/><path d="M300.12,275.21c.63.22,2.26.87,4.9,2l2.34,1-.57,2.48c-.48,2.44-.42,4.1.2,5a2.75,2.75,0,0,0,1.84,1.05,5,5,0,0,0,2.85-.06c1.15-.47,1.87-1.81,2.16-4,.22-1.69.43-2.58.64-2.66a44.22,44.22,0,0,1,5-.12c3.22,0,5.43-.25,6.62-.74a2,2,0,0,0,1.47-1.65,2.74,2.74,0,0,0-.47-1.91,3,3,0,0,0-1.67-1.17,18.2,18.2,0,0,0-4.72-.19,14.31,14.31,0,0,1-3.75,0,21.91,21.91,0,0,1,1.23-4.35c1-2.76,1.38-4.46,1.25-5.07a2.13,2.13,0,0,0-.39-.95,3.69,3.69,0,0,0-2.64-1.43,4.43,4.43,0,0,0-2.19.14A3.74,3.74,0,0,0,312.4,265q-2.19,7.11-2.86,7.38c-.27.11-1.41-.24-3.42-1.06a24.81,24.81,0,0,0-4.83-1.54,6.1,6.1,0,0,0-3.19,0,2.32,2.32,0,0,0-1.37,1.51,1.9,1.9,0,0,0,.12,2A7,7,0,0,0,300.12,275.21Z"/><path d="M327.87,266.52a11,11,0,0,0,4.76,3.75,17.76,17.76,0,0,0,7.12,1.38A15.26,15.26,0,0,0,345,271a21.24,21.24,0,0,0,3.37-2q3.86-2.67,4.86-4.41a6.74,6.74,0,0,0,.45-4.72,8.12,8.12,0,0,0-1.27-3.24,23.5,23.5,0,0,0-2.42-2.72,12.12,12.12,0,0,0-2.75-2.21,19.39,19.39,0,0,0-3.78-1.34,15.74,15.74,0,0,0-3.62-.63,7.45,7.45,0,0,0-2.79.63,5,5,0,0,1-3.07.3,4.79,4.79,0,0,0-3.15.28,5.59,5.59,0,0,0-2.17,1.59,10.31,10.31,0,0,0-1.62,4.06,19.85,19.85,0,0,0-.71,5.2A8.7,8.7,0,0,0,327.87,266.52Zm5.7-5.93a17.49,17.49,0,0,1,.63-3.84c.34-1.12.69-1.76,1.06-1.91a3.53,3.53,0,0,1,1.66,0q5,1,6,1.35a5.28,5.28,0,0,1,2,1.5,7.67,7.67,0,0,1,.65.84c1,1.48,1.42,2.71,1.18,3.67-.08.34-1,1.08-2.64,2.23l-2.58,1.75-1.86,0a7,7,0,0,1-5.3-2.05,3.44,3.44,0,0,1-.43-.53A5.3,5.3,0,0,1,333.57,260.59Z"/><path class="cls-3" d="M1709.68,264.66c.6.57.9,1,.91,1.32a5.51,5.51,0,0,1-.67,1.66c-.68,1.3-1.47,2.67-2.34,4.09l5.38,22.21,5-1.32a7.13,7.13,0,0,1-2.21-3.61,3.28,3.28,0,0,1,.39-2.31,68.64,68.64,0,0,1,4.24-6.13,49.46,49.46,0,0,0,3.78-5.85c1.45-2.8,3-4.29,4.55-4.47a3.8,3.8,0,0,1,1.68.13,4.45,4.45,0,0,1,1.65,1.07q.9.84.9,1.32a5.6,5.6,0,0,1-.67,1.65,80.23,80.23,0,0,1-6.3,10c-1.31,1.88-2,2.94-2.13,3.15-.37.72-.44,1.24-.19,1.57a4.16,4.16,0,0,0,1.92,1l.8.22.18,0,17.8-4.69,11.94-5.22c.32-.14.63-.29.93-.44,13.72-6.87,1.5-23-13.36-17.71l-9.33,3.34-.8-7.85c-1.28-12.52-25.67-12.7-26.73-.17,0,.27,0,.55,0,.83l0,5a3.66,3.66,0,0,1,1.1.16A4.45,4.45,0,0,1,1709.68,264.66Z"/><path d="M1638.34,263.9a11.79,11.79,0,0,0,2.45,1.69,32.45,32.45,0,0,0,4,1.4,36,36,0,0,0,3.91,1,4.24,4.24,0,0,0,2-.2,3.65,3.65,0,0,0,2.27-1.74,2,2,0,0,0,0-2,2.6,2.6,0,0,0-1.62-1.21,18.05,18.05,0,0,0-1.76-.44c-.89-.2-1.53-.37-1.92-.49a9.41,9.41,0,0,1-5.53-4.2,7.54,7.54,0,0,1-1-2.19,3.91,3.91,0,0,1,.62-1.93,6.72,6.72,0,0,1,2.12-2.64,8.46,8.46,0,0,1,3.92-1.38,10.82,10.82,0,0,1,4.37.37,8.74,8.74,0,0,1,2.42,1.22,8.7,8.7,0,0,0,2.79,1.46,4.25,4.25,0,0,0,3.16-.09,3.68,3.68,0,0,0,1.88-1.47c.53-1-.16-2.26-2-3.72a18.08,18.08,0,0,0-5.72-3,6.06,6.06,0,0,0-1.4-.28,32.34,32.34,0,0,0-8.12-.06,15,15,0,0,0-5.82,2.35,12.65,12.65,0,0,0-2.48,2,19.72,19.72,0,0,0-1.94,3.07,7.82,7.82,0,0,1-.41.73c-.17.3-.29.5-.34.61a7.29,7.29,0,0,0-.8,2,4.07,4.07,0,0,0,.23,1.71A14.57,14.57,0,0,0,1638.34,263.9Z"/><path d="M1657.61,275.79a2.9,2.9,0,0,0,1.68,1.32q2.37.72,6.76-2.85l2.65-2.1,3.11.71q3.92.86,5.65,1.09a19.05,19.05,0,0,1,2.42.5,2.61,2.61,0,0,1,.52.2,6.54,6.54,0,0,1,.48,2.67c.12,2,.79,3.19,2,3.56a4.58,4.58,0,0,0,1.62.11,3.11,3.11,0,0,0,2.79-1.53,6.22,6.22,0,0,0,.31-3.71,33.7,33.7,0,0,1-.07-6.83,33,33,0,0,0,.15-4.85,7.35,7.35,0,0,1-.14-2.38q.39-6.74-2.73-7.68a5.11,5.11,0,0,0-3.09.21,15,15,0,0,0-4.61,2.88c-1.07.95-2.15,1.85-3.23,2.71s-2.32,1.92-3.68,3.19q-3.12,2.76-7.63,6.44-4.77,3.78-5.19,4.61A1.7,1.7,0,0,0,1657.61,275.79Zm17.1-8.51a13.42,13.42,0,0,1,2.33-2.34l1.17-1c.41-.35.73-.64,1-.87l.46-.41a.71.71,0,0,1,.63-.24c.35.11.57,1.06.63,2.86a8.55,8.55,0,0,1-.27,3.15q-.51,1-4.71-.14l-.32-.1C1674.81,268,1674.51,267.66,1674.71,267.28Z"/><path d="M1700.84,288.62c3.36,1,5.68,1.11,7,.26a2.61,2.61,0,0,0,1-1.06,2.26,2.26,0,0,0-.17-2.19,3.58,3.58,0,0,0-2.29-1.46c-.14,0-.37-.11-.68-.18l-.79-.22-.9-.25-.79-.21a4,4,0,0,1-1.92-1q-.37-.49.18-1.56c.12-.22.83-1.27,2.14-3.16q2.24-3.09,4-5.89c.87-1.42,1.66-2.79,2.34-4.09a5.51,5.51,0,0,0,.67-1.66c0-.31-.31-.75-.91-1.32a4.45,4.45,0,0,0-1.65-1.07,3.66,3.66,0,0,0-1.1-.16l-.57,0q-2.38.29-4.56,4.47a47.86,47.86,0,0,1-3.78,5.85,70.53,70.53,0,0,0-4.24,6.14,3.39,3.39,0,0,0-.39,2.31C1694.12,285.14,1696.6,287.28,1700.84,288.62Z"/><path d="M1725.57,290.09a4.16,4.16,0,0,1-1.92-1c-.25-.33-.18-.85.19-1.57.11-.21.82-1.27,2.13-3.15a80.23,80.23,0,0,0,6.3-10,5.6,5.6,0,0,0,.67-1.65q0-.48-.9-1.32a4.45,4.45,0,0,0-1.65-1.07,3.8,3.8,0,0,0-1.68-.13c-1.59.18-3.1,1.67-4.55,4.47a49.46,49.46,0,0,1-3.78,5.85,68.64,68.64,0,0,0-4.24,6.13,3.28,3.28,0,0,0-.39,2.31,7.13,7.13,0,0,0,2.21,3.61,13.93,13.93,0,0,0,5.23,2.79q5.05,1.53,7,.26a2.63,2.63,0,0,0,1-1.07,2.29,2.29,0,0,0-.17-2.19,3.65,3.65,0,0,0-2.3-1.46l-.68-.18-.79-.22-.71-.2-.18,0Z"/><path d="M1758.32,288.23a11,11,0,0,0-2.34,2,34.41,34.41,0,0,0-2.15,3.77,18.36,18.36,0,0,0-1.9,5,4,4,0,0,0,.91,3,2.51,2.51,0,0,0,1.3.87,4.5,4.5,0,0,0,3.27-.43,2.67,2.67,0,0,0,1.22-.92,10.81,10.81,0,0,0,.52-2.08,15.46,15.46,0,0,1,1.49-4.45c.39-.73.67-1.08.85-1a8.83,8.83,0,0,1,1.43,1.91,11.92,11.92,0,0,0,2.42,2.78,5.42,5.42,0,0,0,1.14.68,6.56,6.56,0,0,0,2.29,0,7.12,7.12,0,0,0,2.47-.58,34.79,34.79,0,0,0,3.88-2.44,36.31,36.31,0,0,1,5.1-3.11,1.82,1.82,0,0,1,.76-.15c.11,0,.18.21.22.54.13,1.18-.64,4-2.31,8.53a31.53,31.53,0,0,0-1.31,3.79,2,2,0,0,0,.17,1.53,2.78,2.78,0,0,0,1.76,1.39,4.46,4.46,0,0,0,2.72-.08,4.08,4.08,0,0,0,2.34-2.24,40.19,40.19,0,0,0,2.11-5.5q2.6-7.87,1.82-10.1a5.39,5.39,0,0,0-3.66-3.5,8.61,8.61,0,0,0-2.07-.34,14.22,14.22,0,0,0-5,1.09,23.28,23.28,0,0,0-5.47,2.76q-2.58,1.84-3,1.71a13.31,13.31,0,0,1-1.68-2.65c-1-2-2.2-3.24-3.52-3.64C1762.55,286,1760.64,286.55,1758.32,288.23Z"/><path d="M1796.05,315.62a33.37,33.37,0,0,0,6.06,1,46.58,46.58,0,0,0,6.59.31,5.3,5.3,0,0,0,3.09-1,5.5,5.5,0,0,0,1.44-1.46,2,2,0,0,0-.12-1.8,2.81,2.81,0,0,0-1.88-1.52,4.91,4.91,0,0,0-3,.05,13.59,13.59,0,0,1-4.22.29,19,19,0,0,1-4.64-.6,1.46,1.46,0,0,1-.9-.58,2.79,2.79,0,0,1-.22-1.33,8.58,8.58,0,0,1,1-4.12c.27-.52.49-.75.67-.7a43.42,43.42,0,0,0,4.31.86c2.27.39,3.73.6,4.37.64a6.35,6.35,0,0,0,3-.57,3.84,3.84,0,0,0,2-1.49,1.62,1.62,0,0,0-.26-1.84,3.94,3.94,0,0,0-2-1.32,4.24,4.24,0,0,0-2-.15,10.4,10.4,0,0,1-3.74-.47l-2.65-.75,1.26-2.57,1.24-2.62,2.32.32c.92.15,2.43.42,4.55.81a13.52,13.52,0,0,0,3,.44,4,4,0,0,0,1.77-.65,2.8,2.8,0,0,0,1-1.08,1.81,1.81,0,0,0-.27-2.13,6.37,6.37,0,0,0-2.69-1.29,33.83,33.83,0,0,0-5.18-1c-1.77-.25-3.19-.51-4.26-.77-1.9-.57-3.36-.45-4.37.39a56.55,56.55,0,0,0-3.61,5.71q-3.12,5.24-4.77,8.4l-.46.91a13.83,13.83,0,0,0-.91,3.91,9.31,9.31,0,0,0,.11,3.74A5.92,5.92,0,0,0,1796.05,315.62Z"/><path class="cls-4" d="M576,432.35l.09.78a12.17,12.17,0,0,0,1.18,3.05,9.49,9.49,0,0,0,1.84,2.64,6.44,6.44,0,0,0,5,1.69,27.57,27.57,0,0,0,4.81-.93,34.31,34.31,0,0,0,4.85-1.59,3.15,3.15,0,0,0,1.75-1.56,3.37,3.37,0,0,0,.34-1.44,2,2,0,0,0-.93-1.25,3,3,0,0,0-2.06-.58,3.46,3.46,0,0,0-2.09.86,9,9,0,0,1-2.88,1.36,14.39,14.39,0,0,1-3.59.85,1.51,1.51,0,0,1-.93-.17,3,3,0,0,1-.77-.89,7,7,0,0,1-1.21-3.22c-.05-.44,0-.67.15-.68.52,0,1.69-.23,3.49-.58s2.94-.59,3.42-.74a4.09,4.09,0,0,0,1.87-1.23,2.16,2.16,0,0,0,.72-1.61,1.64,1.64,0,0,0-1.05-1.25,4,4,0,0,0-2.06-.39,3.18,3.18,0,0,0-1.53.46,8.13,8.13,0,0,1-2.89.69l-2.25.19-.3-2.18-.35-2.22,1.81-.4c.73-.15,1.94-.37,3.64-.68a9.88,9.88,0,0,0,2.35-.51,2.41,2.41,0,0,0,1-.95,1.65,1.65,0,0,0,.2-1.05,1.81,1.81,0,0,0-1.18-1.44,6,6,0,0,0-2.53-.19,25.94,25.94,0,0,0-4.2.68c-1.39.3-2.52.51-3.41.62-1.63.11-2.6.6-2.94,1.48a40.72,40.72,0,0,0,.1,5.07C575.61,428.11,575.8,430.55,576,432.35Z"/><path class="cls-4" d="M601.65,436.91a4.35,4.35,0,0,0,2.08,1.92,2.69,2.69,0,0,0,1.33.26,2.92,2.92,0,0,0,2.14-1.21,1.49,1.49,0,0,0,.44-1,9.75,9.75,0,0,0-.61-1.63,12,12,0,0,1-1-3.59q-.1-.94.12-1a9.41,9.41,0,0,1,1.93,1,13.64,13.64,0,0,0,3,1.32,5,5,0,0,0,1.13.17,4.7,4.7,0,0,0,1.65-.61,4.48,4.48,0,0,0,1.5-1.09,20.19,20.19,0,0,0,1.62-2.81,20.23,20.23,0,0,1,2.19-3.63,1.09,1.09,0,0,1,.47-.32c.09,0,.23.11.41.33q1,1.21,2.36,6.73a24.18,24.18,0,0,0,.84,3.07,2,2,0,0,0,.84,1,2.94,2.94,0,0,0,1.92.51,3,3,0,0,0,1.9-.8,2.43,2.43,0,0,0,.62-2.24,29.51,29.51,0,0,0-1.08-4.51c-1.23-4.23-2.38-6.8-3.44-7.73a5.84,5.84,0,0,0-4.26-1.48,6.19,6.19,0,0,0-1.64.32,8.9,8.9,0,0,0-3.09,2.16,12.87,12.87,0,0,0-2.61,3.48c-.65,1.35-1.1,2-1.35,2.05a15.58,15.58,0,0,1-2.44-1.44,7.2,7.2,0,0,0-4.23-1.63q-1.93.14-3.24,2.89a6.1,6.1,0,0,0-.73,2.07,22.38,22.38,0,0,0,.24,3.29A14.06,14.06,0,0,0,601.65,436.91Z"/><path class="cls-4" d="M634.13,434.71a4.35,4.35,0,0,0,2.08,1.92,2.58,2.58,0,0,0,1.33.26,2.92,2.92,0,0,0,2.14-1.21,1.49,1.49,0,0,0,.44-1,9.46,9.46,0,0,0-.61-1.62,12.22,12.22,0,0,1-1-3.59c-.07-.64,0-1,.12-1a9.41,9.41,0,0,1,1.93,1,12.76,12.76,0,0,0,3,1.32,4.49,4.49,0,0,0,1.13.17,4.63,4.63,0,0,0,1.65-.6,4.49,4.49,0,0,0,1.5-1.1,20.19,20.19,0,0,0,1.62-2.81,20.23,20.23,0,0,1,2.19-3.63,1.2,1.2,0,0,1,.47-.32c.09,0,.23.11.41.33q1,1.21,2.36,6.73a23.67,23.67,0,0,0,.84,3.07,2,2,0,0,0,.84,1.05,3,3,0,0,0,1.91.51,3,3,0,0,0,1.91-.81,2.43,2.43,0,0,0,.62-2.24,29.51,29.51,0,0,0-1.08-4.51q-1.85-6.34-3.44-7.72a5.81,5.81,0,0,0-4.26-1.49,6.19,6.19,0,0,0-1.64.32,8.9,8.9,0,0,0-3.09,2.16,12.87,12.87,0,0,0-2.61,3.48c-.65,1.35-1.1,2-1.35,2.05a15.93,15.93,0,0,1-2.44-1.43,7.15,7.15,0,0,0-4.23-1.64q-1.93.13-3.24,2.89a6.18,6.18,0,0,0-.73,2.07,22.38,22.38,0,0,0,.24,3.29A14.06,14.06,0,0,0,634.13,434.71Z"/><path class="cls-4" d="M667.49,436.5a3.08,3.08,0,0,0,1.82.48q2-.14,3.5-3.89l.9-2.23,2.56-.35c2.13-.31,3.65-.57,4.55-.77a13.37,13.37,0,0,1,2-.31,1.7,1.7,0,0,1,.47,0,6.71,6.71,0,0,1,1.6,1.78c1,1.39,2.06,2.06,3.11,2a3.77,3.77,0,0,0,1.21-.37,1.79,1.79,0,0,0,1.27-1.86,5.65,5.65,0,0,0-1.53-2.74,33.67,33.67,0,0,1-3.25-4.86,34.42,34.42,0,0,0-2.17-3.51,7.11,7.11,0,0,1-1.22-1.66c-1.92-3.28-3.78-4.86-5.56-4.74a3.45,3.45,0,0,0-2.11,1,8.33,8.33,0,0,0-1.94,3.33c-.32,1-.67,1.91-1,2.82a33.39,33.39,0,0,0-1.13,3.29q-.93,2.84-2.43,6.7c-1.08,2.68-1.6,4.25-1.54,4.72A1.71,1.71,0,0,0,667.49,436.5Zm8.79-13.1c.12-.31.24-.65.37-1s.23-.66.29-.89.12-.37.14-.42c.07-.21.18-.33.33-.34.31,0,.91.6,1.8,1.87a7.93,7.93,0,0,1,1.29,2.33c.06.56-1.08,1-3.44,1.19l-.28,0c-.67,0-1-.1-1.07-.43A8.43,8.43,0,0,1,676.28,423.4Z"/><path class="cls-4" d="M706.91,429.71l1.25,1.52a7.23,7.23,0,0,0,2.09,1.84,6.07,6.07,0,0,0,2.56.61,6.3,6.3,0,0,0,.83,0,5,5,0,0,0,2.18-.64,12.83,12.83,0,0,0,2.39-2,16.76,16.76,0,0,1,1.36-1.3,1.56,1.56,0,0,1,.86-.37,4.51,4.51,0,0,1,2.16,1,7.71,7.71,0,0,0,2.53,1.2,10.93,10.93,0,0,0,3.16.16c3-.2,5.16-1,6.54-2.43,1.14-1.15,1.69-1.88,1.65-2.21,0-.05,0-.07-.06-.07s0-.06,0-.18a2.46,2.46,0,0,1,.14-.47l.24-.65a19.43,19.43,0,0,0,1.12-4.23,17.14,17.14,0,0,0,.4-4,2.32,2.32,0,0,0-.33-1.07,4.42,4.42,0,0,0-1.15-.82,4.16,4.16,0,0,0-2.25-.67,3.08,3.08,0,0,0-1.85.87c-.56.52-.82,1-.77,1.37a4.6,4.6,0,0,0,.24.94,5.71,5.71,0,0,1,.15.85,5.5,5.5,0,0,1,0,1.74,14.71,14.71,0,0,0-.32,2.11,5,5,0,0,1-1.66,3.63,3.16,3.16,0,0,1-2,.81,4.86,4.86,0,0,1-2.6-.58,6.24,6.24,0,0,1-2.2-1.93A4.12,4.12,0,0,0,719.7,423a3.06,3.06,0,0,0-1.2.26,4.09,4.09,0,0,0-1,.85q-3.79,4.49-4.58,4.53a.2.2,0,0,1-.14,0c-.2-.13-.43-1.29-.68-3.47l-.16-1.34-.28-2.43a10.14,10.14,0,0,0-.34-1.94,1.4,1.4,0,0,0-.71-.69,3.19,3.19,0,0,0-2-.44,3,3,0,0,0-2.2,1,2.31,2.31,0,0,0-.42,1.4c0,.58.1,2,.32,4.18Z"/><path class="cls-4" d="M745.81,431.2a3.08,3.08,0,0,0,1.82.48q2-.14,3.5-3.89l.9-2.23,2.56-.35c2.13-.31,3.65-.57,4.55-.77a13.37,13.37,0,0,1,2-.31,1.7,1.7,0,0,1,.47,0,6.71,6.71,0,0,1,1.6,1.78c1,1.39,2.06,2.06,3.11,2a3.77,3.77,0,0,0,1.21-.37,1.79,1.79,0,0,0,1.27-1.86,5.65,5.65,0,0,0-1.53-2.74,34.24,34.24,0,0,1-3.25-4.86,33,33,0,0,0-2.17-3.51,7.11,7.11,0,0,1-1.22-1.66c-1.92-3.28-3.78-4.86-5.56-4.74a3.45,3.45,0,0,0-2.11,1,8.33,8.33,0,0,0-1.94,3.33c-.32,1-.67,1.91-1,2.82a33.39,33.39,0,0,0-1.13,3.29q-.93,2.83-2.43,6.7c-1.08,2.68-1.6,4.25-1.54,4.72A1.71,1.71,0,0,0,745.81,431.2Zm8.79-13.1c.12-.31.24-.65.37-1s.23-.66.29-.89.12-.37.14-.42c.07-.21.18-.33.33-.34.31,0,.91.6,1.8,1.87a7.93,7.93,0,0,1,1.29,2.33c.06.56-1.08,1-3.44,1.19l-.27,0c-.68,0-1-.1-1.08-.43A8.43,8.43,0,0,1,754.6,418.1Z"/><path class="cls-4" d="M779.41,430.24c.28,0,.69,0,1.25-.05,2.64-.18,4.48-1.22,5.53-3.14a5.51,5.51,0,0,0,.41-3.26,11.36,11.36,0,0,0-1.25-4,11,11,0,0,1-1.3-3.57l0-.5a.61.61,0,0,1,.29-.52,4.79,4.79,0,0,1,1.3-.19,3.55,3.55,0,0,0,2.36-.83c.53-.51.78-.93.74-1.26a2.85,2.85,0,0,0-.43-.9,3.26,3.26,0,0,0-1.93-1.18,8.62,8.62,0,0,0-3-.3,5.6,5.6,0,0,0-2.74.79,5.81,5.81,0,0,0-1.74,1.83,4.3,4.3,0,0,0-.59,1.26,5.13,5.13,0,0,0,0,1.69l.08.63a13,13,0,0,0,1.35,4.46,9.53,9.53,0,0,1,1,2.92l0,.24,0,1.14-2.58.17a11.75,11.75,0,0,0-2.24.28,2.85,2.85,0,0,0-1.08.73c-.49.55-.72,1-.68,1.29a2.72,2.72,0,0,0,.43.93Q775.45,430.19,779.41,430.24Z"/><path class="cls-4" d="M806.25,418.66c.62,2.65,1.71,3.93,3.28,3.82a4.57,4.57,0,0,0,1.17-.25c1.16-.41,1.81-1.49,1.95-3.23a7.8,7.8,0,0,0,0-.92,2.86,2.86,0,0,0-.79-1.58,2.81,2.81,0,0,1-.81-1.44c-.06-.51.41-.88,1.4-1.09a30.91,30.91,0,0,1,3.94-.48l2.53-.17.31,2.61q.72,6.24,4.08,6a2.63,2.63,0,0,0,1.51-.56,1.58,1.58,0,0,0,.49-1.4c0-.68-.2-2.8-.55-6.38-.48-5.25-.72-8.41-.73-9.5s0-1.59,0-1.64a1.76,1.76,0,0,0-.93-1.18,3.11,3.11,0,0,0-1.87-.55,3.39,3.39,0,0,0-1.86.77,1.66,1.66,0,0,0-.76,1,22.62,22.62,0,0,0,0,3,24.89,24.89,0,0,1,0,3.38c0,.05-1.43.22-4.21.53l-4.12.49c-.06-.77-.12-1.95-.18-3.52s-.11-2.75-.17-3.52l-1-.61a3.4,3.4,0,0,0-2.11-.57,2.63,2.63,0,0,0-1.81.83c-.56.51-.82.91-.79,1.19s.11,1.34.32,3.18Q805.78,417,806.25,418.66Z"/><path class="cls-4" d="M830.32,415.14l.08.78a12.27,12.27,0,0,0,1.19,3.05,9.49,9.49,0,0,0,1.84,2.64,6.43,6.43,0,0,0,5,1.69,27.48,27.48,0,0,0,4.82-.93,34.31,34.31,0,0,0,4.85-1.59,3.15,3.15,0,0,0,1.75-1.56,3.37,3.37,0,0,0,.34-1.44,2,2,0,0,0-.93-1.25,3,3,0,0,0-2.06-.58,3.46,3.46,0,0,0-2.09.86,9.13,9.13,0,0,1-2.88,1.36,14.39,14.39,0,0,1-3.59.85,1.51,1.51,0,0,1-.93-.17A3,3,0,0,1,837,418a7,7,0,0,1-1.21-3.22c0-.44,0-.67.15-.68.52,0,1.68-.23,3.49-.58s2.94-.59,3.42-.74a4.09,4.09,0,0,0,1.87-1.23,2.16,2.16,0,0,0,.72-1.61,1.64,1.64,0,0,0-1-1.25,4,4,0,0,0-2.06-.39,3.14,3.14,0,0,0-1.53.46,8.13,8.13,0,0,1-2.89.69l-2.25.19-.3-2.18L835,405.2l1.81-.4c.73-.15,1.94-.37,3.64-.68a9.88,9.88,0,0,0,2.35-.51,2.41,2.41,0,0,0,1-.95,1.65,1.65,0,0,0,.2-1.05,1.8,1.8,0,0,0-1.19-1.44,5.9,5.9,0,0,0-2.52-.19,25.94,25.94,0,0,0-4.2.68c-1.39.3-2.52.51-3.41.62-1.63.11-2.61.6-2.94,1.48a38.53,38.53,0,0,0,.1,5.07C829.92,410.9,830.11,413.34,830.32,415.14Z"/><path class="cls-4" d="M855.58,416.77a37.65,37.65,0,0,0,0,4.9,3.6,3.6,0,0,0,1.39,2.79,3,3,0,0,0,1.83.51,3.1,3.1,0,0,0,1.89-.87,2.1,2.1,0,0,0,.72-1.05,9.52,9.52,0,0,0-.09-2l-.06-.49a10.68,10.68,0,0,1-.12-2,.55.55,0,0,1,.57-.53,13.28,13.28,0,0,1,2.86.69,28.18,28.18,0,0,1,5.92,2.62c1.87,1.1,3.26,1.63,4.18,1.56a3.39,3.39,0,0,0,1.34-.41,2,2,0,0,0,.88-.84,1.81,1.81,0,0,0,.24-1.15,1.31,1.31,0,0,0-.15-.45c-.16-.37-1.26-1.15-3.29-2.36a26.44,26.44,0,0,0-4.48-2.27l-1.2-.34,1.36-1a7.3,7.3,0,0,0,2-2.11,3.88,3.88,0,0,0,.37-2.35,4.33,4.33,0,0,0-1.25-2.79,9.3,9.3,0,0,0-3.83-2,13.34,13.34,0,0,0-4.83-.58,8.65,8.65,0,0,0-2.22.43,11.63,11.63,0,0,0-2.62,1.46c-.92.65-1.41,1.16-1.5,1.52a11.15,11.15,0,0,0,0,2.52A60.94,60.94,0,0,1,855.58,416.77Zm6.37-6.71c.4-.53.6-.87.58-1s.24-.3.79-.34a3.88,3.88,0,0,1,1.94.3c.52.2.8.48.84.83s-.26.8-.92,1.27a22,22,0,0,1-2,1.13,6.12,6.12,0,0,1-1.49.63c-.15,0-.24-.15-.28-.48A2.77,2.77,0,0,1,862,410.06Z"/><path class="cls-4" d="M881.22,411.7l.09.77a12.27,12.27,0,0,0,1.19,3,9.41,9.41,0,0,0,1.84,2.65,6.39,6.39,0,0,0,5,1.68,27.65,27.65,0,0,0,4.82-.93,34.31,34.31,0,0,0,4.85-1.59,3.18,3.18,0,0,0,1.75-1.55,3.38,3.38,0,0,0,.34-1.45,2,2,0,0,0-.93-1.25,3,3,0,0,0-2.07-.57,3.45,3.45,0,0,0-2.08.85,9.09,9.09,0,0,1-2.88,1.37,15.41,15.41,0,0,1-3.6.85,1.55,1.55,0,0,1-.92-.17,3.16,3.16,0,0,1-.78-.89,7.29,7.29,0,0,1-1.21-3.22c0-.45,0-.68.16-.69.52,0,1.68-.23,3.48-.57s2.94-.6,3.42-.75a3.92,3.92,0,0,0,1.88-1.23,2.22,2.22,0,0,0,.72-1.61,1.62,1.62,0,0,0-1-1.24,4,4,0,0,0-2.06-.39,3.14,3.14,0,0,0-1.53.45,7.91,7.91,0,0,1-2.89.7l-2.26.18-.29-2.18-.35-2.21,1.81-.41c.72-.14,1.94-.37,3.63-.67a10.24,10.24,0,0,0,2.36-.52,2.34,2.34,0,0,0,1-1,1.7,1.7,0,0,0,.2-1,1.8,1.8,0,0,0-1.19-1.45,5.84,5.84,0,0,0-2.53-.18,25.89,25.89,0,0,0-4.19.67,34.25,34.25,0,0,1-3.41.62c-1.63.11-2.61.6-2.94,1.48a36.58,36.58,0,0,0,.1,5.07Q880.91,409,881.22,411.7Z"/><path d="M1184.3,625.23q11.34,1,12.16-.22l.7-1.08c-.21-1-.45-1.53-.7-1.63l-.85-.32a40.1,40.1,0,0,0-6.51-.32q-1-.39.57-3,11.34-16.3,14-20.34l1.57-2.4a2.05,2.05,0,0,0-.43-2.6l-1.41-.54-2,.33q-3.15,6.45-4.39,8.34-3.75,5.76-14.84,21.1a2.67,2.67,0,0,0,.71,2.17Z"/><path d="M1219.83,607.15c-.39.59-.77.81-1.14.67q-14.45,4.24-18,9.63l-1.69,2.6q-1.82,5.79,6.79,9.08l.57.22a31.54,31.54,0,0,0,8.62,1.94q16.51,1.79,20.79-4.77l.7-1.08q3.43-5.25-3-13.3l1.71-2.07a3.24,3.24,0,0,0-2.4-2.82,16.33,16.33,0,0,0-6.23-.75c-.44-.17-2.66-1.29-6.64-3.35l-.57-.22c-1,.07-1.56.22-1.7.44l-.7,1.08C1216.67,604.94,1217.62,605.84,1219.83,607.15Zm6.08,3.14a24.77,24.77,0,0,1,4.95,4.32q4.29,5.88,1.69,9.86l-.27.42a11.4,11.4,0,0,1-6.08,3.35,37,37,0,0,1-18-1.71q-7.07-2.7-4.52-6.59l.84-1.3a8,8,0,0,1,2.41-2.06Q1216.43,610.19,1225.91,610.29Z"/><path d="M1253.52,621.12q-14.44,4.26-18,9.64l-1.7,2.6q-1.81,5.79,6.79,9.08l.57.22a32,32,0,0,0,8.63,1.94q16.5,1.78,20.78-4.77l.7-1.08q3.44-5.25-3-13.3l1.7-2.08a3.24,3.24,0,0,0-2.4-2.81,16.33,16.33,0,0,0-6.23-.75c-.44-.17-2.66-1.29-6.64-3.35l-.57-.22c-1,.07-1.55.22-1.69.43l-.71,1.09q-.48.74,2.83,2.7Q1254.07,621.34,1253.52,621.12Zm7.22,2.47a25.19,25.19,0,0,1,5,4.33q4.29,5.88,1.69,9.86l-.27.42a11.4,11.4,0,0,1-6.08,3.35,36.94,36.94,0,0,1-18-1.71q-7.08-2.7-4.53-6.6l.84-1.29a8,8,0,0,1,2.41-2.06Q1251.25,623.5,1260.74,623.59Z"/><path d="M1288.35,634.43q-14.44,4.26-17.95,9.64l-1.7,2.59q-1.82,5.8,6.79,9.09l.57.21a31.62,31.62,0,0,0,8.63,1.95q16.5,1.79,20.78-4.77l.71-1.08q3.42-5.25-3-13.31l1.7-2.07a3.23,3.23,0,0,0-2.4-2.81,16.3,16.3,0,0,0-6.22-.75c-.45-.17-2.66-1.29-6.65-3.35l-.57-.22c-1,.07-1.55.22-1.69.43l-.71,1.08q-.48.75,2.83,2.71Q1288.92,634.66,1288.35,634.43Zm7.22,2.47a25.19,25.19,0,0,1,5,4.33q4.29,5.88,1.7,9.86l-.28.41a11.41,11.41,0,0,1-6.07,3.36,37,37,0,0,1-18-1.71q-7.08-2.7-4.53-6.6l.85-1.29a7.77,7.77,0,0,1,2.4-2.06Q1286.09,636.81,1295.57,636.9Z"/><path d="M1323.18,647.74q-14.45,4.26-18,9.64l-1.7,2.59q-1.82,5.81,6.8,9.09l.56.21a31.62,31.62,0,0,0,8.63,2q16.5,1.78,20.78-4.77l.71-1.08q3.42-5.26-3-13.31l1.7-2.07a3.22,3.22,0,0,0-2.4-2.81,16.28,16.28,0,0,0-6.22-.75c-.45-.17-2.66-1.29-6.65-3.36l-.57-.21c-1,.07-1.55.22-1.69.43l-.71,1.08q-.48.75,2.83,2.71C1323.94,647.66,1323.56,647.89,1323.18,647.74Zm7.22,2.47a24.63,24.63,0,0,1,4.95,4.33q4.29,5.88,1.7,9.86l-.28.41a11.44,11.44,0,0,1-6.07,3.36,37,37,0,0,1-18-1.71q-7.08-2.7-4.53-6.6l.85-1.3a7.9,7.9,0,0,1,2.4-2Q1320.92,650.12,1330.4,650.21Z"/><path d="M1358,661.05q-14.43,4.26-18,9.63l-1.69,2.6q-1.81,5.79,6.79,9.09l.56.21a31.62,31.62,0,0,0,8.63,1.95q16.5,1.79,20.78-4.77l.71-1.08q3.42-5.26-3-13.31l1.71-2.07a3.24,3.24,0,0,0-2.41-2.81,16.45,16.45,0,0,0-6.22-.76c-.45-.17-2.66-1.28-6.65-3.35l-.56-.21c-1,.07-1.56.21-1.7.43l-.71,1.08q-.48.75,2.83,2.71Q1358.58,661.26,1358,661.05Zm7.22,2.47a24.61,24.61,0,0,1,5,4.33q4.27,5.88,1.69,9.85l-.27.42a11.51,11.51,0,0,1-6.08,3.36,37,37,0,0,1-18-1.71c-4.72-1.8-6.22-4-4.53-6.6l.85-1.3a7.76,7.76,0,0,1,2.4-2Q1355.75,663.43,1365.23,663.52Z"/><path d="M1392.84,674.36q-14.43,4.26-17.95,9.63l-1.69,2.6q-1.82,5.79,6.79,9.08l.56.22a31.33,31.33,0,0,0,8.63,1.94q16.5,1.8,20.78-4.76l.71-1.08q3.43-5.26-3-13.31l1.71-2.07a3.23,3.23,0,0,0-2.41-2.81,16.25,16.25,0,0,0-6.22-.76c-.44-.17-2.66-1.28-6.65-3.35l-.56-.21c-1,.07-1.56.21-1.7.43l-.71,1.08q-.48.75,2.83,2.7C1393.6,674.28,1393.22,674.5,1392.84,674.36Zm7.23,2.47a24.77,24.77,0,0,1,5,4.32q4.27,5.9,1.69,9.86l-.27.42a11.47,11.47,0,0,1-6.08,3.36,37,37,0,0,1-18-1.71q-7.07-2.7-4.53-6.6l.85-1.3a7.76,7.76,0,0,1,2.4-2Q1390.59,676.74,1400.07,676.83Z"/><path d="M1404.07,709.2l1.42.54q11.34,1,12.16-.22l.71-1.08c-.22-1-.46-1.52-.71-1.62l-.85-.33a41.36,41.36,0,0,0-6.51-.32q-1-.37.57-3,11.36-16.3,14-20.34l1.57-2.39a2,2,0,0,0-.43-2.6l-1.41-.54-2,.32q-3.15,6.45-4.39,8.35-3.75,5.74-14.83,21.1A2.59,2.59,0,0,0,1404.07,709.2Z"/></svg>