<svg id="Layer_1" data-name="Layer 1" xmlns="http://www.w3.org/2000/svg" width="135" height="215" viewBox="0 0 135 215"><defs><style>.cls-1{fill:none;}.cls-2,.cls-6{fill:#fff;}.cls-3{fill:#ccc;}.cls-4{fill:#fdb829;}.cls-5{fill:#ffd955;}.cls-6{opacity:0.4;}.cls-7{fill:#b3b3b3;opacity:0.3;}</style></defs><path class="cls-1" d="M117.24,124.84a5.65,5.65,0,0,0-5.65-5.65H100.86v50h10.92a5.64,5.64,0,0,0,4.79-2.66,5.55,5.55,0,0,0,.67-2.66Z"/><path class="cls-2" d="M1.43,189.9h0a4,4,0,0,1,.12-1V73.09A10,10,0,0,1,1.65,72c0-.1-.07-.2-.1-.3a9,9,0,0,0-.17,1.74v123.3c0,.18,0,.36,0,.53l0-.26Z"/><path class="cls-3" d="M1.75,71.35a4.16,4.16,0,0,1-.17-1.15A4.39,4.39,0,0,1,2.17,68a4.57,4.57,0,0,0-.79,2.49,4.16,4.16,0,0,0,.17,1.15c0,.1.06.2.1.3C1.68,71.77,1.71,71.55,1.75,71.35Z"/><path class="cls-4" d="M51.17,214c-27.39,0-49-6.55-49.54-11.51a24.16,24.16,0,0,1,0-5.57c0-.18,0-.36,0-.54v-5.51a4.11,4.11,0,0,1-.12-1h0V197l0,.26a25.44,25.44,0,0,0,0,5.58c.52,5,22.16,11.51,49.55,11.51,25.91,0,46.88-5.85,49.39-10.69C97.11,208.42,76.5,214,51.17,214Z"/><path class="cls-5" d="M1.58,190.88v-2a4,4,0,0,0-.12,1A4.11,4.11,0,0,0,1.58,190.88Z"/><path class="cls-2" d="M125.59,179.75l-.43,0a2.68,2.68,0,0,1-.4,0h-23.9v.33h23.7l.41,0,.42,0a8.17,8.17,0,0,0,7.18-4.31A8.13,8.13,0,0,1,125.59,179.75Z"/><path class="cls-2" d="M111.78,118.86H100.86v.33h10.73a5.65,5.65,0,0,1,5.65,5.65v39.07a5.55,5.55,0,0,1-.67,2.66,5.56,5.56,0,0,0,.86-3V124.51A5.65,5.65,0,0,0,111.78,118.86Z"/><path class="cls-6" d="M111.78,169.23H100.86v-50h-.24v50.37h11a5.64,5.64,0,0,0,5-3A5.64,5.64,0,0,1,111.78,169.23Z"/><path class="cls-6" d="M100.62,189.47c0,.14,0,.28,0,.43h0v7.38a9.68,9.68,0,0,1-.1,1.33,22.49,22.49,0,0,1,.05,4.22,2.21,2.21,0,0,1-.25.82,2.36,2.36,0,0,0,.44-1.15,21.67,21.67,0,0,0,0-4.22,8.33,8.33,0,0,0,.1-1.33V180.08h-.24Z"/><path class="cls-6" d="M125.59,108.34H100.81V73.09a9.26,9.26,0,0,0-.18-1.84,4.21,4.21,0,0,0,.14-1c0-7.69-22.21-13.93-49.6-13.93-24.77,0-45.31,5.1-49,11.77C6.35,61.54,26.61,56.6,51,56.6c27.39,0,49.59,6.23,49.59,13.93a4.21,4.21,0,0,1-.14,1,9.26,9.26,0,0,1,.19,1.84v35.25h24.77a8.17,8.17,0,0,1,8.15,8.15v55.11a8,8,0,0,1-1,3.84,8,8,0,0,0,1.17-4.17V116.49A8.18,8.18,0,0,0,125.59,108.34Z"/><path class="cls-3" d="M1.75,71.35c0,.2-.07.42-.1.63C4.24,79,25.33,84.45,51,84.45c26.13,0,47.53-5.67,49.45-12.87a4.21,4.21,0,0,0,.14-1c0-7.7-22.2-13.93-49.59-13.93C26.61,56.6,6.35,61.54,2.17,68a4.39,4.39,0,0,0-.59,2.16A4.16,4.16,0,0,0,1.75,71.35Z"/><path class="cls-6" d="M1.75,71.35c0,.2-.07.42-.1.63C4.24,79,25.33,84.45,51,84.45c26.13,0,47.53-5.67,49.45-12.87a4.21,4.21,0,0,0,.14-1c0-7.7-22.2-13.93-49.59-13.93C26.61,56.6,6.35,61.54,2.17,68a4.39,4.39,0,0,0-.59,2.16A4.16,4.16,0,0,0,1.75,71.35Z"/><path class="cls-4" d="M100.57,198.61a9.68,9.68,0,0,0,.1-1.33V189.9h0c0,7.69-22.2,13.92-49.59,13.92-26.22,0-47.68-5.71-49.47-12.94v5.51c0,.18,0,.36,0,.54a24.16,24.16,0,0,0,0,5.57c.52,5,22.15,11.51,49.54,11.51,25.33,0,45.94-5.59,49.2-10.36a2.21,2.21,0,0,0,.25-.82A22.49,22.49,0,0,0,100.57,198.61Z"/><path class="cls-6" d="M100.57,198.61a9.68,9.68,0,0,0,.1-1.33V189.9h0c0,7.69-22.2,13.92-49.59,13.92-26.22,0-47.68-5.71-49.47-12.94v5.51c0,.18,0,.36,0,.54a24.16,24.16,0,0,0,0,5.57c.52,5,22.15,11.51,49.54,11.51,25.33,0,45.94-5.59,49.2-10.36a2.21,2.21,0,0,0,.25-.82A22.49,22.49,0,0,0,100.57,198.61Z"/><path class="cls-5" d="M72.58,182.9v-5.55c-4-.55-8.42-.95-13-1.17V181A82.91,82.91,0,0,1,72.58,182.9Z"/><path class="cls-6" d="M72.58,182.9v-5.55c-4-.55-8.42-.95-13-1.17V181A82.91,82.91,0,0,1,72.58,182.9Z"/><path class="cls-5" d="M43.28,180.94v-4.8c-4.57.2-8.93.58-13,1.11v5.48A84.9,84.9,0,0,1,43.28,180.94Z"/><path class="cls-6" d="M43.28,180.94v-4.8c-4.57.2-8.93.58-13,1.11v5.48A84.9,84.9,0,0,1,43.28,180.94Z"/><path class="cls-5" d="M51.05,203.82c27.39,0,49.59-6.23,49.59-13.92,0-.15,0-.29,0-.43-.35-3.27-4.71-6.25-11.73-8.57v9.9a8.14,8.14,0,0,1-14.13,5.52,79.13,79.13,0,0,1-16.4,2.57,8.12,8.12,0,0,1-13.83.05A81.79,81.79,0,0,1,28,196.48a8.14,8.14,0,0,1-14-5.68V180.65c-7.07,2.23-11.62,5.1-12.4,8.27v2C3.37,198.11,24.83,203.82,51.05,203.82Z"/><path class="cls-6" d="M51.05,203.82c27.39,0,49.59-6.23,49.59-13.92,0-.15,0-.29,0-.43-.35-3.27-4.71-6.25-11.73-8.57v9.9a8.14,8.14,0,0,1-14.13,5.52,79.13,79.13,0,0,1-16.4,2.57,8.12,8.12,0,0,1-13.83.05A81.79,81.79,0,0,1,28,196.48a8.14,8.14,0,0,1-14-5.68V180.65c-7.07,2.23-11.62,5.1-12.4,8.27v2C3.37,198.11,24.83,203.82,51.05,203.82Z"/><path class="cls-2" d="M43.28,180.94a84.9,84.9,0,0,0-13,1.79v8.07A8.13,8.13,0,0,1,28,196.48a81.79,81.79,0,0,0,16.57,2.46,8.08,8.08,0,0,1-1.25-4.32Z"/><path class="cls-6" d="M43.28,180.94a84.9,84.9,0,0,0-13,1.79v8.07A8.13,8.13,0,0,1,28,196.48a81.79,81.79,0,0,0,16.57,2.46,8.08,8.08,0,0,1-1.25-4.32Z"/><path class="cls-2" d="M72.58,182.9a82.91,82.91,0,0,0-13-1.91v13.63a8.1,8.1,0,0,1-1.23,4.27,79.13,79.13,0,0,0,16.4-2.57,8.1,8.1,0,0,1-2.18-5.52Z"/><path class="cls-6" d="M72.58,182.9a82.91,82.91,0,0,0-13-1.91v13.63a8.1,8.1,0,0,1-1.23,4.27,79.13,79.13,0,0,0,16.4-2.57,8.1,8.1,0,0,1-2.18-5.52Z"/><path class="cls-2" d="M133.54,116.82a8.17,8.17,0,0,0-8.15-8.15H100.62V73.42a9.26,9.26,0,0,0-.19-1.84C98.51,78.78,77.11,84.45,51,84.45,25.33,84.45,4.24,79,1.65,72a10,10,0,0,0-.07,1.11V188.92c.78-3.17,5.33-6,12.4-8.27V93.47a8.16,8.16,0,0,1,16.31,0v83.78c4.06-.53,8.42-.91,13-1.11V97.29a8.16,8.16,0,0,1,16.31,0v78.89c4.57.22,8.94.62,13,1.17V93.47a8.16,8.16,0,0,1,16.31,0V180.9c7,2.32,11.38,5.3,11.73,8.57v-9.39h.24v-.33h23.9a2.68,2.68,0,0,0,.4,0l.43,0a8.13,8.13,0,0,0,7-4,8,8,0,0,0,1-3.84Zm-16.11,46.76a5.56,5.56,0,0,1-.86,3,5.64,5.64,0,0,1-5,3h-11V119.19h.24v-.33h10.92a5.65,5.65,0,0,1,5.65,5.65Z"/><path class="cls-6" d="M133.54,116.82a8.17,8.17,0,0,0-8.15-8.15H100.62V73.42a9.26,9.26,0,0,0-.19-1.84C98.51,78.78,77.11,84.45,51,84.45,25.33,84.45,4.24,79,1.65,72a10,10,0,0,0-.07,1.11V188.92c.78-3.17,5.33-6,12.4-8.27V93.47a8.16,8.16,0,0,1,16.31,0v83.78c4.06-.53,8.42-.91,13-1.11V97.29a8.16,8.16,0,0,1,16.31,0v78.89c4.57.22,8.94.62,13,1.17V93.47a8.16,8.16,0,0,1,16.31,0V180.9c7,2.32,11.38,5.3,11.73,8.57v-9.39h.24v-.33h23.9a2.68,2.68,0,0,0,.4,0l.43,0a8.13,8.13,0,0,0,7-4,8,8,0,0,0,1-3.84Zm-16.11,46.76a5.56,5.56,0,0,1-.86,3,5.64,5.64,0,0,1-5,3h-11V119.19h.24v-.33h10.92a5.65,5.65,0,0,1,5.65,5.65Z"/><path class="cls-2" d="M30.29,93.47a8.16,8.16,0,0,0-16.31,0v87.18a96.08,96.08,0,0,1,16.31-3.4Z"/><path class="cls-7" d="M30.29,93.47a8.16,8.16,0,0,0-16.31,0v87.18a96.08,96.08,0,0,1,16.31-3.4Z"/><path class="cls-6" d="M30.29,93.47a8.16,8.16,0,0,0-16.31,0v87.18a96.08,96.08,0,0,1,16.31-3.4Z"/><path class="cls-5" d="M22.13,199A8.14,8.14,0,0,0,28,196.48c-6.13-1.67-9.94-4-9.94-6.58,0-2.9,4.79-5.48,12.27-7.17v-5.48A96.08,96.08,0,0,0,14,180.65V190.8A8.17,8.17,0,0,0,22.13,199Z"/><path class="cls-7" d="M22.13,199A8.14,8.14,0,0,0,28,196.48c-6.13-1.67-9.94-4-9.94-6.58,0-2.9,4.79-5.48,12.27-7.17v-5.48A96.08,96.08,0,0,0,14,180.65V190.8A8.17,8.17,0,0,0,22.13,199Z"/><path class="cls-6" d="M22.13,199A8.14,8.14,0,0,0,28,196.48c-6.13-1.67-9.94-4-9.94-6.58,0-2.9,4.79-5.48,12.27-7.17v-5.48A96.08,96.08,0,0,0,14,180.65V190.8A8.17,8.17,0,0,0,22.13,199Z"/><path class="cls-2" d="M30.29,182.73C22.81,184.42,18,187,18,189.9c0,2.58,3.81,4.91,9.94,6.58a8.13,8.13,0,0,0,2.33-5.68Z"/><path class="cls-7" d="M30.29,182.73C22.81,184.42,18,187,18,189.9c0,2.58,3.81,4.91,9.94,6.58a8.13,8.13,0,0,0,2.33-5.68Z"/><path class="cls-6" d="M30.29,182.73C22.81,184.42,18,187,18,189.9c0,2.58,3.81,4.91,9.94,6.58a8.13,8.13,0,0,0,2.33-5.68Z"/><path class="cls-2" d="M59.59,176.18V97.29a8.16,8.16,0,0,0-16.31,0v78.85c2.53-.11,5.13-.17,7.77-.17Q55.42,176,59.59,176.18Z"/><path class="cls-7" d="M59.59,176.18V97.29a8.16,8.16,0,0,0-16.31,0v78.85c2.53-.11,5.13-.17,7.77-.17Q55.42,176,59.59,176.18Z"/><path class="cls-6" d="M59.59,176.18V97.29a8.16,8.16,0,0,0-16.31,0v78.85c2.53-.11,5.13-.17,7.77-.17Q55.42,176,59.59,176.18Z"/><path class="cls-5" d="M51.06,180.68c2.95,0,5.81.11,8.53.31v-4.81q-4.17-.21-8.54-.21c-2.64,0-5.24.06-7.77.17v4.8C45.78,180.77,48.38,180.68,51.06,180.68Z"/><path class="cls-7" d="M51.06,180.68c2.95,0,5.81.11,8.53.31v-4.81q-4.17-.21-8.54-.21c-2.64,0-5.24.06-7.77.17v4.8C45.78,180.77,48.38,180.68,51.06,180.68Z"/><path class="cls-6" d="M51.06,180.68c2.95,0,5.81.11,8.53.31v-4.81q-4.17-.21-8.54-.21c-2.64,0-5.24.06-7.77.17v4.8C45.78,180.77,48.38,180.68,51.06,180.68Z"/><path class="cls-5" d="M44.53,198.94a8.12,8.12,0,0,0,13.83-.05c-2.35.15-4.79.23-7.3.23C48.83,199.12,46.64,199.05,44.53,198.94Z"/><path class="cls-7" d="M44.53,198.94a8.12,8.12,0,0,0,13.83-.05c-2.35.15-4.79.23-7.3.23C48.83,199.12,46.64,199.05,44.53,198.94Z"/><path class="cls-6" d="M44.53,198.94a8.12,8.12,0,0,0,13.83-.05c-2.35.15-4.79.23-7.3.23C48.83,199.12,46.64,199.05,44.53,198.94Z"/><path class="cls-2" d="M59.59,181c-2.72-.2-5.58-.31-8.53-.31-2.68,0-5.28.09-7.78.26v13.68a8.08,8.08,0,0,0,1.25,4.32c2.11.11,4.3.18,6.53.18,2.51,0,4.95-.08,7.3-.23a8.1,8.1,0,0,0,1.23-4.27Z"/><path class="cls-7" d="M59.59,181c-2.72-.2-5.58-.31-8.53-.31-2.68,0-5.28.09-7.78.26v13.68a8.08,8.08,0,0,0,1.25,4.32c2.11.11,4.3.18,6.53.18,2.51,0,4.95-.08,7.3-.23a8.1,8.1,0,0,0,1.23-4.27Z"/><path class="cls-6" d="M59.59,181c-2.72-.2-5.58-.31-8.53-.31-2.68,0-5.28.09-7.78.26v13.68a8.08,8.08,0,0,0,1.25,4.32c2.11.11,4.3.18,6.53.18,2.51,0,4.95-.08,7.3-.23a8.1,8.1,0,0,0,1.23-4.27Z"/><path class="cls-2" d="M88.89,93.47a8.16,8.16,0,0,0-16.31,0v83.88a92.31,92.31,0,0,1,16.31,3.55Z"/><path class="cls-7" d="M88.89,93.47a8.16,8.16,0,0,0-16.31,0v83.88a92.31,92.31,0,0,1,16.31,3.55Z"/><path class="cls-6" d="M88.89,93.47a8.16,8.16,0,0,0-16.31,0v83.88a92.31,92.31,0,0,1,16.31,3.55Z"/><path class="cls-5" d="M84.1,189.9c0,2.49-3.56,4.76-9.34,6.42a8.14,8.14,0,0,0,14.13-5.52v-9.9a92.31,92.31,0,0,0-16.31-3.55v5.55C79.63,184.6,84.1,187.1,84.1,189.9Z"/><path class="cls-7" d="M84.1,189.9c0,2.49-3.56,4.76-9.34,6.42a8.14,8.14,0,0,0,14.13-5.52v-9.9a92.31,92.31,0,0,0-16.31-3.55v5.55C79.63,184.6,84.1,187.1,84.1,189.9Z"/><path class="cls-6" d="M84.1,189.9c0,2.49-3.56,4.76-9.34,6.42a8.14,8.14,0,0,0,14.13-5.52v-9.9a92.31,92.31,0,0,0-16.31-3.55v5.55C79.63,184.6,84.1,187.1,84.1,189.9Z"/><path class="cls-2" d="M84.1,189.9c0-2.8-4.47-5.3-11.52-7v7.9a8.1,8.1,0,0,0,2.18,5.52C80.54,194.66,84.1,192.39,84.1,189.9Z"/><path class="cls-7" d="M84.1,189.9c0-2.8-4.47-5.3-11.52-7v7.9a8.1,8.1,0,0,0,2.18,5.52C80.54,194.66,84.1,192.39,84.1,189.9Z"/><path class="cls-6" d="M84.1,189.9c0-2.8-4.47-5.3-11.52-7v7.9a8.1,8.1,0,0,0,2.18,5.52C80.54,194.66,84.1,192.39,84.1,189.9Z"/></svg>