<svg id="Layer_1" data-name="Layer 1" xmlns="http://www.w3.org/2000/svg" width="135" height="215" viewBox="0 0 135 215"><defs><style>.cls-1{fill:none;}.cls-2,.cls-6{fill:#fff;}.cls-3{fill:#ccc;}.cls-4{fill:#fdb829;}.cls-5{fill:#ffd955;}.cls-6{opacity:0.4;}.cls-7{fill:#b3b3b3;opacity:0.3;}</style></defs><path class="cls-1" d="M111.78,169.64a5.16,5.16,0,0,0,5.46-5.25V125.33a5.65,5.65,0,0,0-5.65-5.66H100.86v50Z"/><path class="cls-2" d="M1.43,115h.15V73.5a9,9,0,0,1,.06-1l-.09-.29a9.09,9.09,0,0,0-.17,1.74V197.2c0,.18,0,.36,0,.54l0-.27Z"/><path class="cls-3" d="M1.75,71.76a4.11,4.11,0,0,1-.17-1.15A4.25,4.25,0,0,1,2,68.88,4.43,4.43,0,0,0,1.38,71a4.11,4.11,0,0,0,.17,1.15l.09.29C1.67,72.21,1.7,72,1.75,71.76Z"/><path class="cls-4" d="M51.17,214.42c-27.39,0-49-6.54-49.54-11.51a24.17,24.17,0,0,1,0-5.57c0-.18,0-.36,0-.54V118.07a4.11,4.11,0,0,1-.12-1,4,4,0,0,1,.12-1V115H1.43v82.47l0,.27a25.34,25.34,0,0,0,0,5.57c.52,5,22.16,11.51,49.55,11.51,26.34,0,47.59-6,49.5-10.93C97.61,208.7,76.8,214.42,51.17,214.42Z"/><path class="cls-5" d="M1.46,117.09a4.11,4.11,0,0,0,.12,1v-2A4,4,0,0,0,1.46,117.09Z"/><path class="cls-2" d="M117.24,125.33v39.06a5.62,5.62,0,0,1-.5,2.32,5.66,5.66,0,0,0,.69-2.72V124.93a5.65,5.65,0,0,0-5.65-5.66H100.86v.4h10.73A5.65,5.65,0,0,1,117.24,125.33Z"/><path class="cls-2" d="M125.59,180.17c-.15,0-.28,0-.43,0a2.69,2.69,0,0,1-.4,0h-23.9v.4h23.7a2.83,2.83,0,0,0,.41,0l.42,0a8.17,8.17,0,0,0,7.35-4.66A8.18,8.18,0,0,1,125.59,180.17Z"/><path class="cls-6" d="M111.59,170a5.66,5.66,0,0,0,5.15-3.33,5.64,5.64,0,0,1-5,2.93H100.86v-50h-.19V170Z"/><path class="cls-6" d="M100.67,197.76a9.68,9.68,0,0,1-.1,1.33,22.49,22.49,0,0,1,.05,4.22,2.13,2.13,0,0,1-.14.58,2.16,2.16,0,0,0,.33-1,21.67,21.67,0,0,0,0-4.22,8.33,8.33,0,0,0,.1-1.33V180.57h-.19Z"/><path class="cls-6" d="M125.59,108.75H100.81V73.5a9.33,9.33,0,0,0-.18-1.84,4.21,4.21,0,0,0,.14-1c0-7.69-22.21-13.93-49.6-13.93C25.87,56.68,5,62,2,68.88c3.65-6.68,24.2-11.8,49-11.8,27.39,0,49.59,6.24,49.59,13.93a4.21,4.21,0,0,1-.14,1,9.34,9.34,0,0,1,.19,1.84v35.25h24.77a8.17,8.17,0,0,1,8.15,8.15v55.11a8.06,8.06,0,0,1-.8,3.5,8,8,0,0,0,1-3.9V116.9A8.18,8.18,0,0,0,125.59,108.75Z"/><path class="cls-3" d="M1.75,71.76c-.05.22-.08.45-.11.69C4.2,79.46,25.31,84.94,51,84.94c26.13,0,47.53-5.68,49.45-12.88a4.21,4.21,0,0,0,.14-1c0-7.69-22.2-13.93-49.59-13.93-24.82,0-45.37,5.12-49,11.8a4.25,4.25,0,0,0-.38,1.73A4.11,4.11,0,0,0,1.75,71.76Z"/><path class="cls-6" d="M1.75,71.76c-.05.22-.08.45-.11.69C4.2,79.46,25.31,84.94,51,84.94c26.13,0,47.53-5.68,49.45-12.88a4.21,4.21,0,0,0,.14-1c0-7.69-22.2-13.93-49.59-13.93-24.82,0-45.37,5.12-49,11.8a4.25,4.25,0,0,0-.38,1.73A4.11,4.11,0,0,0,1.75,71.76Z"/><path class="cls-4" d="M2,115H1.58v1.11A4.62,4.62,0,0,1,2,115Z"/><path class="cls-6" d="M2,115H1.58v1.11A4.62,4.62,0,0,1,2,115Z"/><path class="cls-4" d="M100.57,115h-.48a5,5,0,0,1,.48,1.34Z"/><path class="cls-6" d="M100.57,115h-.48a5,5,0,0,1,.48,1.34Z"/><path class="cls-4" d="M100.57,199.09a9.68,9.68,0,0,0,.1-1.33V180.57h-.1V170h.1V119.67h-.1v-1.83c-.59,3.14-4.89,6-11.68,8.25V194a8.16,8.16,0,1,1-16.31,0V129.64c-4,.55-8.42,1-13,1.17v67a8.16,8.16,0,0,1-16.31,0v-67c-4.57-.2-8.93-.57-13-1.1V194A8.16,8.16,0,1,1,14,194V126.34c-7.07-2.23-11.62-5.11-12.4-8.27V196.8c0,.18,0,.36,0,.54a24.17,24.17,0,0,0,0,5.57c.52,5,22.15,11.51,49.54,11.51,25.63,0,46.44-5.72,49.31-10.53a2.13,2.13,0,0,0,.14-.58A22.49,22.49,0,0,0,100.57,199.09Z"/><path class="cls-6" d="M100.57,199.09a9.68,9.68,0,0,0,.1-1.33V180.57h-.1V170h.1V119.67h-.1v-1.83c-.59,3.14-4.89,6-11.68,8.25V194a8.16,8.16,0,1,1-16.31,0V129.64c-4,.55-8.42,1-13,1.17v67a8.16,8.16,0,0,1-16.31,0v-67c-4.57-.2-8.93-.57-13-1.1V194A8.16,8.16,0,1,1,14,194V126.34c-7.07-2.23-11.62-5.11-12.4-8.27V196.8c0,.18,0,.36,0,.54a24.17,24.17,0,0,0,0,5.57c.52,5,22.15,11.51,49.54,11.51,25.63,0,46.44-5.72,49.31-10.53a2.13,2.13,0,0,0,.14-.58A22.49,22.49,0,0,0,100.57,199.09Z"/><path class="cls-5" d="M72.58,110.12v-5.58c-4-.55-8.42-1-13-1.17v4.84A82.91,82.91,0,0,1,72.58,110.12Z"/><path class="cls-6" d="M72.58,110.12v-5.58c-4-.55-8.42-1-13-1.17v4.84A82.91,82.91,0,0,1,72.58,110.12Z"/><path class="cls-5" d="M43.28,108.16v-4.83c-4.57.21-8.93.58-13,1.11V110A84.9,84.9,0,0,1,43.28,108.16Z"/><path class="cls-6" d="M43.28,108.16v-4.83c-4.57.21-8.93.58-13,1.11V110A84.9,84.9,0,0,1,43.28,108.16Z"/><path class="cls-5" d="M30.29,124.28v5.46c4.06.53,8.42.9,13,1.1v-4.76A86.08,86.08,0,0,1,30.29,124.28Z"/><path class="cls-6" d="M30.29,124.28v5.46c4.06.53,8.42.9,13,1.1v-4.76A86.08,86.08,0,0,1,30.29,124.28Z"/><path class="cls-5" d="M59.59,126v4.79c4.57-.22,8.94-.62,13-1.17v-5.53A82.91,82.91,0,0,1,59.59,126Z"/><path class="cls-6" d="M59.59,126v4.79c4.57-.22,8.94-.62,13-1.17v-5.53A82.91,82.91,0,0,1,59.59,126Z"/><path class="cls-5" d="M1.58,118.07c.78,3.16,5.33,6,12.4,8.27v-18.5c-6.24,2-10.51,4.44-12,7.16a4.62,4.62,0,0,0-.43,1.11Z"/><path class="cls-6" d="M1.58,118.07c.78,3.16,5.33,6,12.4,8.27v-18.5c-6.24,2-10.51,4.44-12,7.16a4.62,4.62,0,0,0-.43,1.11Z"/><path class="cls-5" d="M100.57,117.84v-1.5a5,5,0,0,0-.48-1.34c-1.4-2.61-5.38-5-11.2-6.91v18C95.68,123.84,100,121,100.57,117.84Z"/><path class="cls-6" d="M100.57,117.84v-1.5a5,5,0,0,0-.48-1.34c-1.4-2.61-5.38-5-11.2-6.91v18C95.68,123.84,100,121,100.57,117.84Z"/><path class="cls-2" d="M72.58,124.11v-14a82.91,82.91,0,0,0-13-1.91V126A82.91,82.91,0,0,0,72.58,124.11Z"/><path class="cls-6" d="M72.58,124.11v-14a82.91,82.91,0,0,0-13-1.91V126A82.91,82.91,0,0,0,72.58,124.11Z"/><path class="cls-2" d="M43.28,108.16a84.9,84.9,0,0,0-13,1.79v14.33a86.08,86.08,0,0,0,13,1.8Z"/><path class="cls-6" d="M43.28,108.16a84.9,84.9,0,0,0-13,1.79v14.33a86.08,86.08,0,0,0,13,1.8Z"/><path class="cls-2" d="M133.54,117.3a8.17,8.17,0,0,0-8.15-8.15H100.62V73.9a9.34,9.34,0,0,0-.19-1.84C98.51,79.26,77.11,84.94,51,84.94c-25.67,0-46.78-5.48-49.34-12.49a9,9,0,0,0-.06,1V115H2c1.46-2.72,5.73-5.19,12-7.16V96.64a8.16,8.16,0,0,1,16.31,0v7.8c4.06-.53,8.42-.9,13-1.11v-2.87a8.16,8.16,0,0,1,16.31,0v2.91c4.57.22,8.94.62,13,1.17v-7.9a8.16,8.16,0,0,1,16.31,0v11.45c5.82,1.92,9.8,4.3,11.2,6.91h.48v4.67h.29v-.4h10.92a5.65,5.65,0,0,1,5.65,5.66V164a6.18,6.18,0,0,1-5.84,6h-11v10.53h.29v-.4h23.9a2.69,2.69,0,0,0,.4,0c.15,0,.28,0,.43,0a8.18,8.18,0,0,0,7.15-4.26,8.06,8.06,0,0,0,.8-3.5Z"/><path class="cls-6" d="M133.54,117.3a8.17,8.17,0,0,0-8.15-8.15H100.62V73.9a9.34,9.34,0,0,0-.19-1.84C98.51,79.26,77.11,84.94,51,84.94c-25.67,0-46.78-5.48-49.34-12.49a9,9,0,0,0-.06,1V115H2c1.46-2.72,5.73-5.19,12-7.16V96.64a8.16,8.16,0,0,1,16.31,0v7.8c4.06-.53,8.42-.9,13-1.11v-2.87a8.16,8.16,0,0,1,16.31,0v2.91c4.57.22,8.94.62,13,1.17v-7.9a8.16,8.16,0,0,1,16.31,0v11.45c5.82,1.92,9.8,4.3,11.2,6.91h.48v4.67h.29v-.4h10.92a5.65,5.65,0,0,1,5.65,5.66V164a6.18,6.18,0,0,1-5.84,6h-11v10.53h.29v-.4h23.9a2.69,2.69,0,0,0,.4,0c.15,0,.28,0,.43,0a8.18,8.18,0,0,0,7.15-4.26,8.06,8.06,0,0,0,.8-3.5Z"/><path class="cls-2" d="M30.29,96.64a8.16,8.16,0,0,0-16.31,0v11.2a96.08,96.08,0,0,1,16.31-3.4Z"/><path class="cls-7" d="M30.29,96.64a8.16,8.16,0,0,0-16.31,0v11.2a96.08,96.08,0,0,1,16.31-3.4Z"/><path class="cls-6" d="M30.29,96.64a8.16,8.16,0,0,0-16.31,0v11.2a96.08,96.08,0,0,1,16.31-3.4Z"/><path class="cls-4" d="M14,194a8.16,8.16,0,1,0,16.31,0V129.74A97.07,97.07,0,0,1,14,126.34Z"/><path class="cls-7" d="M14,194a8.16,8.16,0,1,0,16.31,0V129.74A97.07,97.07,0,0,1,14,126.34Z"/><path class="cls-6" d="M14,194a8.16,8.16,0,1,0,16.31,0V129.74A97.07,97.07,0,0,1,14,126.34Z"/><path class="cls-5" d="M30.29,129.74v-5.46C22.81,122.59,18,120,18,117.12s4.79-5.48,12.27-7.17v-5.51A96.08,96.08,0,0,0,14,107.84v18.5A97.07,97.07,0,0,0,30.29,129.74Z"/><path class="cls-7" d="M30.29,129.74v-5.46C22.81,122.59,18,120,18,117.12s4.79-5.48,12.27-7.17v-5.51A96.08,96.08,0,0,0,14,107.84v18.5A97.07,97.07,0,0,0,30.29,129.74Z"/><path class="cls-6" d="M30.29,129.74v-5.46C22.81,122.59,18,120,18,117.12s4.79-5.48,12.27-7.17v-5.51A96.08,96.08,0,0,0,14,107.84v18.5A97.07,97.07,0,0,0,30.29,129.74Z"/><path class="cls-2" d="M18,117.12c0,2.89,4.79,5.47,12.27,7.16V110C22.81,111.64,18,114.22,18,117.12Z"/><path class="cls-7" d="M18,117.12c0,2.89,4.79,5.47,12.27,7.16V110C22.81,111.64,18,114.22,18,117.12Z"/><path class="cls-6" d="M18,117.12c0,2.89,4.79,5.47,12.27,7.16V110C22.81,111.64,18,114.22,18,117.12Z"/><path class="cls-2" d="M59.59,103.37v-2.91a8.16,8.16,0,0,0-16.31,0v2.87c2.53-.11,5.13-.17,7.77-.17Q55.42,103.16,59.59,103.37Z"/><path class="cls-7" d="M59.59,103.37v-2.91a8.16,8.16,0,0,0-16.31,0v2.87c2.53-.11,5.13-.17,7.77-.17Q55.42,103.16,59.59,103.37Z"/><path class="cls-6" d="M59.59,103.37v-2.91a8.16,8.16,0,0,0-16.31,0v2.87c2.53-.11,5.13-.17,7.77-.17Q55.42,103.16,59.59,103.37Z"/><path class="cls-4" d="M43.28,130.84v67a8.16,8.16,0,0,0,16.31,0v-67q-4.17.19-8.54.2C48.41,131,45.81,131,43.28,130.84Z"/><path class="cls-7" d="M43.28,130.84v67a8.16,8.16,0,0,0,16.31,0v-67q-4.17.19-8.54.2C48.41,131,45.81,131,43.28,130.84Z"/><path class="cls-6" d="M43.28,130.84v67a8.16,8.16,0,0,0,16.31,0v-67q-4.17.19-8.54.2C48.41,131,45.81,131,43.28,130.84Z"/><path class="cls-5" d="M51.06,107.9c2.95,0,5.81.11,8.53.31v-4.84q-4.17-.21-8.54-.21c-2.64,0-5.24.06-7.77.17v4.83C45.78,108,48.38,107.9,51.06,107.9Z"/><path class="cls-7" d="M51.06,107.9c2.95,0,5.81.11,8.53.31v-4.84q-4.17-.21-8.54-.21c-2.64,0-5.24.06-7.77.17v4.83C45.78,108,48.38,107.9,51.06,107.9Z"/><path class="cls-6" d="M51.06,107.9c2.95,0,5.81.11,8.53.31v-4.84q-4.17-.21-8.54-.21c-2.64,0-5.24.06-7.77.17v4.83C45.78,108,48.38,107.9,51.06,107.9Z"/><path class="cls-5" d="M51.06,126.34c-2.68,0-5.28-.09-7.78-.26v4.76c2.53.12,5.13.17,7.77.17q4.37,0,8.54-.2V126C56.87,126.23,54,126.34,51.06,126.34Z"/><path class="cls-7" d="M51.06,126.34c-2.68,0-5.28-.09-7.78-.26v4.76c2.53.12,5.13.17,7.77.17q4.37,0,8.54-.2V126C56.87,126.23,54,126.34,51.06,126.34Z"/><path class="cls-6" d="M51.06,126.34c-2.68,0-5.28-.09-7.78-.26v4.76c2.53.12,5.13.17,7.77.17q4.37,0,8.54-.2V126C56.87,126.23,54,126.34,51.06,126.34Z"/><path class="cls-2" d="M51.06,126.34c2.95,0,5.81-.11,8.53-.32V108.21c-2.72-.2-5.58-.31-8.53-.31-2.68,0-5.28.09-7.78.26v17.92C45.78,126.25,48.38,126.34,51.06,126.34Z"/><path class="cls-7" d="M51.06,126.34c2.95,0,5.81-.11,8.53-.32V108.21c-2.72-.2-5.58-.31-8.53-.31-2.68,0-5.28.09-7.78.26v17.92C45.78,126.25,48.38,126.34,51.06,126.34Z"/><path class="cls-6" d="M51.06,126.34c2.95,0,5.81-.11,8.53-.32V108.21c-2.72-.2-5.58-.31-8.53-.31-2.68,0-5.28.09-7.78.26v17.92C45.78,126.25,48.38,126.34,51.06,126.34Z"/><path class="cls-2" d="M88.89,96.64a8.16,8.16,0,0,0-16.31,0v7.9a92.31,92.31,0,0,1,16.31,3.55Z"/><path class="cls-7" d="M88.89,96.64a8.16,8.16,0,0,0-16.31,0v7.9a92.31,92.31,0,0,1,16.31,3.55Z"/><path class="cls-6" d="M88.89,96.64a8.16,8.16,0,0,0-16.31,0v7.9a92.31,92.31,0,0,1,16.31,3.55Z"/><path class="cls-4" d="M72.58,194a8.16,8.16,0,1,0,16.31,0V126.09a93.21,93.21,0,0,1-16.31,3.55Z"/><path class="cls-7" d="M72.58,194a8.16,8.16,0,1,0,16.31,0V126.09a93.21,93.21,0,0,1-16.31,3.55Z"/><path class="cls-6" d="M72.58,194a8.16,8.16,0,1,0,16.31,0V126.09a93.21,93.21,0,0,1-16.31,3.55Z"/><path class="cls-5" d="M84.1,117.12c0,2.79-4.47,5.3-11.52,7v5.53a93.21,93.21,0,0,0,16.31-3.55v-18a92.31,92.31,0,0,0-16.31-3.55v5.58C79.63,111.82,84.1,114.32,84.1,117.12Z"/><path class="cls-7" d="M84.1,117.12c0,2.79-4.47,5.3-11.52,7v5.53a93.21,93.21,0,0,0,16.31-3.55v-18a92.31,92.31,0,0,0-16.31-3.55v5.58C79.63,111.82,84.1,114.32,84.1,117.12Z"/><path class="cls-6" d="M84.1,117.12c0,2.79-4.47,5.3-11.52,7v5.53a93.21,93.21,0,0,0,16.31-3.55v-18a92.31,92.31,0,0,0-16.31-3.55v5.58C79.63,111.82,84.1,114.32,84.1,117.12Z"/><path class="cls-2" d="M84.1,117.12c0-2.8-4.47-5.3-11.52-7v14C79.63,122.42,84.1,119.91,84.1,117.12Z"/><path class="cls-7" d="M84.1,117.12c0-2.8-4.47-5.3-11.52-7v14C79.63,122.42,84.1,119.91,84.1,117.12Z"/><path class="cls-6" d="M84.1,117.12c0-2.8-4.47-5.3-11.52-7v14C79.63,122.42,84.1,119.91,84.1,117.12Z"/></svg>