<svg id="Layer_1" data-name="Layer 1" xmlns="http://www.w3.org/2000/svg" width="135" height="215" viewBox="0 0 135 215"><defs><style>.cls-1{fill:#a7a9ac;}.cls-2{fill:#8e0f12;}.cls-3{opacity:0.9;}.cls-4{fill:#d1d3d4;}.cls-5{opacity:0.7;}.cls-6{fill:#ced1d3;}</style></defs><path class="cls-1" d="M77,197a11.69,11.69,0,0,0-5.83-3V104.89c4.63-.8,8.32-1.73,9.38-6.26A3.71,3.71,0,0,1,83,96c18.56-6.2,31.89-24,31.89-52.11A83.63,83.63,0,0,0,111.18,19h0a74,74,0,0,0-3.91-10h-.07c-.69-2.65-6.77-5-15.86-6.48A54.83,54.83,0,0,1,81.17,12c-1.54-2.68-1.92-5.76-2.31-8.83C76.94,6.19,74.64,8.88,73.1,12A69.85,69.85,0,0,0,70.28.84L67.5.82H65.28C63.1,3.51,60.84,6.2,58.89,8.88a64.59,64.59,0,0,1-.72-7.82A115.72,115.72,0,0,0,38.54,3.57C32.33,5,28.35,6.93,27.8,9h-.07a80.77,80.77,0,0,0-7.6,34.82c0,28.13,13.4,46,32,52.16a3.81,3.81,0,0,1,2.48,2.75c1.07,4.35,4.58,5.17,9,6.07V194a11.67,11.67,0,0,0-5.84,3c-17.27,1-30.07,4.38-30.07,8.47,0,4.82,17.81,8.73,39.77,8.73s39.77-3.91,39.77-8.73C107.27,201.34,94.36,197.9,77,197Z"/><path class="cls-2" d="M67.5,75c10.86,0,19.66,4.42,19.66,9.88S78.36,94.8,67.5,94.8s-19.66-4.42-19.66-9.89S56.64,75,67.5,75Z"/><g class="cls-3"><path class="cls-4" d="M63.87,100.73l1.35,94.52c-2.24.43-8.2,3.91-9.79,5.42-17.28,1-12.71,3.64-9.41,6.05a33.11,33.11,0,0,0,18.22,5.63c11.16,0,13.93,0,21.9-5.63,4.15-2.93,16.09-4.81-11.86-6.31-1.58-1.5-3.6-4.74-5.83-5.16l0-95.17"/></g><g class="cls-5"><path class="cls-6" d="M70.94,100.79c4.35-.75,7.83-1.63,8.82-5.9a3.53,3.53,0,0,1,2.32-2.51c17.47-5.83,30-22.64,30-49.06A78.72,78.72,0,0,0,108.62,20h0a69,69,0,0,0-3.68-9.4h-.06s-5,8-14.78,8L85.94,56c-1.45-2.53-8.88-24.81-8.88-24.81L62.66,43.17l-6.8-11.94L44,29.38,40.75,17.72c-11.7,0-10.63-7.17-10.63-7.17h-.06A76,76,0,0,0,22.9,43.32c0,26.49,12.61,43.32,30.15,49.11A3.58,3.58,0,0,1,55.39,95c1,4.1,4.32,4.86,8.48,5.71Z"/></g></svg>