<svg id="Layer_1" data-name="Layer 1" xmlns="http://www.w3.org/2000/svg" width="315" height="90" viewBox="0 0 315 90"><defs><style>.cls-1{fill:#ec008c;stroke:#fff;stroke-miterlimit:10;stroke-width:7px;}.cls-2{fill:#1d1d1b;}</style></defs><rect class="cls-1" x="5.32" y="4.76" width="304.37" height="80.48" rx="37.95"/><path class="cls-2" d="M44.25,27.1a12.72,12.72,0,0,1,2.24-.21,4.48,4.48,0,0,1,.85.05,12.88,12.88,0,0,1,4.27,1.73,8.85,8.85,0,0,1,3.25,2.59,2.71,2.71,0,0,1,.43,1.12,3.7,3.7,0,0,1-.48,1.38,2.65,2.65,0,0,1-2.4,1.82,8.27,8.27,0,0,1-3.26-1.07,9.34,9.34,0,0,0-3.41-1.28,3.68,3.68,0,0,0-2.29,1.12,8.45,8.45,0,0,0-2,2.67A22.72,22.72,0,0,0,40,41.47a22,22,0,0,0-.7,4.66,3.65,3.65,0,0,0,.94,2.35,2.58,2.58,0,0,0,1.94,1.12,9.18,9.18,0,0,0,3-1.28q2.31-1.27,2.31-1.71c0-.07-.21-.1-.64-.1a9.28,9.28,0,0,0-1.17.05c-.57.07-.94.11-1.12.11a2.56,2.56,0,0,1-1.76-.91,3,3,0,0,1-1-2.13,2.86,2.86,0,0,1,1-2c1.24-1.24,3.52-1.86,6.82-1.86q4.38,0,6.24,3.3a3.8,3.8,0,0,1,.54,1.65,5.9,5.9,0,0,1-.27,1.44,8.24,8.24,0,0,1-1.89,3.58,25,25,0,0,1-4.83,3.51,32.54,32.54,0,0,1-4.16,2.3,8.22,8.22,0,0,1-2.77.37,9.56,9.56,0,0,1-5.25-1.55,9.07,9.07,0,0,1-3.39-4.1,11.14,11.14,0,0,1-.69-4.32,27.18,27.18,0,0,1,2.66-11.68,14.65,14.65,0,0,1,3.5-4.9A10.6,10.6,0,0,1,44.25,27.1Z"/><path class="cls-2" d="M70.53,21.13a24.21,24.21,0,0,1,4.91-.59,5.44,5.44,0,0,1,2.88.53,2.71,2.71,0,0,1,1.17,2.3,3.16,3.16,0,0,1-.37,1.54,3.25,3.25,0,0,1-1.23,1.34,9.7,9.7,0,0,1-2.77.53c-2,.28-3.41.5-4.27.64l-2.13.43.11,3.35,0,3.31,2.61,0a7.61,7.61,0,0,0,3.42-.75,3.05,3.05,0,0,1,1.81-.53A3.67,3.67,0,0,1,79,34a2.41,2.41,0,0,1,1,2,3.91,3.91,0,0,1-1,2.35A4.74,4.74,0,0,1,76.72,40a38.61,38.61,0,0,1-4,.77,34.37,34.37,0,0,1-4.08.51c-.17,0-.26.34-.26,1a13,13,0,0,0,1,5,4.46,4.46,0,0,0,.77,1.41,1.42,1.42,0,0,0,1,.35,13.7,13.7,0,0,0,4.24-.91,9.68,9.68,0,0,0,3.49-1.76,3.55,3.55,0,0,1,2.51-1.06,2.87,2.87,0,0,1,2.29,1.06,3.22,3.22,0,0,1,.91,2A6.5,6.5,0,0,1,84,50.4a4.23,4.23,0,0,1-2.21,2.16A34,34,0,0,1,76,54.45a24.69,24.69,0,0,1-5.65.91,6.41,6.41,0,0,1-5.54-3A14.4,14.4,0,0,1,63,48.16a21.71,21.71,0,0,1-1-4.69V42.29q0-4.09.34-11A76.16,76.16,0,0,1,63,23.63c.5-1.28,1.69-1.92,3.58-1.92A33.21,33.21,0,0,0,70.53,21.13Z"/><path class="cls-2" d="M106.31,32.38q6.56-.43,7.62-.48h.16a3.53,3.53,0,0,1,2.4,1.17,3.08,3.08,0,0,1,1.12,2,4.5,4.5,0,0,1-.32,1.44,2.48,2.48,0,0,1-1.73,1.62,26.61,26.61,0,0,1-5.2.62l-4.69.21-.21,5.06c0,.72-.06,1.75-.06,3.1a56.89,56.89,0,0,0,.7,8.74,6.4,6.4,0,0,1,.1.85,2.55,2.55,0,0,1-1.12,1.71,3.48,3.48,0,0,1-2.24,1,3.58,3.58,0,0,1-2.45-1.28,4.67,4.67,0,0,1-1.17-1.68,16.38,16.38,0,0,1-.48-3.28q-.21-2.88-.21-6.07c0-1.14,0-2,0-2.46l.16-4.9-1.6-.11a14.86,14.86,0,0,1-5.33-.93,2.51,2.51,0,0,1-1.39-2.43,3.48,3.48,0,0,1,1.17-2.93,6.42,6.42,0,0,1,3.84-.91,12,12,0,0,1,1.39.06c.39,0,1.21.05,2.45.05C101.94,32.59,104.28,32.52,106.31,32.38Z"/><path class="cls-2" d="M140.16,27.42a2.87,2.87,0,0,1,1.5-.43,4.2,4.2,0,0,1,1.89.64,3,3,0,0,1,1.36,1.17,7.83,7.83,0,0,1,.16,2.09,105.45,105.45,0,0,1-1,13.32c-.28,2.56-.43,4-.43,4.27a2.27,2.27,0,0,0,.54,1.81,3.49,3.49,0,0,0,2.08.43l.77,0c.37,0,.67,0,.88,0l.77,0,.67,0a3.43,3.43,0,0,1,2.61.86,3.46,3.46,0,0,1,1.12,2.39,2.93,2.93,0,0,1-.42,1.55c-.72,1.39-2.74,2.08-6.08,2.08q-6.35-.1-9.23-4.64a5.09,5.09,0,0,1-.69-2.72q0-1.65.91-8.32a64.56,64.56,0,0,0,.64-7.83C138.25,30.35,138.89,28.17,140.16,27.42Z"/><path class="cls-2" d="M180.9,34.83a2.9,2.9,0,0,1,2.19-.91,3.15,3.15,0,0,1,2.39,1,2.9,2.9,0,0,1,.86,1.41,20.77,20.77,0,0,1,.16,3.28,29,29,0,0,1-3.15,13.91,21.84,21.84,0,0,1-2.85,4.35,10.84,10.84,0,0,1-3.17,2.32,7.3,7.3,0,0,1-3.2,1c-.25,0-.73,0-1.44-.11a12.57,12.57,0,0,1-5.87-1.92,11.26,11.26,0,0,1-4-4.26,28.32,28.32,0,0,1-1.89-4.83,28.64,28.64,0,0,1-1.09-4.77,34.77,34.77,0,0,0-.69-4.53,9.13,9.13,0,0,1-.22-1.87,2.76,2.76,0,0,1,.48-1.49,3.24,3.24,0,0,1,2.72-1.76,4.59,4.59,0,0,1,.8.11q2.5.59,3,5.06A42.33,42.33,0,0,0,167.62,49q1.13,3.47,2.4,4.32a5.8,5.8,0,0,0,3,1.12q2.13,0,3.95-3.1,2.44-4.09,2.82-11.3a25.15,25.15,0,0,1,.32-3.68A2.92,2.92,0,0,1,180.9,34.83Z"/><path class="cls-2" d="M204.62,23.74a4.64,4.64,0,0,1,1.34-.16A15.71,15.71,0,0,1,212.2,25q3.41,1.49,3.41,3.47a3.82,3.82,0,0,1-1,2.29A3.09,3.09,0,0,1,212,32a7.7,7.7,0,0,1-3-.69,7.51,7.51,0,0,0-2.61-.54,7.71,7.71,0,0,0-3.92,1.07,6.78,6.78,0,0,0-2.74,2.88,8,8,0,0,0-.64,3.68,5.72,5.72,0,0,0,.32,2.37,11,11,0,0,0,1.86,2.11,9.43,9.43,0,0,0,6.61,2.82c.39,0,1,0,1.87-.1a12.39,12.39,0,0,1,1.71-.11,2.65,2.65,0,0,1,1.92.8,3.13,3.13,0,0,1,.9,2.29,3.61,3.61,0,0,1-1.17,2.72,3.09,3.09,0,0,1-1.63.91,28.5,28.5,0,0,1-3.81.16,24.45,24.45,0,0,1-4-.22A11.27,11.27,0,0,1,200.73,51a18.78,18.78,0,0,1-7.46-6.72,6.16,6.16,0,0,1-1-1.84A10.7,10.7,0,0,1,192.1,40c0-.14,0-.41,0-.8s0-.71,0-1a24.82,24.82,0,0,1,.29-4.11,12.91,12.91,0,0,1,1.26-3,12.37,12.37,0,0,1,3.94-4.61A23.4,23.4,0,0,1,204.62,23.74Z"/><path class="cls-2" d="M222.86,26.41a3,3,0,0,1,1.7-.64,3.58,3.58,0,0,1,2.94,2.37,16.57,16.57,0,0,1,.16,2.9c0,2.17.17,3.26.53,3.26.53,0,2.11-.65,4.72-1.95a28,28,0,0,0,4.93-2.85,5.22,5.22,0,0,1,3-1.49,3.13,3.13,0,0,1,1.12.26,3.08,3.08,0,0,1,1.91,2.67,4.43,4.43,0,0,1-1.33,2.88,22.5,22.5,0,0,1-5.92,3.73c-2.7,1.31-4.05,2.17-4.05,2.56a.31.31,0,0,0,.11.21q.48.48,5.57,2.37a61.82,61.82,0,0,0,7.49,2.43,18.2,18.2,0,0,0,4.05.59,3.55,3.55,0,0,1,2.54.88,3,3,0,0,1,.93,2.26,2.51,2.51,0,0,1-1,2.29,6.78,6.78,0,0,1-3.49.65,32,32,0,0,1-8.64-1.87q-6.62-2.19-8.1-2.83a12.9,12.9,0,0,0-2.72-1c-.11,0-.16.09-.16.27a4.26,4.26,0,0,0,.32,1.39,8.18,8.18,0,0,1,.59,2.88,4,4,0,0,1-1.18,2.82,2.91,2.91,0,0,1-1.81,1.07,3.17,3.17,0,0,1-.59-.11,3.47,3.47,0,0,1-2.77-3,22.91,22.91,0,0,0-1-3.95q-.85-2.77-1.17-10.5c-.08-1.5-.11-3.5-.11-6a17.76,17.76,0,0,1,.11-3A3.36,3.36,0,0,1,222.86,26.41Z"/><path class="cls-2" d="M279.64,31.42a4.72,4.72,0,0,1,1.65-.53,3.52,3.52,0,0,1,2,1,3.23,3.23,0,0,1,1.28,2.56A13.56,13.56,0,0,1,283,40.62a22.14,22.14,0,0,1-4.59,6l-2.29,2.19v2.5a27.13,27.13,0,0,0,.42,4.32,26.13,26.13,0,0,1,.7,3.79,2.65,2.65,0,0,1-.91,1.87,3.6,3.6,0,0,1-2.45,1,2.47,2.47,0,0,1-1.65-.59,7.47,7.47,0,0,1-1.66-2.61,14.07,14.07,0,0,1-1-5.7V49.65l-1.7-.48q-3-.9-5.92-5.28t-2.88-7.57a2.9,2.9,0,0,1,.69-2.13A3.34,3.34,0,0,1,262.26,33a3.09,3.09,0,0,1,1.49.38,2.44,2.44,0,0,1,1.1,1,15.3,15.3,0,0,1,1,2.51,13.49,13.49,0,0,0,2.35,4.48,4,4,0,0,0,2.93,1.7q1.81,0,4.05-2.64a11,11,0,0,0,2.67-5.3,10.08,10.08,0,0,1,.64-2.56A2.71,2.71,0,0,1,279.64,31.42Z"/></svg>