<svg id="Layer_1" data-name="Layer 1" xmlns="http://www.w3.org/2000/svg" width="190" height="270" viewBox="0 0 190 270"><defs><style>.cls-1{fill:#ec008c;}.cls-2{fill:#ef5da2;}</style></defs><path class="cls-1" d="M91.42,19.16c1.55-4.44,3.1-9.75,1.35-14.31-2.4-6.26-9.58-5.72-12.56-.44S72.89,19,73.77,25.87C72.69,15.08,69.93,6.94,64,3.68c-1.8-1-3.76-1.73-5.58-1.13-2.94,1-4.69,5.3-4.79,9.55s1.1,8.44,2.34,12.44A320.42,320.42,0,0,0,69.11,59.46a13.14,13.14,0,0,0,1.75,2.86l4,5C80.33,51.75,86,34.73,91.42,19.16Zm-25.27,9c-4.35,1.3-7.92-1.14-10-7.57s-.14-12.71,4.2-14,1.65,5.21,3.68,11.65S70.49,26.86,66.15,28.16Z"/><path class="cls-1" d="M96.24,149.43C132.79,148,167.9,127.19,186,96.15c2.09-3.58,4-7.46,4-11.59s-2.7-8.49-6.84-9.28c-2.56-.48-5.16.43-7.56,1.43a86.35,86.35,0,0,0-29.21,20.1c5.15-9.57,10.45-20,8.89-30.69S141.8,45.6,131.8,50.23c-6.76,3.13-9.51,11-11.59,18L96.54,148.16Zm64.83-63.81c5.89-5.51,13.68-6.91,17.4-3.13s-4.77,4.46-10.66,10-5.93,11.19-9.65,7.41S155.18,91.12,161.07,85.62Z"/><path class="cls-1" d="M.16,115.54a161.92,161.92,0,0,0,15.91,77.37L18.44,188a171.75,171.75,0,0,1,52.12-66.88c5-3.86,10.34-7.63,13.33-13.1s2.72-13.25-2.46-16.84c-3.16-2.19-7.31-2.35-11.18-2.12A72.59,72.59,0,0,0,34.19,101.2c.46-8.9,6.73-18.58,1.56-25.93-3.28-4.65-10.23-5.8-15.62-3.72S10.79,78.23,8,83.17C2.44,93,.67,104.36.16,115.54Zm4.7-18.8c2.9-13.17,12.46-22.33,21.36-20.47S23.86,87,21,100.11s2.56,21.17-6.33,19.3S2,109.9,4.86,96.74Z"/><path class="cls-1" d="M33.16,267.88c-1,1.2-1.54,2.06-.84,1.76l7.1-1.94c34.78-11.86,65.28-35.37,85-65.73a13,13,0,0,0,1.41-11.7c-2.6-6.81-9.15-7-14.67-5.83a42.25,42.25,0,0,0-24,14.45,27.8,27.8,0,0,0-5.38-21.52c-2.2-2.84-5.11-5.35-8.67-6.16-6.17-1.42-12.52,2.8-15.57,8.23s-3.6,11.8-4.25,17.95C51.22,217,46,236,40.13,254.81A39,39,0,0,1,33.16,267.88Zm66-74.48c5.61-5.24,13-6.57,16.56-3s-4.54,4.25-10.15,9.5-5.64,10.65-9.18,7.05S93.55,198.64,99.15,193.4Z"/><path class="cls-2" d="M27.94,76.27c8.67,1.87-2.29,10.68-5.12,23.84s2.5,21.17-6.17,19.3S4.29,109.9,7.12,96.74,19.28,74.41,27.94,76.27Z"/><path class="cls-2" d="M66.87,28.16c-4.24,1.3-7.71-1.14-9.69-7.57S57,7.88,61.27,6.58s1.61,5.21,3.58,11.65S71.11,26.86,66.87,28.16Z"/><path class="cls-2" d="M115.19,190.42c3.46,3.6-4.43,4.25-9.89,9.5s-5.5,10.65-9,7.05-2.77-8.33,2.7-13.57S111.74,186.83,115.19,190.42Z"/><path class="cls-2" d="M176.37,82.49c3.63,3.78-4.65,4.46-10.39,10s-5.78,11.19-9.4,7.41-2.91-8.75,2.83-14.25S172.75,78.71,176.37,82.49Z"/></svg>