<svg id="Layer_1" data-name="Layer 1" xmlns="http://www.w3.org/2000/svg" width="180" height="180" viewBox="0 0 180 180"><defs><style>.cls-1{fill:none;}.cls-2{fill:#ec008c;}</style></defs><path class="cls-1" d="M82.48,112.08v7.56H97.81V102.25H92.3A9.85,9.85,0,0,0,82.48,112.08Z"/><path class="cls-1" d="M104.63,143.84h5.51A9.85,9.85,0,0,0,120,134v-7.56H104.63Z"/><path class="cls-1" d="M82.48,134a9.85,9.85,0,0,0,9.82,9.82h5.51V126.46H82.48Z"/><path class="cls-1" d="M110.14,102.25h-5.51v17.39H120v-7.56A9.85,9.85,0,0,0,110.14,102.25Z"/><path class="cls-2" d="M172,76.39,96.58,3.53a9.48,9.48,0,0,0-13.16,0L8,76.39A9.47,9.47,0,0,0,14.6,92.66h12v81.6A4.74,4.74,0,0,0,31.27,179H146.36a4.74,4.74,0,0,0,4.72-4.72V92.66H165.4A9.47,9.47,0,0,0,172,76.39ZM97.81,143.84H92.3A9.85,9.85,0,0,1,82.48,134v-7.56H97.81Zm0-24.2H82.48v-7.56a9.85,9.85,0,0,1,9.82-9.83h5.51ZM120,134a9.85,9.85,0,0,1-9.82,9.82h-5.51V126.46H120Zm0-14.38H104.63V102.25h5.51a9.85,9.85,0,0,1,9.82,9.83Z"/></svg>