<svg id="Layer_1" data-name="Layer 1" xmlns="http://www.w3.org/2000/svg" width="530" height="530" viewBox="0 0 530 530"><defs><style>.cls-1{fill:#ec008c;}.cls-2{fill:#fff;}</style></defs><circle class="cls-1" cx="265" cy="265" r="265"/><path class="cls-2" d="M237.77,48.62a57.28,57.28,0,0,1,29.69-7.88c.81,0,2.32.11,4.55.3s3.94.31,5.15.31q16.95,1.21,23.63,4.84T321.39,65a103.15,103.15,0,0,1,24.85,47.26,126,126,0,0,1,3.63,27.88q0,21.81-18.18,55.74-3.63,7.27-11.81,23t-10.61,20q-9.09,15.76-9.09,29.09t-11.51,24.54q-11.52,11.22-25.45,11.21-12.12,0-24.54-10.3t-12.42-20.6q0-14.55,9.39-43t20.91-47.86q20-33.33,20-49.69a25.84,25.84,0,0,0-3-11.52c-1.62-2.82-3-4.24-4.24-4.24q-3,0-9.09,9.7-8.49,13.95-16.36,19.39T224.44,151q-12.12,0-23.63-9.69T189.3,120.72q0-18.16,13.33-38.17A117.68,117.68,0,0,1,237.77,48.62Zm-5.45,369q12.1-12.12,27.87-12.12,17,0,25.45,12.12,9.09,12.12,9.09,22.42,0,12.12-10.91,23-11.51,11.52-26.05,11.52-12.13,0-22.12-8.49t-12.42-22.42a40.9,40.9,0,0,1-.61-7.88Q222.62,427.34,232.32,417.64Z"/></svg>