<svg id="Layer_1" data-name="Layer 1" xmlns="http://www.w3.org/2000/svg" width="85" height="125" viewBox="0 0 85 125"><defs><style>.cls-1{fill:#ec008c;}.cls-2{fill:#ef5da2;}</style></defs><path class="cls-1" d="M.83,46.31a165.48,165.48,0,0,0,15.51,77.37l2.31-4.92A171.16,171.16,0,0,1,69.46,51.88c4.85-3.86,10.08-7.64,13-13.1s2.65-13.26-2.41-16.85c-3.07-2.18-7.13-2.34-10.89-2.11A69.62,69.62,0,0,0,34,32c.45-8.9,6.57-18.58,1.52-25.93-3.19-4.65-10-5.8-15.22-3.73S11.19,9,8.46,13.93C3.05,23.73,1.32,35.13.83,46.31ZM5.4,27.5C8.24,14.34,17.56,5.18,26.23,7s-2.3,10.68-5.13,23.84,2.5,21.17-6.17,19.3S2.57,40.67,5.4,27.5Z"/><path class="cls-2" d="M26.23,7c8.67,1.87-2.3,10.68-5.13,23.84s2.5,21.17-6.17,19.3S2.57,40.67,5.4,27.5,17.56,5.18,26.23,7Z"/></svg>