<svg id="Layer_1" data-name="Layer 1" xmlns="http://www.w3.org/2000/svg" width="370" height="185" viewBox="0 0 370 185"><defs><style>.cls-1{fill:#ec008c;}.cls-2{fill:#fff;}.cls-3{fill:#ffdd67;}.cls-4{fill:#664e27;}.cls-5{fill:#917524;}</style></defs><path class="cls-1" d="M171.62,181.68a15,15,0,0,1-15-15V155.2H25.49A23.9,23.9,0,0,1,1.61,131.32V54.09A23.91,23.91,0,0,1,25.49,30.2H156.61V18.36a15,15,0,0,1,20.7-13.91L359,78.59a15,15,0,0,1,0,27.82L177.31,180.55a15,15,0,0,1-5.69,1.13Z"/><path class="cls-2" d="M171.62,4.82a13.44,13.44,0,0,1,5.12,1L358.48,80a13.52,13.52,0,0,1,0,25L176.74,179.16a13.49,13.49,0,0,1-18.63-12.52V153.7H25.49A22.41,22.41,0,0,1,3.11,131.32V54.09A22.41,22.41,0,0,1,25.49,31.7H158.11V18.36A13.54,13.54,0,0,1,171.62,4.82m0-3a16.54,16.54,0,0,0-16.51,16.54V28.7H25.49A25.38,25.38,0,0,0,.11,54.09v77.23A25.38,25.38,0,0,0,25.49,156.7H155.11v9.94a16.49,16.49,0,0,0,22.76,15.3L359.61,107.8c13.71-5.59,13.71-25,0-30.6L177.87,3.06a16.42,16.42,0,0,0-6.25-1.24Z"/><path class="cls-3" d="M260.78,91.82a46.41,46.41,0,1,1-46.4-46.4A46.39,46.39,0,0,1,260.78,91.82Z"/><path class="cls-4" d="M248.23,90c-5.18-6-21.67-3.9-26.56,4.32-.35.61.59,1.48,1.73,2.18a22,22,0,0,1,11.12-3.89,7.79,7.79,0,0,0,7.69,7.86C248.34,100.51,251.27,93.56,248.23,90Z"/><path class="cls-4" d="M206,90c-5.18-6-21.67-3.9-26.56,4.32-.35.61.59,1.48,1.73,2.18a22,22,0,0,1,11.12-3.89,7.79,7.79,0,0,0,7.69,7.86C206.06,100.51,209,93.56,206,90Z"/><path class="cls-4" d="M204.79,122.41c9,2.17,23.29.08,30.7-5.44,1.83-1.39-1.78-6.18-3.6-4.79-4.9,3.64-17.41,6.38-25.67,4.42C204,116.08,202.43,121.82,204.79,122.41Z"/><path class="cls-5" d="M247.18,80.45a22,22,0,0,0-18.09-4.84c-.9.17-1.68-3.13-.6-3.34a25.43,25.43,0,0,1,20.87,5.59C250.2,78.59,247.86,81.05,247.18,80.45Z"/><path class="cls-5" d="M199.66,75.38a22,22,0,0,0-18.08,4.84c-.69.6-3-1.86-2.19-2.59A25.42,25.42,0,0,1,200.27,72C201.35,72.25,200.56,75.55,199.66,75.38Z"/></svg>