<svg id="Layer_1" data-name="Layer 1" xmlns="http://www.w3.org/2000/svg" width="95" height="95" viewBox="0 0 95 95"><defs><style>.cls-1{fill:#ec008c;}</style></defs><path d="M79.16,21.74v5L91.35,14.57a6.18,6.18,0,0,0,0-8.72l-2.2-2.2a6.18,6.18,0,0,0-8.72,0L59.07,25l15.28-6.45A3.46,3.46,0,0,1,79.16,21.74Z"/><path d="M34.83,59.5,22.74,61.34,3.65,80.43a6.18,6.18,0,0,0,0,8.72l2.2,2.2a6.18,6.18,0,0,0,8.72,0L42.93,63l-8.1-3.47Z"/><path d="M79.16,68.24v5a3.46,3.46,0,0,1-4.82,3.18l-15.43-6.6L80.43,91.35a6.18,6.18,0,0,0,8.72,0l2.2-2.2a6.18,6.18,0,0,0,0-8.72Z"/><path d="M34.83,35.23l8-3.36L14.57,3.65a6.18,6.18,0,0,0-8.72,0l-2.2,2.2a6.18,6.18,0,0,0,0,8.72l20,20,11.22.67Z"/><path class="cls-1" d="M79.16,73.26V21.74a3.46,3.46,0,0,0-4.81-3.18L59.07,25,42.8,31.87l-8,3.36v0l-11.22-.67-5.52-.33a3.46,3.46,0,0,0-3.67,3.46V58.57a3.48,3.48,0,0,0,4,3.43l4.33-.66L34.83,59.5v0L42.93,63l16,6.84,15.43,6.6A3.46,3.46,0,0,0,79.16,73.26Z"/></svg>