<svg id="Layer_1" data-name="Layer 1" xmlns="http://www.w3.org/2000/svg" width="85" height="85" viewBox="0 0 85 85"><defs><style>.cls-1{fill:none;}.cls-2{fill:#ec008c;}</style></defs><path class="cls-1" d="M33.64,23.64l3.9,3.9A5.18,5.18,0,0,0,33.64,23.64Z"/><path d="M70,25,82.15,12.85a6.33,6.33,0,0,0,0-8.92L81.07,2.85a6.33,6.33,0,0,0-8.92,0L59.64,15.37A31.51,31.51,0,0,1,70,25Z"/><path d="M16.77,58.23,2.85,72.15a6.33,6.33,0,0,0,0,8.92l1.08,1.08a6.33,6.33,0,0,0,8.92,0l13.6-13.6A31.54,31.54,0,0,1,16.77,58.23Z"/><path d="M70,60a31.64,31.64,0,0,1-10.32,9.68L72.15,82.15a6.33,6.33,0,0,0,8.92,0l1.08-1.08a6.33,6.33,0,0,0,0-8.92Z"/><path d="M27.31,28.69a5.18,5.18,0,1,0,10.36,0,5.48,5.48,0,0,0-.13-1.15l-3.9-3.9a5.48,5.48,0,0,0-1.15-.13A5.18,5.18,0,0,0,27.31,28.69Z"/><path d="M26.47,16.47,12.85,2.85a6.33,6.33,0,0,0-8.92,0L2.85,3.93a6.33,6.33,0,0,0,0,8.92L16.79,26.79A31.75,31.75,0,0,1,26.47,16.47Z"/><path d="M46.89,40.41a2.23,2.23,0,0,0,0,4.29L58,48,52.5,42.5l5.06-5.07Z"/><path class="cls-2" d="M70,60A33.44,33.44,0,0,0,72,56.43a3.55,3.55,0,0,0-2.2-5L58,48,46.86,44.7a2.23,2.23,0,0,1,0-4.29l10.67-3,12.11-3.38a3.83,3.83,0,0,0,2.39-5.39A31.57,31.57,0,0,0,59.64,15.37a31.23,31.23,0,0,0-33.17,1.1,31.75,31.75,0,0,0-9.68,10.32,31.28,31.28,0,0,0,0,31.44,31.54,31.54,0,0,0,9.68,10.32,31.34,31.34,0,0,0,33.19,1.09A31.64,31.64,0,0,0,70,60ZM37.54,27.54a5.48,5.48,0,0,1,.13,1.15,5.18,5.18,0,1,1-5.18-5.18,5.48,5.48,0,0,1,1.15.13A5.18,5.18,0,0,1,37.54,27.54Z"/></svg>