<?xml version="1.0" encoding="utf-8"?>
<!-- Generator: Adobe Illustrator 26.0.1, SVG Export Plug-In . SVG Version: 6.00 Build 0)  -->
<svg version="1.1" id="Layer_1" xmlns="http://www.w3.org/2000/svg" xmlns:xlink="http://www.w3.org/1999/xlink" x="0px" y="0px"
	 viewBox="0 0 540 530" style="enable-background:new 0 0 540 530;" xml:space="preserve">
<style type="text/css">
	.st0{fill:#A6A6A6;}
	.st1{fill:#E8E8E8;}
	.st2{fill:#EC008C;}
	.st3{fill:#FFFFFF;}
</style>
<polygon class="st0" points="538.8,325.7 342.7,0.7 338,19.6 364.3,63.1 365.5,63.2 364.8,63.8 523,326.1 215.9,517.4 213.1,528.6 
	"/>
<path class="st1" d="M391.3,307.1c-1.2-3.4-1.5-5.9-2.6-8.6l-0.7,0.1c0.5,2.9,1.4,5.8,2.6,8.6L391.3,307.1z"/>
<path class="st1" d="M394.9,303.8c0.2-0.8,0.2-1.7,0.1-2.6c-2-1.1-1.1-4.5-4-5.6l3.2,8.2L394.9,303.8z"/>
<path class="st1" d="M387.5,309c1.6-3,0.7-4.3-1.2-4.8c-0.3-1.8-1.8-3-3.9-3.5l0.6,4.6c0.6-0.8,1.1-1.5,1.8-1.6
	C386,305.4,386.8,307.1,387.5,309z"/>
<path class="st1" d="M398.5,275.5c0.6,1.3,0.7,2,1.5,2.6C401.8,276.5,401.8,276.5,398.5,275.5z"/>
<path class="st1" d="M398.8,299.3c-0.4,1.9,0.7,1.8,1.3,1.2c-0.2-1.4-1.1-2.7-1.3-4l-0.4,0.1L398.8,299.3z"/>
<path class="st1" d="M389.9,278.7l-0.3-2c0.6,0.9,1.4,1.7,2.2,2.5c0.6-0.8,1.9-0.9,3.1-1.8c-1-2.4-1.7-2.4-3.7-2.1
	c-1,0.8-2.3,1-3,1.6c-0.4,0.1-0.6,0.4-0.6,0.8c0,0,0,0,0,0l0.8,0.6C389.1,278.1,389.2,278.8,389.9,278.7z"/>
<path class="st1" d="M380.9,308.9c-0.1-0.7,0.4-1.9,0.3-2.6c-0.8-1.5-1.7-3-2.7-4.3l-0.6,0.8l0.6,3.9c-0.4,0.1-0.3,0.7-0.8,0.8
	l2.2-0.3C380.2,307.8,380.5,308.4,380.9,308.9z"/>
<path class="st1" d="M360.9,288.6l-0.7-0.4c0.6-0.8,1.2-0.9,1.8-1.6c-0.8-0.6-1.5-1.2-2.2-1.1l-0.9,1.5
	C358.5,288.9,359.3,289.5,360.9,288.6z"/>
<path class="st1" d="M362.3,302.7c1,2.9,2.3,5.7,3.9,8.4C366.5,308.2,364.4,303.1,362.3,302.7z"/>
<path class="st1" d="M376.4,309l-0.2-1.4c-2.3-1.8-2-4.4-3.5-5.6C372.4,304.6,375.1,309.2,376.4,309z"/>
<path class="st1" d="M330.2,281.1c0.7-0.1,1.2-0.9,1.8-1.6l-0.4-2.8l-1.3,0.2c-0.7,0.1-1.2,0.9-1.7,0.9l0.1,0.7
	C328.2,280,329,280.6,330.2,281.1z"/>
<path class="st1" d="M430.7,270.8c-0.6,0.6-0.5,1.3-1.2,1.3c0.8,0.6,0.9,1.3,1.4,0.5c0.7-0.1,0.7-0.1,1.7-0.9
	C431.4,271.2,431.4,270.8,430.7,270.8z"/>
<path class="st1" d="M411.9,277.3l2.3,1.8c0.1-4.2,0.1-4.2-0.7-4.8c0,0.5-0.2,1-0.5,1.5c-0.4-0.3-0.9-0.5-1.4-0.5
	c-0.7,0.1-1.2,0.9-2.5,1.7c0.1,0.5,0.5,1,0.9,1.3C410.7,278.1,411.2,277.4,411.9,277.3z"/>
<polygon class="st1" points="338,19.6 326.9,1.1 249.2,49.4 364.3,63.1 "/>
<path class="st1" d="M314.3,167.2c2.4,1.6,5.4,1.9,8,0.7l2.3-0.9l2-4.3c1.3-2.8,1.9-4.5,1.7-5.1c-0.4-1.8-1.7-3.6-4-5.6
	c-0.4-0.4-0.9-0.7-1.4-1.1c-1-0.8-2.3-1.3-3.6-1.5c-2.8,0.1-5.6,0.4-8.4,0.8c-0.8,0-1.5,0.3-2.1,0.8c-0.4,0.5-0.4,1.7,0,3.8
	c0.4,2.3,1.1,4.6,1.9,6.8c1,2.6,1.8,4.2,2.6,4.9C313.6,166.8,313.9,167,314.3,167.2z"/>
<path class="st1" d="M438.9,273.1c0.1,0.7-0.5,1.5-1,2.2c1.5,1.2,2.3,1.8,3.1-0.4c-0.1-0.7,0.5-1.5,0.4-2.2L438.9,273.1z"/>
<path class="st1" d="M425.8,273.4c0.8,0.6,1.3-0.2,1.9-1c-0.2-0.9-0.1-1.8,0.3-2.6c-2,0.3-3.4-0.3-5.3-0.7c0.7,0.9,1.1,2,1.2,3.1
	c-0.7,0.1-0.7-0.4-0.7-0.4c-1.4,0.2-2.7,0.8-3.8,1.7l4-0.5C424.2,272.8,425.1,272.9,425.8,273.4z"/>
<polygon class="st1" points="422.2,284.1 421.5,284.2 422,287.6 422.7,287.6 "/>
<path class="st1" d="M427.4,288.8c1.7-2.7,1.7-2.7,0.7-4.8C426.4,286.4,426.5,287.1,427.4,288.8z"/>
<path class="st1" d="M377.7,282.4c0.5-1.5,0.2-3.5,0.7-4.8l-4.2,2.4C375.2,281.1,376.4,281.9,377.7,282.4z"/>
<path class="st1" d="M415.1,289.9l-0.7,0.1c-1.4,4.2-1.6,7.5,0.6,9C414.8,296,414.8,293,415.1,289.9z"/>
<path class="st1" d="M324.8,266.4c2.2,0.9,2.1,0.4,2.9-1.8C326.6,264.7,325.3,264.9,324.8,266.4z"/>
<path class="st1" d="M340.4,256.2c-0.5,1.3-1.1,2-2.5,1.5c0-0.5,0.2-0.9,0.5-1.3c0-0.4-0.4-0.6-0.8-0.6c-0.4,0.7-1.6,1.4-2.2,2.2
	l-0.6,0.8c1.2,0.6,2.6,0.9,4,0.9c1.3-0.2,2.5-1.7,3.7-2.6c0.7-0.1,0.6-0.8,0.5-1.3l-0.1-0.7C342.3,255.8,341.4,256.2,340.4,256.2z"
	/>
<path class="st1" d="M356.6,237l-1.1,0.1c-0.8-0.6-0.9-1.3-1.7-2.6c-0.2,1.6-0.9,3-1.9,4.2l-2.7,0.3c2.2,1.1,4.1,1.6,6.3,2.7
	l0.6-0.8c-0.4-0.3-0.7-0.8-0.9-1.3l2.1-2.4C357.4,237.4,356.7,237.4,356.6,237z"/>
<path class="st1" d="M338,289.7c-0.7,0.1-1.3,0.2-1.2,0.9c-0.7,0.1-0.6,0.8-1.2,1.3c-0.8-1.1-1-2.4-1.9-3.7
	c-0.2,1.4-0.8,2.2-0.7,2.9c0.1,0.5,0.4,0.8,0.8,1.1c1.1-0.1,2.5,0.4,3.9,0.2c0.7-0.1,1.6-2.8,0.9-3.4l-1.3,0.2L338,289.7z"/>
<path class="st1" d="M340.6,284.4c-1.4-0.5-2.9-1.1-2.9-1.5c-0.7-0.7-1-1.7-1.1-2.7l-0.8-0.6c0.2,1.4-0.3,2.8,0.6,3.9
	C337.2,284.2,338.1,285.5,340.6,284.4z"/>
<path class="st1" d="M403.8,235.5l-1.4,4.4l0.7-0.1c0.8-1.2,1.8-2.3,2.9-3.2C405.2,236.4,404.4,236.1,403.8,235.5z"/>
<path class="st1" d="M364.8,63.8l-73.2,61.6L249,49.5L1.2,203.9l196.1,325.1l18.5-11.6L523,326.1L364.8,63.8z M388.8,223.4
	c2.3-1,0.8-3.6,1.3-5.1c0.7,0.8,1.2,1.7,1.5,2.6l0.7-0.1c-0.1-0.7,0.4-2.2,0.3-2.8c0.3-0.1,0.5-0.3,0.6-0.6c0.1,0.5,0.4,0.8,0.8,1.1
	c0.4,0.3,1,0.3,1.3-0.1c0,0,0,0,0.1-0.1c-0.2-1.4,1.1-1.6,1.7-2.3c0.7-0.2,1.2-0.8,1.1-1.6c-0.1-0.5-0.7-0.4-0.7-0.4
	c1-1.8,2.3-3.3,3.8-4.7c0.9,1.3,2.4,2.5,3.3,3.8c0.9-0.6,1.7-1.4,2.1-2.4c0.8,0.6-0.2,2.1-2.1,2.4c0.2,1.2,0.8,1.1,2.2,0.9
	c-0.4,2.2,1.5,2.6,3,3.2c0.1,0.7,1.3-0.2,2-0.3l1.5,1.2c0.7-0.1,0.6-0.8,1.2-0.9c0.1,0.7,0.9,1.3,1.1,2.7c0.7-0.2,1.4,0,1.9,0.5
	c0.1,0.5-0.5,1.3-0.8,2.7c3.2,0.3,5.3,1.9,4.4,3.4l-2,0.3l-0.5-3.2c-0.6,0.8-0.5,1.3-1.1,2l-1.8,0.2c-1.4,0-2.8-0.2-4.2-0.6
	c-0.7,0.1-0.8-0.6-0.9-1.3l-0.2-1.4c-0.5,0.6-1.2,0.9-1.9,1c-1.8,0.2-1.4-1.7-2.2-3c-0.5,1.5-1.1,2-1,2.7c-2.2-0.9-2.3-1.6-0.5-3.2
	l-1.3,0.2l-0.4-2.8c-0.6,0.8-0.5,1.5-1,2.2l0.1,0.7l-3.8,0.5c0-1-0.4-1.9-1.1-2.7l-0.7,0.1c0,1-0.3,2.1-0.9,2.9
	c1.3-0.2,2.1,0.4,2.8,0.3l0.1,0.7c-0.7,0.1-1.9,0.9-2,0.3c-0.7,0.1-0.8-0.6-1.5-1.2l-6.2,2.9L388.8,223.4z M375,218.9
	c1.9-0.9,2.2,1.1,2.4,2.5c1.1-1.6,2.4-2.4,3.9-1.2c0.6-0.8,0.5-1.5,1-2.2c1,0.8,2.2,1.3,3.4,1.7c-2,0.3-4.4,0.6-3.3,3.9l-0.7,0.1
	c-0.1-0.7-0.9-1.3-1.1-2.7l-4.3,3.4l0.4,2.5c-2.1-2.3-2.4-4.4-2.4-7.2l-0.4,0.1l-1.1,1.6C372.6,219.2,373.9,219.1,375,218.9
	L375,218.9z M299.8,158.2c-0.8-3.8-1.1-6.3-0.8-7.7c0.2-1.4,0.7-2.7,1.6-3.8c0.9-1.2,2.2-2,3.7-2.1c1.4-0.2,2.8-0.9,3.6-2.1
	c0.8-1.1,1.8-1.9,3-2.5c1.6-0.5,3.3-0.8,4.9-0.8c1.9-0.1,3.8,0,5.6,0.3c1.8,0.5,3.4,1.3,5,2.4c1.7,1,3.3,2.1,4.9,3.3
	c1.5,1.4,2.8,3,3.8,4.8c1.8,3.2,2.8,5.9,2.7,8.2c0,2.3-1,5.6-3,9.9c-0.7,1.8-1.7,3.5-2.8,5.1c-1,1.3-3.1,2.6-6,3.8
	c-3.1,1.3-6.5,1.8-9.8,1.3c-3.2-0.4-6.1-1.8-8.5-3.9c-2.3-2-4.1-4.5-5.2-7.3C301.4,164.4,300.5,161.4,299.8,158.2L299.8,158.2z
	 M178.7,358.3c-1.1,2.7-2.4,5.4-3.9,7.9c-1,1.9-2.2,3.6-3.4,5.3c-1.9,2.4-4,3.5-6.6,3.4c-1.1-0.1-2.2-0.4-3.1-1
	c-0.9-0.6-2.9-2.2-6.1-5c-4.2-3.6-7.9-7-11.2-10.4c-1.8-1.9-3-3.1-3.6-3.6c-1-0.8-2.1-1.5-3.3-2c-0.9-0.3-1.7-0.8-2.5-1.4
	c-0.8-0.8-1.4-1.8-1.5-3c-0.1-1.1,0.3-2.2,1-2.9c0.8-1.1,2-1.8,3.3-2c1.3-0.1,2.6,0.1,3.8,0.7c1.7,0.9,3.3,2,4.7,3.3
	c1.3,1.1,4.6,4.2,9.9,9.4c2.3,2.2,4.3,4.1,6.1,5.6c1.2,1,1.9,1.5,2.2,1.5c0.2,0,0.5-0.3,1-0.8c1.1-1.6,2.2-3.2,3.1-4.9
	c0.9-1.7,1.9-3.3,3-4.9c0.5-0.7,1.2-1.1,2-1.4c1.3-0.5,2.8-0.2,3.9,0.8C179,354.2,179.5,356.4,178.7,358.3L178.7,358.3z
	 M202.1,324.8c-0.8,2.9-1.8,5.8-3.1,8.5c-1.1,2.6-2.5,5.1-4.2,7.4c-2,2.6-5.3,3.9-8.6,3.4c-2.2-0.3-4.4-1-6.4-2
	c-2.2-0.9-4.3-2.1-6.2-3.5l-1.3-1.1c-3.1-2.7-7.2-6.4-12.3-11.1s-7.8-7.4-8.2-8.1c-1-1.8-0.6-3.8,1.1-6c1.1-1.7,2.1-3.4,3-5.2
	c1.1-2.2,2.3-4.3,3.8-6.2c1.3-1.6,2.4-2.6,3.2-2.8c1.3-0.4,2.7,0,3.7,0.9c1.3,1.2,2,2.9,1.8,4.7c-0.5,1.3-1.1,2.6-1.9,3.7
	c-1.5,2.6-2.6,4.4-3.2,5.5l-1.4,2.9l3.9,3.1l3.8,3.2l2.3-3.1c1.5-2.2,2.3-3.8,2.3-4.7c0.1-1,0.4-1.9,1.1-2.6c0.8-1,1.8-1.6,3-1.9
	c1.1-0.3,2.3,0,3.2,0.8c0.9,0.9,1.5,2.2,1.7,3.5c0.4,1.4,0.3,2.9-0.2,4.3c-0.8,1.8-1.8,3.6-2.8,5.4c-1,1.8-2,3.5-3.2,5.2
	c-0.2,0.2,0.1,0.6,0.9,1.3c1.9,1.7,4.1,2.9,6.5,3.7c0.7,0.3,1.5,0.5,2.3,0.5c0.5-0.1,1-0.4,1.3-0.9c1.3-1.8,2.2-3.7,2.9-5.8
	c0.8-1.8,1.2-3.8,1.2-5.8c-0.2-1.4,0.2-2.8,1.1-3.9c0.8-1,2-1.6,3.3-1.6c1.1-0.1,2.2,0.2,3.1,0.9c0.8,0.8,1.4,1.7,1.9,2.7
	C202.4,321.6,202.6,323.3,202.1,324.8L202.1,324.8z M230.3,303.7c0.1,1.2-0.2,2.5-0.9,3.5c-1,1-2.3,1.6-3.7,1.6c-1,0.1-2,0-3-0.3
	c-1.5-0.7-2.9-1.6-4.2-2.6c-2.3-1.7-4.7-3.6-7.1-5.7c-1.3-1.1-2.2-1.9-2.7-2.4l-5.5-5l-1.6,1.7c-2.6,2.9-4.6,4.6-6,5.2
	c-1.4,0.6-3,0.3-4-0.8c-1.4-1-2.2-2.5-2.3-4.2c0-1.5,0.9-3.2,2.5-5.3c0.4-0.5,0.9-1.1,1.3-1.6c0.4-0.4,1.2-1.3,2.3-2.8
	c2.4-3,4.5-5.8,6.2-8.3c3.7-5.3,5.9-8.4,6.4-9.2l0.2-0.2c0.9-1,2.2-1.6,3.5-1.6c1.2-0.2,2.4,0,3.3,0.7c0.5,0.5,1,1.1,1.4,1.8
	c0.7,1.1,0.8,2.4,0.3,3.6c-1.1,2.3-2.5,4.5-4.1,6.6l-4.1,5.6l5.6,5.2c0.8,0.7,1.9,1.8,3.5,3.1c3.3,2.8,6.9,5.4,10.6,7.7
	c0.4,0.2,0.7,0.4,1.1,0.7C230.1,301.6,230.4,302.7,230.3,303.7L230.3,303.7z M218.6,248.4c0.2,1.3-0.1,2.6-0.9,3.5
	c-0.7,0.9-1.7,1.4-2.7,1.5c-1.1,0.1-2.3-0.2-3.2-1l-2-1.7c-1.3-1-2.5-2.2-3.6-3.5c-0.6-0.9-1-1.9-1.2-3c-0.2-1.6,0-2.7,0.5-3.3
	c0.6-0.7,1.4-1.2,2.3-1.5c0.7-0.4,1.6-0.5,2.4-0.4c0.9,0.3,1.8,0.8,2.5,1.5c0.9,0.8,1.7,1.6,2.5,2.5
	C217.3,245.2,218.5,247,218.6,248.4L218.6,248.4z M266.7,261.5c-0.4,0.6-0.9,1.1-1.4,1.6c-3.1,3.2-5.7,4.4-7.7,3.7
	c-0.7-0.2-1.4-0.5-2-1c-1.2-1.5-1.6-3.5-1.2-5.4c0.6-1.1,1.3-2.2,2.2-3.2l2.7-3.4l-1.9-1.8l-0.4-0.4c-1.8-1.4-3.7-2.6-5.8-3.5
	c-3.1-1.4-6.1-3.3-8.7-5.5l-1.1-0.9c-1-0.8-1.9-1.7-2.7-2.7c-0.6-0.9-1-1.8-1.3-2.8c-0.6-1.6-0.9-3.3-0.9-5c0.1-1.7,0.8-3.3,2-4.6
	c1.1-1.3,2.4-2.4,4-3.2c1.3-0.7,2.7-0.9,4.1-0.4c0.7,0.2,1.3,0.5,1.9,0.9c0.7,0.8,1.1,1.8,1.1,2.9c0.2,1.6-0.4,3.1-1.4,4.2
	c-0.5,0.5-0.9,1.2-1.2,1.9c0,0.4,0.1,0.9,0.4,1.2l0.9,0.7c2.2,1.7,4.6,3.1,7.2,4.2c2.8,1.2,5.5,2.9,7.8,4.9c2,1.5,3.6,3.5,4.7,5.7
	C270,254,269.5,257.9,266.7,261.5L266.7,261.5z M272.8,207.3c-1.9-1.9-3.6-4-5.1-6.3c-1.7-2.3-3.1-4.8-4.2-7.4
	c-0.8-2.6-1.3-5.2-1.5-7.9c-0.3-2.6-0.2-5.2,0.1-7.8c0.4-2.1,1.2-4.2,2.2-6.2c0.7-1.2,1.4-2.4,2.2-3.5c2.7-3.4,5.4-4.3,8-2.5
	l0.5,0.4c0.9,0.7,1.4,1.6,1.6,2.7c0.2,0.7,0.1,1.4-0.1,2.1c-0.6,1.1-1.4,2.2-2.2,3.2c-0.9,1.1-1.6,2.3-2.3,3.5
	c-0.5,1-0.8,2.1-0.9,3.3c-0.4,3.5,0.2,7.1,1.7,10.3c1.4,3.4,3.6,6.4,6.3,8.8c1.5,1.3,3.2,2.3,5.1,2.8c1.9,0.4,3.9,0.4,5.8,0
	c2.2-0.4,3.6-1.1,4.3-1.9c0-0.1,0.1-0.1,0.1-0.2l0.1-0.2c0.7-1.7,1.2-3.5,1.4-5.3c0.2-1.8,0.1-3.5-0.3-5.3c-0.5-2-1-3.2-1.4-3.5
	c-0.6-0.6-1.9,0.4-3.9,2.8c-0.7,1-1.6,1.9-2.6,2.8c-0.6,0.4-1.3,0.6-2,0.5c-1.1,0-2.1-0.4-3-1.1c-0.9-0.7-1.4-1.8-1.5-3
	c0.1-1.4,0.4-2.7,1-4c0.6-1.5,1.4-2.9,2.3-4.2c1.5-1.9,3.7-3.2,6.1-3.8c2.4-0.6,4.8-0.3,7,0.8c0.8,0.4,1.6,1,2.3,1.6
	c1.9,1.6,3.4,4.5,4.5,8.6c0.9,3.6,1,7.3,0.3,10.9c-0.5,3.4-1.9,6.7-4,9.4c-1.3,1.7-3.1,2.8-5.1,3.4
	C286.9,214,279.2,212.6,272.8,207.3L272.8,207.3z M322.4,294.3c-0.2-1.1-0.3-1.8,0.3-2.6l2-0.3l-1,6.9l-0.7,0.1
	c-0.2-0.7-0.1-1.5,0.4-2.2C323.1,294.9,324.3,294,322.4,294.3L322.4,294.3z M313,270.5c-0.8-0.6-1.4-0.5-2.8-0.3l-0.1-0.7l3.3-0.4
	C313.5,269.7,312.9,269.8,313,270.5L313,270.5z M327.9,308.6c0.6-0.8,0.5-1.5,0.3-2.8l-1.7,2.3l-0.3-2.1l-0.7,0.1
	c0.1,0.7-0.5,1.5-0.4,2.2c-0.8-0.6-1.4-0.5-1.5-1.2s-0.2-1.1,0.5-1.2c1.3-1.3,1.8-3.1,1.3-4.9c0.3-1.6,0.3-3.3,0-4.9
	c0.6,1,1,2.2,1.2,3.4c0.8,0.6,1.9,0.5,3.2,0.3c0.5,2.4,0.6,4.8,0.4,7.2C329.5,307.6,328.8,307.7,327.9,308.6L327.9,308.6z
	 M328.5,295.7l0.7-0.1l0.1,0.7c0.2,0.7,0.1,1.5-0.4,2.2C328.1,297.7,327.9,296.5,328.5,295.7L328.5,295.7z M442.9,264.4
	c-1.1,1.6-0.3,2.8-0.1,4.2c0.3,1.8,0.6,3.9,0.1,5.4c0.2,1.4-0.5,1.5-1.9,1c0.3,0.8,0.9,1.5,1.6,1.9l-3.1,0.4
	c-0.7,0.1-0.7,0.1-1.2,0.9c-0.6,0.6-1.3,0.6-2.1-0.4l1.1-1.5c0.4,0,0.6-0.4,0.6-0.7c0,0,0,0,0-0.1c-1.8-0.7-2.9-2.5-2.7-4.3
	c1.5,1,1.6,1.7,2.4,2.3l1.3-0.2c0-1-0.4-1.9-1.1-2.7l-2.7,0.3l0.5-1.2l1.1-1.5l0.3,2c0.7-0.1,1.9-0.9,3-1.1
	c-1.3-1.2-2.3-3.2-3.8-4.4c0.7-0.1,1.2-0.9,1.9-0.9c-2.9-1.1-3.9-3.5-6.8-4.5c0,0,0.1,0.7,0.3,0.7c-0.9,0.3-1.9,0.1-2.8-0.3l0.3,2
	l-3.8,0.5c0.4-0.6,0.6-1.4,0.4-2.2l-1.3,0.2l-0.1-0.7c3.7,0.3,7.4-1.1,9.9-3.9c-0.7,0.1-1.3,0.2-1.4-0.5c-0.7,0.1-0.8-0.6-0.9-1.3
	c-0.8-0.9-2-1.4-3.2-1.5l2.9-0.4l0.3,1.8c1.3,1,2.8,1.7,4.4,2.2l0.5,3.2l0.7-0.1c-0.1-0.7,0.5-1.5,0.4-2.2c0.7,1.1,1.4,2.2,2.3,3.2
	c0,0.5-0.1,0.9-0.5,1.2l0.7-0.1c0.7-0.1,0.6-0.5,1.3-0.6c0.1,0.5,0.8,1.1,1.7,2.4C443.5,263.6,443.5,264.3,442.9,264.4L442.9,264.4z
	 M421.8,257.8l-5.6-1.4c-0.6,0.8-0.4,2.2-0.9,3.4c-0.7-0.7-1.3-1.5-1.7-2.4c-0.3-0.4-0.6-0.9-0.7-1.4c-0.6-0.3-1.4-0.4-2.1-0.2
	l0.3,1.8c-0.6-0.5-1.2-1-1.6-1.7c-0.4,0.3-0.8,0.5-1.3,0.6c-0.5,0-1-0.1-1.4-0.3c-0.1-0.4,0.2-0.7,0.5-0.8c0,0,0,0,0,0
	c1.3-0.2,1.8-1.6,3-2.5c2-0.3,2.1,0.4,2.8,1.7l0.4,2.5c3.1-2.3,5.2-6,9.3-4.5c0,0.5-0.1,1-0.5,1.5c1.3,0,2.6-0.4,3.7-1.2l0.2,1.2
	c2.5-1.5,3.7-1,4.9,2.2c-1.7,0.9-1.8,0.2-2-1.1c-0.7,0.2-1.5,0-2.1-0.4c-0.4,2.2-1.5,2.3-6,2.2L421.8,257.8z M420.9,249l-0.3,0.8
	l-0.7,0.1c-0.1-0.5,0.2-0.5,0.3-1c-0.1,0.1-0.2,0.2-0.4,0.3l-2.3-1.8l0.6-0.8c0.6-0.5,0.5-1.3,1.1-2l0.7-0.1
	c0.7,1.8,1.9,0.5,2.6,1.1c2.2,0.9,3.8-0.5,5.5-1.4l1.3-0.2c0.9,1.1,2,2,3.1,2.9c1.2-0.1,2.3-0.5,3.2-1.1c-0.1,1.4-0.6,2.7-1.5,3.7
	c-0.4,2.2-2,0.3-3.3,0.4s-2.1-0.4-3.2-0.3c-0.7,0.1-0.6,0.8-1.1,1.5l-0.2-1.4C424.4,249.2,422.9,248.7,420.9,249L420.9,249z
	 M436.4,238.1l-3.1,0.4l-0.1-0.7c1.2-0.9,2.3-1,4.2-2c-1.5-0.2-3-0.2-4.5,0.1c-3.3,0.4-4.2,3.8-7.2,4.9c-0.7,0.1-0.5,1.5-0.4,2.2
	l-0.6,0.8c-0.4,0.1-0.4,0.1-0.5-0.6l-2.3-1.8l0.6-0.8c2.3-1.7,4.2-2.6,4.1-5.9c0.5-0.1,1-0.4,1.2-0.9c1.2-0.9,1.1-1.5-0.3-2l-6,6.9
	l-3.2,4.6l-2,0.3c-1.1-0.4-2.3-0.5-3.4-0.3c-0.9-1.2-1.6-2.5-1.9-4c-0.4,0.7-1,0.8-1.5,1.6c-0.1-0.7-0.1-0.7,0.4-1.9
	c-0.4,0.3-0.8,0.6-1.3,0.6c-2,0.3-2,0.3-3,2.5l2-0.3c0.4,0.6,0.9,1.2,1.4,1.7c-1.5-1-3.5-0.7-4.6-0.6c-1.7,0.9-1.4,3-1.7,5.1
	c-0.8-1.6-1.7-3.1-2.7-4.5c0.8,0.6,0.9,1.3,1.6,1.9l-0.5-3.4c-2.5-0.4-3.4,0-3,2.5c-0.1-0.5-0.4-1-0.9-1.3c0-0.8-0.4-1.5-1-2
	l-1.1,1.5c0.1,0.7-0.5,1.5-0.8,2.2c0.4,0.6,0.7,1.3,0.7,2l-0.4,0.1c-1-2-2.9,1.8-3.4-1.7c-0.4,0.6-1.2,0.9-1.9,0.9
	c-0.8-0.6-0.9-1.3-1.7-2.6l-0.1-0.7c-0.7,0.1-0.7-0.4-0.8-0.8l-1,1.1l-0.2-1.2c-0.4,0.4-0.8,0.8-1.2,1.3c-0.6,1.4-0.8,2.8-0.7,4.3
	c-0.8-0.6-1.4-0.5-2.2-1.1c-0.6,0.8-0.5,1.5-0.9,2.9c-0.8-0.6-1.9-0.5-2.7-1.1c-0.6,0.8-1.2,0.9-1.8,1.6l-0.2-1.4l-2,0.3l-0.8-5.3
	c-0.6-0.5-1.4-0.6-2.1-0.4c0.5,3.2,1.6,6.6,5.3,8.2c-0.6,0.8-1,1.7-1,2.7c-2.1-0.4-0.5-3.2-2.6-3.6c-0.9,0.6-1.6,1.3-2.2,2.2
	c-0.8-1.1-3.9,1.2-3.8-2.8c-0.7,0.1-0.7,0.1-1.2,0.9c0.2,0.9,0.1,1.8-0.3,2.6c-0.1-0.5-0.8-1.1-0.9-1.8l-2.5,0.3
	c-0.4,0.6-0.8,1.3-1.1,2l-0.3-1.8l-2.5,0.3c-1.3,0.2-1.9,0.9-2.6,1c0,0.7,0.4,1.4,0.9,1.8l-1.8,0.2c0.3,1.2,0.2,2.4-0.2,3.5
	c1.1-0.1,1.9,0.5,3.2,0.3c-1.9,0.9-2.8,2.5-3.8,0.5l-0.8-0.6c-0.8-0.6-0.8-0.6-1.4-0.5l-0.3-2l0.7-0.1c0.3,0.8,0.9,1.5,1.6,1.9
	c-0.1-0.7,0.6-0.8,0.5-1.5c0.4-2.2,0.2-3.3-2.6-3.6c-0.6,0.9-1.4,1.7-2.4,2.2c0.2,1.6,0.6,3.3,1.4,4.7c-2.4-2.5-3.6-1.6-5.3-0.7
	c-0.9-0.7-1.9-1.3-3-1.7c0.7,1.2,1.5,2.2,2.5,3.2c-0.6,0.8-1.2,0.9-2.5,1.7l-0.1-0.7c-1.2,0.9-2.6,1-4.2,2l3.4,1.4
	c-1.9,0.9-3.8,0.5-5.9-0.4l-3.7,2.4c0.7-0.1,1.4,0.5,2.2,1.1c-1.3,0.2-1.9,0.9-2.9,1.8c0.1,0.5,0.6,1.1,0.7,1.8
	c0.5-0.1,0.9-0.4,1.2-0.9c2.4,2.5,2.1,5.1,1.9,7.9l2-0.3l-0.2-1.4c1.9,1.2,4.3,0.8,5.8-0.8l1.3-0.2c2.7-0.3,3.2-1.1,2.2-3.6
	c-1.9,0.7-3.4-0.3-4.4-2.2c-0.4,0.6-0.6,1.4-0.4,2.2c0.1,0.7,0.8,0.6,1.4,0.5l0.1,0.5c-1.3,0.2-2.3,1-3.7,1.2l-2.3-1.6
	c2.6-1,4.3-2,4.5-4.6c1,0.4,2,0.9,2.9,1.5c0.7,0,1.4-0.4,1.9-0.9l-0.3-1.8c0.8,0.6,1.4,0.5,2.2,0.9c-0.5,2.2-0.6,4.5-0.4,6.8
	c-0.6,1.4-1.6,2.5-2.9,3.2c-1.1,0.1-1.2,0.9-0.7,1.7c0.2-0.1,0.2,0.2,0.3,0.4c-0.3-0.2-0.3-0.2-0.3-0.4c-0.1-0.1-0.3-0.2-0.5-0.2
	l-1.3,0.2c-0.3,0.4-0.5,0.9-0.5,1.5c0.5,0,1,0.2,1.4,0.5c0.7-0.1,1.2-0.9,1.8-1.6c1.3-0.2,2.6-1,3.9-1.2c-0.1-0.7,0.5-1.5,0.3-2.8
	c0.5,1,1.3,1.9,2.2,2.5c0.4,0.4,0.9,0.5,1.4,0.5l-0.2-1.4c-0.1-0.7,2.2-3.8,4.1-4.7l-2.5,5.9c2.5-1.7,4-3.3,5.8-0.8
	c1.2-0.9,1.9-0.9,1.8-1.6c0.8,1.6,1.3,3.4,1.4,5.2l0.4-0.1l-0.6-4.6l1.5,1.2c1.3-0.2,2.4-0.3,3-1.1c1.8-1.6,2.8,0.3,4.9,0.8
	c-0.9-1.3-0.4-2.8,1.6-3c1.2,0.5,2.5,0.4,3-1.1c1.4,0.5,1.6,1.9,1.8,3.3l1.1-1.5l-0.5-3.4c0.9,1.3,1.6,1.9,2.5,3.2
	c0.6-0.8,1.7-0.9,2.8-2.5l0.5,3.4c1.3-0.2,0.5-1.5,0.4-2.2c-0.4-2.8-0.4-2.8,1.7-2.3c0.1,0.4-0.2,0.7-0.5,0.8c0,0,0,0,0,0
	c0.8,0.6,1.4,0.5,2.2,1.1c-0.2-0.7-0.1-1.5,0.4-2.2c0,0.8,0.4,1.5,1,2c0.6-0.8,0.5-1.5,0.8-2.2c0.1,0.7-0.2,1.4-0.1,2.1
	c2.3-1,0.7-2.9,1.2-4.4c0.7,0.7,1.2,1.5,1.7,2.4c-0.1-0.7,0.5-1.5,0.3-2.6c0.9,1.3,1.1,2.7,1.7,4l3.5-2.6c0.4,0.3,0.9,0.5,1.4,0.5
	c0.5-1.5,0.3-2.8,0.7-4.3c0.3,1.3,0.7,2.6,1.2,3.8c-0.1-0.5,0.5-1.3,0.5-1.3c0.7-0.1,0.7-0.1,0.9,1.3c-0.3-2-0.4-2.8,0.2-3.5
	l1.3-0.2c0,0.4,0.4,0.6,0.7,0.6c0,0,0,0,0,0c1-0.8,1.8-0.2,2.5,0.4c1,0.9,1.8,2,2.5,3.2c0.4-0.6,1.2-0.9,1.9-0.9
	c-1.3-0.4-2.4-1.3-3.1-2.4c-0.4,0-0.7-0.2-0.8-0.6c-0.1-0.7,0.6-0.8,1.2-0.9c0.7-0.2,1.2-0.8,1.1-1.5c0.5-1.3,1.9-0.7,1.9-0.7
	l1.2-4.4c0.7-0.1,1.4,0.5,2.1,0.4c0.1,0.7-0.4,2.2,0.5,3.5c0.1,0.5,1.5,1,2.9,1.5L420,264c0.8,0.6,1.5,1.2,2.2,1.1
	c0.7-0.1,0.7-0.1,1-0.8c-0.4-0.4-0.8-0.7-1.3-1c1.5-1.6,1.5-1.6,3.2,0c1.7,2.6,3.2,4.5,5.9,4.8c1.3-0.1,2.6-0.5,3.7-1.2l0.1,0.7
	c-0.6,0.8-1.2,0.9-1.8,1.6c0.5,0,1,0.2,1.4,0.5c-1.3,0.2-2,0.3-2.8-0.3c0.2,1.4,0.3,1.8,1,2.4c0.4-0.5,0.7-0.9,1.2-1.3
	c0.1,5.4,2.2,10.5-0.2,15.7c1-0.8,1.7-0.9,2.2-1.7l1.5,1.2c-0.3-2.1-0.5-3.5,0-4.9c0.8-0.5,1.7-0.9,2.6-1c-0.5,1.5-1,2.2-0.9,2.9
	l2.3,1.8c-0.6,0.8-0.5,1.5,0.4,2.5c-0.3,0.4-0.7,0.7-1.2,0.9c-2.8-0.3-2.8-0.3-3.7,2.6c-0.8-0.6-1.4-0.5-2.5-0.4
	c0,0.7,0.3,1.3,0.7,1.8l-3.1,0.4l0.1,0.7c0.4,0.4,0.9,0.5,1.4,0.5c-0.9,2.9-4.5,4.6-7.1,4.2l0.1,1.1c-0.7,0.1-0.7,0.1-0.8-0.6
	l-0.4-2.5c-0.5,1.5-1.7,2.1-2.2,3.6c0.4,0.3,0.7,0.8,0.9,1.3c-0.5,1.5-1.7,2.3-2.3,3.1c-0.9-1.3-0.3-2,0.9-2.9l-0.2-1.4
	c-0.7,0.1-1.2,0.9-2.5,1.7c0.1,0.5,0.4,1,0.9,1.3l-1.1,0.1c-0.1-0.7-0.9-1.3-1.7-2.6l-0.7,0.1c0.2,1.4,0.3,2,1.1,2.7
	c-0.9,0.6-1.7,1.5-2.4,2.4l-0.8-0.6c-1.4-0.5-3.1,1.8-4.4,0.6c0-0.4-0.4-0.6-0.8-0.6c0,0,0,0,0,0c-2.4,2.4-5.3,0.7-7.8,1
	s-3.6,1.9-5.3,4.2c-0.6,0.6-1.1,1.3-1.5,2.1c-0.9-1.3-1.5-1.2-1.7-2.4c-0.5,1.2-3.3,0.4-2.2,3.6c-0.6-0.5-1.4-0.6-2.1-0.4
	c-1.4-0.5-1.9-0.5-3,1.1c-1.8,1.6-3.3,0.4-5-1.9l0.2,1.1c-0.4,2.2-1.6,3-3.5,2.6L378,315c-2.3,0.8-4.6,1.4-7,1.6c-2,0.1-4-0.1-6-0.6
	c-1.8,0.2-4-0.9-5.9,0c-1.7,0.2-3.4-0.3-4.7-1.3c0.1-0.9,0.1-1.9,0-2.8l-0.4-2.8c-0.5-0.6-0.2-1.4-0.3-2c0.9,1.3,1.1,2.7,2,4.6
	c1.2-0.9,1.7-2.3,0.1-4.2c-1.6-1.7-2.5-3-3.8-4.2l0.6,4.6c-0.5,0.1-1,0.4-1.2,0.9c2.2,1.1,1.7,2.6,1.3,4s-1.7,2.3-1.9,1
	c-1.7-2.6-3.6-1.6-5-1.5l-2.5,0.3c-2.8-0.3-2.8-0.3-4.7,0.6l-0.1-0.7c-0.3-2-1.8-3.3-3-3.2c-2.3,1-2.3,1-2.6-0.8l0.6,0.6
	c0.4-2.2,0.4-2.2-2.1-1.8l-0.6-3.9c-0.5-2.7-0.7-5.4-0.5-8.1l0.6-0.8l1.2-0.2c-0.8-0.7-1.5-1.4-2.2-2.3c0.8,0.2,1.7,0.3,2.5,0.1
	c-1.5-1-2.1-2.3-3.7-3.5c0.3,2,0.5,3.4,0,4.7c-0.8-1.1-2.8-2.2-2.8-5c-0.1-0.7-1.3-1.2-1.4-1.9c-0.9-1.3-2.3-1.6-3.2-2.9
	c-0.7,0.1-1.2,0.9-1.9,1l-0.4-2.8c1,0.7,2.3,1.1,3.5,0.9c0.1,0.7,0.8,0.6,1.4,0.5c0.8,0.6,0.9,1.8,1.2,3.1l0.4-0.1l-0.2-1.4l1.3-0.2
	l-0.2-1.1c-0.1-0.7-0.8-1.2-1.5-1.2c-0.4,0.1-0.7,0.3-0.8,0.6l1.3-2l-0.1-0.7c-1.8,0.2-3,1.1-5,1.4c-0.6-4.1,3.8-4.7,4.8-7.4
	l-0.8-0.6c-1.8,0.2-3.1,0.4-4-0.9c-0.1-0.7-1.4-0.5-2.1-0.4c0.5-1.2,1.1-2,1.5-3.5c-3.5-0.7-6.2-1.8-10.4-2.6c0.9-0.8,2-1.4,3.1-1.8
	c0.7,0,1.3,0.5,1.3,1.2c0.4,0,0.6-0.4,0.6-0.7c0,0,0,0,0,0c-0.1-0.7-0.9-1.3-1-2c1.2-0.9,1.9-0.9,3.1-1.8c0.7-0.1,0.6-0.8,0.5-1.5
	c-0.1-0.5-0.1-0.5-0.7-0.4c1.8-0.8,3.4-2,4.7-3.4c-1.3-1.2-1.4-1.9-0.4-2.8c1.8-1.6,2.9-3.7,4.5-5.3c1.3-1.5,2.9-2.7,4.7-3.4
	l-0.7,0.1c-0.3-1.2-0.2-2.4,0.2-3.5c1.3-0.2,1.5,1.2,0.4,2.8l9.9-5.3c-0.7,0.1-1.3,0.2-1.4-0.5l2.7-0.3c0.3-0.4,0.5-0.9,0.5-1.5
	c-0.5,0-1-0.2-1.4-0.5c-0.1-0.5-0.4-0.9-0.8-1.1c2-0.3,2.9,1.5,4.2,2c0.6-1.7,1.2-3.3,2-4.9c0.7-0.1,1.2-0.9,1.8-1.6
	c0.4-0.1,0.7,0.2,0.8,0.6c0,0,0,0,0,0c0.6-0.8,1.2-0.9,1.8-1.4c0-0.4-0.4-0.6-0.7-0.6c0,0,0,0,0,0l-0.4-2.8c1.2-0.9,1.5-1.6,2.7-3.1
	c0.1,0.5,0.5,1,0.9,1.3c-1.8,1.6-1.8,1.6,0.6,4.1c-0.1-0.7-0.1-0.7,0.5-1.5l0.2,1.4l0.7-0.1l-0.3-2l1.8-0.2c-0.6-0.5-1-1.2-1-2
	l0.7-0.1c0,0.8,0.4,1.5,1,2c0.6-0.8,0.5-1.5,1.1-1.6c0.1-2.1,3-1.1,4.1-3.3c0.7-0.1,1.8-1.6,2.8,0.3l1.3-0.2
	c0.4-0.1,0.3-0.7,0.2-1.4c1.1,2.4,1.9,4.8,2.4,7.4c-1.7,0.6-3.6,1.6-6.8,2.8c0.9,0.4,1.8,0.5,2.8,0.3l0.1,0.7
	c-0.9-0.4-1.8-0.6-2.8-0.3c-1.4-0.5-2.2-1.1-3,1.1c0.9-0.1,1.7,0.5,2.3,0.4l-1.8,0.2c-0.7,0.1-1.4,0-1.9-0.5l0.1,0.7
	c0.8,0.3,1.7,0.3,2.5,0.1c0.7-0.1,1.3-0.6,1.9-0.7c1.3-0.2,2.8,0.8,3.2-1.1c0.7-0.1,0.6-0.8,0.5-1.5l2.1,1.8l4.7-0.7
	c0,0,0.1,0.5,0.7,0.4c1.5-0.3,3-0.9,4.3-1.7c0.1,0.7,0.8,0.6,1.5,1c1.3-0.6,1.8-1.4,3.7-2.4c0.1,0.5,0.5,1,0.9,1.3
	c1.3-0.1,2.6-0.5,3.7-1.2c0.9-0.3,1.7-0.9,2.3-1.7l0.1,0.7c1.2-0.9,2.5-0.3,2.9-1.8c1.1-0.1,2.1,0.3,2.9,1.1l0.1,0.7
	c1.9-1,4.2,0.6,4.8-2.7c0.2,1.4,0.2,1.4,1,2c1,0,1.9-0.4,2.6-1l0.5,3.2c-2,0.3-2,0.3,0.6,3.9c0.4-1.6,0.8-3.3,1.3-4.8l3.1-0.4
	c1.4,0.5,2.3,1.8,3.9,3.5c-0.2-1.2,0.5-1.3,0.4-1.9l0.7-0.1l0.2,1.4c0.9-0.7,1.7-1.5,2.4-2.4c2.9,2.9,1.6,6.6,1.5,10.1
	c1.5-2.3,0.2-6.3,2.8-7.4c1.5,1.2,1.5,1.2,2.3-1l0.5,3.4c0.6-0.8,1.1-1.5,1.8-1.6c1.8-0.2,0.9-1.5,0.8-2.2c0.7-0.1,0.6-0.6,1.3-0.6
	l0.7,0.4c0.1,0.7-0.6,0.8-0.4,2.2c0.9-1.1,1.9-2.1,3-3l0.2,1.2c0.9,0.4,1.8,0.6,2.8,0.3c0.5,0.6,1.3,1.2,2,1.1c2.2,1.1,4,4.4,3,6.4
	C438.2,237.2,437.3,237.8,436.4,238.1L436.4,238.1z M406.5,263.7l-0.6,0.8c-0.7,0.1-1.4,0-1.9-0.5l-0.2-1.4
	C404.6,263.2,405.7,263.1,406.5,263.7z M362,274.2c-0.7,0-1.3,0.4-1.7,0.9c-0.1-0.7-0.9-1.3-1.7-2.6c1.4,0.5,2-0.3,1.8-1.4
	c-0.3-2,0.5-4.3,0.9-6.2l4.4,3.4c0.6-0.8,0.5-1.5,1-2.2l0.6,4.6c-1.8-3-2.5-2.9-4-0.7c-0.8-0.6-0.9-1.3-1.6-1.9
	C361,270.3,360.5,271.6,362,274.2z M351.8,270.8c0.7-0.1,0.6-0.8,0.5-1.5c-0.5,0-1-0.2-1.4-0.5c-0.4-0.3-0.9-0.5-1.4-0.5l1.2-1.3
	c0.5-0.1,0.9-0.4,1.2-0.9c1.4,0.5,2.8,1,4.3,1.3c0,0,0.6,1.3,1.3,1.2c0.1,0.7,0.7-0.1,1.2-0.9l-1.3,0.2c-0.1-0.7-0.1-0.7-0.8-1.1
	l1.3-0.2c0.7-0.1,1.4,0.3,2.1,0.2C358.2,270,356,271.7,351.8,270.8L351.8,270.8z M352.7,272.6c0.1,0.7,0.2,1.4-0.5,1.5
	c-1.5,0.3-3.1,0.2-4.6-0.1c1.1-0.1,2.2-2.1,3.8-0.5C351.8,273,352.2,272.7,352.7,272.6L352.7,272.6z M355.9,258.9
	c0.5-1.5,0.5-1.5,3.1-1.8c0.1,0.7-0.5,1.5-0.4,2.2C357.4,259.3,357.6,256.5,355.9,258.9L355.9,258.9z"/>
<path class="st1" d="M359.4,237.8c0.5,0.6,0.4-0.1,1.1-0.1c-1.3-1-1.3-1,0.7-4.8c-1.2,0.9-2.3,1-2.9,1.8
	C357.2,236.2,358.7,237.2,359.4,237.8z"/>
<path class="st1" d="M340.3,281.9l-0.1-0.7c-0.7,0.1-1.4-0.5-2.2-1.1c-0.4,0.6-0.6,1.4-0.4,2.2l0.1,0.7
	C338.4,282.4,339.3,282,340.3,281.9z"/>
<path class="st1" d="M409.9,235.4c1.2,0.5,1.9,0.5,1.5-1.6c0.6-0.8,1.1-1.5,1-2.2c-1.5,0.9-2.9,2-4,3.3
	C408.8,235.3,409.3,235.5,409.9,235.4z"/>
<path class="st1" d="M330.5,261.4c-0.7,0.1-1.9-0.5-2.5-0.4c-0.5,0.1-0.9,0.4-1.2,0.9c0,0.4,0.4,0.6,0.7,0.6c0,0,0,0,0,0
	c1.4,0.5,0.9,1.3,0.3,2c2.6,1.1,2.6,1.1,4.2-2c-0.7,0.1-1.2,0.9-2.2,1.7C330.1,263.6,330,262.9,330.5,261.4z"/>
<path class="st1" d="M344.5,303.1l0.5,3.2c0.1,0.7,0.1,0.7,0.8,0.6c-0.2-1.4,0.3-2.8-0.6-3.9L344.5,303.1z"/>
<path class="st1" d="M347.7,297.3c-0.7,0.1-0.6,0.8-0.5,1.5c0.2,1.8,1.8,3,3.6,2.8c0.1,0,0.1,0,0.2,0l-2.6-3.6L347.7,297.3z"/>
<path class="st1" d="M354.4,289c-0.1-0.7-0.8-0.6-0.9-1.3c-2,0.3-2.7,2.9-5.6,2.1l-0.6,0.6l0.2,1.4c0.1,0.7,0.8,0.6,1.5,1.2
	c1.3-0.3,2.7-0.2,3.9,0.2C352.7,291.1,352.4,289.2,354.4,289z"/>
<path class="st1" d="M330.7,285c-0.8-0.6-1.2-0.5-2.6-0.8l0.5,3.2c0.7-0.1,1.2-0.9,1.7-0.9l1.3-0.2
	C331.6,286.3,331.4,284.9,330.7,285z"/>
<path class="st1" d="M319.9,268.2c1,2,2.3,1.8,3.8-0.5L319.9,268.2z"/>
<path class="st1" d="M334,298.4c-0.3,0.4-0.5,0.9-0.5,1.5c0.2,1.2,2.2,3,0.7,5.1l0.1,0.7c1.7-0.9,2.3-1,2.7,1.1l2-0.3
	c-1.7-2.4-2.9-5.7-4.4-8.1L334,298.4z"/>
<path class="st1" d="M356,285.9c-1.5-1.2-2.9-1.1-3.6-1.6c-0.7,0.1-2,0.3-1.1,1.5l0.7-0.1C353.6,287.7,354.7,286.1,356,285.9z"/>
<path class="st1" d="M340.4,287.3c-0.4,2.2-0.8,4.1,1.4,5.2c1.2,0.5,1.7-0.9,2.9-1.8c-0.6,0.8-0.6,0.8-0.5,1.5
	c2.8,0.3,3.4,0.3,2.5-1.7c-0.9-1.8,0.5-1.2,1.2-1.3c0.7-0.2,1.5,0,2.1,0.4l-0.2-1.4l1.5-2.3c-1.5-0.3-3-0.4-4.6-0.1l0.1,0.7
	c-0.7,0.9-1.3,1.9-1.6,3c-0.8-0.6-0.9-1.3-1.6-1.9c-0.3,0.6-0.4,1.3-0.4,1.9C342.7,287.7,341.9,287.1,340.4,287.3z"/>
<path class="st1" d="M362.3,306.6l-0.4,0.1c-0.8-1.6-1.3-3.4-1.4-5.2l-2,0.3c1.2,3,2.1,6.1,2.7,9.2c0.9-0.6,1.6-1.4,2.1-2.4
	l-1.1,0.1C362,308.1,362.3,307.3,362.3,306.6z"/>
<path class="st1" d="M343.5,286.9c2-0.3,1-2.2,0.8-3.6c-0.4,0.6-1.2,1-1.9,1C342.6,285.6,343.4,286.2,343.5,286.9z"/>
<path class="st2" d="M173.4,352.1c-0.8,0.2-1.5,0.7-2,1.4c-1.1,1.6-2.1,3.2-3,4.9c-0.9,1.7-2,3.3-3.1,4.9c-0.4,0.5-0.8,0.8-1,0.8
	c-0.2,0-0.9-0.5-2.2-1.5c-1.7-1.5-3.8-3.3-6.1-5.6c-5.3-5.1-8.6-8.3-9.9-9.4c-1.4-1.3-3-2.4-4.7-3.3c-1.2-0.5-2.5-0.8-3.8-0.7
	c-1.3,0.2-2.6,0.9-3.3,2c-0.8,0.8-1.1,1.9-1,2.9c0.2,1.1,0.7,2.2,1.5,3c0.7,0.6,1.6,1.1,2.5,1.4c1.2,0.5,2.3,1.2,3.3,2
	c0.6,0.6,1.9,1.8,3.6,3.6c3.3,3.4,7.1,6.8,11.2,10.4c3.3,2.8,5.3,4.4,6.1,5c0.9,0.6,2,0.9,3.1,1c2.5,0.1,4.7-1,6.6-3.4
	c1.3-1.7,2.4-3.5,3.4-5.3c1.5-2.5,2.9-5.1,3.9-7.9c0.7-1.9,0.2-4.1-1.5-5.5C176.2,352,174.7,351.6,173.4,352.1z"/>
<path class="st2" d="M199.8,317.5c-0.9-0.7-2-1-3.1-0.9c-1.3,0-2.5,0.6-3.3,1.6c-0.9,1.1-1.2,2.5-1.1,3.9c0,2-0.4,3.9-1.2,5.8
	c-0.6,2.1-1.6,4-2.9,5.8c-0.3,0.5-0.8,0.8-1.3,0.9c-0.8,0-1.6-0.2-2.3-0.5c-2.4-0.8-4.6-2.1-6.5-3.7c-0.8-0.7-1.1-1.1-0.9-1.3
	c1.2-1.7,2.2-3.4,3.2-5.2c1-1.7,2-3.5,2.8-5.4c0.5-1.4,0.6-2.9,0.2-4.3c-0.2-1.3-0.8-2.5-1.7-3.5c-0.9-0.8-2.1-1-3.2-0.7
	c-1.2,0.3-2.3,0.9-3,1.9c-0.6,0.7-1,1.6-1.1,2.6c0,0.9-0.8,2.4-2.3,4.7l-2.4,3l-3.8-3.2l-3.9-3.2l1.5-2.9c0.6-1.1,1.7-3,3.2-5.5
	c0.8-1.1,1.5-2.4,1.9-3.7c0.2-1.8-0.5-3.5-1.8-4.7c-1-0.9-2.4-1.2-3.7-0.9c-0.9,0.2-1.9,1.2-3.2,2.8c-1.5,1.9-2.8,4-3.8,6.2
	c-0.9,1.8-1.9,3.5-3,5.2c-1.7,2.2-2.1,4.2-1.1,6c0.4,0.6,3.1,3.3,8.2,8.1c5.1,4.8,9.1,8.5,12.2,11.2l1.3,1.1c1.9,1.4,4,2.5,6.2,3.5
	c2,1,4.1,1.7,6.4,2c3.3,0.5,6.5-0.8,8.6-3.4c1.7-2.3,3.1-4.8,4.2-7.4c1.3-2.7,2.4-5.6,3.1-8.5c0.4-1.6,0.3-3.2-0.4-4.6
	C201.2,319.2,200.6,318.3,199.8,317.5z"/>
<path class="st2" d="M228.3,300.1c-3.7-2.3-7.3-4.9-10.6-7.7c-1.5-1.3-2.7-2.3-3.5-3.1l-5.6-5.2l4.1-5.6c1.6-2.1,2.9-4.3,4.1-6.6
	c0.5-1.2,0.4-2.5-0.3-3.6c-0.4-0.7-0.8-1.3-1.4-1.8c-1-0.7-2.2-0.9-3.3-0.7c-1.3,0-2.6,0.6-3.5,1.6l-0.2,0.2
	c-0.6,0.9-2.8,3.9-6.4,9.2c-1.7,2.5-3.7,5.3-6.2,8.3c-1.1,1.4-1.9,2.3-2.3,2.8c-0.5,0.5-0.9,1-1.3,1.6c-1.6,2-2.5,3.8-2.5,5.3
	c0.1,1.7,0.9,3.2,2.3,4.2c1.1,1.1,2.7,1.4,4,0.8c1.4-0.6,3.4-2.3,6-5.2l1.6-1.7l5.5,5c0.5,0.5,1.5,1.3,2.7,2.4
	c2.4,2.1,4.8,4,7.1,5.7c1.3,1,2.7,1.9,4.2,2.6c1,0.3,2,0.4,3,0.3c1.4,0,2.7-0.6,3.7-1.6c0.7-1,1-2.3,0.9-3.5
	c0.1-1.1-0.2-2.1-0.9-2.9C229,300.6,228.6,300.3,228.3,300.1z"/>
<path class="st2" d="M212.7,240.6c-0.7-0.7-1.6-1.2-2.6-1.5c-0.8-0.1-1.6,0-2.4,0.4c-0.9,0.3-1.7,0.8-2.3,1.5
	c-0.5,0.6-0.6,1.7-0.5,3.3c0.1,1.1,0.5,2.1,1.2,3c1.1,1.3,2.2,2.5,3.6,3.5l2,1.7c0.9,0.7,2,1.1,3.2,1c1.1-0.1,2.1-0.7,2.7-1.5
	c0.8-1,1.2-2.3,0.9-3.5c-0.1-1.4-1.3-3.2-3.4-5.4C214.4,242.1,213.5,241.3,212.7,240.6z"/>
<path class="st2" d="M255.6,238.9c-2.6-1-5-2.4-7.2-4.2l-0.9-0.7c-0.3-0.3-0.5-0.8-0.4-1.2c0.3-0.7,0.7-1.3,1.2-1.9
	c1.1-1.1,1.6-2.7,1.4-4.2c0-1.1-0.4-2.1-1.1-2.9c-0.6-0.4-1.2-0.7-1.9-0.9c-1.4-0.4-2.8-0.2-4.1,0.4c-1.5,0.7-2.9,1.8-4,3.2
	c-1.1,1.3-1.8,2.9-2,4.6c0,1.7,0.2,3.4,0.9,5c0.3,1,0.8,1.9,1.3,2.8c0.8,1,1.7,1.9,2.7,2.7l1.1,0.9c2.6,2.2,5.5,4.1,8.7,5.5
	c2.1,0.9,4,2.1,5.8,3.5l0.4,0.4l1.9,1.8l-2.7,3.4c-0.9,1-1.6,2-2.2,3.2c-0.4,1.9,0,3.9,1.2,5.4c0.6,0.4,1.3,0.8,2,1
	c2,0.7,4.6-0.6,7.7-3.7c0.5-0.5,1-1,1.4-1.6c2.8-3.5,3.3-7.5,1.5-11.8c-1.1-2.2-2.7-4.2-4.7-5.7
	C261.1,241.8,258.5,240.2,255.6,238.9z"/>
<path class="st2" d="M300.9,207.9c2.1-2.8,3.5-6,4-9.4c0.7-3.6,0.6-7.3-0.3-10.9c-1.1-4.1-2.6-7-4.5-8.6c-0.7-0.6-1.5-1.1-2.3-1.6
	c-2.1-1.1-4.6-1.4-7-0.8c-2.4,0.5-4.5,1.8-6.1,3.8c-1,1.3-1.7,2.7-2.3,4.2c-0.6,1.2-1,2.6-1,4c0.1,1.1,0.6,2.2,1.5,3
	c0.9,0.7,1.9,1.1,3,1.1c0.7,0,1.4-0.2,2-0.5c1-0.8,1.8-1.7,2.6-2.8c1.9-2.4,3.2-3.3,3.9-2.8c0.4,0.3,0.9,1.5,1.4,3.5
	c0.4,1.7,0.5,3.5,0.2,5.3c-0.2,1.8-0.7,3.7-1.4,5.3l-0.1,0.2c0,0.1,0,0.1-0.1,0.2c-0.7,0.9-2.1,1.5-4.3,1.9c-1.9,0.4-3.9,0.4-5.8,0
	c-1.9-0.5-3.6-1.5-5.1-2.8c-2.8-2.4-4.9-5.5-6.3-8.9c-1.5-3.2-2.1-6.8-1.7-10.3c0.2-1.1,0.5-2.2,0.9-3.3c0.7-1.2,1.5-2.4,2.3-3.5
	c0.9-1,1.6-2.1,2.2-3.2c0.3-0.7,0.3-1.4,0.1-2.1c-0.2-1.1-0.7-2-1.6-2.7l-0.5-0.4c-2.6-1.8-5.2-1-8,2.5c-0.8,1.1-1.6,2.2-2.2,3.5
	c-1,1.9-1.8,4-2.2,6.2c-0.4,2.6-0.4,5.2-0.1,7.8c0.2,2.7,0.7,5.4,1.5,7.9c1.1,2.6,2.5,5.1,4.2,7.4c1.4,2.3,3.2,4.4,5.1,6.3
	c6.4,5.3,14.1,6.7,22.9,4.1C297.8,210.8,299.6,209.6,300.9,207.9z"/>
<path class="st2" d="M307.8,174.6c2.4,2.1,5.4,3.4,8.5,3.9c3.3,0.5,6.7,0,9.8-1.3c3-1.2,5-2.5,6-3.8c1.1-1.6,2-3.3,2.8-5.1
	c2-4.3,2.9-7.6,3-9.9c0-2.3-0.9-5-2.7-8.2c-1-1.8-2.3-3.4-3.9-4.8c-1.5-1.2-3.2-2.3-4.9-3.3c-1.5-1-3.2-1.8-4.9-2.3
	c-1.9-0.3-3.7-0.5-5.6-0.3c-1.7,0-3.3,0.3-4.9,0.8c-1.2,0.6-2.2,1.4-3,2.5c-0.8,1.2-2.2,1.9-3.6,2.1c-1.5,0.1-2.9,0.9-3.7,2.1
	c-0.9,1.1-1.4,2.4-1.6,3.8c-0.3,1.4,0,3.9,0.8,7.7c0.6,3.1,1.5,6.2,2.7,9.1C303.8,170.2,305.6,172.6,307.8,174.6z M308.9,154.9
	c-0.4-2.1-0.4-3.3,0-3.8c0.6-0.5,1.3-0.8,2.1-0.8c2.8-0.4,5.6-0.7,8.4-0.8c1.3,0.2,2.5,0.7,3.6,1.5c0.5,0.3,1,0.7,1.4,1.1
	c2.3,2,3.7,3.8,4,5.6c0.1,0.6-0.4,2.3-1.7,5.1l-2,4.3l-2.3,0.9c-2.6,1.2-5.6,0.9-8-0.7c-0.3-0.2-0.6-0.4-0.9-0.7
	c-0.8-0.7-1.6-2.3-2.6-4.9C310,159.5,309.4,157.2,308.9,154.9z"/>
<path class="st2" d="M427,255c0.6,0.5,1.4,0.6,2.1,0.4c0.2,1.4,0.3,2,2,1.1c-1.2-3.1-2.4-3.7-4.9-2.2l-0.2-1.2
	c-1.1,0.7-2.4,1.1-3.7,1.2c0.3-0.4,0.5-0.9,0.5-1.5c-4.1-1.6-6.2,2.2-9.3,4.5c0.4,0.9,1,1.7,1.7,2.4c0.5-1.3,0.3-2.6,0.9-3.4
	l5.6,1.4l-0.8-0.6C425.5,257.3,426.6,257.1,427,255z"/>
<path class="st2" d="M427.6,249.5c1.1-0.1,1.9,0.5,3.2,0.3s3,1.7,3.3-0.4c0.8-1.1,1.3-2.4,1.5-3.7c-1,0.6-2.1,1-3.2,1.1
	c-1.1-0.8-2.2-1.8-3.1-2.9l-1.3,0.2c-1.7,0.9-3.3,2.3-5.5,1.4c-0.8-0.6-1.9,0.7-2.6-1.1l-0.7,0.1c-0.6,0.8-0.5,1.5-1.1,2l-0.6,0.8
	l2.3,1.8c0.2,0,0.3-0.1,0.4-0.3c-0.2,0.5-0.4,0.5-0.3,1l0.7-0.1l0.3-0.8c2-0.3,3.4,0.3,5.3,0.7l0.2,1.4
	C427,250.3,426.9,249.6,427.6,249.5z"/>
<path class="st2" d="M343.9,280.7c-0.1-0.2-0.1-0.5-0.3-0.4C343.7,280.6,343.7,280.6,343.9,280.7z"/>
<path class="st2" d="M410.4,253.1c-1.2,0.9-1.7,2.3-3,2.5c-0.4,0.1-0.6,0.4-0.6,0.8c0,0,0,0,0,0c0.4,0.2,0.9,0.3,1.4,0.3
	c0.5-0.1,0.9-0.3,1.3-0.6c0.4,0.6,1,1.2,1.6,1.7l-0.3-1.8c0.7-0.2,1.4-0.1,2.1,0.2c0.1,0.5,0.3,0.9,0.6,1.3l-0.4-2.5
	C412.5,253.6,412.4,252.9,410.4,253.1z"/>
<path class="st2" d="M440.3,261.2l-0.7,0.1c0.4-0.3,0.5-0.8,0.5-1.2c-0.8-1-1.6-2.1-2.3-3.2c0.1,0.7-0.5,1.5-0.4,2.2l-0.7,0.1
	l-0.5-3.2c-1.6-0.5-3.1-1.2-4.4-2.2c0.1,0.7,0.2,1.4,0.9,1.3c0.1,0.7,0.8,0.6,1.4,0.5c-2.5,2.7-6.2,4.2-9.9,3.9l0.1,0.7l1.3-0.2
	c0.2,0.7,0.1,1.5-0.4,2.2l3.8-0.5l-0.3-2c0.8,0.5,1.8,0.6,2.8,0.3c-0.2,0-0.3-0.7-0.3-0.7c2.9,1.1,3.9,3.5,6.8,4.5
	c-0.7,0.1-1.2,0.9-1.9,0.9c1.5,1.2,2.5,3.2,3.8,4.4c-1.1,0.1-2.3,1-3,1.1l-0.3-2l-1.1,1.5l-0.5,1.2l2.7-0.3c0.6,0.7,1,1.7,1.1,2.7
	l2.5-0.3c0.1,0.7-0.5,1.5-0.4,2.2c1.4,0.5,2.1,0.4,1.9-1c0.5-1.5,0.2-3.5-0.1-5.4c-0.2-1.4-1.1-2.7,0.1-4.2c0.7-0.1,0.6-0.8,0.5-1.5
	c-0.9-1.3-1.6-1.9-1.7-2.4C441,260.6,441,261.1,440.3,261.2z"/>
<path class="st2" d="M437.9,275.3c0.1,0.4-0.2,0.7-0.5,0.8c0,0,0,0-0.1,0l-1.1,1.5c0.8,1.1,1.5,1,2.1,0.4c0.6-0.8,0.6-0.8,1.2-0.9
	l3.1-0.4c-0.7-0.4-1.3-1.1-1.6-1.9C440.2,277.1,439.4,276.5,437.9,275.3z"/>
<path class="st2" d="M347.7,273.9c1.5,0.3,3,0.4,4.6,0.1c0.7-0.1,0.6-0.8,0.5-1.5c-0.5,0.1-0.9,0.4-1.2,0.9
	C349.9,271.8,348.8,273.8,347.7,273.9z"/>
<path class="st2" d="M359.8,267c-0.7,0.1-1.4-0.3-2.1-0.2l-1.3,0.2c0.7,0.4,0.7,0.4,0.8,1.1l1.3-0.2c-0.6,0.8-1.1,1.6-1.2,0.9
	c-0.7,0.1-1.3-1.2-1.3-1.2c-1.5-0.3-2.9-0.8-4.3-1.3c-0.3,0.4-0.7,0.7-1.2,0.9l-1.2,1.3c0.5,0,1,0.2,1.4,0.5
	c0.4,0.4,0.9,0.5,1.4,0.5c0.1,0.7,0.2,1.4-0.5,1.5C356,271.7,358.2,270,359.8,267z"/>
<path class="st2" d="M358.7,259.2c-0.1-0.7,0.5-1.5,0.4-2.2c-2.7,0.3-2.7,0.3-3.1,1.8C357.6,256.5,357.4,259.3,358.7,259.2z"/>
<path class="st2" d="M403.9,262.6l0.2,1.4c0.5,0.4,1.2,0.6,1.9,0.5l0.6-0.8C405.7,263.1,404.6,263.2,403.9,262.6z"/>
<path class="st2" d="M435.8,229.9c-0.7,0.1-1.4-0.5-2-1.1c-0.9,0.2-1.9,0.1-2.8-0.3l-0.2-1.2c-1.1,0.9-2.1,1.9-3,3
	c-0.2-1.4,0.5-1.5,0.4-2.2l-0.7-0.4c-0.7,0.1-0.6,0.6-1.3,0.6c0.1,0.7,1,2-0.8,2.2c-0.7,0.1-1.2,0.9-1.8,1.6l-0.5-3.4
	c-0.8,2.2-0.8,2.2-2.3,1c-2.6,1-1.3,5.1-2.8,7.4c0.2-3.5,1.5-7.2-1.5-10.1c-0.6,0.9-1.4,1.8-2.4,2.4l-0.2-1.4l-0.7,0.1
	c0.1,0.7-0.6,0.8-0.4,1.9c-1.6-1.7-2.5-3-3.9-3.5l-3.1,0.4c-0.5,1.6-1,3.2-1.3,4.8c-2.6-3.6-2.6-3.6-0.6-3.9l-0.5-3.2
	c-0.7,0.6-1.6,1-2.6,1c-0.8-0.6-0.8-0.6-1-2c-0.6,3.4-2.9,1.8-4.8,2.7l-0.1-0.7c-0.7-0.8-1.8-1.2-2.9-1.1c-0.5,1.5-1.7,0.9-2.9,1.8
	l-0.1-0.7c-0.5,0.8-1.3,1.4-2.3,1.7c-1.1,0.7-2.4,1.1-3.7,1.2c-0.4-0.3-0.7-0.8-0.9-1.3c-1.9,0.9-2.5,1.7-3.7,2.4
	c-0.7-0.4-1.4-0.3-1.5-1c-1.3,0.8-2.8,1.4-4.3,1.7c-0.7,0.1-0.7-0.4-0.7-0.4l-4.7,0.7l-2.1-1.8c0.1,0.7,0.2,1.4-0.5,1.5
	c-0.4,1.9-1.9,0.9-3.2,1.1c-0.7,0.1-1.3,0.6-1.9,0.7c-0.8,0.2-1.7,0.1-2.5-0.1l-0.1-0.7c0.5,0.4,1.2,0.6,1.9,0.5l1.8-0.2
	c-0.7,0.1-1.4-0.5-2.3-0.4c0.8-2.2,1.5-1.6,3-1.1c0.9-0.2,1.9-0.1,2.8,0.3l-0.1-0.7c-0.9,0.2-1.9,0-2.8-0.3c3.2-1.1,5.1-2.1,6.8-2.8
	c-0.5-2.6-1.3-5-2.4-7.4c0.1,0.7,0.2,1.4-0.2,1.4l-1.3,0.2c-1-2-2.1-0.4-2.8-0.3c-1,2.2-3.9,1.2-4.1,3.3c-0.7,0.1-0.6,0.8-1.1,1.6
	c-0.6-0.5-1-1.2-1-2l-0.7,0.1c0,0.8,0.4,1.5,1,2l-1.8,0.2l0.3,2l-0.7,0.1l-0.2-1.4c-0.6,0.8-0.6,0.8-0.5,1.5
	c-2.4-2.5-2.4-2.5-0.6-4.1c-0.4-0.3-0.7-0.8-0.9-1.3c-1.1,1.5-1.5,2.3-2.7,3.1l0.4,2.8c0.4-0.1,0.7,0.2,0.8,0.6c0,0,0,0,0,0
	c-0.6,0.5-1.3,0.6-1.8,1.4c0-0.4-0.4-0.6-0.7-0.6c0,0,0,0,0,0c-0.6,0.8-1.1,1.5-1.8,1.6c-0.8,1.6-1.4,3.2-2,4.9
	c-1.3-0.5-2.2-2.3-4.2-2c0.4,0.2,0.7,0.6,0.8,1.1c0.4,0.4,0.9,0.5,1.4,0.5c0,0.5-0.2,1-0.5,1.5l-2.7,0.3c0.1,0.7,0.8,0.6,1.4,0.5
	l-9.9,5.3c1.1-1.5,0.9-2.9-0.4-2.8c-0.4,1.1-0.4,2.4-0.2,3.5l0.7-0.1c-1.8,0.7-3.4,1.9-4.7,3.4c-1.5,1.6-2.6,3.6-4.5,5.3
	c-1,0.8-0.9,1.5,0.4,2.8c-1.3,1.4-2.9,2.6-4.7,3.4c0.7-0.1,0.7-0.1,0.7,0.4c0.1,0.7,0.2,1.4-0.5,1.5c-1.2,0.9-1.9,0.9-3.1,1.8
	c0.1,0.7,0.9,1.3,1,2c0.1,0.4-0.2,0.7-0.5,0.8c0,0,0,0,0,0c0-0.7-0.6-1.2-1.3-1.2c-1.1,0.4-2.2,1-3.1,1.8c4.2,0.9,6.9,1.9,10.4,2.6
	c-0.5,1.5-1,2.2-1.5,3.5c0.7-0.1,2-0.3,2.1,0.4c0.9,1.3,2.2,1.1,4,0.9l0.8,0.6c-1,2.7-5.4,3.3-4.8,7.4c2-0.3,3.2-1.1,5-1.4l0.1,0.7
	l-1.3,2c0.2-0.3,0.5-0.5,0.8-0.6c0.7,0,1.4,0.5,1.5,1.2l0.2,1.1l-1.3,0.2l0.2,1.4l-0.4,0.1c-0.2-1.4-0.4-2.5-1.2-3.1
	c-0.7,0.1-1.3,0.2-1.4-0.5c-1.3,0.1-2.5-0.2-3.5-0.9l0.4,2.8c0.7-0.1,1.2-0.9,1.9-1c0.9,1.3,2.3,1.6,3.2,2.9
	c0.1,0.7,1.3,1.2,1.4,1.9c0,2.8,1.9,4,2.8,5c0.5-1.2,0.3-2.6,0-4.7c1.5,1.2,2.2,2.5,3.7,3.5c-0.8,0.1-1.7,0.1-2.5-0.1
	c0.6,0.9,1.3,1.6,2.2,2.3l-1.1,0.1l-0.6,0.8c-0.2,2.7,0,5.4,0.5,8.1l0.6,3.9c2.5-0.3,2.5-0.3,2.1,1.8l-0.6-0.6
	c0.3,1.8,0.3,1.8,2.6,0.8c1.1-0.1,2.7,1.1,3,3.2l0.1,0.7c1.9-0.9,1.9-0.9,4.7-0.6l2.5-0.3c1.3-0.2,3.2-1.1,5,1.5
	c0.2,1.4,1.4,0.5,1.9-1c0.5-1.5,0.9-2.9-1.3-4c0.3-0.4,0.7-0.7,1.2-0.9l-0.6-4.6c1.3,1.2,2.2,2.5,3.8,4.2c1.6,1.9,1.2,3.4-0.1,4.2
	c-1-2-1.2-3.4-2-4.6c0.1,0.7-0.2,1.4,0.3,2l0.4,2.8c0,0.9,0,1.9,0,2.8c1.4,1,3.1,1.4,4.7,1.3c1.9-1,4.1,0.2,5.9,0
	c1.9,0.5,4,0.7,6,0.6c2.4-0.2,4.8-0.8,7-1.6l0.1,0.7c1.9,0.5,3.1-0.4,3.5-2.6l-0.2-1.1c1.7,2.3,3.2,3.6,5,1.9c1.1-1.6,1.5-1.6,3-1.1
	c0.7-0.2,1.5,0,2.1,0.4c-1.2-3.1,1.7-2.3,2.2-3.6c0.2,1.1,0.8,1.1,1.7,2.4c0.4-0.7,0.9-1.4,1.5-2.1c1.7-2.3,2.8-3.9,5.3-4.2
	s5.4,1.4,7.8-1c0.4-0.1,0.7,0.2,0.8,0.6c0,0,0,0,0,0c1.3,1.2,3-1.1,4.4-0.6l0.8,0.6c0.6-0.9,1.4-1.8,2.4-2.4
	c-0.8-0.6-0.9-1.3-1.1-2.7l0.7-0.1c0.9,1.3,1.6,1.9,1.7,2.6l1.1-0.1c-0.4-0.3-0.7-0.8-0.9-1.3c1.2-0.9,1.8-1.6,2.5-1.7l0.2,1.4
	c-1.2,0.9-1.8,1.6-0.9,2.9c0.6-0.8,1.8-1.6,2.3-3.1c-0.1-0.5-0.4-1-0.9-1.3c0.5-1.5,1.7-2.1,2.2-3.6l0.4,2.5
	c0.1,0.7,0.1,0.7,0.8,0.6l-0.2-1.4c2.5,0.4,6.2-1.3,7.1-4.2c-0.5,0-1-0.2-1.4-0.5l-0.1-0.7l3.1-0.4c-0.5-0.5-0.7-1.1-0.7-1.8
	c1.1-0.1,1.8-0.2,2.5,0.4c0.9-2.9,0.9-2.9,3.7-2.6c0.5-0.1,0.9-0.4,1.2-0.9c-0.8-1.1-0.9-1.8-0.4-2.5l-2.3-1.8
	c-0.1-0.7,0.5-1.5,0.9-2.9c-0.9,0.2-1.8,0.5-2.6,1c-0.5,1.5-0.3,2.8,0,4.9l-1.5-1.2c-0.6,0.8-1.2,0.9-2.2,1.7
	c2.4-5.2,0.3-10.3,0.2-15.7c-0.4,0.4-0.8,0.9-1.2,1.3c-1,0.8-1,0.8-1.7,0.9c-0.6,0.8-0.7,0.1-1.4-0.5c0.7-0.1,0.6-0.8,1.2-1.3
	c0.7-0.1,0.7,0.4,2,0.9c-0.8-0.6-0.8-1.1-1-2.4c0.8,0.6,1.4,0.5,2.8,0.3c-0.4-0.4-0.9-0.5-1.4-0.5c0.6-0.8,1.2-0.9,1.8-1.6l-0.1-0.7
	c-1.1,0.7-2.4,1.1-3.7,1.2c-2.8-0.3-4.2-2.3-5.9-4.8c-1.6-1.7-1.6-1.7-3.2,0c0.5,0.3,0.9,0.6,1.3,1c-0.3,0.7-0.3,0.7-1,0.8
	c-0.7,0.1-1.4-0.5-2.2-1.1l0.2,1.4c-1.4-0.5-2.9-1.1-2.9-1.5c-0.9-1.3-0.4-2.8-0.5-3.5c-0.7,0.1-1.4-0.5-2.1-0.4l-1.2,4.4
	c0,0-1.4-0.5-1.9,0.7c0.1,0.7-0.4,1.4-1.1,1.5c-0.7,0.1-1.3,0.2-1.2,0.9c0,0.4,0.4,0.6,0.8,0.6c0.7,1.2,1.8,2,3.1,2.4
	c-0.7,0-1.4,0.4-1.9,0.9c-0.7-1.2-1.5-2.2-2.5-3.2c-0.8-0.6-1.5-1.2-2.5-0.4c-0.4,0-0.7-0.2-0.8-0.6c0,0,0,0,0,0l-1.3,0.2
	c-0.6,0.8-0.5,1.5-0.2,3.5c-0.2-1.4-0.2-1.4-0.9-1.3c0,0-0.6,0.8-0.5,1.3c-0.5-1.2-0.9-2.5-1.2-3.8c-0.5,1.5-0.3,2.8-0.7,4.3
	c-0.5,0-1-0.2-1.4-0.5l-3.5,2.6c-0.6-1.3-0.8-2.7-1.7-4c0.2,1.1-0.4,1.9-0.3,2.6c-0.5-0.8-1.1-1.6-1.7-2.4c-0.5,1.5,1.2,3.4-1.2,4.4
	c-0.1-0.7,0.2-1.4,0.1-2.1c-0.3,0.7-0.2,1.4-0.8,2.2c-0.6-0.5-1-1.2-1-2c-0.4,0.6-0.6,1.4-0.4,2.2c-0.8-0.6-1.4-0.5-2.2-1.1
	c0.4,0,0.6-0.4,0.6-0.7c0,0,0,0,0,0c-2.1-0.4-2.1-0.4-1.7,2.3c0.1,0.7,1,2-0.4,2.2l-0.5-3.4c-1.1,1.5-2.2,1.7-2.8,2.5
	c-0.9-1.3-1.6-1.9-2.5-3.2l0.5,3.4l-1.1,1.5c-0.5,1.3-0.2,3.3-0.7,4.8c-1.3-0.5-2.5-1.3-3.5-2.3l4.2-2.4c-0.2-1.4-0.4-2.8-1.8-3.3
	c-0.5,1.5-1.8,1.6-3,1.1c-2,0.3-2.5,1.7-1.6,3c-2.1-0.4-3-2.4-4.9-0.8c-0.6,0.8-1.7,0.9-3,1.1l-1.5-1.2l0.6,4.6l-0.4,0.1
	c-0.2-1.8-0.7-3.6-1.4-5.2c0.1,0.7-0.6,0.8-1.8,1.6c-1.7-2.6-3.3-1-5.8,0.8l2.5-5.9c-1.9,1-4.2,4.1-4.1,4.7l0.2,1.4
	c-0.5,0-1-0.2-1.4-0.5c-0.9-0.6-1.7-1.5-2.2-2.5c0.2,1.4-0.4,2.2-0.3,2.8c-1.3,0.2-2.6,1-3.9,1.2c-0.6,0.8-1.1,1.5-1.8,1.6
	c-0.4-0.3-0.9-0.5-1.4-0.5c0-0.5,0.2-1,0.5-1.5l1.3-0.2c0.2,0,0.3,0.1,0.5,0.2c-0.6-0.9-0.5-1.6,0.7-1.7c1.3-0.7,2.3-1.8,2.9-3.2
	c-0.3-2.3-0.1-4.6,0.4-6.8c-0.7-0.4-1.4-0.3-2.2-0.9l0.3,1.8c-0.4,0.6-1.2,0.9-1.9,0.9c-0.9-0.6-1.9-1.1-2.9-1.5
	c-0.3,2.6-2,3.5-4.5,4.6l2.3,1.6c1.3-0.2,2.3-1,3.7-1.2l-0.1-0.5c-0.7,0.1-1.3,0.2-1.4-0.5c-0.2-0.7-0.1-1.5,0.4-2.2
	c1,2,2.5,3,4.4,2.2c1,2.4,0.5,3.2-2.2,3.6l-1.3,0.2c-1.5,1.6-3.9,1.9-5.8,0.8l0.2,1.4l-2,0.3c0.3-2.8,0.6-5.5-1.9-7.9
	c-0.3,0.4-0.7,0.7-1.2,0.9c-0.1-0.7-0.6-1.3-0.7-1.8c1-0.8,1.5-1.6,2.9-1.8c-0.8-0.6-1.5-1.2-2.2-1.1l3.7-2.4c2.2,0.9,4,1.3,5.9,0.4
	l-3.4-1.4c1.7-0.9,3-1.1,4.2-2l0.1,0.7c1.2-0.9,1.9-1,2.5-1.7c-1-1-1.8-2-2.5-3.2c1.1,0.4,2.1,1,3,1.7c1.7-0.9,2.9-1.8,5.3,0.7
	c-0.7-1.5-1.2-3.1-1.4-4.7c1-0.5,1.8-1.2,2.4-2.2c2.8,0.3,2.9,1.5,2.6,3.6c0.1,0.7-0.6,0.8-0.5,1.5c-0.7-0.4-1.3-1.1-1.6-1.9
	l-0.7,0.1l0.3,2c0.7-0.1,0.7-0.1,1.4,0.5l0.8,0.6c1,2,1.9,0.5,3.8-0.5c-1.3,0.2-2.1-0.4-3.2-0.3c0.4-1.1,0.4-2.4,0.2-3.5l1.8-0.2
	c-0.6-0.4-0.9-1.1-0.9-1.8c0.7-0.1,1.2-0.9,2.6-1l2.5-0.3l0.3,1.8c0.3-0.7,0.6-1.4,1.1-2l2.5-0.3c0.1,0.7,0.9,1.3,0.9,1.8
	c0.4-0.8,0.5-1.7,0.3-2.6c0.6-0.8,0.6-0.8,1.2-0.9c-0.1,4,3,1.7,3.8,2.8c0.6-0.8,1.3-1.6,2.2-2.2c2.1,0.4,0.5,3.2,2.6,3.6
	c0.1-0.9,0.4-1.8,1.1-2.5c-3.6-1.6-4.8-5-5.3-8.2c0.7-0.2,1.5,0,2.1,0.4l0.8,5.3l2-0.3l0.2,1.4c0.6-0.8,1.2-0.9,1.8-1.6
	c0.8,0.6,1.9,0.5,2.7,1.1c0.5-1.5,0.4-2.2,0.9-2.9c0.8,0.6,1.4,0.5,2.2,1.1c-0.1-1.5,0.2-2.9,0.7-4.3c0.3-0.5,0.7-0.9,1.2-1.3
	l0.2,1.2l1-1.1c0.1,0.5,0.1,0.9,0.8,0.8l0.1,0.7c0.9,1.3,1,2,1.7,2.6c0.7,0,1.4-0.4,1.9-0.9c0.5,3.4,2.5-0.3,3.4,1.7l0.4-0.1
	c-0.1-0.7-0.3-1.4-0.7-2c0.3-0.7,0.9-1.5,0.8-2.2l1.1-1.5c0.6,0.5,0.9,1.2,1,2c0.4,0.3,0.8,0.8,0.9,1.3c-0.4-2.5,0.5-2.9,3-2.5
	l0.5,3.4c-0.8-0.6-0.9-1.3-1.6-1.9c1,1.4,1.9,3,2.7,4.5c0.4-2.2,0.1-4.2,1.7-5.1c1.1-0.1,3.1-0.4,4.6,0.6c-0.5-0.5-1-1.1-1.4-1.7
	l-2,0.3c1-2.2,1-2.2,3-2.5c0.5-0.1,0.9-0.3,1.3-0.6c-0.5,1.3-0.5,1.3-0.4,1.9c0.6-0.8,1.2-0.9,1.5-1.6c0.3,1.4,1,2.8,1.9,4
	c1.1-0.3,2.3-0.2,3.4,0.3l2-0.3l3.2-4.6l6-6.9c1.4,0.5,1.5,1.2,0.3,2c-0.3,0.4-0.7,0.7-1.2,0.9c0,3.3-1.9,4.2-4.1,5.9l-0.6,0.8
	l2.3,1.8c0.1,0.7,0.1,0.7,0.5,0.6l0.6-0.8c-0.1-0.7-0.3-2.1,0.4-2.2c3-1.1,3.9-4.5,7.2-4.9c1.5-0.3,3-0.4,4.5-0.1
	c-1.9,0.9-3,1.1-4.2,2l0.1,0.7l3.1-0.4c1-0.3,1.8-0.9,2.5-1.7C439.9,234.3,438,231.1,435.8,229.9z M427.4,288.8
	c-0.9-1.8-1-2.4,0.7-4.8C429,286,429,286,427.4,288.8z M423.1,271.8c0,0,0.1,0.5,0.7,0.4c-0.1-1.1-0.5-2.2-1.2-3.1
	c1.9,0.5,3.3,1,5.3,0.7c-0.3,0.8-0.4,1.7-0.3,2.6c-0.6,0.8-1.1,1.5-1.9,1c-0.8-0.5-1.7-0.6-2.5-0.4l-4,0.5
	C420.4,272.6,421.7,272.1,423.1,271.8L423.1,271.8z M421.5,284.2l0.7-0.1l0.5,3.4l-0.7,0.1L421.5,284.2z M409.1,276.9
	c1.2-0.9,1.8-1.6,2.5-1.7c0.5,0,1,0.2,1.4,0.5c0.3-0.4,0.5-0.9,0.5-1.5c0.8,0.6,0.8,0.6,0.7,4.8l-2.3-1.8c-0.7,0.1-1.2,0.9-1.9,0.9
	C409.6,277.9,409.3,277.4,409.1,276.9L409.1,276.9z M414.4,290l0.7-0.1c-0.3,3-0.4,6.1,0,9.1C412.8,297.5,413,294.2,414.4,290
	L414.4,290z M400,278.1c-0.8-0.6-0.9-1.3-1.5-2.6C401.8,276.5,401.8,276.5,400,278.1L400,278.1z M400.1,300.5
	c-0.6,0.5-1.7,0.7-1.3-1.2l-0.4-2.8l0.4-0.1C399,297.9,399.9,299.2,400.1,300.5L400.1,300.5z M388.3,276.9c0.6-0.5,1.9-0.7,3-1.6
	c2-0.3,2.7-0.3,3.7,2.1c-1.2,0.9-2.6,1-3.1,1.8c-0.8-0.8-1.5-1.6-2.2-2.5l0.3,2c-0.7,0.1-0.8-0.6-1.4-0.5l-0.8-0.6
	C387.7,277.2,387.9,276.9,388.3,276.9z M395,301.3c0.1,0.9,0.1,1.7-0.1,2.6l-0.7,0.1l-3.2-8.2C393.9,296.7,393,300.1,395,301.3
	L395,301.3z M388.1,298.6l0.7-0.1c1.1,2.7,1.4,5.2,2.6,8.6l-0.7,0.1C389.5,304.4,388.6,301.5,388.1,298.6z M382.5,300.7
	c2.1,0.4,3.6,1.6,3.9,3.5c1.9,0.5,2.8,1.7,1.2,4.8c-0.7-1.8-1.5-3.6-2.6-5.3c-0.7,0.1-1.2,0.9-1.8,1.6L382.5,300.7z M378.6,306.6
	l-0.6-3.9l0.6-0.8c1,1.4,1.9,2.8,2.7,4.3c0.1,0.7-0.4,1.9-0.3,2.6c-0.4-0.5-0.8-1.1-0.9-1.8l-2.2,0.3
	C378.2,307.4,378.1,306.7,378.6,306.6L378.6,306.6z M372.7,302c1.5,1.2,1.2,3.8,3.5,5.6l0.2,1.4C375.1,309.2,372.4,304.6,372.7,302
	L372.7,302z M358.9,287l0.9-1.5c0.7-0.1,1.4,0.5,2.2,1.1c-0.6,0.8-1.2,0.9-1.8,1.6l0.7,0.4C359.3,289.5,358.5,288.9,358.9,287
	L358.9,287z M366.3,311c-1.6-2.6-2.9-5.5-3.9-8.4C364.4,303.1,366.5,308.2,366.3,311L366.3,311z M328.7,278.5l-0.1-0.7
	c0.4-0.1,1-0.8,1.7-0.9l1.3-0.2l0.4,2.8c-0.6,0.8-1.1,1.5-1.8,1.6C329,280.6,328.2,280,328.7,278.5L328.7,278.5z M319.9,268.2
	l3.8-0.5C322.2,270,320.9,270.2,319.9,268.2L319.9,268.2z M330.3,286.5c-0.4,0.1-1,0.8-1.7,0.9l-0.5-3.2c1.4,0.3,1.8,0.2,2.6,0.8
	c0.7-0.1,0.9,1.3,0.9,1.3L330.3,286.5z M337.1,306.7c-0.3-2.1-1-2-2.7-1.1l-0.1-0.7c1.5-2.1-0.6-3.9-0.7-5.1c0-0.5,0.2-1,0.5-1.5
	l0.7-0.1c1.5,2.4,2.7,5.7,4.4,8.1L337.1,306.7z M345.7,306.9c-0.7,0.1-0.7,0.1-0.8-0.6l-0.5-3.2l0.7-0.1
	C346,304.1,345.5,305.6,345.7,306.9z M347.3,298.8c-0.1-0.7-0.2-1.4,0.5-1.5l0.8,0.6l2.6,3.6c-1.8,0.3-3.4-0.8-3.8-2.6
	C347.3,298.9,347.3,298.9,347.3,298.8L347.3,298.8z M353,293.1c-1.3-0.4-2.6-0.5-3.9-0.2c-0.8-0.6-1.4-0.5-1.5-1.2l-0.2-1.4l0.6-0.6
	c2.8,0.8,3.6-1.9,5.6-2.1c0.1,0.7,0.8,0.6,0.9,1.3C352.4,289.2,352.7,291.1,353,293.1z M361.1,311c-0.6-3.1-1.5-6.2-2.7-9.2l2-0.3
	c0.1,1.8,0.6,3.6,1.4,5.2l0.4-0.1c0.1,0.7-0.2,1.4-0.1,2.1l1.1-0.1C362.7,309.6,361.9,310.4,361.1,311L361.1,311z M342.4,284.3
	c0.8,0,1.5-0.3,1.9-1c0.2,1.4,1.2,3.4-0.8,3.6C343.4,286.2,342.6,285.6,342.4,284.3z M343.6,287.6c0.8,0.6,0.9,1.3,1.6,1.9
	c0.3-1.1,0.9-2.1,1.6-3l-0.1-0.7c1.5-0.3,3.1-0.2,4.6,0.1c-0.9-1.3,0.5-1.5,1.1-1.5c0.8,0.6,2.1,0.4,3.6,1.6
	c-1.3,0.2-2.5,1.7-4.1-0.2l-0.7,0.1l-1.5,2.3l0.2,1.4c-0.6-0.5-1.4-0.6-2.1-0.4c-0.7,0.1-2.1-0.4-1.2,1.3c1,2,0.3,2-2.5,1.7
	c-0.1-0.7-0.1-0.7,0.5-1.5c-1.2,0.9-1.7,2.3-2.9,1.8c-2.2-1.1-1.8-3-1.4-5.2c1.6-0.2,2.3,0.4,2.8,2.2
	C343.2,288.8,343.3,288.2,343.6,287.6L343.6,287.6z M335.9,279.7l0.8,0.6c0,1,0.4,1.9,1.1,2.7l-0.1-0.7c-0.2-0.7-0.1-1.5,0.4-2.2
	c0.8,0.6,1.5,1.2,2.2,1.1l0.1,0.7c-0.9,0.1-1.8,0.4-2.6,1c0.1,0.5,1.5,1,2.9,1.5c-2.6,1-3.4-0.3-4.2-0.9
	C335.6,282.5,336.1,281.1,335.9,279.7L335.9,279.7z M338.6,289c0.8,0.6-0.2,3.3-0.9,3.4c-1.3,0.2-2.8-0.4-3.9-0.2
	c-0.4-0.2-0.7-0.6-0.8-1.1c-0.1-0.7,0.5-1.5,0.7-2.9c0.9,1.3,1.1,2.7,1.9,3.7c0.6-0.5,0.5-1.3,1.2-1.3c-0.1-0.7,0.6-0.8,1.2-0.9
	l-0.8-0.6L338.6,289z M327.8,264.6c-0.8,2.2-0.8,2.7-2.9,1.8C325.3,265,326.7,264.8,327.8,264.6c0.6-0.8,1.1-1.5-0.3-2
	c-0.4,0-0.7-0.2-0.8-0.6c0,0,0,0,0,0c0.3-0.4,0.7-0.7,1.2-0.9c0.7-0.1,1.9,0.5,2.5,0.4c-0.5,1.5-0.4,2.2-0.7,2.9
	c1-0.8,1.5-1.6,2.2-1.7C330.4,265.7,330.4,265.7,327.8,264.6L327.8,264.6z M343,255.9c0.1,0.5,0.2,1.1-0.5,1.3
	c-1.2,0.9-2.4,2.4-3.7,2.6c-1.4,0-2.7-0.3-4-0.9l0.6-0.8c0.6-0.8,1.8-1.4,2.2-2.2c0.4,0,0.7,0.2,0.8,0.6c-0.3,0.3-0.5,0.8-0.5,1.3
	c1.4,0.5,2-0.3,2.5-1.5c1,0,1.9-0.4,2.6-1L343,255.9z M355.2,239.8c0.1,0.5,0.4,1,0.9,1.3l-0.6,0.8c-2.2-1.1-4.1-1.6-6.3-2.7
	l2.7-0.3c1-1.2,1.7-2.7,1.9-4.2c0.9,1.3,1,2,1.7,2.6l1.1-0.1c0.1,0.5,0.7,0.4,0.7,0.4L355.2,239.8z M360.6,237.7
	c-0.7,0.1-0.6,0.8-1.1,0.1c-0.8-0.6-2.3-1.6-1.2-3.1c0.6-0.8,1.7-0.9,2.9-1.8C359.3,236.6,359.3,236.6,360.6,237.7L360.6,237.7z
	 M403.1,239.9l-0.7,0.1l1.4-4.4c0.6,0.5,1.4,0.9,2.2,1.1C404.9,237.6,403.9,238.6,403.1,239.9L403.1,239.9z M411.5,233.9
	c0.3,2-0.4,2.2-1.5,1.6c-0.5,0-1-0.2-1.4-0.5c1.1-1.3,2.5-2.5,4-3.3C412.6,232.3,412,233,411.5,233.9L411.5,233.9z"/>
<path class="st2" d="M363.5,270c1.5-2.3,2.1-2.4,4,0.7l-0.6-4.6c-0.6,0.8-0.5,1.5-1,2.2l-4.4-3.4c-0.4,1.9-1.2,4.1-0.9,6.2
	c0.2,1.1-0.4,1.9-1.8,1.4c0.9,1.3,1.6,1.9,1.7,2.6c0.4-0.5,1-0.9,1.7-0.9c-1.5-2.6-1-3.9-0.2-6.1C362.6,268.7,362.7,269.4,363.5,270
	z"/>
<path class="st2" d="M438.9,273.1l-1.3,0.2c-0.8-0.6-0.9-1.3-2.4-2.3c-0.2,1.9,0.9,3.7,2.7,4.3C438.5,274.5,439,273.7,438.9,273.1z"
	/>
<path class="st2" d="M323,298.4l0.7-0.1l1-6.9l-2,0.3c-0.6,0.8-0.5,1.5-0.3,2.6c2-0.3,0.8,0.6,1,2
	C322.9,296.9,322.8,297.7,323,298.4z"/>
<path class="st2" d="M374.5,219.7c0,2.8,0.3,4.9,2.4,7.2l-0.4-2.5l4.3-3.4c0.2,1.4,1,2,1.1,2.7l0.7-0.1c-1.2-3.4,1.3-3.7,3.3-3.9
	c-1.2-0.3-2.4-0.9-3.4-1.7c-0.6,0.8-0.5,1.5-1,2.2c-1.5-1.2-2.8-0.3-3.9,1.2c-0.2-1.4-0.5-3.5-2.4-2.5c-1.1,0.1-2.5,0.3-2.1,2.4
	l1.1-1.6L374.5,219.7z"/>
<path class="st2" d="M396.6,222.4c0.1,0.7,1.3-0.2,2-0.3l-0.1-0.7c-0.7,0.1-1.4-0.5-2.8-0.3c0.6-0.9,0.9-1.9,0.9-2.9l0.7-0.1
	c0.6,0.7,1,1.7,1.1,2.7l3.8-0.5l-0.1-0.7c0.6-0.8,0.5-1.5,1-2.2l0.4,2.8l1.3-0.2c-1.8,1.6-1.7,2.3,0.5,3.2c-0.1-0.7,0.5-1.2,1-2.7
	c0.9,1.3,0.5,3.2,2.2,3c0.7,0,1.5-0.4,1.9-1l0.2,1.4c0.1,0.7,0.2,1.4,0.9,1.3c1.3,0.4,2.8,0.6,4.2,0.6l1.8-0.2
	c0.6-0.8,0.5-1.3,1.1-2l0.5,3.2l2-0.3c0.9-1.5-1.2-3.1-4.4-3.4c0.2-1.4,0.8-2.2,0.8-2.7c-0.5-0.5-1.2-0.6-1.9-0.5
	c-0.2-1.4-1-2-1.1-2.7c-0.7,0.1-0.6,0.8-1.2,0.9l-1.5-1.2c-0.7,0.1-1.9,0.9-2,0.3c-1.4-0.5-3.3-1-3-3.2c-1.3,0.2-2,0.3-2.2-0.9
	c-0.9-1.3-2.4-2.5-3.3-3.8c-1.5,1.4-2.8,3-3.8,4.7c0,0,0.7-0.1,0.7,0.4c0.1,0.7-0.4,1.4-1.1,1.6c-0.6,0.8-1.9,1-1.7,2.3
	c-0.3,0.4-0.9,0.5-1.3,0.2c0,0,0,0-0.1-0.1c-0.4-0.2-0.7-0.6-0.8-1.1c-0.1,0.3-0.3,0.5-0.6,0.6c0.1,0.7-0.4,2.1-0.3,2.8l-0.7,0.1
	c-0.3-1-0.8-1.9-1.5-2.6c-0.5,1.5,1,4.1-1.3,5.1l0.1,0.7l6.2-2.9C395.9,221.8,396,222.5,396.6,222.4z"/>
<path class="st2" d="M406.8,210.8c-0.5,1-1.2,1.8-2.1,2.4C406.6,212.9,407.5,211.4,406.8,210.8z"/>
<path class="st2" d="M326.5,299.4c-0.1-1.2-0.5-2.3-1.2-3.4c0.3,1.6,0.4,3.3,0,4.9c0.5,1.7,0,3.6-1.3,4.9c-0.7,0.1-0.6,0.5-0.5,1.2
	c0.1,0.7,0.8,0.6,1.5,1.2c-0.1-0.7,0.5-1.5,0.4-2.2l0.7-0.1l0.3,2.1l1.7-2.3c0.2,1.4,0.3,2-0.3,2.8c1-0.8,1.7-0.9,2.3-1.7
	c0.2-2.4,0.1-4.8-0.4-7.2C328.4,299.8,327.3,300,326.5,299.4z"/>
<path class="st2" d="M310.2,270.2c1.3-0.2,2-0.3,2.8,0.3c-0.1-0.7,0.6-0.8,0.5-1.5l-3.3,0.4L310.2,270.2z"/>
<path class="st2" d="M329.2,296.2l-0.1-0.7l-0.7,0.1c-0.5,0.9-0.4,2.1,0.4,2.8C329.3,297.7,329.4,297,329.2,296.2z"/>
<path class="st2" d="M428.9,252.1c1.2,0,2.4,0.6,3.2,1.5l-0.3-1.8L428.9,252.1z"/>
<polygon class="st3" points="364.8,63.8 365.5,63.2 364.3,63.1 249.2,49.4 248.9,49.4 249,49.5 291.6,125.4 "/>
</svg>
