<?xml version="1.0" encoding="utf-8"?>
<!-- Generator: Adobe Illustrator 26.0.1, SVG Export Plug-In . SVG Version: 6.00 Build 0)  -->
<svg version="1.1" id="Layer_1" xmlns="http://www.w3.org/2000/svg" xmlns:xlink="http://www.w3.org/1999/xlink" x="0px" y="0px"
	 viewBox="0 0 135 230" style="enable-background:new 0 0 135 230;" xml:space="preserve">
<style type="text/css">
	.st0{fill:#E6E6E6;}
	.st1{fill:#EC008C;}
</style>
<path class="st0" d="M111,4.3H24c-10.8,0-19.5,8.8-19.6,19.6v181.9c0,10.8,8.8,19.5,19.6,19.6h87c10.8,0,19.5-8.8,19.6-19.6V23.9
	C130.5,13.1,121.8,4.3,111,4.3z M67.5,221.9c-4.9,0-8.8-3.9-8.8-8.8c0-4.9,3.9-8.8,8.8-8.8s8.8,3.9,8.8,8.8S72.4,221.9,67.5,221.9
	L67.5,221.9z"/>
<path class="st1" d="M114.9,1.1H20.1C9.3,1.1,0.6,9.9,0.5,20.7v188.6c0,10.8,8.8,19.5,19.6,19.6h94.8c10.8,0,19.5-8.8,19.6-19.6
	V20.7C134.4,9.9,125.7,1.1,114.9,1.1z M130.6,205.8c0,10.8-8.8,19.5-19.6,19.6H24c-10.8,0-19.5-8.8-19.6-19.6V23.9
	C4.5,13.1,13.2,4.3,24,4.3h87c10.8,0,19.5,8.8,19.6,19.6V205.8z"/>
<circle class="st1" cx="67.5" cy="213.1" r="8.8"/>
<path class="st1" d="M21.4,19.4c0.6-0.2,1.2-0.3,1.8-0.3c0.6,0,1.1,0.2,1.6,0.4c1.4,0.7,2.5,1.9,3,3.4c0.3,0.7,0.5,1.5,0.4,2.2
	c0,0.1,0,0.3,0,0.4c0,0.2,0,0.3,0,0.5c0,0.7-0.1,1.3-0.3,2c-0.3,0.7-0.8,1.3-1.2,1.9c-0.6,0.8-1.2,1.6-1.9,2.4
	c-0.2,0.2-0.5,0.4-0.8,0.5c-0.5,0.2-1.1,0.4-1.6,0.5l-1.1,0.3v1.3c0,0.7,0.1,1.4,0.5,2.1c0.4,0.8,0.6,1.7,0.5,2.7
	c0,0.6,0,1.1-0.1,1.7c-0.1,0.3-0.3,0.6-0.6,0.8c-0.4,0.4-0.9,0.6-1.4,0.6c-0.4,0-0.8-0.1-1.2-0.4c-1.1-0.8-1.8-5.3-2-13.3l-0.2-4.9
	l0.7-1.4C18.3,21.1,19.7,19.9,21.4,19.4z M24.2,25.3c-0.1-0.5-0.2-1-0.5-1.5c-0.3-0.5-0.6-0.7-1-0.7c-0.4,0-0.7,0.2-1,0.5
	c-0.3,0.3-0.6,0.7-0.7,1.2c-0.1,0.4-0.1,0.8-0.1,1.2c0,0.7,0,1.4,0.1,2.2c0.1,0.7,0.2,1.1,0.3,1.1c0.5,0,1.2-0.6,2.1-1.8
	c0.5-0.5,0.8-1.1,0.9-1.8C24.3,25.6,24.3,25.5,24.2,25.3z"/>
<path class="st1" d="M37.7,22.1c0.6-0.3,1.2-0.4,1.9-0.4c1.3,0,2.5,0.3,3.7,0.9c1.1,0.6,2.1,1.2,3.1,2c0.9,0.7,1.7,1.5,2.3,2.4
	c0.7,1.1,1.1,2.4,1,3.7c0,1.3-0.3,2.7-1.1,3.8c-0.8,0.9-1.6,1.7-2.6,2.4c-1.1,0.9-2.3,1.6-3.6,2.3c-0.8,0.5-1.7,0.8-2.6,0.9
	l-0.9-0.1c-2.3-0.2-4.3-1.4-5.6-3.2c-0.9-1-1.4-2.2-1.5-3.5c0-1,0.2-2,0.4-2.9c0.2-1.2,0.7-2.4,1.2-3.5c0.6-0.9,1.2-1.8,2-2.6
	C36.1,23.3,36.9,22.7,37.7,22.1z M41.9,26.4c-0.5-0.3-1.1-0.4-1.7-0.4c-0.7,0-1.3,0.2-1.8,0.7c-1.8,2-2.7,3.8-2.7,5.3
	c0,1.1,0.4,2.1,1.2,2.8c0.3,0.3,0.6,0.6,1,0.8c0.3,0.1,0.7,0.2,1.1,0.2c1.3,0,2.9-0.8,5-2.4c0.5-0.4,1-0.8,1.3-1.3
	c0.2-0.4,0.4-0.8,0.4-1.3c0-0.3,0-0.5-0.1-0.8c-0.3-0.7-0.7-1.3-1.3-1.8C43.7,27.5,42.8,26.9,41.9,26.4z"/>
<path class="st1" d="M55.5,23.9c0.3-0.1,0.7-0.2,1-0.2c0.7-0.1,1.4,0.3,1.7,1c0.1,0.3,0.2,0.6,0.2,0.9c0,0.7-0.1,1.4-0.3,2.1
	c-0.3,1.9-0.6,3.8-0.6,5.7c-0.1,1.6-0.2,2.6-0.3,3c-0.1,0.4-0.2,0.8-0.5,1.1c-0.4,0.4-1,0.7-1.5,0.6c-0.5,0-1-0.2-1.3-0.5
	c-0.2-0.2-0.4-0.5-0.4-0.8c-0.1-0.6-0.1-1.2-0.1-1.8c0-1.7,0.2-3.4,0.4-5.1c0.1-1.4,0.3-2.8,0.7-4.1C54.8,24.6,55.2,24,55.5,23.9z
	 M54.5,16.1c0.3-0.5,0.9-0.7,1.5-0.7c0.5,0,1,0.2,1.4,0.6c0.4,0.4,0.6,0.9,0.6,1.4c0,0.5-0.2,1-0.5,1.4c-0.3,0.4-0.8,0.6-1.3,0.5
	c-0.6,0-1.1-0.2-1.5-0.6c-0.4-0.3-0.6-0.8-0.6-1.3C54.1,16.9,54.3,16.4,54.5,16.1L54.5,16.1z"/>
<path class="st1" d="M76.2,20.1c0.4-0.4,0.9-0.6,1.4-0.6c0.9,0,1.7,0.6,1.9,1.4c0.1,0.3,0.2,0.6,0.2,0.9c0,0.5-0.4,2.5-1.2,6.1
	c-0.3,1.7-0.8,3.3-1.6,4.8c-0.6,0.8-1.5,1.3-2.5,1.2c-1.1-0.1-2.1-0.4-3.1-0.8c-1.2-0.4-2.3-1-3.3-1.8c-0.5-0.5-1.2-0.9-1.9-1.2
	c-0.2,0-0.3,0.7-0.3,2.1c0,0.6,0,1.3-0.1,1.9c-0.1,0.3-0.2,0.6-0.5,0.9c-0.7,0.7-1.8,0.8-2.5,0.2c-0.1-0.1-0.2-0.2-0.3-0.3
	c-0.4-0.7-0.6-1.4-0.5-2.2c0-0.7,0-1.3,0-1.9c0-1.3,0.1-2.5,0.4-3.7c0.3-0.7,0.8-1.2,1.5-1.4c0.4-0.2,0.8-0.3,1.2-0.3
	c1,0,2.7,0.8,5,2.4c1.7,1.3,3,1.9,3.7,1.9c0.2,0,0.5-1.2,1.1-3.6c0.4-1.5,0.7-3.1,0.9-4.6C75.7,20.9,75.9,20.5,76.2,20.1z"/>
<path class="st1" d="M85.2,18c0.8,0,1.6-0.1,2.4-0.2c1.2-0.1,2.4-0.3,3.7-0.5s2.1-0.3,2.4-0.3c0.9-0.1,2-0.2,3.3-0.3h0.4
	c0.7-0.1,1.4,0.2,1.9,0.6c0.4,0.4,0.7,0.9,0.7,1.4c0,0.9-0.7,1.7-1.6,1.9c-0.1,0-0.6,0.1-1.6,0.1S95,20.9,94.1,21
	c-0.5,0-1,0.1-1.4,0.3c-0.2,0.2-0.2,0.5,0,0.9c0.2,1.6,0.3,3.3,0.3,4.9c0,2.5,0.2,5,0.6,7.5c0,0.2,0.1,0.4,0.1,0.6
	c0,0.4-0.2,0.7-0.5,1c-0.4,0.4-0.9,0.6-1.5,0.7c-0.6,0-1.2-0.3-1.6-0.7c-0.3-0.3-0.5-0.6-0.6-1c-0.2-0.6-0.3-1.3-0.3-1.9
	c-0.1-1.1-0.2-2.7-0.2-4.7v-1.4c0-1.3,0-2.6-0.2-3.9l-0.3-1.4h-1.9c-0.6,0-1.1,0-1.7-0.1c-0.3-0.1-0.6-0.3-0.8-0.5
	c-0.4-0.3-0.6-0.7-0.6-1.2c0-0.5,0.2-1,0.6-1.4C84.3,18.3,84.7,18,85.2,18z"/>
<path class="st1" d="M107.8,17.7c0.5-0.4,1.1-0.6,1.8-0.7c0.2,0,0.4,0,0.6,0c1.3,0.2,2.6,0.9,3.6,1.8c0.4,0.3,0.6,0.8,0.6,1.2
	c0,0.5-0.2,1.1-0.6,1.4c-0.3,0.4-0.8,0.6-1.3,0.6c-0.4,0-0.8-0.1-1.2-0.4c-0.3-0.2-0.7-0.4-1.1-0.4c-0.4,0-0.8,0.3-0.9,0.7
	c-0.1,0.3-0.2,0.7-0.2,1c0.2,0.8,0.6,1.5,1.1,2.1c0.9,1.1,1.6,2.2,2.2,3.5c0.4,1.1,0.7,2.2,0.7,3.4c0,0.1,0,0.3,0,0.4
	c0,0.1,0,0.3,0,0.4c0,0.8-0.1,1.6-0.4,2.4c-0.4,0.7-0.9,1.4-1.5,1.9c-0.9,0.7-1.9,1.1-3,1.2c-0.6,0.1-1.1,0.2-1.7,0.2
	c-0.4,0-0.8-0.1-1.1-0.3c-0.9-0.3-1.5-1.1-1.6-2.1c0-0.5,0.2-0.9,0.5-1.3c0.1-0.2,0.3-0.4,0.6-0.5c0.3-0.1,0.6-0.1,0.9-0.1h0.3
	c0.1,0,0.3,0,0.4,0h0.6c0.4,0,0.7,0,1.1-0.1c0.2-0.1,0.4-0.3,0.6-0.5c0.3-0.4,0.4-0.8,0.4-1.3c0-1.4-0.9-3.3-2.8-5.6
	c-0.9-1-1.5-2.3-1.6-3.6c0-0.5,0.1-1,0.2-1.5C105.3,20,106.4,18.6,107.8,17.7z"/>
</svg>
