<svg id="Layer_1" data-name="Layer 1" xmlns="http://www.w3.org/2000/svg" width="100" height="100" viewBox="0 0 100 100"><defs><style>.cls-1{fill:#ec008c;}</style></defs><path class="cls-1" d="M50,.6A49.4,49.4,0,1,0,99.4,50,49.39,49.39,0,0,0,50,.6ZM78.22,71A5.1,5.1,0,1,1,71,78.22l-21-21-21,21A5.1,5.1,0,1,1,21.78,71l21-21-21-21a5.1,5.1,0,0,1,0-7.21h0a5.1,5.1,0,0,1,7.21,0l21,21,21-21a5.1,5.1,0,0,1,7.21,0h0a5.1,5.1,0,0,1,0,7.21l-21,21Z"/><path d="M78.22,21.78h0a5.1,5.1,0,0,0-7.21,0l-21,21-21-21a5.1,5.1,0,0,0-7.21,0h0a5.1,5.1,0,0,0,0,7.21l21,21-21,21A5.1,5.1,0,1,0,29,78.22l21-21,21,21A5.1,5.1,0,1,0,78.22,71l-21-21,21-21A5.1,5.1,0,0,0,78.22,21.78Z"/></svg>