<svg id="Layer_1" data-name="Layer 1" xmlns="http://www.w3.org/2000/svg" width="180" height="180" viewBox="0 0 180 180"><defs><style>.cls-1{fill:#ec008c;}</style></defs><path class="cls-1" d="M178.14,91.84A10.72,10.72,0,0,0,161.85,83l-36.73,22.41a10.71,10.71,0,0,0,.44,18.55l5.82,3.17a56.36,56.36,0,1,1-1.95-76.27,15.65,15.65,0,0,0,11.23,4.77h12.86a9.86,9.86,0,0,0,8.06-15.51A88,88,0,0,0,85.15,2C38.77,3.9,1.47,42.33.83,88.74a88.11,88.11,0,0,0,158.86,53.79l3.65,2a10.71,10.71,0,0,0,15.84-9.66Z"/></svg>