<?xml version="1.0" encoding="utf-8"?>
<!-- Generator: Adobe Illustrator 25.4.1, SVG Export Plug-In . SVG Version: 6.00 Build 0)  -->
<svg version="1.1" id="Layer_1" xmlns="http://www.w3.org/2000/svg" xmlns:xlink="http://www.w3.org/1999/xlink" x="0px" y="0px"
	 viewBox="0 0 300 150" style="enable-background:new 0 0 300 150;" xml:space="preserve">
<style type="text/css">
	.st0{opacity:0.85;}
	.st1{fill:#FFFFFF;}
	.st2{fill:#EC008C;}
</style>
<g class="st0">
	<path class="st1" d="M21.3,3h257.3c10.1,0,18.3,8.2,18.3,18.3v107.3c0,10.1-8.2,18.3-18.3,18.3H21.3C11.2,147,3,138.8,3,128.7V21.3
		C3,11.2,11.2,3,21.3,3z"/>
	<path class="st2" d="M278.7,6c8.5,0,15.3,6.9,15.3,15.3v107.3c0,8.5-6.9,15.3-15.3,15.3H21.3C12.9,144,6,137.1,6,128.7V21.3
		C6,12.9,12.9,6,21.3,6H278.7 M278.7,0H21.3C9.6,0,0,9.5,0,21.3c0,0,0,0,0,0v107.3C0,140.4,9.5,150,21.3,150c0,0,0,0,0,0h257.3
		c11.8,0,21.3-9.5,21.3-21.3c0,0,0,0,0,0V21.3C300,9.6,290.5,0,278.7,0C278.7,0,278.7,0,278.7,0z"/>
</g>
<path class="st2" d="M25.2,21.3c0.5-0.4,1.2-0.5,1.8-0.5c0.7,0,1.3,0.1,1.9,0.4c0.5,0.2,0.9,0.6,1.1,1.1c0.1,0.2,0.2,0.5,0.2,0.8
	c-0.1,0.4-0.3,0.7-0.6,1c-0.4,0.4-1,0.6-1.6,0.6c-0.3,0-0.6,0-0.9,0.1c-0.1,0.1-0.2,0.3-0.2,0.4v0.4c0,1.1,0.2,2.1,0.6,3.1
	c0.3,1.1,0.5,2.3,0.5,3.4c0,0.9-0.1,1.9-0.5,2.7c-0.7,1.5-2.2,2.4-3.8,2.3c-0.3,0-0.5,0-0.8,0c-1.7-0.2-2.7-0.7-3-1.4
	c-0.1-0.3-0.2-0.5-0.2-0.8c0.2-0.7,0.6-1.3,1.3-1.6c0.5-0.1,1-0.1,1.5-0.1h1.7l0.1-1V32c0-0.9-0.2-1.7-0.4-2.5
	c-0.4-1.2-0.5-2.5-0.5-3.8v-0.5c0-0.5,0-1,0.1-1.4c0.1-0.4,0.3-0.7,0.5-1C24.3,22.2,24.7,21.7,25.2,21.3z"/>
<path class="st2" d="M38.4,15.4c0.9-0.2,1.8-0.3,2.8-0.3c0.6-0.1,1.1,0.1,1.6,0.3c0.4,0.3,0.7,0.8,0.7,1.3c0,0.7-0.3,1.3-0.9,1.6
	c-0.5,0.2-1,0.3-1.6,0.3L38.6,19l-1.2,0.2l0.1,1.9V23h1.5c0.7,0,1.3-0.1,1.9-0.4c0.3-0.2,0.6-0.3,1-0.3c0.5,0,0.9,0.2,1.3,0.5
	c0.4,0.3,0.6,0.7,0.6,1.1c0,0.5-0.2,1-0.6,1.3c-0.3,0.4-0.8,0.8-1.3,0.9c-0.7,0.2-1.5,0.3-2.3,0.4c-0.8,0.1-1.5,0.2-2.3,0.3
	c-0.1,0-0.2,0.2-0.2,0.6c0,1,0.2,1.9,0.5,2.8c0.1,0.3,0.2,0.6,0.4,0.8c0.2,0.1,0.4,0.2,0.6,0.2c0.8,0,1.6-0.2,2.4-0.5
	c0.7-0.2,1.4-0.5,2-1c0.4-0.4,0.9-0.6,1.4-0.6c0.5,0,1,0.2,1.3,0.6c0.3,0.3,0.5,0.7,0.5,1.1c0,0.4-0.2,0.8-0.3,1.2
	c-0.2,0.5-0.7,1-1.2,1.2c-1.1,0.4-2.1,0.8-3.3,1.1c-1,0.3-2.1,0.5-3.2,0.5c-1.3,0-2.4-0.6-3.1-1.7c-0.5-0.7-0.8-1.5-1-2.3
	c-0.3-0.9-0.5-1.8-0.5-2.7v-0.7c0-1.5,0.1-3.6,0.2-6.2c0.1-2.6,0.2-4,0.3-4.3c0.4-0.8,1.2-1.2,2-1.1C36.9,15.7,37.6,15.6,38.4,15.4z
	"/>
<path class="st2" d="M58.5,21.8l4.3-0.3h0.1c0.5,0,1,0.3,1.3,0.7c0.3,0.3,0.6,0.7,0.6,1.1c0,0.3-0.1,0.6-0.2,0.8
	c-0.2,0.5-0.5,0.8-1,0.9c-1,0.2-1.9,0.3-2.9,0.3l-2.6,0.1L58,28.3c0,0.4,0,1,0,1.7c0,1.7,0.1,3.3,0.4,4.9c0,0.2,0.1,0.3,0.1,0.5
	c0,0.3-0.2,0.6-0.6,1C57.5,36.8,57,37,56.6,37c-0.5,0-1-0.3-1.4-0.7c-0.3-0.3-0.5-0.6-0.7-0.9c-0.1-0.6-0.2-1.2-0.3-1.8
	c-0.1-1.1-0.1-2.2-0.1-3.4c0-0.7,0-1.1,0-1.4l0.1-2.8l-0.9-0.1c-1,0-2-0.2-3-0.5c-0.5-0.3-0.8-0.8-0.8-1.4c0-0.6,0.2-1.2,0.7-1.6
	c0.6-0.4,1.4-0.6,2.2-0.5c0.3,0,0.5,0,0.8,0c0.2,0,0.7,0,1.4,0C56.1,21.9,57.4,21.8,58.5,21.8z"/>
<path class="st2" d="M77.2,21.8l4.3-0.3h0.1c0.5,0,1,0.3,1.3,0.7c0.3,0.3,0.6,0.7,0.6,1.1c0,0.3-0.1,0.6-0.2,0.8
	c-0.2,0.5-0.5,0.8-1,0.9c-1,0.2-1.9,0.3-2.9,0.3l-2.6,0.1l-0.1,2.9c0,0.4,0,1,0,1.7c0,1.7,0.1,3.3,0.4,4.9c0,0.2,0.1,0.3,0.1,0.5
	c0,0.3-0.2,0.6-0.6,1c-0.3,0.3-0.8,0.5-1.2,0.5c-0.5,0-1-0.3-1.4-0.7c-0.3-0.3-0.5-0.6-0.7-0.9c-0.1-0.6-0.2-1.2-0.3-1.8
	c-0.1-1.1-0.1-2.2-0.1-3.4c0-0.7,0-1.1,0-1.4l0.1-2.8L72,25.9c-1,0-2-0.2-3-0.5c-0.5-0.3-0.8-0.8-0.7-1.4c0-0.6,0.2-1.2,0.7-1.6
	c0.6-0.4,1.4-0.6,2.1-0.5c0.3,0,0.5,0,0.8,0c0.2,0,0.7,0,1.4,0C74.7,21.9,76,21.8,77.2,21.8z"/>
<path class="st2" d="M87.4,13.8c0.3-0.4,0.7-0.6,1.2-0.6c0.5,0,1,0.3,1.3,0.7c0.3,0.3,0.5,0.6,0.5,1c0,0.2,0,0.4-0.1,0.6
	c-0.2,1.4-0.8,2.2-1.7,2.2c-0.2,0-0.3,0-0.5-0.1c-0.9-0.2-1.3-0.9-1.3-2.2C86.8,14.9,87,14.3,87.4,13.8z M88.3,22
	c0.3-0.3,0.7-0.5,1.2-0.5c0.8,0.1,1.4,0.7,1.6,1.4c0.1,0.7,0.1,1.4,0.1,2.1c0,1.6,0.1,3.2,0.3,4.7c0.1,0.7,0.2,1.4,0.2,2.1
	c0,0.3,0,0.6-0.1,0.8c-0.3,0.6-0.9,1-1.6,1c-0.4,0-0.8-0.2-1.1-0.4c-0.4-0.3-0.6-0.7-0.7-1.2c-0.2-1.2-0.4-2.3-0.5-3.5
	c-0.2-1.8-0.3-3.1-0.3-4.1c0-0.1,0-0.2,0-0.3s0-0.2,0-0.3c0-0.4,0.1-0.8,0.2-1.1C87.9,22.4,88.1,22.2,88.3,22L88.3,22z"/>
<path class="st2" d="M109.4,19.9c0.6-0.3,1.4-0.3,2-0.1c0.5,0.2,0.8,0.8,0.8,1.4c0,0.7-0.2,1.5-0.4,2.2c-0.1,0.4-0.5,1.9-1.1,4.4
	c-0.3,1.3-0.7,2.5-1.2,3.7c-0.3,0.8-0.8,1.5-1.4,2.1c-0.5,0.4-1.1,0.5-1.7,0.5c-1.5,0-3-0.5-4.2-1.5c-0.7-0.6-1.3-1.2-1.9-2
	c-0.3-0.5-0.7-1-1.2-1.4c-0.2,0.8-0.3,1.5-0.4,2.3c-0.1,0.7-0.2,1.3-0.3,2c-0.1,0.3-0.2,0.6-0.4,0.9c-0.3,0.4-0.8,0.6-1.3,0.6
	c-0.5,0-0.9-0.2-1.2-0.5c-0.4-0.3-0.6-0.8-0.5-1.3c0-0.1,0-0.2,0-0.4s0-0.4,0-0.5c0-1.4,0.2-2.8,0.4-4.2c0.1-1,0.4-2,0.8-2.9
	c0.8-1.5,1.7-2.2,2.7-2.2c0.4,0,0.9,0.1,1.2,0.4c0.5,0.5,0.9,1.1,1.2,1.8c1.9,3.3,3.5,5,4.7,5c0.3,0,1-2.1,2-6.4
	c0.4-1.4,0.6-2.4,0.8-2.8C108.7,20.6,109,20.2,109.4,19.9z"/>
<path class="st2" d="M123.7,15.5c0.5-0.1,1-0.1,1.6-0.1c1.7,0,2.6,0.6,2.7,1.8v0.2c0,0.4-0.1,0.8-0.4,1.1c-0.2,0.2-0.4,0.4-0.6,0.5
	c-0.5,0.1-1,0.1-1.5,0.1c-0.5,0-1.1,0-1.6,0.1c-0.4,0.1-0.8,0.3-1.2,0.5c-1.1,0.7-2,1.7-2.6,2.9c-0.6,1.2-1,2.6-1,3.9
	c0,0.7,0.1,1.5,0.4,2.2c0.3,0.7,0.8,1.2,1.4,1.7c0.4,0.4,1,0.7,1.6,0.8h0.1h0.1c0.7-0.2,1.3-0.5,1.9-0.8c0.6-0.3,1.1-0.8,1.5-1.3
	c0.3-0.4,0.6-0.8,0.7-1.2c0-0.3-0.6-0.5-1.8-0.5c-0.5,0-1,0-1.4-0.1c-0.3-0.1-0.5-0.3-0.7-0.5c-0.3-0.3-0.4-0.7-0.4-1.1
	c0-0.4,0.2-0.8,0.5-1.1c0.4-0.3,0.9-0.5,1.4-0.6c0.6-0.2,1.2-0.3,1.8-0.3c0.9,0,1.9,0.3,2.6,0.9c0.8,0.5,1.3,1.3,1.5,2.2
	c0.1,0.3,0.1,0.7,0.1,1c-0.1,1.2-0.6,2.4-1.4,3.3c-0.8,1.1-1.9,2-3.1,2.7c-1.1,0.6-2.4,1-3.7,1c-0.8,0-1.6-0.2-2.2-0.7
	c-3-2-4.5-4.6-4.5-7.7c0.1-1,0.3-2,0.6-3c0.3-1,0.6-2,1.1-3c0.5-0.8,1.2-1.6,1.9-2.3c0.7-0.7,1.5-1.3,2.3-1.8
	C122.2,15.9,122.9,15.6,123.7,15.5z"/>
<path class="st2" d="M139.1,21.3c0.5-0.4,1.2-0.5,1.8-0.5c0.7,0,1.3,0.1,1.9,0.4c0.5,0.2,0.9,0.6,1.1,1.1c0.1,0.2,0.2,0.5,0.2,0.8
	c-0.1,0.4-0.3,0.7-0.6,1c-0.4,0.4-1,0.6-1.6,0.6c-0.3,0-0.6,0-0.9,0.1c-0.1,0.1-0.2,0.2-0.2,0.4v0.4c0,1.1,0.2,2.1,0.6,3.1
	c0.3,1.1,0.5,2.3,0.5,3.4c0,0.9-0.1,1.9-0.5,2.7c-0.7,1.5-2.2,2.4-3.8,2.3c-0.3,0-0.5,0-0.8,0c-1.7-0.2-2.7-0.7-3-1.4
	c-0.1-0.3-0.2-0.5-0.2-0.8c0.2-0.7,0.6-1.3,1.3-1.6c0.5-0.1,1-0.1,1.5-0.1h1.7l0.1-1V32c0-0.9-0.2-1.7-0.4-2.5
	c-0.4-1.2-0.5-2.5-0.5-3.8v-0.5c0-0.5,0-1,0.1-1.4c0.1-0.4,0.3-0.7,0.5-1C138.2,22.2,138.6,21.7,139.1,21.3z"/>
<path d="M61.9,52.5c0.2-0.1,0.5-0.1,0.7-0.1c0.7,0,1.4,0.4,1.8,1c0.4,0.6,0.8,2,1.1,4.5c0.1,0.9,0.2,1.7,0.2,2.6
	c0,0.4-0.1,0.9-0.4,1.2c-0.2,0.2-0.5,0.4-0.9,0.4c-0.3,0-0.6-0.1-0.8-0.4c-0.2-0.2-0.3-0.4-0.3-0.6c-0.1-0.3-0.1-0.9-0.2-1.8
	c-0.1-1.3-0.3-2.6-0.7-3.9c-0.1-0.1-0.1-0.2-0.2-0.2s-0.1,0-0.2,0.2c-0.4,0.6-0.8,1.3-1.1,2c-0.2,0.5-0.5,1-0.8,1.5
	c-0.2,0.2-0.4,0.4-0.7,0.6c-0.3,0.3-0.8,0.4-1.2,0.1c-0.5-0.2-0.9-0.5-1.2-0.9c-0.2-0.2-0.5-0.5-0.8-0.6c-0.1,0-0.1,0.2-0.1,0.5
	c0,0.7,0.1,1.4,0.3,2.1c0.1,0.3,0.1,0.6,0.2,0.9c0,0.2-0.1,0.4-0.2,0.5c-0.2,0.4-0.6,0.6-1,0.6c-0.2,0-0.4-0.1-0.6-0.2
	c-0.4-0.3-0.7-0.7-0.8-1.2c-0.2-0.8-0.2-1.6-0.2-2.3c0-0.6,0-1.2,0.1-1.9c0.1-0.4,0.2-0.8,0.4-1.1c0.5-1,1-1.5,1.5-1.5
	c0.7,0.1,1.3,0.5,1.7,1.1c0.3,0.3,0.6,0.6,1,0.9c0.1,0,0.3-0.4,0.7-1.1c0.3-0.7,0.8-1.3,1.3-1.9C60.8,53.2,61.3,52.8,61.9,52.5z"/>
<path d="M76,55.1c0.2-0.2,0.5-0.3,0.8-0.3c0.3,0,0.7,0.1,0.9,0.4c0.2,0.1,0.3,0.3,0.3,0.5c0.1,0.4,0.1,0.8,0.1,1.2
	c0.1,1.8-0.3,3.6-1.1,5.2c-0.3,0.6-0.6,1.1-1.1,1.6c-0.3,0.4-0.7,0.7-1.2,0.9c-0.4,0.2-0.8,0.3-1.2,0.4H73c-0.8-0.1-1.5-0.3-2.2-0.7
	c-0.6-0.4-1.1-0.9-1.5-1.6c-0.3-0.6-0.5-1.2-0.7-1.8c-0.2-0.6-0.4-1.2-0.5-1.8c0-0.6-0.1-1.1-0.3-1.7c0-0.2-0.1-0.5-0.1-0.7
	c0-0.2,0.1-0.4,0.2-0.6c0.2-0.4,0.6-0.6,1-0.7c0.1,0,0.2,0,0.3,0c0.6,0.1,1,0.8,1.1,1.9c0.1,1,0.3,2.1,0.6,3.1
	c0.1,0.6,0.5,1.2,1,1.7c0.3,0.2,0.7,0.4,1.1,0.4c0.5,0,1-0.4,1.5-1.2c0.7-1.3,1-2.8,1-4.3c0-0.5,0-0.9,0.1-1.4
	C75.8,55.4,75.9,55.2,76,55.1z"/>
<path d="M83.9,53.8c0.4-0.2,0.8-0.4,1.2-0.3c0.4,0,0.9,0.1,1.3,0.3c0.3,0.1,0.6,0.4,0.8,0.7c0.1,0.2,0.1,0.3,0.1,0.5
	c0,0.3-0.2,0.5-0.4,0.7c-0.3,0.3-0.7,0.4-1.1,0.4c-0.2,0-0.4,0-0.6,0.1c-0.1,0.1-0.1,0.2-0.2,0.3v0.3c0,0.7,0.2,1.4,0.4,2.1
	c0.2,0.7,0.3,1.5,0.3,2.3c0,0.6-0.1,1.2-0.3,1.8c-0.4,1-1.4,1.6-2.5,1.6h-0.5c-1.1-0.1-1.8-0.4-2-0.9c-0.1-0.2-0.1-0.3-0.2-0.5
	c0-0.3,0.2-0.5,0.4-0.7c0.1-0.2,0.3-0.3,0.5-0.4c0.3-0.1,0.7-0.1,1-0.1h1.1v-0.6v-0.1c0-0.6-0.1-1.2-0.3-1.7
	c-0.2-0.8-0.4-1.7-0.4-2.6v-0.4c0-0.3,0-0.7,0.1-1C82.9,54.8,83.3,54.2,83.9,53.8L83.9,53.8z"/>
<path d="M89.9,48.9c0.2-0.2,0.5-0.4,0.8-0.4c0.4,0,0.7,0.2,0.9,0.5c0.2,0.2,0.3,0.4,0.3,0.7c0,0.1,0,0.3-0.1,0.4
	c-0.2,1-0.5,1.4-1.1,1.4h-0.3c-0.6-0.1-0.9-0.6-0.9-1.5C89.5,49.6,89.7,49.2,89.9,48.9z M90.5,54.3c0.2-0.2,0.5-0.3,0.8-0.3
	c0.3,0,0.6,0.2,0.8,0.4c0.2,0.1,0.3,0.3,0.3,0.5c0.1,0.5,0.1,0.9,0.1,1.4c0,1.1,0.1,2.1,0.2,3.2c0.1,0.5,0.1,0.9,0.1,1.4
	c0,0.2,0,0.4-0.1,0.5c-0.2,0.4-0.6,0.7-1,0.7c-0.3,0-0.5-0.1-0.7-0.3c-0.2-0.2-0.4-0.5-0.4-0.8c-0.1-0.8-0.2-1.5-0.3-2.3
	C90.1,57.5,90,56.6,90,56c0-0.1,0-0.1,0-0.2c0-0.1,0-0.1,0-0.2c0-0.3,0.1-0.5,0.1-0.8C90.2,54.6,90.4,54.5,90.5,54.3z"/>
<path d="M99.6,50.9c0.2,0,0.3-0.1,0.5-0.1c0.8,0,1.6,0.2,2.3,0.5c0.9,0.4,1.3,0.8,1.3,1.3c0,0.3-0.1,0.6-0.4,0.9
	c-0.2,0.3-0.6,0.5-1,0.4c-0.4,0-0.8-0.1-1.1-0.3c-0.3-0.1-0.7-0.2-1-0.2c-0.5,0-1,0.1-1.5,0.4c-0.4,0.3-0.8,0.6-1,1.1
	c-0.2,0.4-0.3,0.9-0.2,1.4c0,0.3,0,0.6,0.1,0.9c0.2,0.3,0.4,0.6,0.7,0.8c0.7,0.7,1.5,1,2.5,1.1h0.7c0.2,0,0.4,0,0.6,0
	c0.3,0,0.5,0.1,0.7,0.3c0.2,0.2,0.4,0.5,0.3,0.9c0,0.4-0.2,0.7-0.4,1c-0.2,0.2-0.4,0.3-0.6,0.3c-0.5,0.1-1,0.1-1.4,0.1
	c-0.5,0-1,0-1.5-0.1c-0.4-0.1-0.7-0.2-1.1-0.4c-1.1-0.6-2.1-1.4-2.8-2.5c-0.1-0.2-0.3-0.5-0.3-0.7c-0.1-0.3-0.1-0.7-0.1-1
	c0-0.1,0-0.2,0-0.3s0-0.3,0-0.4c0-0.5,0-1,0.1-1.5c0.1-0.4,0.3-0.8,0.5-1.1c0.4-0.7,0.9-1.3,1.5-1.7C97.8,51.5,98.7,51.1,99.6,50.9z
	"/>
<path d="M55.7,108.8c0.4-0.2,0.8-0.4,1.2-0.3c0.4,0,0.9,0.1,1.3,0.3c0.3,0.1,0.6,0.4,0.8,0.7c0.1,0.2,0.1,0.3,0.1,0.5
	c0,0.3-0.2,0.5-0.4,0.7c-0.3,0.3-0.7,0.4-1.1,0.4c-0.2,0-0.4,0-0.6,0.1c-0.1,0.1-0.2,0.2-0.2,0.3v0.3c0,0.7,0.2,1.4,0.4,2.1
	c0.2,0.7,0.3,1.5,0.3,2.3c0,0.6-0.1,1.2-0.3,1.8c-0.5,1-1.5,1.6-2.5,1.6h-0.5c-1.1-0.1-1.8-0.4-2-0.9c-0.1-0.2-0.1-0.4-0.1-0.5
	c0-0.3,0.2-0.5,0.4-0.7c0.1-0.2,0.3-0.3,0.5-0.4c0.3-0.1,0.7-0.1,1-0.1h1.1v-0.6v-0.1c0-0.6-0.1-1.1-0.3-1.7
	c-0.2-0.8-0.4-1.7-0.4-2.6v-0.4c0-0.3,0-0.7,0.1-1c0.1-0.2,0.2-0.5,0.3-0.7C55.1,109.4,55.4,109.1,55.7,108.8z"/>
<path d="M64.6,108.5c0.3-0.2,0.6-0.3,1-0.3c0.4,0,0.7,0.1,1,0.4c0.3,0.3,0.6,0.4,1,0.4c0.3,0,0.7,0.1,1,0.2c0.4,0.2,0.7,0.5,1,0.8
	c0.3,0.3,0.6,0.7,0.9,1.2c0.2,0.4,0.3,0.9,0.4,1.3c0.1,0.5,0.1,1,0.2,1.5c0,0.5-0.1,1-0.3,1.5c-0.2,0.7-0.6,1.3-1.1,1.8
	c-0.7,0.5-1.6,0.8-2.4,1c-0.5,0.1-1,0.2-1.5,0.3c-0.6-0.1-1.2-0.3-1.7-0.6c-0.8-0.4-1.4-1-1.9-1.7c-0.4-0.7-0.7-1.5-0.7-2.3
	c0-0.8,0.2-1.5,0.5-2.2c0.4-0.7,0.8-1.4,1.3-2C63.6,109.3,64,108.8,64.6,108.5z M66.6,110.8c-0.1-0.1-0.3-0.2-0.5-0.3
	c-0.2,0-0.4,0.2-0.7,0.6c-0.4,0.4-0.7,0.9-1,1.4c-0.3,0.4-0.4,0.8-0.5,1.3c0,0.1,0,0.2,0,0.3c0.1,0.7,0.5,1.4,1.2,1.7l0.6,0.3
	l1.2-0.3c0.5-0.1,0.9-0.2,1.3-0.5c0.3-0.5,0.5-1.1,0.4-1.7c0-0.1,0-0.3,0-0.4c0-0.3-0.1-0.6-0.3-0.9
	C67.6,111.8,67.1,111.3,66.6,110.8L66.6,110.8z"/>
<path d="M81.3,110.1c0.2-0.2,0.5-0.4,0.8-0.3c0.3,0,0.7,0.1,0.9,0.4c0.2,0.1,0.3,0.3,0.3,0.5c0.1,0.4,0.1,0.8,0.1,1.2
	c0,1.8-0.4,3.6-1.2,5.2c-0.3,0.6-0.7,1.1-1.1,1.6c-0.3,0.4-0.7,0.7-1.2,0.9c-0.4,0.2-0.8,0.3-1.2,0.4c-0.2,0-0.4,0-0.5,0
	c-0.8-0.1-1.5-0.3-2.2-0.7c-0.6-0.4-1.2-0.9-1.5-1.6c-0.3-0.6-0.5-1.2-0.7-1.8c-0.2-0.6-0.3-1.2-0.4-1.8c0-0.6-0.1-1.1-0.3-1.7
	c-0.1-0.2-0.1-0.5-0.1-0.7c0-0.2,0.1-0.4,0.2-0.6c0.2-0.4,0.6-0.6,1-0.7c0.1,0,0.2,0,0.3,0c0.6,0.2,1,0.8,1.1,1.9
	c0.1,1,0.3,2.1,0.6,3.1c0.1,0.6,0.4,1.2,0.9,1.6c0.3,0.2,0.7,0.4,1.1,0.4c0.5,0,1-0.4,1.5-1.2c0.7-1.3,1.1-2.7,1.1-4.2
	c0-0.5,0-0.9,0.1-1.4C81.1,110.4,81.2,110.2,81.3,110.1z"/>
<path d="M95.2,108c0.2-0.1,0.5-0.2,0.7-0.2c0.2,0,0.4,0,0.6,0.1c0.3,0.2,0.5,0.5,0.5,0.9c0,0.5-0.1,1-0.3,1.4
	c-0.1,0.3-0.3,1.3-0.8,3c-0.2,0.8-0.5,1.7-0.8,2.4c-0.2,0.5-0.5,1-0.9,1.4c-0.3,0.2-0.7,0.3-1.1,0.3c-1,0-2-0.4-2.8-1
	c-0.5-0.4-0.9-0.9-1.2-1.5c-0.2-0.3-0.5-0.6-0.8-0.9c-0.1,0.5-0.2,1-0.3,1.6c0,0.4-0.1,0.9-0.2,1.3c-0.1,0.2-0.2,0.4-0.3,0.6
	c-0.2,0.2-0.5,0.4-0.9,0.4c-0.3,0-0.6-0.1-0.8-0.3c-0.2-0.2-0.4-0.6-0.3-0.9c0-0.1,0-0.2,0-0.3s0-0.2,0-0.3c0-0.9,0.1-1.9,0.3-2.8
	c0.1-0.7,0.2-1.3,0.5-1.9c0.5-1,1.1-1.5,1.7-1.5c0.3,0,0.6,0.1,0.8,0.2c0.3,0.4,0.6,0.7,0.8,1.2c1.3,2.2,2.3,3.4,3.1,3.4
	c0.2,0,0.7-1.4,1.3-4.2c0.1-0.6,0.3-1.3,0.5-1.9C94.8,108.4,94.9,108.2,95.2,108z"/>
<path d="M101,104.8c0.8-0.2,1.6-0.3,2.4-0.3c0.5,0,0.9,0,1.4,0.1c0.4,0.1,0.7,0.3,1,0.6c0.3,0.3,0.6,0.7,0.9,1.2
	c0.5,1,0.8,1.6,0.9,1.9c0.1,0.3,0.2,0.7,0.2,1c0,1-0.3,2-0.8,2.9c-0.5,0.9-1.1,1.8-1.9,2.5c-0.9,0.8-2,1.2-3.1,1.2h-0.3
	c-0.4,0-0.8-0.1-1.2-0.2c-0.2-0.1-0.4-0.3-0.4-0.5c-0.2-1.1-0.4-2.2-0.4-3.4c-0.2-2-0.3-3.5-0.3-4.5v-0.2c0-0.5,0.1-1.1,0.4-1.5
	C100,105.2,100.5,104.9,101,104.8z M104.1,107c-0.3-0.2-0.7-0.3-1.1-0.3c-0.3,0-0.7,0-1,0.2c-0.1,0-0.2,0.1-0.2,0.1
	c-0.1,0-0.1,0.1-0.1,0.2c0,0.1-0.1,0.3-0.1,0.4c0,0.2,0,0.8,0.1,2c0.1,0.8,0.2,1.7,0.2,2.7c0,0.3,0.1,0.5,0.1,0.8
	c0,0.1,0.1,0.2,0.3,0.2c0.7-0.1,1.3-0.4,1.6-1c0.6-0.7,1-1.5,1.2-2.3c0.1-0.2,0.1-0.4,0.1-0.6c-0.1-0.4-0.2-0.8-0.4-1.1
	C104.7,107.8,104.5,107.4,104.1,107L104.1,107z"/>
<path d="M118,105c0.6-0.1,1.2-0.2,1.8-0.2c0.4,0,0.7,0,1.1,0.2c0.3,0.2,0.5,0.5,0.4,0.9c0,0.2,0,0.4-0.1,0.6
	c-0.1,0.2-0.3,0.4-0.5,0.5c-0.3,0.1-0.7,0.2-1,0.2l-1.6,0.2l-0.8,0.2v1.3v1.2h1c0.4,0,0.9-0.1,1.3-0.3c0.2-0.1,0.4-0.2,0.7-0.2
	c0.3,0,0.6,0.1,0.9,0.3c0.2,0.2,0.4,0.4,0.4,0.7c0,0.3-0.2,0.6-0.4,0.9c-0.2,0.3-0.5,0.5-0.9,0.6c-0.5,0.1-1,0.2-1.5,0.3
	c-0.5,0.1-1,0.2-1.5,0.2c-0.1,0-0.1,0.1-0.1,0.4c0,0.6,0.1,1.3,0.4,1.9c0.1,0.2,0.2,0.4,0.3,0.5c0.1,0.1,0.2,0.1,0.4,0.1
	c0.5,0,1.1-0.1,1.6-0.3c0.5-0.1,0.9-0.4,1.3-0.7c0.2-0.3,0.6-0.4,0.9-0.4c0.3,0,0.7,0.1,0.9,0.4c0.2,0.2,0.3,0.5,0.3,0.7
	c0,0.3-0.1,0.5-0.2,0.8c-0.2,0.4-0.5,0.7-0.8,0.8c-0.7,0.3-1.4,0.5-2.2,0.7c-0.7,0.2-1.4,0.3-2.1,0.3c-0.8,0-1.6-0.4-2.1-1.1
	c-0.3-0.5-0.5-1-0.7-1.6c-0.2-0.6-0.3-1.2-0.4-1.8V113c0-1,0-2.4,0.1-4.1c0-1,0.1-1.9,0.2-2.9c0.2-0.5,0.6-0.7,1.3-0.7
	C117,105.2,117.5,105.1,118,105z"/>
<path d="M128,106c0.5-0.1,1-0.1,1.6-0.1c0.6,0,1.2,0,1.8,0.1c0.3,0,0.7,0.2,0.9,0.4c0.2,0.2,0.3,0.5,0.4,0.8c0,0.3-0.1,0.6-0.4,0.7
	c-0.2,0.2-0.4,0.3-0.6,0.3c-0.5,0.1-1.1,0.1-1.6,0.1c-0.7,0-1.3,0-2,0.2c-0.2,0.5-0.3,1.1-0.3,1.6l-0.1,1.5h0.8
	c0.4,0,0.9,0.1,1.2,0.3c0.3,0.2,0.4,0.5,0.4,0.8c0,0.3-0.1,0.6-0.3,0.8c-0.2,0.2-0.5,0.4-0.8,0.5h-0.2l-0.4,0.1l-0.3,0.1l-0.5,0.1
	v2.1c0,0.2,0,0.4,0,0.6v0.5c0,0.3,0,0.6-0.1,0.9c0,0.2-0.1,0.3-0.2,0.5c-0.2,0.2-0.5,0.4-0.8,0.3c-0.2,0-0.5-0.1-0.7-0.2
	c-0.3-0.4-0.5-0.9-0.5-1.4c-0.1-0.8-0.1-2.5-0.1-5.1v-1.6c-0.1-1.2,0-2.4,0.2-3.6c0.3-0.3,0.6-0.5,0.9-0.6
	C127,106.4,127.5,106.2,128,106z"/>
<path d="M137.3,106c0.5-0.1,1-0.1,1.6-0.1c0.6,0,1.2,0,1.8,0.1c0.3,0.1,0.7,0.2,0.9,0.4c0.2,0.2,0.3,0.5,0.3,0.8
	c0,0.3-0.1,0.6-0.4,0.7c-0.2,0.2-0.4,0.3-0.6,0.3c-0.5,0.1-1.1,0.1-1.6,0.1c-0.7,0-1.3,0-2,0.2c-0.2,0.5-0.3,1.1-0.3,1.6l-0.1,1.5
	h0.8c0.4,0,0.9,0.1,1.2,0.3c0.2,0.2,0.4,0.5,0.4,0.8c0,0.6-0.4,1.1-1,1.2h-0.2l-0.3,0.1l-0.3,0.1l-0.5,0.1v2.1c0,0.2,0,0.4,0,0.6
	s0,0.4,0,0.5c0,0.3,0,0.6-0.1,0.9c-0.1,0.2-0.1,0.3-0.3,0.5c-0.2,0.2-0.5,0.3-0.8,0.3c-0.3,0-0.5-0.1-0.7-0.3
	c-0.3-0.4-0.5-0.9-0.5-1.4c-0.1-0.8-0.1-2.5-0.1-5.1v-1.6c-0.1-1.2,0-2.4,0.2-3.6c0.3-0.3,0.6-0.5,0.9-0.6
	C136.3,106.3,136.8,106.1,137.3,106z"/>
<path d="M147.2,105c0.6-0.1,1.2-0.2,1.8-0.2c0.4,0,0.7,0,1.1,0.2c0.3,0.2,0.5,0.5,0.4,0.9c0,0.2,0,0.4-0.1,0.6
	c-0.1,0.2-0.3,0.4-0.5,0.5c-0.3,0.1-0.7,0.2-1,0.2l-1.6,0.2l-0.8,0.2v1.3v1.2h1c0.4,0,0.9-0.1,1.3-0.3c0.2-0.1,0.4-0.2,0.7-0.2
	c0.3,0,0.6,0.1,0.9,0.3c0.2,0.2,0.4,0.4,0.4,0.7c0,0.3-0.2,0.6-0.4,0.9c-0.2,0.3-0.5,0.5-0.9,0.6c-0.5,0.1-1,0.2-1.5,0.3
	c-0.5,0.1-1,0.2-1.5,0.2c-0.1,0-0.1,0.1-0.1,0.4c0,0.6,0.1,1.3,0.4,1.9c0.1,0.2,0.2,0.4,0.3,0.5c0.1,0.1,0.3,0.1,0.4,0.1
	c0.5,0,1.1-0.1,1.6-0.3c0.5-0.1,0.9-0.4,1.3-0.7c0.2-0.3,0.6-0.4,0.9-0.4c0.3,0,0.7,0.1,0.9,0.4c0.2,0.2,0.3,0.5,0.3,0.7
	c0,0.3-0.1,0.5-0.2,0.8c-0.2,0.4-0.5,0.7-0.8,0.8c-0.7,0.3-1.4,0.5-2.2,0.7c-0.7,0.2-1.4,0.3-2.1,0.3c-0.8,0-1.6-0.4-2.1-1.1
	c-0.3-0.5-0.5-1-0.7-1.6c-0.2-0.6-0.3-1.2-0.4-1.8V113c0-1,0-2.4,0.1-4.1c0-1,0.1-1.9,0.2-2.9c0.2-0.5,0.6-0.7,1.3-0.7
	C146.2,105.2,146.7,105.1,147.2,105z"/>
<path d="M159.3,105.9c0.2,0,0.3-0.1,0.5-0.1c0.8,0,1.6,0.2,2.3,0.5c0.9,0.4,1.3,0.8,1.3,1.3c0,0.3-0.1,0.6-0.4,0.9
	c-0.2,0.3-0.6,0.5-1,0.4c-0.4,0-0.8-0.1-1.1-0.3c-0.3-0.1-0.7-0.2-1-0.2c-0.5,0-1,0.1-1.5,0.4c-0.4,0.3-0.8,0.6-1,1.1
	c-0.2,0.4-0.3,0.9-0.2,1.4c0,0.3,0,0.6,0.1,0.9c0.2,0.3,0.4,0.6,0.7,0.8c0.7,0.7,1.5,1,2.5,1.1c0.1,0,0.4,0,0.7,0c0.2,0,0.4,0,0.6,0
	c0.3,0,0.5,0.1,0.7,0.3c0.2,0.2,0.4,0.5,0.3,0.9c0,0.4-0.2,0.7-0.4,1c-0.2,0.2-0.4,0.3-0.6,0.3c-0.5,0.1-1,0.1-1.4,0.1
	c-0.5,0-1,0-1.5-0.1c-0.4-0.1-0.7-0.2-1.1-0.4c-1.1-0.6-2.1-1.4-2.8-2.5c-0.2-0.2-0.3-0.4-0.4-0.7c-0.1-0.3-0.1-0.6-0.1-0.9
	c0-0.1,0-0.2,0-0.3s0-0.3,0-0.4c0-0.5,0-1,0.1-1.5c0.1-0.4,0.3-0.8,0.5-1.1c0.3-0.7,0.9-1.3,1.5-1.7
	C157.5,106.5,158.4,106.1,159.3,105.9z"/>
<path d="M171.6,109.2l2.9-0.2h0.1c0.3,0,0.7,0.2,0.9,0.4c0.2,0.2,0.4,0.5,0.4,0.8c0,0.2-0.1,0.4-0.1,0.5c-0.1,0.3-0.3,0.5-0.6,0.6
	c-0.6,0.1-1.3,0.2-1.9,0.2l-1.8,0.1l-0.1,1.9c0,0.3,0,0.7,0,1.2c0,1.1,0.1,2.2,0.3,3.3c0,0.1,0,0.2,0,0.3c0,0.2-0.1,0.4-0.4,0.6
	c-0.2,0.2-0.5,0.4-0.8,0.4c-0.4,0-0.7-0.2-0.9-0.5c-0.2-0.2-0.3-0.4-0.4-0.6c-0.1-0.4-0.2-0.8-0.2-1.2c0-0.7-0.1-1.5-0.1-2.3
	c0-0.4,0-0.7,0-0.9l0.1-1.8h-0.6c-0.7,0-1.4-0.1-2-0.3c-0.3-0.2-0.5-0.5-0.5-0.9c0-0.4,0.1-0.8,0.4-1.1c0.4-0.3,0.9-0.4,1.4-0.3h0.5
	h0.9C170,109.2,170.9,109.2,171.6,109.2z"/>
<path d="M181.7,108.8c0.4-0.2,0.8-0.4,1.2-0.3c0.4,0,0.9,0.1,1.3,0.3c0.3,0.1,0.6,0.4,0.8,0.7c0.1,0.2,0.1,0.3,0.1,0.5
	c0,0.3-0.2,0.5-0.4,0.7c-0.3,0.3-0.7,0.4-1.1,0.4c-0.2,0-0.4,0-0.6,0.1c-0.1,0.1-0.1,0.2-0.1,0.3v0.3c0,0.7,0.2,1.4,0.4,2.1
	c0.2,0.7,0.3,1.5,0.3,2.3c0,0.6-0.1,1.2-0.3,1.8c-0.5,1-1.5,1.6-2.5,1.6h-0.5c-1.1-0.1-1.8-0.4-2-0.9c-0.1-0.2-0.1-0.4-0.1-0.5
	c0-0.3,0.2-0.5,0.4-0.7c0.1-0.2,0.3-0.3,0.5-0.4c0.3-0.1,0.7-0.1,1-0.1h1.1v-0.6v-0.1c0-0.6-0.1-1.1-0.3-1.7
	c-0.2-0.8-0.4-1.7-0.4-2.6v-0.4c0-0.3,0-0.7,0.1-1c0.1-0.2,0.2-0.5,0.3-0.7C181.1,109.4,181.3,109.1,181.7,108.8z"/>
</svg>
