<?xml version="1.0" encoding="utf-8"?>
<!-- Generator: Adobe Illustrator 26.0.1, SVG Export Plug-In . SVG Version: 6.00 Build 0)  -->
<svg version="1.1" id="Layer_1" xmlns="http://www.w3.org/2000/svg" xmlns:xlink="http://www.w3.org/1999/xlink" x="0px" y="0px"
	 viewBox="0 0 135 215" style="enable-background:new 0 0 135 215;" xml:space="preserve">
<style type="text/css">
	.st0{fill:#B3B3B3;}
	.st1{fill:#E6E6E6;}
	.st2{fill:#808080;}
	.st3{fill:#666666;}
</style>
<path class="st0" d="M41.5,74.6c0.2,1.2,0.4,2.4,0.7,3.6c0.2,0.9,0.4,1.7,0.6,2.6c0.4-2.2,0.8-4,1-5.1C42.6,75,41.8,74.6,41.5,74.6z
	"/>
<path class="st0" d="M70.9,81.5c-0.7,3.4-2.4,5.7-5.7,6.4c-1.1,0.2-7.8-4-13.9-7.7c5.6,8,11,22.2,12,27c0.7,3.5,0,7.2-2.1,10.2
	c2.2,2.3,4.6,4.3,7.3,5.9c1-1.6,1.9-3.1,1.7-4.1c-3.6-17.1,3.4-33.1,15.7-35.7c5.7-1.2,11.6-2.2,16.6,2c-0.1-6.6-0.8-13.1-2.1-19.5
	c-0.3-1.6-0.7-3.2-1.1-4.8c-1.2,0.5-21.8,21.5-23.1,21.8C74.3,83.5,72.3,82.9,70.9,81.5z"/>
<path class="st1" d="M44,74.6c2.2-0.4,4.8,2,7.3,5.6c6,3.7,12.8,8,13.9,7.7c3.3-0.7,5-3.1,5.7-6.4c-6.8-6.3-7.5-29-9.7-42.3
	c-2.9,0.3-21.4,1.1-33.2-2.1C15.9,50.6,2.2,78,4.1,87.4c1.1,5.1,7.9,1.8,15.6-2.7c3.1-3.5,5.9-8.2,6.3-6.4c0.1,0.9,0,1.9-0.2,2.8
	c6-3.5,11.9-6.7,15.7-6.5c0.3,0,1.1,0.4,2.3,1.1C43.9,75,44,74.6,44,74.6z"/>
<path class="st2" d="M85.9,83.6c-12.2,2.6-19.3,18.5-15.7,35.7c0.2,1-0.8,2.5-1.7,4.1c-0.5,0.7-0.9,1.5-1.3,2.1
	c8-5.1,15.8-9.8,16.4-7.1c0.5,2.5-5,10.5-11.4,18.2c7.2,7.6,18.5,10.8,26.7,9.1c12.2-2.6,31.9-0.8,28.3-17.9
	c-1.9-9.1-19-37.4-24.6-42.1C97.6,81.4,91.7,82.4,85.9,83.6z"/>
<path class="st3" d="M63.3,107.3c-1-4.8-6.4-19-12-27c-2.5-3.6-5.1-6-7.3-5.6c0,0-0.1,0.4-0.2,1.1c-0.2,1.1-0.6,2.9-1,5.1
	c-1.4,6.8-3.3,16.6-3.4,16.7c-7.1,1.5-0.7,21,0.8,28.1c1.5,7.1,5.8-1.2,12.9-2.7C60.2,121.4,64.8,114.4,63.3,107.3z"/>
<path class="st3" d="M60.5,34.4c1,2.9,1.4,4.8,1.1,4.9c-0.1,0-0.2,0-0.4,0c2.2,13.3,2.9,35.9,9.7,42.3c1.4,1.4,3.4,2,5.4,1.5
	c1.3-0.3,21.9-21.3,23.1-21.8c10.4-4.4,20.5,11.8,17.6-1.9C113.8,44.2,99.2,23,86.6,25.6c-6.3,1.3-13.8-12.6-16.9-6.8
	C67,24.1,60.6,28.1,60.5,34.4z"/>
<path class="st1" d="M83.6,118.4c-0.6-2.7-8.4,2-16.4,7.1c-6.6,4.2-13.3,8.7-16.1,9.2c-6,1.3-10.1,6.3-9,11.3c1,5,6.8,8,12.8,6.7
	c3.1-0.6,10.7-8.2,17.3-16.2C78.7,128.9,84.1,120.9,83.6,118.4z"/>
<path class="st0" d="M38,3.8c-1.5,0.3-9.2,11-10.4,12C12.4,28.2,17.6,34.3,28,37.2c11.8,3.2,30.3,2.4,33.2,2.1c0.1,0,0.3,0,0.4,0
	c0.3-0.1-0.1-2-1.1-4.9c0.2-6.2,6.5-10.3,9.3-15.5c-3.1-1.2-6.5-1.5-9.8-0.8c-1.8,0.4-3.6,1.1-5.2,2.1c-4.6-9.9-10.3-19-13.5-14.2
	C40.4,7.1,39.5,3.4,38,3.8z"/>
<path class="st2" d="M19.8,84.7c-1.5,1.7-3.1,3.1-4.6,3.4c-4.5,1-7.8,3.9-7.2,6.6c0.6,2.7,4.7,4.1,9.3,3.2
	c3.7-0.8,7.5-11.3,8.6-16.8c0.2-0.9,0.3-1.9,0.2-2.8C25.7,76.5,22.9,81.2,19.8,84.7z"/>
</svg>
