<svg id="Layer_1" data-name="Layer 1" xmlns="http://www.w3.org/2000/svg" width="135" height="215" viewBox="0 0 135 215"><defs><style>.cls-1,.cls-3{fill:#fff;}.cls-2{fill:#ccc;}.cls-3{opacity:0.4;}.cls-4{fill:#b66612;}.cls-5{fill:#7b4200;}.cls-6{fill:#d37619;}.cls-7{fill:#e6e6e6;}</style></defs><path class="cls-1" d="M96.43,147.56a1.86,1.86,0,0,1,0,.34,2.09,2.09,0,0,1,0,.35l14.06-80.71h0a1.78,1.78,0,0,1-.19.53Z"/><path class="cls-1" d="M41.06,147.56,24.78,68.16a1.72,1.72,0,0,1-.25-.62h0l16.55,80.71a2.07,2.07,0,0,1,0-.35A1.87,1.87,0,0,1,41.06,147.56Z"/><path class="cls-2" d="M68.74,154.76c-14.84,0-27-3-27.65-6.86a2.07,2.07,0,0,0,0,.35c0,4,12.4,7.19,27.68,7.19s27.69-3.22,27.69-7.19a2.09,2.09,0,0,0,0-.35C95.71,151.72,83.59,154.76,68.74,154.76Z"/><path class="cls-3" d="M110.49,66.86h-.07a.85.85,0,0,1,0,.17Z"/><path class="cls-3" d="M24.51,66.86l0,.15c0-.05,0-.1,0-.15Z"/><path class="cls-1" d="M41.09,147.9c.4-2.19,4.6-4.13,10.93-5.38-2.07-.84-3.28-1.83-3.28-2.89l-3.39-13.8a1.68,1.68,0,0,1-.16-.65v0h0v0c0-3.33,10.69-6,23.88-6s23.87,2.7,23.87,6a1.74,1.74,0,0,1-.14.66l-3,13.84c0,1.12-1.35,2.17-3.64,3,5.94,1.25,9.85,3.13,10.23,5.24a1.86,1.86,0,0,0,0-.34l13.85-79.49C108.13,72,89.8,75,67.5,75c-22.12,0-40.34-3-42.72-6.88l16.28,79.4A1.87,1.87,0,0,0,41.09,147.9Z"/><path class="cls-3" d="M41.09,147.9c.4-2.19,4.6-4.13,10.93-5.38-2.07-.84-3.28-1.83-3.28-2.89l-3.39-13.8a1.68,1.68,0,0,1-.16-.65v0h0v0c0-3.33,10.69-6,23.88-6s23.87,2.7,23.87,6a1.74,1.74,0,0,1-.14.66l-3,13.84c0,1.12-1.35,2.17-3.64,3,5.94,1.25,9.85,3.13,10.23,5.24a1.86,1.86,0,0,0,0-.34l13.85-79.49C108.13,72,89.8,75,67.5,75c-22.12,0-40.34-3-42.72-6.88l16.28,79.4A1.87,1.87,0,0,0,41.09,147.9Z"/><path class="cls-2" d="M86.16,142.66c-3.7,1.39-9.88,2.3-16.89,2.3-7.24,0-13.6-1-17.25-2.44-6.33,1.25-10.53,3.19-10.93,5.38.69,3.82,12.81,6.86,27.65,6.86s27-3,27.65-6.86C96,145.79,92.1,143.91,86.16,142.66Z"/><path class="cls-3" d="M86.16,142.66c-3.7,1.39-9.88,2.3-16.89,2.3-7.24,0-13.6-1-17.25-2.44-6.33,1.25-10.53,3.19-10.93,5.38.69,3.82,12.81,6.86,27.65,6.86s27-3,27.65-6.86C96,145.79,92.1,143.91,86.16,142.66Z"/><path class="cls-4" d="M45.19,125.16v0Z"/><path class="cls-3" d="M45.19,125.16v0Z"/><path class="cls-4" d="M69.27,134.29c11.34,0,20.53,2.39,20.53,5.34l3-13.84c-1.29,3-11.42,5.37-23.73,5.37s-22.34-2.33-23.72-5.33l3.39,13.8C48.74,136.68,57.93,134.29,69.27,134.29Z"/><path class="cls-3" d="M69.27,134.29c11.34,0,20.53,2.39,20.53,5.34l3-13.84c-1.29,3-11.42,5.37-23.73,5.37s-22.34-2.33-23.72-5.33l3.39,13.8C48.74,136.68,57.93,134.29,69.27,134.29Z"/><path class="cls-5" d="M86.16,142.66c2.29-.86,3.64-1.91,3.64-3,0-2.95-9.19-5.34-20.53-5.34s-20.53,2.39-20.53,5.34c0,1.06,1.21,2.05,3.28,2.89C55.67,144,62,145,69.27,145,76.28,145,82.46,144.05,86.16,142.66Z"/><path class="cls-3" d="M86.16,142.66c2.29-.86,3.64-1.91,3.64-3,0-2.95-9.19-5.34-20.53-5.34s-20.53,2.39-20.53,5.34c0,1.06,1.21,2.05,3.28,2.89C55.67,144,62,145,69.27,145,76.28,145,82.46,144.05,86.16,142.66Z"/><path class="cls-6" d="M69.07,131.16c12.31,0,22.44-2.35,23.73-5.37a1.74,1.74,0,0,0,.14-.66c0-3.33-10.69-6-23.87-6s-23.88,2.7-23.88,6v.05a1.68,1.68,0,0,0,.16.65C46.73,128.83,56.82,131.16,69.07,131.16Z"/><path class="cls-3" d="M69.07,131.16c12.31,0,22.44-2.35,23.73-5.37a1.74,1.74,0,0,0,.14-.66c0-3.33-10.69-6-23.87-6s-23.88,2.7-23.88,6v.05a1.68,1.68,0,0,0,.16.65C46.73,128.83,56.82,131.16,69.07,131.16Z"/><path class="cls-7" d="M110.46,67a.85.85,0,0,0,0-.17c-1.28-4.07-20-7.3-42.92-7.3s-41.64,3.23-42.92,7.3c0,0,0,.1,0,.15a1.43,1.43,0,0,0,0,.29,1.94,1.94,0,0,0,0,.24,1.72,1.72,0,0,0,.25.62C27.16,72,45.38,75,67.5,75c22.3,0,40.63-3.06,42.78-7a1.78,1.78,0,0,0,.19-.53,1.94,1.94,0,0,0,0-.24A1.24,1.24,0,0,0,110.46,67Z"/></svg>