<svg id="Layer_1" data-name="Layer 1" xmlns="http://www.w3.org/2000/svg" width="135" height="215" viewBox="0 0 135 215"><defs><style>.cls-1,.cls-3{fill:#fff;}.cls-2{fill:#ccc;}.cls-3{opacity:0.4;}.cls-4{fill:#b66612;}.cls-5{fill:#7b4200;}.cls-6{fill:#d37619;}.cls-7{fill:#e6e6e6;}</style></defs><polygon class="cls-1" points="96.43 207.81 110.49 127.1 96.43 207.81 96.43 207.81"/><path class="cls-2" d="M96.43,207.81c0,4-12.4,7.19-27.69,7.19h0c15.29,0,27.69-3.22,27.69-7.19Z"/><path class="cls-3" d="M41.06,207.81,24.51,127.1h0l16.55,80.71c0,4,12.4,7.19,27.68,7.19h0C53.46,215,41.06,211.78,41.06,207.81Z"/><path class="cls-1" d="M67.5,134.6c-23.29,0-42.25-3.33-43-7.5h0l16.55,80.71c0-2.34,4.3-4.42,11-5.74-2.07-.83-3.28-1.82-3.28-2.88l-7-47.54c0-.11,0-.22,0-.33v-.06h0v0c0-3.77,12.09-6.83,27-6.83s27,3.06,27,6.83a1.9,1.9,0,0,1,0,.4l-5.9,47.56c0,1.12-1.35,2.17-3.64,3,6.26,1.31,10.27,3.33,10.27,5.59l14.06-80.71h0C109.75,131.27,90.79,134.6,67.5,134.6Z"/><path class="cls-3" d="M67.5,134.6c-23.29,0-42.25-3.33-43-7.5h0l16.55,80.71c0-2.34,4.3-4.42,11-5.74-2.07-.83-3.28-1.82-3.28-2.88l-7-47.54c0-.11,0-.22,0-.33v-.06h0v0c0-3.77,12.09-6.83,27-6.83s27,3.06,27,6.83a1.9,1.9,0,0,1,0,.4l-5.9,47.56c0,1.12-1.35,2.17-3.64,3,6.26,1.31,10.27,3.33,10.27,5.59l14.06-80.71h0C109.75,131.27,90.79,134.6,67.5,134.6Z"/><path class="cls-2" d="M96.43,207.81h0c0-2.26-4-4.28-10.27-5.59-3.7,1.39-9.88,2.3-16.89,2.3-7.24,0-13.6-1-17.25-2.45-6.66,1.32-11,3.4-11,5.74,0,4,12.4,7.19,27.68,7.19S96.43,211.78,96.43,207.81Z"/><path class="cls-3" d="M96.43,207.81h0c0-2.26-4-4.28-10.27-5.59-3.7,1.39-9.88,2.3-16.89,2.3-7.24,0-13.6-1-17.25-2.45-6.66,1.32-11,3.4-11,5.74,0,4,12.4,7.19,27.68,7.19S96.43,211.78,96.43,207.81Z"/><path class="cls-4" d="M41.74,151.26v0Z"/><path class="cls-3" d="M41.74,151.26v0Z"/><path class="cls-4" d="M69.27,193.85c11.34,0,20.53,2.39,20.53,5.34l5.9-47.56c-.81,3.58-12.57,6.42-27,6.42s-26.07-2.83-26.95-6.4l7,47.54C48.74,196.24,57.93,193.85,69.27,193.85Z"/><path class="cls-3" d="M69.27,193.85c11.34,0,20.53,2.39,20.53,5.34l5.9-47.56c-.81,3.58-12.57,6.42-27,6.42s-26.07-2.83-26.95-6.4l7,47.54C48.74,196.24,57.93,193.85,69.27,193.85Z"/><path class="cls-5" d="M86.16,202.22c2.29-.86,3.64-1.91,3.64-3,0-2.95-9.19-5.34-20.53-5.34s-20.53,2.39-20.53,5.34c0,1.06,1.21,2.05,3.28,2.88,3.65,1.48,10,2.45,17.25,2.45C76.28,204.52,82.46,203.61,86.16,202.22Z"/><path class="cls-3" d="M86.16,202.22c2.29-.86,3.64-1.91,3.64-3,0-2.95-9.19-5.34-20.53-5.34s-20.53,2.39-20.53,5.34c0,1.06,1.21,2.05,3.28,2.88,3.65,1.48,10,2.45,17.25,2.45C76.28,204.52,82.46,203.61,86.16,202.22Z"/><path class="cls-6" d="M68.74,158.05c14.39,0,26.15-2.84,27-6.42a1.9,1.9,0,0,0,0-.4c0-3.77-12.09-6.83-27-6.83s-27,3.06-27,6.83v.09c0,.11,0,.22,0,.33C42.67,155.22,54.4,158.05,68.74,158.05Z"/><path class="cls-3" d="M68.74,158.05c14.39,0,26.15-2.84,27-6.42a1.9,1.9,0,0,0,0-.4c0-3.77-12.09-6.83-27-6.83s-27,3.06-27,6.83v.09c0,.11,0,.22,0,.33C42.67,155.22,54.4,158.05,68.74,158.05Z"/><path class="cls-7" d="M67.5,134.6c23.29,0,42.25-3.33,43-7.5a1.94,1.94,0,0,0,0-.24c0-4.28-19.25-7.74-43-7.74s-43,3.46-43,7.74a1.94,1.94,0,0,0,0,.24C25.25,131.27,44.21,134.6,67.5,134.6Z"/></svg>