<svg id="Layer_1" data-name="Layer 1" xmlns="http://www.w3.org/2000/svg" width="445" height="865" viewBox="0 0 445 865"><defs><style>.cls-1{fill:none;}.cls-2{fill:#1b1a1c;}.cls-3{fill:#ec008c;}</style></defs><polygon class="cls-1" points="76.14 667.03 85.42 667.1 85.89 659.04 76.14 667.03"/><polygon class="cls-1" points="132.78 620.64 129.77 623.1 127.19 667.38 314.15 668.64 310.19 628.66 132.78 620.64"/><path class="cls-1" d="M112.8,196.58a256,256,0,0,1-31.06-9.05l-26.94,463L88,623.31Z"/><path class="cls-1" d="M307.55,601.93,268.11,203.74a529.53,529.53,0,0,1-55.19,2.69,534.74,534.74,0,0,1-58.73-3L131.46,594Z"/><path class="cls-1" d="M351.6,623.43l31,25.44L337.12,189.12a243.59,243.59,0,0,1-27.75,8Z"/><polygon class="cls-1" points="356.1 668.92 365.67 668.99 355.26 660.46 356.1 668.92"/><polygon points="87.97 623.31 54.8 650.48 53.84 666.88 76.14 667.03 85.89 659.04 87.97 623.31"/><polygon points="129.77 623.1 132.78 620.64 310.19 628.66 307.55 601.93 131.46 593.96 129.77 623.1"/><polygon points="355.26 660.46 365.67 668.99 384.66 669.12 382.65 648.87 351.6 623.43 355.26 660.46"/><path d="M79.49,769a20.86,20.86,0,0,0,41.65,2.42l4.5-77.33-41.77-.28Z"/><path d="M131.46,594,154.19,203.4a369.25,369.25,0,0,1-41.39-6.82L88,623.31l-2.08,35.74-.47,8.05,41.77.28,2.58-44.28Z"/><path class="cls-2" d="M443,835.36,377,168.5c-10.62,7.94-23.84,14.9-39.88,20.62l45.53,459.75,2,20.25-19-.13-9.57-.07-42-.28-187-1.26-41.77-.28L76.14,667l-22.29-.15.95-16.4L81.74,187.53c-16.2-5.91-29.68-13-40.56-21.12L11.4,678.17a14.59,14.59,0,0,0-.11,1.76s0,.05,0,.08L1.89,841.58A20.86,20.86,0,1,0,43.54,844l8.75-150.46,31.58.21,41.77.28,191.16,1.29,41.94.29,28.56.19,14.23,143.66A20.86,20.86,0,0,0,443,835.36Z"/><path d="M323.07,758.71a20.86,20.86,0,0,0,41.52-4.11l-5.85-59-41.94-.29Z"/><path d="M351.6,623.43,309.37,197.08a351.84,351.84,0,0,1-41.26,6.66l39.44,398.19,2.64,26.73,4,40,42,.28-.84-8.46Z"/><path class="cls-3" d="M112.8,196.58a369.25,369.25,0,0,0,41.39,6.82,534.74,534.74,0,0,0,58.73,3,529.53,529.53,0,0,0,55.19-2.69,351.84,351.84,0,0,0,41.26-6.66,243.59,243.59,0,0,0,27.75-8c16-5.72,29.26-12.68,39.88-20.62,23.57-17.64,34.29-40.12,34.29-64.61C411.29,47.26,354,1.35,212.92,1.35S6.62,47.26,6.62,103.89c0,23.53,11.27,45.21,34.56,62.52,10.88,8.08,24.36,15.21,40.56,21.12A256,256,0,0,0,112.8,196.58Z"/></svg>