<svg id="Layer_1" data-name="Layer 1" xmlns="http://www.w3.org/2000/svg" width="135" height="230" viewBox="0 0 135 230"><defs><style>.cls-1{fill:#ec008c;}.cls-2{fill:#e6e6e6;}</style></defs><path class="cls-1" d="M114.88,1.1H20.12A19.64,19.64,0,0,0,.54,20.68V209.32A19.64,19.64,0,0,0,20.12,228.9h94.76a19.64,19.64,0,0,0,19.58-19.58V20.68A19.64,19.64,0,0,0,114.88,1.1Zm15.7,204.7A19.64,19.64,0,0,1,111,225.38H24A19.63,19.63,0,0,1,4.43,205.8V23.88A19.63,19.63,0,0,1,24,4.3h87a19.64,19.64,0,0,1,19.58,19.58Z"/><path class="cls-2" d="M111,4.3H24A19.63,19.63,0,0,0,4.43,23.88V205.8A19.63,19.63,0,0,0,24,225.38h87a19.64,19.64,0,0,0,19.58-19.58V23.88A19.64,19.64,0,0,0,111,4.3ZM42.4,34.07a2.33,2.33,0,0,1-1.61,1.51,24.26,24.26,0,0,1-4.83.57l-4.35.2-.2,4.7c0,.66-.05,1.62-.05,2.87A53.51,53.51,0,0,0,32,52a5.55,5.55,0,0,1,.1.79c0,.46-.35,1-1,1.59a3.28,3.28,0,0,1-2.08.94,3.36,3.36,0,0,1-2.27-1.19,4.16,4.16,0,0,1-1.09-1.56,15,15,0,0,1-.45-3C25,47.78,25,45.9,25,43.92c0-1.05,0-1.81.05-2.28l.15-4.55L23.69,37a13.61,13.61,0,0,1-5-.87,2.32,2.32,0,0,1-1.29-2.25,3.21,3.21,0,0,1,1.09-2.72,5.88,5.88,0,0,1,3.56-.84,10.86,10.86,0,0,1,1.29.05c.36,0,1.12.05,2.28.05q3.7,0,6.53-.2l7.08-.45h.15a3.35,3.35,0,0,1,2.23,1.09,2.88,2.88,0,0,1,1,1.88A4.21,4.21,0,0,1,42.4,34.07Zm5.79-14.21a4,4,0,0,1,.94-2.72,2.62,2.62,0,0,1,2-1,3,3,0,0,1,2.18,1.19A2.86,2.86,0,0,1,54.13,19a5.41,5.41,0,0,1-.15,1q-.6,3.57-2.77,3.57a7.38,7.38,0,0,1-.79-.1C48.93,23.2,48.19,22,48.19,19.86ZM56,48.08a2.79,2.79,0,0,1-2.57,1.68,2.73,2.73,0,0,1-1.81-.69,3.41,3.41,0,0,1-1.11-1.88,47.11,47.11,0,0,1-.77-5.74c-.28-2.91-.42-5.18-.42-6.84,0-.13,0-.31,0-.54s0-.38,0-.45a6.66,6.66,0,0,1,.34-1.88,3.23,3.23,0,0,1,.89-1.13,3,3,0,0,1,1.94-.85,2.75,2.75,0,0,1,1.88.94,2.81,2.81,0,0,1,.79,1.37,22.8,22.8,0,0,1,.15,3.44,73,73,0,0,0,.54,7.82,29.85,29.85,0,0,1,.3,3.41A3.06,3.06,0,0,1,56,48.08ZM67.5,221.93a8.82,8.82,0,1,1,8.82-8.82A8.82,8.82,0,0,1,67.5,221.93ZM90.17,48.82a2.94,2.94,0,0,1-2.13.94,2.61,2.61,0,0,1-2-.89,2.77,2.77,0,0,1-.77-1.53c-.15-.7-.32-2.15-.52-4.36q-.8-7.81-1.68-9.6c-.17-.33-.3-.5-.4-.5s-.28.13-.54.4a30.53,30.53,0,0,0-2.78,4.85,32.77,32.77,0,0,1-2.07,3.76,5.11,5.11,0,0,1-1.74,1.39,4.37,4.37,0,0,1-1.83.69,4.07,4.07,0,0,1-1.19-.35,12.61,12.61,0,0,1-3.07-2.12A9.45,9.45,0,0,0,67.54,40c-.16,0-.24.45-.24,1.34a21,21,0,0,0,.64,5.1,15,15,0,0,1,.45,2.32,2.4,2.4,0,0,1-.6,1.34,3,3,0,0,1-2.42,1.48A2.23,2.23,0,0,1,64,51.05a5.44,5.44,0,0,1-2-2.87,24.65,24.65,0,0,1-.54-5.79,42.62,42.62,0,0,1,.14-4.61,11,11,0,0,1,1-2.82q1.74-3.7,3.81-3.71c1.23,0,2.66.89,4.31,2.67a16.15,16.15,0,0,0,2.43,2.23c.26,0,.82-.91,1.68-2.72a18.45,18.45,0,0,1,3.22-4.61,9.74,9.74,0,0,1,3.56-2.72,5.59,5.59,0,0,1,1.78-.3,5.42,5.42,0,0,1,4.36,2.48q1.53,2.07,2.72,11.09a54.77,54.77,0,0,1,.6,6.38A4.13,4.13,0,0,1,90.17,48.82Zm26.48-1.88a3.94,3.94,0,0,1-2.05,2,31.68,31.68,0,0,1-5.38,1.75,23.23,23.23,0,0,1-5.24.84,6,6,0,0,1-5.15-2.82,13.59,13.59,0,0,1-1.63-3.86,20.5,20.5,0,0,1-.9-4.35V39.42q0-3.81.33-10.25a65.87,65.87,0,0,1,.52-7.08c.46-1.19,1.56-1.78,3.31-1.78a32,32,0,0,0,3.72-.55,22.41,22.41,0,0,1,4.55-.54,5.08,5.08,0,0,1,2.67.49,2.5,2.5,0,0,1,1.09,2.13,3,3,0,0,1-.34,1.44A3.1,3.1,0,0,1,111,24.52a9.37,9.37,0,0,1-2.58.49c-1.85.27-3.17.46-4,.6l-2,.39.1,3.12,0,3.07,2.43,0a7,7,0,0,0,3.16-.69,2.86,2.86,0,0,1,1.69-.5,3.46,3.46,0,0,1,2.15.74,2.27,2.27,0,0,1,1,1.84,3.6,3.6,0,0,1-1,2.17,4.32,4.32,0,0,1-2.15,1.54c-.53.16-1.78.4-3.74.72a33.13,33.13,0,0,1-3.79.47c-.16,0-.24.31-.24.94A11.93,11.93,0,0,0,103,44a4.18,4.18,0,0,0,.71,1.31,1.31,1.31,0,0,0,1,.32,13,13,0,0,0,3.94-.84,9.08,9.08,0,0,0,3.24-1.63,3.29,3.29,0,0,1,2.32-1,2.67,2.67,0,0,1,2.13,1,2.94,2.94,0,0,1,.84,1.83A6,6,0,0,1,116.65,46.94Z"/><path class="cls-1" d="M39.43,29.76h-.15l-7.08.45q-2.82.2-6.53.2c-1.16,0-1.92,0-2.28-.05a10.86,10.86,0,0,0-1.29-.05,5.88,5.88,0,0,0-3.56.84,3.21,3.21,0,0,0-1.09,2.72,2.32,2.32,0,0,0,1.29,2.25,13.61,13.61,0,0,0,5,.87l1.48.1L25,41.64c0,.47-.05,1.23-.05,2.28,0,2,.07,3.86.2,5.64a15,15,0,0,0,.45,3,4.16,4.16,0,0,0,1.09,1.56A3.36,3.36,0,0,0,29,55.36a3.28,3.28,0,0,0,2.08-.94c.69-.6,1-1.13,1-1.59A5.55,5.55,0,0,0,32,52a53.51,53.51,0,0,1-.64-8.12c0-1.25,0-2.21.05-2.87l.2-4.7,4.35-.2a24.26,24.26,0,0,0,4.83-.57,2.33,2.33,0,0,0,1.61-1.51,4.21,4.21,0,0,0,.29-1.34,2.88,2.88,0,0,0-1-1.88A3.35,3.35,0,0,0,39.43,29.76Z"/><path class="cls-1" d="M51.21,23.63q2.17,0,2.77-3.57a5.41,5.41,0,0,0,.15-1,2.86,2.86,0,0,0-.84-1.68,3,3,0,0,0-2.18-1.19,2.62,2.62,0,0,0-2,1,4,4,0,0,0-.94,2.72c0,2.12.74,3.34,2.23,3.67A7.38,7.38,0,0,0,51.21,23.63Z"/><path class="cls-1" d="M55.37,35.51a22.8,22.8,0,0,0-.15-3.44,2.81,2.81,0,0,0-.79-1.37,2.75,2.75,0,0,0-1.88-.94,3,3,0,0,0-1.94.85,3.23,3.23,0,0,0-.89,1.13,6.66,6.66,0,0,0-.34,1.88q0,.1,0,.45c0,.23,0,.41,0,.54,0,1.66.14,3.93.42,6.84a47.11,47.11,0,0,0,.77,5.74,3.41,3.41,0,0,0,1.11,1.88,2.73,2.73,0,0,0,1.81.69A2.79,2.79,0,0,0,56,48.08a3.06,3.06,0,0,0,.2-1.34,29.85,29.85,0,0,0-.3-3.41A73,73,0,0,1,55.37,35.51Z"/><path class="cls-1" d="M87.79,28.28a5.42,5.42,0,0,0-4.36-2.48,5.59,5.59,0,0,0-1.78.3,9.74,9.74,0,0,0-3.56,2.72,18.45,18.45,0,0,0-3.22,4.61c-.86,1.81-1.42,2.72-1.68,2.72a16.15,16.15,0,0,1-2.43-2.23c-1.65-1.78-3.08-2.67-4.31-2.67q-2.07,0-3.81,3.71a11,11,0,0,0-1,2.82,42.62,42.62,0,0,0-.14,4.61A24.65,24.65,0,0,0,62,48.18a5.44,5.44,0,0,0,2,2.87,2.23,2.23,0,0,0,1.39.49,3,3,0,0,0,2.42-1.48,2.4,2.4,0,0,0,.6-1.34,15,15,0,0,0-.45-2.32,21,21,0,0,1-.64-5.1c0-.89.08-1.34.24-1.34a9.45,9.45,0,0,1,1.93,1.54,12.61,12.61,0,0,0,3.07,2.12,4.07,4.07,0,0,0,1.19.35,4.37,4.37,0,0,0,1.83-.69,5.11,5.11,0,0,0,1.74-1.39,32.77,32.77,0,0,0,2.07-3.76,30.53,30.53,0,0,1,2.78-4.85c.26-.27.44-.4.54-.4s.23.17.4.5Q84,35.17,84.77,43c.2,2.21.37,3.66.52,4.36a2.77,2.77,0,0,0,.77,1.53,2.61,2.61,0,0,0,2,.89,2.94,2.94,0,0,0,2.13-.94,4.13,4.13,0,0,0,.94-3.07,54.77,54.77,0,0,0-.6-6.38Q89.32,30.36,87.79,28.28Z"/><path class="cls-1" d="M114.22,42.14a3.29,3.29,0,0,0-2.32,1,9.08,9.08,0,0,1-3.24,1.63,13,13,0,0,1-3.94.84,1.31,1.31,0,0,1-1-.32A4.18,4.18,0,0,1,103,44a11.93,11.93,0,0,1-.89-4.6c0-.63.08-.94.24-.94a33.13,33.13,0,0,0,3.79-.47c2-.32,3.21-.56,3.74-.72a4.32,4.32,0,0,0,2.15-1.54,3.6,3.6,0,0,0,1-2.17,2.27,2.27,0,0,0-1-1.84,3.46,3.46,0,0,0-2.15-.74,2.86,2.86,0,0,0-1.69.5,7,7,0,0,1-3.16.69l-2.43,0,0-3.07-.1-3.12,2-.39c.79-.14,2.11-.33,4-.6a9.37,9.37,0,0,0,2.58-.49,3.1,3.1,0,0,0,1.14-1.24,3,3,0,0,0,.34-1.44,2.5,2.5,0,0,0-1.09-2.13,5.08,5.08,0,0,0-2.67-.49,22.41,22.41,0,0,0-4.55.54,32,32,0,0,1-3.72.55c-1.75,0-2.85.59-3.31,1.78a65.87,65.87,0,0,0-.52,7.08q-.33,6.44-.33,10.25v1.09a20.5,20.5,0,0,0,.9,4.35,13.59,13.59,0,0,0,1.63,3.86A6,6,0,0,0,104,51.54a23.23,23.23,0,0,0,5.24-.84A31.68,31.68,0,0,0,114.6,49a3.94,3.94,0,0,0,2.05-2,6,6,0,0,0,.54-2,2.94,2.94,0,0,0-.84-1.83A2.67,2.67,0,0,0,114.22,42.14Z"/><path class="cls-1" d="M67.5,204.29a8.82,8.82,0,1,0,8.82,8.82A8.82,8.82,0,0,0,67.5,204.29Z"/></svg>