<svg id="Layer_1" data-name="Layer 1" xmlns="http://www.w3.org/2000/svg" width="190" height="655" viewBox="0 0 190 655"><defs><style>.cls-1{opacity:0.6;}.cls-2{fill:#fff;}</style></defs><g class="cls-1"><path class="cls-2" d="M159.41,208.63c-19.56-17-30.89-92.11-30.89-118.06V17.34a8.13,8.13,0,0,0,7.53-8.58,8.37,8.37,0,0,0-8.45-7.68H62a8.36,8.36,0,0,0-8.47,7.83,8.15,8.15,0,0,0,7.82,8.45h.13V90.58c0,25.94-11.32,101-30.88,118A87.48,87.48,0,0,0,.5,274.72V310h0V619.22h0c0,19.16,42.31,34.7,94.5,34.7s94.5-15.54,94.5-34.7V274.72A87.41,87.41,0,0,0,159.41,208.63Z"/></g></svg>