<?xml version="1.0" encoding="utf-8"?>
<!-- Generator: Adobe Illustrator 26.0.1, SVG Export Plug-In . SVG Version: 6.00 Build 0)  -->
<svg version="1.1" id="Layer_1" xmlns="http://www.w3.org/2000/svg" xmlns:xlink="http://www.w3.org/1999/xlink" x="0px" y="0px"
	 viewBox="0 0 190 655" style="enable-background:new 0 0 190 655;" xml:space="preserve">
<style type="text/css">
	.st0{fill:#EC008C;}
</style>
<g>
	<path class="st0" d="M68.1,114.2c0,24.6-15.1,95.6-33.5,111.7c-18,15.8-28.3,38.6-28.3,62.6v326.1c0,18.1,39.7,32.8,88.8,32.8
		s88.8-14.7,88.8-32.8V288.5c0-23.9-10.3-46.7-28.3-62.5c-18.4-16.1-31-87-31-111.5l2-94c0-12.9,4.4-3.9,4.2-8.1s-0.9-4.8-5-4.7
		H64.1c-4.2-0.1-6.3,0.9-5,4.5c-0.2,4.3,4.3-4.4,4.3,8.4L68.1,114.2z"/>
</g>
</svg>
