<svg id="Layer_1" data-name="Layer 1" xmlns="http://www.w3.org/2000/svg" xmlns:xlink="http://www.w3.org/1999/xlink" width="1400" height="470" viewBox="0 0 1400 470"><defs><style>.cls-1{fill:#fff;}.cls-2{fill:#ec008c;}</style></defs><image width="8866" height="3614" transform="translate(-22.99 -149.51) scale(0.16)" xlink:href="title1.png"/><path class="cls-1" d="M773.32,293.76c-.28,0-.51.26-.69.77a9.79,9.79,0,0,0-.34,1c-.17.55-.42,1.25-.74,2.11s-.62,1.67-.9,2.42a24.54,24.54,0,0,0-1.56,5.53c0,.8.64,1.21,1.9,1.21h.52c4.43-.18,6.65-.95,6.65-2.34,0-.86-.63-2.81-1.9-5.87Q774.19,293.76,773.32,293.76Z"/><path class="cls-1" d="M711.33,308.61a38.7,38.7,0,0,1-6-.35l-1.9-.43.34,6.82a56.12,56.12,0,0,0,.61,7.52c.17.51.83.77,2,.77a16.1,16.1,0,0,0,5.49-1.16,9.49,9.49,0,0,0,4.27-2.64,9.22,9.22,0,0,0,1.47-4.57c.11-.92.17-1.53.17-1.82a4,4,0,0,0-1.12-2.76C715.76,309.07,714,308.61,711.33,308.61Z"/><path class="cls-1" d="M339.08,296.09a5.74,5.74,0,0,0-3.54-1c-1,0-1.55.23-1.55.69a6.11,6.11,0,0,1-1.3,2.42c-1,1.15-1.47,3-1.47,5.53,0,.8.15,1.21.43,1.21a10.71,10.71,0,0,0,2.9-1.3,37.24,37.24,0,0,0,3.93-2.42c1.32-1,2-2,2-2.93A2.51,2.51,0,0,0,339.08,296.09Z"/><path class="cls-1" d="M284.25,302.78a84.15,84.15,0,0,0-6.65-6.52,4,4,0,0,0-2.16-1.21q-.94,0-3.15,2.55a43.76,43.76,0,0,0-4.36,6.17q-2.25,3.81-2.25,5.44a6.2,6.2,0,0,0,.09,1.21,9.33,9.33,0,0,0,5.1,7.26l2.41,1.38,5-1.21q4.92-1.22,5.53-2,1.81-2.24,1.81-7.16a14.2,14.2,0,0,0-.09-1.9A8.56,8.56,0,0,0,284.25,302.78Z"/><path class="cls-1" d="M838.26,296.09a5.74,5.74,0,0,0-3.54-1q-1.56,0-1.56.69a6,6,0,0,1-1.29,2.42c-1,1.15-1.47,3-1.47,5.53,0,.8.14,1.21.43,1.21a10.58,10.58,0,0,0,2.89-1.3,35.28,35.28,0,0,0,3.93-2.42c1.33-1,2-2,2-2.93A2.51,2.51,0,0,0,838.26,296.09Z"/><path class="cls-1" d="M706.84,296.56a14.28,14.28,0,0,0,3.28-3.41,7.59,7.59,0,0,0,1.38-3.71,3.23,3.23,0,0,0-1.9-2.76,8.61,8.61,0,0,0-4.58-1.21c-.92,0-1.49.14-1.72.43s-.44,2.39-.44,6.3.15,5.87.44,6.05a.33.33,0,0,0,.26.08C704.25,298.33,705.34,297.74,706.84,296.56Z"/><path class="cls-1" d="M1099,279.94c-.75-.75-2.33-1.12-4.75-1.12a12.28,12.28,0,0,0-4.49.69,6.9,6.9,0,0,0-1.08.43,1.43,1.43,0,0,0-.52.78,5.81,5.81,0,0,0-.22,1.81c0,.64.21,3.51.61,8.64q.51,5.26,1,11.74a19,19,0,0,0,.51,3.41,1.08,1.08,0,0,0,1.13.74q3.45,0,7.08-4.19a25,25,0,0,0,5.18-10,11.23,11.23,0,0,0,.52-2.76c0-.8-.61-2.42-1.82-4.83A22.18,22.18,0,0,0,1099,279.94Z"/><path class="cls-1" d="M1215.23,247.25H161.66a35.9,35.9,0,0,0-35.86,35.87v43.39a35.9,35.9,0,0,0,35.86,35.86H1215.23a35.9,35.9,0,0,0,35.86-35.86V283.12A35.9,35.9,0,0,0,1215.23,247.25ZM170.44,296a5.81,5.81,0,0,1-4.57,1.64,6.77,6.77,0,0,0-2.46.26,1.6,1.6,0,0,0-.65,1.21v1.21a31.28,31.28,0,0,0,1.64,8.89,34,34,0,0,1,1.47,9.93A17,17,0,0,1,164.4,327a11.64,11.64,0,0,1-11,6.74,22.17,22.17,0,0,1-2.33-.09q-7.33-.78-8.63-4.06a7.8,7.8,0,0,1-.61-2.33,5.52,5.52,0,0,1,1.56-3,5.4,5.4,0,0,1,2.16-1.6,18,18,0,0,1,4.23-.3h4.83l.17-2.76V319a28.71,28.71,0,0,0-1.2-7.25,39.91,39.91,0,0,1-1.56-11.05v-1.56a17.05,17.05,0,0,1,.35-4.1,12.6,12.6,0,0,1,1.38-3,13.29,13.29,0,0,1,3.62-4.14,8.66,8.66,0,0,1,5.27-1.47,12.52,12.52,0,0,1,5.48,1.21,6.14,6.14,0,0,1,3.33,3.19,8.17,8.17,0,0,1,.6,2.25A4.75,4.75,0,0,1,170.44,296ZM231,286.68a5,5,0,0,1-4.31,1.9,12.4,12.4,0,0,1-4.93-1.13,11.78,11.78,0,0,0-10.57.87,11,11,0,0,0-4.45,4.66,13,13,0,0,0-1,6,9.53,9.53,0,0,0,.52,3.84,18.06,18.06,0,0,0,3,3.41,15.28,15.28,0,0,0,10.71,4.58c.63,0,1.64-.06,3-.17a19,19,0,0,1,2.77-.18,4.21,4.21,0,0,1,3.1,1.3,5,5,0,0,1,1.47,3.71,5.82,5.82,0,0,1-1.9,4.4,4.9,4.9,0,0,1-2.63,1.47,43.39,43.39,0,0,1-6.18.26,41.38,41.38,0,0,1-6.51-.34,18.42,18.42,0,0,1-4.62-1.73,30.29,30.29,0,0,1-12.09-10.88,10.11,10.11,0,0,1-1.56-3,17.18,17.18,0,0,1-.34-4.1c0-.23,0-.66,0-1.3s0-1.15,0-1.55A41,41,0,0,1,195,292a20.62,20.62,0,0,1,2-4.92,19.91,19.91,0,0,1,6.39-7.47q3.7-2.46,11.31-4.36a7.68,7.68,0,0,1,2.16-.26,25.45,25.45,0,0,1,10.1,2.33c3.68,1.61,5.53,3.48,5.53,5.61A6.18,6.18,0,0,1,231,286.68Zm64.16,29.87q-2,5.54-4.92,7.82t-10.45,4.19a31.34,31.34,0,0,1-6.3,1.12c-1.85,0-4.35-.83-7.52-2.51a21.3,21.3,0,0,1-8.11-7.38A18.07,18.07,0,0,1,255,310a20.56,20.56,0,0,1,2.33-9.32,49.73,49.73,0,0,1,5.7-8.47c2.59-3.22,4.54-5.18,5.87-5.87a8.84,8.84,0,0,1,4.32-1.21,5.62,5.62,0,0,1,4.4,1.73,5.84,5.84,0,0,0,4.32,1.64,9.06,9.06,0,0,1,4.27.86,19.17,19.17,0,0,1,4.19,3.63,25.44,25.44,0,0,1,3.76,5,20,20,0,0,1,1.59,5.74,45,45,0,0,1,.69,6.39A19,19,0,0,1,295.13,316.55Zm62.95,12.27a4.44,4.44,0,0,1-1.82,1.89,5.67,5.67,0,0,1-2.59.78c-1.72,0-4.2-1.49-7.42-4.49a48.11,48.11,0,0,0-10.45-7.34q-4.32-2.16-5.18-2.16c-.64,0-1,.41-1.17,1.21a36,36,0,0,0-.21,4.92v1.21a27.77,27.77,0,0,1-.26,4.84,5.38,5.38,0,0,1-1.56,2.42,5.27,5.27,0,0,1-3.71,1.81,4.65,4.65,0,0,1-3.28-1.55q-2-2-2-7,0-3.54.95-11.91,1.31-10.45,1.47-16.15a34.7,34.7,0,0,1,.52-6.13c.23-.87,1.26-2,3.11-3.46a21.43,21.43,0,0,1,5.18-3.11,13.29,13.29,0,0,1,4.23-.69,19.79,19.79,0,0,1,8.85,2.21,16.57,16.57,0,0,1,6.69,5.57,12.2,12.2,0,0,1,1.73,7,12,12,0,0,1-1.21,5.66,17,17,0,0,1-4.23,4.79L343,311.37l2.15,1a45.18,45.18,0,0,1,7.86,6.26q5.26,4.88,5.62,6.26a5.08,5.08,0,0,1,.17,1.12A5.83,5.83,0,0,1,358.08,328.82Zm58.54-10.37A6.83,6.83,0,0,1,413,322a55.24,55.24,0,0,1-9.37,3.07,40.45,40.45,0,0,1-9.15,1.46,10.37,10.37,0,0,1-9-4.92,23.91,23.91,0,0,1-2.85-6.73,35.24,35.24,0,0,1-1.56-7.6v-1.9q0-6.65.56-17.88t.91-12.34c.8-2.08,2.73-3.11,5.78-3.11a55.64,55.64,0,0,0,6.48-.95,39.13,39.13,0,0,1,7.95-.95c2.3,0,3.85.29,4.66.86a4.38,4.38,0,0,1,1.9,3.71,5.12,5.12,0,0,1-.61,2.51,5.28,5.28,0,0,1-2,2.16,15.93,15.93,0,0,1-4.49.86q-4.85.69-6.91,1l-3.45.69.17,5.44.08,5.35,4.24-.09c2.93-.22,4.77-.63,5.52-1.2a4.92,4.92,0,0,1,2.94-.87,6,6,0,0,1,3.75,1.3,3.88,3.88,0,0,1,1.69,3.19,6.21,6.21,0,0,1-1.69,3.8,7.62,7.62,0,0,1-3.75,2.68,62.8,62.8,0,0,1-6.52,1.25,55.82,55.82,0,0,1-6.61.82c-.29,0-.43.55-.43,1.64a21.11,21.11,0,0,0,1.55,8,7.39,7.39,0,0,0,1.26,2.29,2.24,2.24,0,0,0,1.68.56,22.43,22.43,0,0,0,6.87-1.47q4.27-1.45,5.65-2.85a5.74,5.74,0,0,1,4.06-1.72,4.65,4.65,0,0,1,3.71,1.72,5.15,5.15,0,0,1,1.47,3.2A10.47,10.47,0,0,1,416.62,318.45ZM518.08,296a4.06,4.06,0,0,1-2.81,2.64,43,43,0,0,1-8.42,1l-7.59.34-.35,8.21q-.09,1.72-.09,5A93.54,93.54,0,0,0,500,327.35a11.4,11.4,0,0,1,.17,1.38c0,.81-.61,1.73-1.81,2.76a5.67,5.67,0,0,1-3.63,1.64,5.84,5.84,0,0,1-4-2.07,7.43,7.43,0,0,1-1.9-2.72A27,27,0,0,1,488,323q-.34-4.66-.34-9.84c0-1.85,0-3.17.08-4l.26-7.94-2.59-.17c-4.26-.23-7.14-.74-8.64-1.51a4.09,4.09,0,0,1-2.24-3.93q0-3.29,1.9-4.75t6.22-1.47a20.88,20.88,0,0,1,2.24.09c.63.05,2,.08,4,.08q6.48,0,11.4-.34,10.62-.69,12.35-.78h.26a5.73,5.73,0,0,1,3.88,1.9,5,5,0,0,1,1.82,3.28A7.35,7.35,0,0,1,518.08,296Zm59.41-18.56q-.35,4-.69,23.23-.18,13.13-.35,15.58a4.7,4.7,0,0,1-1.21,3.33,4.39,4.39,0,0,1-2.93,1.12q-6.31,0-6.31-15.29V299h-4.75a44.39,44.39,0,0,0-7.42.52c-1.9.35-2.85,1.16-2.85,2.42a7.81,7.81,0,0,0,1.21,3.63,8.09,8.09,0,0,1,1.12,4c0,.35-.06,1.09-.17,2.24-.64,4.21-2.08,6.71-4.32,7.52a7.17,7.17,0,0,1-2.25.43q-4.4,0-5.26-9.84-.52-4.16-.52-28.93,0-6.74.09-7.77c0-.69.57-1.61,1.72-2.77a4.49,4.49,0,0,1,3.54-1.72,5.28,5.28,0,0,1,3.8,1.72l1.64,1.64q-.09,2.85-.43,8.6c-.23,3.82-.37,6.69-.43,8.59l7.77-.52a70.63,70.63,0,0,0,7.94-.61,75.88,75.88,0,0,0,.7-8.2c.22-4,.43-6.37.6-7.21a4.27,4.27,0,0,1,1.64-2.37A5.59,5.59,0,0,1,573,268.8a4.79,4.79,0,0,1,3.36,1.64,4.31,4.31,0,0,1,1.47,3C577.83,273.58,577.72,274.91,577.49,277.44Zm57.76,41a6.83,6.83,0,0,1-3.58,3.5A54.92,54.92,0,0,1,622.3,325a40.29,40.29,0,0,1-9.15,1.46,10.39,10.39,0,0,1-9-4.92,23.91,23.91,0,0,1-2.85-6.73,35.86,35.86,0,0,1-1.56-7.6v-1.9q0-6.65.57-17.88t.9-12.34C602,273,604,272,607,272a55.22,55.22,0,0,0,6.47-.95,39.21,39.21,0,0,1,8-.95c2.3,0,3.85.29,4.66.86a4.35,4.35,0,0,1,1.9,3.71,5.23,5.23,0,0,1-.6,2.51,5.36,5.36,0,0,1-2,2.16,15.93,15.93,0,0,1-4.49.86c-3.22.46-5.53.81-6.91,1l-3.45.69.17,5.44.09,5.35,4.23-.09c2.93-.22,4.78-.63,5.52-1.2a4.92,4.92,0,0,1,2.94-.87,6,6,0,0,1,3.76,1.3,3.9,3.9,0,0,1,1.68,3.19,6.25,6.25,0,0,1-1.68,3.8,7.69,7.69,0,0,1-3.76,2.68,62.21,62.21,0,0,1-6.52,1.25,55.74,55.74,0,0,1-6.6.82c-.29,0-.44.55-.44,1.64a20.93,20.93,0,0,0,1.56,8,7.42,7.42,0,0,0,1.25,2.29,2.26,2.26,0,0,0,1.68.56,22.43,22.43,0,0,0,6.87-1.47q4.28-1.45,5.65-2.85a5.76,5.76,0,0,1,4.06-1.72,4.67,4.67,0,0,1,3.72,1.72,5.19,5.19,0,0,1,1.46,3.2A10.22,10.22,0,0,1,635.25,318.45Zm87.65,7.73q-4.57,4.8-14.25,6.43a19.62,19.62,0,0,1-3.2.26,12.09,12.09,0,0,1-7.85-3.19l-2.51-2.16-.43-7.69Q693,294.2,693,287.37a25.31,25.31,0,0,1,.09-2.77,11.15,11.15,0,0,1,2-4.66,8.48,8.48,0,0,1,3.72-3q1.38-.69,5.61-.69h1.64a23.45,23.45,0,0,1,4.88.47,15.84,15.84,0,0,1,3.5,1.6,16.46,16.46,0,0,1,4.92,4.49,11.49,11.49,0,0,1,2,6.56,13.48,13.48,0,0,1-1.46,6,11.94,11.94,0,0,0-1.39,3.45c0,.41.75,1,2.25,1.9,1.32.69,2.85,2.36,4.57,5a20.05,20.05,0,0,1,1.82,3.63,11.5,11.5,0,0,1,.43,3.54Q727.47,321.39,722.9,326.18Zm69.68-1.08a5.47,5.47,0,0,1-2.33.69c-2,0-3.74-1.78-5.36-5.35-1.26-2.76-2.13-4.29-2.59-4.58a2.77,2.77,0,0,0-.86-.08,21.24,21.24,0,0,0-3.71.43c-1.73.34-4.61.72-8.64,1.12l-4.83.43L762.1,323q-3.54,8.89-7.34,8.89a4.71,4.71,0,0,1-3.28-1.46,4.21,4.21,0,0,1-1.56-3q0-1.73,3.89-11.22,3.63-9.15,6-15.89c1-3.05,1.91-5.66,2.8-7.81s1.74-4.39,2.55-6.7q2.07-5.52,4.32-7.77a6,6,0,0,1,4.14-2.07q5,0,9.33,12.43a17.65,17.65,0,0,0,1.9,4.23,90.15,90.15,0,0,1,3.28,8.9,87.85,87.85,0,0,0,5,12.35,15.41,15.41,0,0,1,2.24,6.9A4.55,4.55,0,0,1,792.58,325.1Zm64.67,3.72a4.42,4.42,0,0,1-1.81,1.89,5.67,5.67,0,0,1-2.59.78c-1.73,0-4.2-1.49-7.43-4.49A48,48,0,0,0,835,319.66q-4.32-2.16-5.18-2.16c-.64,0-1,.41-1.17,1.21a35.43,35.43,0,0,0-.22,4.92v1.21a26.76,26.76,0,0,1-.26,4.84,5.35,5.35,0,0,1-1.55,2.42,5.29,5.29,0,0,1-3.71,1.81,4.63,4.63,0,0,1-3.28-1.55q-2-2-2-7,0-3.54,1-11.91Q819.86,303,820,297.3a33.69,33.69,0,0,1,.52-6.13q.35-1.31,3.1-3.46a21.47,21.47,0,0,1,5.19-3.11,13.29,13.29,0,0,1,4.23-.69,19.83,19.83,0,0,1,8.85,2.21,16.63,16.63,0,0,1,6.69,5.57,14.46,14.46,0,0,1,.52,12.65,17,17,0,0,1-4.23,4.79l-2.77,2.24,2.16,1a45.18,45.18,0,0,1,7.86,6.26q5.26,4.88,5.61,6.26a4.63,4.63,0,0,1,.18,1.12A5.73,5.73,0,0,1,857.25,328.82ZM924.09,296a4.06,4.06,0,0,1-2.81,2.64,43.1,43.1,0,0,1-8.42,1l-7.6.34-.34,8.21q-.09,1.72-.09,5A93.54,93.54,0,0,0,906,327.35a11.4,11.4,0,0,1,.17,1.38c0,.81-.61,1.73-1.82,2.76a5.63,5.63,0,0,1-3.62,1.64,5.84,5.84,0,0,1-4-2.07,7.43,7.43,0,0,1-1.9-2.72A27,27,0,0,1,894,323q-.35-4.66-.35-9.84c0-1.85,0-3.17.09-4l.26-7.94-2.59-.17c-4.26-.23-7.14-.74-8.64-1.51a4.09,4.09,0,0,1-2.24-3.93q0-3.29,1.9-4.75c1.26-1,3.34-1.47,6.21-1.47a21.09,21.09,0,0,1,2.25.09c.63.05,2,.08,4,.08q6.48,0,11.4-.34,10.62-.69,12.35-.78h.26a5.73,5.73,0,0,1,3.88,1.9,5,5,0,0,1,1.82,3.28A7.65,7.65,0,0,1,924.09,296Zm58.28,22.45a6.83,6.83,0,0,1-3.58,3.5,55.24,55.24,0,0,1-9.37,3.07,40.45,40.45,0,0,1-9.15,1.46,10.37,10.37,0,0,1-9-4.92,23.91,23.91,0,0,1-2.85-6.73,35.86,35.86,0,0,1-1.56-7.6v-1.9q0-6.65.56-17.88t.91-12.34c.81-2.08,2.73-3.11,5.79-3.11a55.83,55.83,0,0,0,6.47-.95,39.13,39.13,0,0,1,7.95-.95c2.3,0,3.85.29,4.66.86a4.38,4.38,0,0,1,1.9,3.71,5.12,5.12,0,0,1-.61,2.51,5.28,5.28,0,0,1-2,2.16,15.93,15.93,0,0,1-4.49.86q-4.85.69-6.91,1l-3.45.69.17,5.44.09,5.35,4.23-.09c2.93-.22,4.77-.63,5.52-1.2a4.92,4.92,0,0,1,2.94-.87,6,6,0,0,1,3.75,1.3,3.88,3.88,0,0,1,1.69,3.19,6.21,6.21,0,0,1-1.69,3.8,7.62,7.62,0,0,1-3.75,2.68,62.8,62.8,0,0,1-6.52,1.25,55.82,55.82,0,0,1-6.61.82c-.29,0-.43.55-.43,1.64a20.93,20.93,0,0,0,1.56,8,7.21,7.21,0,0,0,1.25,2.29,2.24,2.24,0,0,0,1.68.56,22.43,22.43,0,0,0,6.87-1.47q4.27-1.45,5.65-2.85a5.74,5.74,0,0,1,4.06-1.72,4.65,4.65,0,0,1,3.71,1.72,5.15,5.15,0,0,1,1.47,3.2A10.47,10.47,0,0,1,982.37,318.45Zm71.84-24.52q-.51,1.81-3.28,12.78a56.56,56.56,0,0,1-3.45,10.53c-1.38,3.06-2.71,5.07-4,6.05a7.37,7.37,0,0,1-4.84,1.38,19.81,19.81,0,0,1-12.17-4.23,25.06,25.06,0,0,1-5.36-5.87q-3.1-3.88-3.45-3.89c-.17,0-.55,2.25-1.12,6.74a42.35,42.35,0,0,1-.87,5.74,6.19,6.19,0,0,1-1.29,2.55,5.06,5.06,0,0,1-3.8,1.64,5.32,5.32,0,0,1-3.54-1.3,4.73,4.73,0,0,1-1.47-3.88c0-.23,0-.64,0-1.21s.05-1,.05-1.38a90.56,90.56,0,0,1,1.2-12c.7-4.2,1.41-7,2.16-8.37q3.29-6.39,7.52-6.39a5.07,5.07,0,0,1,3.41,1.08,22.86,22.86,0,0,1,3.58,5.05q8.37,14.51,13.38,14.51,1.38,0,5.79-18.31c1-4.09,1.8-6.76,2.29-8a7.08,7.08,0,0,1,2.29-3.11,5.11,5.11,0,0,1,3.1-.78,5.24,5.24,0,0,1,2.77.61,4,4,0,0,1,2.24,3.88A24.48,24.48,0,0,1,1054.21,293.93Zm56.78,8.12a31.56,31.56,0,0,1-8.25,10.62q-6.48,5.35-13.56,5.35a5.57,5.57,0,0,1-.64,0,5.22,5.22,0,0,0-.57,0,22.9,22.9,0,0,1-5.09-.91,4,4,0,0,1-1.9-2q-.69-1.47-1.94-14.64t-1.25-19.3v-.77q.17-4.32,1.81-6.48t5.87-3.54a35.15,35.15,0,0,1,10.45-1.38,22.2,22.2,0,0,1,5.87.6,9.77,9.77,0,0,1,4.15,2.64,21.22,21.22,0,0,1,3.71,5q3.28,6.48,4,8.33a12.28,12.28,0,0,1,.69,4.28A27.94,27.94,0,0,1,1111,302.05Zm61.09,16.4a6.87,6.87,0,0,1-3.58,3.5,55.24,55.24,0,0,1-9.37,3.07,40.44,40.44,0,0,1-9.16,1.46,10.4,10.4,0,0,1-9-4.92,23.91,23.91,0,0,1-2.85-6.73,35.12,35.12,0,0,1-1.55-7.6v-1.9q0-6.65.56-17.88t.91-12.34c.8-2.08,2.73-3.11,5.78-3.11a55.64,55.64,0,0,0,6.48-.95,39.12,39.12,0,0,1,7.94-.95c2.3,0,3.86.29,4.67.86a4.38,4.38,0,0,1,1.9,3.71,5.53,5.53,0,0,1-2.59,4.67,16,16,0,0,1-4.49.86q-4.85.69-6.91,1l-3.46.69.18,5.44.08,5.35,4.23-.09c2.94-.22,4.78-.63,5.53-1.2a4.87,4.87,0,0,1,2.94-.87,6,6,0,0,1,3.75,1.3,3.91,3.91,0,0,1,1.69,3.19,6.27,6.27,0,0,1-1.69,3.8,7.62,7.62,0,0,1-3.75,2.68,63.4,63.4,0,0,1-6.52,1.25,55.82,55.82,0,0,1-6.61.82c-.29,0-.43.55-.43,1.64a21.11,21.11,0,0,0,1.55,8,7.42,7.42,0,0,0,1.25,2.29,2.28,2.28,0,0,0,1.69.56,22.38,22.38,0,0,0,6.86-1.47q4.27-1.45,5.66-2.85a5.74,5.74,0,0,1,4.06-1.72,4.67,4.67,0,0,1,3.71,1.72A5.15,5.15,0,0,1,1173,315,10.47,10.47,0,0,1,1172.08,318.45Zm62.77,10.37a4.42,4.42,0,0,1-1.81,1.89,5.67,5.67,0,0,1-2.59.78c-1.73,0-4.2-1.49-7.43-4.49a48,48,0,0,0-10.44-7.34q-4.32-2.16-5.19-2.16c-.63,0-1,.41-1.16,1.21a33.86,33.86,0,0,0-.22,4.92v1.21a26.76,26.76,0,0,1-.26,4.84,5.35,5.35,0,0,1-1.55,2.42,5.29,5.29,0,0,1-3.71,1.81,4.61,4.61,0,0,1-3.28-1.55q-2-2-2-7,0-3.54,1-11.91,1.29-10.45,1.47-16.15a32.73,32.73,0,0,1,.52-6.13c.22-.87,1.26-2,3.1-3.46a21.62,21.62,0,0,1,5.18-3.11,13.4,13.4,0,0,1,4.24-.69,19.83,19.83,0,0,1,8.85,2.21,16.63,16.63,0,0,1,6.69,5.57,14.46,14.46,0,0,1,.52,12.65,17,17,0,0,1-4.23,4.79l-2.77,2.24,2.16,1a45.18,45.18,0,0,1,7.86,6.26q5.27,4.88,5.61,6.26a4.54,4.54,0,0,1,.17,1.12A5.83,5.83,0,0,1,1234.85,328.82Z"/><path class="cls-1" d="M1215.86,296.09a5.76,5.76,0,0,0-3.54-1q-1.56,0-1.56.69a6,6,0,0,1-1.29,2.42c-1,1.15-1.47,3-1.47,5.53,0,.8.14,1.21.43,1.21a10.58,10.58,0,0,0,2.89-1.3,35.28,35.28,0,0,0,3.93-2.42c1.33-1,2-2,2-2.93A2.51,2.51,0,0,0,1215.86,296.09Z"/><path d="M1228.8,231.22H1128.39l44.84-297.86-2.65-.4-44.9,298.26H215.34L184.27-54.86l-2.67.29,31.05,285.79h-65.5a38.58,38.58,0,0,0-38.54,38.54v69a38.58,38.58,0,0,0,38.54,38.54H1228.8a38.58,38.58,0,0,0,38.54-38.54v-69A38.58,38.58,0,0,0,1228.8,231.22Zm22.29,95.29a35.9,35.9,0,0,1-35.86,35.86H161.66a35.9,35.9,0,0,1-35.86-35.86V283.12a35.9,35.9,0,0,1,35.86-35.87H1215.23a35.9,35.9,0,0,1,35.86,35.87Z"/><path class="cls-2" d="M168.15,287.63a12.52,12.52,0,0,0-5.48-1.21,8.66,8.66,0,0,0-5.27,1.47,13.29,13.29,0,0,0-3.62,4.14,12.6,12.6,0,0,0-1.38,3,17.05,17.05,0,0,0-.35,4.1v1.56a39.91,39.91,0,0,0,1.56,11.05,28.71,28.71,0,0,1,1.2,7.25v.61l-.17,2.76h-4.83a18,18,0,0,0-4.23.3,5.4,5.4,0,0,0-2.16,1.6,5.52,5.52,0,0,0-1.56,3,7.8,7.8,0,0,0,.61,2.33q1.29,3.29,8.63,4.06a22.17,22.17,0,0,0,2.33.09,11.64,11.64,0,0,0,11-6.74,17,17,0,0,0,1.47-7.86,34,34,0,0,0-1.47-9.93,31.28,31.28,0,0,1-1.64-8.89v-1.21a1.6,1.6,0,0,1,.65-1.21,6.77,6.77,0,0,1,2.46-.26,5.81,5.81,0,0,0,4.57-1.64,4.75,4.75,0,0,0,1.64-2.93,8.17,8.17,0,0,0-.6-2.25A6.14,6.14,0,0,0,168.15,287.63Z"/><path class="cls-2" d="M227,277.35A25.45,25.45,0,0,0,216.9,275a7.68,7.68,0,0,0-2.16.26q-7.61,1.91-11.31,4.36a19.91,19.91,0,0,0-6.39,7.47,20.62,20.62,0,0,0-2,4.92,41,41,0,0,0-.48,6.65c0,.4,0,.92,0,1.55s0,1.07,0,1.3a17.18,17.18,0,0,0,.34,4.1,10.11,10.11,0,0,0,1.56,3,30.29,30.29,0,0,0,12.09,10.88,18.42,18.42,0,0,0,4.62,1.73,41.38,41.38,0,0,0,6.51.34,43.39,43.39,0,0,0,6.18-.26,4.9,4.9,0,0,0,2.63-1.47,5.82,5.82,0,0,0,1.9-4.4,5,5,0,0,0-1.47-3.71,4.21,4.21,0,0,0-3.1-1.3,19,19,0,0,0-2.77.18c-1.38.11-2.39.17-3,.17a15.28,15.28,0,0,1-10.71-4.58,18.06,18.06,0,0,1-3-3.41,9.53,9.53,0,0,1-.52-3.84,13,13,0,0,1,1-6,11,11,0,0,1,4.45-4.66,11.78,11.78,0,0,1,10.57-.87,12.4,12.4,0,0,0,4.93,1.13,5,5,0,0,0,4.31-1.9,6.18,6.18,0,0,0,1.56-3.72C232.53,280.83,230.68,279,227,277.35Z"/><path class="cls-2" d="M294.14,298a25.44,25.44,0,0,0-3.76-5,19.17,19.17,0,0,0-4.19-3.63,9.06,9.06,0,0,0-4.27-.86,5.84,5.84,0,0,1-4.32-1.64,5.62,5.62,0,0,0-4.4-1.73,8.84,8.84,0,0,0-4.32,1.21c-1.33.69-3.28,2.65-5.87,5.87a49.73,49.73,0,0,0-5.7,8.47A20.56,20.56,0,0,0,255,310a18.07,18.07,0,0,0,2.85,9.8,21.3,21.3,0,0,0,8.11,7.38c3.17,1.68,5.67,2.51,7.52,2.51a31.34,31.34,0,0,0,6.3-1.12q7.51-1.9,10.45-4.19t4.92-7.82a19,19,0,0,0,1.29-6.47,45,45,0,0,0-.69-6.39A20,20,0,0,0,294.14,298Zm-10.32,17.91q-.61.78-5.53,2l-5,1.21-2.41-1.38a9.33,9.33,0,0,1-5.1-7.26,6.2,6.2,0,0,1-.09-1.21q0-1.63,2.25-5.44a43.76,43.76,0,0,1,4.36-6.17q2.2-2.55,3.15-2.55a4,4,0,0,1,2.16,1.21,84.15,84.15,0,0,1,6.65,6.52,8.56,8.56,0,0,1,1.29,4,14.2,14.2,0,0,1,.09,1.9Q285.63,313.62,283.82,315.86Z"/><path class="cls-2" d="M353,318.67a45.18,45.18,0,0,0-7.86-6.26l-2.15-1,2.76-2.24a17,17,0,0,0,4.23-4.79,12,12,0,0,0,1.21-5.66,12.2,12.2,0,0,0-1.73-7,16.57,16.57,0,0,0-6.69-5.57,19.79,19.79,0,0,0-8.85-2.21,13.29,13.29,0,0,0-4.23.69,21.43,21.43,0,0,0-5.18,3.11c-1.85,1.44-2.88,2.59-3.11,3.46a34.7,34.7,0,0,0-.52,6.13q-.17,5.7-1.47,16.15-.94,8.37-.95,11.91,0,5,2,7a4.65,4.65,0,0,0,3.28,1.55,5.27,5.27,0,0,0,3.71-1.81,5.38,5.38,0,0,0,1.56-2.42,27.77,27.77,0,0,0,.26-4.84v-1.21a36,36,0,0,1,.21-4.92c.15-.8.53-1.21,1.17-1.21s2.3.72,5.18,2.16A48.11,48.11,0,0,1,346.25,327c3.22,3,5.7,4.49,7.42,4.49a5.67,5.67,0,0,0,2.59-.78,4.44,4.44,0,0,0,1.82-1.89,5.83,5.83,0,0,0,.69-2.77,5.08,5.08,0,0,0-.17-1.12Q358.24,323.55,353,318.67Zm-14.5-17.49a37.24,37.24,0,0,1-3.93,2.42,10.71,10.71,0,0,1-2.9,1.3c-.28,0-.43-.41-.43-1.21,0-2.53.49-4.38,1.47-5.53a6.11,6.11,0,0,0,1.3-2.42c0-.46.51-.69,1.55-.69a5.74,5.74,0,0,1,3.54,1,2.51,2.51,0,0,1,1.38,2.16C340.46,299.17,339.8,300.15,338.48,301.18Z"/><path class="cls-2" d="M412.39,310.08a5.74,5.74,0,0,0-4.06,1.72q-1.38,1.4-5.65,2.85a22.43,22.43,0,0,1-6.87,1.47,2.24,2.24,0,0,1-1.68-.56,7.39,7.39,0,0,1-1.26-2.29,21.11,21.11,0,0,1-1.55-8c0-1.09.14-1.64.43-1.64a55.82,55.82,0,0,0,6.61-.82,62.8,62.8,0,0,0,6.52-1.25,7.62,7.62,0,0,0,3.75-2.68,6.21,6.21,0,0,0,1.69-3.8,3.88,3.88,0,0,0-1.69-3.19,6,6,0,0,0-3.75-1.3,4.92,4.92,0,0,0-2.94.87c-.75.57-2.59,1-5.52,1.2l-4.24.09-.08-5.35-.17-5.44,3.45-.69q2.07-.35,6.91-1a15.93,15.93,0,0,0,4.49-.86,5.28,5.28,0,0,0,2-2.16,5.12,5.12,0,0,0,.61-2.51,4.38,4.38,0,0,0-1.9-3.71c-.81-.57-2.36-.86-4.66-.86a39.13,39.13,0,0,0-7.95.95,55.64,55.64,0,0,1-6.48.95c-3.05,0-5,1-5.78,3.11q-.35,1.11-.91,12.34t-.56,17.88v1.9a35.24,35.24,0,0,0,1.56,7.6,23.91,23.91,0,0,0,2.85,6.73,10.37,10.37,0,0,0,9,4.92,40.45,40.45,0,0,0,9.15-1.46A55.24,55.24,0,0,0,413,322a6.83,6.83,0,0,0,3.58-3.5,10.47,10.47,0,0,0,.95-3.45,5.15,5.15,0,0,0-1.47-3.2A4.65,4.65,0,0,0,412.39,310.08Z"/><path class="cls-2" d="M512.9,288.49h-.26q-1.72.09-12.35.78-4.92.35-11.4.34c-2,0-3.34,0-4-.08a20.88,20.88,0,0,0-2.24-.09q-4.32,0-6.22,1.47t-1.9,4.75a4.09,4.09,0,0,0,2.24,3.93c1.5.77,4.38,1.28,8.64,1.51l2.59.17-.26,7.94c-.06.81-.08,2.13-.08,4q0,5.18.34,9.84a27,27,0,0,0,.78,5.31,7.43,7.43,0,0,0,1.9,2.72,5.84,5.84,0,0,0,4,2.07,5.67,5.67,0,0,0,3.63-1.64c1.2-1,1.81-1.95,1.81-2.76a11.4,11.4,0,0,0-.17-1.38,93.54,93.54,0,0,1-1.13-14.16q0-3.29.09-5l.35-8.21,7.59-.34a43,43,0,0,0,8.42-1,4.06,4.06,0,0,0,2.81-2.64,7.35,7.35,0,0,0,.52-2.33,5,5,0,0,0-1.82-3.28A5.73,5.73,0,0,0,512.9,288.49Z"/><path class="cls-2" d="M573,268.8a5.59,5.59,0,0,0-3.63,1.56,4.27,4.27,0,0,0-1.64,2.37c-.17.84-.38,3.24-.6,7.21a75.88,75.88,0,0,1-.7,8.2,70.63,70.63,0,0,1-7.94.61l-7.77.52c.06-1.9.2-4.77.43-8.59s.37-6.7.43-8.6l-1.64-1.64a5.28,5.28,0,0,0-3.8-1.72,4.49,4.49,0,0,0-3.54,1.72c-1.15,1.16-1.72,2.08-1.72,2.77s-.09,3.28-.09,7.77q0,24.78.52,28.93.86,9.84,5.26,9.84a7.17,7.17,0,0,0,2.25-.43c2.24-.81,3.68-3.31,4.32-7.52.11-1.15.17-1.89.17-2.24a8.09,8.09,0,0,0-1.12-4A7.81,7.81,0,0,1,551,302c0-1.26.95-2.07,2.85-2.42a44.39,44.39,0,0,1,7.42-.52H566v6.39q0,15.29,6.31,15.29a4.39,4.39,0,0,0,2.93-1.12,4.7,4.7,0,0,0,1.21-3.33q.18-2.46.35-15.58.35-19.26.69-23.23c.23-2.53.34-3.86.34-4a4.31,4.31,0,0,0-1.47-3A4.79,4.79,0,0,0,573,268.8Z"/><path class="cls-2" d="M631,310.08A5.76,5.76,0,0,0,627,311.8q-1.38,1.4-5.65,2.85a22.43,22.43,0,0,1-6.87,1.47,2.26,2.26,0,0,1-1.68-.56,7.42,7.42,0,0,1-1.25-2.29,20.93,20.93,0,0,1-1.56-8c0-1.09.15-1.64.44-1.64a55.74,55.74,0,0,0,6.6-.82,62.21,62.21,0,0,0,6.52-1.25,7.69,7.69,0,0,0,3.76-2.68,6.25,6.25,0,0,0,1.68-3.8,3.9,3.9,0,0,0-1.68-3.19,6,6,0,0,0-3.76-1.3,4.92,4.92,0,0,0-2.94.87c-.74.57-2.59,1-5.52,1.2l-4.23.09-.09-5.35-.17-5.44,3.45-.69c1.38-.23,3.69-.58,6.91-1a15.93,15.93,0,0,0,4.49-.86,5.36,5.36,0,0,0,2-2.16,5.23,5.23,0,0,0,.6-2.51,4.35,4.35,0,0,0-1.9-3.71c-.81-.57-2.36-.86-4.66-.86a39.21,39.21,0,0,0-8,.95A55.22,55.22,0,0,1,607,272c-3,0-5,1-5.79,3.11q-.35,1.11-.9,12.34t-.57,17.88v1.9a35.86,35.86,0,0,0,1.56,7.6,23.91,23.91,0,0,0,2.85,6.73,10.39,10.39,0,0,0,9,4.92A40.29,40.29,0,0,0,622.3,325a54.92,54.92,0,0,0,9.37-3.07,6.83,6.83,0,0,0,3.58-3.5,10.22,10.22,0,0,0,1-3.45,5.19,5.19,0,0,0-1.46-3.2A4.67,4.67,0,0,0,631,310.08Z"/><path class="cls-2" d="M725.31,305.76c-1.72-2.65-3.25-4.32-4.57-5-1.5-.86-2.25-1.49-2.25-1.9a11.94,11.94,0,0,1,1.39-3.45,13.48,13.48,0,0,0,1.46-6,11.49,11.49,0,0,0-2-6.56,16.46,16.46,0,0,0-4.92-4.49,15.84,15.84,0,0,0-3.5-1.6,23.45,23.45,0,0,0-4.88-.47h-1.64q-4.23,0-5.61.69a8.48,8.48,0,0,0-3.72,3,11.15,11.15,0,0,0-2,4.66,25.31,25.31,0,0,0-.09,2.77q0,6.83,1.64,32.46l.43,7.69,2.51,2.16a12.09,12.09,0,0,0,7.85,3.19,19.62,19.62,0,0,0,3.2-.26q9.68-1.64,14.25-6.43t4.66-13.25a11.5,11.5,0,0,0-.43-3.54A20.05,20.05,0,0,0,725.31,305.76ZM702.86,292.2q0-5.86.44-6.3c.23-.29.8-.43,1.72-.43a8.61,8.61,0,0,1,4.58,1.21,3.23,3.23,0,0,1,1.9,2.76,7.59,7.59,0,0,1-1.38,3.71,14.28,14.28,0,0,1-3.28,3.41c-1.5,1.18-2.59,1.77-3.28,1.77a.33.33,0,0,1-.26-.08C703,298.07,702.86,296.06,702.86,292.2Zm14.77,22.37a9.22,9.22,0,0,1-1.47,4.57,9.49,9.49,0,0,1-4.27,2.64,16.1,16.1,0,0,1-5.49,1.16c-1.15,0-1.81-.26-2-.77a56.12,56.12,0,0,1-.61-7.52l-.34-6.82,1.9.43a38.7,38.7,0,0,0,6,.35c2.64,0,4.43.46,5.35,1.38a4,4,0,0,1,1.12,2.76C717.8,313,717.74,313.65,717.63,314.57Z"/><path class="cls-2" d="M788.09,301.53a90.15,90.15,0,0,0-3.28-8.9,17.65,17.65,0,0,1-1.9-4.23Q778.59,276,773.58,276a6,6,0,0,0-4.14,2.07q-2.25,2.25-4.32,7.77c-.81,2.31-1.65,4.54-2.55,6.7s-1.82,4.76-2.8,7.81q-2.34,6.74-6,15.89-3.88,9.5-3.89,11.22a4.21,4.21,0,0,0,1.56,3,4.71,4.71,0,0,0,3.28,1.46q3.79,0,7.34-8.89l2.16-5.27,4.83-.43c4-.4,6.91-.78,8.64-1.12a21.24,21.24,0,0,1,3.71-.43,2.77,2.77,0,0,1,.86.08c.46.29,1.33,1.82,2.59,4.58,1.62,3.57,3.4,5.35,5.36,5.35a5.47,5.47,0,0,0,2.33-.69,4.55,4.55,0,0,0,2.76-4.32,15.41,15.41,0,0,0-2.24-6.9A87.85,87.85,0,0,1,788.09,301.53Zm-16.58,5.27H771c-1.26,0-1.9-.41-1.9-1.21a24.54,24.54,0,0,1,1.56-5.53c.28-.75.59-1.55.9-2.42s.57-1.56.74-2.11a9.79,9.79,0,0,1,.34-1c.18-.51.41-.77.69-.77q.87,0,2.94,4.83c1.27,3.06,1.9,5,1.9,5.87C778.16,305.85,775.94,306.62,771.51,306.8Z"/><path class="cls-2" d="M852.16,318.67a45.18,45.18,0,0,0-7.86-6.26l-2.16-1,2.77-2.24a17,17,0,0,0,4.23-4.79,14.46,14.46,0,0,0-.52-12.65,16.63,16.63,0,0,0-6.69-5.57,19.83,19.83,0,0,0-8.85-2.21,13.29,13.29,0,0,0-4.23.69,21.47,21.47,0,0,0-5.19,3.11q-2.76,2.16-3.1,3.46a33.69,33.69,0,0,0-.52,6.13q-.18,5.7-1.47,16.15-.95,8.37-1,11.91,0,5,2,7a4.63,4.63,0,0,0,3.28,1.55,5.29,5.29,0,0,0,3.71-1.81,5.35,5.35,0,0,0,1.55-2.42,26.76,26.76,0,0,0,.26-4.84v-1.21a35.43,35.43,0,0,1,.22-4.92c.14-.8.53-1.21,1.17-1.21s2.3.72,5.18,2.16A48,48,0,0,1,845.42,327c3.23,3,5.7,4.49,7.43,4.49a5.67,5.67,0,0,0,2.59-.78,4.42,4.42,0,0,0,1.81-1.89,5.73,5.73,0,0,0,.7-2.77,4.63,4.63,0,0,0-.18-1.12Q857.43,323.55,852.16,318.67Zm-14.51-17.49a35.28,35.28,0,0,1-3.93,2.42,10.58,10.58,0,0,1-2.89,1.3c-.29,0-.43-.41-.43-1.21,0-2.53.49-4.38,1.47-5.53a6,6,0,0,0,1.29-2.42q0-.69,1.56-.69a5.74,5.74,0,0,1,3.54,1,2.51,2.51,0,0,1,1.38,2.16C839.64,299.17,839,300.15,837.65,301.18Z"/><path class="cls-2" d="M918.91,288.49h-.26q-1.73.09-12.35.78-4.92.35-11.4.34c-2,0-3.34,0-4-.08a21.09,21.09,0,0,0-2.25-.09c-2.87,0-4.95.49-6.21,1.47s-1.9,2.56-1.9,4.75a4.09,4.09,0,0,0,2.24,3.93c1.5.77,4.38,1.28,8.64,1.51l2.59.17-.26,7.94c-.06.81-.09,2.13-.09,4q0,5.18.35,9.84a27,27,0,0,0,.78,5.31,7.43,7.43,0,0,0,1.9,2.72,5.84,5.84,0,0,0,4,2.07,5.63,5.63,0,0,0,3.62-1.64c1.21-1,1.82-1.95,1.82-2.76a11.4,11.4,0,0,0-.17-1.38,93.54,93.54,0,0,1-1.13-14.16q0-3.29.09-5l.34-8.21,7.6-.34a43.1,43.1,0,0,0,8.42-1,4.06,4.06,0,0,0,2.81-2.64,7.65,7.65,0,0,0,.52-2.33,5,5,0,0,0-1.82-3.28A5.73,5.73,0,0,0,918.91,288.49Z"/><path class="cls-2" d="M978.14,310.08a5.74,5.74,0,0,0-4.06,1.72q-1.38,1.4-5.65,2.85a22.43,22.43,0,0,1-6.87,1.47,2.24,2.24,0,0,1-1.68-.56,7.21,7.21,0,0,1-1.25-2.29,20.93,20.93,0,0,1-1.56-8c0-1.09.14-1.64.43-1.64a55.82,55.82,0,0,0,6.61-.82,62.8,62.8,0,0,0,6.52-1.25,7.62,7.62,0,0,0,3.75-2.68,6.21,6.21,0,0,0,1.69-3.8,3.88,3.88,0,0,0-1.69-3.19,6,6,0,0,0-3.75-1.3,4.92,4.92,0,0,0-2.94.87c-.75.57-2.59,1-5.52,1.2l-4.23.09-.09-5.35-.17-5.44,3.45-.69q2.07-.35,6.91-1a15.93,15.93,0,0,0,4.49-.86,5.28,5.28,0,0,0,2-2.16,5.12,5.12,0,0,0,.61-2.51,4.38,4.38,0,0,0-1.9-3.71c-.81-.57-2.36-.86-4.66-.86a39.13,39.13,0,0,0-7.95.95,55.83,55.83,0,0,1-6.47.95c-3.06,0-5,1-5.79,3.11q-.35,1.11-.91,12.34t-.56,17.88v1.9a35.86,35.86,0,0,0,1.56,7.6,23.91,23.91,0,0,0,2.85,6.73,10.37,10.37,0,0,0,9,4.92,40.45,40.45,0,0,0,9.15-1.46,55.24,55.24,0,0,0,9.37-3.07,6.83,6.83,0,0,0,3.58-3.5,10.47,10.47,0,0,0,1-3.45,5.15,5.15,0,0,0-1.47-3.2A4.65,4.65,0,0,0,978.14,310.08Z"/><path class="cls-2" d="M1053.18,283.83a5.24,5.24,0,0,0-2.77-.61,5.11,5.11,0,0,0-3.1.78,7.08,7.08,0,0,0-2.29,3.11c-.49,1.27-1.25,3.94-2.29,8q-4.41,18.3-5.79,18.31-5,0-13.38-14.51a22.86,22.86,0,0,0-3.58-5.05,5.07,5.07,0,0,0-3.41-1.08q-4.25,0-7.52,6.39c-.75,1.38-1.46,4.17-2.16,8.37a90.56,90.56,0,0,0-1.2,12c0,.34,0,.8-.05,1.38s0,1,0,1.21a4.73,4.73,0,0,0,1.47,3.88,5.32,5.32,0,0,0,3.54,1.3,5.06,5.06,0,0,0,3.8-1.64,6.19,6.19,0,0,0,1.29-2.55,42.35,42.35,0,0,0,.87-5.74c.57-4.49.95-6.74,1.12-6.74s1.38,1.3,3.45,3.89a25.06,25.06,0,0,0,5.36,5.87,19.81,19.81,0,0,0,12.17,4.23,7.37,7.37,0,0,0,4.84-1.38c1.26-1,2.59-3,4-6.05a56.56,56.56,0,0,0,3.45-10.53q2.76-11,3.28-12.78a24.48,24.48,0,0,0,1.21-6.22A4,4,0,0,0,1053.18,283.83Z"/><path class="cls-2" d="M1109.65,277.09a21.22,21.22,0,0,0-3.71-5,9.77,9.77,0,0,0-4.15-2.64,22.2,22.2,0,0,0-5.87-.6,35.15,35.15,0,0,0-10.45,1.38q-4.23,1.38-5.87,3.54t-1.81,6.48v.77q0,6.13,1.25,19.3T1081,315a4,4,0,0,0,1.9,2,22.9,22.9,0,0,0,5.09.91,5.22,5.22,0,0,1,.57,0,5.57,5.57,0,0,0,.64,0q7.08,0,13.56-5.35a31.56,31.56,0,0,0,8.25-10.62,27.94,27.94,0,0,0,3.32-12.35,12.28,12.28,0,0,0-.69-4.28Q1112.93,283.58,1109.65,277.09Zm-6.13,15.8a25,25,0,0,1-5.18,10q-3.63,4.19-7.08,4.19a1.08,1.08,0,0,1-1.13-.74,19,19,0,0,1-.51-3.41q-.52-6.48-1-11.74c-.4-5.13-.61-8-.61-8.64a5.81,5.81,0,0,1,.22-1.81,1.43,1.43,0,0,1,.52-.78,6.9,6.9,0,0,1,1.08-.43,12.28,12.28,0,0,1,4.49-.69c2.42,0,4,.37,4.75,1.12a22.18,22.18,0,0,1,3.19,5.36c1.21,2.41,1.82,4,1.82,4.83A11.23,11.23,0,0,1,1103.52,292.89Z"/><path class="cls-2" d="M1167.85,310.08a5.74,5.74,0,0,0-4.06,1.72q-1.38,1.4-5.66,2.85a22.38,22.38,0,0,1-6.86,1.47,2.28,2.28,0,0,1-1.69-.56,7.42,7.42,0,0,1-1.25-2.29,21.11,21.11,0,0,1-1.55-8c0-1.09.14-1.64.43-1.64a55.82,55.82,0,0,0,6.61-.82,63.4,63.4,0,0,0,6.52-1.25,7.62,7.62,0,0,0,3.75-2.68,6.27,6.27,0,0,0,1.69-3.8,3.91,3.91,0,0,0-1.69-3.19,6,6,0,0,0-3.75-1.3,4.87,4.87,0,0,0-2.94.87c-.75.57-2.59,1-5.53,1.2l-4.23.09-.08-5.35-.18-5.44,3.46-.69q2.07-.35,6.91-1a16,16,0,0,0,4.49-.86,5.53,5.53,0,0,0,2.59-4.67,4.38,4.38,0,0,0-1.9-3.71c-.81-.57-2.37-.86-4.67-.86a39.12,39.12,0,0,0-7.94.95,55.64,55.64,0,0,1-6.48.95c-3,0-5,1-5.78,3.11q-.35,1.11-.91,12.34t-.56,17.88v1.9a35.12,35.12,0,0,0,1.55,7.6,23.91,23.91,0,0,0,2.85,6.73,10.4,10.4,0,0,0,9,4.92,40.44,40.44,0,0,0,9.16-1.46,55.24,55.24,0,0,0,9.37-3.07,6.87,6.87,0,0,0,3.58-3.5,10.47,10.47,0,0,0,1-3.45,5.15,5.15,0,0,0-1.47-3.2A4.67,4.67,0,0,0,1167.85,310.08Z"/><path class="cls-2" d="M1229.76,318.67a45.18,45.18,0,0,0-7.86-6.26l-2.16-1,2.77-2.24a17,17,0,0,0,4.23-4.79,14.46,14.46,0,0,0-.52-12.65,16.63,16.63,0,0,0-6.69-5.57,19.83,19.83,0,0,0-8.85-2.21,13.4,13.4,0,0,0-4.24.69,21.62,21.62,0,0,0-5.18,3.11c-1.84,1.44-2.88,2.59-3.1,3.46a32.73,32.73,0,0,0-.52,6.13q-.18,5.7-1.47,16.15-.95,8.37-1,11.91,0,5,2,7a4.61,4.61,0,0,0,3.28,1.55,5.29,5.29,0,0,0,3.71-1.81,5.35,5.35,0,0,0,1.55-2.42,26.76,26.76,0,0,0,.26-4.84v-1.21a33.86,33.86,0,0,1,.22-4.92c.14-.8.53-1.21,1.16-1.21s2.31.72,5.19,2.16A48,48,0,0,1,1223,327c3.23,3,5.7,4.49,7.43,4.49a5.67,5.67,0,0,0,2.59-.78,4.42,4.42,0,0,0,1.81-1.89,5.83,5.83,0,0,0,.69-2.77,4.54,4.54,0,0,0-.17-1.12Q1235,323.55,1229.76,318.67Zm-14.51-17.49a35.28,35.28,0,0,1-3.93,2.42,10.58,10.58,0,0,1-2.89,1.3c-.29,0-.43-.41-.43-1.21,0-2.53.49-4.38,1.47-5.53a6,6,0,0,0,1.29-2.42q0-.69,1.56-.69a5.76,5.76,0,0,1,3.54,1,2.51,2.51,0,0,1,1.38,2.16C1217.24,299.17,1216.58,300.15,1215.25,301.18Z"/></svg>