<svg id="Layer_1" data-name="Layer 1" xmlns="http://www.w3.org/2000/svg" width="135" height="215" viewBox="0 0 135 215"><defs><style>.cls-1,.cls-7{fill:#fff;}.cls-2{fill:#e6e6e6;}.cls-3,.cls-4{fill:#27aae1;}.cls-3,.cls-7{opacity:0.8;}.cls-5{fill:#4ec8ed;}.cls-6{opacity:0.3;}</style></defs><path class="cls-1" d="M121.05,64c-.89,7.27-24.53,13.1-53.55,13.1S14.84,71.27,14,64h0L32.62,191.86h0c0-5.07,16.25-9.17,36.29-9.17s36.28,4.1,36.28,9.17L121.07,64Z"/><path class="cls-2" d="M67.5,77.1c29,0,52.66-5.83,53.55-13.1,0-.15,0-.29,0-.43,0-7.47-24-13.53-53.57-13.53S13.93,56.1,13.93,63.57c0,.14,0,.28,0,.43C14.84,71.27,38.48,77.1,67.5,77.1Z"/><polygon class="cls-3" points="32.62 191.86 32.62 191.88 32.62 191.88 32.62 191.86"/><path class="cls-1" d="M32.62,191.86h0v0Z"/><path class="cls-3" d="M32.62,191.86h0v0Z"/><path class="cls-1" d="M93.17,198.67c6.4,1.63,10.38,3.9,10.38,6.41l1.58-12.69C104.56,194.88,100.06,197.1,93.17,198.67Z"/><path class="cls-3" d="M93.17,198.67c6.4,1.63,10.38,3.9,10.38,6.41l1.58-12.69C104.56,194.88,100.06,197.1,93.17,198.67Z"/><path class="cls-1" d="M44.8,198.7c-6.91-1.55-11.45-3.76-12.09-6.24l1.84,12.62C34.55,202.58,38.47,200.33,44.8,198.7Z"/><path class="cls-3" d="M44.8,198.7c-6.91-1.55-11.45-3.76-12.09-6.24l1.84,12.62C34.55,202.58,38.47,200.33,44.8,198.7Z"/><path class="cls-4" d="M93.17,198.67A113.79,113.79,0,0,1,68.91,201,113.47,113.47,0,0,1,44.8,198.7c-6.33,1.63-10.25,3.88-10.25,6.38,0,4.95,15.45,9,34.5,9s34.5-4,34.5-9C103.55,202.57,99.57,200.3,93.17,198.67Z"/><path class="cls-5" d="M68.91,182.69c-20,0-36.29,4.1-36.29,9.17h0v0h0a2.33,2.33,0,0,0,.09.58c.64,2.48,5.18,4.69,12.09,6.24A113.47,113.47,0,0,0,68.91,201a113.79,113.79,0,0,0,24.26-2.35c6.89-1.57,11.39-3.79,12-6.28a2.33,2.33,0,0,0,.06-.53h0C105.19,186.79,89,182.69,68.91,182.69Z"/><g class="cls-6"><path class="cls-1" d="M121.07,63.57c0-7.47-24-13.53-53.57-13.53S13.93,56.1,13.93,63.57c0,.14,0,.28,0,.43h0l8.84,60.52h0v0h0a2.9,2.9,0,0,0,.1.71c1.59,6,21.26,10.68,45.29,10.68s43.87-4.76,45.3-10.76h0a2.88,2.88,0,0,0,.09-.71h0L121.07,64h0C121.06,63.85,121.07,63.71,121.07,63.57Z"/><path class="cls-1" d="M22.77,124.52v0h0v0Z"/><path class="cls-7" d="M22.77,124.52v0h0v0Z"/><path class="cls-1" d="M68.17,135.94c-24,0-43.7-4.72-45.29-10.68l11.67,79.82c0-5,15.45-9,34.5-9s34.5,4,34.5,9l9.92-79.9h0C112,131.18,92.3,135.94,68.17,135.94Z"/><path class="cls-7" d="M68.17,135.94c-24,0-43.7-4.72-45.29-10.68l11.67,79.82c0-5,15.45-9,34.5-9s34.5,4,34.5,9l9.92-79.9h0C112,131.18,92.3,135.94,68.17,135.94Z"/><ellipse class="cls-1" cx="69.05" cy="205.08" rx="34.5" ry="8.97"/></g></svg>