<svg id="Layer_1" data-name="Layer 1" xmlns="http://www.w3.org/2000/svg" width="135" height="215" viewBox="0 0 135 215"><defs><style>.cls-1,.cls-7{fill:#fff;}.cls-2{fill:#e6e6e6;}.cls-3,.cls-4{fill:#27aae1;}.cls-3,.cls-7{opacity:0.8;}.cls-5{fill:#4ec8ed;}.cls-6{opacity:0.3;}</style></defs><path class="cls-1" d="M22.78,124.8c0-6.34,20.32-11.47,45.39-11.47s45.39,5.13,45.39,11.47h0l7.51-60.48h0c-.89,7.27-24.53,13.1-53.55,13.1S14.84,71.59,14,64.32h0l8.85,60.53h0Z"/><polygon class="cls-1" points="103.55 205.4 113.47 125.5 113.47 125.5 103.55 205.4"/><path class="cls-2" d="M67.5,77.42c29,0,52.66-5.83,53.55-13.1,0-.14,0-.29,0-.43,0-7.47-24-13.53-53.57-13.53S13.93,56.42,13.93,63.89c0,.14,0,.29,0,.43C14.84,71.59,38.48,77.42,67.5,77.42Z"/><rect class="cls-3" x="22.78" y="124.85" height="0.03"/><polygon class="cls-3" points="22.88 125.58 34.55 205.4 22.88 125.58 22.88 125.58"/><path class="cls-1" d="M22.78,124.85h0v0Z"/><path class="cls-3" d="M22.78,124.85h0v0Z"/><path class="cls-1" d="M68.17,136.26c-24,0-43.7-4.71-45.29-10.68L34.55,205.4c0-5,15.45-9,34.5-9s34.5,4,34.5,9l9.92-79.9C112,131.5,92.3,136.26,68.17,136.26Z"/><path class="cls-3" d="M68.17,136.26c-24,0-43.7-4.71-45.29-10.68L34.55,205.4c0-5,15.45-9,34.5-9s34.5,4,34.5,9l9.92-79.9C112,131.5,92.3,136.26,68.17,136.26Z"/><ellipse class="cls-4" cx="69.05" cy="205.4" rx="34.5" ry="8.97"/><path class="cls-5" d="M113.56,124.8c0-6.34-20.32-11.47-45.39-11.47s-45.39,5.13-45.39,11.47v.07h0a2.9,2.9,0,0,0,.1.71h0c1.59,6,21.26,10.68,45.29,10.68s43.87-4.76,45.3-10.76h0a2.8,2.8,0,0,0,.09-.7Z"/><g class="cls-6"><path class="cls-1" d="M121.07,63.89c0-7.47-24-13.53-53.57-13.53S13.93,56.42,13.93,63.89c0,.14,0,.29,0,.43h0l8.85,60.53h0v0h0a2.9,2.9,0,0,0,.1.71c1.59,6,21.26,10.68,45.29,10.68s43.87-4.76,45.3-10.76h0a2.8,2.8,0,0,0,.09-.7h0l7.51-60.48h0C121.06,64.18,121.07,64,121.07,63.89Z"/><path class="cls-1" d="M22.78,124.85h0v0h0Z"/><path class="cls-7" d="M22.78,124.85h0v0h0Z"/><path class="cls-1" d="M68.17,136.26c-24,0-43.7-4.71-45.29-10.68L34.55,205.4c0-5,15.45-9,34.5-9s34.5,4,34.5,9l9.92-79.9C112,131.5,92.3,136.26,68.17,136.26Z"/><path class="cls-7" d="M68.17,136.26c-24,0-43.7-4.71-45.29-10.68L34.55,205.4c0-5,15.45-9,34.5-9s34.5,4,34.5,9l9.92-79.9C112,131.5,92.3,136.26,68.17,136.26Z"/><ellipse class="cls-1" cx="69.05" cy="205.4" rx="34.5" ry="8.97"/></g></svg>