<?xml version="1.0" encoding="UTF-8"?><svg id="a" xmlns="http://www.w3.org/2000/svg" width="580" height="440" viewBox="0 0 580 440"><defs><style>.b{fill:lime;}.c{fill:aqua;}.d{fill:blue;}.e{fill:#ed1e79;}.f{fill:#fff;}.g{fill:#ff0;}.h{fill:#ed1c24;}.i{fill:red;}.j{fill:#f0f;}.k{fill:#fbb03b;}.l{fill:#fcee21;}</style></defs><rect class="j" x="138.5" y="213.08" width="16" height="6"/><g><rect class="i" x="465.5" y="72.08" width="56" height="7"/><rect class="i" x="283.5" y="110.08" width="90" height="7"/><path class="f" d="M401.5,182.11v37.31l-21.2,13.58s-20.8,9.12-21.8,17.12-24.03,48.35-24.03,48.35c0,0-28.05-61.35-29.51-86.85s-5.46-35.5-5.46-35.5l-18,4.51-16-7.51-6,8.97-10,.03-12-3v9l10.72,4-10.72,12,6,16,8-3.06,30,2.36s16,66.69,15,89.69,21,51.9,21,51.9l19-6.79,31.5-38.79c2.5-6.35,11.5-4.35,11.5-4.35,0,0,2,16,5,12s-7,7-7,7c0,0-9.14,26.83-13.57,30.93s-42.43,19.45-47.43,23.28-22,10.83-29,35.83,175,11,175,11l-9-31,21-77s29.92-92,29.46-100,4.19-18.32-2.13-20.66-63.52,9.16-63.52,9.16l4.2-31.47-41,1.97Z"/><polygon class="c" points="342.5 349.08 316.5 362.08 312.5 379.08 312.5 388.36 336.5 374.08 342.5 349.08"/><path class="j" d="M383.5,334.69l-56,49.78-15,3.89s-18,2.79-25,31.76,83.84,14.88,83.84,14.88l91.16-3.88-10-33.03,8-25-77-38.39Z"/><path class="d" d="M359.5,247.08c0-3.09,38.25-28.59,41-30,18.3-9.41,45.94-22.11,88.49-18.81,49.24,3.81-35.49,193.81-35.49,193.81l-76,8-10-68,4-26-23-31,11-28Z"/><path class="i" d="M427,84.01s18.25,19.41,14.87,25.74-43.37-1.67-43.37-1.67l9,76s-19.83,4.92-25.42,5.46c0,0-.42-7.27,0-11.37l-3.58,.91-29-35-1.85-40.01,25.09-45.14s35.75-9.53,46.75-3.69c0,0,36,6.84,39,9.84s7.46,4.63,7.46,4.63c0,0,15.54,1.37,15.54-5.63s3,9,2,11-9,7-11,7,8,25,8,25c0,0,20,12,20,16s-18.83,.32-18.83,.32c0,0,7.58,17.53,6.71,17.6s-16.94,.93-18.91,0-23.36-40.66-23.36-40.66l-39.61-4.26"/><path class="b" d="M379,65.49l-26.5,27.59-7,33.57-20.33,14.93s-4.67,11.5,2.33,17.5,7,11.2,7,11.2c0,0-11.15,9.8-16.08,9.8s6.75,12.19,6.75,12.19l-.41,16.76,14.27,6.06s2.46,16.54,1.46,16.77,33-6.77,33-13.77,37.51-17.13,37.51-17.13l30.61-1.08,29.12-3.79s11.17,10.98,14.97,10.49,28.53,1.51,28.66-3.49-17.34-22-17.34-22c0,0,23.64-10,24.06-13s-9.99-7-9.79-12,8.2-18,8.2-18c0,0-9-19.36-17-19.18,0,0,10.68-3.12,10.84-6.97s-9.84-24.18-20.84-24.02-25.43-11.47-25.43-11.47l-10.57-16.36-77.5,5.41Z"/><path class="g" d="M484.43,202.13s-32.93,33.95-47.93,136.95l-93,10-25,11.46-1,23.92,24.98-11.58s110.02,4.2,115.02-2.8,47.92-102,47.46-160c0,0,.49-9.63-6.49-10.81s-14.04,2.87-14.04,2.87Z"/><path class="i" d="M280.13,179.45c-.39,.38-1,.43-1.46,.13-2.3-1.48-8.69-5.5-10.17-5.5s-4.9,.71-5.92,.93c-.2,.04-.37,.13-.53,.26l-6.16,5.31c-.25,.21-.57,.31-.89,.29-1.13-.1-3.93-.21-5.5,.86s-8.7-2.4-12-3.65c-.83-.31-1.46,1.34-1.38,2.22,.25,3.07,.92,8.78,2.38,8.78,1.91,0,11.33,4.83,12,5,.04,0,10.96,2.99,11,3,.89,.32,1.14-1,5-1,3.63,0,8.08,1.64,8.87,1.95,.09,.03,.18,.06,.27,.07,1.62,.21,16.42,2.19,16.15,4.03-.25,1.66,4.09,5.66,5.36,6.79,.22,.2,.5,.3,.8,.3h5.15c.71,0,1.27-.61,1.19-1.32-.67-6.17-3.51-31.82-4.79-31.82-1.41,0-13.17-2.73-19.37,3.37Z"/><path d="M401.69,151.11s-2.19,8.97-2.19,23.97-2,49-17,50-50-26-50-26c0,0,33.84,7.89,33-23s49-59,49-59"/><path class="f" d="M455.81,94.41s-1.63,9.09-7.7,22.81-11.92,69.88,1.39,76.86c13.31,6.98,50.17-27.8,50.17-27.8,0,0-43.17,13.8-22.17-45.2,10.36-29.11-42-56-42-56"/><path class="g" d="M437.47,102.08s-10.09,44.04,15.42,65.76c2.2,1.87,3.34,4.7,3,7.57l-1.41,11.67s17.59-13.01,18-29c.43-16.99-35-56-35-56Z"/><path class="j" d="M401.5,191.8v28.66s5.79,20.15,24.83,.48l12.17-14.86,4-24-41,9.72Z"/><path class="k" d="M414.17,247.08s11.43-19,16.38-20,45.95-20,45.95-20l9.16-4s-9.16,11-16.16,11-36.5,16.35-36.5,16.35l-6.66,5.58-12.17,11.07Z"/><polygon class="c" points="416.57 232.08 408.06 229.08 388.4 229.08 377.77 232.08 399.82 230.58 414.17 234.96 416.57 232.08"/><path d="M460.5,363.08s-15.13-28.78-21.06-28.39-74.94,14.19-74.94,14.19l-22,24.2,108.47-.2,9.53-9.8Z"/><path class="j" d="M333.47,351.8l-11.04-21.24s10.08-35.03,13.08-37.75,26-48.73,26-48.73l33,10s-27.07,80.43-61.03,97.71Z"/><path class="g" d="M277.73,218.08l13.31,39.97,5.07,61.53,19.39,41.82s17.93-1.4,17.97-2.36,5.03-16.04,5.03-16.04l-5.03-45.3-16.97-47.55s-12.74-34.06-12.37-37.06-.47-10.81-.47-10.81l-25.93,15.81Z"/><path class="j" d="M263.07,193.08l-7.57-5.5s-16.91,8.6-17.95,16.55,3.57,15.95,3.57,15.95l14.39-3,7.57-24Z"/><path class="g" d="M271.5,195.08l-9.52-5.47s-15.48,10.47-15.48,13.47-2,9.95,0,11.98,3.95,5.02,3.95,5.02l17.05-5,4-20Z"/><path d="M287.42,193.08s8.96-1-3.98-3-17.25,3-17.25,3l-8.69,12,1.61,12.94,14.86,3.62,16.47-16.02-3.02-12.55Z"/><path class="c" d="M297.05,207.08s-9.55,13-15.55,13-9.63-2.06-9.63-2.06c0,0-3.03-11.94-1.7-12.94s13.27-15,13.27-15c0,0,9.51,0,10.28,3s-.28,8.19-.28,8.19l3.61,5.81Z"/><polygon class="c" points="371.34 143.89 377.92 168.08 384.5 171.08 384.54 168.35 386.43 159.57 380.3 139.5 371.34 143.89"/><polygon class="c" points="457.5 160.08 463.17 165.48 467.88 155.29 465.96 140.9 457.5 160.08"/><path class="i" d="M391,80.9s-5.5,38.93-7,48.07-4.5,14.14-3.5,27.14,21.93,42.01,28.97,43.51,20.26,9.49,35.15-10.51,23.8-43.43,21.34-48.22,1.93-32.44,1.93-32.44c0,0-19.38-39.34-36.38-39.34s-40.5,11.79-40.5,11.79Z"/><path class="j" d="M449.92,89.77s1.68,16.47,9.13,33.89,4.12,41.82,4.12,41.82c0,0,17.88-20.39,16.11-32.39s-26.77-57.24-26.77-57.24h-26l23.42,13.93Z"/><path class="c" d="M394.5,67.08s36.76-11.82,43-4,16.47,20.45,19,21,12-3,12-3c0,0-2,16-6,18s-33.36-4-36.68-10.5c0,0-15.48-6.89,3.68-4.5,8,1,17.08,24.34,22,25,3.14,.42-16.19,10.78-32,10-16.47-.81-34.19-8.16-36-11-3.56-5.56-3.64-17.54-3.64-17.54l14.64-23.46Z"/><path class="g" d="M393.5,86.08s10.09,44.04-15.42,65.76c-2.2,1.87-3.34,4.7-3,7.57l1.41,11.67s-17.59-13.01-18-29c-.43-16.99,35-56,35-56Z"/><g><path class="f" d="M413.5,127.08l-1-2s-6-8-12-8h-8.24l-3.76,3h8l12.1,7h4.9Z"/><polygon class="b" points="428.48 131.94 427.5 130.08 432.5 124.08 452.5 120.08 438.87 126.41 431.5 131.08 428.48 131.94"/><path class="c" d="M412.5,149.08v-6l-14-14s-4,0-6,1-5,8-5,8l25,11Z"/><path class="g" d="M429.5,148.08l1-6s6-14.09,9.5-14.04,6.74,1.04,6.74,1.04l6.76,6-5,6-19,7Z"/><path class="f" d="M412.5,149.08v-4.56l-5-4.44-20-3s4,9,5,9,6.88,3,6.88,3h13.12Z"/><path class="f" d="M429.5,148.08s3.31-11.07,7-11,16-2,16-2l-.86,6.5-7.14,5.5-8.89,2-6.11-1Z"/><path class="d" d="M399.5,139.08v6.09c0,.91-3,2.91-3,2.91l-5-2c-.21-.18-1.97-4.17-1.91-4.44l.91-3.56,9,1Z"/><path class="j" d="M436.5,138.08l2,3v4s-.59,1.59-2,3c-1,1-6,0-6,0,0,0-2-4,1-7s5-3,5-3Z"/><path d="M412.5,148.08v-4c0-1-6-5-6-5,0,0-19-2-20-3l-3-3s1,5,4,6,18.51,1.5,18.51,1.5c0,0,7.49,4.5,6.49,7.5Z"/><path d="M429.5,148.08s-1-3.03,0-5.51,5-6.49,5-6.49l16-3s6-1,6-2,1,3-5,5-15,2-15,2c0,0-7,6-7,10Z"/><path d="M387.5,138.08s3,9,4,9,6,4,9,3,12-1,12-1c0,0-10.6-.19-11.8-.1s-9.2-2.9-9.2-2.9l-3-7-1-1Z"/><path d="M453.26,134.56s-1.76,7.52-2.76,8.52-6,4-6,4l-8.89,2-6.11-1s6.31,.31,6.66,.15,7.34-1.15,8.34-2.15,6.5-6.08,6.5-6.08l1.5-5.81,.76,.37Z"/><path d="M388.5,140.08s-1,2-2,2-2-1-2-1c0,0,1,2.48,3,2.74s2.31-.33,2.31-.33l-1.31-3.41Z"/><path d="M450.81,140.58s1,.5,2,.5,2-1,2-1c0,0-1,2.48-3,2.74s-2.31-.33-2.31-.33l1.31-1.91Z"/><path d="M447.81,143.58s1,.5,2,.5,2-1,2-1c0,0-1,2.48-3,2.74s-2.31-.33-2.31-.33l1.31-1.91Z"/><path d="M451.81,137.58s1,.5,2,.5,2-1,2-1c0,0-1,2.48-3,2.74s-1.31-.74-1.31-.74l.31-1.5Z"/><path d="M390.5,144.08s-1.59,1.32-2.4,1.38-1.68-.7-1.68-.7c0,0,.95,1.95,2.58,2.05s2.49-.73,2.49-.73l-1-2Z"/><path d="M392.5,147.08s-1.51,.83-2.29,1.06-1.71-.06-1.71-.06c0,0,1.16,1.06,2.76,.73s3.24-.73,3.24-.73l-2-1Z"/><path class="b" d="M424,144.27s-.11,9.82,.7,11.82,3.8,6,3.8,6c0,0,.5,3.88-2.25,5.44s-7.64,.42-7.64,.42l-4.11-4.86,5.36-9.94,4.14-8.88Z"/><path class="g" d="M418.14,166.08l3.38-3.21,7.02,.53s-1.03,4.68-3.03,4.68-6.89-.35-6.89-.35l-.47-1.65Z"/></g><path d="M426.5,176.08l7,5s-.58,6-3.29,7.5-6.71,4.5-9.71,3.5-15-7-15-12c0-2-1-2-1-2l6-3c.56-.49,3.43-.79,4.1-.47l4.9,1.47"/><path class="j" d="M411.5,176.08s-5,2-7,2,5,2,5,2l2-4Z"/><path class="j" d="M429.14,179.08s5,2,7,2-5,2-5,2l-2-4Z"/><path class="f" d="M399.28,174.08l4.64,3.55c.38,.29,.84,.48,1.31,.55l11.03,1.55c.06,0,.12,.01,.18,.02,1.34,.1,18.1,1.33,19.06,1.33s5-5,5-5c0,0-1,7-9,8-6.9,.86-19.74-1.25-23.15-1.85-.55-.1-1.06-.36-1.47-.75l-7.61-7.4Z"/><polygon class="i" points="379.5 164.08 379.5 166.96 382.5 169.08 383.5 167.31 380.82 162.87 379.5 164.08"/><polygon class="i" points="461.5 161.08 463.37 163.69 463.73 158.96 461.5 161.08"/><path class="l" d="M294.5,193.08s1,7.33,0,8.16-9,3.84-9,3.84l3-8-5.18-8,11.18,4Z"/><path class="j" d="M290.04,197.08l-9,14.5,2.28,6.83s-10.18,2.33-10.5,0-4.32-11.33-3.32-12.33,14.19-18,14.19-18c0,0,6.89,1,6.35,9Z"/><path class="g" d="M377.77,232.08l-16.27,12s9.68,19.08,9.84,24.04-1.71,29.82-1.71,29.82l49.52-31.39-35.61-31.58-5.78-2.88Z"/><path d="M398.5,252.08s-29.36,19.93-34.23,23c-4.18,2.63-9.77,9-13.77,15-.31,.46-1.01,4.98-1,5.53,.07,4.55,1.55,25.49,22.5,25.01,23.5-.54,26.5-68.54,26.5-68.54Z"/><path d="M397.64,157.96l-10.32-5.66c-1.63-.98-2.62-2.68-2.65-4.56l-1.34-18.58,3.1-4.69,28.41,3.21,3.25,6.1-.34,12.26-4.43,9.01-15.68,2.91Zm-13.28-28.54l1.32,18.27c.03,1.56,.83,2.95,2.15,3.74l9.99,5.48,14.84-2.76,4.16-8.46,.28-11.68-2.88-5.41-27.27-3.08-2.58,3.9Z"/><path d="M446.19,157.91l-15.74-2.61-4.66-9.13-.53-12.04,3.13-6.16,.26-.04,28.08-3.73,3.19,4.63-.98,18.63c0,1.86-.95,3.58-2.54,4.58l-10.22,5.87Zm-15.08-3.51l14.89,2.47,9.89-5.68c1.29-.81,2.06-2.21,2.06-3.75l.96-18.32-2.65-3.85-27.21,3.62-2.78,5.46,.51,11.67,4.32,8.38Z"/><path d="M417.59,141.57s2.91-3.51,8.41,0v1.01l-3.01-1c-.97-.32-2.01-.3-2.96,.07l-2.44,.93v-1.01Z"/><polygon class="b" points="387.07 126.53 414.91 129.67 417.79 134.84 419.08 134.09 416.14 126.76 386.62 123.19 382.85 129.21 384.3 129.9 387.07 126.53"/><polygon class="j" points="456.15 126.27 428.37 129.96 425.59 135.19 424.29 134.46 427.09 127.07 456.54 122.93 460.42 128.87 458.98 129.59 456.15 126.27"/><path class="d" d="M416.52,165.48s2.76,5.4,3.37,5,4.61-.4,4.61-.4l2.82-4.11-1.82,6.11-7.36,1.03-2.13-4.03,.51-3.61Z"/><polygon class="d" points="416.5 161.08 416.5 162.08 417.04 162.08 417.59 161.33 416.5 161.08"/><rect class="d" x="427.32" y="161.08" width=".7" height="1"/><polygon class="h" points="417.05 161.17 421.66 159.08 425.41 159.08 427.5 161.08 425.5 160.05 422.53 159.67 417.05 161.17"/><polygon class="e" points="377.5 162.08 377.5 164.21 378.88 164.21 378.88 161.54 377.5 162.08"/><polygon class="d" points="376.24 157.44 374.54 162.87 376.24 163.84 377.5 159.03 376.24 157.44"/><polygon class="b" points="377.34 155.08 373.5 155.08 373.5 157.71 377.04 155.9 377.34 155.08"/><rect x="435.5" y="103.08" width="24" height="3"/><rect class="c" x="351.5" y="150.08" width="28" height="3"/><rect class="c" x="399.5" y="133.08" width="15" height="4"/><rect class="c" x="438.5" y="247.08" width="44" height="9"/><rect class="c" x="389.5" y="287.08" width="44" height="9"/><rect class="i" x="347.5" y="335.08" width="51" height="5"/><rect class="f" x="365.5" y="74.08" width="34" height="5"/><rect class="i" x="341.5" y="191.08" width="34" height="5"/><rect class="i" x="498.5" y="233.08" width="34" height="5"/><rect class="i" x="318.5" y="104.08" width="30" height="1"/><rect class="i" x="432.5" y="189.08" width="30" height="1"/><rect class="i" x="362.5" y="313.08" width="35" height="4"/><rect class="i" x="377.5" y="275.08" width="35" height="4"/><path class="i" d="M451.5,225.08s-32.6,24.89-37.56,29.34c-6.24,5.59-12.23,9.34-14.44,12.66-.44,.67-1.97,8.45-1.88,9.25,.7,6.08,5.1,32.18,29.01,29.91,27.05-2.57,24.87-81.16,24.87-81.16Z"/><rect class="g" x="472.5" y="309.08" width="66" height="8"/><rect class="g" x="404.5" y="325.08" width="45" height="3"/><rect class="g" x="490.5" y="222.08" width="35" height="13"/><rect class="g" x="382.5" y="199.08" width="25" height="12"/><rect x="460.5" y="173.08" width="39" height="5"/><rect class="b" x="384.5" y="113.08" width="43" height="6"/><rect class="j" x="407.5" y="343.08" width="49" height="9"/><rect class="j" x="245.5" y="413.08" width="72" height="5"/><rect x="444.5" y="396.08" width="55" height="13"/><rect class="j" x="279.5" y="199.08" width="21" height="4"/><rect class="d" x="384.5" y="184.08" width="35" height="3"/><rect class="d" x="421.5" y="386.08" width="50" height="16"/><rect class="d" x="418.5" y="206.08" width="27" height="3"/><rect class="b" x="309.5" y="148.08" width="33" height="7"/><rect class="f" x="505.5" y="153.08" width="32" height="10"/><rect class="b" x="485.5" y="99.08" width="94" height="3"/><rect class="b" x="436.5" y="291.08" width="40" height="5"/><rect class="b" x="435.5" y="158.08" width="47" height="3"/><rect class="b" x="373.5" y="173.08" width="24" height="5"/><rect class="g" x="269.5" y="315.08" width="45" height="6"/><rect class="g" x="254.5" y="199.08" width="13" height="6"/><rect class="g" x="312.5" y="265.08" width="53" height="3"/><rect class="b" x="263.5" y="244.08" width="28" height="14"/><rect class="b" x="262.5" y="203.08" width="14" height="5"/><rect x="305.5" y="317.08" width="33" height="9"/><rect class="f" x="342.5" y="394.08" width="50" height="9"/><rect class="c" x="401.5" y="352.08" width="25" height="4"/><rect class="c" x="322.5" y="323.08" width="20" height="4"/><rect class="c" x="288.5" y="246.08" width="7" height="2"/><rect class="c" x="351.5" y="247.08" width="29" height="8"/><rect class="c" x="373.5" y="400.08" width="73" height="16"/><rect class="c" x="290.5" y="398.08" width="27" height="4"/><rect class="c" x="263.5" y="376.08" width="54" height="6"/></g><g><g><path class="f" d="M291.41,149.86l-27.44-30.27c8.47-10.92,13.27-23.34,13.27-36.51,0-43.63-52.56-79-117.4-79S42.44,39.45,42.44,83.08s52.56,79,117.4,79c33.81,0,64.28-9.62,85.7-25.01l45.86,12.8Z"/><path d="M159.84,164.58c-66.11,0-119.9-36.56-119.9-81.5S93.73,1.58,159.84,1.58s119.9,36.56,119.9,81.5c0,12.62-4.33,25.15-12.53,36.36l31.86,35.15-53.05-14.8c-22.77,15.99-53.32,24.79-86.18,24.79Zm0-158c-63.36,0-114.9,34.32-114.9,76.5s51.54,76.5,114.9,76.5c31.83,0,62.54-8.95,84.25-24.54l.97-.7,38.68,10.79-23.03-25.41,1.29-1.66c8.46-10.9,12.75-22.67,12.75-34.98,0-42.18-51.55-76.5-114.9-76.5Z"/></g><g><path d="M90.62,29.9h5.56v1.35h-4.21v8.48h-1.35v-9.84Zm5.7,1.43h1.28v8.41h-1.28v-8.41Z"/><path d="M101.29,29.9h6.99v1.35h-5.56v2.85h5.56v1.43h-5.56v2.85h5.56v1.35h-6.99v-9.84Z"/><path d="M111.94,29.9h6.99v1.35h-5.56v2.85h5.56v1.43h-5.56v2.85h5.56v1.35h-6.99v-9.84Z"/><path d="M122.59,29.9h5.56v1.35h-4.13v7.06h4.21v-6.99h1.35v7.06h-1.35v1.35h-5.63v-9.84Z"/><path d="M140.5,29.9h1.35v4.13h4.28v-4.13h1.35v9.84h-1.35v-4.13h-4.28v4.13h-1.35v-9.84Z"/><path d="M151.62,29.9h6.99v1.35h-5.56v2.85h5.56v1.43h-5.56v2.85h5.56v1.35h-6.99v-9.84Z"/><path d="M162.27,29.9h1.35v8.48h5.63v1.35h-6.99v-9.84Z"/><path d="M172.97,29.9h6.99v5.63h-5.63v4.21h-1.35v-9.84Zm1.43,1.43v2.71h4.13v-2.71h-4.13Z"/><path d="M192.72,31.25h-2.78v-1.35h6.99v1.35h-2.78v8.48h-1.43v-8.48Z"/><path d="M200.3,29.9h6.99v9.84h-6.99v-9.84Zm1.43,1.43v6.99h4.13v-6.99h-4.13Z"/><path d="M90.92,47.01h6.99v9.84h-1.35v-4.13h-4.28v4.13h-1.35v-9.84Zm1.43,1.43v2.71h4.13v-2.71h-4.13Z"/><path d="M102.04,47.01h6.99v4.13h-1.35v-2.71h-4.21v6.99h4.21v-2.71h1.35v4.13h-6.99v-9.84Z"/><path d="M112.72,47.01h6.99v4.13h-1.35v-2.71h-4.21v6.99h4.21v-2.71h1.35v4.13h-6.99v-9.84Z"/><path d="M123.4,47.01h6.99v1.35h-5.56v2.85h5.56v1.43h-5.56v2.85h5.56v1.35h-6.99v-9.84Z"/><path d="M133.87,55.49h5.56v-2.85h-5.56v-5.63h6.99v1.35h-5.56v2.85h5.56v5.63h-6.99v-1.35Z"/><path d="M144.63,55.49h5.56v-2.85h-5.56v-5.63h6.99v1.35h-5.56v2.85h5.56v5.63h-6.99v-1.35Z"/><path d="M164.78,48.36h-2.78v-1.35h6.99v1.35h-2.78v8.48h-1.43v-8.48Z"/><path d="M172.37,47.01h1.35v4.13h4.28v-4.13h1.35v9.84h-1.35v-4.13h-4.28v4.13h-1.35v-9.84Z"/><path d="M183.49,47.01h6.99v1.35h-5.56v2.85h5.56v1.43h-5.56v2.85h5.56v1.35h-6.99v-9.84Z"/><path d="M90.92,64.12h6.99v5.63h-5.63v4.21h-1.35v-9.84Zm1.43,1.43v2.71h4.13v-2.71h-4.13Z"/><path d="M101.47,64.12h6.99v5.63h-2.78v1.35h-1.43v-1.28h-1.43v4.13h-1.35v-9.84Zm1.43,1.43v2.71h4.13v-2.71h-4.13Zm2.85,5.7h1.28v1.28h-1.28v-1.28Zm1.43,1.43h1.28v1.28h-1.28v-1.28Z"/><path d="M112.47,64.12h6.99v9.84h-6.99v-9.84Zm1.43,1.43v6.99h4.13v-6.99h-4.13Z"/><path d="M123.42,68.4h1.36v4.14h4.21v-7.06h-5.56v-1.35h6.99v9.84h-6.99v-5.56Z"/><path d="M134.54,64.12h6.99v1.35h-5.56v2.85h5.56v1.43h-5.56v2.85h5.56v1.35h-6.99v-9.84Z"/><path d="M145.19,64.12h6.99v4.13h-1.35v-2.71h-4.21v6.99h4.21v-2.71h1.35v4.13h-6.99v-9.84Z"/><path d="M157.94,65.47h-2.78v-1.35h6.99v1.35h-2.78v8.48h-1.43v-8.48Z"/><path d="M165.34,72.6h5.56v-2.85h-5.56v-5.63h6.99v1.35h-5.56v2.85h5.56v5.63h-6.99v-1.35Z"/><path d="M184.92,68.33h2.71v-2.78h-4.21v1.28h-1.36v-2.71h6.99v5.63h-2.78v1.35h-1.35v-2.78Zm0,4.35h1.28v1.28h-1.28v-1.28Z"/></g><g><path d="M134.99,84.91s.05,.02,.05,.05l.17-.05c1.42,0,2.64,.34,3.64,1.02,1.06,0,1.6,.12,1.6,.36,.67,.54,1.18,1.11,1.55,1.73v.27l-1.64,.84c-.3,.18-.53,.27-.66,.27h-.44c-.67-.93-1.27-1.46-1.82-1.6-.18-.08-.46-.19-.85-.31-.52,0-1.13,.18-1.82,.53v.05c.33,0,.49,.03,.49,.09-.8,.72-1.2,1.28-1.2,1.68-.09,.11-.18,.41-.26,.88h-.89c-.06,0-.09,.04-.09,.09,0,.04,.04,.08,.13,.13h.75s.12,.37,.22,1.11c.15,.6,.46,1.13,.93,1.6l-.09,.04h-.49v.09c.39,.38,1.04,.68,1.95,.89,.33,0,.83-.13,1.47-.4,.6,0,1.05-.19,1.38-.58h.04v-.09h-.44v-.04c.11-.2,.3-.47,.58-.8h.53c.06,0,.58,.27,1.56,.8,.62,0,1.05,.13,1.29,.4v.05c-.12,.13-.18,.2-.18,.22l-.31-.05c-.19,0-.46,.29-.8,.89-.13,.06-.37,.09-.71,.09h-.09s-.09,.04-.13,.13h.58v.13c-.94,.88-1.74,1.37-2.4,1.47-.47,.23-1,.35-1.6,.35h-.93c-1.61,0-3.05-.58-4.31-1.72-.12-.15-.35-.23-.66-.23-.1,.03-.16,.05-.17,.05-.12-.04-.18-.09-.18-.13,0-.06,.04-.09,.09-.09,.03,0,.07,.02,.13,.05l.27-.05h.09v-.05c-.53-.73-.8-1.17-.8-1.33v-.05h.44l.22-.04c-.34-.79-.54-1.58-.58-2.39h-.57v-.13h.48c.06,0,.09-.03,.09-.09,0-.06-.03-.09-.09-.09h-.8c-.06,0-.09-.03-.09-.09v-.13c.13,0,.22-.01,.27-.04l.09,.04c.44,0,.67-.06,.67-.17,.06-.84,.29-1.62,.71-2.36v-.04c0-.06-.03-.09-.09-.09h-.44l-.09-.05c.53-.94,1.14-1.59,1.82-1.95,0-.06-.03-.09-.09-.09h-.89v-.05c.34-.31,.97-.59,1.87-.84,.48-.08,.91-.13,1.29-.13h.09c.07,0,.13-.02,.17-.05Zm-2.88,6.21v.13h.13c.06,0,.09-.03,.09-.09l-.09-.04h-.13Zm4.7,2.48h.4c.06,0,.09,.04,.09,.09-.37,.33-.64,.49-.8,.49h-.36v-.09c.11,0,.33-.16,.66-.49Z"/><path d="M142.56,84.91h3.15c.06,0,.1,.18,.13,.55,.15,0,.23,.03,.23,.09v.96l-.36,.28h-.41c-.06,0-.09,.04-.09,.09v.09h.5c.06,0,.09,.04,.09,.09v4.74l-.04,.09c.21,.04,.32,.09,.32,.14v2.73c0,.06,.04,.09,.09,.09,.06,0,.09-.02,.09-.05l.46,.05h3.42l.09,.05-.04,.23v1.37c0,.06-.03,.09-.09,.09l-.27-.05s-.13,.05-.23,.05v.09s.11,.01,.28,.04l.27-.04,.05,.09v.41c0,.06-.03,.09-.09,.09h-6.06c-.25,0-.66-.02-1.23-.05v-.41s-.04-.09-.13-.13h-.41v-.09h.41s.08-.04,.13-.13v-4.37c-.21-.12-.32-.19-.32-.23v-4.79c0-.06-.18-.1-.55-.13v-.05c.28,0,.53-.1,.73-.28,.09,0,.13-.03,.13-.09v-.83c0-.18-.11-.27-.32-.27v-.41c0-.06,.04-.09,.09-.09Z"/><path d="M151.01,84.94h3.13c.06,0,.11,.17,.14,.5h.5c.06,.01,.09,.04,.09,.09l-.14,.09c-.1-.03-.16-.05-.18-.05-.05,.03-.11,.05-.18,.05v-.05c-.06,.03-.1,.05-.13,.05v5.36c0,.07,.12,.12,.36,.13,.05-.03,.11-.05,.18-.05,0,.01,.03,.06,.09,.13v.14s-.05,.08-.14,.13h-.27c-.09,0-.14-.02-.14-.05l-.22,.05h-.46c-.06,0-.09,.04-.09,.09v.18c0,.06,.04,.09,.09,.09h.95v3.18c0,.07,.02,.13,.05,.18-.05,.15-.14,.23-.27,.23,0-.03-.02-.05-.05-.05l-.04,.09v1.32c0,.06,.04,.09,.09,.09,.05-.03,.11-.05,.18-.05,.06,.11,.09,.23,.09,.36l-.09,.05h-2c-.25,0-.66-.02-1.22-.05v-.27l-.32-.18s-.02-.05-.05-.05l.05-.32v-.27c0-.07-.02-.13-.05-.18,.03-.05,.05-.11,.05-.18v-.23c0-.06-.14-.13-.41-.23-.03-.06-.05-.1-.05-.13,.05-.12,.1-.19,.14-.19h.18c.05,0,.1,.14,.13,.41h.23c.06,0,.09-.03,.09-.09v-3.36c0-.06-.03-.09-.09-.09-.53-.03-.85-.05-.95-.05l-.05-.09v-.13s.04-.09,.13-.14c.03,0,.05,.02,.05,.05l.09-.05h.95c.06,0,.09-.03,.09-.09v-.14l-.09-.13-.32,.05h-.09s-.09-.04-.13-.13v-5.27l.04-.09s-.13-.05-.27-.05v-.09h.23v-.45c0-.06,.04-.09,.09-.09Zm.23,.59c0,.06,.04,.09,.09,.09h.09c.06,0,.09-.03,.09-.09s-.03-.09-.09-.09h-.09c-.06,.01-.09,.04-.09,.09Z"/><path d="M159.68,84.91s.05,.02,.05,.05l.17-.05c1.42,0,2.64,.34,3.64,1.02,1.06,0,1.6,.12,1.6,.36,.67,.54,1.18,1.11,1.55,1.73v.27l-1.64,.84c-.3,.18-.53,.27-.66,.27h-.44c-.67-.93-1.27-1.46-1.82-1.6-.18-.08-.46-.19-.85-.31-.52,0-1.13,.18-1.82,.53v.05c.33,0,.49,.03,.49,.09-.8,.72-1.2,1.28-1.2,1.68-.09,.11-.18,.41-.26,.88h-.89c-.06,0-.09,.04-.09,.09,0,.04,.04,.08,.13,.13h.75s.12,.37,.22,1.11c.15,.6,.46,1.13,.93,1.6l-.09,.04h-.49v.09c.39,.38,1.04,.68,1.95,.89,.33,0,.83-.13,1.47-.4,.6,0,1.05-.19,1.38-.58h.04v-.09h-.44v-.04c.11-.2,.3-.47,.58-.8h.53c.06,0,.58,.27,1.56,.8,.62,0,1.05,.13,1.29,.4v.05c-.12,.13-.18,.2-.18,.22l-.31-.05c-.19,0-.46,.29-.8,.89-.13,.06-.37,.09-.71,.09h-.09s-.09,.04-.13,.13h.58v.13c-.94,.88-1.74,1.37-2.4,1.47-.47,.23-1,.35-1.6,.35h-.93c-1.61,0-3.05-.58-4.31-1.72-.12-.15-.35-.23-.66-.23-.1,.03-.16,.05-.17,.05-.12-.04-.18-.09-.18-.13,0-.06,.04-.09,.09-.09,.03,0,.07,.02,.13,.05l.27-.05h.09v-.05c-.53-.73-.8-1.17-.8-1.33v-.05h.44l.22-.04c-.34-.79-.54-1.58-.58-2.39h-.57v-.13h.48c.06,0,.09-.03,.09-.09,0-.06-.03-.09-.09-.09h-.8c-.06,0-.09-.03-.09-.09v-.13c.13,0,.22-.01,.27-.04l.09,.04c.44,0,.67-.06,.67-.17,.06-.84,.29-1.62,.71-2.36v-.04c0-.06-.03-.09-.09-.09h-.44l-.09-.05c.53-.94,1.14-1.59,1.82-1.95,0-.06-.03-.09-.09-.09h-.89v-.05c.34-.31,.97-.59,1.87-.84,.48-.08,.91-.13,1.29-.13h.09c.07,0,.13-.02,.17-.05Zm-2.88,6.21v.13h.13c.06,0,.09-.03,.09-.09l-.09-.04h-.13Zm4.7,2.48h.4c.06,0,.09,.04,.09,.09-.37,.33-.64,.49-.8,.49h-.36v-.09c.11,0,.33-.16,.66-.49Z"/><path d="M170.04,84.91c.33,.03,.5,.08,.5,.13v2.63h.5c.06,0,.09,.04,.09,.09v.86l.05,.23c.39,0,.59-.15,.59-.46-.03-.06-.05-.1-.05-.13l.05-.09c-.03-.05-.05-.11-.05-.18,.18-.08,.27-.19,.27-.32h-.41c-.06,0-.09-.03-.09-.09,.05,0,.89-.88,2.5-2.63h3.99v.05c-.38,.43-1.22,1.31-2.5,2.63v.04h.46v.09s-.36,.4-1.09,1.09h-.55l-.22,.05v-.05l-.09,.05h-.36v.09h.95c.06,0,.09,.04,.09,.09-.03,0-.45,.44-1.27,1.32v.05c.36,.44,1.02,1.21,2,2.31-.08,.06-.14,.09-.18,.09,0,.14,.17,.23,.5,.27l.13,.18v.09h-.41v.13c.15,0,.23,.02,.23,.05l.23-.05h.5c.23,0,.37,.06,.41,.18l-.05,.09-.22-.05c-.11,0-.25,.02-.41,.05-.06-.03-.1-.05-.13-.05l-.09,.05c-.06-.03-.1-.05-.13-.05l-.05,.09c.41,.42,1.03,1.14,1.86,2.18,.06,0,.29,.24,.68,.72v.05l-.04,.09c.03,.06,.04,.1,.04,.14h.23s.09,.04,.14,.13c0,.06-.03,.09-.09,.09h-2.72c-.3,0-.76-.01-1.36-.04-.08-.15-.22-.23-.41-.23v-.09c.06-.08,.09-.12,.09-.13v-.05c-.07,0-.52-.54-1.36-1.63l-1-1.23c0-.06,.04-.09,.09-.09l.19,.05c.06-.03,.1-.05,.13-.05v.05l.09-.05h.5c.06,0,.09-.03,.09-.09-.07-.06-.13-.09-.18-.09-.19,0-.59-.02-1.18-.05l-.09-.13s.05-.02,.05-.05c.06,.03,.1,.05,.13,.05l.09-.05c.05,.03,.11,.05,.18,.05h.09v-.05c0-.06-.08-.15-.23-.27l-.09,.04c-.15-.04-.23-.08-.23-.13v-.05l.36-.27c.03-.06,.05-.11,.05-.14-.06-.13-.12-.21-.18-.22h-.05s-.22,.18-.54,.54c-.12,0-.18,.03-.18,.09v.05l.27,.18c.03,.06,.05,.1,.05,.13-.08,.06-.12,.09-.13,.09h-.41c-.06,0-.09,.04-.09,.09v3.68c0,.06-.03,.09-.09,.09h-1.81c-.3,0-.76-.01-1.36-.04l-.05-.09v-3.63c0-.06,.04-.09,.09-.09h.5l.05-.23v-.05c-.21,0-.32-.04-.32-.13v-.05c0-.09,.11-.13,.32-.13v-.23s.01-.05,.04-.05l-.04-.09v-3.31c0-.06-.05-.09-.14-.09-.6-.03-.93-.05-.99-.05l-.05-.09,.09-.05c.54-.03,.91-.05,1.09-.05v-.91l-.05-.23h-.5c-.06,0-.09-.03-.09-.09v-2.54c0-.06,.04-.09,.09-.09h.18c1.64,0,2.48-.02,2.54-.05Zm-2.86,7.89h.09c.06,0,.09,.04,.09,.09v.09s-.04,.09-.13,.13c-.04,0-.09-.04-.13-.13v-.09c0-.06,.04-.09,.09-.09Zm2.81-3.9v.09h.23v-.04l-.05-.09s-.11,.05-.18,.05Zm1.13,.23c0,.06,.04,.09,.09,.09l.05-.09v-.09h-.05c-.06,0-.09,.04-.09,.09Zm1.77,7.71h.36s.11,.06,.18,.18h-.5s-.09-.05-.14-.14l.09-.04Z"/><path d="M183.44,84.94l.32,.05h1.85c.07,0,.12-.02,.17-.05,.18,.04,.27,.08,.27,.13v3.38c0,.06-.03,.09-.09,.09h-.45c-.06,0-.09,.04-.09,.09v.05c0,.06,.12,.1,.36,.13,.05-.03,.11-.05,.18-.05,.06,.08,.09,.14,.09,.18l-.05,.09c0,.07,.09,.13,.27,.18,0,.42,.06,.63,.18,.63,.24,0,.36,.01,.36,.04l.23-.04h3.65c.03-.11,.05-.17,.05-.18,0-.03-.02-.08-.05-.13l.05-.23c-.03-.06-.05-.1-.05-.13h-.23c-.06,0-.09-.03-.09-.09v-.27h-1.4c-.06,0-.09-.03-.09-.09v-.14c.55-.03,.96-.04,1.22-.04h.18c.06,0,.09-.03,.09-.09v-3.38c0-.06,.04-.09,.09-.09h3.16v3.29l.05,.23-.09,.05h-.68l-.27,.04s-.12-.04-.22-.04h-.18c-.06,0-.09,.04-.09,.09v.05c0,.06,.04,.09,.09,.09,.55,.03,1.02,.05,1.4,.05,0,.03,.02,.05,.05,.05l-.05,.22c0,.06,.12,.11,.36,.14v3.15l.04,.09,.09-.04h.18c.18,.02,.27,.06,.27,.13v.23s-.04,.08-.13,.13c-.11-.03-.17-.05-.18-.05l-.27,.05v.99c0,.07-.12,.13-.36,.17v2.71l.05,.32-.13,.09h-1.9c-.25,0-.66-.01-1.21-.04l-.05-.09v-2.98c0-.06,.04-.09,.09-.09h.23l.05-.32c0-.07-.02-.13-.05-.18,.04-.37,.07-.58,.09-.63l.09,.05h.27s.09-.04,.13-.13v-.23c0-.06-.18-.11-.54-.13l-.09-.18-.09,.05h-.99c-.11,0-.24-.02-.4-.05-.05,.03-.11,.05-.18,.05l-.09-.05c-.05,.03-.11,.05-.18,.05-.03,0-.04-.02-.04-.05l-.09,.05h-1.26l-.27-.05s-.12,.05-.23,.05h-.4c-.06,0-.09,.04-.09,.09v1.54c0,.06,.04,.09,.09,.09h.27c.07,0,.13-.02,.18-.05,.24,.03,.36,.08,.36,.13v.05c0,.06-.03,.09-.09,.09h-1.17l-.22,.04v2.84c0,.06-.03,.09-.09,.09h-1.94c-.25,0-.66-.01-1.21-.04l-.05-.09v-.58s.02-.05,.05-.05l-.05-.09v-2.03c0-.06,.04-.09,.09-.09h.05c.09,0,.13,.01,.13,.04l.23-.04h.76l.23-.05v-.09c0-.06-.03-.09-.09-.09h-.72c-.06,0-.09-.03-.09-.09v-4.65l-.27-.18c0-.18-.03-.27-.09-.27h-.46c-.06,0-.09-.03-.09-.09v-.05c0-.06,.04-.09,.09-.09h.41s.09-.04,.13-.13v-2.48c0-.07,.02-.13,.05-.18-.03-.05-.05-.11-.05-.18v-.54c0-.06,.04-.09,.09-.09h.4c.12,0,.18-.02,.18-.05Zm6.36,7.53h.4c.06,.01,.09,.04,.09,.09v.23c0,.06-.03,.09-.09,.09-.33,0-.5-.04-.5-.13h.05l-.05-.09v-.09c0-.06,.04-.09,.09-.09Z"/><path d="M195.88,84.91h6.45s.08,.04,.13,.13v1.55s.04,.09,.13,.13h.18c.07,0,.13-.02,.19-.05,.15,.04,.22,.08,.22,.13v.09c0,.06-.03,.09-.09,.09h-.23v.23c0,.06-.03,.09-.09,.09h-3.13c-.32,0-.8,.02-1.45,.05v.41c0,.06,.04,.09,.09,.09h.41c.06,0,.09,.04,.09,.09v1.95h3.95c.06,0,.09,.04,.09,.09v.68c0,.06-.17,.1-.5,.13l-.09-.05-.27,.05c-.06-.03-.11-.05-.14-.05l-.05,.23v.77l.05,.46-.13,.09h-3.86c0,.1-.1,.16-.31,.18l-.28-.05h-.09c-.06,0-.09,.04-.09,.09v.04h.28l.46,.05v1.5c0,.16,.09,.25,.27,.27,0,.07,.02,.13,.05,.18-.03,.05-.05,.11-.05,.18v.05h4.32c.06,0,.1,.15,.13,.46h.68c.06,0,.09,.04,.09,.09,0,.06-.03,.09-.09,.09h-.5l-.23,.05v1.72h-7.45s-.05-.02-.05-.05l-.09,.05h-.27s-.09-.04-.14-.13v-.09s.02-.05,.05-.05l-.05-.09v-1.09l-.23-.04h-.4c-.06,0-.09-.03-.09-.09v-.09c0-.06,.04-.09,.09-.09,.5-.03,.9-.05,1.18-.05h.18v-.09l-.46-.05h-.18c-.06,0-.09-.04-.09-.13l.05-.09c-.03-.05-.05-.11-.05-.18,0-.04,.09-.08,.27-.13,.03-.05,.05-.12,.05-.19,0-.13-.11-.2-.32-.22v-1.55l.05-.09-.09-.05h-.59c-.06,0-.09-.03-.09-.09,0-.06,.04-.09,.09-.09h.54c.06,0,.09-.03,.09-.09v-1.5c0-.06,.05-.09,.14-.09s.38-.01,.86-.04v-2.77c0-.09-.17-.14-.5-.14h-.09v-.72l.32-.18v-.09c0-.06-.03-.09-.09-.09h-.54c-.06,0-.09-.03-.09-.09v-1.59l.05-.09c.61-.03,1.06-.05,1.36-.05Zm-1.72,5.45h.23c.06,0,.09,.04,.09,.09v.23c0,.06-.03,.09-.09,.09h-.23c-.06,0-.09-.03-.09-.09v-.23c.01-.06,.04-.09,.09-.09Zm1.64,5.04h.41v-.09h-.32c-.06,0-.09,.04-.09,.09Zm4.9,.05v.18c0,.06,.04,.09,.09,.09h.63s.02-.08,.05-.14c-.03-.06-.05-.1-.05-.13h-.72Z"/><path d="M203.85,84.91c.06,0,.09,.02,.09,.05,.46-.03,.79-.05,1.01-.05h3.18c1.15,0,1.93,.11,2.32,.32,.27,.08,.44,.17,.5,.28-.03,.05-.05,.11-.05,.18,.47,.23,.88,.73,1.23,1.5,.21,.64,.32,1.13,.32,1.46,0,.11-.04,.48-.13,1.09,.18,0,.27,.03,.27,.09-.34,.94-.89,1.64-1.64,2.09l-.68,.27v.05c.07,.07,.24,.31,.5,.73-.1,.06-.17,.09-.23,.09l.05,.09v.05c-.55,.03-.91,.04-1.09,.04v.05c0,.06,.04,.09,.09,.09h1.13l.41,.5c.3,0,.5,.15,.59,.46v.05c-.15,0-.23,.03-.23,.09,.94,1.35,1.42,2.05,1.42,2.09-.12,.02-.18,.05-.18,.09,.21,.32,.31,.5,.31,.55l-.09,.04h-2.28c-.25,0-.66-.01-1.23-.04-.24-.34-.36-.53-.36-.55,.05-.03,.13-.05,.23-.05v-.04c-.88-1.34-1.32-2.07-1.32-2.19h.18v-.09c-.09-.3-.28-.45-.54-.45-.24-.3-.42-.46-.55-.46h-.82v.23s-.01,.04-.04,.04l.04,.09v2.09h.5c.06,0,.09,.04,.09,.09,0,.06-.03,.09-.09,.09h-.5c0,.15-.01,.23-.04,.23l.04,.09v.54c0,.07-.01,.13-.04,.18,.03,.06,.04,.11,.04,.14l-.09,.04h-1.87c-.3,0-.76-.01-1.37-.04v-1.09c0-.06,.04-.09,.09-.09h.5v-.13h-.5c-.06,0-.09-.03-.09-.09v-2.36l-.23-.05h-.91c-.06,0-.09-.03-.09-.09l.09-.05c.76-.01,1.13-.04,1.13-.09,0-.09,.03-.14,.09-.14,.06,.03,.1,.05,.13,.05l.05-.09v-3.1c0-.06,.04-.09,.09-.09h.23l.05-.28c-.06-.03-.1-.05-.13-.05-.27,.03-.42,.05-.46,.05,0-.24-.12-.36-.36-.36v-.23l.32-.18v-3.05l.27-.18v-.46c0-.06,.04-.09,.09-.09h.32c.1,0,.18-.02,.23-.05Zm-.18,4.6v.05h.09v-.05h-.09Zm.23,0v.05h.09v-.05h-.09Zm1.13,3.73v.05c0,.06,.04,.09,.09,.09h.82c.06,0,.09-.03,.09-.09v-.05h-1Zm1.23-5.91s-.01,.04-.04,.04c.03,.3,.04,.53,.04,.68v.28s-.01,.05-.04,.05l.04,.09v.05c0,.27-.12,.41-.36,.41v.28c.24,.02,.36,.06,.36,.13h-.04c.03,.06,.04,.1,.04,.13h1.09v.09h-.41l-.18,.23h-.23v.46h1.41c.61,0,1.02-.15,1.23-.46,.3,0,.45-.11,.45-.32h-.41l-.09-.04c.06-.21,.09-.39,.09-.55v-.36c0-.32-.27-.67-.82-1.05-.07-.06-.37-.11-.91-.13l-.09,.04-.09-.04s-.04,.01-.04,.04c-.11-.03-.17-.04-.19-.04-.26,.03-.41,.04-.45,.04-.17-.03-.29-.04-.37-.04Zm.14,5.73l-.09-.05c0,.06-.03,.09-.09,.09,.03,.06,.04,.1,.04,.13,.3-.03,.53-.04,.68-.04h.05l.09,.04,.19-.32c-.12-.27-.2-.41-.23-.41h-.41c-.06,0-.11,.18-.14,.54h-.09Zm2.27,3.6h.09s.03,.11,.09,.18v.09s-.1-.08-.18-.23v-.05Zm.32,.46h.05v.09h-.05v-.09Zm3.51-7.65h.13v.09h-.13v-.09Zm.32,0h.14v.09h-.14v-.09Zm.23,0h.41v.09h-.41v-.09Z"/><path d="M214.61,84.91h6.45s.08,.04,.13,.13v1.55s.04,.09,.13,.13h.18c.07,0,.13-.02,.19-.05,.15,.04,.22,.08,.22,.13v.09c0,.06-.03,.09-.09,.09h-.23v.23c0,.06-.03,.09-.09,.09h-3.13c-.32,0-.8,.02-1.45,.05v.41c0,.06,.04,.09,.09,.09h.41c.06,0,.09,.04,.09,.09v1.95h3.95c.06,0,.09,.04,.09,.09v.68c0,.06-.17,.1-.5,.13l-.09-.05-.27,.05c-.06-.03-.11-.05-.14-.05l-.05,.23v.77l.05,.46-.13,.09h-3.86c0,.1-.1,.16-.31,.18l-.28-.05h-.09c-.06,0-.09,.04-.09,.09v.04h.28l.46,.05v1.5c0,.16,.09,.25,.27,.27,0,.07,.02,.13,.05,.18-.03,.05-.05,.11-.05,.18v.05h4.32c.06,0,.1,.15,.13,.46h.68c.06,0,.09,.04,.09,.09,0,.06-.03,.09-.09,.09h-.5l-.23,.05v1.72h-7.45s-.05-.02-.05-.05l-.09,.05h-.27s-.09-.04-.14-.13v-.09s.02-.05,.05-.05l-.05-.09v-1.09l-.23-.04h-.4c-.06,0-.09-.03-.09-.09v-.09c0-.06,.04-.09,.09-.09,.5-.03,.9-.05,1.18-.05h.18v-.09l-.46-.05h-.18c-.06,0-.09-.04-.09-.13l.05-.09c-.03-.05-.05-.11-.05-.18,0-.04,.09-.08,.27-.13,.03-.05,.05-.12,.05-.19,0-.13-.11-.2-.32-.22v-1.55l.05-.09-.09-.05h-.59c-.06,0-.09-.03-.09-.09,0-.06,.04-.09,.09-.09h.54c.06,0,.09-.03,.09-.09v-1.5c0-.06,.05-.09,.14-.09s.38-.01,.86-.04v-2.77c0-.09-.17-.14-.5-.14h-.09v-.72l.32-.18v-.09c0-.06-.03-.09-.09-.09h-.54c-.06,0-.09-.03-.09-.09v-1.59l.05-.09c.61-.03,1.06-.05,1.36-.05Zm-1.72,5.45h.23c.06,0,.09,.04,.09,.09v.23c0,.06-.03,.09-.09,.09h-.23c-.06,0-.09-.03-.09-.09v-.23c.01-.06,.04-.09,.09-.09Zm1.64,5.04h.41v-.09h-.32c-.06,0-.09,.04-.09,.09Zm4.9,.05v.18c0,.06,.04,.09,.09,.09h.63s.02-.08,.05-.14c-.03-.06-.05-.1-.05-.13h-.72Z"/><path d="M225.97,84.93h7.55c.07,0,.13,.02,.18,.05,.05-.03,.11-.05,.18-.05,.06,.08,.09,.14,.09,.18l-.05,.09c.03,.16,.09,.28,.18,.36v1.72l-.05,.09-.23-.04h-.95l-.28,.04s-.12-.04-.22-.04l-.32,.04c-.05-.03-.11-.04-.18-.04l-.09,.04s-.05-.01-.05-.04l-.22,.04h-.46v1.58c0,.06-.12,.11-.36,.14,0,.12-.03,.17-.09,.17h-.41c-.06,.01-.09,.04-.09,.09,0,.06,.04,.09,.09,.09h.46l.09,.05-.05,.23v.41l.28,.18c0,.06-.18,.1-.54,.13v2.66c0,.08-.15,.15-.46,.18v.05h.68c.18,.08,.27,.14,.27,.18v3.58c0,.06-.03,.09-.09,.09h-1.81c-.3,0-.76-.02-1.36-.05-.03-.55-.05-.96-.05-1.22v-2.44c-.27-.06-.41-.12-.41-.18l-.09,.05h-.41v-.05c0-.06,.04-.09,.09-.09l.22,.05c.06-.03,.11-.05,.14-.05v-2.72c0-.06,.04-.09,.09-.09h.41v-.18c-.15,0-.23-.03-.23-.09v-.59c0-.06-.03-.09-.09-.09h-.4c-.06,0-.09-.03-.09-.09,0-.06,.04-.09,.09-.09h.4l.18-.22h.23l.05-.41c0-.06-.02-.09-.05-.09l.05-.23v-.72c0-.13-.06-.22-.18-.27-.03,0-.05,.01-.05,.04l-.23-.04h-2.62c-.06,0-.09-.03-.09-.09v-1.72c-.12,0-.18-.03-.18-.09v-.05c0-.07,.02-.13,.05-.18-.03-.05-.05-.11-.05-.18,.03,0,.05-.02,.05-.05,.65-.03,1.13-.05,1.45-.05Zm.4,4.34h.09c.06,.01,.09,.04,.09,.09,0,.06-.03,.09-.09,.09h-.09c-.06,0-.09-.03-.09-.09,0-.06,.04-.09,.09-.09Zm1.27,3.58v.09h.05v-.09h-.05Z"/><path d="M240.21,84.94c1.04,0,1.92,.22,2.64,.66-.05,.03-.11,.04-.17,.04v.09c.11,0,.52,.28,1.23,.84,.17,0,.35,.06,.53,.17h.49l.21,.05v.05c0,.06-.03,.09-.09,.09h-.22s-.04-.02-.04-.05c-.05,.03-.12,.05-.22,.05v.04c.67,.74,1.17,1.74,1.5,3l-.13,.09h-1.06v.05c.43,0,.68,.01,.75,.04,.05-.03,.12-.04,.22-.04h.09c.12,0,.17,.28,.17,.84,0,.06,.04,.09,.09,.09h.44s.04,.01,.04,.04l.09-.04h.04c.18,.02,.27,.06,.27,.13,0,.98-.28,1.97-.84,2.96l-.09,.04h-.84l-.18,.13h-.44c-.06,0-.09,.04-.09,.09,.32,0,.48,.02,.48,.05-.68,1.13-1.74,1.96-3.17,2.51-.7,.18-1.33,.27-1.9,.27h-.48c-.34,0-.58-.03-.7-.09-.06,.03-.1,.05-.13,.05-1.29-.22-2.31-.65-3.04-1.28-.57-.48-1.02-.96-1.37-1.45-.05-.03-.11-.05-.17-.05h-.4v-.09h.44c0-.09,.03-.13,.09-.13h.57l.22-.04c-.46-.87-.71-1.66-.75-2.38v-.13l.05-.09s.04,.02,.04,.05c.44-.03,.77-.05,.97-.05h.66v-.05c0-.06-.03-.09-.09-.09h-1.58s-.11-.1-.22-.31h-.75c-.06,0-.09-.03-.09-.09s.12-.1,.36-.13v-.17s-.08-.01-.13-.04c-.06,.03-.1,.04-.13,.04-.03-.06-.04-.1-.04-.13,.08-1.02,.46-2.05,1.14-3.08,.26-.35,.5-.53,.71-.53,.38,0,.57-.04,.57-.13-.1-.06-.19-.09-.26-.09h-.05l-.22,.04-.04-.09,.04-.09c-.12,0-.17-.03-.17-.09,.22-.19,.63-.47,1.23-.84h.48c.79-.47,1.93-.7,3.44-.7Zm-6.7,6.43h.48c.06,0,.09,.04,.09,.09l-.09,.05h-.48v-.13Zm.26,1.32h.27l.04,.22-.13,.09h-.13c-.06,0-.1-.09-.13-.26l.09-.05Zm2.78-2.25v.09l.27,.18v.09c0,.06-.03,.09-.09,.09h-.21v.13h.79s.09,.1,.13,.31c.63,.03,1.1,.04,1.41,.04h.35v.09c0,.06-.03,.09-.09,.09-.05-.03-.1-.05-.13-.05-.03,0-.05,.02-.05,.05l-.22-.05c-.11,0-.52,.02-1.23,.05v.21c.14,.72,.51,1.37,1.1,1.95,.33,.22,.49,.36,.49,.4l-.09,.04h-.62l.04,.09v.05h-.26v.09h.53c.52,.15,.87,.22,1.05,.22s.45-.04,.84-.13c0-.06-.03-.09-.09-.09h-.22v-.09h.48s.24-.04,.62-.13h.44c.07,0,.12-.01,.17-.04,.06,.03,.1,.04,.13,.04,.58-.25,1.09-.79,1.54-1.63,.17-.59,.26-.93,.26-1.01v-.36s-.15-.09-.44-.13l-.09,.04h-.31c-.12,0-.18-.29-.18-.88l-.21-.05h-1.5v-.09c.44-.03,.77-.04,.97-.04h.66v-.05c-.28-.78-.72-1.38-1.32-1.8-.67-.41-1.21-.62-1.63-.62-1.23,0-2.23,.63-3,1.89-.21,.52-.31,.86-.31,1.01Zm2.38,1.76h.05c.06,0,.09,.04,.09,.09v.13c0,.06-.03,.09-.09,.09h-.05c-.06,0-.09-.03-.09-.09v-.13c0-.06,.04-.09,.09-.09Zm5.42-.66l-.04,.09v.04h.04c0-.06,.03-.09,.09-.09v-.04h-.09Z"/><path d="M137.9,101.44c1.05,0,2.01,.25,2.9,.75v.04c-.16,0-.29,.02-.4,.05v.04c.66,.31,1.35,.96,2.07,1.94,.29,0,.46,.09,.53,.26,0,.04-.09,.08-.26,.13,0,.13-.49,.41-1.46,.84-.44,.29-.75,.44-.93,.44h-.35l-.84-1.01c-.21-.11-.33-.2-.35-.27v-.04h.17v-.09s-.23-.09-.57-.26h-.18c-.27,0-.49-.06-.66-.17h-.71c-.07,0-.12,.01-.17,.04l-.09-.04c-1.01,.32-1.68,.73-1.99,1.23-.07,.08-.26,.14-.57,.17v.04c0,.06,.04,.09,.09,.09,.06,0,.09-.02,.09-.05l.44,.05h.79v.04c0,.06-.03,.09-.09,.09h-1.06c-.17,.12-.35,.62-.52,1.5v.36c0,.36,.09,.83,.26,1.41l-.09,.04h-.44l-.26,.05c-.06-.03-.1-.05-.13-.05l-.09,.05c-.06-.03-.1-.05-.13-.05v.05c.2,.56,.59,1.03,1.19,1.41,.29,.21,.5,.31,.62,.31h1.1c.69,.21,1.19,.31,1.5,.31,.61-.21,.99-.31,1.14-.31,.06,.03,.1,.05,.13,.05,.67-.45,1.02-.73,1.05-.84,.17-.12,.41-.43,.71-.93v-.05h-3.52c-.06,0-.09-.03-.09-.09v-1.23c.15-.09,.22-.16,.22-.22l-.04-.09c.03-.05,.04-.11,.04-.18-.15-.04-.22-.08-.22-.13,.06-.08,.09-.12,.09-.13,.06,0,.09,.02,.09,.05,.34-.03,.59-.05,.75-.05h4.58c.06,0,.12,.02,.17,.05,.05-.03,.11-.05,.17-.05h.79l.27,.31v.26c-.15,.08-.24,.27-.27,.58-.03,.43-.04,.72-.04,.88,.15,0,.22,.03,.22,.09v.05c-.33,1.14-.63,1.72-.89,1.72-.05-.03-.11-.05-.17-.05-.69,1.24-1.92,2.15-3.7,2.73-.5,.09-.86,.13-1.1,.13h-.84c-2.25,0-4.03-.96-5.33-2.87h-1.19c-.15-.08-.4-.58-.75-1.5v-.27h1.19l-.17-1.41v-.21c.13-1.12,.25-1.68,.35-1.68,.57-.03,.94-.04,1.11-.04v-.09h-.05c-.31,0-.78-.02-1.41-.05,0-.04,.15-.1,.44-.17,.57-1.43,1.45-2.47,2.64-3.13,.46,0,.86-.1,1.19-.31,.79-.35,1.78-.53,2.99-.53Zm-7.62,4h.13v.13c-.1,.03-.16,.05-.17,.05l-.05-.09c0-.06,.04-.09,.09-.09Zm5.24,1.59h.09c.06,0,.09,.04,.09,.09v.09h-.18c-.06,0-.09-.03-.09-.09,0-.06,.04-.09,.09-.09Zm.58-.05c.29,.02,.44,.07,.44,.13,0,.06-.03,.09-.09,.09h-.4c-.06,0-.09-.03-.09-.09,0-.04,.04-.09,.13-.13Z"/><path d="M145.37,101.4h6.45s.08,.04,.13,.13v1.55s.04,.09,.13,.13h.18c.07,0,.13-.02,.19-.05,.15,.04,.22,.08,.22,.13v.09c0,.06-.03,.09-.09,.09h-.23v.23c0,.06-.03,.09-.09,.09h-3.13c-.32,0-.8,.02-1.45,.05v.41c0,.06,.04,.09,.09,.09h.41c.06,0,.09,.04,.09,.09v1.95h3.95c.06,0,.09,.04,.09,.09v.68c0,.06-.17,.1-.5,.13l-.09-.05-.27,.05c-.06-.03-.11-.05-.14-.05l-.05,.23v.77l.05,.46-.13,.09h-3.86c0,.1-.1,.16-.31,.18l-.28-.05h-.09c-.06,0-.09,.04-.09,.09v.04h.28l.46,.05v1.5c0,.16,.09,.25,.27,.27,0,.07,.02,.13,.05,.18-.03,.05-.05,.11-.05,.18v.05h4.32c.06,0,.1,.15,.13,.46h.68c.06,0,.09,.04,.09,.09,0,.06-.03,.09-.09,.09h-.5l-.23,.05v1.72h-7.45s-.05-.02-.05-.05l-.09,.05h-.27s-.09-.04-.14-.13v-.09s.02-.05,.05-.05l-.05-.09v-1.09l-.23-.04h-.4c-.06,0-.09-.03-.09-.09v-.09c0-.06,.04-.09,.09-.09,.5-.03,.9-.05,1.18-.05h.18v-.09l-.46-.05h-.18c-.06,0-.09-.04-.09-.13l.05-.09c-.03-.05-.05-.11-.05-.18,0-.04,.09-.08,.27-.13,.03-.05,.05-.12,.05-.19,0-.13-.11-.2-.32-.22v-1.55l.05-.09-.09-.05h-.59c-.06,0-.09-.03-.09-.09,0-.06,.04-.09,.09-.09h.54c.06,0,.09-.03,.09-.09v-1.5c0-.06,.05-.09,.14-.09s.38-.01,.86-.04v-2.77c0-.09-.17-.14-.5-.14h-.09v-.72l.32-.18v-.09c0-.06-.03-.09-.09-.09h-.54c-.06,0-.09-.03-.09-.09v-1.59l.05-.09c.61-.03,1.06-.05,1.36-.05Zm-1.72,5.45h.23c.06,0,.09,.04,.09,.09v.23c0,.06-.03,.09-.09,.09h-.23c-.06,0-.09-.03-.09-.09v-.23c.01-.06,.04-.09,.09-.09Zm1.64,5.04h.41v-.09h-.32c-.06,0-.09,.04-.09,.09Zm4.9,.05v.18c0,.06,.04,.09,.09,.09h.63s.02-.08,.05-.14c-.03-.06-.05-.1-.05-.13h-.72Z"/><path d="M153.32,101.42h7.55c.07,0,.13,.02,.18,.05,.05-.03,.11-.05,.18-.05,.06,.08,.09,.14,.09,.18l-.05,.09c.03,.16,.09,.28,.18,.36v1.72l-.05,.09-.23-.04h-.95l-.28,.04s-.12-.04-.22-.04l-.32,.04c-.05-.03-.11-.04-.18-.04l-.09,.04s-.05-.01-.05-.04l-.22,.04h-.46v1.58c0,.06-.12,.11-.36,.14,0,.12-.03,.17-.09,.17h-.41c-.06,.01-.09,.04-.09,.09,0,.06,.04,.09,.09,.09h.46l.09,.05-.05,.23v.41l.28,.18c0,.06-.18,.1-.54,.13v2.66c0,.08-.15,.15-.46,.18v.05h.68c.18,.08,.27,.14,.27,.18v3.58c0,.06-.03,.09-.09,.09h-1.81c-.3,0-.76-.02-1.36-.05-.03-.55-.05-.96-.05-1.22v-2.44c-.27-.06-.41-.12-.41-.18l-.09,.05h-.41v-.05c0-.06,.04-.09,.09-.09l.22,.05c.06-.03,.11-.05,.14-.05v-2.72c0-.06,.04-.09,.09-.09h.41v-.18c-.15,0-.23-.03-.23-.09v-.59c0-.06-.03-.09-.09-.09h-.4c-.06,0-.09-.03-.09-.09,0-.06,.04-.09,.09-.09h.4l.18-.22h.23l.05-.41c0-.06-.02-.09-.05-.09l.05-.23v-.72c0-.13-.06-.22-.18-.27-.03,0-.05,.01-.05,.04l-.23-.04h-2.62c-.06,0-.09-.03-.09-.09v-1.72c-.12,0-.18-.03-.18-.09v-.05c0-.07,.02-.13,.05-.18-.03-.05-.05-.11-.05-.18,.03,0,.05-.02,.05-.05,.65-.03,1.13-.05,1.45-.05Zm.4,4.34h.09c.06,.01,.09,.04,.09,.09,0,.06-.03,.09-.09,.09h-.09c-.06,0-.09-.03-.09-.09,0-.06,.04-.09,.09-.09Zm1.27,3.58v.09h.05v-.09h-.05Z"/><path d="M167.53,101.41h2.68c.05,0,.3,.64,.73,1.91l.13,.09h.46c.08,.06,.44,1.03,1.09,2.91l.32,.91-.09,.05h-1.05v.05c0,.16,.09,.25,.27,.27l.28-.04h.04c.13,.07,.55,1.22,1.27,3.45l-.09,.05c-.1-.03-.16-.05-.18-.05-.03,0-.04,.02-.04,.05l-.32-.05h-.23c-.06,0-.09,.04-.09,.09,.16,.48,.27,.72,.32,.72h.91c.06,0,.09,.04,.09,.09v.04c0,.06-.03,.09-.09,.09h-1c-.07,0-.13-.02-.18-.05-.05,.03-.12,.05-.19,.05h-.95l-.32-.05-.05,.09c0,.06,.04,.09,.09,.09h2.72c.09,0,.29,.5,.59,1.5v.05h-3.41s-.23-.52-.54-1.55h-2.41c-.07,0-.13-.01-.18-.04-.05,.03-.11,.04-.18,.04-.06,0-.09-.03-.09-.09,.03,0,.05-.02,.05-.05,.56-.03,.97-.05,1.23-.05h1.46c.06,0,.09-.03,.09-.09l-.13-.09h-.91s-.12-.14-.27-.41h-.36v.05s.01,.15,.04,.36h-.41s-.14-.14-.32-.41h-2.64c-.17,0-.28,.12-.32,.36l.09,.05h.77c.06,0,.09,.04,.09,.09v.04l-.59,1.78h-3.46v-.05l.64-1.82-1.36-.05c-.06,0-.09-.03-.09-.09,.15-.49,.26-.73,.32-.73h1.23c.22,0,.37-.26,.45-.77,.05,0,.21-.38,.46-1.13l.5-1.46v-.05h-.46c-.06-.28-.07-.38-.03-.29-.04-.04,.36-.07,1.21-.07,.04,0,.29-.63,.72-1.86l.64-1.86v-.05h-.23v-.05c.23-.77,.47-1.42,.73-1.95l.54-.04Zm1.46,3.95c-.33,1.27-.55,1.91-.68,1.91h-1.05c-.06,0-.1,.09-.13,.28h.28c.18,.02,.27,.06,.27,.13-.3,.94-.46,1.42-.46,1.46l.23,.04,.32-.04c.06,.03,.1,.04,.13,.04l.28-.04s.04,.01,.04,.04l.23-.04h.77s.05,.01,.05,.04c.3-.03,.46-.07,.46-.13v-.05c-.11-.2-.25-.59-.41-1.18,0-.16-.14-.25-.41-.27,0-.08-.03-.15-.09-.23,.01-.06,.04-.09,.09-.09h.77c-.15-.55-.35-1.17-.59-1.86h-.09Z"/><path d="M132.15,117.91h6.43c.06,0,.09,.04,.09,.09v2.23l-.09,.13-.31-.05c-2.63,.03-4.06,.05-4.29,.05v.23c0,.06-.03,.09-.09,.09h-.82c-.06,0-.09,.04-.09,.09v.28c0,.06,.04,.09,.09,.09h.05c.09,0,.13-.02,.13-.05,.33,.03,.53,.08,.59,.13h1.01c.06,0,.09,.04,.09,.09v.05c-.28,.03-.54,.04-.78,.04h-.41v1.42c0,.06,.04,.09,.09,.09h4.7c.06,0,.09,.04,.09,.09v2.19s-.04,.09-.13,.14h-3.78s-.09,.04-.14,.13v1.5l.05,.23h.46c.06,.01,.09,.04,.09,.09v.55c0,.06-.03,.09-.09,.09h-.46s-.02,.08-.05,.14v1l.05,.23h1.32c.06,0,.09,.04,.09,.09v.04c0,.06-.05,.09-.14,.09-.24,0-.66,.02-1.28,.05,0,.03-.02,.05-.05,.05l.05,.32v.23c0,.06-.03,.09-.09,.09h-3.15c-.06,0-.09-.03-.09-.09v-.54c0-.06,.04-.09,.09-.09h1.05c.16-.03,.25-.05,.28-.05v-.13l-1.19-.05h-.14c-.06,0-.09-.03-.09-.09v-1.23c0-.06,.04-.09,.09-.09h.46v-.59c0-.06-.18-.11-.54-.13v-4.2c-.06,0-.09-.01-.09-.04-.03,0-.05,.01-.05,.04l-.32-.04h-.32c-.06,0-.09-.03-.09-.09v-1.32c0-.06,.04-.09,.09-.09,.55-.03,.92-.04,1.09-.04,0-.06-.04-.09-.13-.09-.43,0-.88-.04-1.32-.13h-.46v-.37c0-.06,.04-.09,.09-.09h.27s.05,.01,.05,.04c.05-.02,.24-.05,.55-.09v-2.6l.05-.09c.65-.03,1.14-.05,1.46-.05Zm-1.5,9.34l.05,.09v.46c0,.06-.03,.09-.09,.09l-.05-.09v-.46c0-.06,.04-.09,.09-.09Zm.32,0h.09c.06,0,.09,.04,.09,.09v.18s-.01,.05-.04,.05l.04,.09v.14c0,.06-.03,.09-.09,.09h-.09c-.06,0-.09-.03-.09-.09v-.46c0-.06,.04-.09,.09-.09Z"/><path d="M138.46,117.91h3.08c.06,0,.09,.04,.09,.09v3.22h.85c.06,0,.09,.04,.09,.09v.05c-.4,.03-.7,.05-.9,.05h-.04v.31l-.23,.18v.27c.1,0,.21,.07,.32,.22h.54c.06,0,.09,.04,.09,.09v2.32c0,.06-.03,.09-.09,.09-.03,0-.05-.01-.05-.04-.05,.03-.11,.04-.17,.04v.09c0,.07,.01,.12,.04,.17,0,.27-.13,.4-.4,.4v.05l.32,.04,.18-.04c.12,0,.21,.22,.27,.67,.09,.07,.13,.17,.13,.31l-.18,.09c-.16-.03-.3-.05-.4-.05h-.05c0,.29,.34,.62,1.03,.99,.17,.09,.5,.15,.99,.17,.63-.18,1.14-.54,1.52-1.07,0-.06,.04-.09,.09-.09h.36c.25,0,.41-.15,.49-.45l.05-.22v-.76c0-.21,.03-.37,.09-.49-.06,0-.09-.03-.09-.09v-1.88l.05-.22c-.13-.09-.34-.13-.63-.13,0,.03-.01,.05-.04,.05,0-.16-.11-.25-.32-.27v-.27l.27-.18c0-.24,.03-.36,.09-.36h.8v-.09c-.4-.03-.7-.05-.89-.05v-3.22c0-.06,.04-.09,.09-.09h3.04c.06,0,.09,.04,.09,.09v3.13c0,.06,.04,.09,.09,.09h.76c.06,0,.09,.04,.09,.09-.15,.06-.42,.09-.81,.09h-.09c0,.27-.09,.4-.26,.4v.36c.15,0,.22,.03,.22,.09l-.05,.09,.22,.04h.45l.13,.09-.05,.22v3.31c0,.07,.02,.12,.05,.17-.03,.3-.08,.45-.13,.45h-.54c-.1,0-.2,.27-.31,.8-.21,.57-.71,1.18-1.52,1.83,.06,0,.09,.04,.09,.09v.05c-.98,.5-1.89,.76-2.72,.76-.12,0-.24,.02-.36,.05-1.24,0-2.36-.22-3.35-.67-.27-.18-.54-.28-.8-.32-.81-.55-1.34-1.25-1.61-2.1l-.09-.44,.09-.05h.5s.08-.04,.13-.13l-.05-.62c.03-.06,.05-.1,.05-.13l-.13-.09h-.54c-.06,0-.09-.03-.09-.09l.09-.04h.31v-.54l.32-.18c0-.18,.02-.27,.05-.27l-.05-.32v-.8c0-.11,.02-.24,.05-.4-.03-.04-.05-.14-.05-.31v-.09s.02-.04,.05-.04c0-.08-.09-.14-.27-.18-.06,.03-.1,.05-.13,.05v-.05l-.09,.05h-.17c-.08-.15-.14-.22-.18-.22h-.09v-.13l-.05-.23c.18,0,.27-.16,.27-.49h.89v-.09c-.44-.03-.74-.05-.89-.05l-.05-.09v-3.13c0-.06,.04-.09,.09-.09Zm8.49,6.35c0,.06-.03,.09-.09,.09v.05h.09l.05-.09v-.05h-.05Z"/><path d="M149.52,117.89h3.15c.06,0,.1,.18,.13,.55,.15,0,.23,.03,.23,.09v.96l-.36,.28h-.41c-.06,0-.09,.04-.09,.09v.09h.5c.06,0,.09,.04,.09,.09v4.74l-.04,.09c.21,.04,.32,.09,.32,.14v2.73c0,.06,.04,.09,.09,.09,.06,0,.09-.02,.09-.05l.46,.05h3.42l.09,.05-.04,.23v1.37c0,.06-.03,.09-.09,.09l-.27-.05s-.13,.05-.23,.05v.09s.11,.01,.28,.04l.27-.04,.05,.09v.41c0,.06-.03,.09-.09,.09h-6.06c-.25,0-.66-.02-1.23-.05v-.41s-.04-.09-.13-.13h-.41v-.09h.41s.08-.04,.13-.13v-4.37c-.21-.12-.32-.19-.32-.23v-4.79c0-.06-.18-.1-.55-.13v-.05c.28,0,.53-.1,.73-.28,.09,0,.13-.03,.13-.09v-.83c0-.18-.11-.27-.32-.27v-.41c0-.06,.04-.09,.09-.09Z"/><path d="M157.84,117.89h3.15c.06,0,.1,.18,.13,.55,.15,0,.23,.03,.23,.09v.96l-.36,.28h-.41c-.06,0-.09,.04-.09,.09v.09h.5c.06,0,.09,.04,.09,.09v4.74l-.04,.09c.21,.04,.32,.09,.32,.14v2.73c0,.06,.04,.09,.09,.09,.06,0,.09-.02,.09-.05l.46,.05h3.42l.09,.05-.04,.23v1.37c0,.06-.03,.09-.09,.09l-.27-.05s-.13,.05-.23,.05v.09s.11,.01,.28,.04l.27-.04,.05,.09v.41c0,.06-.03,.09-.09,.09h-6.06c-.25,0-.66-.02-1.23-.05v-.41s-.04-.09-.13-.13h-.41v-.09h.41s.08-.04,.13-.13v-4.37c-.21-.12-.32-.19-.32-.23v-4.79c0-.06-.18-.1-.55-.13v-.05c.28,0,.53-.1,.73-.28,.09,0,.13-.03,.13-.09v-.83c0-.18-.11-.27-.32-.27v-.41c0-.06,.04-.09,.09-.09Z"/><path d="M170.86,117.89h6.45s.08,.04,.13,.13v1.55s.04,.09,.13,.13h.18c.07,0,.13-.02,.19-.05,.15,.04,.22,.08,.22,.13v.09c0,.06-.03,.09-.09,.09h-.23v.23c0,.06-.03,.09-.09,.09h-3.13c-.32,0-.8,.02-1.45,.05v.41c0,.06,.04,.09,.09,.09h.41c.06,0,.09,.04,.09,.09v1.95h3.95c.06,0,.09,.04,.09,.09v.68c0,.06-.17,.1-.5,.13l-.09-.05-.27,.05c-.06-.03-.11-.05-.14-.05l-.05,.23v.77l.05,.46-.13,.09h-3.86c0,.1-.1,.16-.31,.18l-.28-.05h-.09c-.06,0-.09,.04-.09,.09v.04h.28l.46,.05v1.5c0,.16,.09,.25,.27,.27,0,.07,.02,.13,.05,.18-.03,.05-.05,.11-.05,.18v.05h4.32c.06,0,.1,.15,.13,.46h.68c.06,0,.09,.04,.09,.09,0,.06-.03,.09-.09,.09h-.5l-.23,.05v1.72h-7.45s-.05-.02-.05-.05l-.09,.05h-.27s-.09-.04-.14-.13v-.09s.02-.05,.05-.05l-.05-.09v-1.09l-.23-.04h-.4c-.06,0-.09-.03-.09-.09v-.09c0-.06,.04-.09,.09-.09,.5-.03,.9-.05,1.18-.05h.18v-.09l-.46-.05h-.18c-.06,0-.09-.04-.09-.13l.05-.09c-.03-.05-.05-.11-.05-.18,0-.04,.09-.08,.27-.13,.03-.05,.05-.12,.05-.19,0-.13-.11-.2-.32-.22v-1.55l.05-.09-.09-.05h-.59c-.06,0-.09-.03-.09-.09,0-.06,.04-.09,.09-.09h.54c.06,0,.09-.03,.09-.09v-1.5c0-.06,.05-.09,.14-.09s.38-.01,.86-.04v-2.77c0-.09-.17-.14-.5-.14h-.09v-.72l.32-.18v-.09c0-.06-.03-.09-.09-.09h-.54c-.06,0-.09-.03-.09-.09v-1.59l.05-.09c.61-.03,1.06-.05,1.36-.05Zm-1.72,5.45h.23c.06,0,.09,.04,.09,.09v.23c0,.06-.03,.09-.09,.09h-.23c-.06,0-.09-.03-.09-.09v-.23c.01-.06,.04-.09,.09-.09Zm1.64,5.04h.41v-.09h-.32c-.06,0-.09,.04-.09,.09Zm4.9,.05v.18c0,.06,.04,.09,.09,.09h.63s.02-.08,.05-.14c-.03-.06-.05-.1-.05-.13h-.72Z"/><path d="M176,117.91h3.5c.09,.03,.53,.68,1.32,1.95v.09h-.28v.09h.54c.21,.19,.32,.34,.32,.45-.06,.03-.11,.05-.14,.05v.05c.24,.32,.36,.52,.36,.59h.23c.18,.12,.28,.24,.28,.36h.09c.09-.02,.13-.12,.13-.32-.13,0-.26-.17-.4-.5l.4-.46c.93-1.49,1.44-2.27,1.54-2.35h3.5c.06,0,.09,.04,.09,.09l-1.58,2.36c-.32,.27-.53,.51-.64,.72v.09c.09,0,.13,.03,.13,.09l-.27,.46v.05h.32c.06,0,.09,.04,.09,.09l-.09,.13c.21,0,.32,.03,.32,.09l-.09,.05h-.46l-.09-.05c-.2,.3-.35,.45-.46,.45-.15,.11-.45,.55-.91,1.32,1.5,2.29,2.58,3.89,3.22,4.8v.05s-.08,.09-.23,.13c.49,.74,.75,1.17,.77,1.27-.05,.03-.19,.06-.41,.09v-.05l-.09,.05h-1.72c-1.03,0-1.54-.08-1.54-.23,0-.05-.23-.43-.68-1.13,.04-.03,.13-.05,.27-.05v-.09l-.81-1.27c-.15-.23-.23-.4-.23-.5l.23-.36c-.08-.2-.18-.34-.27-.41l-.59,.87c-.36,.68-.66,1.12-.91,1.31-.06-.03-.1-.05-.13-.05s-.05,.02-.05,.05c-.03,0-.08-.02-.13-.05-.31,.03-.56,.05-.73,.05h-.09v.09h1.04c.06,0,.09,.04,.09,.09-.07,.18-.19,.27-.36,.27-.2,0-.37,.18-.5,.55-.38,.57-.59,.85-.63,.86h-2.04c-.25,0-.53-.02-.87-.05l-.09,.05c-.24-.03-.36-.06-.36-.09l-.09,.05h-.05c-.06,0-.09-.03-.09-.09,.56-.85,.88-1.28,.95-1.28,.24,0,.39-.09,.45-.27-.06-.03-.1-.05-.13-.05-.06,0-.39-.02-1-.05v-.04c0-.06,.04-.09,.09-.09,.17,0,.28,.02,.32,.05,.17-.03,.3-.05,.41-.05h.5c.96-1.5,1.94-2.97,2.95-4.4-.33-.57-.62-1.01-.87-1.32,0-.06,.04-.09,.09-.09l-.23-.36,.09-.05h.09s.05,.02,.05,.05l.09-.05h.09s.05,.02,.05,.05c.05-.03,.11-.05,.18-.05v-.09h-.41c-.12-.15-.24-.22-.36-.22h-.32c-.24-.39-.48-.59-.72-.59-.12-.22-.26-.42-.41-.59,.05-.03,.11-.05,.18-.05v-.09c-.12-.27-.33-.41-.63-.41l-.09,.04c-.17-.03-.29-.04-.36-.04v-.09h.46v-.05c0-.06-.42-.69-1.27-1.91,0-.06,.04-.09,.09-.09Zm2.09,3.9h.18c.18,.02,.28,.07,.28,.14v.04h-.41s-.09-.04-.13-.13l.09-.05Zm2.22,1.86v.05h.09v-.05h-.09Zm.05-3.72v.09c.06,0,.09-.03,.09-.09h-.09Z"/><path d="M184.96,118.98h.09c.06,0,.09,.04,.09,.09v.09h-.18c-.06,0-.09-.03-.09-.09,0-.06,.04-.09,.09-.09Zm1.77-1.09c.16,.03,.31,.05,.46,.05s.29-.02,.46-.05c.07,0,.13,.02,.18,.05,.63-.03,1.15-.05,1.55-.05h1.82c1.49,0,2.54,.35,3.15,1.05l-.09,.05h-.31v.09c0,.06,.04,.09,.09,.09h.55c.4,.35,.72,1.02,.95,2.01h.5c.06,0,.09,.04,.09,.09-.1,.06-.19,.09-.27,.09l-.09-.05c-.18,.03-.27,.06-.27,.09,.03,.06,.05,.1,.05,.13l-.13,.09h-.32v.41c0,.32-.17,.84-.5,1.54-.06,.01-.09,.04-.09,.09h1.14v.13h-.82c-.07,0-.13,.02-.19,.05-.05-.03-.11-.05-.18-.05-.09,.09-.25,.15-.5,.18-.15,.14-.23,.25-.23,.32,.06,0,.09,.04,.09,.09-.46,.45-1.11,.74-1.96,.87h-.54c-.39,0-.8,.01-1.23,.04-.17-.03-.29-.04-.37-.04-.21,.03-.37,.04-.5,.04l-.09-.04c-.05,.03-.11,.04-.18,.04v.23s-.02,.05-.05,.05c0,.21,.15,.32,.46,.32v3.86c0,.15,.06,.23,.18,.23v.14c0,.06-.03,.09-.09,.09h-1.96c-.26,0-.64-.01-1.14-.04,0,.03-.02,.04-.05,.04,0-.1-.1-.2-.27-.32v-4.05l-.23-.05h-.18v-1.37l-.32-.18v-.23l.41-.23c.56-.03,.91-.04,1.05-.04v-.05c-.09,0-.19-.02-.31-.05l-.09,.05c-.17-.03-.3-.05-.41-.05h-.23c-.06,0-.09-.03-.09-.09v-1.95h.18c.18,0,.27-.09,.27-.28,.14,0,.23-.02,.27-.05,.05,.03,.11,.05,.18,.05,.06,0,.09-.03,.09-.09,0-.06-.03-.09-.09-.09h-.41c-.06,0-.09-.05-.09-.14,0-.38,.01-.72,.04-1.05-.03-.23-.04-.49-.04-.77l-.09-.05h-.46c-.06,0-.09-.03-.09-.09,0-.06,.04-.09,.09-.09h.46c.07,0,.12-.08,.13-.23l-.04-.23c.02-.39,.07-.59,.13-.59h.18c.16,0,.3-.02,.41-.05Zm2.6,2.42v.77c0,.06,.04,.09,.09,.09h.41c.06,0,.09,.04,.09,.09,0,.06-.03,.09-.09,.09-.07,0-.13-.02-.18-.05-.05,.03-.11,.05-.18,.05l-.09-.05c-.04,.21-.08,.32-.13,.32h-.32c0,.17-.02,.27-.05,.32,.03,.17,.05,.3,.05,.41v.09c0,.07-.02,.13-.05,.18,.03,.05,.05,.11,.05,.18v.18h1.64c.63,0,1.07-.33,1.32-1,0-.19,.03-.33,.09-.41l.23,.05h.05c.06,0,.09-.09,.09-.28h.46s.02-.08,.05-.14l-.09-.04h-.5c-.29-.58-.8-.87-1.5-.87h-1.42Zm2.23,.91h.5v.09h-.27l-.23-.05v-.05Z"/><path d="M195.87,117.89h3.15c.06,0,.1,.18,.13,.55,.15,0,.23,.03,.23,.09v.96l-.36,.28h-.41c-.06,0-.09,.04-.09,.09v.09h.5c.06,0,.09,.04,.09,.09v4.74l-.04,.09c.21,.04,.32,.09,.32,.14v2.73c0,.06,.04,.09,.09,.09,.06,0,.09-.02,.09-.05l.46,.05h3.42l.09,.05-.04,.23v1.37c0,.06-.03,.09-.09,.09l-.27-.05s-.13,.05-.23,.05v.09s.11,.01,.28,.04l.27-.04,.05,.09v.41c0,.06-.03,.09-.09,.09h-6.06c-.25,0-.66-.02-1.23-.05v-.41s-.04-.09-.13-.13h-.41v-.09h.41s.08-.04,.13-.13v-4.37c-.21-.12-.32-.19-.32-.23v-4.79c0-.06-.18-.1-.55-.13v-.05c.28,0,.53-.1,.73-.28,.09,0,.13-.03,.13-.09v-.83c0-.18-.11-.27-.32-.27v-.41c0-.06,.04-.09,.09-.09Z"/><path d="M207.43,117.9h2.68c.05,0,.3,.64,.73,1.91l.13,.09h.46c.08,.06,.44,1.03,1.09,2.91l.32,.91-.09,.05h-1.05v.05c0,.16,.09,.25,.27,.27l.28-.04h.04c.13,.07,.55,1.22,1.27,3.45l-.09,.05c-.1-.03-.16-.05-.18-.05-.03,0-.04,.02-.04,.05l-.32-.05h-.23c-.06,0-.09,.04-.09,.09,.16,.48,.27,.72,.32,.72h.91c.06,0,.09,.04,.09,.09v.04c0,.06-.03,.09-.09,.09h-1c-.07,0-.13-.02-.18-.05-.05,.03-.12,.05-.19,.05h-.95l-.32-.05-.05,.09c0,.06,.04,.09,.09,.09h2.72c.09,0,.29,.5,.59,1.5v.05h-3.41s-.23-.52-.54-1.55h-2.41c-.07,0-.13-.01-.18-.04-.05,.03-.11,.04-.18,.04-.06,0-.09-.03-.09-.09,.03,0,.05-.02,.05-.05,.56-.03,.97-.05,1.23-.05h1.46c.06,0,.09-.03,.09-.09l-.13-.09h-.91s-.12-.14-.27-.41h-.36v.05s.01,.15,.04,.36h-.41s-.14-.14-.32-.41h-2.64c-.17,0-.28,.12-.32,.36l.09,.05h.77c.06,0,.09,.04,.09,.09v.04l-.59,1.78h-3.46v-.05l.64-1.82-1.36-.05c-.06,0-.09-.03-.09-.09,.15-.49,.26-.73,.32-.73h1.23c.22,0,.37-.26,.45-.77,.05,0,.21-.38,.46-1.13l.5-1.46v-.05h-.46c-.06-.28-.07-.38-.03-.29-.04-.04,.36-.07,1.21-.07,.04,0,.29-.63,.72-1.86l.64-1.86v-.05h-.23v-.05c.23-.77,.47-1.42,.73-1.95l.54-.04Zm1.46,3.95c-.33,1.27-.55,1.91-.68,1.91h-1.05c-.06,0-.1,.09-.13,.28h.28c.18,.02,.27,.06,.27,.13-.3,.94-.46,1.42-.46,1.46l.23,.04,.32-.04c.06,.03,.1,.04,.13,.04l.28-.04s.04,.01,.04,.04l.23-.04h.77s.05,.01,.05,.04c.3-.03,.46-.07,.46-.13v-.05c-.11-.2-.25-.59-.41-1.18,0-.16-.14-.25-.41-.27,0-.08-.03-.15-.09-.23,.01-.06,.04-.09,.09-.09h.77c-.15-.55-.35-1.17-.59-1.86h-.09Z"/><path d="M212.91,121.22h.09c.06,.01,.09,.04,.09,.09,0,.07-.08,.11-.23,.13l-.05-.09v-.05c0-.06,.04-.09,.09-.09Zm1.63-3.31c.29,0,.96,.02,1.99,.05,1.06,1.55,1.65,2.35,1.77,2.4,.12,0,.28,.11,.5,.32h1.46c.06,0,.09,.04,.09,.09,0,.06-.03,.09-.09,.09h-.14c-.07,0-.13-.01-.18-.04-.05,.03-.11,.04-.18,.04-.07,0-.13-.01-.18-.04l-.27,.04h-.28l-.09-.04-.05,.09c.36,.48,1.23,1.73,2.63,3.76l-.23,.09c.42,.63,.69,.99,.82,1.09l.05-.23v-.23c0-.18-.09-.39-.27-.63,.15-.03,.23-.06,.23-.09-.15-.23-.23-.38-.23-.45,.06-.03,.1-.05,.13-.05-.09-.11-.13-.22-.13-.32v-2.41c-.15,0-.23-.01-.23-.04l-.09,.04c-.06,0-.09-.03-.09-.09v-.05c0-.06,.04-.09,.09-.09h.32v-.81c-.18,0-.28-.03-.28-.09v-2.27l.05-.09c.6-.03,1.06-.05,1.36-.05h1.63s.05,.02,.05,.05l.09-.05c.06,0,.09,.04,.09,.09v2.35c.2,0,.3,.04,.32,.13v.64s-.05,.09-.14,.13h-.27v.14h.27s.09,.04,.14,.13v3.09l-.32,.18v1.76s-.09,.1-.27,.18l.04,.32v1.09c.15,0,.23,.03,.23,.09v1.68l.05,.23-.09,.05h-2.04c-.3,0-.75-.02-1.36-.05-.83-1.28-1.32-1.95-1.45-1.99-.14,0-.29-.17-.45-.5-.46-.58-.68-.92-.68-.99h.13v-.09l-1.27-1.81c.15-.03,.23-.06,.23-.09l-.64-.91v-.64c0-.17-.17-.47-.5-.91h-.05v2.41l-.27,.18v.09h.5c.06,0,.09,.04,.09,.09v.13s-.04,.09-.13,.13h-.45l-.05,.54v1.36l.05,.23c-.07,.06-.16,.09-.28,.09v.28l.23,.18v1.54l.05,.27c-.03,.05-.05,.11-.05,.18l.05,.23-.09,.05h-1.99c-.26,0-.67-.02-1.23-.05l-.05-.09v-.05s.02-.05,.05-.05l-.05-.09v-1.95l-.22-.18v-.18l.22-.18v-2.04s.05-.09,.14-.14h.4c.06,0,.09-.03,.09-.09v-.13c0-.06-.03-.09-.09-.09h-.45c-.06,0-.09-.03-.09-.09,0-.06,.04-.09,.09-.09h.23v-.09c0-.1,.01-.18,.04-.23l-.04-.23,.04-.18s-.01-.05-.04-.05l.04-.23v-.09c0-.12-.01-.18-.04-.18l.04-.32v-.18c0-.39-.01-.91-.04-1.54l.04-.09-.04-.09c.03-.24,.07-.36,.13-.36h.41c.21,0,.54-.01,.99-.04v-.09h-.04c-.22,0-.39-.02-.5-.05-.2,.03-.39,.05-.59,.05-.3,0-.45-.1-.45-.32-.18,0-.27-.04-.27-.13v-2.23l.05-.09c.65-.03,1.1-.05,1.36-.05Zm6.53,3.31h.05c.06,.01,.09,.04,.09,.09v.05c0,.06-.03,.09-.09,.09-.04,0-.09-.04-.13-.13,0-.06,.04-.09,.09-.09Zm1.13,3.18c0,.06,.04,.09,.09,.09v-.09h-.09Zm.18,.13v.09h.05v-.09h-.05Z"/><path d="M228.89,117.9h2.68c.05,0,.3,.64,.73,1.91l.13,.09h.46c.08,.06,.44,1.03,1.09,2.91l.32,.91-.09,.05h-1.05v.05c0,.16,.09,.25,.27,.27l.28-.04h.04c.13,.07,.55,1.22,1.27,3.45l-.09,.05c-.1-.03-.16-.05-.18-.05-.03,0-.04,.02-.04,.05l-.32-.05h-.23c-.06,0-.09,.04-.09,.09,.16,.48,.27,.72,.32,.72h.91c.06,0,.09,.04,.09,.09v.04c0,.06-.03,.09-.09,.09h-1c-.07,0-.13-.02-.18-.05-.05,.03-.12,.05-.19,.05h-.95l-.32-.05-.05,.09c0,.06,.04,.09,.09,.09h2.72c.09,0,.29,.5,.59,1.5v.05h-3.41s-.23-.52-.54-1.55h-2.41c-.07,0-.13-.01-.18-.04-.05,.03-.11,.04-.18,.04-.06,0-.09-.03-.09-.09,.03,0,.05-.02,.05-.05,.56-.03,.97-.05,1.23-.05h1.46c.06,0,.09-.03,.09-.09l-.13-.09h-.91s-.12-.14-.27-.41h-.36v.05s.01,.15,.04,.36h-.41s-.14-.14-.32-.41h-2.64c-.17,0-.28,.12-.32,.36l.09,.05h.77c.06,0,.09,.04,.09,.09v.04l-.59,1.78h-3.46v-.05l.64-1.82-1.36-.05c-.06,0-.09-.03-.09-.09,.15-.49,.26-.73,.32-.73h1.23c.22,0,.37-.26,.45-.77,.05,0,.21-.38,.46-1.13l.5-1.46v-.05h-.46c-.06-.28-.07-.38-.03-.29-.04-.04,.36-.07,1.21-.07,.04,0,.29-.63,.72-1.86l.64-1.86v-.05h-.23v-.05c.23-.77,.47-1.42,.73-1.95l.54-.04Zm1.46,3.95c-.33,1.27-.55,1.91-.68,1.91h-1.05c-.06,0-.1,.09-.13,.28h.28c.18,.02,.27,.06,.27,.13-.3,.94-.46,1.42-.46,1.46l.23,.04,.32-.04c.06,.03,.1,.04,.13,.04l.28-.04s.04,.01,.04,.04l.23-.04h.77s.05,.01,.05,.04c.3-.03,.46-.07,.46-.13v-.05c-.11-.2-.25-.59-.41-1.18,0-.16-.14-.25-.41-.27,0-.08-.03-.15-.09-.23,.01-.06,.04-.09,.09-.09h.77c-.15-.55-.35-1.17-.59-1.86h-.09Z"/><path d="M235.85,122.67l.07,.04,.19-.04s.03,.01,.03,.04l.27-.04h3.38l.22,.04,.08-.04,.07,.04,.15-.04s.07,.01,.07,.04l.38-.04h.46c.24,0,.52,.01,.86,.04,.1-.03,.2-.04,.3-.04l.04,.07v.3l-.23,.15v.19c.15,0,.23,.03,.23,.08v.26s-.02,.07-.07,.07h-.27v.07c.08,0,.11,.02,.11,.07v.75c0,.05,.03,.08,.07,.08h.34s.07,.03,.07,.07c0,.05-.02,.07-.07,.07h-6.99c-.06,0-.1-.05-.11-.15h-.38s-.07-.03-.07-.08v-.75l-.19-.15,.07-.04h.34v-.38c-.15,0-.23-.02-.23-.07v-.11s.08-.07,.23-.07v-.34s.03-.07,.07-.07h.33c.06,0,.11-.01,.15-.04Z"/><path d="M131.47,134.39h7.55c.07,0,.13,.02,.18,.05,.05-.03,.11-.05,.18-.05,.06,.08,.09,.14,.09,.18l-.05,.09c.03,.16,.09,.28,.18,.36v1.72l-.05,.09-.23-.04h-.95l-.28,.04s-.12-.04-.22-.04l-.32,.04c-.05-.03-.11-.04-.18-.04l-.09,.04s-.05-.01-.05-.04l-.22,.04h-.46v1.58c0,.06-.12,.11-.36,.14,0,.12-.03,.17-.09,.17h-.41c-.06,.01-.09,.04-.09,.09,0,.06,.04,.09,.09,.09h.46l.09,.05-.05,.23v.41l.28,.18c0,.06-.18,.1-.54,.13v2.66c0,.08-.15,.15-.46,.18v.05h.68c.18,.08,.27,.14,.27,.18v3.58c0,.06-.03,.09-.09,.09h-1.81c-.3,0-.76-.02-1.36-.05-.03-.55-.05-.96-.05-1.22v-2.44c-.27-.06-.41-.12-.41-.18l-.09,.05h-.41v-.05c0-.06,.04-.09,.09-.09l.22,.05c.06-.03,.11-.05,.14-.05v-2.72c0-.06,.04-.09,.09-.09h.41v-.18c-.15,0-.23-.03-.23-.09v-.59c0-.06-.03-.09-.09-.09h-.4c-.06,0-.09-.03-.09-.09,0-.06,.04-.09,.09-.09h.4l.18-.22h.23l.05-.41c0-.06-.02-.09-.05-.09l.05-.23v-.72c0-.13-.06-.22-.18-.27-.03,0-.05,.01-.05,.04l-.23-.04h-2.62c-.06,0-.09-.03-.09-.09v-1.72c-.12,0-.18-.03-.18-.09v-.05c0-.07,.02-.13,.05-.18-.03-.05-.05-.11-.05-.18,.03,0,.05-.02,.05-.05,.65-.03,1.13-.05,1.45-.05Zm.4,4.34h.09c.06,.01,.09,.04,.09,.09,0,.06-.03,.09-.09,.09h-.09c-.06,0-.09-.03-.09-.09,0-.06,.04-.09,.09-.09Zm1.27,3.58v.09h.05v-.09h-.05Z"/><path d="M139.16,134.4h3.13c.06,0,.11,.17,.14,.5h.5c.06,.01,.09,.04,.09,.09l-.14,.09c-.1-.03-.16-.05-.18-.05-.05,.03-.11,.05-.18,.05v-.05c-.06,.03-.1,.05-.13,.05v5.36c0,.07,.12,.12,.36,.13,.05-.03,.11-.05,.18-.05,0,.01,.03,.06,.09,.13v.14s-.05,.08-.14,.13h-.27c-.09,0-.14-.02-.14-.05l-.22,.05h-.46c-.06,0-.09,.04-.09,.09v.18c0,.06,.04,.09,.09,.09h.95v3.18c0,.07,.02,.13,.05,.18-.05,.15-.14,.23-.27,.23,0-.03-.02-.05-.05-.05l-.04,.09v1.32c0,.06,.04,.09,.09,.09,.05-.03,.11-.05,.18-.05,.06,.11,.09,.23,.09,.36l-.09,.05h-2c-.25,0-.66-.02-1.22-.05v-.27l-.32-.18s-.02-.05-.05-.05l.05-.32v-.27c0-.07-.02-.13-.05-.18,.03-.05,.05-.11,.05-.18v-.23c0-.06-.14-.13-.41-.23-.03-.06-.05-.1-.05-.13,.05-.12,.1-.19,.14-.19h.18c.05,0,.1,.14,.13,.41h.23c.06,0,.09-.03,.09-.09v-3.36c0-.06-.03-.09-.09-.09-.53-.03-.85-.05-.95-.05l-.05-.09v-.13s.04-.09,.13-.14c.03,0,.05,.02,.05,.05l.09-.05h.95c.06,0,.09-.03,.09-.09v-.14l-.09-.13-.32,.05h-.09s-.09-.04-.13-.13v-5.27l.04-.09s-.13-.05-.27-.05v-.09h.23v-.45c0-.06,.04-.09,.09-.09Zm.23,.59c0,.06,.04,.09,.09,.09h.09c.06,0,.09-.03,.09-.09s-.03-.09-.09-.09h-.09c-.06,.01-.09,.04-.09,.09Z"/><path d="M150.12,134.4c1.04,0,1.92,.22,2.64,.66-.05,.03-.11,.04-.17,.04v.09c.11,0,.52,.28,1.23,.84,.17,0,.35,.06,.53,.17h.49l.21,.05v.05c0,.06-.03,.09-.09,.09h-.22s-.04-.02-.04-.05c-.05,.03-.12,.05-.22,.05v.04c.67,.74,1.17,1.74,1.5,3l-.13,.09h-1.06v.05c.43,0,.68,.01,.75,.04,.05-.03,.12-.04,.22-.04h.09c.12,0,.17,.28,.17,.84,0,.06,.04,.09,.09,.09h.44s.04,.01,.04,.04l.09-.04h.04c.18,.02,.27,.06,.27,.13,0,.98-.28,1.97-.84,2.96l-.09,.04h-.84l-.18,.13h-.44c-.06,0-.09,.04-.09,.09,.32,0,.48,.02,.48,.05-.68,1.13-1.74,1.96-3.17,2.51-.7,.18-1.33,.27-1.9,.27h-.48c-.34,0-.58-.03-.7-.09-.06,.03-.1,.05-.13,.05-1.29-.22-2.31-.65-3.04-1.28-.57-.48-1.02-.96-1.37-1.45-.05-.03-.11-.05-.17-.05h-.4v-.09h.44c0-.09,.03-.13,.09-.13h.57l.22-.04c-.46-.87-.71-1.66-.75-2.38v-.13l.05-.09s.04,.02,.04,.05c.44-.03,.77-.05,.97-.05h.66v-.05c0-.06-.03-.09-.09-.09h-1.58s-.11-.1-.22-.31h-.75c-.06,0-.09-.03-.09-.09s.12-.1,.36-.13v-.17s-.08-.01-.13-.04c-.06,.03-.1,.04-.13,.04-.03-.06-.04-.1-.04-.13,.08-1.02,.46-2.05,1.14-3.08,.26-.35,.5-.53,.71-.53,.38,0,.57-.04,.57-.13-.1-.06-.19-.09-.26-.09h-.05l-.22,.04-.04-.09,.04-.09c-.12,0-.17-.03-.17-.09,.22-.19,.63-.47,1.23-.84h.48c.79-.47,1.93-.7,3.44-.7Zm-6.7,6.43h.48c.06,0,.09,.04,.09,.09l-.09,.05h-.48v-.13Zm.26,1.32h.27l.04,.22-.13,.09h-.13c-.06,0-.1-.09-.13-.26l.09-.05Zm2.78-2.25v.09l.27,.18v.09c0,.06-.03,.09-.09,.09h-.21v.13h.79s.09,.1,.13,.31c.63,.03,1.1,.04,1.41,.04h.35v.09c0,.06-.03,.09-.09,.09-.05-.03-.1-.05-.13-.05-.03,0-.05,.02-.05,.05l-.22-.05c-.11,0-.52,.02-1.23,.05v.21c.14,.72,.51,1.37,1.1,1.95,.33,.22,.49,.36,.49,.4l-.09,.04h-.62l.04,.09v.05h-.26v.09h.53c.52,.15,.87,.22,1.05,.22s.45-.04,.84-.13c0-.06-.03-.09-.09-.09h-.22v-.09h.48s.24-.04,.62-.13h.44c.07,0,.12-.01,.17-.04,.06,.03,.1,.04,.13,.04,.58-.25,1.09-.79,1.54-1.63,.17-.59,.26-.93,.26-1.01v-.36s-.15-.09-.44-.13l-.09,.04h-.31c-.12,0-.18-.29-.18-.88l-.21-.05h-1.5v-.09c.44-.03,.77-.04,.97-.04h.66v-.05c-.28-.78-.72-1.38-1.32-1.8-.67-.41-1.21-.62-1.63-.62-1.23,0-2.23,.63-3,1.89-.21,.52-.31,.86-.31,1.01Zm2.38,1.76h.05c.06,0,.09,.04,.09,.09v.13c0,.06-.03,.09-.09,.09h-.05c-.06,0-.09-.03-.09-.09v-.13c0-.06,.04-.09,.09-.09Zm5.42-.66l-.04,.09v.04h.04c0-.06,.03-.09,.09-.09v-.04h-.09Z"/><path d="M156.09,137.7h.09c.06,.01,.09,.04,.09,.09,0,.07-.08,.11-.23,.13l-.05-.09v-.05c0-.06,.04-.09,.09-.09Zm1.63-3.31c.29,0,.96,.02,1.99,.05,1.06,1.55,1.65,2.35,1.77,2.4,.12,0,.28,.11,.5,.32h1.46c.06,0,.09,.04,.09,.09,0,.06-.03,.09-.09,.09h-.14c-.07,0-.13-.01-.18-.04-.05,.03-.11,.04-.18,.04-.07,0-.13-.01-.18-.04l-.27,.04h-.28l-.09-.04-.05,.09c.36,.48,1.23,1.73,2.63,3.76l-.23,.09c.42,.63,.69,.99,.82,1.09l.05-.23v-.23c0-.18-.09-.39-.27-.63,.15-.03,.23-.06,.23-.09-.15-.23-.23-.38-.23-.45,.06-.03,.1-.05,.13-.05-.09-.11-.13-.22-.13-.32v-2.41c-.15,0-.23-.01-.23-.04l-.09,.04c-.06,0-.09-.03-.09-.09v-.05c0-.06,.04-.09,.09-.09h.32v-.81c-.18,0-.28-.03-.28-.09v-2.27l.05-.09c.6-.03,1.06-.05,1.36-.05h1.63s.05,.02,.05,.05l.09-.05c.06,0,.09,.04,.09,.09v2.35c.2,0,.3,.04,.32,.13v.64s-.05,.09-.14,.13h-.27v.14h.27s.09,.04,.14,.13v3.09l-.32,.18v1.76s-.09,.1-.27,.18l.04,.32v1.09c.15,0,.23,.03,.23,.09v1.68l.05,.23-.09,.05h-2.04c-.3,0-.75-.02-1.36-.05-.83-1.28-1.32-1.95-1.45-1.99-.14,0-.29-.17-.45-.5-.46-.58-.68-.92-.68-.99h.13v-.09l-1.27-1.81c.15-.03,.23-.06,.23-.09l-.64-.91v-.64c0-.17-.17-.47-.5-.91h-.05v2.41l-.27,.18v.09h.5c.06,0,.09,.04,.09,.09v.13s-.04,.09-.13,.13h-.45l-.05,.54v1.36l.05,.23c-.07,.06-.16,.09-.28,.09v.28l.23,.18v1.54l.05,.27c-.03,.05-.05,.11-.05,.18l.05,.23-.09,.05h-1.99c-.26,0-.67-.02-1.23-.05l-.05-.09v-.05s.02-.05,.05-.05l-.05-.09v-1.95l-.22-.18v-.18l.22-.18v-2.04s.05-.09,.14-.14h.4c.06,0,.09-.03,.09-.09v-.13c0-.06-.03-.09-.09-.09h-.45c-.06,0-.09-.03-.09-.09,0-.06,.04-.09,.09-.09h.23v-.09c0-.1,.01-.18,.04-.23l-.04-.23,.04-.18s-.01-.05-.04-.05l.04-.23v-.09c0-.12-.01-.18-.04-.18l.04-.32v-.18c0-.39-.01-.91-.04-1.54l.04-.09-.04-.09c.03-.24,.07-.36,.13-.36h.41c.21,0,.54-.01,.99-.04v-.09h-.04c-.22,0-.39-.02-.5-.05-.2,.03-.39,.05-.59,.05-.3,0-.45-.1-.45-.32-.18,0-.27-.04-.27-.13v-2.23l.05-.09c.65-.03,1.1-.05,1.36-.05Zm6.53,3.31h.05c.06,.01,.09,.04,.09,.09v.05c0,.06-.03,.09-.09,.09-.04,0-.09-.04-.13-.13,0-.06,.04-.09,.09-.09Zm1.13,3.18c0,.06,.04,.09,.09,.09v-.09h-.09Zm.18,.13v.09h.05v-.09h-.05Z"/></g><g><rect class="f" x="107.5" y="179.08" width="106" height="51.44"/><g><path d="M117.13,192.46h3.15v9.6h9.93v-9.6h3.14v22.84h-3.14v-9.6h-9.93v9.6h-3.15v-22.84Z"/><path d="M141.56,192.46h16.22v3.14h-12.91v6.62h12.91v3.31h-12.91v6.62h12.91v3.14h-16.22v-22.84Z"/><path d="M165.03,192.46h16.22v13.08h-6.46v3.15h-3.31v-2.98h-3.31v9.6h-3.15v-22.84Zm3.31,3.31v6.29h9.6v-6.29h-9.6Zm6.62,13.24h2.98v2.98h-2.98v-2.98Zm3.31,3.31h2.98v2.98h-2.98v-2.98Z"/><path d="M189.19,192.46h16.22v3.14h-12.91v6.62h12.91v3.31h-12.91v6.62h12.91v3.14h-16.22v-22.84Z"/></g></g><rect class="f" x=".5" y="83.08" width="44" height="2"/><rect class="f" x="56.5" y="126.08" width="32" height="4"/><rect class="f" x="251.5" y="113.08" width="20" height="7"/><rect class="f" x="30.5" y="80.08" width="19" height="9"/><rect class="f" x="235.5" y="49.08" width="44" height="2"/><polygon class="f" points="258.98 121.08 315.5 121.08 315.5 116.8 250.5 116.08 258.98 121.08"/></g><rect x="93.5" y="222.08" width="29" height="5"/><rect x="199.5" y="185.08" width="25" height="3"/><rect x="205.5" y="181.08" width="12" height="6"/><rect x="187.5" y="227.08" width="37" height="7"/><rect x="103.5" y="174.08" width="29" height="13"/><rect x="123.5" y="181.08" width="29" height="3"/><rect class="b" x="96.5" y="213.08" width="15" height="5"/><rect class="g" x="171.5" y="222.08" width="23" height="5"/><rect class="g" x="183.5" y="194.08" width="7" height="5"/><rect class="i" x="126.5" y="214.08" width="23" height="5"/><rect class="j" x="185.5" y="198.08" width="22" height="2"/><rect class="j" x="141.5" y="215.08" width="12" height="2"/><rect class="c" x="102.5" y="210.08" width="19" height="3"/></svg>