<?xml version="1.0" encoding="UTF-8"?><svg id="a" xmlns="http://www.w3.org/2000/svg" width="284.99" height="385.07" viewBox="0 0 284.99 385.07"><defs><style>.b{fill:lime;}.c{fill:aqua;}.d{fill:#006837;}.e{fill:blue;}.f{fill:#f15a24;}.g{fill:#ed1e79;}.h{fill:#f7931e;}.i{fill:#fff;}.j{fill:#ff0;}.k{fill:#ed1c24;}.l{fill:red;}.m{fill:#f0f;}.n{fill:#fbb03b;}.o{fill:#fcee21;}.p{fill:#9e005d;}.q{fill:#1b1464;}.r{fill:#39b54a;}.s{fill:none;stroke:#000;stroke-miterlimit:10;}</style></defs><g><g><path class="i" d="M165.39,128.76v37.31l-21.2,13.58s-20.8,9.12-21.8,17.12-24.03,48.35-24.03,48.35c0,0-28.05-61.35-29.51-86.85s-5.46-35.5-5.46-35.5l-18,4.51-16-7.51-6,8.97-10,.03-12-3v9l10.72,4-10.72,12,6,16,8-3.06,30,2.36s16,66.69,15,89.69,21,51.9,21,51.9l19-6.79,31.5-38.79c2.5-6.35,11.5-4.35,11.5-4.35,0,0,2,16,5,12s-7,7-7,7c0,0-9.14,26.83-13.57,30.93s-42.43,19.45-47.43,23.28-22,10.83-29,35.83,175,11,175,11l-9-31,21-77s29.92-92,29.46-100,4.19-18.32-2.13-20.66-63.52,9.16-63.52,9.16l4.2-31.47-41,1.97Z"/><polygon class="c" points="106.39 295.73 80.39 308.73 76.39 325.73 76.39 335.01 100.39 320.73 106.39 295.73"/><path class="m" d="M147.39,281.34l-56,49.78-15,3.89s-18,2.79-25,31.76,83.84,14.88,83.84,14.88l91.16-3.88-10-33.03,8-25-77-38.39Z"/><path class="e" d="M123.39,193.73c0-3.09,38.25-28.59,41-30,18.3-9.41,45.94-22.11,88.49-18.81,49.24,3.81-35.49,193.81-35.49,193.81l-76,8-10-68,4-26-23-31,11-28Z"/><path class="l" d="M190.89,30.66s18.25,19.41,14.87,25.74-43.37-1.67-43.37-1.67l9,76s-19.83,4.92-25.42,5.46c0,0-.42-7.27,0-11.37l-3.58,.91-29-35-1.85-40.01L136.64,5.58s35.75-9.53,46.75-3.69c0,0,36,6.84,39,9.84s7.46,4.63,7.46,4.63c0,0,15.54,1.37,15.54-5.63s3,9,2,11-9,7-11,7,8,25,8,25c0,0,20,12,20,16s-18.83,.32-18.83,.32c0,0,7.58,17.53,6.71,17.6s-16.94,.93-18.91,0-23.36-40.66-23.36-40.66l-39.61-4.26"/><path class="b" d="M142.89,12.14l-26.5,27.59-7,33.57-20.33,14.93s-4.67,11.5,2.33,17.5,7,11.2,7,11.2c0,0-11.15,9.8-16.08,9.8s6.75,12.19,6.75,12.19l-.41,16.76,14.27,6.06s2.46,16.54,1.46,16.77,33-6.77,33-13.77,37.51-17.13,37.51-17.13l30.61-1.08,29.12-3.79s11.17,10.98,14.97,10.49,28.53,1.51,28.66-3.49-17.34-22-17.34-22c0,0,23.64-10,24.06-13s-9.99-7-9.79-12,8.2-18,8.2-18c0,0-9-19.36-17-19.18,0,0,10.68-3.12,10.84-6.97s-9.84-24.18-20.84-24.02-25.43-11.47-25.43-11.47l-10.57-16.36-77.5,5.41Z"/><path class="j" d="M248.32,148.78s-32.93,33.95-47.93,136.95l-93,10-25,11.46-1,23.92,24.98-11.58s110.02,4.2,115.02-2.8,47.92-102,47.46-160c0,0,.49-9.63-6.49-10.81s-14.04,2.87-14.04,2.87Z"/><path class="f" d="M44.02,126.1c-.39,.38-1,.43-1.46,.13-2.3-1.48-8.69-5.5-10.17-5.5s-4.9,.71-5.92,.93c-.2,.04-.37,.13-.53,.26l-6.16,5.31c-.25,.21-.57,.31-.89,.29-1.13-.1-3.93-.21-5.5,.86s-8.7-2.4-12-3.65c-.83-.31-1.46,1.34-1.38,2.22,.25,3.07,.92,8.78,2.38,8.78,1.91,0,11.33,4.83,12,5,.04,0,10.96,2.99,11,3,.89,.32,1.14-1,5-1,3.63,0,8.08,1.64,8.87,1.95,.09,.03,.18,.06,.27,.07,1.62,.21,16.42,2.19,16.15,4.03-.25,1.66,4.09,5.66,5.36,6.79,.22,.2,.5,.3,.8,.3h5.15c.71,0,1.27-.61,1.19-1.32-.67-6.17-3.51-31.82-4.79-31.82-1.41,0-13.17-2.73-19.37,3.37Z"/><path class="o" d="M165.58,97.76s-2.19,8.97-2.19,23.97-2,49-17,50-50-26-50-26c0,0,33.84,7.89,33-23s49-59,49-59"/><path class="o" d="M219.7,41.06s-1.63,9.09-7.7,22.81-11.92,69.88,1.39,76.86c13.31,6.98,50.17-27.8,50.17-27.8,0,0-43.17,13.8-22.17-45.2,10.36-29.11-42-56-42-56"/><path class="j" d="M201.35,48.73s-10.09,44.04,15.42,65.76c2.2,1.87,3.34,4.7,3,7.57l-1.41,11.67s17.59-13.01,18-29c.43-16.99-35-56-35-56Z"/><path class="r" d="M165.39,138.45v28.66s5.79,20.15,24.83,.48l12.17-14.86,4-24-41,9.72Z"/><path class="n" d="M178.06,193.73s11.43-19,16.38-20,45.95-20,45.95-20l9.16-4s-9.16,11-16.16,11-36.5,16.35-36.5,16.35l-6.66,5.58-12.17,11.07Z"/><polygon class="c" points="180.45 178.73 171.95 175.73 152.28 175.73 141.65 178.73 163.71 177.23 178.06 181.61 180.45 178.73"/><path class="g" d="M224.39,309.73s-15.13-28.78-21.06-28.39-74.94,14.19-74.94,14.19l-22,24.2,108.47-.2,9.53-9.8Z"/><path class="p" d="M97.36,298.45l-11.04-21.24s10.08-35.03,13.08-37.75,26-48.73,26-48.73l33,10s-27.07,80.43-61.03,97.71Z"/><path class="q" d="M41.62,164.73l13.31,39.97,5.07,61.53,19.39,41.82s17.93-1.4,17.97-2.36,5.03-16.04,5.03-16.04l-5.03-45.3-16.97-47.55s-12.74-34.06-12.37-37.06-.47-10.81-.47-10.81l-25.93,15.81Z"/><g><path class="m" d="M26.96,139.73l-7.57-5.5S2.48,142.83,1.43,150.78s3.57,15.95,3.57,15.95l14.39-3,7.57-24Z"/><path class="j" d="M35.39,141.73l-9.52-5.47s-15.48,10.47-15.48,13.47-2,9.95,0,11.98,3.95,5.02,3.95,5.02l17.05-5,4-20Z"/><path class="b" d="M51.31,139.73s8.96-1-3.98-3-17.25,3-17.25,3l-8.69,12,1.61,12.94,14.86,3.62,16.47-16.02-3.02-12.55Z"/><path class="c" d="M60.93,153.73s-9.55,13-15.55,13-9.63-2.06-9.63-2.06c0,0-3.03-11.94-1.7-12.94s13.27-15,13.27-15c0,0,9.51,0,10.28,3s-.28,8.19-.28,8.19l3.61,5.81Z"/></g><polygon class="c" points="135.23 90.54 141.8 114.73 148.39 117.73 148.43 114.99 150.31 106.22 144.19 86.15 135.23 90.54"/><polygon class="c" points="221.39 106.73 227.06 112.13 231.77 101.94 229.85 87.54 221.39 106.73"/><path class="g" d="M154.89,27.55s-5.5,38.93-7,48.07-4.5,14.14-3.5,27.14,21.93,42.01,28.97,43.51,20.26,9.49,35.15-10.51,23.8-43.43,21.34-48.22,1.93-32.44,1.93-32.44c0,0-19.38-39.34-36.38-39.34s-40.5,11.79-40.5,11.79Z"/><path class="p" d="M213.8,36.41s1.68,16.47,9.13,33.89,4.12,41.82,4.12,41.82c0,0,17.88-20.39,16.11-32.39s-26.77-57.24-26.77-57.24h-26l23.42,13.93Z"/><path class="c" d="M158.39,13.73s36.76-11.82,43-4,16.47,20.45,19,21,12-3,12-3c0,0-2,16-6,18s-33.36-4-36.68-10.5c0,0-15.48-6.89,3.68-4.5,8,1,17.08,24.34,22,25,3.14,.42-16.19,10.78-32,10-16.47-.81-34.19-8.16-36-11-3.56-5.56-3.64-17.54-3.64-17.54l14.64-23.46Z"/><path class="j" d="M157.39,32.73s10.09,44.04-15.42,65.76c-2.2,1.87-3.34,4.7-3,7.57l1.41,11.67s-17.59-13.01-18-29c-.43-16.99,35-56,35-56Z"/><g><g><path class="d" d="M177.39,73.73l-1-2s-6-8-12-8h-8.24l-3.76,3h8l12.1,7h4.9Z"/><polygon class="b" points="192.37 78.59 191.39 76.73 196.39 70.73 216.39 66.73 202.76 73.06 195.39 77.73 192.37 78.59"/><path class="c" d="M176.39,95.73v-6l-14-14s-4,0-6,1-5,8-5,8l25,11Z"/><path class="h" d="M193.39,94.73l1-6s6-14.09,9.5-14.04,6.74,1.04,6.74,1.04l6.76,6-5,6-19,7Z"/><path class="i" d="M176.39,95.73v-4.56l-5-4.44-20-3s4,9,5,9,6.88,3,6.88,3h13.12Z"/><path class="i" d="M193.39,94.73s3.31-11.07,7-11,16-2,16-2l-.86,6.5-7.14,5.5-8.89,2-6.11-1Z"/><path class="e" d="M163.39,85.73v6.09c0,.91-3,2.91-3,2.91l-5-2c-.21-.18-1.97-4.17-1.91-4.44l.91-3.56,9,1Z"/><path class="l" d="M200.39,84.73l2,3v4s-.59,1.59-2,3c-1,1-6,0-6,0,0,0-2-4,1-7s5-3,5-3Z"/><path d="M176.39,94.73v-4c0-1-6-5-6-5,0,0-19-2-20-3l-3-3s1,5,4,6,18.51,1.5,18.51,1.5c0,0,7.49,4.5,6.49,7.5Z"/><path d="M193.39,94.73s-1-3.03,0-5.51,5-6.49,5-6.49l16-3s6-1,6-2,1,3-5,5-15,2-15,2c0,0-7,6-7,10Z"/><path d="M151.39,84.73s3,9,4,9,6,4,9,3,12-1,12-1c0,0-10.6-.19-11.8-.1s-9.2-2.9-9.2-2.9l-3-7-1-1Z"/><path d="M217.15,81.21s-1.76,7.52-2.76,8.52-6,4-6,4l-8.89,2-6.11-1s6.31,.31,6.66,.15,7.34-1.15,8.34-2.15,6.5-6.08,6.5-6.08l1.5-5.81,.76,.37Z"/><path d="M152.39,86.73s-1,2-2,2-2-1-2-1c0,0,1,2.48,3,2.74s2.31-.33,2.31-.33l-1.31-3.41Z"/><path d="M214.7,87.23s1,.5,2,.5,2-1,2-1c0,0-1,2.48-3,2.74s-2.31-.33-2.31-.33l1.31-1.91Z"/><path d="M211.7,90.23s1,.5,2,.5,2-1,2-1c0,0-1,2.48-3,2.74s-2.31-.33-2.31-.33l1.31-1.91Z"/><path d="M215.7,84.23s1,.5,2,.5,2-1,2-1c0,0-1,2.48-3,2.74s-1.31-.74-1.31-.74l.31-1.5Z"/><path d="M154.39,90.73s-1.59,1.32-2.4,1.38-1.68-.7-1.68-.7c0,0,.95,1.95,2.58,2.05s2.49-.73,2.49-.73l-1-2Z"/><path d="M156.39,93.73s-1.51,.83-2.29,1.06-1.71-.06-1.71-.06c0,0,1.16,1.06,2.76,.73s3.24-.73,3.24-.73l-2-1Z"/><path class="b" d="M187.89,90.91s-.11,9.82,.7,11.82,3.8,6,3.8,6c0,0,.5,3.88-2.25,5.44s-7.64,.42-7.64,.42l-4.11-4.86,5.36-9.94,4.14-8.88Z"/><path class="o" d="M182.03,112.73l3.38-3.21,7.02,.53s-1.03,4.68-3.03,4.68-6.89-.35-6.89-.35l-.47-1.65Z"/></g><path class="m" d="M190.39,122.73l7,5s-.58,6-3.29,7.5-6.71,4.5-9.71,3.5-15-7-15-12c0-2-1-2-1-2l6-3c.56-.49,3.43-.79,4.1-.47l4.9,1.47"/><path class="m" d="M175.39,122.73s-5,2-7,2,5,2,5,2l2-4Z"/><path class="m" d="M193.03,125.73s5,2,7,2-5,2-5,2l-2-4Z"/><path class="i" d="M163.17,120.73l4.64,3.55c.38,.29,.84,.48,1.31,.55l11.03,1.55c.06,0,.12,.01,.18,.02,1.34,.1,18.1,1.33,19.06,1.33s5-5,5-5c0,0-1,7-9,8-6.9,.86-19.74-1.25-23.15-1.85-.55-.1-1.06-.36-1.47-.75l-7.61-7.4Z"/></g><polygon class="l" points="143.39 110.73 143.39 113.61 146.39 115.73 147.39 113.96 144.71 109.52 143.39 110.73"/><polygon class="l" points="225.39 107.73 227.26 110.34 227.62 105.61 225.39 107.73"/><path class="o" d="M58.39,139.73s1,7.33,0,8.16-9,3.84-9,3.84l3-8-5.18-8,11.18,4Z"/><path class="m" d="M53.93,143.73l-9,14.5,2.28,6.83s-10.18,2.33-10.5,0-4.32-11.33-3.32-12.33,14.19-18,14.19-18c0,0,6.89,1,6.35,9Z"/><path class="d" d="M141.65,178.73l-16.27,12s9.68,19.08,9.84,24.04-1.71,29.82-1.71,29.82l49.52-31.39-35.61-31.58-5.78-2.88Z"/><path class="l" d="M162.39,198.73s-29.36,19.93-34.23,23c-4.18,2.63-9.77,9-13.77,15-.31,.46-1.01,4.98-1,5.53,.07,4.55,1.55,25.49,22.5,25.01,23.5-.54,26.5-68.54,26.5-68.54Z"/><path class="c" d="M215.39,171.73s-32.6,24.89-37.56,29.34c-6.24,5.59-12.23,9.34-14.44,12.66-.44,.67-1.97,8.45-1.88,9.25,.7,6.08,5.1,32.18,29.01,29.91,27.05-2.57,24.87-81.16,24.87-81.16Z"/></g><g><path class="s" d="M147.74,75.94l1.33,18.44c.03,1.7,.93,3.26,2.39,4.13l10.16,5.58,15.26-2.84,4.32-8.79,.29-11.92-3.07-5.75-27.84-3.15-2.84,4.29Z"/><path class="s" d="M223.31,75.62l-.97,18.46c0,1.7-.87,3.28-2.31,4.18l-10.05,5.77-15.32-2.54-4.49-8.7-.52-11.91,2.95-5.81,27.77-3.69,2.92,4.24Z"/><path d="M181.48,88.22s2.91-3.51,8.41,0v1.01l-3.01-1c-.97-.32-2.01-.3-2.96,.07l-2.44,.93v-1.01Z"/><polygon class="b" points="150.96 73.18 178.8 76.32 181.68 81.49 182.97 80.74 180.02 73.41 150.51 69.84 146.74 75.86 148.19 76.55 150.96 73.18"/><polygon class="m" points="220.04 72.92 192.26 76.61 189.48 81.84 188.18 81.11 190.98 73.72 220.42 69.58 224.31 75.52 222.87 76.24 220.04 72.92"/></g></g><path class="e" d="M180.41,112.13s2.76,5.4,3.37,5,4.61-.4,4.61-.4l2.82-4.11-1.82,6.11-7.36,1.03-2.13-4.03,.51-3.61Z"/><polygon class="e" points="180.39 107.73 180.39 108.73 180.93 108.73 181.48 107.98 180.39 107.73"/><polygon class="k" points="180.93 107.82 185.55 105.73 189.3 105.73 191.39 107.73 189.39 106.7 186.42 106.32 180.93 107.82"/><polygon class="g" points="141.39 108.73 141.39 110.86 142.77 110.86 142.77 108.19 141.39 108.73"/><polygon class="e" points="140.13 104.09 138.42 109.52 140.13 110.49 141.39 105.68 140.13 104.09"/><polygon class="b" points="141.23 101.73 137.39 101.73 137.39 104.36 140.93 102.54 141.23 101.73"/></svg>