<?xml version="1.0" encoding="UTF-8"?><svg id="a" xmlns="http://www.w3.org/2000/svg" width="45" height="45" viewBox="0 0 45 45"><defs><style>.b{fill:#fff;}</style></defs><rect x="-.5" y="0" width="46" height="45"/><path class="b" d="M11.72,23c-1.44,0-2.78-.22-4.02-.67-1.24-.44-2.33-1.1-3.25-1.96s-1.66-1.91-2.19-3.16c-.54-1.24-.8-2.66-.8-4.25s.27-2.93,.8-4.15c.54-1.23,1.25-2.27,2.16-3.14,.9-.86,1.93-1.52,3.1-1.98,1.16-.46,2.38-.69,3.66-.69,1.36,0,2.58,.22,3.67,.65,1.08,.43,2,1.04,2.74,1.82,.75,.78,1.31,1.72,1.71,2.82,.39,1.1,.59,2.31,.59,3.65,0,.37-.01,.72-.04,1.06-.03,.34-.07,.64-.12,.9H4.7c.21,2.17,1,3.79,2.37,4.88,1.37,1.08,3.05,1.63,5.04,1.63,1.15,0,2.19-.16,3.12-.49,.93-.33,1.82-.76,2.68-1.31l1.18,2.12c-.94,.63-2.02,1.16-3.23,1.61-1.21,.44-2.59,.67-4.13,.67Zm-.47-17.44c-.78,0-1.54,.13-2.25,.39-.72,.26-1.37,.63-1.94,1.12-.58,.48-1.06,1.09-1.45,1.82-.39,.73-.67,1.57-.82,2.51h12.15c-.13-1.96-.7-3.42-1.71-4.39s-2.33-1.45-3.98-1.45Z"/><path class="b" d="M21.13,43.24V16.16h2.67l.27,2.43h.12c.89-.84,1.91-1.53,3.08-2.08,1.16-.55,2.33-.82,3.51-.82,1.28,0,2.41,.23,3.39,.69s1.8,1.11,2.47,1.96c.67,.85,1.17,1.87,1.51,3.06,.34,1.19,.51,2.53,.51,4.02,0,1.62-.24,3.06-.71,4.33-.47,1.27-1.1,2.35-1.9,3.23-.8,.89-1.72,1.56-2.76,2.02-1.05,.46-2.14,.69-3.29,.69-.89,0-1.85-.22-2.88-.65-1.03-.43-1.97-1.04-2.8-1.82h-.12l.16,3.61v6.43h-3.21Zm8.31-10.27c1.72,0,3.14-.67,4.23-2,1.1-1.33,1.65-3.19,1.65-5.57,0-1.04-.1-2-.31-2.86-.21-.86-.53-1.6-.96-2.21-.43-.61-.99-1.09-1.67-1.43-.68-.34-1.49-.51-2.43-.51-.84,0-1.73,.23-2.69,.69s-1.93,1.18-2.92,2.17v9.49c.92,.81,1.83,1.38,2.74,1.72,.91,.34,1.7,.51,2.35,.51Z"/><path class="b" d="M41.87,37.1c-.71,0-1.31-.24-1.8-.72s-.73-1.11-.73-1.91,.25-1.43,.73-1.92,1.09-.73,1.8-.73,1.31,.25,1.8,.73c.49,.49,.73,1.13,.73,1.92s-.25,1.43-.73,1.91c-.49,.48-1.09,.72-1.8,.72Z"/></svg>